<?xml version="1.0" encoding="UTF-8" standalone="no"?>
<!DOCTYPE svg PUBLIC "-//W3C//DTD SVG 1.1//EN"
 "http://www.w3.org/Graphics/SVG/1.1/DTD/svg11.dtd">
<!-- Generated by graphviz version 2.43.20190912.0211 (20190912.0211)
 -->
<!-- Title: %3 Pages: 1 -->
<svg width="283pt" height="1134pt"
 viewBox="0.00 0.00 282.78 1134.40" xmlns="http://www.w3.org/2000/svg" xmlns:xlink="http://www.w3.org/1999/xlink">
<g id="graph0" class="graph" transform="scale(1 1) rotate(0) translate(4 1130.4)">
<title>%3</title>
<polygon fill="white" stroke="transparent" points="-4,4 -4,-1130.4 278.78,-1130.4 278.78,4 -4,4"/>
<!-- A -->
<g id="node1" class="node">
<title>A</title>
<ellipse fill="none" stroke="black" cx="20.15" cy="-342.2" rx="18" ry="18"/>
<text text-anchor="middle" x="20.15" y="-338.5" font-family="Times,serif" font-size="14.00">A</text>
</g>
<!-- BestChoice (7) -->
<g id="node2" class="node">
<title>BestChoice (7)</title>
<ellipse fill="none" stroke="black" cx="180.54" cy="-180.2" rx="78.79" ry="78.79"/>
<text text-anchor="middle" x="180.54" y="-176.5" font-family="Times,serif" font-size="14.00">BestChoice (7)</text>
</g>
<!-- A&#45;&gt;BestChoice (7) -->
<g id="edge1" class="edge">
<title>A&#45;&gt;BestChoice (7)</title>
<path fill="none" stroke="green" d="M33.31,-329.76C51.36,-311.3 86.47,-275.38 117.76,-243.38"/>
<polygon fill="green" stroke="green" points="120.3,-245.79 124.79,-236.19 115.3,-240.9 120.3,-245.79"/>
<text text-anchor="middle" x="63.3" y="-307" font-family="Times,serif" font-size="14.00">0</text>
</g>
<!-- B -->
<g id="node3" class="node">
<title>B</title>
<ellipse fill="none" stroke="black" cx="20.15" cy="-288.2" rx="18" ry="18"/>
<text text-anchor="middle" x="20.15" y="-284.5" font-family="Times,serif" font-size="14.00">B</text>
</g>
<!-- B&#45;&gt;BestChoice (7) -->
<g id="edge2" class="edge">
<title>B&#45;&gt;BestChoice (7)</title>
<path fill="none" stroke="green" d="M35.48,-278.42C51.84,-267.27 79.82,-248.19 106.8,-229.8"/>
<polygon fill="green" stroke="green" points="108.84,-232.64 115.13,-224.12 104.89,-226.86 108.84,-232.64"/>
<text text-anchor="middle" x="63.3" y="-266" font-family="Times,serif" font-size="14.00">0</text>
</g>
<!-- C -->
<g id="node4" class="node">
<title>C</title>
<ellipse fill="none" stroke="black" cx="20.15" cy="-234.2" rx="18" ry="18"/>
<text text-anchor="middle" x="20.15" y="-230.5" font-family="Times,serif" font-size="14.00">C</text>
</g>
<!-- C&#45;&gt;BestChoice (7) -->
<g id="edge3" class="edge">
<title>C&#45;&gt;BestChoice (7)</title>
<path fill="none" stroke="green" d="M37.5,-228.62C51.82,-223.74 73.78,-216.25 96.19,-208.62"/>
<polygon fill="green" stroke="green" points="97.46,-211.88 105.8,-205.34 95.2,-205.25 97.46,-211.88"/>
<text text-anchor="middle" x="63.3" y="-225" font-family="Times,serif" font-size="14.00">0</text>
</g>
<!-- D -->
<g id="node5" class="node">
<title>D</title>
<ellipse fill="none" stroke="black" cx="20.15" cy="-180.2" rx="18.4" ry="18.4"/>
<text text-anchor="middle" x="20.15" y="-176.5" font-family="Times,serif" font-size="14.00">D</text>
</g>
<!-- D&#45;&gt;BestChoice (7) -->
<g id="edge4" class="edge">
<title>D&#45;&gt;BestChoice (7)</title>
<path fill="none" stroke="green" d="M38.4,-180.2C51.77,-180.2 71.39,-180.2 91.79,-180.2"/>
<polygon fill="green" stroke="green" points="91.83,-183.7 101.83,-180.2 91.83,-176.7 91.83,-183.7"/>
<text text-anchor="middle" x="63.3" y="-184" font-family="Times,serif" font-size="14.00">0</text>
</g>
<!-- E -->
<g id="node6" class="node">
<title>E</title>
<ellipse fill="none" stroke="black" cx="20.15" cy="-126.2" rx="18" ry="18"/>
<text text-anchor="middle" x="20.15" y="-122.5" font-family="Times,serif" font-size="14.00">E</text>
</g>
<!-- E&#45;&gt;BestChoice (7) -->
<g id="edge5" class="edge">
<title>E&#45;&gt;BestChoice (7)</title>
<path fill="none" stroke="green" d="M37.5,-131.77C51.82,-136.65 73.78,-144.14 96.19,-151.78"/>
<polygon fill="green" stroke="green" points="95.2,-155.14 105.8,-155.06 97.46,-148.52 95.2,-155.14"/>
<text text-anchor="middle" x="63.3" y="-146" font-family="Times,serif" font-size="14.00">0</text>
</g>
<!-- F -->
<g id="node7" class="node">
<title>F</title>
<ellipse fill="none" stroke="black" cx="20.15" cy="-72.2" rx="18" ry="18"/>
<text text-anchor="middle" x="20.15" y="-68.5" font-family="Times,serif" font-size="14.00">F</text>
</g>
<!-- F&#45;&gt;BestChoice (7) -->
<g id="edge6" class="edge">
<title>F&#45;&gt;BestChoice (7)</title>
<path fill="none" stroke="green" d="M35.48,-81.97C51.84,-93.13 79.82,-112.21 106.8,-130.6"/>
<polygon fill="green" stroke="green" points="104.89,-133.54 115.13,-136.28 108.84,-127.75 104.89,-133.54"/>
<text text-anchor="middle" x="63.3" y="-108" font-family="Times,serif" font-size="14.00">0</text>
</g>
<!-- G -->
<g id="node8" class="node">
<title>G</title>
<ellipse fill="none" stroke="black" cx="20.15" cy="-18.2" rx="18.4" ry="18.4"/>
<text text-anchor="middle" x="20.15" y="-14.5" font-family="Times,serif" font-size="14.00">G</text>
</g>
<!-- G&#45;&gt;BestChoice (7) -->
<g id="edge7" class="edge">
<title>G&#45;&gt;BestChoice (7)</title>
<path fill="none" stroke="green" d="M33.58,-30.91C51.75,-49.49 86.8,-85.34 118,-117.26"/>
<polygon fill="green" stroke="green" points="115.51,-119.72 125,-124.42 120.51,-114.82 115.51,-119.72"/>
<text text-anchor="middle" x="63.3" y="-70" font-family="Times,serif" font-size="14.00">0</text>
</g>
<!-- H -->
<g id="node9" class="node">
<title>H</title>
<ellipse fill="none" stroke="black" cx="20.15" cy="-727.2" rx="18.7" ry="18.7"/>
<text text-anchor="middle" x="20.15" y="-723.5" font-family="Times,serif" font-size="14.00">H</text>
</g>
<!-- WhyNot (7) -->
<g id="node10" class="node">
<title>WhyNot (7)</title>
<ellipse fill="none" stroke="black" cx="180.54" cy="-564.2" rx="63.89" ry="63.89"/>
<text text-anchor="middle" x="180.54" y="-560.5" font-family="Times,serif" font-size="14.00">WhyNot (7)</text>
</g>
<!-- H&#45;&gt;WhyNot (7) -->
<g id="edge8" class="edge">
<title>H&#45;&gt;WhyNot (7)</title>
<path fill="none" stroke="orange" stroke-width="2" d="M33.84,-714.13C54.2,-693.19 95.24,-650.95 128.59,-616.63"/>
<polygon fill="orange" stroke="orange" stroke-width="2" points="131.12,-619.05 135.57,-609.44 126.1,-614.17 131.12,-619.05"/>
<text text-anchor="middle" x="63.3" y="-691" font-family="Times,serif" font-size="14.00">1</text>
</g>
<!-- I -->
<g id="node11" class="node">
<title>I</title>
<ellipse fill="none" stroke="black" cx="20.15" cy="-672.2" rx="18" ry="18"/>
<text text-anchor="middle" x="20.15" y="-668.5" font-family="Times,serif" font-size="14.00">I</text>
</g>
<!-- I&#45;&gt;WhyNot (7) -->
<g id="edge9" class="edge">
<title>I&#45;&gt;WhyNot (7)</title>
<path fill="none" stroke="orange" stroke-width="2" d="M35.48,-662.42C54.35,-649.56 88.68,-626.15 119.09,-605.41"/>
<polygon fill="orange" stroke="orange" stroke-width="2" points="121.26,-608.17 127.55,-599.65 117.32,-602.39 121.26,-608.17"/>
<text text-anchor="middle" x="63.3" y="-649" font-family="Times,serif" font-size="14.00">1</text>
</g>
<!-- J -->
<g id="node12" class="node">
<title>J</title>
<ellipse fill="none" stroke="black" cx="20.15" cy="-618.2" rx="18" ry="18"/>
<text text-anchor="middle" x="20.15" y="-614.5" font-family="Times,serif" font-size="14.00">J</text>
</g>
<!-- J&#45;&gt;WhyNot (7) -->
<g id="edge10" class="edge">
<title>J&#45;&gt;WhyNot (7)</title>
<path fill="none" stroke="orange" stroke-width="2" d="M37.5,-612.62C54.9,-606.69 83.57,-596.92 110.63,-587.69"/>
<polygon fill="orange" stroke="orange" stroke-width="2" points="111.77,-591 120.11,-584.46 109.51,-584.38 111.77,-591"/>
<text text-anchor="middle" x="63.3" y="-608" font-family="Times,serif" font-size="14.00">1</text>
</g>
<!-- K -->
<g id="node13" class="node">
<title>K</title>
<ellipse fill="none" stroke="black" cx="20.15" cy="-564.2" rx="18" ry="18"/>
<text text-anchor="middle" x="20.15" y="-560.5" font-family="Times,serif" font-size="14.00">K</text>
</g>
<!-- K&#45;&gt;WhyNot (7) -->
<g id="edge11" class="edge">
<title>K&#45;&gt;WhyNot (7)</title>
<path fill="none" stroke="orange" stroke-width="2" d="M38.4,-564.2C54.96,-564.2 81.14,-564.2 106.47,-564.2"/>
<polygon fill="orange" stroke="orange" stroke-width="2" points="106.49,-567.7 116.49,-564.2 106.49,-560.7 106.49,-567.7"/>
<text text-anchor="middle" x="63.3" y="-568" font-family="Times,serif" font-size="14.00">1</text>
</g>
<!-- L -->
<g id="node14" class="node">
<title>L</title>
<ellipse fill="none" stroke="black" cx="20.15" cy="-510.2" rx="18" ry="18"/>
<text text-anchor="middle" x="20.15" y="-506.5" font-family="Times,serif" font-size="14.00">L</text>
</g>
<!-- L&#45;&gt;WhyNot (7) -->
<g id="edge12" class="edge">
<title>L&#45;&gt;WhyNot (7)</title>
<path fill="none" stroke="orange" stroke-width="2" d="M37.5,-515.77C54.9,-521.7 83.57,-531.48 110.63,-540.7"/>
<polygon fill="orange" stroke="orange" stroke-width="2" points="109.51,-544.02 120.11,-543.94 111.77,-537.4 109.51,-544.02"/>
<text text-anchor="middle" x="63.3" y="-530" font-family="Times,serif" font-size="14.00">1</text>
</g>
<!-- M -->
<g id="node15" class="node">
<title>M</title>
<ellipse fill="none" stroke="black" cx="20.15" cy="-454.2" rx="20.3" ry="20.3"/>
<text text-anchor="middle" x="20.15" y="-450.5" font-family="Times,serif" font-size="14.00">M</text>
</g>
<!-- M&#45;&gt;WhyNot (7) -->
<g id="edge13" class="edge">
<title>M&#45;&gt;WhyNot (7)</title>
<path fill="none" stroke="orange" stroke-width="2" d="M37.21,-465.35C56.47,-478.73 89.89,-501.94 119.5,-522.5"/>
<polygon fill="orange" stroke="orange" stroke-width="2" points="117.52,-525.39 127.73,-528.22 121.52,-519.64 117.52,-525.39"/>
<text text-anchor="middle" x="63.3" y="-491" font-family="Times,serif" font-size="14.00">1</text>
</g>
<!-- N -->
<g id="node16" class="node">
<title>N</title>
<ellipse fill="none" stroke="black" cx="20.15" cy="-397.2" rx="18.7" ry="18.7"/>
<text text-anchor="middle" x="20.15" y="-393.5" font-family="Times,serif" font-size="14.00">N</text>
</g>
<!-- N&#45;&gt;WhyNot (7) -->
<g id="edge14" class="edge">
<title>N&#45;&gt;WhyNot (7)</title>
<path fill="none" stroke="orange" stroke-width="2" d="M33.84,-410.58C54.27,-432.12 95.51,-475.6 128.92,-510.83"/>
<polygon fill="orange" stroke="orange" stroke-width="2" points="126.5,-513.36 135.92,-518.21 131.58,-508.55 126.5,-513.36"/>
<text text-anchor="middle" x="63.3" y="-451" font-family="Times,serif" font-size="14.00">1</text>
</g>
<!-- O -->
<g id="node17" class="node">
<title>O</title>
<ellipse fill="none" stroke="black" cx="20.15" cy="-1108.2" rx="18.4" ry="18.4"/>
<text text-anchor="middle" x="20.15" y="-1104.5" font-family="Times,serif" font-size="14.00">O</text>
</g>
<!-- NoOneWantsIt (7) -->
<g id="node18" class="node">
<title>NoOneWantsIt (7)</title>
<ellipse fill="none" stroke="black" cx="180.54" cy="-946.2" rx="94.48" ry="94.48"/>
<text text-anchor="middle" x="180.54" y="-942.5" font-family="Times,serif" font-size="14.00">NoOneWantsIt (7)</text>
</g>
<!-- O&#45;&gt;NoOneWantsIt (7) -->
<g id="edge15" class="edge">
<title>O&#45;&gt;NoOneWantsIt (7)</title>
<path fill="none" stroke="orange" stroke-width="2" d="M33.58,-1095.49C49.58,-1079.12 78.67,-1049.37 106.69,-1020.7"/>
<polygon fill="orange" stroke="orange" stroke-width="2" points="109.3,-1023.05 113.79,-1013.45 104.29,-1018.15 109.3,-1023.05"/>
<text text-anchor="middle" x="63.3" y="-1072" font-family="Times,serif" font-size="14.00">2</text>
</g>
<!-- P -->
<g id="node19" class="node">
<title>P</title>
<ellipse fill="none" stroke="black" cx="20.15" cy="-1054.2" rx="18" ry="18"/>
<text text-anchor="middle" x="20.15" y="-1050.5" font-family="Times,serif" font-size="14.00">P</text>
</g>
<!-- P&#45;&gt;NoOneWantsIt (7) -->
<g id="edge16" class="edge">
<title>P&#45;&gt;NoOneWantsIt (7)</title>
<path fill="none" stroke="orange" stroke-width="2" d="M35.48,-1044.42C49.25,-1035.04 71.26,-1020.03 93.97,-1004.54"/>
<polygon fill="orange" stroke="orange" stroke-width="2" points="96.06,-1007.35 102.35,-998.83 92.12,-1001.57 96.06,-1007.35"/>
<text text-anchor="middle" x="63.3" y="-1031" font-family="Times,serif" font-size="14.00">2</text>
</g>
<!-- Q -->
<g id="node20" class="node">
<title>Q</title>
<ellipse fill="none" stroke="black" cx="20.15" cy="-1000.2" rx="18.4" ry="18.4"/>
<text text-anchor="middle" x="20.15" y="-996.5" font-family="Times,serif" font-size="14.00">Q</text>
</g>
<!-- Q&#45;&gt;NoOneWantsIt (7) -->
<g id="edge17" class="edge">
<title>Q&#45;&gt;NoOneWantsIt (7)</title>
<path fill="none" stroke="orange" stroke-width="2" d="M37.5,-994.62C48.64,-990.83 64.4,-985.45 81.41,-979.65"/>
<polygon fill="orange" stroke="orange" stroke-width="2" points="82.62,-982.94 90.96,-976.4 80.36,-976.31 82.62,-982.94"/>
<text text-anchor="middle" x="63.3" y="-990" font-family="Times,serif" font-size="14.00">2</text>
</g>
<!-- R -->
<g id="node21" class="node">
<title>R</title>
<ellipse fill="none" stroke="black" cx="20.15" cy="-946.2" rx="18" ry="18"/>
<text text-anchor="middle" x="20.15" y="-942.5" font-family="Times,serif" font-size="14.00">R</text>
</g>
<!-- R&#45;&gt;NoOneWantsIt (7) -->
<g id="edge18" class="edge">
<title>R&#45;&gt;NoOneWantsIt (7)</title>
<path fill="none" stroke="orange" stroke-width="2" d="M38.4,-946.2C48.24,-946.2 61.46,-946.2 75.89,-946.2"/>
<polygon fill="orange" stroke="orange" stroke-width="2" points="76.04,-949.7 86.04,-946.2 76.04,-942.7 76.04,-949.7"/>
<text text-anchor="middle" x="63.3" y="-950" font-family="Times,serif" font-size="14.00">2</text>
</g>
<!-- S -->
<g id="node22" class="node">
<title>S</title>
<ellipse fill="none" stroke="black" cx="20.15" cy="-892.2" rx="18" ry="18"/>
<text text-anchor="middle" x="20.15" y="-888.5" font-family="Times,serif" font-size="14.00">S</text>
</g>
<!-- S&#45;&gt;NoOneWantsIt (7) -->
<g id="edge19" class="edge">
<title>S&#45;&gt;NoOneWantsIt (7)</title>
<path fill="none" stroke="orange" stroke-width="2" d="M37.5,-897.77C48.64,-901.57 64.4,-906.95 81.41,-912.74"/>
<polygon fill="orange" stroke="orange" stroke-width="2" points="80.36,-916.08 90.96,-916 82.62,-909.46 80.36,-916.08"/>
<text text-anchor="middle" x="63.3" y="-911" font-family="Times,serif" font-size="14.00">2</text>
</g>
<!-- T -->
<g id="node23" class="node">
<title>T</title>
<ellipse fill="none" stroke="black" cx="20.15" cy="-838.2" rx="18" ry="18"/>
<text text-anchor="middle" x="20.15" y="-834.5" font-family="Times,serif" font-size="14.00">T</text>
</g>
<!-- T&#45;&gt;NoOneWantsIt (7) -->
<g id="edge20" class="edge">
<title>T&#45;&gt;NoOneWantsIt (7)</title>
<path fill="none" stroke="orange" stroke-width="2" d="M35.48,-847.97C49.25,-857.36 71.26,-872.37 93.97,-887.85"/>
<polygon fill="orange" stroke="orange" stroke-width="2" points="92.12,-890.83 102.35,-893.57 96.06,-885.04 92.12,-890.83"/>
<text text-anchor="middle" x="63.3" y="-873" font-family="Times,serif" font-size="14.00">2</text>
</g>
<!-- U -->
<g id="node24" class="node">
<title>U</title>
<ellipse fill="none" stroke="black" cx="20.15" cy="-783.2" rx="18.7" ry="18.7"/>
<text text-anchor="middle" x="20.15" y="-779.5" font-family="Times,serif" font-size="14.00">U</text>
</g>
<!-- U&#45;&gt;NoOneWantsIt (7) -->
<g id="edge21" class="edge">
<title>U&#45;&gt;NoOneWantsIt (7)</title>
<path fill="none" stroke="orange" stroke-width="2" d="M33.84,-796.26C49.95,-812.84 79.01,-842.74 106.96,-871.5"/>
<polygon fill="orange" stroke="orange" stroke-width="2" points="104.55,-874.05 114.03,-878.78 109.57,-869.17 104.55,-874.05"/>
<text text-anchor="middle" x="63.3" y="-835" font-family="Times,serif" font-size="14.00">2</text>
</g>
</g>
</svg>
