<?xml version="1.0" encoding="UTF-8" standalone="no"?>
<!DOCTYPE svg PUBLIC "-//W3C//DTD SVG 1.1//EN"
 "http://www.w3.org/Graphics/SVG/1.1/DTD/svg11.dtd">
<!-- Generated by graphviz version 2.40.1 (20161225.0304)
 -->
<!-- Title: finite_state_machine Pages: 1 -->
<svg width="239pt" height="1555pt"
 viewBox="0.00 0.00 238.98 1554.69" xmlns="http://www.w3.org/2000/svg" xmlns:xlink="http://www.w3.org/1999/xlink">
<g id="graph0" class="graph" transform="scale(1 1) rotate(0) translate(4 1550.6932)">
<title>finite_state_machine</title>
<polygon fill="#ffffff" stroke="transparent" points="-4,4 -4,-1550.6932 234.9827,-1550.6932 234.9827,4 -4,4"/>
<!-- Dupont -->
<g id="node1" class="node">
<title>Dupont</title>
<ellipse fill="none" stroke="#000000" cx="49.3956" cy="-40.2964" rx="37.0935" ry="37.0935"/>
<text text-anchor="middle" x="49.3956" y="-36.5964" font-family="Times,serif" font-size="14.00" fill="#000000">Dupont</text>
</g>
<!-- Football -->
<g id="node2" class="node">
<title>Football</title>
<ellipse fill="none" stroke="#000000" cx="182.887" cy="-40.2964" rx="40.0939" ry="40.0939"/>
<text text-anchor="middle" x="182.887" y="-36.5964" font-family="Times,serif" font-size="14.00" fill="#000000">Football</text>
</g>
<!-- Dupont&#45;&gt;Football -->
<g id="edge1" class="edge">
<title>Dupont&#45;&gt;Football</title>
<path fill="none" stroke="#000000" d="M86.5804,-40.2964C100.6211,-40.2964 116.8488,-40.2964 131.9346,-40.2964"/>
<polygon fill="#000000" stroke="#000000" points="132.1553,-43.7965 142.1552,-40.2964 132.1552,-36.7965 132.1553,-43.7965"/>
</g>
<!-- Bertrand -->
<g id="node3" class="node">
<title>Bertrand</title>
<ellipse fill="none" stroke="#000000" cx="49.3956" cy="-396.2964" rx="41.6928" ry="41.6928"/>
<text text-anchor="middle" x="49.3956" y="-392.5964" font-family="Times,serif" font-size="14.00" fill="#000000">Bertrand</text>
</g>
<!-- Karate -->
<g id="node4" class="node">
<title>Karate</title>
<ellipse fill="none" stroke="#000000" cx="182.887" cy="-257.2964" rx="34.394" ry="34.394"/>
<text text-anchor="middle" x="182.887" y="-253.5964" font-family="Times,serif" font-size="14.00" fill="#000000">Karate</text>
</g>
<!-- Bertrand&#45;&gt;Karate -->
<g id="edge2" class="edge">
<title>Bertrand&#45;&gt;Karate</title>
<path fill="none" stroke="#000000" d="M78.7587,-366.7917C85.3763,-360.0819 92.3475,-352.9657 98.7912,-346.2964 116.5959,-327.8684 136.2782,-307.0625 152.1225,-290.2035"/>
<polygon fill="#000000" stroke="#000000" points="154.8194,-292.4445 159.1117,-282.758 149.7157,-287.6536 154.8194,-292.4445"/>
</g>
<!-- Charlie -->
<g id="node5" class="node">
<title>Charlie</title>
<ellipse fill="none" stroke="#000000" cx="49.3956" cy="-492.2964" rx="36.2938" ry="36.2938"/>
<text text-anchor="middle" x="49.3956" y="-488.5964" font-family="Times,serif" font-size="14.00" fill="#000000">Charlie</text>
</g>
<!-- Cricket -->
<g id="node6" class="node">
<title>Cricket</title>
<ellipse fill="none" stroke="#000000" cx="182.887" cy="-492.2964" rx="36.2938" ry="36.2938"/>
<text text-anchor="middle" x="182.887" y="-488.5964" font-family="Times,serif" font-size="14.00" fill="#000000">Cricket</text>
</g>
<!-- Charlie&#45;&gt;Cricket -->
<g id="edge3" class="edge">
<title>Charlie&#45;&gt;Cricket</title>
<path fill="none" stroke="#000000" d="M85.8727,-492.2964C101.4711,-492.2964 119.8677,-492.2964 136.4243,-492.2964"/>
<polygon fill="#000000" stroke="#000000" points="136.454,-495.7965 146.454,-492.2964 136.4539,-488.7965 136.454,-495.7965"/>
</g>
<!-- Anasthasia -->
<g id="node7" class="node">
<title>Anasthasia</title>
<ellipse fill="none" stroke="#000000" cx="49.3956" cy="-1035.2964" rx="49.2915" ry="49.2915"/>
<text text-anchor="middle" x="49.3956" y="-1031.5964" font-family="Times,serif" font-size="14.00" fill="#000000">Anasthasia</text>
</g>
<!-- Basketball -->
<g id="node8" class="node">
<title>Basketball</title>
<ellipse fill="none" stroke="#000000" cx="182.887" cy="-792.2964" rx="48.1917" ry="48.1917"/>
<text text-anchor="middle" x="182.887" y="-788.5964" font-family="Times,serif" font-size="14.00" fill="#000000">Basketball</text>
</g>
<!-- Anasthasia&#45;&gt;Basketball -->
<g id="edge4" class="edge">
<title>Anasthasia&#45;&gt;Basketball</title>
<path fill="none" stroke="#000000" d="M83.1554,-998.7327C88.7268,-991.8632 94.1806,-984.5526 98.7912,-977.2964 125.0428,-935.982 147.5405,-885.1106 162.6425,-847.1762"/>
<polygon fill="#000000" stroke="#000000" points="165.9176,-848.4115 166.3205,-837.8243 159.4033,-845.8495 165.9176,-848.4115"/>
</g>
<!-- Caroline -->
<g id="node9" class="node">
<title>Caroline</title>
<ellipse fill="none" stroke="#000000" cx="49.3956" cy="-927.2964" rx="40.8928" ry="40.8928"/>
<text text-anchor="middle" x="49.3956" y="-923.5964" font-family="Times,serif" font-size="14.00" fill="#000000">Caroline</text>
</g>
<!-- Caroline&#45;&gt;Basketball -->
<g id="edge5" class="edge">
<title>Caroline&#45;&gt;Basketball</title>
<path fill="none" stroke="#000000" d="M78.3613,-898.0034C96.8816,-879.2738 121.1885,-854.6922 141.7014,-833.9475"/>
<polygon fill="#000000" stroke="#000000" points="144.2406,-836.3574 148.7831,-826.7857 139.2631,-831.4355 144.2406,-836.3574"/>
</g>
<!-- Clotilde -->
<g id="node10" class="node">
<title>Clotilde</title>
<ellipse fill="none" stroke="#000000" cx="49.3956" cy="-1141.2964" rx="38.9931" ry="38.9931"/>
<text text-anchor="middle" x="49.3956" y="-1137.5964" font-family="Times,serif" font-size="14.00" fill="#000000">Clotilde</text>
</g>
<!-- Dance -->
<g id="node11" class="node">
<title>Dance</title>
<ellipse fill="none" stroke="#000000" cx="182.887" cy="-1141.2964" rx="33.2948" ry="33.2948"/>
<text text-anchor="middle" x="182.887" y="-1137.5964" font-family="Times,serif" font-size="14.00" fill="#000000">Dance</text>
</g>
<!-- Clotilde&#45;&gt;Dance -->
<g id="edge6" class="edge">
<title>Clotilde&#45;&gt;Dance</title>
<path fill="none" stroke="#000000" d="M88.7254,-1141.2964C104.6236,-1141.2964 123.0336,-1141.2964 139.3355,-1141.2964"/>
<polygon fill="#000000" stroke="#000000" points="139.6962,-1144.7965 149.6961,-1141.2964 139.6961,-1137.7965 139.6962,-1144.7965"/>
</g>
<!-- Bernard -->
<g id="node12" class="node">
<title>Bernard</title>
<ellipse fill="none" stroke="#000000" cx="49.3956" cy="-1237.2964" rx="38.9931" ry="38.9931"/>
<text text-anchor="middle" x="49.3956" y="-1233.5964" font-family="Times,serif" font-size="14.00" fill="#000000">Bernard</text>
</g>
<!-- Gym -->
<g id="node13" class="node">
<title>Gym</title>
<ellipse fill="none" stroke="#000000" cx="182.887" cy="-1237.2964" rx="28.6953" ry="28.6953"/>
<text text-anchor="middle" x="182.887" y="-1233.5964" font-family="Times,serif" font-size="14.00" fill="#000000">Gym</text>
</g>
<!-- Bernard&#45;&gt;Gym -->
<g id="edge7" class="edge">
<title>Bernard&#45;&gt;Gym</title>
<path fill="none" stroke="#000000" d="M88.7254,-1237.2964C106.0488,-1237.2964 126.3545,-1237.2964 143.6655,-1237.2964"/>
<polygon fill="#000000" stroke="#000000" points="144.0036,-1240.7965 154.0035,-1237.2964 144.0035,-1233.7965 144.0036,-1240.7965"/>
</g>
<!-- Martin -->
<g id="node14" class="node">
<title>Martin</title>
<ellipse fill="none" stroke="#000000" cx="49.3956" cy="-833.2964" rx="35.194" ry="35.194"/>
<text text-anchor="middle" x="49.3956" y="-829.5964" font-family="Times,serif" font-size="14.00" fill="#000000">Martin</text>
</g>
<!-- Martin&#45;&gt;Basketball -->
<g id="edge8" class="edge">
<title>Martin&#45;&gt;Basketball</title>
<path fill="none" stroke="#000000" d="M83.0811,-822.9504C96.4499,-818.8444 112.186,-814.0112 127.1609,-809.4119"/>
<polygon fill="#000000" stroke="#000000" points="128.3276,-812.715 136.8592,-806.4332 126.2723,-806.0235 128.3276,-812.715"/>
</g>
<!-- Mael -->
<g id="node15" class="node">
<title>Mael</title>
<ellipse fill="none" stroke="#000000" cx="49.3956" cy="-751.2964" rx="29.4969" ry="29.4969"/>
<text text-anchor="middle" x="49.3956" y="-747.5964" font-family="Times,serif" font-size="14.00" fill="#000000">Mael</text>
</g>
<!-- Mael&#45;&gt;Basketball -->
<g id="edge9" class="edge">
<title>Mael&#45;&gt;Basketball</title>
<path fill="none" stroke="#000000" d="M77.3798,-759.8914C91.7595,-764.3079 109.8125,-769.8526 126.8994,-775.1006"/>
<polygon fill="#000000" stroke="#000000" points="126.2263,-778.5552 136.8132,-778.1455 128.2815,-771.8637 126.2263,-778.5552"/>
</g>
<!-- Axel -->
<g id="node16" class="node">
<title>Axel</title>
<ellipse fill="none" stroke="#000000" cx="49.3956" cy="-676.2964" rx="27.8951" ry="27.8951"/>
<text text-anchor="middle" x="49.3956" y="-672.5964" font-family="Times,serif" font-size="14.00" fill="#000000">Axel</text>
</g>
<!-- Axel&#45;&gt;Basketball -->
<g id="edge10" class="edge">
<title>Axel&#45;&gt;Basketball</title>
<path fill="none" stroke="#000000" d="M72.4291,-692.7254C80.8803,-698.9666 90.422,-706.2681 98.7912,-713.2964 112.8969,-725.142 127.7192,-738.6704 140.9234,-751.1444"/>
<polygon fill="#000000" stroke="#000000" points="138.8358,-753.9893 148.4932,-758.3464 143.6608,-748.9178 138.8358,-753.9893"/>
</g>
<!-- Aurelien -->
<g id="node17" class="node">
<title>Aurelien</title>
<ellipse fill="none" stroke="#000000" cx="49.3956" cy="-588.2964" rx="41.6928" ry="41.6928"/>
<text text-anchor="middle" x="49.3956" y="-584.5964" font-family="Times,serif" font-size="14.00" fill="#000000">Aurelien</text>
</g>
<!-- Aurelien&#45;&gt;Basketball -->
<g id="edge11" class="edge">
<title>Aurelien&#45;&gt;Basketball</title>
<path fill="none" stroke="#000000" d="M79.8043,-617.031C86.4386,-624.0047 93.1536,-631.6609 98.7912,-639.2964 121.8782,-670.5654 142.937,-708.8983 158.2065,-739.3724"/>
<polygon fill="#000000" stroke="#000000" points="155.182,-741.1519 162.7553,-748.5611 161.4554,-738.0463 155.182,-741.1519"/>
</g>
<!-- Carole -->
<g id="node18" class="node">
<title>Carole</title>
<ellipse fill="none" stroke="#000000" cx="49.3956" cy="-1328.2964" rx="34.394" ry="34.394"/>
<text text-anchor="middle" x="49.3956" y="-1324.5964" font-family="Times,serif" font-size="14.00" fill="#000000">Carole</text>
</g>
<!-- Volley -->
<g id="node19" class="node">
<title>Volley</title>
<ellipse fill="none" stroke="#000000" cx="182.887" cy="-1328.2964" rx="34.394" ry="34.394"/>
<text text-anchor="middle" x="182.887" y="-1324.5964" font-family="Times,serif" font-size="14.00" fill="#000000">Volley</text>
</g>
<!-- Carole&#45;&gt;Volley -->
<g id="edge12" class="edge">
<title>Carole&#45;&gt;Volley</title>
<path fill="none" stroke="#000000" d="M84.1204,-1328.2964C100.6523,-1328.2964 120.6189,-1328.2964 138.2608,-1328.2964"/>
<polygon fill="#000000" stroke="#000000" points="138.3361,-1331.7965 148.336,-1328.2964 138.336,-1324.7965 138.3361,-1331.7965"/>
</g>
<!-- Florian -->
<g id="node20" class="node">
<title>Florian</title>
<ellipse fill="none" stroke="#000000" cx="49.3956" cy="-1510.2964" rx="36.2938" ry="36.2938"/>
<text text-anchor="middle" x="49.3956" y="-1506.5964" font-family="Times,serif" font-size="14.00" fill="#000000">Florian</text>
</g>
<!-- Natation -->
<g id="node21" class="node">
<title>Natation</title>
<ellipse fill="none" stroke="#000000" cx="182.887" cy="-1421.2964" rx="40.8928" ry="40.8928"/>
<text text-anchor="middle" x="182.887" y="-1417.5964" font-family="Times,serif" font-size="14.00" fill="#000000">Natation</text>
</g>
<!-- Florian&#45;&gt;Natation -->
<g id="edge13" class="edge">
<title>Florian&#45;&gt;Natation</title>
<path fill="none" stroke="#000000" d="M79.6869,-1490.1009C97.5112,-1478.2173 120.3389,-1462.9979 139.9906,-1449.8958"/>
<polygon fill="#000000" stroke="#000000" points="142.101,-1452.6954 148.4798,-1444.236 138.2179,-1446.8712 142.101,-1452.6954"/>
</g>
<!-- Angele -->
<g id="node22" class="node">
<title>Angele</title>
<ellipse fill="none" stroke="#000000" cx="49.3956" cy="-1419.2964" rx="36.2938" ry="36.2938"/>
<text text-anchor="middle" x="49.3956" y="-1415.5964" font-family="Times,serif" font-size="14.00" fill="#000000">Angele</text>
</g>
<!-- Angele&#45;&gt;Natation -->
<g id="edge14" class="edge">
<title>Angele&#45;&gt;Natation</title>
<path fill="none" stroke="#000000" d="M85.8727,-1419.8429C99.9224,-1420.0534 116.2421,-1420.2979 131.4428,-1420.5257"/>
<polygon fill="#000000" stroke="#000000" points="131.6946,-1424.0297 141.7459,-1420.68 131.7995,-1417.0305 131.6946,-1424.0297"/>
</g>
<!-- Alexis -->
<g id="node23" class="node">
<title>Alexis</title>
<ellipse fill="none" stroke="#000000" cx="49.3956" cy="-303.2964" rx="33.5952" ry="33.5952"/>
<text text-anchor="middle" x="49.3956" y="-299.5964" font-family="Times,serif" font-size="14.00" fill="#000000">Alexis</text>
</g>
<!-- Alexis&#45;&gt;Karate -->
<g id="edge15" class="edge">
<title>Alexis&#45;&gt;Karate</title>
<path fill="none" stroke="#000000" d="M81.3701,-292.2783C99.1047,-286.1671 121.3833,-278.4901 140.5483,-271.886"/>
<polygon fill="#000000" stroke="#000000" points="141.9319,-275.1113 150.246,-268.5442 139.6513,-268.4932 141.9319,-275.1113"/>
</g>
<!-- Floriane -->
<g id="node24" class="node">
<title>Floriane</title>
<ellipse fill="none" stroke="#000000" cx="49.3956" cy="-211.2964" rx="40.0939" ry="40.0939"/>
<text text-anchor="middle" x="49.3956" y="-207.5964" font-family="Times,serif" font-size="14.00" fill="#000000">Floriane</text>
</g>
<!-- Floriane&#45;&gt;Karate -->
<g id="edge16" class="edge">
<title>Floriane&#45;&gt;Karate</title>
<path fill="none" stroke="#000000" d="M87.6489,-224.4782C104.1363,-230.1596 123.4791,-236.825 140.4101,-242.6593"/>
<polygon fill="#000000" stroke="#000000" points="139.4656,-246.0357 150.0603,-245.9846 141.7462,-239.4176 139.4656,-246.0357"/>
</g>
<!-- Basil -->
<g id="node25" class="node">
<title>Basil</title>
<ellipse fill="none" stroke="#000000" cx="49.3956" cy="-124.2964" rx="28.6953" ry="28.6953"/>
<text text-anchor="middle" x="49.3956" y="-120.5964" font-family="Times,serif" font-size="14.00" fill="#000000">Basil</text>
</g>
<!-- Basil&#45;&gt;Karate -->
<g id="edge17" class="edge">
<title>Basil&#45;&gt;Karate</title>
<path fill="none" stroke="#000000" d="M72.7566,-140.8306C81.2432,-147.2038 90.7236,-154.766 98.7912,-162.2964 118.7981,-180.9712 139.1944,-203.8971 154.8891,-222.5484"/>
<polygon fill="#000000" stroke="#000000" points="152.2215,-224.8145 161.3127,-230.2552 157.5987,-220.3327 152.2215,-224.8145"/>
</g>
</g>
</svg>
