<?xml version="1.0" encoding="UTF-8" standalone="no"?>
<!DOCTYPE svg PUBLIC "-//W3C//DTD SVG 1.1//EN"
 "http://www.w3.org/Graphics/SVG/1.1/DTD/svg11.dtd">
<!-- Generated by graphviz version 2.43.20190912.0211 (20190912.0211)
 -->
<!-- Title: finite_state_machine Pages: 1 -->
<svg width="476pt" height="2381pt"
 viewBox="0.00 0.00 476.28 2380.63" xmlns="http://www.w3.org/2000/svg" xmlns:xlink="http://www.w3.org/1999/xlink">
<g id="graph0" class="graph" transform="scale(1 1) rotate(0) translate(4 2376.63)">
<title>finite_state_machine</title>
<polygon fill="white" stroke="transparent" points="-4,4 -4,-2376.63 472.28,-2376.63 472.28,4 -4,4"/>
<!-- 24 -->
<g id="node1" class="node">
<title>24</title>
<ellipse fill="none" stroke="black" cx="174.64" cy="-1359.63" rx="23" ry="23"/>
<text text-anchor="middle" x="174.64" y="-1355.93" font-family="Times,serif" font-size="14.00">24</text>
</g>
<!-- 3 -->
<g id="node2" class="node">
<title>3</title>
<ellipse fill="none" stroke="black" cx="298.39" cy="-408.63" rx="18" ry="18"/>
<text text-anchor="middle" x="298.39" y="-404.93" font-family="Times,serif" font-size="14.00">3</text>
</g>
<!-- 24&#45;&gt;3 -->
<g id="edge1" class="edge">
<title>24&#45;&gt;3</title>
<path fill="none" stroke="black" d="M190.25,-1342.58C193.15,-1338.29 195.79,-1333.51 197.39,-1328.63 211.65,-1285.12 190.73,-543.21 215.39,-504.63 227.92,-485.04 246.01,-498.14 262.39,-481.63 275.02,-468.9 283.75,-450.74 289.33,-435.71"/>
<polygon fill="black" stroke="black" points="292.76,-436.51 292.71,-425.91 286.14,-434.23 292.76,-436.51"/>
<text text-anchor="middle" x="238.89" y="-508.43" font-family="Times,serif" font-size="14.00">0/1 (2)</text>
</g>
<!-- 2 -->
<g id="node3" class="node">
<title>2</title>
<ellipse fill="none" stroke="black" cx="298.39" cy="-1928.63" rx="18" ry="18"/>
<text text-anchor="middle" x="298.39" y="-1924.93" font-family="Times,serif" font-size="14.00">2</text>
</g>
<!-- 24&#45;&gt;2 -->
<g id="edge2" class="edge">
<title>24&#45;&gt;2</title>
<path fill="none" stroke="black" d="M189.78,-1376.62C192.86,-1381.22 195.7,-1386.39 197.39,-1391.63 208.46,-1425.9 189.57,-2014.52 215.39,-2039.63 230.36,-2054.2 245.54,-2051.98 262.39,-2039.63 288.03,-2020.84 295.37,-1983.22 297.23,-1957.02"/>
<polygon fill="black" stroke="black" points="300.73,-1957.07 297.71,-1946.91 293.73,-1956.73 300.73,-1957.07"/>
<text text-anchor="middle" x="238.89" y="-2053.43" font-family="Times,serif" font-size="14.00">0/1 (1)</text>
</g>
<!-- 1 -->
<g id="node4" class="node">
<title>1</title>
<ellipse fill="none" stroke="black" cx="298.39" cy="-1149.63" rx="18" ry="18"/>
<text text-anchor="middle" x="298.39" y="-1145.93" font-family="Times,serif" font-size="14.00">1</text>
</g>
<!-- 24&#45;&gt;1 -->
<g id="edge3" class="edge">
<title>24&#45;&gt;1</title>
<path fill="none" stroke="black" d="M189.38,-1342.23C192.31,-1337.95 195.19,-1333.27 197.39,-1328.63 210.05,-1301.94 196.47,-1287.33 215.39,-1264.63 230.28,-1246.77 246.72,-1258.81 262.39,-1241.63 278.79,-1223.66 287.78,-1197.21 292.52,-1177.28"/>
<polygon fill="black" stroke="black" points="296,-1177.77 294.69,-1167.25 289.15,-1176.29 296,-1177.77"/>
<text text-anchor="middle" x="238.89" y="-1268.43" font-family="Times,serif" font-size="14.00">0/1 (0)</text>
</g>
<!-- 9999 -->
<g id="node26" class="node">
<title>9999</title>
<ellipse fill="none" stroke="black" cx="433.84" cy="-1149.63" rx="34.39" ry="34.39"/>
<text text-anchor="middle" x="433.84" y="-1145.93" font-family="Times,serif" font-size="14.00">9999</text>
</g>
<!-- 3&#45;&gt;9999 -->
<g id="edge85" class="edge">
<title>3&#45;&gt;9999</title>
<path fill="none" stroke="black" d="M302.56,-426.22C319.46,-520.08 399.24,-963.1 424.88,-1105.46"/>
<polygon fill="black" stroke="black" points="421.49,-1106.35 426.7,-1115.58 428.38,-1105.11 421.49,-1106.35"/>
<text text-anchor="middle" x="357.89" y="-849.43" font-family="Times,serif" font-size="14.00">0/7 (1)</text>
</g>
<!-- 2&#45;&gt;9999 -->
<g id="edge86" class="edge">
<title>2&#45;&gt;9999</title>
<path fill="none" stroke="black" d="M302.43,-1910.9C319.14,-1813.36 400,-1341.3 425.27,-1193.78"/>
<polygon fill="black" stroke="black" points="428.76,-1194.18 427,-1183.73 421.86,-1192.99 428.76,-1194.18"/>
<text text-anchor="middle" x="357.89" y="-1723.43" font-family="Times,serif" font-size="14.00">0/7 (1)</text>
</g>
<!-- 1&#45;&gt;9999 -->
<g id="edge87" class="edge">
<title>1&#45;&gt;9999</title>
<path fill="none" stroke="black" d="M316.56,-1149.63C334.79,-1149.63 364.33,-1149.63 389.08,-1149.63"/>
<polygon fill="black" stroke="black" points="389.34,-1153.13 399.34,-1149.63 389.34,-1146.13 389.34,-1153.13"/>
<text text-anchor="middle" x="357.89" y="-1153.43" font-family="Times,serif" font-size="14.00">0/7 (1)</text>
</g>
<!-- 9998 -->
<g id="node5" class="node">
<title>9998</title>
<ellipse fill="none" stroke="black" cx="34.45" cy="-1170.63" rx="34.39" ry="34.39"/>
<text text-anchor="middle" x="34.45" y="-1166.93" font-family="Times,serif" font-size="14.00">9998</text>
</g>
<!-- 9998&#45;&gt;24 -->
<g id="edge4" class="edge">
<title>9998&#45;&gt;24</title>
<path fill="none" stroke="black" d="M45.13,-1203.63C53.52,-1228.61 67.4,-1262.89 86.89,-1288.63 103.32,-1310.33 127.69,-1329.51 146.42,-1342.45"/>
<polygon fill="black" stroke="black" points="144.59,-1345.44 154.84,-1348.11 148.5,-1339.63 144.59,-1345.44"/>
<text text-anchor="middle" x="110.39" y="-1335.43" font-family="Times,serif" font-size="14.00">0/1 (1)</text>
</g>
<!-- 23 -->
<g id="node6" class="node">
<title>23</title>
<ellipse fill="none" stroke="black" cx="174.64" cy="-872.63" rx="23" ry="23"/>
<text text-anchor="middle" x="174.64" y="-868.93" font-family="Times,serif" font-size="14.00">23</text>
</g>
<!-- 9998&#45;&gt;23 -->
<g id="edge5" class="edge">
<title>9998&#45;&gt;23</title>
<path fill="none" stroke="black" d="M36.18,-1136.13C38.66,-1088.82 48.59,-1002.74 86.89,-941.63 101.28,-918.69 126.06,-900.12 145.46,-888.05"/>
<polygon fill="black" stroke="black" points="147.43,-890.95 154.21,-882.81 143.83,-884.94 147.43,-890.95"/>
<text text-anchor="middle" x="110.39" y="-945.43" font-family="Times,serif" font-size="14.00">0/1 (1)</text>
</g>
<!-- 22 -->
<g id="node7" class="node">
<title>22</title>
<ellipse fill="none" stroke="black" cx="174.64" cy="-1531.63" rx="23" ry="23"/>
<text text-anchor="middle" x="174.64" y="-1527.93" font-family="Times,serif" font-size="14.00">22</text>
</g>
<!-- 9998&#45;&gt;22 -->
<g id="edge6" class="edge">
<title>9998&#45;&gt;22</title>
<path fill="none" stroke="black" d="M37.94,-1205.13C43.49,-1274.66 58.68,-1428.73 86.89,-1472.63 100.52,-1493.83 124.75,-1509.35 144.15,-1519.14"/>
<polygon fill="black" stroke="black" points="142.69,-1522.32 153.22,-1523.48 145.71,-1516 142.69,-1522.32"/>
<text text-anchor="middle" x="110.39" y="-1516.43" font-family="Times,serif" font-size="14.00">0/1 (1)</text>
</g>
<!-- 21 -->
<g id="node8" class="node">
<title>21</title>
<ellipse fill="none" stroke="black" cx="174.64" cy="-557.63" rx="23" ry="23"/>
<text text-anchor="middle" x="174.64" y="-553.93" font-family="Times,serif" font-size="14.00">21</text>
</g>
<!-- 9998&#45;&gt;21 -->
<g id="edge7" class="edge">
<title>9998&#45;&gt;21</title>
<path fill="none" stroke="black" d="M35.13,-1135.92C34.73,-1029.89 37.73,-712.12 86.89,-623.63 99.83,-600.35 124.75,-582.73 144.58,-571.57"/>
<polygon fill="black" stroke="black" points="146.39,-574.57 153.55,-566.76 143.08,-568.4 146.39,-574.57"/>
<text text-anchor="middle" x="110.39" y="-627.43" font-family="Times,serif" font-size="14.00">0/1 (1)</text>
</g>
<!-- 20 -->
<g id="node9" class="node">
<title>20</title>
<ellipse fill="none" stroke="black" cx="174.64" cy="-683.63" rx="23" ry="23"/>
<text text-anchor="middle" x="174.64" y="-679.93" font-family="Times,serif" font-size="14.00">20</text>
</g>
<!-- 9998&#45;&gt;20 -->
<g id="edge8" class="edge">
<title>9998&#45;&gt;20</title>
<path fill="none" stroke="black" d="M36.29,-1136.03C38.98,-1047.72 49.51,-816.31 86.89,-750.63 100.14,-727.36 125.03,-709.43 144.77,-698"/>
<polygon fill="black" stroke="black" points="146.64,-700.97 153.69,-693.06 143.25,-694.84 146.64,-700.97"/>
<text text-anchor="middle" x="110.39" y="-754.43" font-family="Times,serif" font-size="14.00">0/1 (1)</text>
</g>
<!-- 19 -->
<g id="node10" class="node">
<title>19</title>
<ellipse fill="none" stroke="black" cx="174.64" cy="-1233.63" rx="23" ry="23"/>
<text text-anchor="middle" x="174.64" y="-1229.93" font-family="Times,serif" font-size="14.00">19</text>
</g>
<!-- 9998&#45;&gt;19 -->
<g id="edge9" class="edge">
<title>9998&#45;&gt;19</title>
<path fill="none" stroke="black" d="M66.12,-1184.61C89.5,-1195.27 121.48,-1209.85 144.48,-1220.34"/>
<polygon fill="black" stroke="black" points="143.18,-1223.59 153.73,-1224.56 146.08,-1217.22 143.18,-1223.59"/>
<text text-anchor="middle" x="110.39" y="-1218.43" font-family="Times,serif" font-size="14.00">0/1 (1)</text>
</g>
<!-- 18 -->
<g id="node11" class="node">
<title>18</title>
<ellipse fill="none" stroke="black" cx="174.64" cy="-1296.63" rx="23" ry="23"/>
<text text-anchor="middle" x="174.64" y="-1292.93" font-family="Times,serif" font-size="14.00">18</text>
</g>
<!-- 9998&#45;&gt;18 -->
<g id="edge10" class="edge">
<title>9998&#45;&gt;18</title>
<path fill="none" stroke="black" d="M55.54,-1198.32C64.52,-1209.83 75.6,-1222.96 86.89,-1233.63 105.21,-1250.94 128.42,-1267.56 146.22,-1279.38"/>
<polygon fill="black" stroke="black" points="144.7,-1282.57 154.98,-1285.11 148.52,-1276.71 144.7,-1282.57"/>
<text text-anchor="middle" x="110.39" y="-1273.43" font-family="Times,serif" font-size="14.00">0/1 (1)</text>
</g>
<!-- 17 -->
<g id="node12" class="node">
<title>17</title>
<ellipse fill="none" stroke="black" cx="174.64" cy="-1170.63" rx="23" ry="23"/>
<text text-anchor="middle" x="174.64" y="-1166.93" font-family="Times,serif" font-size="14.00">17</text>
</g>
<!-- 9998&#45;&gt;17 -->
<g id="edge11" class="edge">
<title>9998&#45;&gt;17</title>
<path fill="none" stroke="black" d="M68.9,-1170.63C91,-1170.63 119.81,-1170.63 141.62,-1170.63"/>
<polygon fill="black" stroke="black" points="141.7,-1174.13 151.7,-1170.63 141.7,-1167.13 141.7,-1174.13"/>
<text text-anchor="middle" x="110.39" y="-1174.43" font-family="Times,serif" font-size="14.00">0/1 (1)</text>
</g>
<!-- 16 -->
<g id="node13" class="node">
<title>16</title>
<ellipse fill="none" stroke="black" cx="174.64" cy="-809.63" rx="23" ry="23"/>
<text text-anchor="middle" x="174.64" y="-805.93" font-family="Times,serif" font-size="14.00">16</text>
</g>
<!-- 9998&#45;&gt;16 -->
<g id="edge12" class="edge">
<title>9998&#45;&gt;16</title>
<path fill="none" stroke="black" d="M38.38,-1136.27C44.67,-1068.6 60.98,-920.88 86.89,-877.63 100.74,-854.54 125.57,-836.28 145.13,-824.53"/>
<polygon fill="black" stroke="black" points="147.05,-827.47 153.96,-819.44 143.55,-821.4 147.05,-827.47"/>
<text text-anchor="middle" x="110.39" y="-881.43" font-family="Times,serif" font-size="14.00">0/1 (1)</text>
</g>
<!-- 15 -->
<g id="node14" class="node">
<title>15</title>
<ellipse fill="none" stroke="black" cx="174.64" cy="-1657.63" rx="23" ry="23"/>
<text text-anchor="middle" x="174.64" y="-1653.93" font-family="Times,serif" font-size="14.00">15</text>
</g>
<!-- 9998&#45;&gt;15 -->
<g id="edge13" class="edge">
<title>9998&#45;&gt;15</title>
<path fill="none" stroke="black" d="M36.21,-1205.11C38.71,-1293.68 48.82,-1526.83 86.89,-1592.63 100.16,-1615.55 125.05,-1632.92 144.78,-1643.9"/>
<polygon fill="black" stroke="black" points="143.22,-1647.04 153.7,-1648.64 146.51,-1640.86 143.22,-1647.04"/>
<text text-anchor="middle" x="110.39" y="-1639.43" font-family="Times,serif" font-size="14.00">0/1 (1)</text>
</g>
<!-- 14 -->
<g id="node15" class="node">
<title>14</title>
<ellipse fill="none" stroke="black" cx="174.64" cy="-1594.63" rx="23" ry="23"/>
<text text-anchor="middle" x="174.64" y="-1590.93" font-family="Times,serif" font-size="14.00">14</text>
</g>
<!-- 9998&#45;&gt;14 -->
<g id="edge14" class="edge">
<title>9998&#45;&gt;14</title>
<path fill="none" stroke="black" d="M36.96,-1205.03C40.98,-1284.24 53.94,-1476.93 86.89,-1531.63 100.26,-1553.83 124.75,-1570.52 144.3,-1581.12"/>
<polygon fill="black" stroke="black" points="142.94,-1584.36 153.44,-1585.84 146.16,-1578.14 142.94,-1584.36"/>
<text text-anchor="middle" x="110.39" y="-1577.43" font-family="Times,serif" font-size="14.00">0/1 (1)</text>
</g>
<!-- 13 -->
<g id="node16" class="node">
<title>13</title>
<ellipse fill="none" stroke="black" cx="174.64" cy="-620.63" rx="23" ry="23"/>
<text text-anchor="middle" x="174.64" y="-616.93" font-family="Times,serif" font-size="14.00">13</text>
</g>
<!-- 9998&#45;&gt;13 -->
<g id="edge15" class="edge">
<title>9998&#45;&gt;13</title>
<path fill="none" stroke="black" d="M35.62,-1136.16C36.65,-1038.79 43.44,-763.75 86.89,-686.63 99.97,-663.43 124.88,-645.8 144.66,-634.62"/>
<polygon fill="black" stroke="black" points="146.47,-637.62 153.61,-629.8 143.15,-631.46 146.47,-637.62"/>
<text text-anchor="middle" x="110.39" y="-690.43" font-family="Times,serif" font-size="14.00">0/1 (1)</text>
</g>
<!-- 12 -->
<g id="node17" class="node">
<title>12</title>
<ellipse fill="none" stroke="black" cx="174.64" cy="-935.63" rx="23" ry="23"/>
<text text-anchor="middle" x="174.64" y="-931.93" font-family="Times,serif" font-size="14.00">12</text>
</g>
<!-- 9998&#45;&gt;12 -->
<g id="edge16" class="edge">
<title>9998&#45;&gt;12</title>
<path fill="none" stroke="black" d="M39.68,-1136.42C45.49,-1100.45 58.61,-1043.52 86.89,-1002.63 102.03,-980.75 126.52,-962.78 145.62,-950.98"/>
<polygon fill="black" stroke="black" points="147.44,-953.97 154.24,-945.84 143.85,-947.96 147.44,-953.97"/>
<text text-anchor="middle" x="110.39" y="-1006.43" font-family="Times,serif" font-size="14.00">0/1 (1)</text>
</g>
<!-- 11 -->
<g id="node18" class="node">
<title>11</title>
<ellipse fill="none" stroke="black" cx="174.64" cy="-746.63" rx="23" ry="23"/>
<text text-anchor="middle" x="174.64" y="-742.93" font-family="Times,serif" font-size="14.00">11</text>
</g>
<!-- 9998&#45;&gt;11 -->
<g id="edge17" class="edge">
<title>9998&#45;&gt;11</title>
<path fill="none" stroke="black" d="M37.14,-1136.1C41.52,-1057.54 55.14,-868.06 86.89,-813.63 100.39,-790.5 125.26,-772.56 144.92,-761.09"/>
<polygon fill="black" stroke="black" points="146.78,-764.06 153.8,-756.13 143.37,-757.94 146.78,-764.06"/>
<text text-anchor="middle" x="110.39" y="-817.43" font-family="Times,serif" font-size="14.00">0/1 (1)</text>
</g>
<!-- 10 -->
<g id="node19" class="node">
<title>10</title>
<ellipse fill="none" stroke="black" cx="174.64" cy="-998.63" rx="23" ry="23"/>
<text text-anchor="middle" x="174.64" y="-994.93" font-family="Times,serif" font-size="14.00">10</text>
</g>
<!-- 9998&#45;&gt;10 -->
<g id="edge18" class="edge">
<title>9998&#45;&gt;10</title>
<path fill="none" stroke="black" d="M45.76,-1137.82C54.21,-1114.53 67.88,-1083.49 86.89,-1060.63 103.1,-1041.15 126.77,-1024.78 145.3,-1013.76"/>
<polygon fill="black" stroke="black" points="147.26,-1016.67 154.19,-1008.64 143.77,-1010.6 147.26,-1016.67"/>
<text text-anchor="middle" x="110.39" y="-1064.43" font-family="Times,serif" font-size="14.00">0/1 (1)</text>
</g>
<!-- 9 -->
<g id="node20" class="node">
<title>9</title>
<ellipse fill="none" stroke="black" cx="174.64" cy="-2048.63" rx="18" ry="18"/>
<text text-anchor="middle" x="174.64" y="-2044.93" font-family="Times,serif" font-size="14.00">9</text>
</g>
<!-- 9998&#45;&gt;9 -->
<g id="edge19" class="edge">
<title>9998&#45;&gt;9</title>
<path fill="none" stroke="black" d="M36.77,-1205.01C40.52,-1291.41 53.2,-1524.46 86.89,-1715.63 107.26,-1831.15 147.41,-1965.36 165.02,-2021.63"/>
<polygon fill="black" stroke="black" points="161.79,-2023.03 168.14,-2031.52 168.47,-2020.93 161.79,-2023.03"/>
<text text-anchor="middle" x="110.39" y="-1918.43" font-family="Times,serif" font-size="14.00">0/1 (1)</text>
</g>
<!-- 8 -->
<g id="node21" class="node">
<title>8</title>
<ellipse fill="none" stroke="black" cx="174.64" cy="-1057.63" rx="18" ry="18"/>
<text text-anchor="middle" x="174.64" y="-1053.93" font-family="Times,serif" font-size="14.00">8</text>
</g>
<!-- 9998&#45;&gt;8 -->
<g id="edge20" class="edge">
<title>9998&#45;&gt;8</title>
<path fill="none" stroke="black" d="M55.84,-1143.29C64.69,-1132.42 75.61,-1120.24 86.89,-1110.63 106.06,-1094.32 130.79,-1079.74 148.94,-1070.02"/>
<polygon fill="black" stroke="black" points="151.03,-1072.87 158.26,-1065.14 147.78,-1066.67 151.03,-1072.87"/>
<text text-anchor="middle" x="110.39" y="-1114.43" font-family="Times,serif" font-size="14.00">0/1 (1)</text>
</g>
<!-- 7 -->
<g id="node22" class="node">
<title>7</title>
<ellipse fill="none" stroke="black" cx="174.64" cy="-1418.63" rx="18" ry="18"/>
<text text-anchor="middle" x="174.64" y="-1414.93" font-family="Times,serif" font-size="14.00">7</text>
</g>
<!-- 9998&#45;&gt;7 -->
<g id="edge21" class="edge">
<title>9998&#45;&gt;7</title>
<path fill="none" stroke="black" d="M38.89,-1205.13C44.09,-1243.47 56.78,-1305.87 86.89,-1350.63 102.94,-1374.48 130.02,-1393.76 149.66,-1405.61"/>
<polygon fill="black" stroke="black" points="147.96,-1408.67 158.36,-1410.68 151.48,-1402.62 147.96,-1408.67"/>
<text text-anchor="middle" x="110.39" y="-1398.43" font-family="Times,serif" font-size="14.00">0/1 (1)</text>
</g>
<!-- 6 -->
<g id="node23" class="node">
<title>6</title>
<ellipse fill="none" stroke="black" cx="174.64" cy="-1111.63" rx="18" ry="18"/>
<text text-anchor="middle" x="174.64" y="-1107.93" font-family="Times,serif" font-size="14.00">6</text>
</g>
<!-- 9998&#45;&gt;6 -->
<g id="edge22" class="edge">
<title>9998&#45;&gt;6</title>
<path fill="none" stroke="black" d="M66.46,-1157.39C91.14,-1146.86 125.24,-1132.3 148.3,-1122.45"/>
<polygon fill="black" stroke="black" points="149.92,-1125.56 157.74,-1118.42 147.17,-1119.13 149.92,-1125.56"/>
<text text-anchor="middle" x="110.39" y="-1152.43" font-family="Times,serif" font-size="14.00">0/1 (1)</text>
</g>
<!-- 5 -->
<g id="node24" class="node">
<title>5</title>
<ellipse fill="none" stroke="black" cx="174.64" cy="-1472.63" rx="18" ry="18"/>
<text text-anchor="middle" x="174.64" y="-1468.93" font-family="Times,serif" font-size="14.00">5</text>
</g>
<!-- 9998&#45;&gt;5 -->
<g id="edge23" class="edge">
<title>9998&#45;&gt;5</title>
<path fill="none" stroke="black" d="M34.92,-1205.13C35.78,-1255.23 43.64,-1349.18 86.89,-1413.63 101.98,-1436.12 128.8,-1452.38 148.64,-1462.07"/>
<polygon fill="black" stroke="black" points="147.19,-1465.26 157.74,-1466.3 150.14,-1458.91 147.19,-1465.26"/>
<text text-anchor="middle" x="110.39" y="-1457.43" font-family="Times,serif" font-size="14.00">0/1 (1)</text>
</g>
<!-- 4 -->
<g id="node25" class="node">
<title>4</title>
<ellipse fill="none" stroke="black" cx="174.64" cy="-1716.63" rx="18" ry="18"/>
<text text-anchor="middle" x="174.64" y="-1712.93" font-family="Times,serif" font-size="14.00">4</text>
</g>
<!-- 9998&#45;&gt;4 -->
<g id="edge24" class="edge">
<title>9998&#45;&gt;4</title>
<path fill="none" stroke="black" d="M35.51,-1205.17C36.24,-1302.72 42.29,-1578.18 86.89,-1654.63 100.84,-1678.54 128.09,-1695.67 148.35,-1705.79"/>
<polygon fill="black" stroke="black" points="147.1,-1709.07 157.64,-1710.19 150.1,-1702.74 147.1,-1709.07"/>
<text text-anchor="middle" x="110.39" y="-1700.43" font-family="Times,serif" font-size="14.00">0/1 (1)</text>
</g>
<!-- 23&#45;&gt;3 -->
<g id="edge25" class="edge">
<title>23&#45;&gt;3</title>
<path fill="none" stroke="black" d="M190.22,-855.57C193.13,-851.28 195.78,-846.5 197.39,-841.63 208.59,-807.82 189.85,-225.47 215.39,-200.63 230.37,-186.07 246.44,-187.14 262.39,-200.63 289.21,-223.32 295.49,-328.82 296.95,-380.27"/>
<polygon fill="black" stroke="black" points="293.45,-380.47 297.2,-390.38 300.45,-380.3 293.45,-380.47"/>
<text text-anchor="middle" x="238.89" y="-204.43" font-family="Times,serif" font-size="14.00">0/1 (2)</text>
</g>
<!-- 23&#45;&gt;2 -->
<g id="edge26" class="edge">
<title>23&#45;&gt;2</title>
<path fill="none" stroke="black" d="M190.25,-889.69C193.15,-893.98 195.79,-898.76 197.39,-903.63 211.79,-947.57 189.13,-1697.58 215.39,-1735.63 228.19,-1754.18 248,-1737.29 262.39,-1754.63 280.53,-1776.49 290.69,-1857.12 294.96,-1900.53"/>
<polygon fill="black" stroke="black" points="291.5,-1901.07 295.92,-1910.7 298.47,-1900.42 291.5,-1901.07"/>
<text text-anchor="middle" x="238.89" y="-1758.43" font-family="Times,serif" font-size="14.00">0/1 (1)</text>
</g>
<!-- 23&#45;&gt;1 -->
<g id="edge27" class="edge">
<title>23&#45;&gt;1</title>
<path fill="none" stroke="black" d="M188.91,-890.74C191.8,-894.91 194.78,-899.37 197.39,-903.63 206.32,-918.22 202.69,-926.18 215.39,-937.63 232.12,-952.73 248.17,-939.16 262.39,-956.63 282.63,-981.51 292.03,-1074.23 295.59,-1121.52"/>
<polygon fill="black" stroke="black" points="292.11,-1121.96 296.32,-1131.69 299.09,-1121.46 292.11,-1121.96"/>
<text text-anchor="middle" x="238.89" y="-960.43" font-family="Times,serif" font-size="14.00">0/1 (0)</text>
</g>
<!-- 22&#45;&gt;3 -->
<g id="edge28" class="edge">
<title>22&#45;&gt;3</title>
<path fill="none" stroke="black" d="M189.81,-1514.65C192.88,-1510.05 195.72,-1504.88 197.39,-1499.63 212.26,-1452.99 189.05,-659.9 215.39,-618.63 227.9,-599.03 248.31,-614.14 262.39,-595.63 281.09,-571.05 291.15,-482.6 295.21,-436.7"/>
<polygon fill="black" stroke="black" points="298.71,-436.8 296.07,-426.54 291.74,-436.21 298.71,-436.8"/>
<text text-anchor="middle" x="238.89" y="-622.43" font-family="Times,serif" font-size="14.00">0/1 (2)</text>
</g>
<!-- 22&#45;&gt;2 -->
<g id="edge29" class="edge">
<title>22&#45;&gt;2</title>
<path fill="none" stroke="black" d="M190.22,-1548.7C193.12,-1552.99 195.77,-1557.77 197.39,-1562.63 207.76,-1593.8 191.81,-2130.76 215.39,-2153.63 230.38,-2168.18 246.52,-2167.22 262.39,-2153.63 291.59,-2128.62 296.62,-2011.7 297.36,-1956.99"/>
<polygon fill="black" stroke="black" points="300.86,-1956.96 297.45,-1946.93 293.86,-1956.89 300.86,-1956.96"/>
<text text-anchor="middle" x="238.89" y="-2167.43" font-family="Times,serif" font-size="14.00">0/1 (1)</text>
</g>
<!-- 22&#45;&gt;1 -->
<g id="edge30" class="edge">
<title>22&#45;&gt;1</title>
<path fill="none" stroke="black" d="M189.57,-1514.15C192.58,-1509.64 195.44,-1504.64 197.39,-1499.63 217.17,-1448.99 183.28,-1422.51 215.39,-1378.63 229.12,-1359.86 248.46,-1374.26 262.39,-1355.63 283.08,-1327.96 292.36,-1227.38 295.75,-1177.74"/>
<polygon fill="black" stroke="black" points="299.25,-1177.89 296.41,-1167.68 292.27,-1177.43 299.25,-1177.89"/>
<text text-anchor="middle" x="238.89" y="-1382.43" font-family="Times,serif" font-size="14.00">0/1 (0)</text>
</g>
<!-- 21&#45;&gt;3 -->
<g id="edge31" class="edge">
<title>21&#45;&gt;3</title>
<path fill="none" stroke="black" d="M175.52,-534.84C175.2,-435.89 176.47,-46.82 215.39,-10.63 230.69,3.59 246.99,3.48 262.39,-10.63 289.58,-35.54 295.75,-293.7 297.06,-380.41"/>
<polygon fill="black" stroke="black" points="293.56,-380.61 297.2,-390.56 300.56,-380.51 293.56,-380.61"/>
<text text-anchor="middle" x="238.89" y="-14.43" font-family="Times,serif" font-size="14.00">0/1 (2)</text>
</g>
<!-- 21&#45;&gt;2 -->
<g id="edge32" class="edge">
<title>21&#45;&gt;2</title>
<path fill="none" stroke="black" d="M190.26,-574.68C193.16,-578.98 195.8,-583.76 197.39,-588.63 213.88,-639.19 185.25,-1501.83 215.39,-1545.63 228.16,-1564.19 248.91,-1546.58 262.39,-1564.63 282.29,-1591.3 293.07,-1818.39 296.32,-1899.77"/>
<polygon fill="black" stroke="black" points="292.84,-1900.39 296.73,-1910.25 299.84,-1900.12 292.84,-1900.39"/>
<text text-anchor="middle" x="238.89" y="-1568.43" font-family="Times,serif" font-size="14.00">0/1 (1)</text>
</g>
<!-- 21&#45;&gt;1 -->
<g id="edge33" class="edge">
<title>21&#45;&gt;1</title>
<path fill="none" stroke="black" d="M189.93,-574.8C192.84,-579.09 195.57,-583.84 197.39,-588.63 209.99,-621.88 193.88,-719.32 215.39,-747.63 229.02,-765.57 248.95,-748.55 262.39,-766.63 283.42,-794.94 293.57,-1037.31 296.48,-1121.2"/>
<polygon fill="black" stroke="black" points="292.99,-1121.41 296.82,-1131.28 299.98,-1121.17 292.99,-1121.41"/>
<text text-anchor="middle" x="238.89" y="-770.43" font-family="Times,serif" font-size="14.00">0/1 (0)</text>
</g>
<!-- 20&#45;&gt;3 -->
<g id="edge34" class="edge">
<title>20&#45;&gt;3</title>
<path fill="none" stroke="black" d="M190.21,-666.57C193.12,-662.28 195.77,-657.5 197.39,-652.63 207.34,-622.79 192.79,-108.52 215.39,-86.63 230.39,-72.1 246.84,-72.68 262.39,-86.63 284.08,-106.09 293.59,-305.19 296.43,-380.23"/>
<polygon fill="black" stroke="black" points="292.93,-380.49 296.8,-390.36 299.93,-380.24 292.93,-380.49"/>
<text text-anchor="middle" x="238.89" y="-90.43" font-family="Times,serif" font-size="14.00">0/1 (2)</text>
</g>
<!-- 20&#45;&gt;2 -->
<g id="edge35" class="edge">
<title>20&#45;&gt;2</title>
<path fill="none" stroke="black" d="M190.25,-700.68C193.16,-704.98 195.8,-709.76 197.39,-714.63 213.04,-762.54 186.8,-1580.13 215.39,-1621.63 228.17,-1640.19 248.69,-1622.75 262.39,-1640.63 293.23,-1680.88 297.21,-1835.98 297.5,-1900.37"/>
<polygon fill="black" stroke="black" points="294,-1900.6 297.52,-1910.59 301,-1900.58 294,-1900.6"/>
<text text-anchor="middle" x="238.89" y="-1644.43" font-family="Times,serif" font-size="14.00">0/1 (1)</text>
</g>
<!-- 20&#45;&gt;1 -->
<g id="edge36" class="edge">
<title>20&#45;&gt;1</title>
<path fill="none" stroke="black" d="M189.75,-700.87C192.67,-705.15 195.45,-709.89 197.39,-714.63 215.95,-760.09 184.7,-785.3 215.39,-823.63 229.47,-841.22 248.75,-824.7 262.39,-842.63 295.3,-885.91 298.04,-1053.15 297.75,-1120.89"/>
<polygon fill="black" stroke="black" points="294.25,-1121.22 297.68,-1131.24 301.25,-1121.27 294.25,-1121.22"/>
<text text-anchor="middle" x="238.89" y="-846.43" font-family="Times,serif" font-size="14.00">0/1 (0)</text>
</g>
<!-- 19&#45;&gt;3 -->
<g id="edge37" class="edge">
<title>19&#45;&gt;3</title>
<path fill="none" stroke="black" d="M190.24,-1216.58C193.14,-1212.29 195.79,-1207.5 197.39,-1202.63 210.82,-1161.77 188.43,-462.15 215.39,-428.63 228.21,-412.69 251.43,-408.19 269.9,-407.39"/>
<polygon fill="black" stroke="black" points="270.14,-410.89 280.11,-407.29 270.08,-403.89 270.14,-410.89"/>
<text text-anchor="middle" x="238.89" y="-432.43" font-family="Times,serif" font-size="14.00">0/1 (2)</text>
</g>
<!-- 19&#45;&gt;2 -->
<g id="edge38" class="edge">
<title>19&#45;&gt;2</title>
<path fill="none" stroke="black" d="M190.23,-1250.69C193.14,-1254.98 195.78,-1259.76 197.39,-1264.63 209.56,-1301.52 187.57,-1936.52 215.39,-1963.63 230.35,-1978.21 243.09,-1971.63 262.39,-1963.63 269.22,-1960.8 275.41,-1955.93 280.62,-1950.7"/>
<polygon fill="black" stroke="black" points="283.46,-1952.77 287.51,-1942.98 278.24,-1948.1 283.46,-1952.77"/>
<text text-anchor="middle" x="238.89" y="-1975.43" font-family="Times,serif" font-size="14.00">0/1 (1)</text>
</g>
<!-- 19&#45;&gt;1 -->
<g id="edge39" class="edge">
<title>19&#45;&gt;1</title>
<path fill="none" stroke="black" d="M188.92,-1215.4C196.04,-1206.52 205.4,-1196.16 215.39,-1188.63 217.9,-1186.74 249.02,-1172.11 272.18,-1161.32"/>
<polygon fill="black" stroke="black" points="273.92,-1164.37 281.51,-1156.98 270.97,-1158.03 273.92,-1164.37"/>
<text text-anchor="middle" x="238.89" y="-1192.43" font-family="Times,serif" font-size="14.00">0/1 (0)</text>
</g>
<!-- 18&#45;&gt;3 -->
<g id="edge40" class="edge">
<title>18&#45;&gt;3</title>
<path fill="none" stroke="black" d="M190.24,-1279.58C193.15,-1275.29 195.79,-1270.5 197.39,-1265.63 211.24,-1223.45 191.46,-504.03 215.39,-466.63 227.92,-447.04 243.47,-457.15 262.39,-443.63 268.22,-439.47 273.96,-434.31 279.05,-429.24"/>
<polygon fill="black" stroke="black" points="281.59,-431.65 285.99,-422.01 276.54,-426.81 281.59,-431.65"/>
<text text-anchor="middle" x="238.89" y="-470.43" font-family="Times,serif" font-size="14.00">0/1 (2)</text>
</g>
<!-- 18&#45;&gt;2 -->
<g id="edge41" class="edge">
<title>18&#45;&gt;2</title>
<path fill="none" stroke="black" d="M190.23,-1313.69C193.13,-1317.98 195.78,-1322.76 197.39,-1327.63 209.15,-1363.2 188.55,-1975.5 215.39,-2001.63 230.36,-2016.2 244.71,-2012.76 262.39,-2001.63 278.1,-1991.74 286.91,-1972.63 291.77,-1956.44"/>
<polygon fill="black" stroke="black" points="295.26,-1956.91 294.42,-1946.35 288.49,-1955.13 295.26,-1956.91"/>
<text text-anchor="middle" x="238.89" y="-2014.43" font-family="Times,serif" font-size="14.00">0/1 (1)</text>
</g>
<!-- 18&#45;&gt;1 -->
<g id="edge42" class="edge">
<title>18&#45;&gt;1</title>
<path fill="none" stroke="black" d="M189.08,-1278.63C191.97,-1274.46 194.9,-1269.96 197.39,-1265.63 206.91,-1249.09 202.04,-1240.28 215.39,-1226.63 231.65,-1210 244.99,-1219.06 262.39,-1203.63 271.39,-1195.66 279,-1184.84 284.81,-1174.99"/>
<polygon fill="black" stroke="black" points="288.03,-1176.4 289.81,-1165.96 281.91,-1173.01 288.03,-1176.4"/>
<text text-anchor="middle" x="238.89" y="-1230.43" font-family="Times,serif" font-size="14.00">0/1 (0)</text>
</g>
<!-- 17&#45;&gt;3 -->
<g id="edge43" class="edge">
<title>17&#45;&gt;3</title>
<path fill="none" stroke="black" d="M189.79,-1153.65C192.87,-1149.05 195.71,-1143.88 197.39,-1138.63 210.09,-1099.05 185.65,-419.67 215.39,-390.63 230.84,-375.55 255.88,-383.95 274.23,-393.71"/>
<polygon fill="black" stroke="black" points="272.71,-396.88 283.13,-398.82 276.2,-390.81 272.71,-396.88"/>
<text text-anchor="middle" x="238.89" y="-394.43" font-family="Times,serif" font-size="14.00">0/1 (2)</text>
</g>
<!-- 17&#45;&gt;2 -->
<g id="edge44" class="edge">
<title>17&#45;&gt;2</title>
<path fill="none" stroke="black" d="M190.24,-1187.69C193.14,-1191.98 195.78,-1196.76 197.39,-1201.63 209.98,-1239.85 187.11,-1897.02 215.39,-1925.63 229.45,-1939.86 252.76,-1939.38 270.94,-1936.05"/>
<polygon fill="black" stroke="black" points="271.93,-1939.42 280.95,-1933.85 270.43,-1932.58 271.93,-1939.42"/>
<text text-anchor="middle" x="238.89" y="-1941.43" font-family="Times,serif" font-size="14.00">0/1 (1)</text>
</g>
<!-- 17&#45;&gt;1 -->
<g id="edge45" class="edge">
<title>17&#45;&gt;1</title>
<path fill="none" stroke="black" d="M194.37,-1159.02C200.79,-1155.64 208.18,-1152.39 215.39,-1150.63 233.26,-1146.28 253.98,-1146.06 270.11,-1146.92"/>
<polygon fill="black" stroke="black" points="270.25,-1150.44 280.47,-1147.64 270.74,-1143.45 270.25,-1150.44"/>
<text text-anchor="middle" x="238.89" y="-1154.43" font-family="Times,serif" font-size="14.00">0/1 (0)</text>
</g>
<!-- 16&#45;&gt;3 -->
<g id="edge46" class="edge">
<title>16&#45;&gt;3</title>
<path fill="none" stroke="black" d="M190.22,-792.57C193.12,-788.28 195.77,-783.5 197.39,-778.63 208.18,-746.14 190.83,-186.49 215.39,-162.63 230.37,-148.08 246.61,-148.94 262.39,-162.63 294.6,-190.58 297.93,-322.07 297.78,-380.51"/>
<polygon fill="black" stroke="black" points="294.28,-380.51 297.72,-390.53 301.28,-380.56 294.28,-380.51"/>
<text text-anchor="middle" x="238.89" y="-166.43" font-family="Times,serif" font-size="14.00">0/1 (2)</text>
</g>
<!-- 16&#45;&gt;2 -->
<g id="edge47" class="edge">
<title>16&#45;&gt;2</title>
<path fill="none" stroke="black" d="M190.25,-826.68C193.15,-830.98 195.79,-835.76 197.39,-840.63 212.21,-885.89 188.35,-1658.43 215.39,-1697.63 228.18,-1716.18 248.31,-1699.04 262.39,-1716.63 284.75,-1744.57 293.26,-1849.7 296.11,-1900.63"/>
<polygon fill="black" stroke="black" points="292.62,-1900.83 296.64,-1910.63 299.61,-1900.46 292.62,-1900.83"/>
<text text-anchor="middle" x="238.89" y="-1720.43" font-family="Times,serif" font-size="14.00">0/1 (1)</text>
</g>
<!-- 16&#45;&gt;1 -->
<g id="edge48" class="edge">
<title>16&#45;&gt;1</title>
<path fill="none" stroke="black" d="M189.3,-827.07C192.24,-831.35 195.14,-836.02 197.39,-840.63 209.41,-865.27 196.88,-879.41 215.39,-899.63 230.61,-916.25 248.42,-900.95 262.39,-918.63 286.84,-949.59 294.34,-1066.89 296.53,-1121.43"/>
<polygon fill="black" stroke="black" points="293.04,-1121.59 296.91,-1131.46 300.03,-1121.33 293.04,-1121.59"/>
<text text-anchor="middle" x="238.89" y="-922.43" font-family="Times,serif" font-size="14.00">0/1 (0)</text>
</g>
<!-- 15&#45;&gt;3 -->
<g id="edge49" class="edge">
<title>15&#45;&gt;3</title>
<path fill="none" stroke="black" d="M190.26,-1640.58C193.16,-1636.29 195.8,-1631.51 197.39,-1626.63 213.46,-1577.4 187.55,-738.3 215.39,-694.63 227.89,-675.02 248.8,-690.51 262.39,-671.63 289.06,-634.59 295.41,-497.31 296.92,-437.17"/>
<polygon fill="black" stroke="black" points="300.43,-436.95 297.15,-426.87 293.43,-436.79 300.43,-436.95"/>
<text text-anchor="middle" x="238.89" y="-698.43" font-family="Times,serif" font-size="14.00">0/1 (2)</text>
</g>
<!-- 15&#45;&gt;2 -->
<g id="edge50" class="edge">
<title>15&#45;&gt;2</title>
<path fill="none" stroke="black" d="M189.98,-1674.97C192.98,-1679.48 195.72,-1684.52 197.39,-1689.63 206.69,-1718.17 193.81,-2208.76 215.39,-2229.63 230.4,-2244.16 246.79,-2243.52 262.39,-2229.63 282.62,-2211.62 292.95,-2027.82 296.22,-1956.61"/>
<polygon fill="black" stroke="black" points="299.72,-1956.71 296.67,-1946.57 292.72,-1956.4 299.72,-1956.71"/>
<text text-anchor="middle" x="238.89" y="-2243.43" font-family="Times,serif" font-size="14.00">0/1 (1)</text>
</g>
<!-- 15&#45;&gt;1 -->
<g id="edge51" class="edge">
<title>15&#45;&gt;1</title>
<path fill="none" stroke="black" d="M189.96,-1640.48C192.87,-1636.19 195.59,-1631.44 197.39,-1626.63 210.86,-1590.64 193.37,-1486.13 215.39,-1454.63 228.71,-1435.57 248.89,-1450.57 262.39,-1431.63 291.1,-1391.39 296.31,-1241.33 297.22,-1178.06"/>
<polygon fill="black" stroke="black" points="300.72,-1178.03 297.33,-1167.99 293.72,-1177.95 300.72,-1178.03"/>
<text text-anchor="middle" x="238.89" y="-1458.43" font-family="Times,serif" font-size="14.00">0/1 (0)</text>
</g>
<!-- 14&#45;&gt;3 -->
<g id="edge52" class="edge">
<title>14&#45;&gt;3</title>
<path fill="none" stroke="black" d="M190.25,-1577.58C193.16,-1573.29 195.8,-1568.51 197.39,-1563.63 213.04,-1515.73 188.29,-699.12 215.39,-656.63 227.9,-637.03 248.59,-652.36 262.39,-633.63 285.1,-602.82 293.48,-489.87 296.21,-436.68"/>
<polygon fill="black" stroke="black" points="299.71,-436.74 296.7,-426.59 292.72,-436.41 299.71,-436.74"/>
<text text-anchor="middle" x="238.89" y="-660.43" font-family="Times,serif" font-size="14.00">0/1 (2)</text>
</g>
<!-- 14&#45;&gt;2 -->
<g id="edge53" class="edge">
<title>14&#45;&gt;2</title>
<path fill="none" stroke="black" d="M190.21,-1611.7C193.12,-1615.99 195.77,-1620.77 197.39,-1625.63 207.34,-1655.48 192.79,-2169.74 215.39,-2191.63 230.39,-2206.17 246.68,-2205.39 262.39,-2191.63 296.96,-2161.36 298.9,-2018.52 298.08,-1956.97"/>
<polygon fill="black" stroke="black" points="301.58,-1956.74 297.91,-1946.8 294.58,-1956.86 301.58,-1956.74"/>
<text text-anchor="middle" x="238.89" y="-2205.43" font-family="Times,serif" font-size="14.00">0/1 (1)</text>
</g>
<!-- 14&#45;&gt;1 -->
<g id="edge54" class="edge">
<title>14&#45;&gt;1</title>
<path fill="none" stroke="black" d="M189.9,-1577.46C192.81,-1573.17 195.55,-1568.42 197.39,-1563.63 221,-1502.19 177.21,-1470.25 215.39,-1416.63 228.88,-1397.69 248.71,-1412.44 262.39,-1393.63 287.11,-1359.66 294.5,-1234.27 296.6,-1177.67"/>
<polygon fill="black" stroke="black" points="300.1,-1177.74 296.94,-1167.63 293.1,-1177.5 300.1,-1177.74"/>
<text text-anchor="middle" x="238.89" y="-1420.43" font-family="Times,serif" font-size="14.00">0/1 (0)</text>
</g>
<!-- 13&#45;&gt;3 -->
<g id="edge55" class="edge">
<title>13&#45;&gt;3</title>
<path fill="none" stroke="black" d="M190.21,-603.57C193.11,-599.27 195.76,-594.5 197.39,-589.63 206.92,-561.11 193.77,-69.54 215.39,-48.63 230.4,-34.11 246.92,-34.59 262.39,-48.63 286.82,-70.8 294.72,-299.1 296.77,-380.22"/>
<polygon fill="black" stroke="black" points="293.29,-380.74 297.03,-390.65 300.28,-380.57 293.29,-380.74"/>
<text text-anchor="middle" x="238.89" y="-52.43" font-family="Times,serif" font-size="14.00">0/1 (2)</text>
</g>
<!-- 13&#45;&gt;2 -->
<g id="edge56" class="edge">
<title>13&#45;&gt;2</title>
<path fill="none" stroke="black" d="M190.26,-637.68C193.16,-641.98 195.8,-646.76 197.39,-651.63 213.46,-700.86 186.02,-1540.98 215.39,-1583.63 228.17,-1602.19 248.81,-1584.65 262.39,-1602.63 297.47,-1649.09 298.84,-1829.45 297.97,-1900.06"/>
<polygon fill="black" stroke="black" points="294.46,-1900.36 297.81,-1910.41 301.46,-1900.46 294.46,-1900.36"/>
<text text-anchor="middle" x="238.89" y="-1606.43" font-family="Times,serif" font-size="14.00">0/1 (1)</text>
</g>
<!-- 13&#45;&gt;1 -->
<g id="edge57" class="edge">
<title>13&#45;&gt;1</title>
<path fill="none" stroke="black" d="M189.86,-637.83C192.77,-642.11 195.52,-646.86 197.39,-651.63 219.27,-707.6 178.54,-738.16 215.39,-785.63 229.21,-803.43 248.86,-786.61 262.39,-804.63 281.24,-829.75 292.62,-1043.17 296.18,-1121.21"/>
<polygon fill="black" stroke="black" points="292.68,-1121.45 296.63,-1131.29 299.68,-1121.14 292.68,-1121.45"/>
<text text-anchor="middle" x="238.89" y="-808.43" font-family="Times,serif" font-size="14.00">0/1 (0)</text>
</g>
<!-- 12&#45;&gt;3 -->
<g id="edge58" class="edge">
<title>12&#45;&gt;3</title>
<path fill="none" stroke="black" d="M190.23,-918.57C193.13,-914.28 195.78,-909.5 197.39,-904.63 209.01,-869.49 188.87,-264.45 215.39,-238.63 230.36,-224.06 246.2,-225.43 262.39,-238.63 283.92,-256.18 292.59,-336.63 295.76,-380.28"/>
<polygon fill="black" stroke="black" points="292.29,-380.78 296.45,-390.52 299.27,-380.31 292.29,-380.78"/>
<text text-anchor="middle" x="238.89" y="-242.43" font-family="Times,serif" font-size="14.00">0/1 (2)</text>
</g>
<!-- 12&#45;&gt;2 -->
<g id="edge59" class="edge">
<title>12&#45;&gt;2</title>
<path fill="none" stroke="black" d="M190.24,-952.69C193.15,-956.98 195.79,-961.76 197.39,-966.63 211.37,-1009.24 189.9,-1736.73 215.39,-1773.63 228.19,-1792.17 247.55,-1775.68 262.39,-1792.63 288.71,-1822.69 295.68,-1869.99 297.28,-1900.15"/>
<polygon fill="black" stroke="black" points="293.79,-1900.55 297.66,-1910.42 300.79,-1900.3 293.79,-1900.55"/>
<text text-anchor="middle" x="238.89" y="-1796.43" font-family="Times,serif" font-size="14.00">0/1 (1)</text>
</g>
<!-- 12&#45;&gt;1 -->
<g id="edge60" class="edge">
<title>12&#45;&gt;1</title>
<path fill="none" stroke="black" d="M190.02,-952.5C197.13,-960.18 206.16,-969.02 215.39,-975.63 234.29,-989.18 247.92,-980.43 262.39,-998.63 290.53,-1034.02 296.81,-1088 297.8,-1120.92"/>
<polygon fill="black" stroke="black" points="294.3,-1121.28 297.96,-1131.22 301.3,-1121.17 294.3,-1121.28"/>
<text text-anchor="middle" x="238.89" y="-1002.43" font-family="Times,serif" font-size="14.00">0/1 (0)</text>
</g>
<!-- 11&#45;&gt;3 -->
<g id="edge61" class="edge">
<title>11&#45;&gt;3</title>
<path fill="none" stroke="black" d="M190.22,-729.57C193.12,-725.28 195.77,-720.5 197.39,-715.63 207.76,-684.46 191.81,-147.5 215.39,-124.63 293.72,-48.65 298.5,-294.87 297.87,-380.43"/>
<polygon fill="black" stroke="black" points="294.37,-380.45 297.77,-390.49 301.37,-380.52 294.37,-380.45"/>
<text text-anchor="middle" x="238.89" y="-128.43" font-family="Times,serif" font-size="14.00">0/1 (2)</text>
</g>
<!-- 11&#45;&gt;2 -->
<g id="edge62" class="edge">
<title>11&#45;&gt;2</title>
<path fill="none" stroke="black" d="M190.25,-763.68C193.15,-767.98 195.8,-772.76 197.39,-777.63 212.62,-824.21 187.57,-1619.28 215.39,-1659.63 228.18,-1678.18 248.52,-1660.87 262.39,-1678.63 288.93,-1712.63 295.35,-1842.12 296.9,-1900.18"/>
<polygon fill="black" stroke="black" points="293.41,-1900.55 297.14,-1910.47 300.4,-1900.39 293.41,-1900.55"/>
<text text-anchor="middle" x="238.89" y="-1682.43" font-family="Times,serif" font-size="14.00">0/1 (1)</text>
</g>
<!-- 11&#45;&gt;1 -->
<g id="edge63" class="edge">
<title>11&#45;&gt;1</title>
<path fill="none" stroke="black" d="M189.59,-763.94C192.52,-768.22 195.34,-772.93 197.39,-777.63 212.66,-812.63 190.83,-832.4 215.39,-861.63 229.89,-878.88 248.61,-862.81 262.39,-880.63 291.12,-917.81 296.33,-1060.43 297.23,-1121.56"/>
<polygon fill="black" stroke="black" points="293.73,-1121.69 297.35,-1131.65 300.73,-1121.61 293.73,-1121.69"/>
<text text-anchor="middle" x="238.89" y="-884.43" font-family="Times,serif" font-size="14.00">0/1 (0)</text>
</g>
<!-- 10&#45;&gt;3 -->
<g id="edge64" class="edge">
<title>10&#45;&gt;3</title>
<path fill="none" stroke="black" d="M190.23,-981.57C193.14,-977.28 195.78,-972.5 197.39,-967.63 209.43,-931.17 187.88,-303.43 215.39,-276.63 230.35,-262.06 245.83,-263.89 262.39,-276.63 278.78,-289.24 289.09,-345.97 293.99,-380.82"/>
<polygon fill="black" stroke="black" points="290.54,-381.42 295.34,-390.87 297.47,-380.49 290.54,-381.42"/>
<text text-anchor="middle" x="238.89" y="-280.43" font-family="Times,serif" font-size="14.00">0/1 (2)</text>
</g>
<!-- 10&#45;&gt;2 -->
<g id="edge65" class="edge">
<title>10&#45;&gt;2</title>
<path fill="none" stroke="black" d="M189.8,-1015.62C192.87,-1020.22 195.71,-1025.39 197.39,-1030.63 210.63,-1071.96 190.71,-1775.93 215.39,-1811.63 228.2,-1830.17 246.79,-1814.38 262.39,-1830.63 280.77,-1849.79 289.58,-1879.24 293.75,-1900.86"/>
<polygon fill="black" stroke="black" points="290.31,-1901.5 295.45,-1910.77 297.21,-1900.32 290.31,-1901.5"/>
<text text-anchor="middle" x="238.89" y="-1834.43" font-family="Times,serif" font-size="14.00">0/1 (1)</text>
</g>
<!-- 10&#45;&gt;1 -->
<g id="edge66" class="edge">
<title>10&#45;&gt;1</title>
<path fill="none" stroke="black" d="M196.3,-1006.73C215.85,-1015.38 244.76,-1030.84 262.39,-1052.63 278.67,-1072.76 287.72,-1101.09 292.52,-1121.94"/>
<polygon fill="black" stroke="black" points="289.11,-1122.73 294.6,-1131.79 295.96,-1121.28 289.11,-1122.73"/>
<text text-anchor="middle" x="238.89" y="-1056.43" font-family="Times,serif" font-size="14.00">0/1 (0)</text>
</g>
<!-- 9&#45;&gt;3 -->
<g id="edge67" class="edge">
<title>9&#45;&gt;3</title>
<path fill="none" stroke="black" d="M176.94,-2030.76C183.57,-1939.46 213.48,-1529.24 215.39,-1526.63 228.69,-1508.44 249.5,-1526.11 262.39,-1507.63 270.29,-1496.31 292.51,-607.38 296.7,-436.77"/>
<polygon fill="black" stroke="black" points="300.21,-436.67 296.95,-426.59 293.21,-436.5 300.21,-436.67"/>
<text text-anchor="middle" x="238.89" y="-1530.43" font-family="Times,serif" font-size="14.00">0/1 (2)</text>
</g>
<!-- 9&#45;&gt;2 -->
<g id="edge68" class="edge">
<title>9&#45;&gt;2</title>
<path fill="none" stroke="black" d="M175.21,-2066.85C173.98,-2142.46 175.04,-2423.92 262.39,-2343.63 290.81,-2317.5 296.17,-2046.08 297.17,-1956.87"/>
<polygon fill="black" stroke="black" points="300.67,-1956.73 297.27,-1946.69 293.67,-1956.66 300.67,-1956.73"/>
<text text-anchor="middle" x="238.89" y="-2361.43" font-family="Times,serif" font-size="14.00">0/1 (1)</text>
</g>
<!-- 9&#45;&gt;1 -->
<g id="edge69" class="edge">
<title>9&#45;&gt;1</title>
<path fill="none" stroke="black" d="M175.66,-2066.9C176.12,-2119.08 180.55,-2266.93 215.39,-2296.63 231.29,-2310.18 247.4,-2311.18 262.39,-2296.63 272.75,-2286.58 293.06,-1353.58 296.79,-1177.96"/>
<polygon fill="black" stroke="black" points="300.29,-1178.01 297.01,-1167.94 293.29,-1177.86 300.29,-1178.01"/>
<text text-anchor="middle" x="238.89" y="-2310.43" font-family="Times,serif" font-size="14.00">0/1 (0)</text>
</g>
<!-- 8&#45;&gt;3 -->
<g id="edge70" class="edge">
<title>8&#45;&gt;3</title>
<path fill="none" stroke="black" d="M188.18,-1045.53C191.84,-1041.21 195.4,-1036.06 197.39,-1030.63 211.09,-993.28 186.9,-342.41 215.39,-314.63 230.34,-300.05 245.23,-302.71 262.39,-314.63 283.53,-329.32 291.93,-358.38 295.25,-380.33"/>
<polygon fill="black" stroke="black" points="291.8,-380.94 296.5,-390.43 298.74,-380.08 291.8,-380.94"/>
<text text-anchor="middle" x="238.89" y="-318.43" font-family="Times,serif" font-size="14.00">0/1 (2)</text>
</g>
<!-- 8&#45;&gt;2 -->
<g id="edge71" class="edge">
<title>8&#45;&gt;2</title>
<path fill="none" stroke="black" d="M188.18,-1069.73C191.85,-1074.05 195.4,-1079.21 197.39,-1084.63 212,-1124.56 191.21,-1814.67 215.39,-1849.63 228.21,-1868.16 245.35,-1853.89 262.39,-1868.63 272.93,-1877.76 281.09,-1890.88 286.87,-1902.53"/>
<polygon fill="black" stroke="black" points="283.8,-1904.23 291.16,-1911.84 290.16,-1901.3 283.8,-1904.23"/>
<text text-anchor="middle" x="238.89" y="-1872.43" font-family="Times,serif" font-size="14.00">0/1 (1)</text>
</g>
<!-- 8&#45;&gt;1 -->
<g id="edge72" class="edge">
<title>8&#45;&gt;1</title>
<path fill="none" stroke="black" d="M192.16,-1062.27C210.81,-1068.13 241.3,-1079.68 262.39,-1097.63 271.31,-1105.22 278.91,-1115.62 284.73,-1125.12"/>
<polygon fill="black" stroke="black" points="281.73,-1126.92 289.75,-1133.84 287.79,-1123.43 281.73,-1126.92"/>
<text text-anchor="middle" x="238.89" y="-1101.43" font-family="Times,serif" font-size="14.00">0/1 (0)</text>
</g>
<!-- 7&#45;&gt;3 -->
<g id="edge73" class="edge">
<title>7&#45;&gt;3</title>
<path fill="none" stroke="black" d="M188.19,-1406.54C191.86,-1402.22 195.41,-1397.06 197.39,-1391.63 213.55,-1347.31 189.99,-582.39 215.39,-542.63 227.91,-523.03 247.22,-537.26 262.39,-519.63 282.48,-496.28 291.06,-461.38 294.7,-436.97"/>
<polygon fill="black" stroke="black" points="298.2,-437.26 296.02,-426.89 291.26,-436.35 298.2,-437.26"/>
<text text-anchor="middle" x="238.89" y="-546.43" font-family="Times,serif" font-size="14.00">0/1 (2)</text>
</g>
<!-- 7&#45;&gt;2 -->
<g id="edge74" class="edge">
<title>7&#45;&gt;2</title>
<path fill="none" stroke="black" d="M188.17,-1430.74C191.83,-1435.06 195.39,-1440.21 197.39,-1445.63 209.54,-1478.59 190.2,-2053.15 215.39,-2077.63 230.37,-2092.19 246.02,-2090.6 262.39,-2077.63 281.05,-2062.85 290.73,-1995.78 294.87,-1956.85"/>
<polygon fill="black" stroke="black" points="298.37,-1956.99 295.89,-1946.69 291.4,-1956.29 298.37,-1956.99"/>
<text text-anchor="middle" x="238.89" y="-2091.43" font-family="Times,serif" font-size="14.00">0/1 (1)</text>
</g>
<!-- 7&#45;&gt;1 -->
<g id="edge75" class="edge">
<title>7&#45;&gt;1</title>
<path fill="none" stroke="black" d="M187.86,-1406.03C191.42,-1401.76 194.99,-1396.75 197.39,-1391.63 214.54,-1355.1 190.72,-1334.57 215.39,-1302.63 229.6,-1284.23 247.6,-1297.58 262.39,-1279.63 286.38,-1250.53 294.03,-1206.45 296.41,-1177.85"/>
<polygon fill="black" stroke="black" points="299.92,-1177.92 297.09,-1167.71 292.93,-1177.46 299.92,-1177.92"/>
<text text-anchor="middle" x="238.89" y="-1306.43" font-family="Times,serif" font-size="14.00">0/1 (0)</text>
</g>
<!-- 6&#45;&gt;3 -->
<g id="edge76" class="edge">
<title>6&#45;&gt;3</title>
<path fill="none" stroke="black" d="M188.18,-1099.53C191.85,-1095.21 195.4,-1090.06 197.39,-1084.63 211.39,-1046.44 186.27,-381.04 215.39,-352.63 230.34,-338.04 244.12,-342.51 262.39,-352.63 274.06,-359.1 282.36,-371.27 287.93,-382.61"/>
<polygon fill="black" stroke="black" points="284.75,-384.07 291.99,-391.8 291.15,-381.24 284.75,-384.07"/>
<text text-anchor="middle" x="238.89" y="-356.43" font-family="Times,serif" font-size="14.00">0/1 (2)</text>
</g>
<!-- 6&#45;&gt;2 -->
<g id="edge77" class="edge">
<title>6&#45;&gt;2</title>
<path fill="none" stroke="black" d="M188.18,-1123.73C191.85,-1128.05 195.4,-1133.21 197.39,-1138.63 211.7,-1177.72 191.7,-1853.41 215.39,-1887.63 228.21,-1906.16 242.33,-1896.38 262.39,-1906.63 266.34,-1908.65 270.43,-1910.98 274.36,-1913.35"/>
<polygon fill="black" stroke="black" points="272.75,-1916.48 283.08,-1918.83 276.47,-1910.55 272.75,-1916.48"/>
<text text-anchor="middle" x="238.89" y="-1910.43" font-family="Times,serif" font-size="14.00">0/1 (1)</text>
</g>
<!-- 6&#45;&gt;1 -->
<g id="edge78" class="edge">
<title>6&#45;&gt;1</title>
<path fill="none" stroke="black" d="M192.79,-1112.87C210.68,-1114.61 239.28,-1118.62 262.39,-1127.63 266.53,-1129.25 270.71,-1131.36 274.67,-1133.65"/>
<polygon fill="black" stroke="black" points="273.07,-1136.78 283.4,-1139.13 276.79,-1130.85 273.07,-1136.78"/>
<text text-anchor="middle" x="238.89" y="-1131.43" font-family="Times,serif" font-size="14.00">0/1 (0)</text>
</g>
<!-- 5&#45;&gt;3 -->
<g id="edge79" class="edge">
<title>5&#45;&gt;3</title>
<path fill="none" stroke="black" d="M188.19,-1460.54C191.86,-1456.22 195.41,-1451.06 197.39,-1445.63 213.85,-1400.47 189.52,-621.14 215.39,-580.63 227.91,-561.03 247.89,-575.81 262.39,-557.63 290.22,-522.73 296.6,-469.46 297.69,-436.97"/>
<polygon fill="black" stroke="black" points="301.2,-436.87 297.88,-426.8 294.2,-436.74 301.2,-436.87"/>
<text text-anchor="middle" x="238.89" y="-584.43" font-family="Times,serif" font-size="14.00">0/1 (2)</text>
</g>
<!-- 5&#45;&gt;2 -->
<g id="edge80" class="edge">
<title>5&#45;&gt;2</title>
<path fill="none" stroke="black" d="M188.16,-1484.74C191.83,-1489.06 195.39,-1494.21 197.39,-1499.63 209.25,-1531.75 190.83,-2091.78 215.39,-2115.63 230.37,-2130.19 246.32,-2128.98 262.39,-2115.63 286.32,-2095.77 293.98,-2003.92 296.36,-1956.76"/>
<polygon fill="black" stroke="black" points="299.87,-1956.76 296.83,-1946.61 292.87,-1956.44 299.87,-1956.76"/>
<text text-anchor="middle" x="238.89" y="-2129.43" font-family="Times,serif" font-size="14.00">0/1 (1)</text>
</g>
<!-- 5&#45;&gt;1 -->
<g id="edge81" class="edge">
<title>5&#45;&gt;1</title>
<path fill="none" stroke="black" d="M187.95,-1460.08C191.51,-1455.8 195.06,-1450.79 197.39,-1445.63 216.87,-1402.48 187.01,-1378.53 215.39,-1340.63 229.33,-1322.02 248.12,-1336 262.39,-1317.63 279.12,-1296.1 289.82,-1219.45 294.56,-1177.53"/>
<polygon fill="black" stroke="black" points="298.06,-1177.75 295.66,-1167.43 291.1,-1176.99 298.06,-1177.75"/>
<text text-anchor="middle" x="238.89" y="-1344.43" font-family="Times,serif" font-size="14.00">0/1 (0)</text>
</g>
<!-- 4&#45;&gt;3 -->
<g id="edge82" class="edge">
<title>4&#45;&gt;3</title>
<path fill="none" stroke="black" d="M188.2,-1704.54C191.87,-1700.22 195.42,-1695.06 197.39,-1689.63 215.62,-1639.44 185.12,-772.62 215.39,-728.63 228.16,-710.07 248.73,-727.55 262.39,-709.63 294.71,-667.22 297.79,-503.24 297.67,-436.81"/>
<polygon fill="black" stroke="black" points="301.17,-436.65 297.63,-426.66 294.17,-436.68 301.17,-436.65"/>
<text text-anchor="middle" x="238.89" y="-732.43" font-family="Times,serif" font-size="14.00">0/1 (2)</text>
</g>
<!-- 4&#45;&gt;2 -->
<g id="edge83" class="edge">
<title>4&#45;&gt;2</title>
<path fill="none" stroke="black" d="M176.93,-1734.64C183.72,-1829.55 215.08,-2267.34 215.39,-2267.63 230.68,-2281.86 246.88,-2281.62 262.39,-2267.63 285.31,-2246.96 294.12,-2034.72 296.59,-1956.97"/>
<polygon fill="black" stroke="black" points="300.09,-1957.03 296.9,-1946.93 293.1,-1956.82 300.09,-1957.03"/>
<text text-anchor="middle" x="238.89" y="-2281.43" font-family="Times,serif" font-size="14.00">0/1 (1)</text>
</g>
<!-- 4&#45;&gt;1 -->
<g id="edge84" class="edge">
<title>4&#45;&gt;1</title>
<path fill="none" stroke="black" d="M187.97,-1704.45C191.62,-1700.12 195.22,-1694.99 197.39,-1689.63 213.88,-1648.88 190.44,-1528.83 215.39,-1492.63 228.59,-1473.48 249.02,-1488.66 262.39,-1469.63 295.17,-1422.97 297.93,-1247.34 297.7,-1178.02"/>
<polygon fill="black" stroke="black" points="301.2,-1177.82 297.64,-1167.84 294.2,-1177.86 301.2,-1177.82"/>
<text text-anchor="middle" x="238.89" y="-1496.43" font-family="Times,serif" font-size="14.00">0/1 (0)</text>
</g>
</g>
</svg>
