<?xml version="1.0" encoding="UTF-8" standalone="no"?>
<!DOCTYPE svg PUBLIC "-//W3C//DTD SVG 1.1//EN"
 "http://www.w3.org/Graphics/SVG/1.1/DTD/svg11.dtd">
<!-- Generated by graphviz version 2.43.20190912.0211 (20190912.0211)
 -->
<!-- Title: finite_state_machine Pages: 1 -->
<svg width="287pt" height="1813pt"
 viewBox="0.00 0.00 287.08 1813.29" xmlns="http://www.w3.org/2000/svg" xmlns:xlink="http://www.w3.org/1999/xlink">
<g id="graph0" class="graph" transform="scale(1 1) rotate(0) translate(4 1809.29)">
<title>finite_state_machine</title>
<polygon fill="white" stroke="transparent" points="-4,4 -4,-1809.29 283.08,-1809.29 283.08,4 -4,4"/>
<!-- Dupont -->
<g id="node1" class="node">
<title>Dupont</title>
<ellipse fill="none" stroke="black" cx="61.74" cy="-48.1" rx="44.69" ry="44.69"/>
<text text-anchor="middle" x="61.74" y="-44.4" font-family="Times,serif" font-size="14.00">Dupont</text>
</g>
<!-- Football -->
<g id="node2" class="node">
<title>Football</title>
<ellipse fill="none" stroke="black" cx="219.28" cy="-48.1" rx="48.19" ry="48.19"/>
<text text-anchor="middle" x="219.28" y="-44.4" font-family="Times,serif" font-size="14.00">Football</text>
</g>
<!-- Dupont&#45;&gt;Football -->
<g id="edge1" class="edge">
<title>Dupont&#45;&gt;Football</title>
<path fill="none" stroke="black" d="M106.9,-48.1C123.64,-48.1 142.96,-48.1 160.75,-48.1"/>
<polygon fill="black" stroke="black" points="161.03,-51.6 171.03,-48.1 161.03,-44.6 161.03,-51.6"/>
</g>
<!-- Bertrand -->
<g id="node3" class="node">
<title>Bertrand</title>
<ellipse fill="none" stroke="black" cx="61.74" cy="-461.1" rx="52.79" ry="52.79"/>
<text text-anchor="middle" x="61.74" y="-457.4" font-family="Times,serif" font-size="14.00">Bertrand</text>
</g>
<!-- Karate -->
<g id="node4" class="node">
<title>Karate</title>
<ellipse fill="none" stroke="black" cx="219.28" cy="-299.1" rx="42.49" ry="42.49"/>
<text text-anchor="middle" x="219.28" y="-295.4" font-family="Times,serif" font-size="14.00">Karate</text>
</g>
<!-- Bertrand&#45;&gt;Karate -->
<g id="edge2" class="edge">
<title>Bertrand&#45;&gt;Karate</title>
<path fill="none" stroke="black" d="M99.46,-423.82C107.41,-415.69 115.75,-407.13 123.49,-399.1 143.1,-378.75 164.79,-355.89 182.48,-337.16"/>
<polygon fill="black" stroke="black" points="185.47,-339.09 189.79,-329.41 180.38,-334.28 185.47,-339.09"/>
</g>
<!-- Charlie -->
<g id="node5" class="node">
<title>Charlie</title>
<ellipse fill="none" stroke="black" cx="61.74" cy="-576.1" rx="44.39" ry="44.39"/>
<text text-anchor="middle" x="61.74" y="-572.4" font-family="Times,serif" font-size="14.00">Charlie</text>
</g>
<!-- Cricket -->
<g id="node6" class="node">
<title>Cricket</title>
<ellipse fill="none" stroke="black" cx="219.28" cy="-576.1" rx="44.39" ry="44.39"/>
<text text-anchor="middle" x="219.28" y="-572.4" font-family="Times,serif" font-size="14.00">Cricket</text>
</g>
<!-- Charlie&#45;&gt;Cricket -->
<g id="edge3" class="edge">
<title>Charlie&#45;&gt;Cricket</title>
<path fill="none" stroke="black" d="M106.07,-576.1C124.28,-576.1 145.65,-576.1 164.82,-576.1"/>
<polygon fill="black" stroke="black" points="164.92,-579.6 174.92,-576.1 164.92,-572.6 164.92,-579.6"/>
</g>
<!-- Anasthasia -->
<g id="node7" class="node">
<title>Anasthasia</title>
<ellipse fill="none" stroke="black" cx="61.74" cy="-1203.1" rx="61.99" ry="61.99"/>
<text text-anchor="middle" x="61.74" y="-1199.4" font-family="Times,serif" font-size="14.00">Anasthasia</text>
</g>
<!-- Basketball -->
<g id="node8" class="node">
<title>Basketball</title>
<ellipse fill="none" stroke="black" cx="219.28" cy="-916.1" rx="59.59" ry="59.59"/>
<text text-anchor="middle" x="219.28" y="-912.4" font-family="Times,serif" font-size="14.00">Basketball</text>
</g>
<!-- Anasthasia&#45;&gt;Basketball -->
<g id="edge4" class="edge">
<title>Anasthasia&#45;&gt;Basketball</title>
<path fill="none" stroke="black" d="M104.37,-1158.42C111.21,-1150 117.88,-1141.03 123.49,-1132.1 153.31,-1084.6 178.35,-1026.1 195.2,-981.97"/>
<polygon fill="black" stroke="black" points="198.52,-983.09 198.77,-972.5 191.97,-980.62 198.52,-983.09"/>
</g>
<!-- Caroline -->
<g id="node9" class="node">
<title>Caroline</title>
<ellipse fill="none" stroke="black" cx="61.74" cy="-1073.1" rx="50.09" ry="50.09"/>
<text text-anchor="middle" x="61.74" y="-1069.4" font-family="Times,serif" font-size="14.00">Caroline</text>
</g>
<!-- Caroline&#45;&gt;Basketball -->
<g id="edge5" class="edge">
<title>Caroline&#45;&gt;Basketball</title>
<path fill="none" stroke="black" d="M98.58,-1038.65C106.81,-1030.64 115.49,-1022.11 123.49,-1014.1 138.72,-998.83 155.12,-982.02 169.92,-966.7"/>
<polygon fill="black" stroke="black" points="172.62,-968.94 177.04,-959.31 167.58,-964.08 172.62,-968.94"/>
</g>
<!-- Clotilde -->
<g id="node10" class="node">
<title>Clotilde</title>
<ellipse fill="none" stroke="black" cx="61.74" cy="-1330.1" rx="46.59" ry="46.59"/>
<text text-anchor="middle" x="61.74" y="-1326.4" font-family="Times,serif" font-size="14.00">Clotilde</text>
</g>
<!-- Dance -->
<g id="node11" class="node">
<title>Dance</title>
<ellipse fill="none" stroke="black" cx="219.28" cy="-1330.1" rx="39.79" ry="39.79"/>
<text text-anchor="middle" x="219.28" y="-1326.4" font-family="Times,serif" font-size="14.00">Dance</text>
</g>
<!-- Clotilde&#45;&gt;Dance -->
<g id="edge6" class="edge">
<title>Clotilde&#45;&gt;Dance</title>
<path fill="none" stroke="black" d="M108.57,-1330.1C127.71,-1330.1 149.98,-1330.1 169.43,-1330.1"/>
<polygon fill="black" stroke="black" points="169.61,-1333.6 179.61,-1330.1 169.61,-1326.6 169.61,-1333.6"/>
</g>
<!-- Bernard -->
<g id="node12" class="node">
<title>Bernard</title>
<ellipse fill="none" stroke="black" cx="61.74" cy="-1444.1" rx="48.99" ry="48.99"/>
<text text-anchor="middle" x="61.74" y="-1440.4" font-family="Times,serif" font-size="14.00">Bernard</text>
</g>
<!-- Gym -->
<g id="node13" class="node">
<title>Gym</title>
<ellipse fill="none" stroke="black" cx="219.28" cy="-1444.1" rx="32.49" ry="32.49"/>
<text text-anchor="middle" x="219.28" y="-1440.4" font-family="Times,serif" font-size="14.00">Gym</text>
</g>
<!-- Bernard&#45;&gt;Gym -->
<g id="edge7" class="edge">
<title>Bernard&#45;&gt;Gym</title>
<path fill="none" stroke="black" d="M110.68,-1444.1C131.66,-1444.1 156.05,-1444.1 176.3,-1444.1"/>
<polygon fill="black" stroke="black" points="176.48,-1447.6 186.48,-1444.1 176.48,-1440.6 176.48,-1447.6"/>
</g>
<!-- Martin -->
<g id="node14" class="node">
<title>Martin</title>
<ellipse fill="none" stroke="black" cx="61.74" cy="-963.1" rx="42.49" ry="42.49"/>
<text text-anchor="middle" x="61.74" y="-959.4" font-family="Times,serif" font-size="14.00">Martin</text>
</g>
<!-- Martin&#45;&gt;Basketball -->
<g id="edge8" class="edge">
<title>Martin&#45;&gt;Basketball</title>
<path fill="none" stroke="black" d="M102.4,-951.11C117.44,-946.57 135.02,-941.26 151.87,-936.16"/>
<polygon fill="black" stroke="black" points="153.12,-939.44 161.68,-933.2 151.1,-932.74 153.12,-939.44"/>
</g>
<!-- Mael -->
<g id="node15" class="node">
<title>Mael</title>
<ellipse fill="none" stroke="black" cx="61.74" cy="-869.1" rx="33.6" ry="33.6"/>
<text text-anchor="middle" x="61.74" y="-865.4" font-family="Times,serif" font-size="14.00">Mael</text>
</g>
<!-- Mael&#45;&gt;Basketball -->
<g id="edge9" class="edge">
<title>Mael&#45;&gt;Basketball</title>
<path fill="none" stroke="black" d="M94.22,-878.61C110.85,-883.63 131.92,-890 151.96,-896.05"/>
<polygon fill="black" stroke="black" points="151.1,-899.45 161.68,-898.99 153.12,-892.75 151.1,-899.45"/>
</g>
<!-- Axel -->
<g id="node16" class="node">
<title>Axel</title>
<ellipse fill="none" stroke="black" cx="61.74" cy="-787.1" rx="30.59" ry="30.59"/>
<text text-anchor="middle" x="61.74" y="-783.4" font-family="Times,serif" font-size="14.00">Axel</text>
</g>
<!-- Axel&#45;&gt;Basketball -->
<g id="edge10" class="edge">
<title>Axel&#45;&gt;Basketball</title>
<path fill="none" stroke="black" d="M88.6,-802.2C99.67,-809.04 112.54,-817.51 123.49,-826.1 139.15,-838.38 155.21,-852.81 169.55,-866.48"/>
<polygon fill="black" stroke="black" points="167.25,-869.12 176.89,-873.54 172.11,-864.08 167.25,-869.12"/>
</g>
<!-- Aurelien -->
<g id="node17" class="node">
<title>Aurelien</title>
<ellipse fill="none" stroke="black" cx="61.74" cy="-688.1" rx="50.09" ry="50.09"/>
<text text-anchor="middle" x="61.74" y="-684.4" font-family="Times,serif" font-size="14.00">Aurelien</text>
</g>
<!-- Aurelien&#45;&gt;Basketball -->
<g id="edge11" class="edge">
<title>Aurelien&#45;&gt;Basketball</title>
<path fill="none" stroke="black" d="M99.87,-720.82C108.13,-728.98 116.5,-738.01 123.49,-747.1 148.7,-779.88 171.56,-820.15 188.51,-853.16"/>
<polygon fill="black" stroke="black" points="185.49,-854.93 193.13,-862.26 191.73,-851.76 185.49,-854.93"/>
</g>
<!-- Carole -->
<g id="node18" class="node">
<title>Carole</title>
<ellipse fill="none" stroke="black" cx="61.74" cy="-1552.1" rx="40.89" ry="40.89"/>
<text text-anchor="middle" x="61.74" y="-1548.4" font-family="Times,serif" font-size="14.00">Carole</text>
</g>
<!-- Volley -->
<g id="node19" class="node">
<title>Volley</title>
<ellipse fill="none" stroke="black" cx="219.28" cy="-1552.1" rx="38.19" ry="38.19"/>
<text text-anchor="middle" x="219.28" y="-1548.4" font-family="Times,serif" font-size="14.00">Volley</text>
</g>
<!-- Carole&#45;&gt;Volley -->
<g id="edge12" class="edge">
<title>Carole&#45;&gt;Volley</title>
<path fill="none" stroke="black" d="M102.8,-1552.1C123.55,-1552.1 149.02,-1552.1 170.76,-1552.1"/>
<polygon fill="black" stroke="black" points="170.77,-1555.6 180.77,-1552.1 170.77,-1548.6 170.77,-1555.6"/>
</g>
<!-- Florian -->
<g id="node20" class="node">
<title>Florian</title>
<ellipse fill="none" stroke="black" cx="61.74" cy="-1761.1" rx="44.39" ry="44.39"/>
<text text-anchor="middle" x="61.74" y="-1757.4" font-family="Times,serif" font-size="14.00">Florian</text>
</g>
<!-- Natation -->
<g id="node21" class="node">
<title>Natation</title>
<ellipse fill="none" stroke="black" cx="219.28" cy="-1660.1" rx="51.19" ry="51.19"/>
<text text-anchor="middle" x="219.28" y="-1656.4" font-family="Times,serif" font-size="14.00">Natation</text>
</g>
<!-- Florian&#45;&gt;Natation -->
<g id="edge13" class="edge">
<title>Florian&#45;&gt;Natation</title>
<path fill="none" stroke="black" d="M99.21,-1737.42C119.42,-1724.29 144.88,-1707.76 167.06,-1693.35"/>
<polygon fill="black" stroke="black" points="169.22,-1696.13 175.71,-1687.74 165.41,-1690.25 169.22,-1696.13"/>
</g>
<!-- Angele -->
<g id="node22" class="node">
<title>Angele</title>
<ellipse fill="none" stroke="black" cx="61.74" cy="-1657.1" rx="42.49" ry="42.49"/>
<text text-anchor="middle" x="61.74" y="-1653.4" font-family="Times,serif" font-size="14.00">Angele</text>
</g>
<!-- Angele&#45;&gt;Natation -->
<g id="edge14" class="edge">
<title>Angele&#45;&gt;Natation</title>
<path fill="none" stroke="black" d="M104.02,-1657.89C120.5,-1658.21 139.8,-1658.58 157.8,-1658.93"/>
<polygon fill="black" stroke="black" points="157.86,-1662.43 167.93,-1659.12 158,-1655.43 157.86,-1662.43"/>
</g>
<!-- Alexis -->
<g id="node23" class="node">
<title>Alexis</title>
<ellipse fill="none" stroke="black" cx="61.74" cy="-352.1" rx="38.19" ry="38.19"/>
<text text-anchor="middle" x="61.74" y="-348.4" font-family="Times,serif" font-size="14.00">Alexis</text>
</g>
<!-- Alexis&#45;&gt;Karate -->
<g id="edge15" class="edge">
<title>Alexis&#45;&gt;Karate</title>
<path fill="none" stroke="black" d="M98.43,-339.94C119.46,-332.77 146.37,-323.6 169.36,-315.77"/>
<polygon fill="black" stroke="black" points="170.61,-319.04 178.94,-312.5 168.35,-312.41 170.61,-319.04"/>
</g>
<!-- Floriane -->
<g id="node24" class="node">
<title>Floriane</title>
<ellipse fill="none" stroke="black" cx="61.74" cy="-246.1" rx="49.29" ry="49.29"/>
<text text-anchor="middle" x="61.74" y="-242.4" font-family="Times,serif" font-size="14.00">Floriane</text>
</g>
<!-- Floriane&#45;&gt;Karate -->
<g id="edge16" class="edge">
<title>Floriane&#45;&gt;Karate</title>
<path fill="none" stroke="black" d="M108.99,-261.85C128.07,-268.35 150.19,-275.89 169.52,-282.48"/>
<polygon fill="black" stroke="black" points="168.45,-285.81 179.05,-285.73 170.71,-279.19 168.45,-285.81"/>
</g>
<!-- Basil -->
<g id="node25" class="node">
<title>Basil</title>
<ellipse fill="none" stroke="black" cx="61.74" cy="-145.1" rx="33.6" ry="33.6"/>
<text text-anchor="middle" x="61.74" y="-141.4" font-family="Times,serif" font-size="14.00">Basil</text>
</g>
<!-- Basil&#45;&gt;Karate -->
<g id="edge17" class="edge">
<title>Basil&#45;&gt;Karate</title>
<path fill="none" stroke="black" d="M90.76,-162.78C101.45,-170.07 113.47,-178.95 123.49,-188.1 146.56,-209.16 169.38,-235.67 186.86,-257.5"/>
<polygon fill="black" stroke="black" points="184.33,-259.95 193.28,-265.62 189.82,-255.6 184.33,-259.95"/>
</g>
</g>
</svg>
