<?xml version="1.0" encoding="UTF-8" standalone="no"?>
<!DOCTYPE svg PUBLIC "-//W3C//DTD SVG 1.1//EN"
 "http://www.w3.org/Graphics/SVG/1.1/DTD/svg11.dtd">
<!-- Generated by graphviz version 2.40.1 (20161225.0304)
 -->
<!-- Title: finite_state_machine Pages: 1 -->
<svg width="416pt" height="340pt"
 viewBox="0.00 0.00 416.39 340.00" xmlns="http://www.w3.org/2000/svg" xmlns:xlink="http://www.w3.org/1999/xlink">
<g id="graph0" class="graph" transform="scale(1 1) rotate(0) translate(4 336)">
<title>finite_state_machine</title>
<polygon fill="#ffffff" stroke="transparent" points="-4,4 -4,-336 412.3864,-336 412.3864,4 -4,4"/>
<!-- 2 -->
<g id="node1" class="node">
<title>2</title>
<ellipse fill="none" stroke="#000000" cx="260.1915" cy="-314" rx="18" ry="18"/>
<text text-anchor="middle" x="260.1915" y="-310.3" font-family="Times,serif" font-size="14.00" fill="#000000">2</text>
</g>
<!-- 9999 -->
<g id="node2" class="node">
<title>9999</title>
<ellipse fill="none" stroke="#000000" cx="379.7889" cy="-145" rx="28.6953" ry="28.6953"/>
<text text-anchor="middle" x="379.7889" y="-141.3" font-family="Times,serif" font-size="14.00" fill="#000000">9999</text>
</g>
<!-- 2&#45;&gt;9999 -->
<g id="edge1" class="edge">
<title>2&#45;&gt;9999</title>
<path fill="none" stroke="#000000" d="M273.015,-301.0545C288.3859,-285.1497 314.417,-256.9507 333.1915,-230 344.1276,-214.3013 354.5402,-195.7824 362.7376,-180.0443"/>
<polygon fill="#000000" stroke="#000000" points="365.8537,-181.6379 367.2953,-171.1416 359.6228,-178.4479 365.8537,-181.6379"/>
<text text-anchor="middle" x="314.6915" y="-277.8" font-family="Times,serif" font-size="14.00" fill="#000000">1/3 (1)</text>
</g>
<!-- 7 -->
<g id="node3" class="node">
<title>7</title>
<ellipse fill="none" stroke="#000000" cx="149.6932" cy="-281" rx="18" ry="18"/>
<text text-anchor="middle" x="149.6932" y="-277.3" font-family="Times,serif" font-size="14.00" fill="#000000">7</text>
</g>
<!-- 7&#45;&gt;2 -->
<g id="edge2" class="edge">
<title>7&#45;&gt;2</title>
<path fill="none" stroke="#000000" d="M162.3619,-293.9393C169.1189,-299.9658 177.9367,-306.5532 187.1915,-310 201.2697,-315.2432 217.9345,-316.4931 231.7847,-316.3215"/>
<polygon fill="#000000" stroke="#000000" points="232.3251,-319.8037 242.1857,-315.9282 232.0606,-312.8087 232.3251,-319.8037"/>
<text text-anchor="middle" x="205.6915" y="-319.8" font-family="Times,serif" font-size="14.00" fill="#000000">1/1 (1)</text>
</g>
<!-- 3 -->
<g id="node4" class="node">
<title>3</title>
<ellipse fill="none" stroke="#000000" cx="260.1915" cy="-234" rx="18" ry="18"/>
<text text-anchor="middle" x="260.1915" y="-230.3" font-family="Times,serif" font-size="14.00" fill="#000000">3</text>
</g>
<!-- 7&#45;&gt;3 -->
<g id="edge3" class="edge">
<title>7&#45;&gt;3</title>
<path fill="none" stroke="#000000" d="M167.8312,-282.1589C183.5565,-282.4067 206.5036,-280.9032 224.1915,-272 231.3347,-268.4044 237.8209,-262.7906 243.2577,-256.9709"/>
<polygon fill="#000000" stroke="#000000" points="246.162,-258.959 249.9841,-249.0776 240.8341,-254.4187 246.162,-258.959"/>
<text text-anchor="middle" x="205.6915" y="-284.8" font-family="Times,serif" font-size="14.00" fill="#000000">0/1 (1)</text>
</g>
<!-- 4 -->
<g id="node5" class="node">
<title>4</title>
<ellipse fill="none" stroke="#000000" cx="260.1915" cy="-180" rx="18" ry="18"/>
<text text-anchor="middle" x="260.1915" y="-176.3" font-family="Times,serif" font-size="14.00" fill="#000000">4</text>
</g>
<!-- 7&#45;&gt;4 -->
<g id="edge4" class="edge">
<title>7&#45;&gt;4</title>
<path fill="none" stroke="#000000" d="M163.8973,-269.5136C170.7469,-264.2062 179.1958,-257.9895 187.1915,-253 202.8744,-243.2136 210.399,-246.3083 224.1915,-234 224.2369,-233.9595 234.7395,-218.2034 244.3876,-203.7233"/>
<polygon fill="#000000" stroke="#000000" points="247.5514,-205.287 250.1833,-195.0243 241.726,-201.4058 247.5514,-205.287"/>
<text text-anchor="middle" x="205.6915" y="-256.8" font-family="Times,serif" font-size="14.00" fill="#000000">0/1 (1)</text>
</g>
<!-- 3&#45;&gt;9999 -->
<g id="edge12" class="edge">
<title>3&#45;&gt;9999</title>
<path fill="none" stroke="#000000" d="M275.7769,-224.9701C290.8994,-215.9786 314.2725,-201.4658 333.1915,-187 339.2585,-182.361 345.4981,-177.1121 351.3606,-171.9354"/>
<polygon fill="#000000" stroke="#000000" points="353.9861,-174.2808 359.0694,-164.9851 349.2987,-169.0818 353.9861,-174.2808"/>
<text text-anchor="middle" x="314.6915" y="-214.8" font-family="Times,serif" font-size="14.00" fill="#000000">1/1 (1)</text>
</g>
<!-- 4&#45;&gt;9999 -->
<g id="edge13" class="edge">
<title>4&#45;&gt;9999</title>
<path fill="none" stroke="#000000" d="M277.582,-174.9107C294.4722,-169.9678 320.6622,-162.3033 342.3016,-155.9706"/>
<polygon fill="#000000" stroke="#000000" points="343.571,-159.246 352.1854,-153.0781 341.6049,-152.5278 343.571,-159.246"/>
<text text-anchor="middle" x="314.6915" y="-171.8" font-family="Times,serif" font-size="14.00" fill="#000000">2/2 (1)</text>
</g>
<!-- 10 -->
<g id="node6" class="node">
<title>10</title>
<ellipse fill="none" stroke="#000000" cx="149.6932" cy="-213" rx="19.4965" ry="19.4965"/>
<text text-anchor="middle" x="149.6932" y="-209.3" font-family="Times,serif" font-size="14.00" fill="#000000">10</text>
</g>
<!-- 10&#45;&gt;3 -->
<g id="edge5" class="edge">
<title>10&#45;&gt;3</title>
<path fill="none" stroke="#000000" d="M169.2517,-212.9084C184.4337,-213.2352 205.9053,-214.572 224.1915,-219 227.4818,-219.7968 230.8601,-220.8545 234.1666,-222.0408"/>
<polygon fill="#000000" stroke="#000000" points="233.1255,-225.3939 243.7104,-225.8535 235.7224,-218.8934 233.1255,-225.3939"/>
<text text-anchor="middle" x="205.6915" y="-222.8" font-family="Times,serif" font-size="14.00" fill="#000000">1/1 (1)</text>
</g>
<!-- 10&#45;&gt;4 -->
<g id="edge6" class="edge">
<title>10&#45;&gt;4</title>
<path fill="none" stroke="#000000" d="M166.8027,-203.0612C173.0528,-199.7749 180.2853,-196.3596 187.1915,-194 201.5485,-189.0947 218.1155,-185.7421 231.8343,-183.5507"/>
<polygon fill="#000000" stroke="#000000" points="232.7459,-186.9543 242.1292,-182.0347 231.726,-180.029 232.7459,-186.9543"/>
<text text-anchor="middle" x="205.6915" y="-197.8" font-family="Times,serif" font-size="14.00" fill="#000000">0/1 (1)</text>
</g>
<!-- 8 -->
<g id="node7" class="node">
<title>8</title>
<ellipse fill="none" stroke="#000000" cx="149.6932" cy="-158" rx="18" ry="18"/>
<text text-anchor="middle" x="149.6932" y="-154.3" font-family="Times,serif" font-size="14.00" fill="#000000">8</text>
</g>
<!-- 8&#45;&gt;4 -->
<g id="edge7" class="edge">
<title>8&#45;&gt;4</title>
<path fill="none" stroke="#000000" d="M165.6441,-149.5235C181.1108,-142.5054 204.9879,-134.8911 224.1915,-143 231.4572,-146.068 237.9817,-151.3989 243.4159,-157.0743"/>
<polygon fill="#000000" stroke="#000000" points="240.9369,-159.559 250.1177,-164.8469 246.2383,-154.9879 240.9369,-159.559"/>
<text text-anchor="middle" x="205.6915" y="-146.8" font-family="Times,serif" font-size="14.00" fill="#000000">1/1 (4)</text>
</g>
<!-- 9998 -->
<g id="node8" class="node">
<title>9998</title>
<ellipse fill="none" stroke="#000000" cx="28.5975" cy="-185" rx="28.6953" ry="28.6953"/>
<text text-anchor="middle" x="28.5975" y="-181.3" font-family="Times,serif" font-size="14.00" fill="#000000">9998</text>
</g>
<!-- 9998&#45;&gt;7 -->
<g id="edge9" class="edge">
<title>9998&#45;&gt;7</title>
<path fill="none" stroke="#000000" d="M51.3455,-203.0722C58.9295,-209.0947 67.4248,-215.8383 75.1949,-222 92.7012,-235.8825 112.5331,-251.5876 127.3314,-263.3023"/>
<polygon fill="#000000" stroke="#000000" points="125.3939,-266.2325 135.4071,-269.6947 129.7385,-260.7438 125.3939,-266.2325"/>
<text text-anchor="middle" x="93.6949" y="-254.8" font-family="Times,serif" font-size="14.00" fill="#000000">1/1 (1)</text>
</g>
<!-- 9998&#45;&gt;10 -->
<g id="edge11" class="edge">
<title>9998&#45;&gt;10</title>
<path fill="none" stroke="#000000" d="M56.6836,-191.4941C75.8725,-195.931 101.2372,-201.7959 120.6309,-206.2802"/>
<polygon fill="#000000" stroke="#000000" points="119.9069,-209.705 130.4383,-208.5478 121.4839,-202.885 119.9069,-209.705"/>
<text text-anchor="middle" x="93.6949" y="-206.8" font-family="Times,serif" font-size="14.00" fill="#000000">1/1 (1)</text>
</g>
<!-- 9998&#45;&gt;8 -->
<g id="edge8" class="edge">
<title>9998&#45;&gt;8</title>
<path fill="none" stroke="#000000" d="M56.0471,-176.1612C62.3028,-174.3124 68.9476,-172.478 75.1949,-171 90.4668,-167.3869 107.7188,-164.3137 121.7724,-162.0639"/>
<polygon fill="#000000" stroke="#000000" points="122.4639,-165.4986 131.81,-160.5086 121.392,-158.5811 122.4639,-165.4986"/>
<text text-anchor="middle" x="93.6949" y="-174.8" font-family="Times,serif" font-size="14.00" fill="#000000">1/1 (1)</text>
</g>
<!-- 9 -->
<g id="node9" class="node">
<title>9</title>
<ellipse fill="none" stroke="#000000" cx="149.6932" cy="-104" rx="18" ry="18"/>
<text text-anchor="middle" x="149.6932" y="-100.3" font-family="Times,serif" font-size="14.00" fill="#000000">9</text>
</g>
<!-- 9998&#45;&gt;9 -->
<g id="edge10" class="edge">
<title>9998&#45;&gt;9</title>
<path fill="none" stroke="#000000" d="M49.5606,-164.7296C57.2993,-157.7489 66.3453,-150.1479 75.1949,-144 90.6233,-133.2818 109.2425,-123.284 124.0073,-115.9647"/>
<polygon fill="#000000" stroke="#000000" points="125.6128,-119.076 133.081,-111.561 122.5564,-112.7785 125.6128,-119.076"/>
<text text-anchor="middle" x="93.6949" y="-147.8" font-family="Times,serif" font-size="14.00" fill="#000000">1/1 (1)</text>
</g>
<!-- 9&#45;&gt;4 -->
<g id="edge14" class="edge">
<title>9&#45;&gt;4</title>
<path fill="none" stroke="#000000" d="M167.9756,-103.7901C184.2256,-104.4955 207.8694,-107.8093 224.1915,-120 237.5768,-129.9972 233.5494,-138.7022 242.1915,-153 242.8636,-154.1119 243.5606,-155.2426 244.2727,-156.3797"/>
<polygon fill="#000000" stroke="#000000" points="241.4895,-158.5211 249.8606,-165.0152 247.3664,-154.7182 241.4895,-158.5211"/>
<text text-anchor="middle" x="205.6915" y="-123.8" font-family="Times,serif" font-size="14.00" fill="#000000">1/1 (1)</text>
</g>
<!-- 6 -->
<g id="node10" class="node">
<title>6</title>
<ellipse fill="none" stroke="#000000" cx="260.1915" cy="-126" rx="18" ry="18"/>
<text text-anchor="middle" x="260.1915" y="-122.3" font-family="Times,serif" font-size="14.00" fill="#000000">6</text>
</g>
<!-- 6&#45;&gt;9999 -->
<g id="edge15" class="edge">
<title>6&#45;&gt;9999</title>
<path fill="none" stroke="#000000" d="M278.256,-127.7762C293.0687,-129.3408 314.5555,-131.8579 333.1915,-135 336.0216,-135.4772 338.9403,-136.0086 341.8715,-136.5709"/>
<polygon fill="#000000" stroke="#000000" points="341.2815,-140.0223 351.7759,-138.5672 342.6646,-133.1603 341.2815,-140.0223"/>
<text text-anchor="middle" x="314.6915" y="-138.8" font-family="Times,serif" font-size="14.00" fill="#000000">0/1 (1)</text>
</g>
<!-- 5 -->
<g id="node11" class="node">
<title>5</title>
<ellipse fill="none" stroke="#000000" cx="260.1915" cy="-72" rx="18" ry="18"/>
<text text-anchor="middle" x="260.1915" y="-68.3" font-family="Times,serif" font-size="14.00" fill="#000000">5</text>
</g>
<!-- 5&#45;&gt;9999 -->
<g id="edge16" class="edge">
<title>5&#45;&gt;9999</title>
<path fill="none" stroke="#000000" d="M276.5635,-79.5659C291.644,-86.7563 314.4525,-98.1972 333.1915,-110 338.3468,-113.2471 343.6552,-116.9033 348.7593,-120.5963"/>
<polygon fill="#000000" stroke="#000000" points="346.977,-123.6321 357.0932,-126.7806 351.1484,-118.0108 346.977,-123.6321"/>
<text text-anchor="middle" x="314.6915" y="-113.8" font-family="Times,serif" font-size="14.00" fill="#000000">0/1 (1)</text>
</g>
<!-- 1 -->
<g id="node12" class="node">
<title>1</title>
<ellipse fill="none" stroke="#000000" cx="260.1915" cy="-18" rx="18" ry="18"/>
<text text-anchor="middle" x="260.1915" y="-14.3" font-family="Times,serif" font-size="14.00" fill="#000000">1</text>
</g>
<!-- 1&#45;&gt;9999 -->
<g id="edge17" class="edge">
<title>1&#45;&gt;9999</title>
<path fill="none" stroke="#000000" d="M276.0646,-27.0517C291.8323,-36.5762 316.0668,-52.7058 333.1915,-71 344.1503,-82.7073 353.9986,-97.3513 361.7871,-110.5156"/>
<polygon fill="#000000" stroke="#000000" points="358.8325,-112.3993 366.8384,-119.3388 364.9074,-108.9214 358.8325,-112.3993"/>
<text text-anchor="middle" x="314.6915" y="-74.8" font-family="Times,serif" font-size="14.00" fill="#000000">0/3 (1)</text>
</g>
</g>
</svg>
