<?xml version="1.0" encoding="UTF-8" standalone="no"?>
<!DOCTYPE svg PUBLIC "-//W3C//DTD SVG 1.1//EN"
 "http://www.w3.org/Graphics/SVG/1.1/DTD/svg11.dtd">
<!-- Generated by graphviz version 2.43.20190912.0211 (20190912.0211)
 -->
<!-- Title: %3 Pages: 1 -->
<svg width="369pt" height="2633pt"
 viewBox="0.00 0.00 368.57 2633.34" xmlns="http://www.w3.org/2000/svg" xmlns:xlink="http://www.w3.org/1999/xlink">
<g id="graph0" class="graph" transform="scale(1 1) rotate(0) translate(4 2629.34)">
<title>%3</title>
<polygon fill="white" stroke="transparent" points="-4,4 -4,-2629.34 364.57,-2629.34 364.57,4 -4,4"/>
<!-- Bernard -->
<g id="node1" class="node">
<title>Bernard</title>
<ellipse fill="none" stroke="black" cx="61.74" cy="-2269.24" rx="48.99" ry="48.99"/>
<text text-anchor="middle" x="61.74" y="-2265.54" font-family="Times,serif" font-size="14.00">Bernard</text>
</g>
<!-- Gym (1) -->
<g id="node2" class="node">
<title>Gym (1)</title>
<ellipse fill="none" stroke="black" cx="265.03" cy="-2577.24" rx="48.19" ry="48.19"/>
<text text-anchor="middle" x="265.03" y="-2573.54" font-family="Times,serif" font-size="14.00">Gym (1)</text>
</g>
<!-- Bernard&#45;&gt;Gym (1) -->
<g id="edge1" class="edge">
<title>Bernard&#45;&gt;Gym (1)</title>
<path fill="none" stroke="black" d="M98.65,-2301.71C108.29,-2312.38 117.66,-2324.94 123.49,-2338.24 154.19,-2408.23 99.32,-2445.51 141.49,-2509.24 157.32,-2533.17 184.57,-2549.49 209.36,-2560.12"/>
<polygon fill="black" stroke="black" points="208.13,-2563.4 218.71,-2563.93 210.77,-2556.92 208.13,-2563.4"/>
<text text-anchor="middle" x="146.49" y="-2524.04" font-family="Times,serif" font-size="14.00">3</text>
</g>
<!-- Badminton (20) -->
<g id="node3" class="node">
<title>Badminton (20)</title>
<ellipse fill="none" stroke="black" cx="265.03" cy="-1372.24" rx="83.39" ry="83.39"/>
<text text-anchor="middle" x="265.03" y="-1368.54" font-family="Times,serif" font-size="14.00">Badminton (20)</text>
</g>
<!-- Bernard&#45;&gt;Badminton (20) -->
<g id="edge2" class="edge">
<title>Bernard&#45;&gt;Badminton (20)</title>
<path fill="none" stroke="black" d="M96.52,-2234.67C107.21,-2221.52 117.74,-2205.71 123.49,-2189.24 138.15,-2147.27 111.92,-1422.44 141.49,-1389.24 149.64,-1380.1 160.24,-1374.18 171.79,-1370.51"/>
<polygon fill="black" stroke="black" points="172.89,-1373.84 181.69,-1367.94 171.13,-1367.07 172.89,-1373.84"/>
<text text-anchor="middle" x="146.49" y="-1393.04" font-family="Times,serif" font-size="14.00">2</text>
</g>
<!-- Dance (10) -->
<g id="node4" class="node">
<title>Dance (10)</title>
<ellipse fill="none" stroke="black" cx="265.03" cy="-1534.24" rx="61.19" ry="61.19"/>
<text text-anchor="middle" x="265.03" y="-1530.54" font-family="Times,serif" font-size="14.00">Dance (10)</text>
</g>
<!-- Bernard&#45;&gt;Dance (10) -->
<g id="edge3" class="edge">
<title>Bernard&#45;&gt;Dance (10)</title>
<path fill="none" stroke="black" d="M96.45,-2234.65C107.14,-2221.49 117.68,-2205.69 123.49,-2189.24 146.07,-2125.31 101.86,-1634.27 141.49,-1579.24 154.07,-1561.78 174.17,-1551.08 194.5,-1544.53"/>
<polygon fill="black" stroke="black" points="195.52,-1547.88 204.14,-1541.72 193.56,-1541.16 195.52,-1547.88"/>
<text text-anchor="middle" x="146.49" y="-1583.04" font-family="Times,serif" font-size="14.00">1</text>
</g>
<!-- LancerDePoids (1) -->
<g id="node5" class="node">
<title>LancerDePoids (1)</title>
<ellipse fill="none" stroke="black" cx="265.03" cy="-2304.24" rx="95.58" ry="95.58"/>
<text text-anchor="middle" x="265.03" y="-2300.54" font-family="Times,serif" font-size="14.00">LancerDePoids (1)</text>
</g>
<!-- Bernard&#45;&gt;LancerDePoids (1) -->
<g id="edge4" class="edge">
<title>Bernard&#45;&gt;LancerDePoids (1)</title>
<path fill="none" stroke="black" d="M109.94,-2277.45C125.33,-2280.13 143.07,-2283.21 160.92,-2286.31"/>
<polygon fill="black" stroke="black" points="160.38,-2289.77 170.83,-2288.04 161.58,-2282.88 160.38,-2289.77"/>
<text text-anchor="middle" x="146.49" y="-2288.04" font-family="Times,serif" font-size="14.00">0</text>
</g>
<!-- Laurent -->
<g id="node6" class="node">
<title>Laurent</title>
<ellipse fill="none" stroke="black" cx="61.74" cy="-2394.24" rx="47.39" ry="47.39"/>
<text text-anchor="middle" x="61.74" y="-2390.54" font-family="Times,serif" font-size="14.00">Laurent</text>
</g>
<!-- Laurent&#45;&gt;Gym (1) -->
<g id="edge5" class="edge">
<title>Laurent&#45;&gt;Gym (1)</title>
<path fill="none" stroke="black" d="M73.87,-2440.49C84.96,-2476.45 105.63,-2524.71 141.49,-2552.24 160.01,-2566.46 184.59,-2573.15 206.87,-2576.12"/>
<polygon fill="black" stroke="black" points="206.6,-2579.61 216.92,-2577.24 207.37,-2572.65 206.6,-2579.61"/>
<text text-anchor="middle" x="146.49" y="-2561.04" font-family="Times,serif" font-size="14.00">3</text>
</g>
<!-- Kayak (1) -->
<g id="node7" class="node">
<title>Kayak (1)</title>
<ellipse fill="none" stroke="black" cx="265.03" cy="-2136.24" rx="54.69" ry="54.69"/>
<text text-anchor="middle" x="265.03" y="-2132.54" font-family="Times,serif" font-size="14.00">Kayak (1)</text>
</g>
<!-- Laurent&#45;&gt;Kayak (1) -->
<g id="edge6" class="edge">
<title>Laurent&#45;&gt;Kayak (1)</title>
<path fill="none" stroke="black" d="M98.11,-2363.12C107.86,-2352.69 117.41,-2340.35 123.49,-2327.24 149.13,-2271.93 105.06,-2240.14 141.49,-2191.24 156.18,-2171.53 179.55,-2158.72 201.97,-2150.48"/>
<polygon fill="black" stroke="black" points="203.16,-2153.77 211.49,-2147.22 200.89,-2147.15 203.16,-2153.77"/>
<text text-anchor="middle" x="146.49" y="-2195.04" font-family="Times,serif" font-size="14.00">2</text>
</g>
<!-- Judo (1) -->
<g id="node8" class="node">
<title>Judo (1)</title>
<ellipse fill="none" stroke="black" cx="265.03" cy="-2464.24" rx="46.59" ry="46.59"/>
<text text-anchor="middle" x="265.03" y="-2460.54" font-family="Times,serif" font-size="14.00">Judo (1)</text>
</g>
<!-- Laurent&#45;&gt;Judo (1) -->
<g id="edge7" class="edge">
<title>Laurent&#45;&gt;Judo (1)</title>
<path fill="none" stroke="black" d="M106.92,-2409.61C137.54,-2420.26 178.48,-2434.49 210.89,-2445.76"/>
<polygon fill="black" stroke="black" points="210.06,-2449.18 220.65,-2449.16 212.36,-2442.57 210.06,-2449.18"/>
<text text-anchor="middle" x="146.49" y="-2428.04" font-family="Times,serif" font-size="14.00">1</text>
</g>
<!-- Karate (3) -->
<g id="node9" class="node">
<title>Karate (3)</title>
<ellipse fill="none" stroke="black" cx="265.03" cy="-1834.24" rx="57.69" ry="57.69"/>
<text text-anchor="middle" x="265.03" y="-1830.54" font-family="Times,serif" font-size="14.00">Karate (3)</text>
</g>
<!-- Laurent&#45;&gt;Karate (3) -->
<g id="edge8" class="edge">
<title>Laurent&#45;&gt;Karate (3)</title>
<path fill="none" stroke="black" d="M98.42,-2363.73C108.31,-2353.25 117.86,-2340.72 123.49,-2327.24 151.78,-2259.47 129.13,-2069.64 141.49,-1997.24 143.36,-1986.29 163.04,-1910.29 169.49,-1901.24 178.96,-1887.95 191.93,-1876.35 205.23,-1866.71"/>
<polygon fill="black" stroke="black" points="207.29,-1869.53 213.52,-1860.96 203.31,-1863.78 207.29,-1869.53"/>
<text text-anchor="middle" x="146.49" y="-2001.04" font-family="Times,serif" font-size="14.00">0</text>
</g>
<!-- Gatwick -->
<g id="node10" class="node">
<title>Gatwick</title>
<ellipse fill="none" stroke="black" cx="61.74" cy="-2132.24" rx="48.19" ry="48.19"/>
<text text-anchor="middle" x="61.74" y="-2128.54" font-family="Times,serif" font-size="14.00">Gatwick</text>
</g>
<!-- Gatwick&#45;&gt;Gym (1) -->
<g id="edge9" class="edge">
<title>Gatwick&#45;&gt;Gym (1)</title>
<path fill="none" stroke="black" d="M96.02,-2166.5C106.66,-2179.5 117.29,-2195.09 123.49,-2211.24 160.55,-2307.8 119.62,-2342.16 141.49,-2443.24 149.19,-2478.83 146.35,-2492.12 169.49,-2520.24 180.79,-2533.98 196.32,-2545.24 211.53,-2554.03"/>
<polygon fill="black" stroke="black" points="209.96,-2557.16 220.41,-2558.91 213.33,-2551.03 209.96,-2557.16"/>
<text text-anchor="middle" x="146.49" y="-2493.04" font-family="Times,serif" font-size="14.00">3</text>
</g>
<!-- Gatwick&#45;&gt;LancerDePoids (1) -->
<g id="edge10" class="edge">
<title>Gatwick&#45;&gt;LancerDePoids (1)</title>
<path fill="none" stroke="black" d="M93.02,-2169.14C103.16,-2182.13 114.23,-2197.04 123.49,-2211.24 132.61,-2225.24 129.42,-2232.69 141.49,-2244.24 149.22,-2251.64 158.04,-2258.3 167.32,-2264.24"/>
<polygon fill="black" stroke="black" points="165.59,-2267.29 175.95,-2269.5 169.23,-2261.31 165.59,-2267.29"/>
<text text-anchor="middle" x="146.49" y="-2255.04" font-family="Times,serif" font-size="14.00">2</text>
</g>
<!-- PlancheAVoile (1) -->
<g id="node11" class="node">
<title>PlancheAVoile (1)</title>
<ellipse fill="none" stroke="black" cx="265.03" cy="-1179.24" rx="91.78" ry="91.78"/>
<text text-anchor="middle" x="265.03" y="-1175.54" font-family="Times,serif" font-size="14.00">PlancheAVoile (1)</text>
</g>
<!-- Gatwick&#45;&gt;PlancheAVoile (1) -->
<g id="edge11" class="edge">
<title>Gatwick&#45;&gt;PlancheAVoile (1)</title>
<path fill="none" stroke="black" d="M91.78,-2094.65C104.03,-2076.52 116.95,-2053.85 123.49,-2031.24 136.22,-1987.26 112.56,-1242.73 141.49,-1207.24 147.68,-1199.65 155.47,-1193.86 164.11,-1189.47"/>
<polygon fill="black" stroke="black" points="165.64,-1192.62 173.38,-1185.39 162.82,-1186.21 165.64,-1192.62"/>
<text text-anchor="middle" x="146.49" y="-1211.04" font-family="Times,serif" font-size="14.00">1</text>
</g>
<!-- Basketball (10) -->
<g id="node12" class="node">
<title>Basketball (10)</title>
<ellipse fill="none" stroke="black" cx="265.03" cy="-383.24" rx="81.49" ry="81.49"/>
<text text-anchor="middle" x="265.03" y="-379.54" font-family="Times,serif" font-size="14.00">Basketball (10)</text>
</g>
<!-- Gatwick&#45;&gt;Basketball (10) -->
<g id="edge12" class="edge">
<title>Gatwick&#45;&gt;Basketball (10)</title>
<path fill="none" stroke="black" d="M91.87,-2094.68C104.14,-2076.56 117.06,-2053.88 123.49,-2031.24 145.66,-1953.22 129.63,-651.49 141.49,-571.24 141.9,-568.47 168.04,-476.65 169.49,-474.24 176.33,-462.9 184.95,-452.01 194.18,-441.95"/>
<polygon fill="black" stroke="black" points="196.98,-444.09 201.34,-434.43 191.91,-439.26 196.98,-444.09"/>
<text text-anchor="middle" x="146.49" y="-575.04" font-family="Times,serif" font-size="14.00">0</text>
</g>
<!-- Axel -->
<g id="node13" class="node">
<title>Axel</title>
<ellipse fill="none" stroke="black" cx="61.74" cy="-248.24" rx="30.59" ry="30.59"/>
<text text-anchor="middle" x="61.74" y="-244.54" font-family="Times,serif" font-size="14.00">Axel</text>
</g>
<!-- Axel&#45;&gt;Basketball (10) -->
<g id="edge13" class="edge">
<title>Axel&#45;&gt;Basketball (10)</title>
<path fill="none" stroke="black" d="M88.38,-263.49C99.53,-270.54 112.53,-279.31 123.49,-288.24 132.26,-295.39 132.64,-299.19 141.49,-306.24 155.12,-317.11 170.36,-327.75 185.34,-337.47"/>
<polygon fill="black" stroke="black" points="183.81,-340.65 194.12,-343.09 187.58,-334.75 183.81,-340.65"/>
<text text-anchor="middle" x="146.49" y="-318.04" font-family="Times,serif" font-size="14.00">1</text>
</g>
<!-- Handball (1) -->
<g id="node14" class="node">
<title>Handball (1)</title>
<ellipse fill="none" stroke="black" cx="265.03" cy="-68.24" rx="68.49" ry="68.49"/>
<text text-anchor="middle" x="265.03" y="-64.54" font-family="Times,serif" font-size="14.00">Handball (1)</text>
</g>
<!-- Axel&#45;&gt;Handball (1) -->
<g id="edge14" class="edge">
<title>Axel&#45;&gt;Handball (1)</title>
<path fill="none" stroke="black" d="M89.7,-235.17C101.81,-227.96 115.21,-217.89 123.49,-205.24 145.11,-172.2 116.24,-148.6 141.49,-118.24 153.64,-103.64 170.72,-93.25 188.29,-85.88"/>
<polygon fill="black" stroke="black" points="190.01,-88.96 198.07,-82.09 187.48,-82.44 190.01,-88.96"/>
<text text-anchor="middle" x="146.49" y="-122.04" font-family="Times,serif" font-size="14.00">0</text>
</g>
<!-- Mael -->
<g id="node15" class="node">
<title>Mael</title>
<ellipse fill="none" stroke="black" cx="61.74" cy="-576.24" rx="33.6" ry="33.6"/>
<text text-anchor="middle" x="61.74" y="-572.54" font-family="Times,serif" font-size="14.00">Mael</text>
</g>
<!-- Mael&#45;&gt;Basketball (10) -->
<g id="edge15" class="edge">
<title>Mael&#45;&gt;Basketball (10)</title>
<path fill="none" stroke="black" d="M92.24,-561.67C103.67,-554.6 115.82,-545.05 123.49,-533.24 145.71,-499.04 116.59,-475.56 141.49,-443.24 151.25,-430.58 164.38,-420.42 178.42,-412.33"/>
<polygon fill="black" stroke="black" points="180.13,-415.39 187.26,-407.56 176.8,-409.23 180.13,-415.39"/>
<text text-anchor="middle" x="146.49" y="-447.04" font-family="Times,serif" font-size="14.00">1</text>
</g>
<!-- Natation (2) -->
<g id="node16" class="node">
<title>Natation (2)</title>
<ellipse fill="none" stroke="black" cx="265.03" cy="-876.24" rx="66.89" ry="66.89"/>
<text text-anchor="middle" x="265.03" y="-872.54" font-family="Times,serif" font-size="14.00">Natation (2)</text>
</g>
<!-- Mael&#45;&gt;Natation (2) -->
<g id="edge16" class="edge">
<title>Mael&#45;&gt;Natation (2)</title>
<path fill="none" stroke="black" d="M92.4,-590.71C103.85,-597.76 115.98,-607.33 123.49,-619.24 148.73,-659.3 129.25,-678.5 141.49,-724.24 143.81,-732.94 164.24,-792.94 169.49,-800.24 178.08,-812.19 189.02,-823.28 200.4,-833.09"/>
<polygon fill="black" stroke="black" points="198.39,-835.97 208.32,-839.67 202.86,-830.58 198.39,-835.97"/>
<text text-anchor="middle" x="146.49" y="-757.04" font-family="Times,serif" font-size="14.00">0</text>
</g>
<!-- Martin -->
<g id="node17" class="node">
<title>Martin</title>
<ellipse fill="none" stroke="black" cx="61.74" cy="-482.24" rx="42.49" ry="42.49"/>
<text text-anchor="middle" x="61.74" y="-478.54" font-family="Times,serif" font-size="14.00">Martin</text>
</g>
<!-- Martin&#45;&gt;Basketball (10) -->
<g id="edge17" class="edge">
<title>Martin&#45;&gt;Basketball (10)</title>
<path fill="none" stroke="black" d="M95.58,-456.61C105.01,-448.6 115.03,-439.44 123.49,-430.24 132.76,-420.16 129.9,-412.54 141.49,-405.24 151.42,-398.99 162.65,-394.4 174.18,-391.04"/>
<polygon fill="black" stroke="black" points="175.12,-394.42 183.92,-388.51 173.36,-387.64 175.12,-394.42"/>
<text text-anchor="middle" x="146.49" y="-409.04" font-family="Times,serif" font-size="14.00">1</text>
</g>
<!-- Baseball (1) -->
<g id="node18" class="node">
<title>Baseball (1)</title>
<ellipse fill="none" stroke="black" cx="265.03" cy="-725.24" rx="65.79" ry="65.79"/>
<text text-anchor="middle" x="265.03" y="-721.54" font-family="Times,serif" font-size="14.00">Baseball (1)</text>
</g>
<!-- Martin&#45;&gt;Baseball (1) -->
<g id="edge18" class="edge">
<title>Martin&#45;&gt;Baseball (1)</title>
<path fill="none" stroke="black" d="M97.43,-504.93C107.15,-512.83 116.86,-522.45 123.49,-533.24 141.89,-563.19 127.15,-578.16 141.49,-610.24 150.34,-630.06 154.61,-634.45 169.49,-650.24 179.64,-661.02 191.4,-671.57 203.09,-681.19"/>
<polygon fill="black" stroke="black" points="201.18,-684.14 211.16,-687.69 205.57,-678.69 201.18,-684.14"/>
<text text-anchor="middle" x="146.49" y="-633.04" font-family="Times,serif" font-size="14.00">0</text>
</g>
<!-- Aurelien -->
<g id="node19" class="node">
<title>Aurelien</title>
<ellipse fill="none" stroke="black" cx="61.74" cy="-1088.24" rx="50.09" ry="50.09"/>
<text text-anchor="middle" x="61.74" y="-1084.54" font-family="Times,serif" font-size="14.00">Aurelien</text>
</g>
<!-- Aurelien&#45;&gt;Badminton (20) -->
<g id="edge21" class="edge">
<title>Aurelien&#45;&gt;Badminton (20)</title>
<path fill="none" stroke="black" d="M89.99,-1130.14C100.81,-1147.3 113.13,-1167.5 123.49,-1186.24 145.99,-1226.95 142.2,-1242.58 169.49,-1280.24 177.04,-1290.66 185.83,-1300.94 194.95,-1310.63"/>
<polygon fill="black" stroke="black" points="192.52,-1313.15 201.97,-1317.93 197.56,-1308.3 192.52,-1313.15"/>
<text text-anchor="middle" x="146.49" y="-1254.04" font-family="Times,serif" font-size="14.00">0</text>
</g>
<!-- Aurelien&#45;&gt;Basketball (10) -->
<g id="edge20" class="edge">
<title>Aurelien&#45;&gt;Basketball (10)</title>
<path fill="none" stroke="black" d="M89.07,-1046.14C102,-1023.15 116.3,-993.64 123.49,-965.24 136.7,-913.07 117.28,-529.3 141.49,-481.24 151.69,-460.99 168.22,-443.55 185.88,-429.23"/>
<polygon fill="black" stroke="black" points="188.31,-431.77 194.05,-422.87 184.01,-426.24 188.31,-431.77"/>
<text text-anchor="middle" x="146.49" y="-485.04" font-family="Times,serif" font-size="14.00">1</text>
</g>
<!-- Volley (1) -->
<g id="node20" class="node">
<title>Volley (1)</title>
<ellipse fill="none" stroke="black" cx="265.03" cy="-1015.24" rx="53.89" ry="53.89"/>
<text text-anchor="middle" x="265.03" y="-1011.54" font-family="Times,serif" font-size="14.00">Volley (1)</text>
</g>
<!-- Aurelien&#45;&gt;Volley (1) -->
<g id="edge19" class="edge">
<title>Aurelien&#45;&gt;Volley (1)</title>
<path fill="none" stroke="black" d="M111.11,-1077.95C124.35,-1074.67 138.59,-1070.72 151.49,-1066.24 169.95,-1059.83 189.53,-1051.52 207.09,-1043.48"/>
<polygon fill="black" stroke="black" points="209.03,-1046.44 216.62,-1039.05 206.08,-1040.09 209.03,-1046.44"/>
<text text-anchor="middle" x="146.49" y="-1074.04" font-family="Times,serif" font-size="14.00">2</text>
</g>
<!-- Clotilde -->
<g id="node21" class="node">
<title>Clotilde</title>
<ellipse fill="none" stroke="black" cx="61.74" cy="-1390.24" rx="46.59" ry="46.59"/>
<text text-anchor="middle" x="61.74" y="-1386.54" font-family="Times,serif" font-size="14.00">Clotilde</text>
</g>
<!-- Clotilde&#45;&gt;Dance (10) -->
<g id="edge22" class="edge">
<title>Clotilde&#45;&gt;Dance (10)</title>
<path fill="none" stroke="black" d="M100.6,-1417.33C130.42,-1438.66 172.48,-1468.75 206.46,-1493.06"/>
<polygon fill="black" stroke="black" points="204.74,-1496.13 214.91,-1499.1 208.81,-1490.44 204.74,-1496.13"/>
<text text-anchor="middle" x="146.49" y="-1458.04" font-family="Times,serif" font-size="14.00">1</text>
</g>
<!-- Clotilde&#45;&gt;Natation (2) -->
<g id="edge23" class="edge">
<title>Clotilde&#45;&gt;Natation (2)</title>
<path fill="none" stroke="black" d="M91.48,-1353.8C103.67,-1336.22 116.63,-1314.22 123.49,-1292.24 135.27,-1254.55 119.85,-970.28 141.49,-937.24 153.13,-919.48 171.57,-906.68 190.66,-897.55"/>
<polygon fill="black" stroke="black" points="192.35,-900.63 200.05,-893.35 189.49,-894.23 192.35,-900.63"/>
<text text-anchor="middle" x="146.49" y="-941.04" font-family="Times,serif" font-size="14.00">0</text>
</g>
<!-- Basil -->
<g id="node22" class="node">
<title>Basil</title>
<ellipse fill="none" stroke="black" cx="61.74" cy="-1988.24" rx="33.6" ry="33.6"/>
<text text-anchor="middle" x="61.74" y="-1984.54" font-family="Times,serif" font-size="14.00">Basil</text>
</g>
<!-- Basil&#45;&gt;Kayak (1) -->
<g id="edge27" class="edge">
<title>Basil&#45;&gt;Kayak (1)</title>
<path fill="none" stroke="black" d="M83.76,-2014.01C96.58,-2030.7 112.55,-2053.32 123.49,-2075.24 134.97,-2098.26 121.04,-2114.64 141.49,-2130.24 158.23,-2143.01 180.3,-2146.82 201.1,-2146.67"/>
<polygon fill="black" stroke="black" points="201.31,-2150.17 211.18,-2146.31 201.06,-2143.17 201.31,-2150.17"/>
<text text-anchor="middle" x="146.49" y="-2139.04" font-family="Times,serif" font-size="14.00">1</text>
</g>
<!-- Basil&#45;&gt;Judo (1) -->
<g id="edge26" class="edge">
<title>Basil&#45;&gt;Judo (1)</title>
<path fill="none" stroke="black" d="M85.31,-2012.86C98.91,-2029.26 115.16,-2052.01 123.49,-2075.24 174.05,-2216.3 78.68,-2290.05 169.49,-2409.24 180.36,-2423.51 196.08,-2434.74 211.59,-2443.23"/>
<polygon fill="black" stroke="black" points="210.17,-2446.43 220.66,-2447.91 213.38,-2440.21 210.17,-2446.43"/>
<text text-anchor="middle" x="146.49" y="-2385.04" font-family="Times,serif" font-size="14.00">2</text>
</g>
<!-- Basil&#45;&gt;Karate (3) -->
<g id="edge24" class="edge">
<title>Basil&#45;&gt;Karate (3)</title>
<path fill="none" stroke="black" d="M89.87,-1969.48C100.44,-1962.05 112.62,-1953.36 123.49,-1945.24 136.17,-1935.78 140.19,-1934.32 151.49,-1923.24 160.51,-1914.4 160.25,-1909.86 169.49,-1901.24 180.95,-1890.55 194.2,-1880.16 207.08,-1870.87"/>
<polygon fill="black" stroke="black" points="209.32,-1873.57 215.46,-1864.94 205.28,-1867.86 209.32,-1873.57"/>
<text text-anchor="middle" x="146.49" y="-1935.04" font-family="Times,serif" font-size="14.00">4</text>
</g>
<!-- Basil&#45;&gt;Natation (2) -->
<g id="edge28" class="edge">
<title>Basil&#45;&gt;Natation (2)</title>
<path fill="none" stroke="black" d="M92.99,-1974.49C104.68,-1967.51 116.83,-1957.8 123.49,-1945.24 146.86,-1901.16 129.03,-1095.56 141.49,-1047.24 143.87,-1038 148.14,-1037.18 151.49,-1028.24 163.67,-995.74 150.96,-981.6 169.49,-952.24 177.44,-939.66 188.2,-928.23 199.63,-918.27"/>
<polygon fill="black" stroke="black" points="202.17,-920.71 207.61,-911.62 197.69,-915.33 202.17,-920.71"/>
<text text-anchor="middle" x="146.49" y="-1051.04" font-family="Times,serif" font-size="14.00">0</text>
</g>
<!-- Football (3) -->
<g id="node23" class="node">
<title>Football (3)</title>
<ellipse fill="none" stroke="black" cx="265.03" cy="-1694.24" rx="63.89" ry="63.89"/>
<text text-anchor="middle" x="265.03" y="-1690.54" font-family="Times,serif" font-size="14.00">Football (3)</text>
</g>
<!-- Basil&#45;&gt;Football (3) -->
<g id="edge25" class="edge">
<title>Basil&#45;&gt;Football (3)</title>
<path fill="none" stroke="black" d="M92.79,-1974.02C104.31,-1967 116.37,-1957.4 123.49,-1945.24 162.31,-1878.91 101.23,-1838.72 141.49,-1773.24 154.54,-1752.02 175.67,-1735.43 196.74,-1723.06"/>
<polygon fill="black" stroke="black" points="198.73,-1725.96 205.74,-1718.02 195.31,-1719.85 198.73,-1725.96"/>
<text text-anchor="middle" x="146.49" y="-1777.04" font-family="Times,serif" font-size="14.00">3</text>
</g>
<!-- Floriane -->
<g id="node24" class="node">
<title>Floriane</title>
<ellipse fill="none" stroke="black" cx="61.74" cy="-677.24" rx="49.29" ry="49.29"/>
<text text-anchor="middle" x="61.74" y="-673.54" font-family="Times,serif" font-size="14.00">Floriane</text>
</g>
<!-- Floriane&#45;&gt;Karate (3) -->
<g id="edge29" class="edge">
<title>Floriane&#45;&gt;Karate (3)</title>
<path fill="none" stroke="black" d="M96.89,-712.2C107.47,-725.27 117.84,-740.93 123.49,-757.24 142.24,-811.38 108.46,-1741.44 141.49,-1788.24 154.61,-1806.84 176.23,-1817.93 197.68,-1824.53"/>
<polygon fill="black" stroke="black" points="196.92,-1827.95 207.49,-1827.26 198.79,-1821.21 196.92,-1827.95"/>
<text text-anchor="middle" x="146.49" y="-1803.04" font-family="Times,serif" font-size="14.00">4</text>
</g>
<!-- Floriane&#45;&gt;PlancheAVoile (1) -->
<g id="edge30" class="edge">
<title>Floriane&#45;&gt;PlancheAVoile (1)</title>
<path fill="none" stroke="black" d="M96.61,-712.3C107.18,-725.38 117.6,-741.02 123.49,-757.24 137.92,-796.97 116.11,-1103.44 141.49,-1137.24 147.94,-1145.83 156.24,-1152.68 165.48,-1158.13"/>
<polygon fill="black" stroke="black" points="164.13,-1161.37 174.6,-1162.94 167.39,-1155.18 164.13,-1161.37"/>
<text text-anchor="middle" x="146.49" y="-1152.04" font-family="Times,serif" font-size="14.00">3</text>
</g>
<!-- Floriane&#45;&gt;Natation (2) -->
<g id="edge33" class="edge">
<title>Floriane&#45;&gt;Natation (2)</title>
<path fill="none" stroke="black" d="M93.09,-715.68C113.61,-740.77 141.89,-773.67 169.49,-800.24 179.97,-810.33 191.67,-820.51 203.18,-829.99"/>
<polygon fill="black" stroke="black" points="201.13,-832.84 211.09,-836.44 205.55,-827.41 201.13,-832.84"/>
<text text-anchor="middle" x="146.49" y="-786.04" font-family="Times,serif" font-size="14.00">0</text>
</g>
<!-- Floriane&#45;&gt;Baseball (1) -->
<g id="edge32" class="edge">
<title>Floriane&#45;&gt;Baseball (1)</title>
<path fill="none" stroke="black" d="M110.58,-668.96C123.94,-668 138.39,-668.26 151.49,-671.24 167.41,-674.87 183.71,-681.04 198.79,-687.94"/>
<polygon fill="black" stroke="black" points="197.47,-691.19 208.01,-692.31 200.47,-684.86 197.47,-691.19"/>
<text text-anchor="middle" x="146.49" y="-675.04" font-family="Times,serif" font-size="14.00">1</text>
</g>
<!-- Cricket (1) -->
<g id="node25" class="node">
<title>Cricket (1)</title>
<ellipse fill="none" stroke="black" cx="265.03" cy="-214.24" rx="59.59" ry="59.59"/>
<text text-anchor="middle" x="265.03" y="-210.54" font-family="Times,serif" font-size="14.00">Cricket (1)</text>
</g>
<!-- Floriane&#45;&gt;Cricket (1) -->
<g id="edge31" class="edge">
<title>Floriane&#45;&gt;Cricket (1)</title>
<path fill="none" stroke="black" d="M101.93,-648.37C110.53,-639.99 118.54,-630.13 123.49,-619.24 142.08,-578.34 109.14,-246.43 141.49,-215.24 156.03,-201.22 176.65,-197.46 196.83,-198.28"/>
<polygon fill="black" stroke="black" points="196.75,-201.79 206.99,-199.07 197.28,-194.81 196.75,-201.79"/>
<text text-anchor="middle" x="146.49" y="-219.04" font-family="Times,serif" font-size="14.00">2</text>
</g>
<!-- Skateboard (1) -->
<g id="node26" class="node">
<title>Skateboard (1)</title>
<ellipse fill="none" stroke="black" cx="265.03" cy="-562.24" rx="79.09" ry="79.09"/>
<text text-anchor="middle" x="265.03" y="-558.54" font-family="Times,serif" font-size="14.00">Skateboard (1)</text>
</g>
<!-- Floriane&#45;&gt;Skateboard (1) -->
<g id="edge34" class="edge">
<title>Floriane&#45;&gt;Skateboard (1)</title>
<path fill="none" stroke="black" d="M99.06,-644.45C107.35,-636.46 115.94,-627.75 123.49,-619.24 132.34,-609.27 130.45,-602.72 141.49,-595.24 152.17,-588.01 164.39,-582.36 176.86,-577.94"/>
<polygon fill="black" stroke="black" points="178.03,-581.25 186.44,-574.8 175.84,-574.59 178.03,-581.25"/>
<text text-anchor="middle" x="146.49" y="-599.04" font-family="Times,serif" font-size="14.00">0</text>
</g>
<!-- Alexis -->
<g id="node27" class="node">
<title>Alexis</title>
<ellipse fill="none" stroke="black" cx="61.74" cy="-1898.24" rx="38.19" ry="38.19"/>
<text text-anchor="middle" x="61.74" y="-1894.54" font-family="Times,serif" font-size="14.00">Alexis</text>
</g>
<!-- Alexis&#45;&gt;Kayak (1) -->
<g id="edge38" class="edge">
<title>Alexis&#45;&gt;Kayak (1)</title>
<path fill="none" stroke="black" d="M95.58,-1916.42C106.19,-1923.95 116.9,-1933.65 123.49,-1945.24 156.03,-2002.46 100.41,-2040.81 141.49,-2092.24 156.11,-2110.55 178.99,-2121.25 201.03,-2127.49"/>
<polygon fill="black" stroke="black" points="200.18,-2130.89 210.73,-2129.99 201.92,-2124.11 200.18,-2130.89"/>
<text text-anchor="middle" x="146.49" y="-2105.04" font-family="Times,serif" font-size="14.00">1</text>
</g>
<!-- Alexis&#45;&gt;Karate (3) -->
<g id="edge35" class="edge">
<title>Alexis&#45;&gt;Karate (3)</title>
<path fill="none" stroke="black" d="M99.6,-1905.02C115.78,-1906.69 134.85,-1906.88 151.49,-1902.24 171.99,-1896.53 192.49,-1885.96 210.27,-1874.82"/>
<polygon fill="black" stroke="black" points="212.26,-1877.7 218.76,-1869.33 208.46,-1871.82 212.26,-1877.7"/>
<text text-anchor="middle" x="146.49" y="-1908.04" font-family="Times,serif" font-size="14.00">4</text>
</g>
<!-- Alexis&#45;&gt;Natation (2) -->
<g id="edge36" class="edge">
<title>Alexis&#45;&gt;Natation (2)</title>
<path fill="none" stroke="black" d="M81.41,-1865.24C95.94,-1837.62 115.03,-1796.67 123.49,-1758.24 159.11,-1596.52 104.18,-1174.59 141.49,-1013.24 141.91,-1011.43 168.34,-953.71 169.49,-952.24 178.53,-940.64 189.69,-929.7 201.12,-919.94"/>
<polygon fill="black" stroke="black" points="203.58,-922.45 209.06,-913.38 199.12,-917.05 203.58,-922.45"/>
<text text-anchor="middle" x="146.49" y="-1017.04" font-family="Times,serif" font-size="14.00">3</text>
</g>
<!-- Alexis&#45;&gt;Football (3) -->
<g id="edge37" class="edge">
<title>Alexis&#45;&gt;Football (3)</title>
<path fill="none" stroke="black" d="M76.21,-1862.51C92.8,-1820.15 121.26,-1753.05 141.49,-1735.24 155.83,-1722.62 174.2,-1713.85 192.33,-1707.78"/>
<polygon fill="black" stroke="black" points="193.54,-1711.07 202.05,-1704.76 191.46,-1704.38 193.54,-1711.07"/>
<text text-anchor="middle" x="146.49" y="-1739.04" font-family="Times,serif" font-size="14.00">2</text>
</g>
<!-- Athletisme (1) -->
<g id="node28" class="node">
<title>Athletisme (1)</title>
<ellipse fill="none" stroke="black" cx="265.03" cy="-1987.24" rx="76.89" ry="76.89"/>
<text text-anchor="middle" x="265.03" y="-1983.54" font-family="Times,serif" font-size="14.00">Athletisme (1)</text>
</g>
<!-- Alexis&#45;&gt;Athletisme (1) -->
<g id="edge39" class="edge">
<title>Alexis&#45;&gt;Athletisme (1)</title>
<path fill="none" stroke="black" d="M95.41,-1917.37C105.74,-1924.87 116.32,-1934.32 123.49,-1945.24 141.34,-1972.47 115.8,-1996.25 141.49,-2016.24 154.56,-2026.42 170.63,-2028.03 186.78,-2025.25"/>
<polygon fill="black" stroke="black" points="187.83,-2028.6 196.82,-2023 186.29,-2021.77 187.83,-2028.6"/>
<text text-anchor="middle" x="146.49" y="-2025.04" font-family="Times,serif" font-size="14.00">0</text>
</g>
<!-- Angele -->
<g id="node29" class="node">
<title>Angele</title>
<ellipse fill="none" stroke="black" cx="61.74" cy="-808.24" rx="42.49" ry="42.49"/>
<text text-anchor="middle" x="61.74" y="-804.54" font-family="Times,serif" font-size="14.00">Angele</text>
</g>
<!-- Angele&#45;&gt;Natation (2) -->
<g id="edge40" class="edge">
<title>Angele&#45;&gt;Natation (2)</title>
<path fill="none" stroke="black" d="M102.03,-821.52C127.53,-830.13 161.53,-841.62 191.79,-851.84"/>
<polygon fill="black" stroke="black" points="190.88,-855.23 201.47,-855.11 193.12,-848.59 190.88,-855.23"/>
<text text-anchor="middle" x="146.49" y="-842.04" font-family="Times,serif" font-size="14.00">0</text>
</g>
<!-- Florian -->
<g id="node30" class="node">
<title>Florian</title>
<ellipse fill="none" stroke="black" cx="61.74" cy="-912.24" rx="44.39" ry="44.39"/>
<text text-anchor="middle" x="61.74" y="-908.54" font-family="Times,serif" font-size="14.00">Florian</text>
</g>
<!-- Florian&#45;&gt;Natation (2) -->
<g id="edge41" class="edge">
<title>Florian&#45;&gt;Natation (2)</title>
<path fill="none" stroke="black" d="M96.26,-884.46C109.51,-875.18 125.4,-866 141.49,-861.24 156.98,-856.67 173.97,-856.08 190.23,-857.54"/>
<polygon fill="black" stroke="black" points="189.91,-861.03 200.24,-858.69 190.71,-854.07 189.91,-861.03"/>
<text text-anchor="middle" x="146.49" y="-865.04" font-family="Times,serif" font-size="14.00">0</text>
</g>
<!-- Caroline -->
<g id="node31" class="node">
<title>Caroline</title>
<ellipse fill="none" stroke="black" cx="61.74" cy="-146.24" rx="50.09" ry="50.09"/>
<text text-anchor="middle" x="61.74" y="-142.54" font-family="Times,serif" font-size="14.00">Caroline</text>
</g>
<!-- Caroline&#45;&gt;Basketball (10) -->
<g id="edge42" class="edge">
<title>Caroline&#45;&gt;Basketball (10)</title>
<path fill="none" stroke="black" d="M100.08,-178.49C108.72,-187.42 117.21,-197.6 123.49,-208.24 137.64,-232.22 126.84,-244.57 141.49,-268.24 154.98,-290.03 173.64,-310.41 192.33,-327.78"/>
<polygon fill="black" stroke="black" points="190.01,-330.4 199.77,-334.53 194.72,-325.22 190.01,-330.4"/>
<text text-anchor="middle" x="146.49" y="-284.04" font-family="Times,serif" font-size="14.00">0</text>
</g>
<!-- Caroline&#45;&gt;Cricket (1) -->
<g id="edge43" class="edge">
<title>Caroline&#45;&gt;Cricket (1)</title>
<path fill="none" stroke="black" d="M110.88,-136.03C124.25,-134.91 138.62,-135.35 151.49,-139.24 172.44,-145.59 193.06,-157.26 210.81,-169.54"/>
<polygon fill="black" stroke="black" points="209.11,-172.62 219.28,-175.59 213.18,-166.93 209.11,-172.62"/>
<text text-anchor="middle" x="146.49" y="-143.04" font-family="Times,serif" font-size="14.00">0</text>
</g>
<!-- Anasthasia -->
<g id="node32" class="node">
<title>Anasthasia</title>
<ellipse fill="none" stroke="black" cx="61.74" cy="-359.24" rx="61.99" ry="61.99"/>
<text text-anchor="middle" x="61.74" y="-355.54" font-family="Times,serif" font-size="14.00">Anasthasia</text>
</g>
<!-- Anasthasia&#45;&gt;Basketball (10) -->
<g id="edge44" class="edge">
<title>Anasthasia&#45;&gt;Basketball (10)</title>
<path fill="none" stroke="black" d="M123.41,-364.3C132.82,-365.2 142.42,-366.19 151.49,-367.24 158.92,-368.11 166.61,-369.06 174.33,-370.07"/>
<polygon fill="black" stroke="black" points="174.1,-373.57 184.48,-371.42 175.02,-366.63 174.1,-373.57"/>
<text text-anchor="middle" x="146.49" y="-371.04" font-family="Times,serif" font-size="14.00">0</text>
</g>
<!-- Anasthasia&#45;&gt;Cricket (1) -->
<g id="edge45" class="edge">
<title>Anasthasia&#45;&gt;Cricket (1)</title>
<path fill="none" stroke="black" d="M106.01,-316.02C112.77,-307.38 118.98,-297.96 123.49,-288.24 144.52,-242.9 103.43,-209.63 141.49,-177.24 159.71,-161.74 184.28,-165.82 206.64,-175.76"/>
<polygon fill="black" stroke="black" points="205.2,-178.95 215.73,-180.16 208.25,-172.65 205.2,-178.95"/>
<text text-anchor="middle" x="146.49" y="-181.04" font-family="Times,serif" font-size="14.00">0</text>
</g>
<!-- Charlie -->
<g id="node33" class="node">
<title>Charlie</title>
<ellipse fill="none" stroke="black" cx="61.74" cy="-1239.24" rx="44.39" ry="44.39"/>
<text text-anchor="middle" x="61.74" y="-1235.54" font-family="Times,serif" font-size="14.00">Charlie</text>
</g>
<!-- Charlie&#45;&gt;Badminton (20) -->
<g id="edge51" class="edge">
<title>Charlie&#45;&gt;Badminton (20)</title>
<path fill="none" stroke="black" d="M100.22,-1261.3C116.17,-1270.89 134.89,-1282.38 151.49,-1293.24 163.58,-1301.15 176.25,-1309.74 188.54,-1318.24"/>
<polygon fill="black" stroke="black" points="186.77,-1321.27 196.98,-1324.1 190.76,-1315.52 186.77,-1321.27"/>
<text text-anchor="middle" x="146.49" y="-1297.04" font-family="Times,serif" font-size="14.00">0</text>
</g>
<!-- Charlie&#45;&gt;Dance (10) -->
<g id="edge49" class="edge">
<title>Charlie&#45;&gt;Dance (10)</title>
<path fill="none" stroke="black" d="M89.06,-1274.22C101.03,-1291.53 114.49,-1313.18 123.49,-1334.24 136.79,-1365.37 129.85,-1376.46 141.49,-1408.24 143.88,-1414.78 165.02,-1458.92 169.49,-1464.24 179.4,-1476.05 191.69,-1486.97 204.08,-1496.52"/>
<polygon fill="black" stroke="black" points="202.11,-1499.41 212.22,-1502.58 206.29,-1493.8 202.11,-1499.41"/>
<text text-anchor="middle" x="146.49" y="-1433.04" font-family="Times,serif" font-size="14.00">1</text>
</g>
<!-- Charlie&#45;&gt;Natation (2) -->
<g id="edge48" class="edge">
<title>Charlie&#45;&gt;Natation (2)</title>
<path fill="none" stroke="black" d="M90.96,-1205.65C103.19,-1189.12 116.34,-1168.26 123.49,-1147.24 141.29,-1094.93 104.69,-940.46 141.49,-899.24 153.36,-885.95 170.27,-878.83 187.75,-875.28"/>
<polygon fill="black" stroke="black" points="188.78,-878.66 198.08,-873.59 187.64,-871.75 188.78,-878.66"/>
<text text-anchor="middle" x="146.49" y="-903.04" font-family="Times,serif" font-size="14.00">2</text>
</g>
<!-- Charlie&#45;&gt;Volley (1) -->
<g id="edge46" class="edge">
<title>Charlie&#45;&gt;Volley (1)</title>
<path fill="none" stroke="black" d="M86.86,-1202.69C117.94,-1155.59 168.18,-1079.55 169.49,-1078.24 181.14,-1066.57 195.27,-1055.79 209.02,-1046.58"/>
<polygon fill="black" stroke="black" points="211.03,-1049.45 217.5,-1041.05 207.21,-1043.58 211.03,-1049.45"/>
<text text-anchor="middle" x="146.49" y="-1122.04" font-family="Times,serif" font-size="14.00">2</text>
</g>
<!-- Charlie&#45;&gt;Football (3) -->
<g id="edge50" class="edge">
<title>Charlie&#45;&gt;Football (3)</title>
<path fill="none" stroke="black" d="M90.36,-1273.17C102.78,-1290.41 116.26,-1312.31 123.49,-1334.24 141.9,-1390.09 113.96,-1546.28 141.49,-1598.24 154.67,-1623.13 177.42,-1643.66 199.77,-1659.26"/>
<polygon fill="black" stroke="black" points="198.04,-1662.31 208.29,-1664.99 201.95,-1656.5 198.04,-1662.31"/>
<text text-anchor="middle" x="146.49" y="-1617.04" font-family="Times,serif" font-size="14.00">0</text>
</g>
<!-- Charlie&#45;&gt;Cricket (1) -->
<g id="edge47" class="edge">
<title>Charlie&#45;&gt;Cricket (1)</title>
<path fill="none" stroke="black" d="M91.45,-1205.81C103.8,-1189.32 116.89,-1168.44 123.49,-1147.24 138.32,-1099.6 111.04,-288.78 141.49,-249.24 154.37,-232.52 174.66,-223.4 195.06,-218.54"/>
<polygon fill="black" stroke="black" points="195.96,-221.93 205.05,-216.48 194.55,-215.07 195.96,-221.93"/>
<text text-anchor="middle" x="146.49" y="-253.04" font-family="Times,serif" font-size="14.00">2</text>
</g>
<!-- Bertrand -->
<g id="node34" class="node">
<title>Bertrand</title>
<ellipse fill="none" stroke="black" cx="61.74" cy="-1696.24" rx="52.79" ry="52.79"/>
<text text-anchor="middle" x="61.74" y="-1692.54" font-family="Times,serif" font-size="14.00">Bertrand</text>
</g>
<!-- Bertrand&#45;&gt;Badminton (20) -->
<g id="edge58" class="edge">
<title>Bertrand&#45;&gt;Badminton (20)</title>
<path fill="none" stroke="black" d="M87.3,-1649.95C100.29,-1623.29 115.22,-1588.72 123.49,-1556.24 134.56,-1512.79 108.39,-1385.51 141.49,-1355.24 151.47,-1346.12 163.95,-1342.51 177.1,-1342.26"/>
<polygon fill="black" stroke="black" points="177.12,-1345.76 187.25,-1342.68 177.41,-1338.77 177.12,-1345.76"/>
<text text-anchor="middle" x="146.49" y="-1359.04" font-family="Times,serif" font-size="14.00">0</text>
</g>
<!-- Bertrand&#45;&gt;Dance (10) -->
<g id="edge54" class="edge">
<title>Bertrand&#45;&gt;Dance (10)</title>
<path fill="none" stroke="black" d="M75.53,-1645.14C86.91,-1610.96 107.21,-1568.18 141.49,-1545.24 156.77,-1535.02 175.62,-1530.43 193.92,-1528.83"/>
<polygon fill="black" stroke="black" points="194.23,-1532.32 204,-1528.24 193.82,-1525.33 194.23,-1532.32"/>
<text text-anchor="middle" x="146.49" y="-1549.04" font-family="Times,serif" font-size="14.00">2</text>
</g>
<!-- Bertrand&#45;&gt;LancerDePoids (1) -->
<g id="edge52" class="edge">
<title>Bertrand&#45;&gt;LancerDePoids (1)</title>
<path fill="none" stroke="black" d="M85.73,-1743.18C99.32,-1773.3 115.4,-1813.66 123.49,-1851.24 140.12,-1928.46 105.47,-2135.94 141.49,-2206.24 149.66,-2222.2 161.73,-2236.43 175.16,-2248.76"/>
<polygon fill="black" stroke="black" points="172.91,-2251.45 182.74,-2255.42 177.53,-2246.19 172.91,-2251.45"/>
<text text-anchor="middle" x="146.49" y="-2224.04" font-family="Times,serif" font-size="14.00">4</text>
</g>
<!-- Bertrand&#45;&gt;Kayak (1) -->
<g id="edge55" class="edge">
<title>Bertrand&#45;&gt;Kayak (1)</title>
<path fill="none" stroke="black" d="M85.31,-1743.65C98.64,-1773.78 114.6,-1813.99 123.49,-1851.24 143.07,-1933.32 108.69,-1962.5 141.49,-2040.24 153.9,-2069.66 180.96,-2092.37 206.5,-2108.3"/>
<polygon fill="black" stroke="black" points="204.7,-2111.31 215.08,-2113.45 208.3,-2105.3 204.7,-2111.31"/>
<text text-anchor="middle" x="146.49" y="-2062.04" font-family="Times,serif" font-size="14.00">1</text>
</g>
<!-- Bertrand&#45;&gt;Karate (3) -->
<g id="edge56" class="edge">
<title>Bertrand&#45;&gt;Karate (3)</title>
<path fill="none" stroke="black" d="M71.78,-1748.26C81.63,-1787.57 101.66,-1838.93 141.49,-1864.24 160.4,-1876.27 183.78,-1873.89 205.02,-1866.69"/>
<polygon fill="black" stroke="black" points="206.48,-1869.88 214.61,-1863.09 204.02,-1863.33 206.48,-1869.88"/>
<text text-anchor="middle" x="146.49" y="-1872.04" font-family="Times,serif" font-size="14.00">0</text>
</g>
<!-- Bertrand&#45;&gt;Baseball (1) -->
<g id="edge53" class="edge">
<title>Bertrand&#45;&gt;Baseball (1)</title>
<path fill="none" stroke="black" d="M88,-1650.46C101.3,-1623.83 116.3,-1589.12 123.49,-1556.24 128.54,-1533.15 124.59,-721.79 141.49,-705.24 155.92,-691.12 176.19,-690.01 196.11,-694.28"/>
<polygon fill="black" stroke="black" points="195.27,-697.68 205.83,-696.77 197.01,-690.9 195.27,-697.68"/>
<text text-anchor="middle" x="146.49" y="-709.04" font-family="Times,serif" font-size="14.00">3</text>
</g>
<!-- Bertrand&#45;&gt;Football (3) -->
<g id="edge57" class="edge">
<title>Bertrand&#45;&gt;Football (3)</title>
<path fill="none" stroke="black" d="M114.58,-1695.73C137.82,-1695.5 165.64,-1695.22 190.94,-1694.97"/>
<polygon fill="black" stroke="black" points="191.28,-1698.47 201.24,-1694.87 191.21,-1691.47 191.28,-1698.47"/>
<text text-anchor="middle" x="146.49" y="-1700.04" font-family="Times,serif" font-size="14.00">0</text>
</g>
<!-- Dupont -->
<g id="node35" class="node">
<title>Dupont</title>
<ellipse fill="none" stroke="black" cx="61.74" cy="-1502.24" rx="44.69" ry="44.69"/>
<text text-anchor="middle" x="61.74" y="-1498.54" font-family="Times,serif" font-size="14.00">Dupont</text>
</g>
<!-- Dupont&#45;&gt;Badminton (20) -->
<g id="edge64" class="edge">
<title>Dupont&#45;&gt;Badminton (20)</title>
<path fill="none" stroke="black" d="M98.69,-1476.57C108.22,-1468 117.5,-1457.68 123.49,-1446.24 136.91,-1420.6 119.65,-1336.24 141.49,-1317.24 156.24,-1304.4 174.49,-1305.88 192.35,-1313.68"/>
<polygon fill="black" stroke="black" points="191.12,-1316.97 201.63,-1318.28 194.23,-1310.7 191.12,-1316.97"/>
<text text-anchor="middle" x="146.49" y="-1321.04" font-family="Times,serif" font-size="14.00">0</text>
</g>
<!-- Dupont&#45;&gt;Dance (10) -->
<g id="edge61" class="edge">
<title>Dupont&#45;&gt;Dance (10)</title>
<path fill="none" stroke="black" d="M106.69,-1503.16C121.02,-1503.88 136.98,-1505.11 151.49,-1507.24 166.03,-1509.38 181.44,-1512.5 196.05,-1515.86"/>
<polygon fill="black" stroke="black" points="195.47,-1519.32 206.01,-1518.22 197.08,-1512.51 195.47,-1519.32"/>
<text text-anchor="middle" x="146.49" y="-1511.04" font-family="Times,serif" font-size="14.00">2</text>
</g>
<!-- Dupont&#45;&gt;Karate (3) -->
<g id="edge59" class="edge">
<title>Dupont&#45;&gt;Karate (3)</title>
<path fill="none" stroke="black" d="M84.71,-1540.79C98.25,-1566.44 114.66,-1601.35 123.49,-1634.24 134.6,-1675.63 110.76,-1796.37 141.49,-1826.24 156.33,-1840.68 177.55,-1845.31 198.17,-1845.5"/>
<polygon fill="black" stroke="black" points="198.3,-1849 208.21,-1845.26 198.13,-1842 198.3,-1849"/>
<text text-anchor="middle" x="146.49" y="-1836.04" font-family="Times,serif" font-size="14.00">4</text>
</g>
<!-- Dupont&#45;&gt;Basketball (10) -->
<g id="edge60" class="edge">
<title>Dupont&#45;&gt;Basketball (10)</title>
<path fill="none" stroke="black" d="M99.25,-1477.28C108.91,-1468.66 118.13,-1458.15 123.49,-1446.24 165.75,-1352.29 112.23,-618.02 141.49,-519.24 148.18,-496.66 154.67,-492.55 169.49,-474.24 177.71,-464.08 187,-453.91 196.46,-444.23"/>
<polygon fill="black" stroke="black" points="199.14,-446.5 203.71,-436.94 194.18,-441.56 199.14,-446.5"/>
<text text-anchor="middle" x="146.49" y="-523.04" font-family="Times,serif" font-size="14.00">3</text>
</g>
<!-- Dupont&#45;&gt;Natation (2) -->
<g id="edge62" class="edge">
<title>Dupont&#45;&gt;Natation (2)</title>
<path fill="none" stroke="black" d="M99.11,-1477.21C108.77,-1468.6 118.02,-1458.1 123.49,-1446.24 167.35,-1351.13 94.93,-1069.07 141.49,-975.24 153.83,-950.37 175.66,-929.65 197.51,-913.71"/>
<polygon fill="black" stroke="black" points="199.7,-916.45 205.86,-907.84 195.67,-910.73 199.7,-916.45"/>
<text text-anchor="middle" x="146.49" y="-979.04" font-family="Times,serif" font-size="14.00">1</text>
</g>
<!-- Dupont&#45;&gt;Football (3) -->
<g id="edge63" class="edge">
<title>Dupont&#45;&gt;Football (3)</title>
<path fill="none" stroke="black" d="M79.28,-1543.84C92.53,-1572.79 113.51,-1610.66 141.49,-1636.24 156.86,-1650.3 176.26,-1661.58 195.05,-1670.31"/>
<polygon fill="black" stroke="black" points="193.65,-1673.51 204.21,-1674.39 196.5,-1667.12 193.65,-1673.51"/>
<text text-anchor="middle" x="146.49" y="-1648.04" font-family="Times,serif" font-size="14.00">0</text>
</g>
</g>
</svg>
