<?xml version="1.0" encoding="UTF-8" standalone="no"?>
<!DOCTYPE svg PUBLIC "-//W3C//DTD SVG 1.1//EN"
 "http://www.w3.org/Graphics/SVG/1.1/DTD/svg11.dtd">
<!-- Generated by graphviz version 2.43.20190912.0211 (20190912.0211)
 -->
<!-- Title: finite_state_machine Pages: 1 -->
<svg width="371pt" height="454pt"
 viewBox="0.00 0.00 371.39 454.00" xmlns="http://www.w3.org/2000/svg" xmlns:xlink="http://www.w3.org/1999/xlink">
<g id="graph0" class="graph" transform="scale(1 1) rotate(0) translate(4 450)">
<title>finite_state_machine</title>
<polygon fill="white" stroke="transparent" points="-4,4 -4,-450 367.39,-450 367.39,4 -4,4"/>
<!-- 4 -->
<g id="node1" class="node">
<title>4</title>
<ellipse fill="none" stroke="black" cx="229.19" cy="-237" rx="18" ry="18"/>
<text text-anchor="middle" x="229.19" y="-233.3" font-family="Times,serif" font-size="14.00">4</text>
</g>
<!-- 999 -->
<g id="node2" class="node">
<title>999</title>
<ellipse fill="none" stroke="black" cx="334.79" cy="-202" rx="28.7" ry="28.7"/>
<text text-anchor="middle" x="334.79" y="-198.3" font-family="Times,serif" font-size="14.00">999</text>
</g>
<!-- 4&#45;&gt;999 -->
<g id="edge1" class="edge">
<title>4&#45;&gt;999</title>
<path fill="none" stroke="black" d="M246.38,-231.53C259.99,-226.93 279.95,-220.19 297.36,-214.31"/>
<polygon fill="black" stroke="black" points="298.89,-217.48 307.25,-210.97 296.65,-210.85 298.89,-217.48"/>
<text text-anchor="middle" x="276.69" y="-227.8" font-family="Times,serif" font-size="14.00">0/1</text>
</g>
<!-- 5 -->
<g id="node3" class="node">
<title>5</title>
<ellipse fill="none" stroke="black" cx="229.19" cy="-313" rx="18" ry="18"/>
<text text-anchor="middle" x="229.19" y="-309.3" font-family="Times,serif" font-size="14.00">5</text>
</g>
<!-- 5&#45;&gt;999 -->
<g id="edge2" class="edge">
<title>5&#45;&gt;999</title>
<path fill="none" stroke="black" d="M242.08,-300.27C257.96,-283.25 286.54,-252.63 307.58,-230.08"/>
<polygon fill="black" stroke="black" points="310.42,-232.18 314.68,-222.48 305.3,-227.4 310.42,-232.18"/>
<text text-anchor="middle" x="276.69" y="-276.8" font-family="Times,serif" font-size="14.00">0/1</text>
</g>
<!-- 6 -->
<g id="node4" class="node">
<title>6</title>
<ellipse fill="none" stroke="black" cx="229.19" cy="-389" rx="18" ry="18"/>
<text text-anchor="middle" x="229.19" y="-385.3" font-family="Times,serif" font-size="14.00">6</text>
</g>
<!-- 6&#45;&gt;999 -->
<g id="edge3" class="edge">
<title>6&#45;&gt;999</title>
<path fill="none" stroke="black" d="M239.57,-374.07C251.32,-355.18 271.9,-321.55 288.19,-292 298.19,-273.88 308.66,-253.32 317.05,-236.43"/>
<polygon fill="black" stroke="black" points="320.19,-237.98 321.48,-227.46 313.92,-234.88 320.19,-237.98"/>
<text text-anchor="middle" x="276.69" y="-332.8" font-family="Times,serif" font-size="14.00">0/1</text>
</g>
<!-- 7 -->
<g id="node5" class="node">
<title>7</title>
<ellipse fill="none" stroke="black" cx="229.19" cy="-18" rx="18" ry="18"/>
<text text-anchor="middle" x="229.19" y="-14.3" font-family="Times,serif" font-size="14.00">7</text>
</g>
<!-- 7&#45;&gt;999 -->
<g id="edge4" class="edge">
<title>7&#45;&gt;999</title>
<path fill="none" stroke="black" d="M238.89,-33.18C250.27,-53.09 270.82,-89.1 288.19,-120 297.12,-135.87 306.95,-153.52 315.18,-168.37"/>
<polygon fill="black" stroke="black" points="312.18,-170.16 320.09,-177.21 318.3,-166.76 312.18,-170.16"/>
<text text-anchor="middle" x="276.69" y="-123.8" font-family="Times,serif" font-size="14.00">0/1</text>
</g>
<!-- 1 -->
<g id="node6" class="node">
<title>1</title>
<ellipse fill="none" stroke="black" cx="134.19" cy="-85" rx="18" ry="18"/>
<text text-anchor="middle" x="134.19" y="-81.3" font-family="Times,serif" font-size="14.00">1</text>
</g>
<!-- 1&#45;&gt;7 -->
<g id="edge5" class="edge">
<title>1&#45;&gt;7</title>
<path fill="none" stroke="black" d="M140.57,-68.11C145.85,-54.44 155.31,-35.88 170.19,-26 179.12,-20.07 190.53,-17.67 200.86,-16.9"/>
<polygon fill="black" stroke="black" points="201.19,-20.39 211.09,-16.6 200.99,-13.39 201.19,-20.39"/>
<text text-anchor="middle" x="181.69" y="-29.8" font-family="Times,serif" font-size="14.00">0/1</text>
</g>
<!-- 8 -->
<g id="node7" class="node">
<title>8</title>
<ellipse fill="none" stroke="black" cx="229.19" cy="-105" rx="18" ry="18"/>
<text text-anchor="middle" x="229.19" y="-101.3" font-family="Times,serif" font-size="14.00">8</text>
</g>
<!-- 1&#45;&gt;8 -->
<g id="edge6" class="edge">
<title>1&#45;&gt;8</title>
<path fill="none" stroke="black" d="M144.61,-70.24C150.78,-62.02 159.64,-52.55 170.19,-48 179.58,-43.96 184.27,-43.01 193.19,-48 204.99,-54.6 213.3,-66.98 218.85,-78.53"/>
<polygon fill="black" stroke="black" points="215.71,-80.08 222.88,-87.88 222.13,-77.31 215.71,-80.08"/>
<text text-anchor="middle" x="181.69" y="-51.8" font-family="Times,serif" font-size="14.00">0/1</text>
</g>
<!-- 9 -->
<g id="node8" class="node">
<title>9</title>
<ellipse fill="none" stroke="black" cx="229.19" cy="-175" rx="18" ry="18"/>
<text text-anchor="middle" x="229.19" y="-171.3" font-family="Times,serif" font-size="14.00">9</text>
</g>
<!-- 1&#45;&gt;9 -->
<g id="edge7" class="edge">
<title>1&#45;&gt;9</title>
<path fill="none" stroke="black" d="M148.35,-96.52C160.27,-107.09 178.21,-123.28 193.19,-138 198.53,-143.25 204.17,-149.07 209.32,-154.51"/>
<polygon fill="black" stroke="black" points="207.04,-157.2 216.43,-162.11 212.15,-152.42 207.04,-157.2"/>
<text text-anchor="middle" x="181.69" y="-141.8" font-family="Times,serif" font-size="14.00">0/1</text>
</g>
<!-- 8&#45;&gt;999 -->
<g id="edge21" class="edge">
<title>8&#45;&gt;999</title>
<path fill="none" stroke="black" d="M242.9,-116.89C258.42,-131.43 285.14,-156.45 305.61,-175.61"/>
<polygon fill="black" stroke="black" points="303.42,-178.35 313.11,-182.63 308.2,-173.24 303.42,-178.35"/>
<text text-anchor="middle" x="276.69" y="-159.8" font-family="Times,serif" font-size="14.00">0/1</text>
</g>
<!-- 9&#45;&gt;999 -->
<g id="edge22" class="edge">
<title>9&#45;&gt;999</title>
<path fill="none" stroke="black" d="M247.03,-178.41C258.65,-180.86 274.43,-184.35 288.19,-188 291.32,-188.83 294.55,-189.73 297.78,-190.66"/>
<polygon fill="black" stroke="black" points="296.79,-194.02 307.37,-193.51 298.78,-187.31 296.79,-194.02"/>
<text text-anchor="middle" x="276.69" y="-191.8" font-family="Times,serif" font-size="14.00">0/1</text>
</g>
<!-- 2 -->
<g id="node9" class="node">
<title>2</title>
<ellipse fill="none" stroke="black" cx="134.19" cy="-321" rx="18" ry="18"/>
<text text-anchor="middle" x="134.19" y="-317.3" font-family="Times,serif" font-size="14.00">2</text>
</g>
<!-- 2&#45;&gt;4 -->
<g id="edge8" class="edge">
<title>2&#45;&gt;4</title>
<path fill="none" stroke="black" d="M151.61,-325.98C164.07,-328.73 181.06,-330.13 193.19,-322 198.42,-318.5 210.46,-287.14 218.96,-263.51"/>
<polygon fill="black" stroke="black" points="222.3,-264.56 222.35,-253.97 215.7,-262.22 222.3,-264.56"/>
<text text-anchor="middle" x="181.69" y="-331.8" font-family="Times,serif" font-size="14.00">0/1</text>
</g>
<!-- 2&#45;&gt;5 -->
<g id="edge9" class="edge">
<title>2&#45;&gt;5</title>
<path fill="none" stroke="black" d="M136.98,-339.09C140.04,-359.08 148.24,-390.36 170.19,-405 178.7,-410.67 184.78,-410.8 193.19,-405 196.08,-403.01 209.64,-365.79 219.01,-339.31"/>
<polygon fill="black" stroke="black" points="222.34,-340.38 222.36,-329.79 215.74,-338.06 222.34,-340.38"/>
<text text-anchor="middle" x="181.69" y="-412.8" font-family="Times,serif" font-size="14.00">0/1</text>
</g>
<!-- 2&#45;&gt;6 -->
<g id="edge10" class="edge">
<title>2&#45;&gt;6</title>
<path fill="none" stroke="black" d="M135.12,-339.06C136.11,-363.83 142.03,-407.58 170.19,-428 178.47,-434 183.86,-432.17 193.19,-428 200.91,-424.56 207.63,-418.49 213.06,-412.14"/>
<polygon fill="black" stroke="black" points="215.9,-414.2 219.23,-404.14 210.35,-409.92 215.9,-414.2"/>
<text text-anchor="middle" x="181.69" y="-434.8" font-family="Times,serif" font-size="14.00">0/1</text>
</g>
<!-- 2&#45;&gt;8 -->
<g id="edge11" class="edge">
<title>2&#45;&gt;8</title>
<path fill="none" stroke="black" d="M139.96,-303.87C145.98,-283.12 157.12,-247.32 170.19,-218 178.7,-198.92 183.51,-195.51 193.19,-177 201.18,-161.74 209.63,-144.38 216.23,-130.53"/>
<polygon fill="black" stroke="black" points="219.56,-131.68 220.68,-121.15 213.23,-128.69 219.56,-131.68"/>
<text text-anchor="middle" x="181.69" y="-221.8" font-family="Times,serif" font-size="14.00">0/1</text>
</g>
<!-- 2&#45;&gt;9 -->
<g id="edge12" class="edge">
<title>2&#45;&gt;9</title>
<path fill="none" stroke="black" d="M144.38,-306.09C150.96,-295.97 160.36,-282.55 170.19,-272 179.24,-262.3 185.29,-263.65 193.19,-253 205.54,-236.36 202.67,-228.88 211.19,-210 212.66,-206.76 214.24,-203.38 215.82,-200.04"/>
<polygon fill="black" stroke="black" points="219.02,-201.47 220.22,-190.94 212.72,-198.42 219.02,-201.47"/>
<text text-anchor="middle" x="181.69" y="-275.8" font-family="Times,serif" font-size="14.00">0/1</text>
</g>
<!-- 3 -->
<g id="node10" class="node">
<title>3</title>
<ellipse fill="none" stroke="black" cx="134.19" cy="-237" rx="18" ry="18"/>
<text text-anchor="middle" x="134.19" y="-233.3" font-family="Times,serif" font-size="14.00">3</text>
</g>
<!-- 3&#45;&gt;4 -->
<g id="edge13" class="edge">
<title>3&#45;&gt;4</title>
<path fill="none" stroke="black" d="M152.25,-237C165.8,-237 185.02,-237 200.73,-237"/>
<polygon fill="black" stroke="black" points="200.93,-240.5 210.93,-237 200.93,-233.5 200.93,-240.5"/>
<text text-anchor="middle" x="181.69" y="-240.8" font-family="Times,serif" font-size="14.00">0/1</text>
</g>
<!-- 3&#45;&gt;5 -->
<g id="edge14" class="edge">
<title>3&#45;&gt;5</title>
<path fill="none" stroke="black" d="M142.24,-253.16C148.17,-265.07 157.68,-280.9 170.19,-291 179.28,-298.33 191.06,-303.4 201.64,-306.8"/>
<polygon fill="black" stroke="black" points="200.7,-310.17 211.27,-309.58 202.63,-303.45 200.7,-310.17"/>
<text text-anchor="middle" x="181.69" y="-306.8" font-family="Times,serif" font-size="14.00">0/1</text>
</g>
<!-- 3&#45;&gt;6 -->
<g id="edge15" class="edge">
<title>3&#45;&gt;6</title>
<path fill="none" stroke="black" d="M140.42,-254.4C149.48,-284.42 167.41,-343.14 170.19,-347 178.93,-359.08 192.21,-369.06 203.86,-376.26"/>
<polygon fill="black" stroke="black" points="202.33,-379.42 212.74,-381.42 205.85,-373.37 202.33,-379.42"/>
<text text-anchor="middle" x="181.69" y="-371.8" font-family="Times,serif" font-size="14.00">0/1</text>
</g>
<!-- 3&#45;&gt;8 -->
<g id="edge16" class="edge">
<title>3&#45;&gt;8</title>
<path fill="none" stroke="black" d="M137.01,-219.1C140.87,-185.01 151.16,-112.84 170.19,-98 179.38,-90.84 192,-91.51 203.12,-94.43"/>
<polygon fill="black" stroke="black" points="202.18,-97.81 212.77,-97.58 204.35,-91.15 202.18,-97.81"/>
<text text-anchor="middle" x="181.69" y="-101.8" font-family="Times,serif" font-size="14.00">0/1</text>
</g>
<!-- 3&#45;&gt;9 -->
<g id="edge17" class="edge">
<title>3&#45;&gt;9</title>
<path fill="none" stroke="black" d="M137.94,-219.15C141.76,-201.22 150.56,-174.5 170.19,-162 180.19,-155.63 192.89,-157.6 203.86,-161.69"/>
<polygon fill="black" stroke="black" points="202.75,-165.03 213.31,-165.88 205.59,-158.63 202.75,-165.03"/>
<text text-anchor="middle" x="181.69" y="-165.8" font-family="Times,serif" font-size="14.00">0/1</text>
</g>
<!-- 998 -->
<g id="node11" class="node">
<title>998</title>
<ellipse fill="none" stroke="black" cx="28.6" cy="-237" rx="28.7" ry="28.7"/>
<text text-anchor="middle" x="28.6" y="-233.3" font-family="Times,serif" font-size="14.00">998</text>
</g>
<!-- 998&#45;&gt;1 -->
<g id="edge18" class="edge">
<title>998&#45;&gt;1</title>
<path fill="none" stroke="black" d="M45.56,-213.58C65.12,-184.88 98.06,-136.54 117.5,-108.02"/>
<polygon fill="black" stroke="black" points="120.57,-109.74 123.31,-99.51 114.78,-105.8 120.57,-109.74"/>
<text text-anchor="middle" x="86.69" y="-168.8" font-family="Times,serif" font-size="14.00">0/1</text>
</g>
<!-- 998&#45;&gt;2 -->
<g id="edge19" class="edge">
<title>998&#45;&gt;2</title>
<path fill="none" stroke="black" d="M51.31,-254.61C69.06,-269 94.01,-289.23 111.69,-303.57"/>
<polygon fill="black" stroke="black" points="109.76,-306.5 119.73,-310.08 114.17,-301.06 109.76,-306.5"/>
<text text-anchor="middle" x="86.69" y="-294.8" font-family="Times,serif" font-size="14.00">0/1</text>
</g>
<!-- 998&#45;&gt;3 -->
<g id="edge20" class="edge">
<title>998&#45;&gt;3</title>
<path fill="none" stroke="black" d="M57.36,-237C72.41,-237 90.93,-237 105.91,-237"/>
<polygon fill="black" stroke="black" points="106.08,-240.5 116.08,-237 106.08,-233.5 106.08,-240.5"/>
<text text-anchor="middle" x="86.69" y="-240.8" font-family="Times,serif" font-size="14.00">0/1</text>
</g>
</g>
</svg>
