<?xml version="1.0" encoding="UTF-8" standalone="no"?>
<!DOCTYPE svg PUBLIC "-//W3C//DTD SVG 1.1//EN"
 "http://www.w3.org/Graphics/SVG/1.1/DTD/svg11.dtd">
<!-- Generated by graphviz version 2.40.1 (20161225.0304)
 -->
<!-- Title: finite_state_machine Pages: 1 -->
<svg width="426pt" height="2383pt"
 viewBox="0.00 0.00 426.38 2383.01" xmlns="http://www.w3.org/2000/svg" xmlns:xlink="http://www.w3.org/1999/xlink">
<g id="graph0" class="graph" transform="scale(1 1) rotate(0) translate(4 2379.0114)">
<title>finite_state_machine</title>
<polygon fill="#ffffff" stroke="transparent" points="-4,4 -4,-2379.0114 422.3829,-2379.0114 422.3829,4 -4,4"/>
<!-- 6 -->
<g id="node1" class="node">
<title>6</title>
<ellipse fill="none" stroke="#000000" cx="261.6897" cy="-336.0114" rx="18" ry="18"/>
<text text-anchor="middle" x="261.6897" y="-332.3114" font-family="Times,serif" font-size="14.00" fill="#000000">6</text>
</g>
<!-- 9999 -->
<g id="node2" class="node">
<title>9999</title>
<ellipse fill="none" stroke="#000000" cx="389.7855" cy="-849.0114" rx="28.6953" ry="28.6953"/>
<text text-anchor="middle" x="389.7855" y="-845.3114" font-family="Times,serif" font-size="14.00" fill="#000000">9999</text>
</g>
<!-- 6&#45;&gt;9999 -->
<g id="edge1" class="edge">
<title>6&#45;&gt;9999</title>
<path fill="none" stroke="#000000" d="M274.0343,-349.6586C296.3064,-374.3414 341.1104,-424.2964 343.188,-429.0114 373.1018,-496.8997 384.8334,-719.6515 388.4414,-810.2094"/>
<polygon fill="#000000" stroke="#000000" points="384.9487,-810.4691 388.8324,-820.3265 391.9435,-810.1988 384.9487,-810.4691"/>
<text text-anchor="middle" x="321.188" y="-432.8114" font-family="Times,serif" font-size="14.00" fill="#000000">4/10 (1)</text>
</g>
<!-- 29 -->
<g id="node3" class="node">
<title>29</title>
<ellipse fill="none" stroke="#000000" cx="149.6932" cy="-1084.0114" rx="19.4965" ry="19.4965"/>
<text text-anchor="middle" x="149.6932" y="-1080.3114" font-family="Times,serif" font-size="14.00" fill="#000000">29</text>
</g>
<!-- 29&#45;&gt;6 -->
<g id="edge2" class="edge">
<title>29&#45;&gt;6</title>
<path fill="none" stroke="#000000" d="M162.1027,-1068.8813C164.9404,-1064.6349 167.5902,-1059.8495 169.1915,-1055.0114 182.4733,-1014.8827 164.3151,-710.5556 187.1915,-675.0114 197.1961,-659.4667 214.049,-671.4664 224.1915,-656.0114 257.9141,-604.625 227.5139,-439.6968 242.1915,-380.0114 243.7253,-373.774 246.0962,-367.315 248.6632,-361.3299"/>
<polygon fill="#000000" stroke="#000000" points="252.0366,-362.3734 253.055,-351.8276 245.6824,-359.4366 252.0366,-362.3734"/>
<text text-anchor="middle" x="205.6915" y="-678.8114" font-family="Times,serif" font-size="14.00" fill="#000000">1/1 (1)</text>
</g>
<!-- 4 -->
<g id="node4" class="node">
<title>4</title>
<ellipse fill="none" stroke="#000000" cx="261.6897" cy="-1647.0114" rx="18" ry="18"/>
<text text-anchor="middle" x="261.6897" y="-1643.3114" font-family="Times,serif" font-size="14.00" fill="#000000">4</text>
</g>
<!-- 29&#45;&gt;4 -->
<g id="edge3" class="edge">
<title>29&#45;&gt;4</title>
<path fill="none" stroke="#000000" d="M154.3245,-1103.2294C158.9083,-1123.0808 165.7271,-1155.0215 169.1915,-1183.0114 173.9338,-1221.3264 166.2242,-1497.5937 187.1915,-1530.0114 197.231,-1545.5335 211.8511,-1535.2475 224.1915,-1549.0114 241.9576,-1568.8268 251.6585,-1597.9419 256.7134,-1619.2889"/>
<polygon fill="#000000" stroke="#000000" points="253.2948,-1620.0398 258.8367,-1629.0696 260.1355,-1618.5547 253.2948,-1620.0398"/>
<text text-anchor="middle" x="205.6915" y="-1552.8114" font-family="Times,serif" font-size="14.00" fill="#000000">0/1 (0)</text>
</g>
<!-- 4&#45;&gt;9999 -->
<g id="edge71" class="edge">
<title>4&#45;&gt;9999</title>
<path fill="none" stroke="#000000" d="M266.9074,-1629.6675C281.372,-1580.9082 322.289,-1438.2655 343.188,-1317.0114 370.3973,-1159.1454 383.2696,-968.3787 387.7991,-887.8587"/>
<polygon fill="#000000" stroke="#000000" points="391.3037,-887.8702 388.3593,-877.6928 384.3143,-887.485 391.3037,-887.8702"/>
<text text-anchor="middle" x="321.188" y="-1508.8114" font-family="Times,serif" font-size="14.00" fill="#000000">2/2 (1)</text>
</g>
<!-- 17 -->
<g id="node5" class="node">
<title>17</title>
<ellipse fill="none" stroke="#000000" cx="149.6932" cy="-1875.0114" rx="19.4965" ry="19.4965"/>
<text text-anchor="middle" x="149.6932" y="-1871.3114" font-family="Times,serif" font-size="14.00" fill="#000000">17</text>
</g>
<!-- 17&#45;&gt;4 -->
<g id="edge4" class="edge">
<title>17&#45;&gt;4</title>
<path fill="none" stroke="#000000" d="M161.7802,-1890.8319C168.3889,-1898.1572 177.2496,-1906.0925 187.1915,-1910.0114 202.4903,-1916.0418 211.7699,-1920.7875 224.1915,-1910.0114 241.7696,-1894.7617 254.9379,-1740.0929 259.7242,-1675.3125"/>
<polygon fill="#000000" stroke="#000000" points="263.2383,-1675.2433 260.4699,-1665.0166 256.2565,-1674.7376 263.2383,-1675.2433"/>
<text text-anchor="middle" x="205.6915" y="-1919.8114" font-family="Times,serif" font-size="14.00" fill="#000000">1/1 (0)</text>
</g>
<!-- 9998 -->
<g id="node6" class="node">
<title>9998</title>
<ellipse fill="none" stroke="#000000" cx="28.5975" cy="-1051.0114" rx="28.6953" ry="28.6953"/>
<text text-anchor="middle" x="28.5975" y="-1047.3114" font-family="Times,serif" font-size="14.00" fill="#000000">9998</text>
</g>
<!-- 9998&#45;&gt;29 -->
<g id="edge18" class="edge">
<title>9998&#45;&gt;29</title>
<path fill="none" stroke="#000000" d="M56.3793,-1058.5822C75.6751,-1063.8406 101.3243,-1070.8303 120.848,-1076.1507"/>
<polygon fill="#000000" stroke="#000000" points="120.1401,-1079.5854 130.7085,-1078.8378 121.9806,-1072.8317 120.1401,-1079.5854"/>
<text text-anchor="middle" x="93.6949" y="-1076.8114" font-family="Times,serif" font-size="14.00" fill="#000000">1/1 (1)</text>
</g>
<!-- 9998&#45;&gt;17 -->
<g id="edge5" class="edge">
<title>9998&#45;&gt;17</title>
<path fill="none" stroke="#000000" d="M30.3461,-1079.8216C35.0655,-1153.6532 49.4725,-1355.5383 75.1949,-1522.0114 93.9621,-1643.4709 127.727,-1786.1222 142.4732,-1846.1228"/>
<polygon fill="#000000" stroke="#000000" points="139.1204,-1847.1451 144.9163,-1856.014 145.9162,-1845.4665 139.1204,-1847.1451"/>
<text text-anchor="middle" x="93.6949" y="-1717.8114" font-family="Times,serif" font-size="14.00" fill="#000000">1/1 (1)</text>
</g>
<!-- 18 -->
<g id="node7" class="node">
<title>18</title>
<ellipse fill="none" stroke="#000000" cx="149.6932" cy="-1624.0114" rx="19.4965" ry="19.4965"/>
<text text-anchor="middle" x="149.6932" y="-1620.3114" font-family="Times,serif" font-size="14.00" fill="#000000">18</text>
</g>
<!-- 9998&#45;&gt;18 -->
<g id="edge6" class="edge">
<title>9998&#45;&gt;18</title>
<path fill="none" stroke="#000000" d="M31.3752,-1079.5066C37.1548,-1135.7065 51.9069,-1264.6158 75.1949,-1371.0114 93.3535,-1453.972 124.3046,-1549.523 139.9804,-1595.8744"/>
<polygon fill="#000000" stroke="#000000" points="136.7277,-1597.1809 143.2628,-1605.5202 143.3546,-1594.9257 136.7277,-1597.1809"/>
<text text-anchor="middle" x="93.6949" y="-1506.8114" font-family="Times,serif" font-size="14.00" fill="#000000">1/1 (1)</text>
</g>
<!-- 24 -->
<g id="node8" class="node">
<title>24</title>
<ellipse fill="none" stroke="#000000" cx="149.6932" cy="-2198.0114" rx="19.4965" ry="19.4965"/>
<text text-anchor="middle" x="149.6932" y="-2194.3114" font-family="Times,serif" font-size="14.00" fill="#000000">24</text>
</g>
<!-- 9998&#45;&gt;24 -->
<g id="edge7" class="edge">
<title>9998&#45;&gt;24</title>
<path fill="none" stroke="#000000" d="M29.2226,-1079.7711C32.6725,-1234.1492 50.1427,-1961.1681 75.1949,-2058.0114 86.5319,-2101.8361 114.0354,-2147.1152 132.2635,-2173.9039"/>
<polygon fill="#000000" stroke="#000000" points="129.4778,-2176.0287 138.0529,-2182.2511 135.2297,-2172.0393 129.4778,-2176.0287"/>
<text text-anchor="middle" x="93.6949" y="-2143.8114" font-family="Times,serif" font-size="14.00" fill="#000000">1/1 (1)</text>
</g>
<!-- 7 -->
<g id="node9" class="node">
<title>7</title>
<ellipse fill="none" stroke="#000000" cx="149.6932" cy="-1353.0114" rx="18" ry="18"/>
<text text-anchor="middle" x="149.6932" y="-1349.3114" font-family="Times,serif" font-size="14.00" fill="#000000">7</text>
</g>
<!-- 9998&#45;&gt;7 -->
<g id="edge8" class="edge">
<title>9998&#45;&gt;7</title>
<path fill="none" stroke="#000000" d="M38.237,-1078.1856C47.4189,-1103.7975 61.79,-1143.1869 75.1949,-1177.0114 96.4461,-1230.6342 123.1886,-1292.5886 138.165,-1326.8324"/>
<polygon fill="#000000" stroke="#000000" points="135.0195,-1328.3748 142.2396,-1336.1286 141.4308,-1325.5647 135.0195,-1328.3748"/>
<text text-anchor="middle" x="93.6949" y="-1266.8114" font-family="Times,serif" font-size="14.00" fill="#000000">1/1 (1)</text>
</g>
<!-- 8 -->
<g id="node10" class="node">
<title>8</title>
<ellipse fill="none" stroke="#000000" cx="149.6932" cy="-1210.0114" rx="18" ry="18"/>
<text text-anchor="middle" x="149.6932" y="-1206.3114" font-family="Times,serif" font-size="14.00" fill="#000000">8</text>
</g>
<!-- 9998&#45;&gt;8 -->
<g id="edge9" class="edge">
<title>9998&#45;&gt;8</title>
<path fill="none" stroke="#000000" d="M45.9475,-1073.7922C68.9234,-1103.9597 109.2153,-1156.8634 132.2419,-1187.0976"/>
<polygon fill="#000000" stroke="#000000" points="129.6795,-1189.5099 138.5229,-1195.3447 135.2484,-1185.2686 129.6795,-1189.5099"/>
<text text-anchor="middle" x="93.6949" y="-1161.8114" font-family="Times,serif" font-size="14.00" fill="#000000">1/1 (1)</text>
</g>
<!-- 12 -->
<g id="node11" class="node">
<title>12</title>
<ellipse fill="none" stroke="#000000" cx="149.6932" cy="-1027.0114" rx="19.4965" ry="19.4965"/>
<text text-anchor="middle" x="149.6932" y="-1023.3114" font-family="Times,serif" font-size="14.00" fill="#000000">12</text>
</g>
<!-- 9998&#45;&gt;12 -->
<g id="edge10" class="edge">
<title>9998&#45;&gt;12</title>
<path fill="none" stroke="#000000" d="M56.6836,-1045.445C75.7841,-1041.6595 101.0035,-1036.6612 120.3624,-1032.8245"/>
<polygon fill="#000000" stroke="#000000" points="121.3096,-1036.2049 130.4383,-1030.8275 119.9486,-1029.3385 121.3096,-1036.2049"/>
<text text-anchor="middle" x="93.6949" y="-1044.8114" font-family="Times,serif" font-size="14.00" fill="#000000">1/1 (1)</text>
</g>
<!-- 15 -->
<g id="node12" class="node">
<title>15</title>
<ellipse fill="none" stroke="#000000" cx="149.6932" cy="-118.0114" rx="19.4965" ry="19.4965"/>
<text text-anchor="middle" x="149.6932" y="-114.3114" font-family="Times,serif" font-size="14.00" fill="#000000">15</text>
</g>
<!-- 9998&#45;&gt;15 -->
<g id="edge11" class="edge">
<title>9998&#45;&gt;15</title>
<path fill="none" stroke="#000000" d="M29.7798,-1022.367C33.5615,-936.2362 46.8127,-672.157 75.1949,-455.0114 92.7067,-321.0326 86.6668,-283.9265 130.1949,-156.0114 131.5274,-152.0957 133.2049,-148.0823 135.0139,-144.1996"/>
<polygon fill="#000000" stroke="#000000" points="138.3,-145.4548 139.6596,-134.9476 132.0444,-142.3136 138.3,-145.4548"/>
<text text-anchor="middle" x="93.6949" y="-458.8114" font-family="Times,serif" font-size="14.00" fill="#000000">1/1 (1)</text>
</g>
<!-- 16 -->
<g id="node13" class="node">
<title>16</title>
<ellipse fill="none" stroke="#000000" cx="149.6932" cy="-61.0114" rx="19.4965" ry="19.4965"/>
<text text-anchor="middle" x="149.6932" y="-57.3114" font-family="Times,serif" font-size="14.00" fill="#000000">16</text>
</g>
<!-- 9998&#45;&gt;16 -->
<g id="edge12" class="edge">
<title>9998&#45;&gt;16</title>
<path fill="none" stroke="#000000" d="M29.4775,-1021.9838C33.8173,-881.9768 53.5991,-279.8751 75.1949,-199.0114 86.6819,-155.9992 113.8885,-111.6324 132.0469,-85.1896"/>
<polygon fill="#000000" stroke="#000000" points="134.9561,-87.1368 137.8223,-76.937 129.221,-83.1232 134.9561,-87.1368"/>
<text text-anchor="middle" x="93.6949" y="-202.8114" font-family="Times,serif" font-size="14.00" fill="#000000">1/1 (1)</text>
</g>
<!-- 19 -->
<g id="node14" class="node">
<title>19</title>
<ellipse fill="none" stroke="#000000" cx="149.6932" cy="-2008.0114" rx="19.4965" ry="19.4965"/>
<text text-anchor="middle" x="149.6932" y="-2004.3114" font-family="Times,serif" font-size="14.00" fill="#000000">19</text>
</g>
<!-- 9998&#45;&gt;19 -->
<g id="edge13" class="edge">
<title>9998&#45;&gt;19</title>
<path fill="none" stroke="#000000" d="M29.8035,-1079.6564C34.6577,-1192.1931 53.5493,-1604.1213 75.1949,-1733.0114 90.606,-1824.7774 123.5961,-1930.174 140.0078,-1979.6159"/>
<polygon fill="#000000" stroke="#000000" points="136.7532,-1980.9196 143.2459,-1989.2919 143.3914,-1978.698 136.7532,-1980.9196"/>
<text text-anchor="middle" x="93.6949" y="-1886.8114" font-family="Times,serif" font-size="14.00" fill="#000000">1/1 (1)</text>
</g>
<!-- 21 -->
<g id="node15" class="node">
<title>21</title>
<ellipse fill="none" stroke="#000000" cx="149.6932" cy="-526.0114" rx="19.4965" ry="19.4965"/>
<text text-anchor="middle" x="149.6932" y="-522.3114" font-family="Times,serif" font-size="14.00" fill="#000000">21</text>
</g>
<!-- 9998&#45;&gt;21 -->
<g id="edge14" class="edge">
<title>9998&#45;&gt;21</title>
<path fill="none" stroke="#000000" d="M31.8049,-1022.4786C37.1117,-981.4973 49.7589,-904.1742 75.1949,-843.0114 86.936,-814.7791 102.389,-813.9727 112.1949,-785.0114 142.3791,-695.8644 108.2365,-665.5324 130.1949,-574.0114 131.8586,-567.0771 134.362,-559.8342 137.0253,-553.1388"/>
<polygon fill="#000000" stroke="#000000" points="140.2942,-554.3946 140.9626,-543.8209 133.8462,-551.6699 140.2942,-554.3946"/>
<text text-anchor="middle" x="93.6949" y="-846.8114" font-family="Times,serif" font-size="14.00" fill="#000000">1/1 (1)</text>
</g>
<!-- 26 -->
<g id="node16" class="node">
<title>26</title>
<ellipse fill="none" stroke="#000000" cx="149.6932" cy="-1408.0114" rx="19.4965" ry="19.4965"/>
<text text-anchor="middle" x="149.6932" y="-1404.3114" font-family="Times,serif" font-size="14.00" fill="#000000">26</text>
</g>
<!-- 9998&#45;&gt;26 -->
<g id="edge15" class="edge">
<title>9998&#45;&gt;26</title>
<path fill="none" stroke="#000000" d="M31.4513,-1079.5261C36.5325,-1123.9372 49.1547,-1211.8169 75.1949,-1282.0114 89.2858,-1319.9951 114.7177,-1359.5344 131.901,-1383.9615"/>
<polygon fill="#000000" stroke="#000000" points="129.16,-1386.1458 137.8222,-1392.2464 134.8551,-1382.0755 129.16,-1386.1458"/>
<text text-anchor="middle" x="93.6949" y="-1355.8114" font-family="Times,serif" font-size="14.00" fill="#000000">1/1 (1)</text>
</g>
<!-- 27 -->
<g id="node17" class="node">
<title>27</title>
<ellipse fill="none" stroke="#000000" cx="149.6932" cy="-859.0114" rx="19.4965" ry="19.4965"/>
<text text-anchor="middle" x="149.6932" y="-855.3114" font-family="Times,serif" font-size="14.00" fill="#000000">27</text>
</g>
<!-- 9998&#45;&gt;27 -->
<g id="edge16" class="edge">
<title>9998&#45;&gt;27</title>
<path fill="none" stroke="#000000" d="M39.5543,-1024.487C47.9925,-1005.4592 60.6512,-979.6458 75.1949,-959.0114 88.9597,-939.4821 97.6379,-938.9576 112.1949,-920.0114 120.5972,-909.0756 128.7591,-896.1626 135.3111,-885.0396"/>
<polygon fill="#000000" stroke="#000000" points="138.4447,-886.6118 140.406,-876.2 132.38,-883.1161 138.4447,-886.6118"/>
<text text-anchor="middle" x="93.6949" y="-962.8114" font-family="Times,serif" font-size="14.00" fill="#000000">1/1 (1)</text>
</g>
<!-- 28 -->
<g id="node18" class="node">
<title>28</title>
<ellipse fill="none" stroke="#000000" cx="149.6932" cy="-412.0114" rx="19.4965" ry="19.4965"/>
<text text-anchor="middle" x="149.6932" y="-408.3114" font-family="Times,serif" font-size="14.00" fill="#000000">28</text>
</g>
<!-- 9998&#45;&gt;28 -->
<g id="edge17" class="edge">
<title>9998&#45;&gt;28</title>
<path fill="none" stroke="#000000" d="M31.3495,-1022.2899C36.7463,-970.4272 50.4079,-857.9887 75.1949,-766.0114 87.2011,-721.4599 101.4674,-713.888 112.1949,-669.0114 129.9622,-594.6856 117.7245,-573.4069 130.1949,-498.0114 133.3509,-478.9304 138.1402,-457.7392 142.1823,-441.1668"/>
<polygon fill="#000000" stroke="#000000" points="145.6907,-441.5609 144.706,-431.012 138.8974,-439.8726 145.6907,-441.5609"/>
<text text-anchor="middle" x="93.6949" y="-769.8114" font-family="Times,serif" font-size="14.00" fill="#000000">1/1 (1)</text>
</g>
<!-- 30 -->
<g id="node19" class="node">
<title>30</title>
<ellipse fill="none" stroke="#000000" cx="149.6932" cy="-184.0114" rx="19.4965" ry="19.4965"/>
<text text-anchor="middle" x="149.6932" y="-180.3114" font-family="Times,serif" font-size="14.00" fill="#000000">30</text>
</g>
<!-- 9998&#45;&gt;30 -->
<g id="edge19" class="edge">
<title>9998&#45;&gt;30</title>
<path fill="none" stroke="#000000" d="M31.0331,-1022.1979C36.8174,-956.1254 52.6063,-788.7074 75.1949,-650.0114 88.0437,-571.1188 98.8373,-552.8194 112.1949,-474.0114 128.2671,-379.1878 141.0873,-265.8914 146.6667,-213.3931"/>
<polygon fill="#000000" stroke="#000000" points="150.1488,-213.7459 147.7155,-203.4343 143.1873,-213.0127 150.1488,-213.7459"/>
<text text-anchor="middle" x="93.6949" y="-653.8114" font-family="Times,serif" font-size="14.00" fill="#000000">1/1 (1)</text>
</g>
<!-- 32 -->
<g id="node20" class="node">
<title>32</title>
<ellipse fill="none" stroke="#000000" cx="149.6932" cy="-602.0114" rx="19.4965" ry="19.4965"/>
<text text-anchor="middle" x="149.6932" y="-598.3114" font-family="Times,serif" font-size="14.00" fill="#000000">32</text>
</g>
<!-- 9998&#45;&gt;32 -->
<g id="edge20" class="edge">
<title>9998&#45;&gt;32</title>
<path fill="none" stroke="#000000" d="M33.3945,-1022.6252C39.585,-991.2315 52.3743,-939.9472 75.1949,-901.0114 87.2765,-880.3983 101.7774,-883.5135 112.1949,-862.0114 131.6633,-821.8281 143.288,-691.0008 147.678,-631.7051"/>
<polygon fill="#000000" stroke="#000000" points="151.1852,-631.7296 148.4138,-621.5037 144.2034,-631.2259 151.1852,-631.7296"/>
<text text-anchor="middle" x="93.6949" y="-904.8114" font-family="Times,serif" font-size="14.00" fill="#000000">1/1 (1)</text>
</g>
<!-- 34 -->
<g id="node21" class="node">
<title>34</title>
<ellipse fill="none" stroke="#000000" cx="149.6932" cy="-2141.0114" rx="19.4965" ry="19.4965"/>
<text text-anchor="middle" x="149.6932" y="-2137.3114" font-family="Times,serif" font-size="14.00" fill="#000000">34</text>
</g>
<!-- 9998&#45;&gt;34 -->
<g id="edge21" class="edge">
<title>9998&#45;&gt;34</title>
<path fill="none" stroke="#000000" d="M29.221,-1079.933C32.1654,-1209.6923 45.7817,-1738.9224 75.1949,-1902.0114 89.3648,-1980.58 121.5566,-2069.4496 138.6116,-2113.3847"/>
<polygon fill="#000000" stroke="#000000" points="135.3972,-2114.7751 142.3059,-2122.8077 141.9143,-2112.2201 135.3972,-2114.7751"/>
<text text-anchor="middle" x="93.6949" y="-2042.8114" font-family="Times,serif" font-size="14.00" fill="#000000">1/1 (1)</text>
</g>
<!-- 35 -->
<g id="node22" class="node">
<title>35</title>
<ellipse fill="none" stroke="#000000" cx="149.6932" cy="-944.0114" rx="19.4965" ry="19.4965"/>
<text text-anchor="middle" x="149.6932" y="-940.3114" font-family="Times,serif" font-size="14.00" fill="#000000">35</text>
</g>
<!-- 9998&#45;&gt;35 -->
<g id="edge22" class="edge">
<title>9998&#45;&gt;35</title>
<path fill="none" stroke="#000000" d="M50.247,-1031.8819C72.0591,-1012.6087 105.5509,-983.0154 127.5406,-963.5854"/>
<polygon fill="#000000" stroke="#000000" points="129.9024,-966.169 135.0787,-956.9247 125.2674,-960.9234 129.9024,-966.169"/>
<text text-anchor="middle" x="93.6949" y="-1010.8114" font-family="Times,serif" font-size="14.00" fill="#000000">1/1 (1)</text>
</g>
<!-- 18&#45;&gt;4 -->
<g id="edge26" class="edge">
<title>18&#45;&gt;4</title>
<path fill="none" stroke="#000000" d="M156.1161,-1642.5802C161.9186,-1656.1963 171.9204,-1673.6998 187.1915,-1682.0114 201.6351,-1689.8727 208.8927,-1688.0418 224.1915,-1682.0114 231.3682,-1679.1825 237.9816,-1674.2605 243.5912,-1668.9859"/>
<polygon fill="#000000" stroke="#000000" points="246.1572,-1671.3671 250.577,-1661.7382 241.1172,-1666.5093 246.1572,-1671.3671"/>
<text text-anchor="middle" x="205.6915" y="-1690.8114" font-family="Times,serif" font-size="14.00" fill="#000000">1/1 (0)</text>
</g>
<!-- 24&#45;&gt;4 -->
<g id="edge32" class="edge">
<title>24&#45;&gt;4</title>
<path fill="none" stroke="#000000" d="M162.1032,-2182.5068C164.8681,-2178.338 167.4827,-2173.6836 169.1915,-2169.0114 194.378,-2100.1461 145.6154,-2065.4119 187.1915,-2005.0114 197.6729,-1989.7842 213.7035,-2001.2341 224.1915,-1986.0114 232.9748,-1973.2628 252.4376,-1755.0457 259.2654,-1675.6223"/>
<polygon fill="#000000" stroke="#000000" points="262.7771,-1675.6343 260.1425,-1665.3723 255.8026,-1675.0374 262.7771,-1675.6343"/>
<text text-anchor="middle" x="205.6915" y="-2008.8114" font-family="Times,serif" font-size="14.00" fill="#000000">0/1 (0)</text>
</g>
<!-- 9 -->
<g id="node24" class="node">
<title>9</title>
<ellipse fill="none" stroke="#000000" cx="261.6897" cy="-2236.0114" rx="18" ry="18"/>
<text text-anchor="middle" x="261.6897" y="-2232.3114" font-family="Times,serif" font-size="14.00" fill="#000000">9</text>
</g>
<!-- 24&#45;&gt;9 -->
<g id="edge28" class="edge">
<title>24&#45;&gt;9</title>
<path fill="none" stroke="#000000" d="M152.4092,-2217.3219C157.4678,-2250.1684 169.4531,-2314.6664 187.1915,-2328.0114 200.3324,-2337.8976 210.5444,-2337.1861 224.1915,-2328.0114 224.2841,-2327.9491 239.9586,-2289.4441 251.0102,-2262.2747"/>
<polygon fill="#000000" stroke="#000000" points="254.3098,-2263.4517 254.8353,-2252.8699 247.8256,-2260.8144 254.3098,-2263.4517"/>
<text text-anchor="middle" x="205.6915" y="-2338.8114" font-family="Times,serif" font-size="14.00" fill="#000000">1/1 (1)</text>
</g>
<!-- 3 -->
<g id="node25" class="node">
<title>3</title>
<ellipse fill="none" stroke="#000000" cx="261.6897" cy="-1894.0114" rx="18" ry="18"/>
<text text-anchor="middle" x="261.6897" y="-1890.3114" font-family="Times,serif" font-size="14.00" fill="#000000">3</text>
</g>
<!-- 24&#45;&gt;3 -->
<g id="edge29" class="edge">
<title>24&#45;&gt;3</title>
<path fill="none" stroke="#000000" d="M168.9881,-2193.6536C186.4123,-2188.6413 211.2441,-2178.5958 224.1915,-2160.0114 243.6349,-2132.1027 237.3227,-2041.6749 242.1915,-2008.0114 246.4591,-1978.5041 252.3358,-1944.8744 256.5192,-1921.8313"/>
<polygon fill="#000000" stroke="#000000" points="260.0089,-1922.2049 258.3663,-1911.7382 253.1232,-1920.9448 260.0089,-1922.2049"/>
<text text-anchor="middle" x="205.6915" y="-2189.8114" font-family="Times,serif" font-size="14.00" fill="#000000">0/1 (4)</text>
</g>
<!-- 2 -->
<g id="node26" class="node">
<title>2</title>
<ellipse fill="none" stroke="#000000" cx="261.6897" cy="-1457.0114" rx="18" ry="18"/>
<text text-anchor="middle" x="261.6897" y="-1453.3114" font-family="Times,serif" font-size="14.00" fill="#000000">2</text>
</g>
<!-- 24&#45;&gt;2 -->
<g id="edge30" class="edge">
<title>24&#45;&gt;2</title>
<path fill="none" stroke="#000000" d="M162.1058,-2182.8823C164.9436,-2178.6359 167.5925,-2173.8502 169.1915,-2169.0114 182.7323,-2128.0332 165.3555,-1818.2372 187.1915,-1781.0114 196.9882,-1764.31 213.7544,-1774.3203 224.1915,-1758.0114 226.0304,-1755.1379 249.4805,-1559.5375 258.3352,-1485.2287"/>
<polygon fill="#000000" stroke="#000000" points="261.8244,-1485.5263 259.5314,-1475.1826 254.8735,-1484.6986 261.8244,-1485.5263"/>
<text text-anchor="middle" x="205.6915" y="-1784.8114" font-family="Times,serif" font-size="14.00" fill="#000000">0/1 (3)</text>
</g>
<!-- 25 -->
<g id="node27" class="node">
<title>25</title>
<ellipse fill="none" stroke="#000000" cx="261.6897" cy="-2312.0114" rx="19.4965" ry="19.4965"/>
<text text-anchor="middle" x="261.6897" y="-2308.3114" font-family="Times,serif" font-size="14.00" fill="#000000">25</text>
</g>
<!-- 24&#45;&gt;25 -->
<g id="edge31" class="edge">
<title>24&#45;&gt;25</title>
<path fill="none" stroke="#000000" d="M151.4325,-2217.499C155.2692,-2255.4864 165.8612,-2337.2007 187.1915,-2354.0114 200.107,-2364.1902 209.1828,-2360.7315 224.1915,-2354.0114 232.3992,-2350.3363 239.5506,-2343.8784 245.3448,-2337.1124"/>
<polygon fill="#000000" stroke="#000000" points="248.1379,-2339.2221 251.5052,-2329.1766 242.6084,-2334.9296 248.1379,-2339.2221"/>
<text text-anchor="middle" x="205.6915" y="-2363.8114" font-family="Times,serif" font-size="14.00" fill="#000000">0/1 (2)</text>
</g>
<!-- 7&#45;&gt;6 -->
<g id="edge36" class="edge">
<title>7&#45;&gt;6</title>
<path fill="none" stroke="#000000" d="M153.433,-1335.0234C157.9914,-1312.3012 165.5369,-1271.9456 169.1915,-1237.0114 174.1553,-1189.5617 168.3057,-851.8228 187.1915,-808.0114 196.5227,-786.3646 214.8149,-791.6386 224.1915,-770.0114 258.7022,-690.4116 222.2748,-464.4533 242.1915,-380.0114 243.666,-373.7598 246.0132,-367.295 248.576,-361.3089"/>
<polygon fill="#000000" stroke="#000000" points="251.9493,-362.3537 252.9766,-351.8088 245.5976,-359.4115 251.9493,-362.3537"/>
<text text-anchor="middle" x="205.6915" y="-811.8114" font-family="Times,serif" font-size="14.00" fill="#000000">0/1 (3)</text>
</g>
<!-- 7&#45;&gt;4 -->
<g id="edge38" class="edge">
<title>7&#45;&gt;4</title>
<path fill="none" stroke="#000000" d="M161.7839,-1366.7485C164.6975,-1370.7712 167.4646,-1375.3483 169.1915,-1380.0114 185.7653,-1424.7645 163.5541,-1552.5529 187.1915,-1594.0114 193.0961,-1604.3677 217.7205,-1620.818 237.0636,-1632.6452"/>
<polygon fill="#000000" stroke="#000000" points="235.3873,-1635.7212 245.7611,-1637.8741 238.994,-1629.7219 235.3873,-1635.7212"/>
<text text-anchor="middle" x="205.6915" y="-1627.8114" font-family="Times,serif" font-size="14.00" fill="#000000">0/1 (1)</text>
</g>
<!-- 5 -->
<g id="node23" class="node">
<title>5</title>
<ellipse fill="none" stroke="#000000" cx="261.6897" cy="-1191.0114" rx="18" ry="18"/>
<text text-anchor="middle" x="261.6897" y="-1187.3114" font-family="Times,serif" font-size="14.00" fill="#000000">5</text>
</g>
<!-- 7&#45;&gt;5 -->
<g id="edge37" class="edge">
<title>7&#45;&gt;5</title>
<path fill="none" stroke="#000000" d="M167.724,-1354.9763C184.4903,-1355.7506 209.0883,-1354.0393 224.1915,-1340.0114 241.6546,-1323.7915 253.0093,-1257.6135 258.2742,-1219.1266"/>
<polygon fill="#000000" stroke="#000000" points="261.7629,-1219.4414 259.5978,-1209.0702 254.8228,-1218.528 261.7629,-1219.4414"/>
<text text-anchor="middle" x="205.6915" y="-1357.8114" font-family="Times,serif" font-size="14.00" fill="#000000">0/1 (2)</text>
</g>
<!-- 7&#45;&gt;3 -->
<g id="edge35" class="edge">
<title>7&#45;&gt;3</title>
<path fill="none" stroke="#000000" d="M161.727,-1366.4165C164.7171,-1370.5052 167.5378,-1375.1994 169.1915,-1380.0114 186.9697,-1431.7451 153.6473,-1828.7999 187.1915,-1872.0114 193.0525,-1879.5616 215.2638,-1885.4956 233.9217,-1889.2884"/>
<polygon fill="#000000" stroke="#000000" points="233.3165,-1892.736 243.7952,-1891.1719 234.6282,-1885.86 233.3165,-1892.736"/>
<text text-anchor="middle" x="205.6915" y="-1889.8114" font-family="Times,serif" font-size="14.00" fill="#000000">0/1 (4)</text>
</g>
<!-- 7&#45;&gt;2 -->
<g id="edge34" class="edge">
<title>7&#45;&gt;2</title>
<path fill="none" stroke="#000000" d="M161.7484,-1366.7618C164.6618,-1370.7846 167.4377,-1375.3584 169.1915,-1380.0114 183.9936,-1419.2832 156.133,-1539.7846 187.1915,-1568.0114 199.361,-1579.0714 210.8317,-1577.5997 224.1915,-1568.0114 237.879,-1558.1878 249.554,-1514.5986 256.0896,-1485.0563"/>
<polygon fill="#000000" stroke="#000000" points="259.5936,-1485.4069 258.2592,-1474.8964 252.748,-1483.945 259.5936,-1485.4069"/>
<text text-anchor="middle" x="205.6915" y="-1578.8114" font-family="Times,serif" font-size="14.00" fill="#000000">1/1 (0)</text>
</g>
<!-- 1 -->
<g id="node28" class="node">
<title>1</title>
<ellipse fill="none" stroke="#000000" cx="261.6897" cy="-963.0114" rx="18" ry="18"/>
<text text-anchor="middle" x="261.6897" y="-959.3114" font-family="Times,serif" font-size="14.00" fill="#000000">1</text>
</g>
<!-- 7&#45;&gt;1 -->
<g id="edge39" class="edge">
<title>7&#45;&gt;1</title>
<path fill="none" stroke="#000000" d="M152.4387,-1334.9589C157.9839,-1300.4641 171.3504,-1226.8469 187.1915,-1207.0114 198.7274,-1192.5666 213.2891,-1202.9401 224.1915,-1188.0114 246.7517,-1157.1193 256.6169,-1044.7159 260.0997,-991.4191"/>
<polygon fill="#000000" stroke="#000000" points="263.602,-991.4896 260.7307,-981.2913 256.6156,-991.0543 263.602,-991.4896"/>
<text text-anchor="middle" x="205.6915" y="-1210.8114" font-family="Times,serif" font-size="14.00" fill="#000000">0/1 (0)</text>
</g>
<!-- 8&#45;&gt;5 -->
<g id="edge44" class="edge">
<title>8&#45;&gt;5</title>
<path fill="none" stroke="#000000" d="M165.5379,-1218.6201C180.9259,-1225.785 204.7463,-1233.6762 224.1915,-1226.0114 231.3682,-1223.1825 237.9816,-1218.2605 243.5912,-1212.9859"/>
<polygon fill="#000000" stroke="#000000" points="246.1572,-1215.3671 250.577,-1205.7382 241.1172,-1210.5093 246.1572,-1215.3671"/>
<text text-anchor="middle" x="205.6915" y="-1232.8114" font-family="Times,serif" font-size="14.00" fill="#000000">0/1 (2)</text>
</g>
<!-- 8&#45;&gt;9 -->
<g id="edge45" class="edge">
<title>8&#45;&gt;9</title>
<path fill="none" stroke="#000000" d="M153.5292,-1227.9898C158.1868,-1250.702 165.8347,-1291.0473 169.1915,-1326.0114 173.0312,-1366.0066 170.0299,-2012.6818 187.1915,-2049.0114 196.4778,-2068.6698 212.8729,-2062.4485 224.1915,-2081.0114 248.4068,-2120.7257 256.9887,-2175.0717 260.0274,-2207.7393"/>
<polygon fill="#000000" stroke="#000000" points="256.5575,-2208.2524 260.8599,-2217.9343 263.5343,-2207.6826 256.5575,-2208.2524"/>
<text text-anchor="middle" x="205.6915" y="-2084.8114" font-family="Times,serif" font-size="14.00" fill="#000000">0/1 (1)</text>
</g>
<!-- 8&#45;&gt;3 -->
<g id="edge41" class="edge">
<title>8&#45;&gt;3</title>
<path fill="none" stroke="#000000" d="M153.4698,-1227.9956C158.066,-1250.7139 165.6508,-1291.0655 169.1915,-1326.0114 172.0381,-1354.1075 172.0497,-1810.174 187.1915,-1834.0114 197.1033,-1849.6154 209.4997,-1841.7918 224.1915,-1853.0114 231.199,-1858.3628 237.983,-1865.1197 243.8097,-1871.5962"/>
<polygon fill="#000000" stroke="#000000" points="241.4503,-1874.2208 250.6229,-1879.523 246.7588,-1869.6579 241.4503,-1874.2208"/>
<text text-anchor="middle" x="205.6915" y="-1856.8114" font-family="Times,serif" font-size="14.00" fill="#000000">1/1 (0)</text>
</g>
<!-- 8&#45;&gt;2 -->
<g id="edge46" class="edge">
<title>8&#45;&gt;2</title>
<path fill="none" stroke="#000000" d="M153.0829,-1227.9379C157.7041,-1248.0938 167.7327,-1280.7737 187.1915,-1302.0114 199.6797,-1315.6412 212.5286,-1306.6689 224.1915,-1321.0114 237.6349,-1337.5436 250.1269,-1394.4309 256.7503,-1429.1782"/>
<polygon fill="#000000" stroke="#000000" points="253.3414,-1429.991 258.612,-1439.1818 260.2233,-1428.7102 253.3414,-1429.991"/>
<text text-anchor="middle" x="205.6915" y="-1324.8114" font-family="Times,serif" font-size="14.00" fill="#000000">0/1 (0)</text>
</g>
<!-- 8&#45;&gt;1 -->
<g id="edge47" class="edge">
<title>8&#45;&gt;1</title>
<path fill="none" stroke="#000000" d="M161.8799,-1196.5959C168.9154,-1189.2189 178.1407,-1180.1442 187.1915,-1173.0114 202.3991,-1161.0263 213.1586,-1165.9233 224.1915,-1150.0114 241.7892,-1124.6315 253.6516,-1036.9445 258.7929,-991.2322"/>
<polygon fill="#000000" stroke="#000000" points="262.2929,-991.4221 259.8994,-981.1012 255.3343,-990.662 262.2929,-991.4221"/>
<text text-anchor="middle" x="205.6915" y="-1176.8114" font-family="Times,serif" font-size="14.00" fill="#000000">0/1 (0)</text>
</g>
<!-- 11 -->
<g id="node29" class="node">
<title>11</title>
<ellipse fill="none" stroke="#000000" cx="261.6897" cy="-683.0114" rx="19.4965" ry="19.4965"/>
<text text-anchor="middle" x="261.6897" y="-679.3114" font-family="Times,serif" font-size="14.00" fill="#000000">11</text>
</g>
<!-- 8&#45;&gt;11 -->
<g id="edge42" class="edge">
<title>8&#45;&gt;11</title>
<path fill="none" stroke="#000000" d="M153.1185,-1192.2794C160.6486,-1153.9327 178.6505,-1065.8614 187.1915,-1055.0114 198.6257,-1040.486 214.0829,-1051.4886 224.1915,-1036.0114 242.2091,-1008.4244 235.8015,-772.3355 242.1915,-740.0114 244.1278,-730.2161 247.3316,-719.7994 250.5883,-710.5871"/>
<polygon fill="#000000" stroke="#000000" points="253.8925,-711.743 254.0853,-701.1499 247.3286,-709.3106 253.8925,-711.743"/>
<text text-anchor="middle" x="205.6915" y="-1058.8114" font-family="Times,serif" font-size="14.00" fill="#000000">0/1 (4)</text>
</g>
<!-- 10 -->
<g id="node30" class="node">
<title>10</title>
<ellipse fill="none" stroke="#000000" cx="261.6897" cy="-493.0114" rx="19.4965" ry="19.4965"/>
<text text-anchor="middle" x="261.6897" y="-489.3114" font-family="Times,serif" font-size="14.00" fill="#000000">10</text>
</g>
<!-- 8&#45;&gt;10 -->
<g id="edge43" class="edge">
<title>8&#45;&gt;10</title>
<path fill="none" stroke="#000000" d="M153.2643,-1192.317C157.2119,-1172.6986 163.7344,-1140.1095 169.1915,-1112.0114 177.3844,-1069.8262 161.4651,-1051.4333 187.1915,-1017.0114 198.2582,-1002.2041 214.2522,-1013.5979 224.1915,-998.0114 251.8127,-954.6965 230.3633,-586.0034 242.1915,-536.0114 243.5126,-530.4277 245.569,-524.6826 247.86,-519.2818"/>
<polygon fill="#000000" stroke="#000000" points="251.1122,-520.5874 252.1286,-510.0414 244.7575,-517.6518 251.1122,-520.5874"/>
<text text-anchor="middle" x="205.6915" y="-1020.8114" font-family="Times,serif" font-size="14.00" fill="#000000">0/1 (3)</text>
</g>
<!-- 12&#45;&gt;4 -->
<g id="edge51" class="edge">
<title>12&#45;&gt;4</title>
<path fill="none" stroke="#000000" d="M162.1226,-1042.1349C164.9601,-1046.3814 167.6048,-1051.1684 169.1915,-1056.0114 184.2867,-1102.0874 161.0749,-1451.1606 187.1915,-1492.0114 197.1488,-1507.5863 212.5286,-1496.6689 224.1915,-1511.0114 237.6349,-1527.5436 250.1269,-1584.4309 256.7503,-1619.1782"/>
<polygon fill="#000000" stroke="#000000" points="253.3414,-1619.991 258.612,-1629.1818 260.2233,-1618.7102 253.3414,-1619.991"/>
<text text-anchor="middle" x="205.6915" y="-1514.8114" font-family="Times,serif" font-size="14.00" fill="#000000">0/1 (2)</text>
</g>
<!-- 12&#45;&gt;5 -->
<g id="edge52" class="edge">
<title>12&#45;&gt;5</title>
<path fill="none" stroke="#000000" d="M161.4634,-1042.7873C164.2405,-1046.9508 167.021,-1051.5349 169.1915,-1056.0114 180.5972,-1079.5351 171.1047,-1091.4038 187.1915,-1112.0114 199.1061,-1127.2743 210.2701,-1121.5537 224.1915,-1135.0114 233.5609,-1144.0687 241.8753,-1155.8445 248.2793,-1166.2591"/>
<polygon fill="#000000" stroke="#000000" points="245.3084,-1168.1117 253.3938,-1174.9584 251.3428,-1164.564 245.3084,-1168.1117"/>
<text text-anchor="middle" x="205.6915" y="-1138.8114" font-family="Times,serif" font-size="14.00" fill="#000000">0/1 (1)</text>
</g>
<!-- 12&#45;&gt;2 -->
<g id="edge48" class="edge">
<title>12&#45;&gt;2</title>
<path fill="none" stroke="#000000" d="M161.9521,-1042.1933C164.791,-1046.4392 167.479,-1051.2115 169.1915,-1056.0114 197.9921,-1136.735 149.6554,-1170.9606 187.1915,-1248.0114 197.1051,-1268.3612 213.0874,-1263.2859 224.1915,-1283.0114 238.0961,-1307.7119 251.3289,-1386.3661 257.7123,-1428.9615"/>
<polygon fill="#000000" stroke="#000000" points="254.2648,-1429.5754 259.1838,-1438.9591 261.1902,-1428.556 254.2648,-1429.5754"/>
<text text-anchor="middle" x="205.6915" y="-1286.8114" font-family="Times,serif" font-size="14.00" fill="#000000">1/1 (0)</text>
</g>
<!-- 12&#45;&gt;1 -->
<g id="edge53" class="edge">
<title>12&#45;&gt;1</title>
<path fill="none" stroke="#000000" d="M160.2976,-1010.1592C166.9572,-1000.8751 176.3318,-989.8751 187.1915,-983.0114 201.1286,-974.2026 218.891,-969.2408 233.5758,-966.4631"/>
<polygon fill="#000000" stroke="#000000" points="234.3302,-969.886 243.6259,-964.8027 233.1891,-962.9796 234.3302,-969.886"/>
<text text-anchor="middle" x="205.6915" y="-986.8114" font-family="Times,serif" font-size="14.00" fill="#000000">0/1 (0)</text>
</g>
<!-- 14 -->
<g id="node31" class="node">
<title>14</title>
<ellipse fill="none" stroke="#000000" cx="261.6897" cy="-849.0114" rx="19.4965" ry="19.4965"/>
<text text-anchor="middle" x="261.6897" y="-845.3114" font-family="Times,serif" font-size="14.00" fill="#000000">14</text>
</g>
<!-- 12&#45;&gt;14 -->
<g id="edge49" class="edge">
<title>12&#45;&gt;14</title>
<path fill="none" stroke="#000000" d="M156.9559,-1008.9138C161.0016,-998.298 165.8762,-984.548 169.1915,-972.0114 180.8485,-927.9305 156.7845,-904.9883 187.1915,-871.0114 198.3714,-858.5189 216.2604,-852.9713 231.7064,-850.5696"/>
<polygon fill="#000000" stroke="#000000" points="232.3781,-854.0146 241.8971,-849.3628 231.5548,-847.0632 232.3781,-854.0146"/>
<text text-anchor="middle" x="205.6915" y="-874.8114" font-family="Times,serif" font-size="14.00" fill="#000000">0/1 (2)</text>
</g>
<!-- 13 -->
<g id="node32" class="node">
<title>13</title>
<ellipse fill="none" stroke="#000000" cx="261.6897" cy="-222.0114" rx="19.4965" ry="19.4965"/>
<text text-anchor="middle" x="261.6897" y="-218.3114" font-family="Times,serif" font-size="14.00" fill="#000000">13</text>
</g>
<!-- 12&#45;&gt;13 -->
<g id="edge50" class="edge">
<title>12&#45;&gt;13</title>
<path fill="none" stroke="#000000" d="M157.6603,-1009.0724C161.9408,-998.5094 166.8154,-984.7594 169.1915,-972.0114 182.3486,-901.4214 163.7561,-393.885 187.1915,-326.0114 196.214,-299.8802 208.0834,-298.4786 224.1915,-276.0114 231.0456,-266.4514 238.4586,-255.8367 244.8695,-246.566"/>
<polygon fill="#000000" stroke="#000000" points="247.8647,-248.3877 250.6581,-238.1677 242.1012,-244.4151 247.8647,-248.3877"/>
<text text-anchor="middle" x="205.6915" y="-329.8114" font-family="Times,serif" font-size="14.00" fill="#000000">0/1 (2)</text>
</g>
<!-- 15&#45;&gt;6 -->
<g id="edge54" class="edge">
<title>15&#45;&gt;6</title>
<path fill="none" stroke="#000000" d="M168.5618,-112.9024C185.4421,-109.5859 209.6947,-108.1227 224.1915,-122.0114 254.1772,-150.7395 227.8594,-269.0366 242.1915,-308.0114 242.8815,-309.8878 243.7284,-311.7561 244.679,-313.5858"/>
<polygon fill="#000000" stroke="#000000" points="241.8128,-315.6057 250.0477,-322.2719 247.7672,-311.9254 241.8128,-315.6057"/>
<text text-anchor="middle" x="205.6915" y="-125.8114" font-family="Times,serif" font-size="14.00" fill="#000000">1/1 (0)</text>
</g>
<!-- 15&#45;&gt;13 -->
<g id="edge55" class="edge">
<title>15&#45;&gt;13</title>
<path fill="none" stroke="#000000" d="M161.4634,-102.2355C164.2405,-98.0719 167.021,-93.4878 169.1915,-89.0114 180.5972,-65.4877 166.0656,-48.4113 187.1915,-33.0114 200.48,-23.3246 211.4823,-22.576 224.1915,-33.0114 248.2873,-52.7962 257.174,-143.9729 260.225,-192.0863"/>
<polygon fill="#000000" stroke="#000000" points="256.7395,-192.4372 260.8211,-202.2143 263.7274,-192.0258 256.7395,-192.4372"/>
<text text-anchor="middle" x="205.6915" y="-36.8114" font-family="Times,serif" font-size="14.00" fill="#000000">0/1 (0)</text>
</g>
<!-- 16&#45;&gt;6 -->
<g id="edge56" class="edge">
<title>16&#45;&gt;6</title>
<path fill="none" stroke="#000000" d="M169.3592,-63.4857C186.7896,-66.8008 211.4024,-74.4637 224.1915,-92.0114 252.5609,-130.9366 225.8695,-262.6948 242.1915,-308.0114 242.8689,-309.8923 243.7067,-311.764 244.6506,-313.5961"/>
<polygon fill="#000000" stroke="#000000" points="241.7801,-315.6095 250.0056,-322.2872 247.7397,-311.9375 241.7801,-315.6095"/>
<text text-anchor="middle" x="205.6915" y="-95.8114" font-family="Times,serif" font-size="14.00" fill="#000000">1/1 (0)</text>
</g>
<!-- 16&#45;&gt;13 -->
<g id="edge57" class="edge">
<title>16&#45;&gt;13</title>
<path fill="none" stroke="#000000" d="M156.9627,-42.6261C163.0039,-30.0941 172.931,-14.4703 187.1915,-7.0114 201.763,.6102 211.6041,3.5706 224.1915,-7.0114 251.9353,-30.3352 259.1544,-138.8789 261.0313,-192.239"/>
<polygon fill="#000000" stroke="#000000" points="257.5391,-192.5494 261.3481,-202.4358 264.5358,-192.3319 257.5391,-192.5494"/>
<text text-anchor="middle" x="205.6915" y="-10.8114" font-family="Times,serif" font-size="14.00" fill="#000000">0/1 (0)</text>
</g>
<!-- 19&#45;&gt;4 -->
<g id="edge61" class="edge">
<title>19&#45;&gt;4</title>
<path fill="none" stroke="#000000" d="M163.5606,-1994.2825C170.623,-1987.3022 179.3524,-1978.6923 187.1915,-1971.0114 203.5797,-1954.9538 213.9176,-1955.5264 224.1915,-1935.0114 246.8155,-1889.8353 256.9979,-1738.8942 260.3534,-1675.4669"/>
<polygon fill="#000000" stroke="#000000" points="263.8541,-1675.5404 260.8683,-1665.375 256.8632,-1675.1836 263.8541,-1675.5404"/>
<text text-anchor="middle" x="205.6915" y="-1974.8114" font-family="Times,serif" font-size="14.00" fill="#000000">0/1 (3)</text>
</g>
<!-- 19&#45;&gt;9 -->
<g id="edge63" class="edge">
<title>19&#45;&gt;9</title>
<path fill="none" stroke="#000000" d="M153.3288,-2027.356C157.277,-2048.4174 163.7481,-2083.0956 169.1915,-2113.0114 177.3539,-2157.871 156.7845,-2180.0345 187.1915,-2214.0114 193.4983,-2221.0586 215.2558,-2226.9874 233.641,-2230.908"/>
<polygon fill="#000000" stroke="#000000" points="233.1665,-2234.3827 243.6607,-2232.9257 234.5485,-2227.5204 233.1665,-2234.3827"/>
<text text-anchor="middle" x="205.6915" y="-2231.8114" font-family="Times,serif" font-size="14.00" fill="#000000">0/1 (1)</text>
</g>
<!-- 19&#45;&gt;3 -->
<g id="edge60" class="edge">
<title>19&#45;&gt;3</title>
<path fill="none" stroke="#000000" d="M166.4356,-2018.6083C182.7158,-2027.4219 207.3834,-2036.6565 224.1915,-2024.0114 240.4795,-2011.7575 251.9168,-1956.3735 257.5946,-1921.9682"/>
<polygon fill="#000000" stroke="#000000" points="261.0603,-1922.4602 259.1708,-1912.0352 254.1468,-1921.3631 261.0603,-1922.4602"/>
<text text-anchor="middle" x="205.6915" y="-2033.8114" font-family="Times,serif" font-size="14.00" fill="#000000">0/1 (4)</text>
</g>
<!-- 19&#45;&gt;2 -->
<g id="edge62" class="edge">
<title>19&#45;&gt;2</title>
<path fill="none" stroke="#000000" d="M153.7027,-1988.7285C157.9706,-1967.7201 164.7131,-1933.0867 169.1915,-1903.0114 179.7308,-1832.2321 156.1484,-1807.4871 187.1915,-1743.0114 197.2801,-1722.0576 213.7124,-1726.7726 224.1915,-1706.0114 234.0172,-1686.5447 251.3045,-1546.1721 258.4543,-1485.1808"/>
<polygon fill="#000000" stroke="#000000" points="261.9483,-1485.4344 259.6286,-1475.0966 254.9953,-1484.6246 261.9483,-1485.4344"/>
<text text-anchor="middle" x="205.6915" y="-1746.8114" font-family="Times,serif" font-size="14.00" fill="#000000">0/1 (2)</text>
</g>
<!-- 20 -->
<g id="node33" class="node">
<title>20</title>
<ellipse fill="none" stroke="#000000" cx="261.6897" cy="-2036.0114" rx="19.4965" ry="19.4965"/>
<text text-anchor="middle" x="261.6897" y="-2032.3114" font-family="Times,serif" font-size="14.00" fill="#000000">20</text>
</g>
<!-- 19&#45;&gt;20 -->
<g id="edge59" class="edge">
<title>19&#45;&gt;20</title>
<path fill="none" stroke="#000000" d="M151.471,-2027.8114C154.613,-2049.6865 163.2871,-2083.9408 187.1915,-2100.0114 200.8386,-2109.1861 209.9239,-2108.188 224.1915,-2100.0114 237.6777,-2092.2825 246.7827,-2077.6141 252.6398,-2064.2683"/>
<polygon fill="#000000" stroke="#000000" points="255.921,-2065.4887 256.3469,-2054.9024 249.4123,-2062.9125 255.921,-2065.4887"/>
<text text-anchor="middle" x="205.6915" y="-2109.8114" font-family="Times,serif" font-size="14.00" fill="#000000">1/1 (0)</text>
</g>
<!-- 21&#45;&gt;4 -->
<g id="edge70" class="edge">
<title>21&#45;&gt;4</title>
<path fill="none" stroke="#000000" d="M158.7157,-543.7558C162.7401,-552.6056 167.0501,-563.616 169.1915,-574.0114 179.0572,-621.9049 161.2823,-1412.5405 187.1915,-1454.0114 196.9862,-1469.6891 212.9405,-1458.3436 224.1915,-1473.0114 241.4865,-1495.5586 253.2851,-1575.514 258.5584,-1618.7549"/>
<polygon fill="#000000" stroke="#000000" points="255.1079,-1619.3801 259.7579,-1628.9 262.0594,-1618.5582 255.1079,-1619.3801"/>
<text text-anchor="middle" x="205.6915" y="-1476.8114" font-family="Times,serif" font-size="14.00" fill="#000000">0/1 (0)</text>
</g>
<!-- 21&#45;&gt;3 -->
<g id="edge66" class="edge">
<title>21&#45;&gt;3</title>
<path fill="none" stroke="#000000" d="M158.7416,-543.7505C162.7722,-552.599 167.0798,-563.6099 169.1915,-574.0114 182.6997,-640.5503 151.3815,-1738.3265 187.1915,-1796.0114 196.9413,-1811.7171 211.3256,-1801.7374 224.1915,-1815.0114 238.1918,-1829.4559 247.7449,-1850.1112 253.7039,-1866.6786"/>
<polygon fill="#000000" stroke="#000000" points="250.4577,-1868.0069 256.9573,-1876.3738 257.094,-1865.7799 250.4577,-1868.0069"/>
<text text-anchor="middle" x="205.6915" y="-1818.8114" font-family="Times,serif" font-size="14.00" fill="#000000">0/1 (4)</text>
</g>
<!-- 21&#45;&gt;10 -->
<g id="edge69" class="edge">
<title>21&#45;&gt;10</title>
<path fill="none" stroke="#000000" d="M153.3697,-506.7699C157.9276,-488.8387 167.6258,-463.1039 187.1915,-451.0114 201.1799,-442.3659 209.1828,-444.2912 224.1915,-451.0114 232.3992,-454.6864 239.5506,-461.1443 245.3448,-467.9103"/>
<polygon fill="#000000" stroke="#000000" points="242.6084,-470.0931 251.5052,-475.8462 248.1379,-465.8007 242.6084,-470.0931"/>
<text text-anchor="middle" x="205.6915" y="-454.8114" font-family="Times,serif" font-size="14.00" fill="#000000">0/1 (1)</text>
</g>
<!-- 21&#45;&gt;13 -->
<g id="edge68" class="edge">
<title>21&#45;&gt;13</title>
<path fill="none" stroke="#000000" d="M154.7763,-507.0262C159.2301,-489.6944 165.5455,-463.3044 169.1915,-440.0114 176.2635,-394.8307 156.261,-268.6954 187.1915,-235.0114 198.3026,-222.9111 216.3495,-219.5336 231.8977,-219.2428"/>
<polygon fill="#000000" stroke="#000000" points="232.0731,-222.7474 242.1468,-219.4654 232.2252,-215.749 232.0731,-222.7474"/>
<text text-anchor="middle" x="205.6915" y="-238.8114" font-family="Times,serif" font-size="14.00" fill="#000000">0/1 (2)</text>
</g>
<!-- 22 -->
<g id="node34" class="node">
<title>22</title>
<ellipse fill="none" stroke="#000000" cx="261.6897" cy="-408.0114" rx="19.4965" ry="19.4965"/>
<text text-anchor="middle" x="261.6897" y="-404.3114" font-family="Times,serif" font-size="14.00" fill="#000000">22</text>
</g>
<!-- 21&#45;&gt;22 -->
<g id="edge65" class="edge">
<title>21&#45;&gt;22</title>
<path fill="none" stroke="#000000" d="M153.771,-506.8079C161.4221,-471.6711 177.9864,-399.9801 187.1915,-393.0114 201.042,-382.5259 220.3531,-386.795 235.8434,-393.4146"/>
<polygon fill="#000000" stroke="#000000" points="234.3779,-396.5933 244.9116,-397.7292 237.3854,-390.2723 234.3779,-396.5933"/>
<text text-anchor="middle" x="205.6915" y="-396.8114" font-family="Times,serif" font-size="14.00" fill="#000000">1/1 (0)</text>
</g>
<!-- 23 -->
<g id="node35" class="node">
<title>23</title>
<ellipse fill="none" stroke="#000000" cx="261.6897" cy="-564.0114" rx="19.4965" ry="19.4965"/>
<text text-anchor="middle" x="261.6897" y="-560.3114" font-family="Times,serif" font-size="14.00" fill="#000000">23</text>
</g>
<!-- 21&#45;&gt;23 -->
<g id="edge67" class="edge">
<title>21&#45;&gt;23</title>
<path fill="none" stroke="#000000" d="M169.1688,-522.4113C184.689,-520.435 206.6491,-519.6758 224.1915,-527.0114 231.2686,-529.9708 237.7336,-534.9628 243.2278,-540.3377"/>
<polygon fill="#000000" stroke="#000000" points="240.7245,-542.7858 250.0845,-547.7497 245.863,-538.0323 240.7245,-542.7858"/>
<text text-anchor="middle" x="205.6915" y="-530.8114" font-family="Times,serif" font-size="14.00" fill="#000000">0/1 (3)</text>
</g>
<!-- 26&#45;&gt;4 -->
<g id="edge25" class="edge">
<title>26&#45;&gt;4</title>
<path fill="none" stroke="#000000" d="M151.3828,-1427.4984C156.2497,-1481.4244 170.9916,-1629.6088 187.1915,-1644.0114 199.6888,-1655.1222 218.5446,-1655.7831 234.1589,-1653.7115"/>
<polygon fill="#000000" stroke="#000000" points="235.0837,-1657.1031 244.3329,-1651.9356 233.8799,-1650.2073 235.0837,-1657.1031"/>
<text text-anchor="middle" x="205.6915" y="-1657.8114" font-family="Times,serif" font-size="14.00" fill="#000000">0/1 (0)</text>
</g>
<!-- 26&#45;&gt;5 -->
<g id="edge24" class="edge">
<title>26&#45;&gt;5</title>
<path fill="none" stroke="#000000" d="M168.9296,-1404.0902C186.0636,-1399.5695 210.4823,-1390.4084 224.1915,-1373.0114 242.7695,-1349.4357 254.1519,-1263.9723 258.9837,-1219.0478"/>
<polygon fill="#000000" stroke="#000000" points="262.4673,-1219.3858 260.0197,-1209.0775 255.5048,-1218.6622 262.4673,-1219.3858"/>
<text text-anchor="middle" x="205.6915" y="-1400.8114" font-family="Times,serif" font-size="14.00" fill="#000000">1/1 (1)</text>
</g>
<!-- 27&#45;&gt;6 -->
<g id="edge75" class="edge">
<title>27&#45;&gt;6</title>
<path fill="none" stroke="#000000" d="M151.3929,-839.2602C157.6969,-766.5681 179.7591,-517.3241 187.1915,-502.0114 197.21,-481.3704 213.1371,-486.1166 224.1915,-466.0114 243.0061,-431.7922 230.2145,-417.1798 242.1915,-380.0114 244.1287,-373.9997 246.6219,-367.7018 249.174,-361.8109"/>
<polygon fill="#000000" stroke="#000000" points="252.4973,-362.9566 253.4366,-352.4035 246.1213,-360.0675 252.4973,-362.9566"/>
<text text-anchor="middle" x="205.6915" y="-505.8114" font-family="Times,serif" font-size="14.00" fill="#000000">0/1 (1)</text>
</g>
<!-- 27&#45;&gt;1 -->
<g id="edge73" class="edge">
<title>27&#45;&gt;1</title>
<path fill="none" stroke="#000000" d="M165.3148,-871.2502C180.7439,-883.56 204.7813,-903.341 224.1915,-922.0114 230.5461,-928.1238 237.1434,-935.0983 243,-941.54"/>
<polygon fill="#000000" stroke="#000000" points="240.6731,-944.1885 249.9481,-949.3096 245.891,-939.5223 240.6731,-944.1885"/>
<text text-anchor="middle" x="205.6915" y="-925.8114" font-family="Times,serif" font-size="14.00" fill="#000000">1/1 (0)</text>
</g>
<!-- 27&#45;&gt;14 -->
<g id="edge74" class="edge">
<title>27&#45;&gt;14</title>
<path fill="none" stroke="#000000" d="M163.7422,-845.1229C170.2988,-839.5978 178.5556,-833.8798 187.1915,-831.0114 202.7975,-825.8277 208.157,-827.3623 224.1915,-831.0114 227.9321,-831.8627 231.7351,-833.1358 235.4135,-834.6191"/>
<polygon fill="#000000" stroke="#000000" points="234.1819,-837.9047 244.7307,-838.8905 237.0991,-831.5415 234.1819,-837.9047"/>
<text text-anchor="middle" x="205.6915" y="-834.8114" font-family="Times,serif" font-size="14.00" fill="#000000">0/1 (2)</text>
</g>
<!-- 28&#45;&gt;6 -->
<g id="edge78" class="edge">
<title>28&#45;&gt;6</title>
<path fill="none" stroke="#000000" d="M151.5944,-392.571C155.6598,-355.5458 166.5522,-277.1521 187.1915,-261.0114 200.1451,-250.8811 210.6428,-251.6919 224.1915,-261.0114 242.621,-273.6881 231.7233,-288.2437 242.1915,-308.0114 243.1063,-309.7389 244.1093,-311.4863 245.1625,-313.2198"/>
<polygon fill="#000000" stroke="#000000" points="242.2586,-315.1741 250.6713,-321.6144 248.1109,-311.3335 242.2586,-315.1741"/>
<text text-anchor="middle" x="205.6915" y="-264.8114" font-family="Times,serif" font-size="14.00" fill="#000000">0/1 (1)</text>
</g>
<!-- 28&#45;&gt;10 -->
<g id="edge77" class="edge">
<title>28&#45;&gt;10</title>
<path fill="none" stroke="#000000" d="M169.1888,-411.299C185.3398,-411.6645 208.1616,-414.491 224.1915,-426.0114 237.2568,-435.4012 246.3378,-450.8312 252.2871,-464.5181"/>
<polygon fill="#000000" stroke="#000000" points="249.1345,-466.0624 256.0779,-474.0649 255.6404,-463.4791 249.1345,-466.0624"/>
<text text-anchor="middle" x="205.6915" y="-429.8114" font-family="Times,serif" font-size="14.00" fill="#000000">1/1 (0)</text>
</g>
<!-- 30&#45;&gt;6 -->
<g id="edge81" class="edge">
<title>30&#45;&gt;6</title>
<path fill="none" stroke="#000000" d="M168.6133,-178.1095C185.2927,-174.1892 209.2085,-171.8848 224.1915,-185.0114 244.9696,-203.2152 232.0272,-282.3248 242.1915,-308.0114 242.9107,-309.829 243.7685,-311.6434 244.7173,-313.425"/>
<polygon fill="#000000" stroke="#000000" points="241.7476,-315.2774 249.9975,-321.9249 247.6937,-311.5836 241.7476,-315.2774"/>
<text text-anchor="middle" x="205.6915" y="-188.8114" font-family="Times,serif" font-size="14.00" fill="#000000">0/1 (1)</text>
</g>
<!-- 31 -->
<g id="node36" class="node">
<title>31</title>
<ellipse fill="none" stroke="#000000" cx="261.6897" cy="-280.0114" rx="19.4965" ry="19.4965"/>
<text text-anchor="middle" x="261.6897" y="-276.3114" font-family="Times,serif" font-size="14.00" fill="#000000">31</text>
</g>
<!-- 30&#45;&gt;31 -->
<g id="edge80" class="edge">
<title>30&#45;&gt;31</title>
<path fill="none" stroke="#000000" d="M160.9525,-168.078C167.5739,-160.1317 176.6996,-151.3162 187.1915,-147.0114 202.4051,-140.7692 211.6023,-136.4315 224.1915,-147.0114 259.768,-176.9098 225.1844,-206.7637 242.1915,-250.0114 242.9246,-251.8757 243.7825,-253.7464 244.722,-255.5923"/>
<polygon fill="#000000" stroke="#000000" points="241.8389,-257.5962 249.9008,-264.4705 247.8854,-254.0691 241.8389,-257.5962"/>
<text text-anchor="middle" x="205.6915" y="-150.8114" font-family="Times,serif" font-size="14.00" fill="#000000">1/1 (0)</text>
</g>
<!-- 32&#45;&gt;6 -->
<g id="edge82" class="edge">
<title>32&#45;&gt;6</title>
<path fill="none" stroke="#000000" d="M158.3727,-584.1895C162.3159,-575.3213 166.6566,-564.3179 169.1915,-554.0114 179.1093,-513.6867 162.7002,-401.5468 187.1915,-368.0114 198.0877,-353.0913 217.3934,-345.0587 233.6214,-340.7731"/>
<polygon fill="#000000" stroke="#000000" points="234.7538,-344.1046 243.7218,-338.4632 233.1932,-337.2808 234.7538,-344.1046"/>
<text text-anchor="middle" x="205.6915" y="-371.8114" font-family="Times,serif" font-size="14.00" fill="#000000">1/1 (0)</text>
</g>
<!-- 32&#45;&gt;11 -->
<g id="edge84" class="edge">
<title>32&#45;&gt;11</title>
<path fill="none" stroke="#000000" d="M168.7274,-597.0343C184.8089,-593.9777 207.7789,-592.423 224.1915,-603.0114 241.6198,-614.2551 251.0986,-635.9395 256.1634,-653.8987"/>
<polygon fill="#000000" stroke="#000000" points="252.7846,-654.8147 258.6039,-663.6684 259.5759,-653.1182 252.7846,-654.8147"/>
<text text-anchor="middle" x="205.6915" y="-606.8114" font-family="Times,serif" font-size="14.00" fill="#000000">0/1 (2)</text>
</g>
<!-- 32&#45;&gt;23 -->
<g id="edge85" class="edge">
<title>32&#45;&gt;23</title>
<path fill="none" stroke="#000000" d="M161.2984,-585.7497C167.8986,-577.9209 176.8974,-569.316 187.1915,-565.0114 201.1705,-559.1659 217.9549,-558.4605 232.0504,-559.4153"/>
<polygon fill="#000000" stroke="#000000" points="231.9204,-562.9192 242.2142,-560.4113 232.6032,-555.9526 231.9204,-562.9192"/>
<text text-anchor="middle" x="205.6915" y="-568.8114" font-family="Times,serif" font-size="14.00" fill="#000000">0/1 (1)</text>
</g>
<!-- 33 -->
<g id="node37" class="node">
<title>33</title>
<ellipse fill="none" stroke="#000000" cx="261.6897" cy="-768.0114" rx="19.4965" ry="19.4965"/>
<text text-anchor="middle" x="261.6897" y="-764.3114" font-family="Times,serif" font-size="14.00" fill="#000000">33</text>
</g>
<!-- 32&#45;&gt;33 -->
<g id="edge83" class="edge">
<title>32&#45;&gt;33</title>
<path fill="none" stroke="#000000" d="M153.7661,-621.1069C158.817,-641.1013 169.0619,-672.5235 187.1915,-694.0114 199.6776,-708.8104 209.9776,-703.863 224.1915,-717.0114 232.2993,-724.5115 239.8204,-733.9828 245.9658,-742.7218"/>
<polygon fill="#000000" stroke="#000000" points="243.1323,-744.7801 251.6235,-751.1165 248.937,-740.8679 243.1323,-744.7801"/>
<text text-anchor="middle" x="205.6915" y="-720.8114" font-family="Times,serif" font-size="14.00" fill="#000000">0/1 (3)</text>
</g>
<!-- 34&#45;&gt;9 -->
<g id="edge88" class="edge">
<title>34&#45;&gt;9</title>
<path fill="none" stroke="#000000" d="M161.7611,-2156.6516C164.5325,-2160.8177 167.2358,-2165.437 169.1915,-2170.0114 183.8591,-2204.3197 158.1166,-2228.6266 187.1915,-2252.0114 201.2767,-2263.3401 221.5498,-2258.0171 237.3924,-2250.5907"/>
<polygon fill="#000000" stroke="#000000" points="239.3208,-2253.5334 246.5892,-2245.8249 236.1002,-2247.3183 239.3208,-2253.5334"/>
<text text-anchor="middle" x="205.6915" y="-2261.8114" font-family="Times,serif" font-size="14.00" fill="#000000">0/1 (2)</text>
</g>
<!-- 34&#45;&gt;3 -->
<g id="edge86" class="edge">
<title>34&#45;&gt;3</title>
<path fill="none" stroke="#000000" d="M169.4256,-2142.4774C186.4089,-2142.5771 210.3074,-2139.7384 224.1915,-2125.0114 242.2367,-2105.8706 237.9739,-2033.977 242.1915,-2008.0114 246.9716,-1978.5828 252.7662,-1944.9405 256.7903,-1921.8729"/>
<polygon fill="#000000" stroke="#000000" points="260.2825,-1922.2212 258.558,-1911.7676 253.3872,-1921.015 260.2825,-1922.2212"/>
<text text-anchor="middle" x="205.6915" y="-2144.8114" font-family="Times,serif" font-size="14.00" fill="#000000">1/1 (0)</text>
</g>
<!-- 34&#45;&gt;25 -->
<g id="edge89" class="edge">
<title>34&#45;&gt;25</title>
<path fill="none" stroke="#000000" d="M161.9186,-2156.5865C164.6869,-2160.7539 167.3494,-2165.3901 169.1915,-2170.0114 187.0471,-2214.8076 158.0406,-2238.5958 187.1915,-2277.0114 198.1748,-2291.4854 216.6254,-2300.2157 232.4163,-2305.3372"/>
<polygon fill="#000000" stroke="#000000" points="231.7247,-2308.7808 242.3039,-2308.2057 233.6752,-2302.058 231.7247,-2308.7808"/>
<text text-anchor="middle" x="205.6915" y="-2304.8114" font-family="Times,serif" font-size="14.00" fill="#000000">0/1 (1)</text>
</g>
<!-- 34&#45;&gt;33 -->
<g id="edge87" class="edge">
<title>34&#45;&gt;33</title>
<path fill="none" stroke="#000000" d="M154.1823,-2121.7899C158.8603,-2100.8339 165.951,-2066.2451 169.1915,-2036.0114 172.7513,-2002.7977 169.3582,-1463.2566 187.1915,-1435.0114 197.0605,-1419.3803 214.3201,-1431.641 224.1915,-1416.0114 259.5107,-1360.0897 229.6102,-885.9451 242.1915,-821.0114 243.8621,-812.3892 246.7509,-803.3118 249.8009,-795.1533"/>
<polygon fill="#000000" stroke="#000000" points="253.097,-796.336 253.53,-785.75 246.59,-793.7554 253.097,-796.336"/>
<text text-anchor="middle" x="205.6915" y="-1438.8114" font-family="Times,serif" font-size="14.00" fill="#000000">0/1 (3)</text>
</g>
<!-- 35&#45;&gt;5 -->
<g id="edge94" class="edge">
<title>35&#45;&gt;5</title>
<path fill="none" stroke="#000000" d="M156.7716,-962.4366C160.7083,-973.0431 165.5355,-986.6755 169.1915,-999.0114 178.932,-1031.8783 166.0126,-1047.0565 187.1915,-1074.0114 198.6125,-1088.5472 211.8511,-1079.2475 224.1915,-1093.0114 241.9576,-1112.8268 251.6585,-1141.9419 256.7134,-1163.2889"/>
<polygon fill="#000000" stroke="#000000" points="253.2948,-1164.0398 258.8367,-1173.0696 260.1355,-1162.5547 253.2948,-1164.0398"/>
<text text-anchor="middle" x="205.6915" y="-1096.8114" font-family="Times,serif" font-size="14.00" fill="#000000">0/1 (1)</text>
</g>
<!-- 35&#45;&gt;1 -->
<g id="edge93" class="edge">
<title>35&#45;&gt;1</title>
<path fill="none" stroke="#000000" d="M169.2666,-941.9958C184.4567,-940.975 205.9318,-940.7268 224.1915,-945.0114 228.4624,-946.0136 232.818,-947.5537 236.9775,-949.3201"/>
<polygon fill="#000000" stroke="#000000" points="235.6614,-952.5699 246.1952,-953.7056 238.6688,-946.2488 235.6614,-952.5699"/>
<text text-anchor="middle" x="205.6915" y="-948.8114" font-family="Times,serif" font-size="14.00" fill="#000000">0/1 (2)</text>
</g>
<!-- 35&#45;&gt;11 -->
<g id="edge91" class="edge">
<title>35&#45;&gt;11</title>
<path fill="none" stroke="#000000" d="M157.238,-925.8609C161.4871,-914.8239 166.4727,-900.3332 169.1915,-887.0114 174.6717,-860.1585 167.1176,-659.6701 187.1915,-641.0114 199.2363,-629.8157 209.1828,-634.2912 224.1915,-641.0114 232.3992,-644.6864 239.5506,-651.1443 245.3448,-657.9103"/>
<polygon fill="#000000" stroke="#000000" points="242.6084,-660.0931 251.5052,-665.8462 248.1379,-655.8007 242.6084,-660.0931"/>
<text text-anchor="middle" x="205.6915" y="-644.8114" font-family="Times,serif" font-size="14.00" fill="#000000">1/1 (0)</text>
</g>
<!-- 35&#45;&gt;33 -->
<g id="edge92" class="edge">
<title>35&#45;&gt;33</title>
<path fill="none" stroke="#000000" d="M156.9365,-925.7944C161.0787,-914.7339 166.0579,-900.2418 169.1915,-887.0114 176.0145,-858.2036 164.8883,-774.4796 187.1915,-755.0114 200.2971,-743.5716 219.7935,-747.4563 235.5544,-753.8668"/>
<polygon fill="#000000" stroke="#000000" points="234.2428,-757.1153 244.7945,-758.0703 237.1414,-750.7436 234.2428,-757.1153"/>
<text text-anchor="middle" x="205.6915" y="-758.8114" font-family="Times,serif" font-size="14.00" fill="#000000">0/1 (3)</text>
</g>
<!-- 5&#45;&gt;9999 -->
<g id="edge23" class="edge">
<title>5&#45;&gt;9999</title>
<path fill="none" stroke="#000000" d="M268.042,-1174.0515C287.8101,-1121.2732 348.5522,-959.0991 376.0308,-885.7346"/>
<polygon fill="#000000" stroke="#000000" points="379.4497,-886.5849 379.6797,-875.9926 372.8945,-884.1296 379.4497,-886.5849"/>
<text text-anchor="middle" x="321.188" y="-1092.8114" font-family="Times,serif" font-size="14.00" fill="#000000">1/10 (1)</text>
</g>
<!-- 9&#45;&gt;9999 -->
<g id="edge27" class="edge">
<title>9&#45;&gt;9999</title>
<path fill="none" stroke="#000000" d="M267.9751,-2218.9374C283.9884,-2174.5347 326.2476,-2051.4872 343.188,-1945.0114 376.5855,-1735.0975 387.1687,-1058.0039 389.3317,-888.0101"/>
<polygon fill="#000000" stroke="#000000" points="392.8342,-887.8251 389.4594,-877.7822 385.8347,-887.7377 392.8342,-887.8251"/>
<text text-anchor="middle" x="321.188" y="-2122.8114" font-family="Times,serif" font-size="14.00" fill="#000000">1/1 (1)</text>
</g>
<!-- 3&#45;&gt;9999 -->
<g id="edge40" class="edge">
<title>3&#45;&gt;9999</title>
<path fill="none" stroke="#000000" d="M266.5274,-1876.4668C280.8763,-1823.6612 323.4277,-1661.3847 343.188,-1524.0114 377.75,-1283.7368 386.8769,-991.5276 389.1114,-887.8017"/>
<polygon fill="#000000" stroke="#000000" points="392.6108,-887.8615 389.3179,-877.7914 385.6123,-887.717 392.6108,-887.8615"/>
<text text-anchor="middle" x="321.188" y="-1747.8114" font-family="Times,serif" font-size="14.00" fill="#000000">2/3 (1)</text>
</g>
<!-- 2&#45;&gt;9999 -->
<g id="edge33" class="edge">
<title>2&#45;&gt;9999</title>
<path fill="none" stroke="#000000" d="M266.1695,-1439.2859C279.0277,-1388.1161 316.8175,-1235.6678 343.188,-1108.0114 359.2808,-1030.1078 375.0384,-938.3644 383.4724,-887.6444"/>
<polygon fill="#000000" stroke="#000000" points="386.9774,-887.9012 385.1584,-877.4637 380.0715,-886.7575 386.9774,-887.9012"/>
<text text-anchor="middle" x="321.188" y="-1301.8114" font-family="Times,serif" font-size="14.00" fill="#000000">2/3 (1)</text>
</g>
<!-- 25&#45;&gt;9999 -->
<g id="edge96" class="edge">
<title>25&#45;&gt;9999</title>
<path fill="none" stroke="#000000" d="M272.1792,-2295.5633C290.6197,-2265.6239 328.3021,-2199.6181 343.188,-2138.0114 373.1404,-2014.0506 386.6837,-1090.0503 389.3041,-887.979"/>
<polygon fill="#000000" stroke="#000000" points="392.8056,-887.8785 389.4343,-877.8343 385.8061,-887.7886 392.8056,-887.8785"/>
<text text-anchor="middle" x="321.188" y="-2250.8114" font-family="Times,serif" font-size="14.00" fill="#000000">0/1 (1)</text>
</g>
<!-- 1&#45;&gt;9999 -->
<g id="edge72" class="edge">
<title>1&#45;&gt;9999</title>
<path fill="none" stroke="#000000" d="M275.3982,-950.8114C295.6057,-932.8275 333.8737,-898.7706 360.5572,-875.0234"/>
<polygon fill="#000000" stroke="#000000" points="362.9487,-877.5804 368.092,-868.3177 358.295,-872.3513 362.9487,-877.5804"/>
<text text-anchor="middle" x="321.188" y="-932.8114" font-family="Times,serif" font-size="14.00" fill="#000000">1/20 (1)</text>
</g>
<!-- 11&#45;&gt;9999 -->
<g id="edge90" class="edge">
<title>11&#45;&gt;9999</title>
<path fill="none" stroke="#000000" d="M275.874,-696.7434C292.9042,-713.6106 321.8376,-743.5036 343.188,-772.0114 353.2535,-785.4512 363.0794,-801.1756 371.0932,-814.8985"/>
<polygon fill="#000000" stroke="#000000" points="368.066,-816.6554 376.0821,-823.5832 374.1359,-813.1686 368.066,-816.6554"/>
<text text-anchor="middle" x="321.188" y="-775.8114" font-family="Times,serif" font-size="14.00" fill="#000000">1/1 (1)</text>
</g>
<!-- 10&#45;&gt;9999 -->
<g id="edge76" class="edge">
<title>10&#45;&gt;9999</title>
<path fill="none" stroke="#000000" d="M275.3655,-506.9612C293.8211,-526.6395 326.3255,-564.4701 343.188,-603.0114 373.3619,-671.9776 384.0359,-760.2132 387.7843,-810.0854"/>
<polygon fill="#000000" stroke="#000000" points="384.2971,-810.3919 388.4835,-820.1245 391.2801,-809.9054 384.2971,-810.3919"/>
<text text-anchor="middle" x="321.188" y="-606.8114" font-family="Times,serif" font-size="14.00" fill="#000000">1/1 (1)</text>
</g>
<!-- 14&#45;&gt;9999 -->
<g id="edge98" class="edge">
<title>14&#45;&gt;9999</title>
<path fill="none" stroke="#000000" d="M281.424,-849.0114C299.8033,-849.0114 327.7318,-849.0114 350.6319,-849.0114"/>
<polygon fill="#000000" stroke="#000000" points="350.7474,-852.5115 360.7473,-849.0114 350.7473,-845.5115 350.7474,-852.5115"/>
<text text-anchor="middle" x="321.188" y="-852.8114" font-family="Times,serif" font-size="14.00" fill="#000000">0/1 (1)</text>
</g>
<!-- 13&#45;&gt;9999 -->
<g id="edge99" class="edge">
<title>13&#45;&gt;9999</title>
<path fill="none" stroke="#000000" d="M279.2496,-231.2526C298.6461,-242.5122 329.0072,-263.4899 343.188,-291.0114 366.8521,-336.9376 383.347,-691.3715 388.2612,-810.2702"/>
<polygon fill="#000000" stroke="#000000" points="384.7688,-810.5284 388.6744,-820.3771 391.7629,-810.2424 384.7688,-810.5284"/>
<text text-anchor="middle" x="321.188" y="-294.8114" font-family="Times,serif" font-size="14.00" fill="#000000">0/1 (1)</text>
</g>
<!-- 20&#45;&gt;9999 -->
<g id="edge58" class="edge">
<title>20&#45;&gt;9999</title>
<path fill="none" stroke="#000000" d="M268.7754,-2017.8384C285.2926,-1974.5267 326.2328,-1861.4769 343.188,-1763.0114 372.8429,-1590.7939 385.9395,-1039.7034 389.0385,-887.9942"/>
<polygon fill="#000000" stroke="#000000" points="392.5422,-887.8406 389.2444,-877.7721 385.5436,-887.6995 392.5422,-887.8406"/>
<text text-anchor="middle" x="321.188" y="-1929.8114" font-family="Times,serif" font-size="14.00" fill="#000000">1/1 (1)</text>
</g>
<!-- 22&#45;&gt;9999 -->
<g id="edge64" class="edge">
<title>22&#45;&gt;9999</title>
<path fill="none" stroke="#000000" d="M275.9612,-421.7139C294.7885,-440.7266 327.3818,-477.0744 343.188,-515.0114 365.1508,-567.7249 380.6991,-734.0424 386.8558,-810.2203"/>
<polygon fill="#000000" stroke="#000000" points="383.3796,-810.6591 387.6619,-820.3499 390.3575,-810.1038 383.3796,-810.6591"/>
<text text-anchor="middle" x="321.188" y="-518.8114" font-family="Times,serif" font-size="14.00" fill="#000000">1/1 (1)</text>
</g>
<!-- 23&#45;&gt;9999 -->
<g id="edge97" class="edge">
<title>23&#45;&gt;9999</title>
<path fill="none" stroke="#000000" d="M272.9826,-580.485C290.0044,-605.876 322.4455,-656.5157 343.188,-703.0114 359.0422,-738.5495 371.9903,-781.1349 380.1781,-811.1157"/>
<polygon fill="#000000" stroke="#000000" points="376.9016,-812.4104 382.8727,-821.1624 383.6626,-810.597 376.9016,-812.4104"/>
<text text-anchor="middle" x="321.188" y="-706.8114" font-family="Times,serif" font-size="14.00" fill="#000000">0/1 (1)</text>
</g>
<!-- 31&#45;&gt;9999 -->
<g id="edge79" class="edge">
<title>31&#45;&gt;9999</title>
<path fill="none" stroke="#000000" d="M278.1938,-291.0984C297.5078,-305.0983 328.6895,-331.1235 343.188,-362.0114 380.4403,-441.3747 387.9136,-709.4416 389.4109,-810.2513"/>
<polygon fill="#000000" stroke="#000000" points="385.912,-810.3587 389.5485,-820.3098 392.9113,-810.2629 385.912,-810.3587"/>
<text text-anchor="middle" x="321.188" y="-365.8114" font-family="Times,serif" font-size="14.00" fill="#000000">1/1 (1)</text>
</g>
<!-- 33&#45;&gt;9999 -->
<g id="edge95" class="edge">
<title>33&#45;&gt;9999</title>
<path fill="none" stroke="#000000" d="M278.1738,-778.4349C297.9997,-790.9716 331.7557,-812.3168 356.9655,-828.258"/>
<polygon fill="#000000" stroke="#000000" points="355.1666,-831.2615 365.4892,-833.6479 358.9078,-825.3451 355.1666,-831.2615"/>
<text text-anchor="middle" x="321.188" y="-821.8114" font-family="Times,serif" font-size="14.00" fill="#000000">0/1 (1)</text>
</g>
</g>
</svg>
