<?xml version="1.0" encoding="UTF-8" standalone="no"?>
<!DOCTYPE svg PUBLIC "-//W3C//DTD SVG 1.1//EN"
 "http://www.w3.org/Graphics/SVG/1.1/DTD/svg11.dtd">
<!-- Generated by graphviz version 2.40.1 (20161225.0304)
 -->
<!-- Title: %3 Pages: 1 -->
<svg width="243pt" height="2364pt"
 viewBox="0.00 0.00 243.38 2363.87" xmlns="http://www.w3.org/2000/svg" xmlns:xlink="http://www.w3.org/1999/xlink">
<g id="graph0" class="graph" transform="scale(1 1) rotate(0) translate(4 2359.8692)">
<title>%3</title>
<polygon fill="#ffffff" stroke="transparent" points="-4,4 -4,-2359.8692 239.3829,-2359.8692 239.3829,4 -4,4"/>
<!-- U -->
<g id="node1" class="node">
<title>U</title>
<ellipse fill="none" stroke="#000000" cx="18.8483" cy="-2322.8692" rx="18" ry="18"/>
<text text-anchor="middle" x="18.8483" y="-2319.1692" font-family="Times,serif" font-size="14.00" fill="#000000">U</text>
</g>
<!-- NoOneWantsIt (7) -->
<g id="node2" class="node">
<title>NoOneWantsIt (7)</title>
<ellipse fill="none" stroke="#000000" cx="158.0398" cy="-384.8692" rx="77.1866" ry="77.1866"/>
<text text-anchor="middle" x="158.0398" y="-381.1692" font-family="Times,serif" font-size="14.00" fill="#000000">NoOneWantsIt (7)</text>
</g>
<!-- U&#45;&gt;NoOneWantsIt (7) -->
<g id="edge1" class="edge">
<title>U&#45;&gt;NoOneWantsIt (7)</title>
<path fill="none" stroke="#000000" d="M18.9297,-2304.6164C19.5092,-2200.302 23.973,-1678.7855 55.6967,-1521.8692 57.48,-1513.0483 60.932,-1511.6938 62.6967,-1502.8692 81.4937,-1408.8689 73.3299,-1167.447 80.6967,-1071.8692 97.3833,-855.3731 129.1112,-601.7747 146.2879,-471.633"/>
<polygon fill="#000000" stroke="#000000" points="149.7581,-472.0885 147.6003,-461.7158 142.8186,-471.1702 149.7581,-472.0885"/>
<text text-anchor="middle" x="59.1967" y="-1525.6692" font-family="Times,serif" font-size="14.00" fill="#000000">2</text>
</g>
<!-- WhyNot (7) -->
<g id="node3" class="node">
<title>WhyNot (7)</title>
<ellipse fill="none" stroke="#000000" cx="158.0398" cy="-1942.8692" rx="53.8905" ry="53.8905"/>
<text text-anchor="middle" x="158.0398" y="-1939.1692" font-family="Times,serif" font-size="14.00" fill="#000000">WhyNot (7)</text>
</g>
<!-- U&#45;&gt;WhyNot (7) -->
<g id="edge2" class="edge">
<title>U&#45;&gt;WhyNot (7)</title>
<path fill="none" stroke="#000000" d="M33.0132,-2334.6158C42.2055,-2340.7474 54.0396,-2345.6893 62.6967,-2338.8692 114.2517,-2298.2536 141.1701,-2108.335 152.0739,-2006.9862"/>
<polygon fill="#000000" stroke="#000000" points="155.5729,-2007.1792 153.141,-1996.8672 148.6115,-2006.445 155.5729,-2007.1792"/>
<text text-anchor="middle" x="59.1967" y="-2344.6692" font-family="Times,serif" font-size="14.00" fill="#000000">1</text>
</g>
<!-- BestChoice (7) -->
<g id="node4" class="node">
<title>BestChoice (7)</title>
<ellipse fill="none" stroke="#000000" cx="158.0398" cy="-1144.8692" rx="63.8893" ry="63.8893"/>
<text text-anchor="middle" x="158.0398" y="-1141.1692" font-family="Times,serif" font-size="14.00" fill="#000000">BestChoice (7)</text>
</g>
<!-- U&#45;&gt;BestChoice (7) -->
<g id="edge3" class="edge">
<title>U&#45;&gt;BestChoice (7)</title>
<path fill="none" stroke="#000000" d="M34.7787,-2314.1141C44.7164,-2307.7075 56.7179,-2298.0249 62.6967,-2285.8692 82.6261,-2245.3497 77.3323,-1924.8991 80.6967,-1879.8692 98.8414,-1637.0095 132.5967,-1350.2358 148.84,-1218.1693"/>
<polygon fill="#000000" stroke="#000000" points="152.3233,-1218.5191 150.0733,-1208.166 145.3759,-1217.6626 152.3233,-1218.5191"/>
<text text-anchor="middle" x="59.1967" y="-2299.6692" font-family="Times,serif" font-size="14.00" fill="#000000">0</text>
</g>
<!-- T -->
<g id="node5" class="node">
<title>T</title>
<ellipse fill="none" stroke="#000000" cx="18.8483" cy="-990.8692" rx="18" ry="18"/>
<text text-anchor="middle" x="18.8483" y="-987.1692" font-family="Times,serif" font-size="14.00" fill="#000000">T</text>
</g>
<!-- T&#45;&gt;NoOneWantsIt (7) -->
<g id="edge4" class="edge">
<title>T&#45;&gt;NoOneWantsIt (7)</title>
<path fill="none" stroke="#000000" d="M30.7126,-977.1416C33.5297,-973.119 36.1608,-968.5395 37.6967,-963.8692 49.7109,-927.3366 28.1518,-298.7068 55.6967,-271.8692 78.5702,-249.5829 102.6167,-273.4057 121.6494,-304.8245"/>
<polygon fill="#000000" stroke="#000000" points="118.8392,-306.956 126.8795,-313.8556 124.8967,-303.4479 118.8392,-306.956"/>
<text text-anchor="middle" x="59.1967" y="-275.6692" font-family="Times,serif" font-size="14.00" fill="#000000">2</text>
</g>
<!-- T&#45;&gt;WhyNot (7) -->
<g id="edge5" class="edge">
<title>T&#45;&gt;WhyNot (7)</title>
<path fill="none" stroke="#000000" d="M30.7225,-1004.5935C33.5396,-1008.6162 36.1682,-1013.1965 37.6967,-1017.8692 64.9581,-1101.2134 26.9531,-1724.0245 55.6967,-1806.8692 67.4084,-1840.6249 90.8882,-1872.8333 112.4067,-1897.4257"/>
<polygon fill="#000000" stroke="#000000" points="110.0296,-1900.018 119.3068,-1905.1349 115.2455,-1895.3494 110.0296,-1900.018"/>
<text text-anchor="middle" x="59.1967" y="-1826.6692" font-family="Times,serif" font-size="14.00" fill="#000000">1</text>
</g>
<!-- T&#45;&gt;BestChoice (7) -->
<g id="edge6" class="edge">
<title>T&#45;&gt;BestChoice (7)</title>
<path fill="none" stroke="#000000" d="M30.9572,-1004.2663C48.0909,-1023.2229 80.4184,-1058.9897 108.1791,-1089.7038"/>
<polygon fill="#000000" stroke="#000000" points="105.8244,-1092.3184 115.1264,-1097.3903 111.0176,-1087.6246 105.8244,-1092.3184"/>
<text text-anchor="middle" x="59.1967" y="-1040.6692" font-family="Times,serif" font-size="14.00" fill="#000000">0</text>
</g>
<!-- S -->
<g id="node6" class="node">
<title>S</title>
<ellipse fill="none" stroke="#000000" cx="18.8483" cy="-1476.8692" rx="18" ry="18"/>
<text text-anchor="middle" x="18.8483" y="-1473.1692" font-family="Times,serif" font-size="14.00" fill="#000000">S</text>
</g>
<!-- S&#45;&gt;NoOneWantsIt (7) -->
<g id="edge7" class="edge">
<title>S&#45;&gt;NoOneWantsIt (7)</title>
<path fill="none" stroke="#000000" d="M30.7264,-1463.1461C33.5436,-1459.1235 36.1712,-1454.5429 37.6967,-1449.8692 66.5246,-1361.5443 35.3387,-704.5218 55.6967,-613.8692 62.439,-583.846 92.9269,-517.182 118.8882,-463.4819"/>
<polygon fill="#000000" stroke="#000000" points="122.126,-464.8265 123.343,-454.3018 115.8283,-461.7704 122.126,-464.8265"/>
<text text-anchor="middle" x="59.1967" y="-617.6692" font-family="Times,serif" font-size="14.00" fill="#000000">2</text>
</g>
<!-- S&#45;&gt;WhyNot (7) -->
<g id="edge8" class="edge">
<title>S&#45;&gt;WhyNot (7)</title>
<path fill="none" stroke="#000000" d="M30.7067,-1490.5987C33.5238,-1494.6214 36.1563,-1499.2004 37.6967,-1503.8692 48.9277,-1537.9117 29.9977,-2123.8774 55.6967,-2148.8692 105.7681,-2197.5628 135.1916,-2083.571 148.8092,-2006.4571"/>
<polygon fill="#000000" stroke="#000000" points="152.3084,-2006.759 150.5482,-1996.3114 145.409,-2005.5763 152.3084,-2006.759"/>
<text text-anchor="middle" x="59.1967" y="-2155.6692" font-family="Times,serif" font-size="14.00" fill="#000000">1</text>
</g>
<!-- S&#45;&gt;BestChoice (7) -->
<g id="edge9" class="edge">
<title>S&#45;&gt;BestChoice (7)</title>
<path fill="none" stroke="#000000" d="M30.2828,-1462.6177C33.0303,-1458.6654 35.7342,-1454.2519 37.6967,-1449.8692 51.8826,-1418.188 44.566,-1406.7485 55.6967,-1373.8692 74.7693,-1317.5296 102.6244,-1256.1188 124.4605,-1211.087"/>
<polygon fill="#000000" stroke="#000000" points="127.6448,-1212.5423 128.8831,-1202.02 121.3534,-1209.4734 127.6448,-1212.5423"/>
<text text-anchor="middle" x="59.1967" y="-1377.6692" font-family="Times,serif" font-size="14.00" fill="#000000">0</text>
</g>
<!-- R -->
<g id="node7" class="node">
<title>R</title>
<ellipse fill="none" stroke="#000000" cx="18.8483" cy="-1044.8692" rx="18" ry="18"/>
<text text-anchor="middle" x="18.8483" y="-1041.1692" font-family="Times,serif" font-size="14.00" fill="#000000">R</text>
</g>
<!-- R&#45;&gt;NoOneWantsIt (7) -->
<g id="edge10" class="edge">
<title>R&#45;&gt;NoOneWantsIt (7)</title>
<path fill="none" stroke="#000000" d="M30.7144,-1031.1422C33.5315,-1027.1196 36.1621,-1022.5399 37.6967,-1017.8692 49.9776,-980.4888 27.5235,-337.3352 55.6967,-309.8692 70.5374,-295.4009 88.2941,-301.6993 104.8184,-315.4537"/>
<polygon fill="#000000" stroke="#000000" points="102.5513,-318.1226 112.3091,-322.2501 107.255,-312.9384 102.5513,-318.1226"/>
<text text-anchor="middle" x="59.1967" y="-313.6692" font-family="Times,serif" font-size="14.00" fill="#000000">2</text>
</g>
<!-- R&#45;&gt;WhyNot (7) -->
<g id="edge11" class="edge">
<title>R&#45;&gt;WhyNot (7)</title>
<path fill="none" stroke="#000000" d="M30.721,-1058.594C33.5381,-1062.6166 36.1671,-1067.1968 37.6967,-1071.8692 64.4248,-1153.5179 21.0438,-1766.2557 55.6967,-1844.8692 66.2927,-1868.9073 85.8568,-1889.9434 105.0633,-1906.2992"/>
<polygon fill="#000000" stroke="#000000" points="103.0098,-1909.1419 112.9573,-1912.7887 107.4552,-1903.7346 103.0098,-1909.1419"/>
<text text-anchor="middle" x="59.1967" y="-1858.6692" font-family="Times,serif" font-size="14.00" fill="#000000">1</text>
</g>
<!-- R&#45;&gt;BestChoice (7) -->
<g id="edge12" class="edge">
<title>R&#45;&gt;BestChoice (7)</title>
<path fill="none" stroke="#000000" d="M33.4812,-1055.3819C48.8407,-1066.4167 74.0062,-1084.4965 97.7113,-1101.5271"/>
<polygon fill="#000000" stroke="#000000" points="95.8532,-1104.5018 106.0167,-1107.494 99.9375,-1098.8168 95.8532,-1104.5018"/>
<text text-anchor="middle" x="59.1967" y="-1078.6692" font-family="Times,serif" font-size="14.00" fill="#000000">0</text>
</g>
<!-- Q -->
<g id="node8" class="node">
<title>Q</title>
<ellipse fill="none" stroke="#000000" cx="18.8483" cy="-828.8692" rx="18" ry="18"/>
<text text-anchor="middle" x="18.8483" y="-825.1692" font-family="Times,serif" font-size="14.00" fill="#000000">Q</text>
</g>
<!-- Q&#45;&gt;NoOneWantsIt (7) -->
<g id="edge13" class="edge">
<title>Q&#45;&gt;NoOneWantsIt (7)</title>
<path fill="none" stroke="#000000" d="M30.7066,-815.1396C33.5237,-811.117 36.1562,-806.538 37.6967,-801.8692 48.9111,-767.8797 30.0369,-182.8217 55.6967,-157.8692 106.3254,-108.6358 134.0136,-214.6708 147.423,-297.8615"/>
<polygon fill="#000000" stroke="#000000" points="143.9867,-298.5414 148.9881,-307.8815 150.9028,-297.4611 143.9867,-298.5414"/>
<text text-anchor="middle" x="59.1967" y="-161.6692" font-family="Times,serif" font-size="14.00" fill="#000000">2</text>
</g>
<!-- Q&#45;&gt;WhyNot (7) -->
<g id="edge14" class="edge">
<title>Q&#45;&gt;WhyNot (7)</title>
<path fill="none" stroke="#000000" d="M30.7265,-842.5922C33.5437,-846.6148 36.1713,-851.1955 37.6967,-855.8692 66.5579,-944.3001 36.7577,-1601.7961 55.6967,-1692.8692 56.7333,-1697.854 103.4809,-1811.1717 133.4306,-1883.5151"/>
<polygon fill="#000000" stroke="#000000" points="130.2977,-1885.0979 137.3574,-1892.9981 136.7652,-1882.4198 130.2977,-1885.0979"/>
<text text-anchor="middle" x="59.1967" y="-1711.6692" font-family="Times,serif" font-size="14.00" fill="#000000">1</text>
</g>
<!-- Q&#45;&gt;BestChoice (7) -->
<g id="edge15" class="edge">
<title>Q&#45;&gt;BestChoice (7)</title>
<path fill="none" stroke="#000000" d="M29.8112,-843.3552C32.5624,-847.3057 35.386,-851.6597 37.6967,-855.8692 48.8327,-876.1568 98.423,-997.3807 130.3678,-1076.2468"/>
<polygon fill="#000000" stroke="#000000" points="127.1757,-1077.6891 134.1723,-1085.6451 133.6642,-1075.0624 127.1757,-1077.6891"/>
<text text-anchor="middle" x="59.1967" y="-914.6692" font-family="Times,serif" font-size="14.00" fill="#000000">0</text>
</g>
<!-- P -->
<g id="node9" class="node">
<title>P</title>
<ellipse fill="none" stroke="#000000" cx="18.8483" cy="-1206.8692" rx="18" ry="18"/>
<text text-anchor="middle" x="18.8483" y="-1203.1692" font-family="Times,serif" font-size="14.00" fill="#000000">P</text>
</g>
<!-- P&#45;&gt;NoOneWantsIt (7) -->
<g id="edge16" class="edge">
<title>P&#45;&gt;NoOneWantsIt (7)</title>
<path fill="none" stroke="#000000" d="M30.7194,-1193.1438C33.5365,-1189.1212 36.1659,-1184.5412 37.6967,-1179.8692 50.7774,-1139.9456 31.4486,-458.1771 55.6967,-423.8692 60.4423,-417.1548 66.5047,-411.5959 73.3038,-406.9938"/>
<polygon fill="#000000" stroke="#000000" points="75.462,-409.7824 82.2662,-401.6612 71.8827,-403.7667 75.462,-409.7824"/>
<text text-anchor="middle" x="59.1967" y="-427.6692" font-family="Times,serif" font-size="14.00" fill="#000000">2</text>
</g>
<!-- P&#45;&gt;WhyNot (7) -->
<g id="edge17" class="edge">
<title>P&#45;&gt;WhyNot (7)</title>
<path fill="none" stroke="#000000" d="M30.7163,-1220.5956C33.5334,-1224.6182 36.1635,-1229.198 37.6967,-1233.8692 50.2608,-1272.1503 26.8558,-1930.7355 55.6967,-1958.8692 67.2635,-1970.1524 83.3183,-1971.5442 99.2859,-1968.598"/>
<polygon fill="#000000" stroke="#000000" points="100.2532,-1971.9657 109.1757,-1966.2526 98.6379,-1965.1546 100.2532,-1971.9657"/>
<text text-anchor="middle" x="59.1967" y="-1966.6692" font-family="Times,serif" font-size="14.00" fill="#000000">1</text>
</g>
<!-- P&#45;&gt;BestChoice (7) -->
<g id="edge18" class="edge">
<title>P&#45;&gt;BestChoice (7)</title>
<path fill="none" stroke="#000000" d="M33.8841,-1196.5604C40.4194,-1192.3252 48.2675,-1187.5597 55.6967,-1183.8692 65.9699,-1178.7659 77.0848,-1173.9021 88.0741,-1169.4482"/>
<polygon fill="#000000" stroke="#000000" points="89.6673,-1172.5817 97.6747,-1165.644 87.0886,-1166.074 89.6673,-1172.5817"/>
<text text-anchor="middle" x="59.1967" y="-1187.6692" font-family="Times,serif" font-size="14.00" fill="#000000">0</text>
</g>
<!-- O -->
<g id="node10" class="node">
<title>O</title>
<ellipse fill="none" stroke="#000000" cx="18.8483" cy="-1314.8692" rx="18" ry="18"/>
<text text-anchor="middle" x="18.8483" y="-1311.1692" font-family="Times,serif" font-size="14.00" fill="#000000">O</text>
</g>
<!-- O&#45;&gt;NoOneWantsIt (7) -->
<g id="edge19" class="edge">
<title>O&#45;&gt;NoOneWantsIt (7)</title>
<path fill="none" stroke="#000000" d="M30.7224,-1301.1448C33.5395,-1297.1222 36.1682,-1292.5419 37.6967,-1287.8692 64.9248,-1204.6309 23.6163,-581.3605 55.6967,-499.8692 63.8469,-479.1658 77.5193,-459.7662 92.2604,-443.0119"/>
<polygon fill="#000000" stroke="#000000" points="94.9501,-445.2564 99.0925,-435.5049 89.7731,-440.5448 94.9501,-445.2564"/>
<text text-anchor="middle" x="59.1967" y="-503.6692" font-family="Times,serif" font-size="14.00" fill="#000000">2</text>
</g>
<!-- O&#45;&gt;WhyNot (7) -->
<g id="edge20" class="edge">
<title>O&#45;&gt;WhyNot (7)</title>
<path fill="none" stroke="#000000" d="M30.7127,-1328.5967C33.5298,-1332.6194 36.1609,-1337.1989 37.6967,-1341.8692 49.7276,-1378.4548 28.1126,-2007.9923 55.6967,-2034.8692 79.0022,-2057.5773 106.477,-2030.0839 127.0885,-1999.3775"/>
<polygon fill="#000000" stroke="#000000" points="130.2265,-2000.97 132.7109,-1990.6705 124.3459,-1997.1727 130.2265,-2000.97"/>
<text text-anchor="middle" x="59.1967" y="-2042.6692" font-family="Times,serif" font-size="14.00" fill="#000000">1</text>
</g>
<!-- O&#45;&gt;BestChoice (7) -->
<g id="edge21" class="edge">
<title>O&#45;&gt;BestChoice (7)</title>
<path fill="none" stroke="#000000" d="M29.3202,-1300.0847C32.0752,-1296.1366 35.0235,-1291.8583 37.6967,-1287.8692 45.9323,-1275.5794 46.7519,-1271.6529 55.6967,-1259.8692 71.4615,-1239.1007 90.0738,-1217.4603 107.0739,-1198.6286"/>
<polygon fill="#000000" stroke="#000000" points="109.8593,-1200.7678 113.9971,-1191.0144 104.6801,-1196.0586 109.8593,-1200.7678"/>
<text text-anchor="middle" x="59.1967" y="-1263.6692" font-family="Times,serif" font-size="14.00" fill="#000000">0</text>
</g>
<!-- N -->
<g id="node11" class="node">
<title>N</title>
<ellipse fill="none" stroke="#000000" cx="18.8483" cy="-1584.8692" rx="18" ry="18"/>
<text text-anchor="middle" x="18.8483" y="-1581.1692" font-family="Times,serif" font-size="14.00" fill="#000000">N</text>
</g>
<!-- N&#45;&gt;NoOneWantsIt (7) -->
<g id="edge22" class="edge">
<title>N&#45;&gt;NoOneWantsIt (7)</title>
<path fill="none" stroke="#000000" d="M30.7289,-1571.1469C33.546,-1567.1243 36.1731,-1562.5435 37.6967,-1557.8692 67.5912,-1466.1531 39.1635,-784.907 55.6967,-689.8692 56.6953,-684.1286 99.9013,-556.208 129.8497,-467.8764"/>
<polygon fill="#000000" stroke="#000000" points="133.1709,-468.9805 133.0679,-458.3862 126.5417,-466.7325 133.1709,-468.9805"/>
<text text-anchor="middle" x="59.1967" y="-693.6692" font-family="Times,serif" font-size="14.00" fill="#000000">2</text>
</g>
<!-- N&#45;&gt;WhyNot (7) -->
<g id="edge23" class="edge">
<title>N&#45;&gt;WhyNot (7)</title>
<path fill="none" stroke="#000000" d="M30.7023,-1598.6002C33.5193,-1602.6228 36.1529,-1607.2015 37.6967,-1611.8692 48.3945,-1644.2163 31.2544,-2201.1341 55.6967,-2224.8692 125.7773,-2292.9222 148.1041,-2109.8859 155.0332,-2007.1525"/>
<polygon fill="#000000" stroke="#000000" points="158.5457,-2007.0692 155.6939,-1996.8654 151.5601,-2006.6205 158.5457,-2007.0692"/>
<text text-anchor="middle" x="59.1967" y="-2233.6692" font-family="Times,serif" font-size="14.00" fill="#000000">1</text>
</g>
<!-- N&#45;&gt;BestChoice (7) -->
<g id="edge24" class="edge">
<title>N&#45;&gt;BestChoice (7)</title>
<path fill="none" stroke="#000000" d="M30.4843,-1570.7039C33.2302,-1566.751 35.883,-1562.3155 37.6967,-1557.8692 56.0756,-1512.8113 43.9195,-1497.0846 55.6967,-1449.8692 58.6404,-1438.0675 104.9765,-1301.0716 134.2809,-1214.7474"/>
<polygon fill="#000000" stroke="#000000" points="137.6005,-1215.8565 137.5016,-1205.2621 130.9722,-1213.6059 137.6005,-1215.8565"/>
<text text-anchor="middle" x="59.1967" y="-1453.6692" font-family="Times,serif" font-size="14.00" fill="#000000">0</text>
</g>
<!-- M -->
<g id="node12" class="node">
<title>M</title>
<ellipse fill="none" stroke="#000000" cx="18.8483" cy="-611.8692" rx="18.6979" ry="18.6979"/>
<text text-anchor="middle" x="18.8483" y="-608.1692" font-family="Times,serif" font-size="14.00" fill="#000000">M</text>
</g>
<!-- M&#45;&gt;NoOneWantsIt (7) -->
<g id="edge25" class="edge">
<title>M&#45;&gt;NoOneWantsIt (7)</title>
<path fill="none" stroke="#000000" d="M19.2814,-592.7775C21.656,-492.0789 33.7962,-26.4784 55.6967,-5.8692 100.8809,36.651 133.5612,-173.015 148.6685,-297.6608"/>
<polygon fill="#000000" stroke="#000000" points="145.1936,-298.0804 149.8571,-307.5937 152.1441,-297.2487 145.1936,-298.0804"/>
<text text-anchor="middle" x="59.1967" y="-9.6692" font-family="Times,serif" font-size="14.00" fill="#000000">2</text>
</g>
<!-- M&#45;&gt;WhyNot (7) -->
<g id="edge26" class="edge">
<title>M&#45;&gt;WhyNot (7)</title>
<path fill="none" stroke="#000000" d="M30.9309,-626.4477C33.6733,-630.5479 36.2128,-635.1759 37.6967,-639.8692 67.8826,-735.3419 37.132,-1442.4741 55.6967,-1540.8692 57.3652,-1549.7125 60.0502,-1551.2678 62.6967,-1559.8692 96.9752,-1671.2801 127.7973,-1803.7438 144.6206,-1880.0863"/>
<polygon fill="#000000" stroke="#000000" points="141.2389,-1881.0054 146.801,-1890.0228 148.0762,-1879.505 141.2389,-1881.0054"/>
<text text-anchor="middle" x="59.1967" y="-1563.6692" font-family="Times,serif" font-size="14.00" fill="#000000">1</text>
</g>
<!-- M&#45;&gt;BestChoice (7) -->
<g id="edge27" class="edge">
<title>M&#45;&gt;BestChoice (7)</title>
<path fill="none" stroke="#000000" d="M30.6469,-626.9135C33.3233,-630.9371 35.9021,-635.4118 37.6967,-639.8692 55.0523,-682.9782 43.615,-697.9956 55.6967,-742.8692 58.0363,-751.5591 60.0502,-753.2678 62.6967,-761.8692 95.5288,-868.5792 125.1902,-994.6029 142.4171,-1072.1288"/>
<polygon fill="#000000" stroke="#000000" points="139.0835,-1073.2639 144.6614,-1082.2716 145.9182,-1071.7516 139.0835,-1073.2639"/>
<text text-anchor="middle" x="59.1967" y="-765.6692" font-family="Times,serif" font-size="14.00" fill="#000000">0</text>
</g>
<!-- L -->
<g id="node13" class="node">
<title>L</title>
<ellipse fill="none" stroke="#000000" cx="18.8483" cy="-1260.8692" rx="18" ry="18"/>
<text text-anchor="middle" x="18.8483" y="-1257.1692" font-family="Times,serif" font-size="14.00" fill="#000000">L</text>
</g>
<!-- L&#45;&gt;NoOneWantsIt (7) -->
<g id="edge28" class="edge">
<title>L&#45;&gt;NoOneWantsIt (7)</title>
<path fill="none" stroke="#000000" d="M30.7209,-1247.1443C33.5381,-1243.1217 36.1671,-1238.5415 37.6967,-1233.8692 64.3915,-1152.3265 16.4912,-538.1893 55.6967,-461.8692 62.1145,-449.3757 71.5964,-438.3596 82.2394,-428.8524"/>
<polygon fill="#000000" stroke="#000000" points="84.7588,-431.3072 90.1672,-422.1968 80.2579,-425.946 84.7588,-431.3072"/>
<text text-anchor="middle" x="59.1967" y="-465.6692" font-family="Times,serif" font-size="14.00" fill="#000000">2</text>
</g>
<!-- L&#45;&gt;WhyNot (7) -->
<g id="edge29" class="edge">
<title>L&#45;&gt;WhyNot (7)</title>
<path fill="none" stroke="#000000" d="M30.7145,-1274.5961C33.5316,-1278.6188 36.1622,-1283.1984 37.6967,-1287.8692 49.9942,-1325.3025 27.4842,-1969.3639 55.6967,-1996.8692 72.0057,-2012.7695 93.9431,-2003.9937 113.3244,-1989.2805"/>
<polygon fill="#000000" stroke="#000000" points="115.6125,-1991.9311 121.1684,-1982.9099 111.1994,-1986.4974 115.6125,-1991.9311"/>
<text text-anchor="middle" x="59.1967" y="-2005.6692" font-family="Times,serif" font-size="14.00" fill="#000000">1</text>
</g>
<!-- L&#45;&gt;BestChoice (7) -->
<g id="edge30" class="edge">
<title>L&#45;&gt;BestChoice (7)</title>
<path fill="none" stroke="#000000" d="M30.9344,-1246.9632C37.8826,-1239.2607 46.9458,-1229.6908 55.6967,-1221.8692 68.7235,-1210.2256 83.3956,-1198.4753 97.4756,-1187.7809"/>
<polygon fill="#000000" stroke="#000000" points="99.7888,-1190.4206 105.6804,-1181.6149 95.5834,-1184.8247 99.7888,-1190.4206"/>
<text text-anchor="middle" x="59.1967" y="-1225.6692" font-family="Times,serif" font-size="14.00" fill="#000000">0</text>
</g>
<!-- K -->
<g id="node14" class="node">
<title>K</title>
<ellipse fill="none" stroke="#000000" cx="18.8483" cy="-1368.8692" rx="18" ry="18"/>
<text text-anchor="middle" x="18.8483" y="-1365.1692" font-family="Times,serif" font-size="14.00" fill="#000000">K</text>
</g>
<!-- K&#45;&gt;NoOneWantsIt (7) -->
<g id="edge31" class="edge">
<title>K&#45;&gt;NoOneWantsIt (7)</title>
<path fill="none" stroke="#000000" d="M30.7238,-1355.1453C33.5409,-1351.1227 36.1692,-1346.5422 37.6967,-1341.8692 65.458,-1256.9354 28.7812,-623.0748 55.6967,-537.8692 65.3396,-507.3426 83.1071,-477.2788 101.164,-451.9899"/>
<polygon fill="#000000" stroke="#000000" points="104.2174,-453.7432 107.2874,-443.6029 98.5639,-449.6155 104.2174,-453.7432"/>
<text text-anchor="middle" x="59.1967" y="-541.6692" font-family="Times,serif" font-size="14.00" fill="#000000">2</text>
</g>
<!-- K&#45;&gt;WhyNot (7) -->
<g id="edge32" class="edge">
<title>K&#45;&gt;WhyNot (7)</title>
<path fill="none" stroke="#000000" d="M30.7108,-1382.5974C33.5279,-1386.62 36.1594,-1391.1994 37.6967,-1395.8692 49.461,-1431.6071 28.7409,-2046.6207 55.6967,-2072.8692 87.2407,-2103.5857 117.7012,-2050.9129 137.067,-2003.6983"/>
<polygon fill="#000000" stroke="#000000" points="140.3399,-2004.9397 140.7892,-1994.3544 133.8369,-2002.3491 140.3399,-2004.9397"/>
<text text-anchor="middle" x="59.1967" y="-2081.6692" font-family="Times,serif" font-size="14.00" fill="#000000">1</text>
</g>
<!-- K&#45;&gt;BestChoice (7) -->
<g id="edge33" class="edge">
<title>K&#45;&gt;BestChoice (7)</title>
<path fill="none" stroke="#000000" d="M29.8291,-1354.3929C32.5801,-1350.4424 35.3992,-1346.0859 37.6967,-1341.8692 47.8055,-1323.3157 45.7728,-1316.5223 55.6967,-1297.8692 72.7681,-1265.7814 94.8712,-1232.0061 114.1655,-1204.3761"/>
<polygon fill="#000000" stroke="#000000" points="117.162,-1206.1996 120.0546,-1196.0073 111.4373,-1202.1712 117.162,-1206.1996"/>
<text text-anchor="middle" x="59.1967" y="-1301.6692" font-family="Times,serif" font-size="14.00" fill="#000000">0</text>
</g>
<!-- J -->
<g id="node15" class="node">
<title>J</title>
<ellipse fill="none" stroke="#000000" cx="18.8483" cy="-774.8692" rx="18" ry="18"/>
<text text-anchor="middle" x="18.8483" y="-771.1692" font-family="Times,serif" font-size="14.00" fill="#000000">J</text>
</g>
<!-- J&#45;&gt;NoOneWantsIt (7) -->
<g id="edge34" class="edge">
<title>J&#45;&gt;NoOneWantsIt (7)</title>
<path fill="none" stroke="#000000" d="M30.7044,-761.1389C33.5215,-757.1163 36.1546,-752.5374 37.6967,-747.8692 48.6445,-714.7274 30.6653,-144.1934 55.6967,-119.8692 116.2223,-61.0535 141.5607,-199.277 151.7093,-297.3985"/>
<polygon fill="#000000" stroke="#000000" points="148.2272,-297.753 152.702,-307.3564 155.1927,-297.0586 148.2272,-297.753"/>
<text text-anchor="middle" x="59.1967" y="-123.6692" font-family="Times,serif" font-size="14.00" fill="#000000">2</text>
</g>
<!-- J&#45;&gt;WhyNot (7) -->
<g id="edge35" class="edge">
<title>J&#45;&gt;WhyNot (7)</title>
<path fill="none" stroke="#000000" d="M30.7278,-788.5918C33.5449,-792.6144 36.1722,-797.1952 37.6967,-801.8692 67.0912,-891.9957 38.0682,-1561.7238 55.6967,-1654.8692 57.3701,-1663.7115 59.6378,-1665.4057 62.6967,-1673.8692 88.5134,-1745.3022 117.5992,-1827.6422 136.7816,-1882.2126"/>
<polygon fill="#000000" stroke="#000000" points="133.5097,-1883.4591 140.1269,-1891.7334 140.1139,-1881.1385 133.5097,-1883.4591"/>
<text text-anchor="middle" x="59.1967" y="-1677.6692" font-family="Times,serif" font-size="14.00" fill="#000000">1</text>
</g>
<!-- J&#45;&gt;BestChoice (7) -->
<g id="edge36" class="edge">
<title>J&#45;&gt;BestChoice (7)</title>
<path fill="none" stroke="#000000" d="M30.0367,-789.2371C32.7861,-793.1885 35.5525,-797.5725 37.6967,-801.8692 49.181,-824.8831 47.3899,-832.5273 55.6967,-856.8692 81.2651,-931.7939 111.7917,-1017.2054 132.8132,-1075.4328"/>
<polygon fill="#000000" stroke="#000000" points="129.5433,-1076.6826 136.2332,-1084.8981 136.1267,-1074.3038 129.5433,-1076.6826"/>
<text text-anchor="middle" x="59.1967" y="-876.6692" font-family="Times,serif" font-size="14.00" fill="#000000">0</text>
</g>
<!-- I -->
<g id="node16" class="node">
<title>I</title>
<ellipse fill="none" stroke="#000000" cx="18.8483" cy="-720.8692" rx="18" ry="18"/>
<text text-anchor="middle" x="18.8483" y="-717.1692" font-family="Times,serif" font-size="14.00" fill="#000000">I</text>
</g>
<!-- I&#45;&gt;NoOneWantsIt (7) -->
<g id="edge37" class="edge">
<title>I&#45;&gt;NoOneWantsIt (7)</title>
<path fill="none" stroke="#000000" d="M30.7021,-707.1382C33.5192,-703.1155 36.1528,-698.5369 37.6967,-693.8692 48.3779,-661.5751 31.2936,-105.565 55.6967,-81.8692 126.2899,-13.3217 148.1907,-184.8822 154.9847,-296.9675"/>
<polygon fill="#000000" stroke="#000000" points="151.5094,-297.4994 155.5778,-307.2819 158.4978,-297.0974 151.5094,-297.4994"/>
<text text-anchor="middle" x="59.1967" y="-85.6692" font-family="Times,serif" font-size="14.00" fill="#000000">2</text>
</g>
<!-- I&#45;&gt;WhyNot (7) -->
<g id="edge38" class="edge">
<title>I&#45;&gt;WhyNot (7)</title>
<path fill="none" stroke="#000000" d="M30.729,-734.5914C33.5461,-738.614 36.1731,-743.1949 37.6967,-747.8692 67.6245,-839.6913 37.7562,-1521.9739 55.6967,-1616.8692 57.3684,-1625.7119 59.8056,-1627.3469 62.6967,-1635.8692 91.3732,-1720.4016 121.4338,-1819.1429 139.9552,-1881.3411"/>
<polygon fill="#000000" stroke="#000000" points="136.6226,-1882.4137 142.8267,-1891.002 143.3324,-1880.4193 136.6226,-1882.4137"/>
<text text-anchor="middle" x="59.1967" y="-1639.6692" font-family="Times,serif" font-size="14.00" fill="#000000">1</text>
</g>
<!-- I&#45;&gt;BestChoice (7) -->
<g id="edge39" class="edge">
<title>I&#45;&gt;BestChoice (7)</title>
<path fill="none" stroke="#000000" d="M30.2362,-735.1418C32.984,-739.0939 35.6998,-743.5021 37.6967,-747.8692 51.2338,-777.4749 46.0564,-787.7755 55.6967,-818.8692 58.3616,-827.4649 59.8056,-829.3469 62.6967,-837.8692 89.9692,-918.2627 118.4935,-1011.5079 137.1532,-1073.9483"/>
<polygon fill="#000000" stroke="#000000" points="133.8491,-1075.1162 140.0616,-1083.6985 140.557,-1073.1152 133.8491,-1075.1162"/>
<text text-anchor="middle" x="59.1967" y="-841.6692" font-family="Times,serif" font-size="14.00" fill="#000000">0</text>
</g>
<!-- H -->
<g id="node17" class="node">
<title>H</title>
<ellipse fill="none" stroke="#000000" cx="18.8483" cy="-936.8692" rx="18" ry="18"/>
<text text-anchor="middle" x="18.8483" y="-933.1692" font-family="Times,serif" font-size="14.00" fill="#000000">H</text>
</g>
<!-- H&#45;&gt;NoOneWantsIt (7) -->
<g id="edge40" class="edge">
<title>H&#45;&gt;NoOneWantsIt (7)</title>
<path fill="none" stroke="#000000" d="M30.7107,-923.141C33.5278,-919.1183 36.1593,-914.539 37.6967,-909.8692 49.4443,-874.1843 28.7802,-260.0785 55.6967,-233.8692 87.4039,-202.995 114.9909,-250.8223 133.5078,-300.6288"/>
<polygon fill="#000000" stroke="#000000" points="130.2951,-302.038 136.9736,-310.2628 136.8818,-299.6684 130.2951,-302.038"/>
<text text-anchor="middle" x="59.1967" y="-237.6692" font-family="Times,serif" font-size="14.00" fill="#000000">2</text>
</g>
<!-- H&#45;&gt;WhyNot (7) -->
<g id="edge41" class="edge">
<title>H&#45;&gt;WhyNot (7)</title>
<path fill="none" stroke="#000000" d="M30.7239,-950.5931C33.541,-954.6157 36.1693,-959.1961 37.6967,-963.8692 65.4914,-1048.909 31.2284,-1682.8133 55.6967,-1768.8692 62.7658,-1793.7317 95.6673,-1847.7122 122.2848,-1889.0003"/>
<polygon fill="#000000" stroke="#000000" points="119.4832,-1891.1132 127.8577,-1897.603 125.3582,-1887.3073 119.4832,-1891.1132"/>
<text text-anchor="middle" x="59.1967" y="-1787.6692" font-family="Times,serif" font-size="14.00" fill="#000000">1</text>
</g>
<!-- H&#45;&gt;BestChoice (7) -->
<g id="edge42" class="edge">
<title>H&#45;&gt;BestChoice (7)</title>
<path fill="none" stroke="#000000" d="M29.2787,-951.6817C32.034,-955.6297 34.9928,-959.9008 37.6967,-963.8692 64.532,-1003.2545 94.1796,-1047.8324 117.333,-1082.8933"/>
<polygon fill="#000000" stroke="#000000" points="114.6448,-1085.1743 123.0739,-1091.5931 120.4874,-1081.3189 114.6448,-1085.1743"/>
<text text-anchor="middle" x="59.1967" y="-1002.6692" font-family="Times,serif" font-size="14.00" fill="#000000">0</text>
</g>
<!-- G -->
<g id="node18" class="node">
<title>G</title>
<ellipse fill="none" stroke="#000000" cx="18.8483" cy="-1422.8692" rx="18" ry="18"/>
<text text-anchor="middle" x="18.8483" y="-1419.1692" font-family="Times,serif" font-size="14.00" fill="#000000">G</text>
</g>
<!-- G&#45;&gt;NoOneWantsIt (7) -->
<g id="edge43" class="edge">
<title>G&#45;&gt;NoOneWantsIt (7)</title>
<path fill="none" stroke="#000000" d="M30.7251,-1409.1457C33.5423,-1405.1231 36.1702,-1400.5426 37.6967,-1395.8692 65.9913,-1309.2398 32.5393,-664.011 55.6967,-575.8692 66.6243,-534.2764 88.1992,-491.7448 108.7338,-457.4062"/>
<polygon fill="#000000" stroke="#000000" points="111.7258,-459.2222 113.9249,-448.8581 105.7427,-455.5887 111.7258,-459.2222"/>
<text text-anchor="middle" x="59.1967" y="-579.6692" font-family="Times,serif" font-size="14.00" fill="#000000">2</text>
</g>
<!-- G&#45;&gt;WhyNot (7) -->
<g id="edge44" class="edge">
<title>G&#45;&gt;WhyNot (7)</title>
<path fill="none" stroke="#000000" d="M30.7088,-1436.598C33.5259,-1440.6207 36.1579,-1445.1999 37.6967,-1449.8692 49.1944,-1484.7594 29.3693,-2085.249 55.6967,-2110.8692 96.2383,-2150.3218 127.1621,-2068.3887 143.9417,-2005.6328"/>
<polygon fill="#000000" stroke="#000000" points="147.3829,-2006.3061 146.5125,-1995.747 140.6083,-2004.5442 147.3829,-2006.3061"/>
<text text-anchor="middle" x="59.1967" y="-2117.6692" font-family="Times,serif" font-size="14.00" fill="#000000">1</text>
</g>
<!-- G&#45;&gt;BestChoice (7) -->
<g id="edge45" class="edge">
<title>G&#45;&gt;BestChoice (7)</title>
<path fill="none" stroke="#000000" d="M30.1092,-1408.5369C32.858,-1404.5852 35.606,-1400.1922 37.6967,-1395.8692 49.8177,-1370.8054 45.0687,-1361.6016 55.6967,-1335.8692 73.8342,-1291.9544 98.985,-1244.8824 119.8145,-1208.4567"/>
<polygon fill="#000000" stroke="#000000" points="123.0531,-1209.8463 125.0102,-1199.4338 116.987,-1206.3532 123.0531,-1209.8463"/>
<text text-anchor="middle" x="59.1967" y="-1339.6692" font-family="Times,serif" font-size="14.00" fill="#000000">0</text>
</g>
<!-- F -->
<g id="node19" class="node">
<title>F</title>
<ellipse fill="none" stroke="#000000" cx="18.8483" cy="-1152.8692" rx="18" ry="18"/>
<text text-anchor="middle" x="18.8483" y="-1149.1692" font-family="Times,serif" font-size="14.00" fill="#000000">F</text>
</g>
<!-- F&#45;&gt;NoOneWantsIt (7) -->
<g id="edge46" class="edge">
<title>F&#45;&gt;NoOneWantsIt (7)</title>
<path fill="none" stroke="#000000" d="M30.7178,-1139.1433C33.5349,-1135.1207 36.1647,-1130.5408 37.6967,-1125.8692 50.5108,-1086.7934 26.4074,-414.7354 55.6967,-385.8692 60.3891,-381.2446 65.8691,-377.9386 71.8102,-375.6663"/>
<polygon fill="#000000" stroke="#000000" points="72.8242,-379.0167 81.4788,-372.9054 70.9021,-372.2858 72.8242,-379.0167"/>
<text text-anchor="middle" x="59.1967" y="-389.6692" font-family="Times,serif" font-size="14.00" fill="#000000">2</text>
</g>
<!-- F&#45;&gt;WhyNot (7) -->
<g id="edge47" class="edge">
<title>F&#45;&gt;WhyNot (7)</title>
<path fill="none" stroke="#000000" d="M30.7179,-1166.595C33.535,-1170.6177 36.1648,-1175.1976 37.6967,-1179.8692 50.5275,-1218.998 29.4318,-1889.154 55.6967,-1920.8692 65.2562,-1932.4124 79.2774,-1938.8016 93.8937,-1942.1595"/>
<polygon fill="#000000" stroke="#000000" points="93.5926,-1945.6626 104.0603,-1944.026 94.8567,-1938.7777 93.5926,-1945.6626"/>
<text text-anchor="middle" x="59.1967" y="-1929.6692" font-family="Times,serif" font-size="14.00" fill="#000000">1</text>
</g>
<!-- F&#45;&gt;BestChoice (7) -->
<g id="edge48" class="edge">
<title>F&#45;&gt;BestChoice (7)</title>
<path fill="none" stroke="#000000" d="M36.7477,-1148.8063C42.7389,-1147.624 49.4759,-1146.4855 55.6967,-1145.8692 64.9487,-1144.9526 74.6942,-1144.3689 84.3448,-1144.0203"/>
<polygon fill="#000000" stroke="#000000" points="84.4456,-1147.5189 94.3428,-1143.738 84.248,-1140.5217 84.4456,-1147.5189"/>
<text text-anchor="middle" x="59.1967" y="-1149.6692" font-family="Times,serif" font-size="14.00" fill="#000000">0</text>
</g>
<!-- E -->
<g id="node20" class="node">
<title>E</title>
<ellipse fill="none" stroke="#000000" cx="18.8483" cy="-666.8692" rx="18" ry="18"/>
<text text-anchor="middle" x="18.8483" y="-663.1692" font-family="Times,serif" font-size="14.00" fill="#000000">E</text>
</g>
<!-- E&#45;&gt;NoOneWantsIt (7) -->
<g id="edge49" class="edge">
<title>E&#45;&gt;NoOneWantsIt (7)</title>
<path fill="none" stroke="#000000" d="M30.6997,-653.1373C33.5167,-649.1147 36.151,-644.5363 37.6967,-639.8692 48.1113,-608.4227 31.922,-66.9367 55.6967,-43.8692 95.098,-5.6399 129.0962,-184.6563 146.218,-297.8318"/>
<polygon fill="#000000" stroke="#000000" points="142.7817,-298.5188 147.7218,-307.8914 149.7048,-297.4838 142.7817,-298.5188"/>
<text text-anchor="middle" x="59.1967" y="-47.6692" font-family="Times,serif" font-size="14.00" fill="#000000">2</text>
</g>
<!-- E&#45;&gt;WhyNot (7) -->
<g id="edge50" class="edge">
<title>E&#45;&gt;WhyNot (7)</title>
<path fill="none" stroke="#000000" d="M30.7301,-680.591C33.5473,-684.6137 36.174,-689.1946 37.6967,-693.8692 68.1578,-787.3869 37.4441,-1482.224 55.6967,-1578.8692 57.3668,-1587.7122 59.9401,-1589.3024 62.6967,-1597.8692 94.1728,-1695.6906 124.7679,-1811.0922 142.4861,-1880.5434"/>
<polygon fill="#000000" stroke="#000000" points="139.1486,-1881.6206 145.0054,-1890.4494 145.9326,-1879.8952 139.1486,-1881.6206"/>
<text text-anchor="middle" x="59.1967" y="-1601.6692" font-family="Times,serif" font-size="14.00" fill="#000000">1</text>
</g>
<!-- E&#45;&gt;BestChoice (7) -->
<g id="edge51" class="edge">
<title>E&#45;&gt;BestChoice (7)</title>
<path fill="none" stroke="#000000" d="M30.3677,-681.0834C33.1146,-685.0359 35.7969,-689.4589 37.6967,-693.8692 53.3174,-730.1335 44.8414,-742.9051 55.6967,-780.8692 58.1707,-789.5217 59.9401,-791.3024 62.6967,-799.8692 92.7668,-893.3211 122.0329,-1002.8176 140.0358,-1072.9672"/>
<polygon fill="#000000" stroke="#000000" points="136.7395,-1074.2046 142.609,-1083.025 143.5211,-1072.4695 136.7395,-1074.2046"/>
<text text-anchor="middle" x="59.1967" y="-803.6692" font-family="Times,serif" font-size="14.00" fill="#000000">0</text>
</g>
<!-- D -->
<g id="node21" class="node">
<title>D</title>
<ellipse fill="none" stroke="#000000" cx="18.8483" cy="-882.8692" rx="18" ry="18"/>
<text text-anchor="middle" x="18.8483" y="-879.1692" font-family="Times,serif" font-size="14.00" fill="#000000">D</text>
</g>
<!-- D&#45;&gt;NoOneWantsIt (7) -->
<g id="edge52" class="edge">
<title>D&#45;&gt;NoOneWantsIt (7)</title>
<path fill="none" stroke="#000000" d="M30.7087,-869.1403C33.5258,-865.1177 36.1578,-860.5385 37.6967,-855.8692 49.1777,-821.032 29.4086,-221.4501 55.6967,-195.8692 96.7338,-155.936 125.3466,-231.7868 141.6848,-298.9621"/>
<polygon fill="#000000" stroke="#000000" points="138.3022,-299.8672 144.0063,-308.7954 145.1149,-298.2587 138.3022,-299.8672"/>
<text text-anchor="middle" x="59.1967" y="-199.6692" font-family="Times,serif" font-size="14.00" fill="#000000">2</text>
</g>
<!-- D&#45;&gt;WhyNot (7) -->
<g id="edge53" class="edge">
<title>D&#45;&gt;WhyNot (7)</title>
<path fill="none" stroke="#000000" d="M30.7252,-896.5926C33.5424,-900.6153 36.1703,-905.1958 37.6967,-909.8692 66.0246,-996.6045 34.3768,-1642.1508 55.6967,-1730.8692 59.5888,-1747.0655 100.0291,-1828.6102 128.8892,-1885.7033"/>
<polygon fill="#000000" stroke="#000000" points="125.7752,-1887.3013 133.4143,-1894.6427 132.0207,-1884.1399 125.7752,-1887.3013"/>
<text text-anchor="middle" x="59.1967" y="-1749.6692" font-family="Times,serif" font-size="14.00" fill="#000000">1</text>
</g>
<!-- D&#45;&gt;BestChoice (7) -->
<g id="edge54" class="edge">
<title>D&#45;&gt;BestChoice (7)</title>
<path fill="none" stroke="#000000" d="M29.5894,-897.4827C32.3422,-901.4322 35.2222,-905.7538 37.6967,-909.8692 70.6908,-964.7424 103.5089,-1029.7005 126.5195,-1077.4"/>
<polygon fill="#000000" stroke="#000000" points="123.5029,-1079.2034 130.988,-1086.7017 129.8126,-1076.1722 123.5029,-1079.2034"/>
<text text-anchor="middle" x="59.1967" y="-951.6692" font-family="Times,serif" font-size="14.00" fill="#000000">0</text>
</g>
<!-- C -->
<g id="node22" class="node">
<title>C</title>
<ellipse fill="none" stroke="#000000" cx="18.8483" cy="-1098.8692" rx="18" ry="18"/>
<text text-anchor="middle" x="18.8483" y="-1095.1692" font-family="Times,serif" font-size="14.00" fill="#000000">C</text>
</g>
<!-- C&#45;&gt;NoOneWantsIt (7) -->
<g id="edge55" class="edge">
<title>C&#45;&gt;NoOneWantsIt (7)</title>
<path fill="none" stroke="#000000" d="M30.7161,-1085.1428C33.5333,-1081.1201 36.1634,-1076.5404 37.6967,-1071.8692 50.2442,-1033.6411 26.8951,-375.9636 55.6967,-347.8692 63.7422,-340.0211 73.575,-337.8184 83.9299,-339.0612"/>
<polygon fill="#000000" stroke="#000000" points="83.4623,-342.541 93.9765,-341.2366 84.9437,-335.6995 83.4623,-342.541"/>
<text text-anchor="middle" x="59.1967" y="-351.6692" font-family="Times,serif" font-size="14.00" fill="#000000">2</text>
</g>
<!-- C&#45;&gt;WhyNot (7) -->
<g id="edge56" class="edge">
<title>C&#45;&gt;WhyNot (7)</title>
<path fill="none" stroke="#000000" d="M30.7195,-1112.5945C33.5366,-1116.6171 36.166,-1121.1972 37.6967,-1125.8692 63.8915,-1205.8223 13.0072,-1810.3689 55.6967,-1882.8692 65.3077,-1899.1919 81.2219,-1911.5304 97.6699,-1920.6407"/>
<polygon fill="#000000" stroke="#000000" points="96.3355,-1923.8909 106.8259,-1925.3747 99.5505,-1917.6729 96.3355,-1923.8909"/>
<text text-anchor="middle" x="59.1967" y="-1893.6692" font-family="Times,serif" font-size="14.00" fill="#000000">1</text>
</g>
<!-- C&#45;&gt;BestChoice (7) -->
<g id="edge57" class="edge">
<title>C&#45;&gt;BestChoice (7)</title>
<path fill="none" stroke="#000000" d="M36.1956,-1104.6021C49.4124,-1108.97 68.5538,-1115.2959 87.7642,-1121.6445"/>
<polygon fill="#000000" stroke="#000000" points="86.8855,-1125.0402 97.4787,-1124.855 89.082,-1118.3938 86.8855,-1125.0402"/>
<text text-anchor="middle" x="59.1967" y="-1116.6692" font-family="Times,serif" font-size="14.00" fill="#000000">0</text>
</g>
<!-- B -->
<g id="node23" class="node">
<title>B</title>
<ellipse fill="none" stroke="#000000" cx="18.8483" cy="-1638.8692" rx="18" ry="18"/>
<text text-anchor="middle" x="18.8483" y="-1635.1692" font-family="Times,serif" font-size="14.00" fill="#000000">B</text>
</g>
<!-- B&#45;&gt;NoOneWantsIt (7) -->
<g id="edge58" class="edge">
<title>B&#45;&gt;NoOneWantsIt (7)</title>
<path fill="none" stroke="#000000" d="M30.7303,-1625.1474C33.5475,-1621.1248 36.1742,-1616.5439 37.6967,-1611.8692 68.2578,-1518.0336 37.3855,-820.8425 55.6967,-723.8692 57.3665,-715.0262 59.8548,-713.408 62.6967,-704.8692 89.0755,-625.6087 115.9672,-534.1855 134.436,-469.4066"/>
<polygon fill="#000000" stroke="#000000" points="137.8427,-470.2224 137.2125,-459.6463 131.1098,-468.3071 137.8427,-470.2224"/>
<text text-anchor="middle" x="59.1967" y="-727.6692" font-family="Times,serif" font-size="14.00" fill="#000000">2</text>
</g>
<!-- B&#45;&gt;WhyNot (7) -->
<g id="edge59" class="edge">
<title>B&#45;&gt;WhyNot (7)</title>
<path fill="none" stroke="#000000" d="M19.23,-1657.1862C21.4177,-1758.0042 33.0679,-2241.5373 55.6967,-2262.8692 95.5901,-2300.4764 132.0816,-2110.2912 148.655,-2006.5862"/>
<polygon fill="#000000" stroke="#000000" points="152.141,-2006.9491 150.2438,-1996.5255 145.2267,-2005.8571 152.141,-2006.9491"/>
<text text-anchor="middle" x="59.1967" y="-2270.6692" font-family="Times,serif" font-size="14.00" fill="#000000">1</text>
</g>
<!-- B&#45;&gt;BestChoice (7) -->
<g id="edge60" class="edge">
<title>B&#45;&gt;BestChoice (7)</title>
<path fill="none" stroke="#000000" d="M30.3514,-1625.0109C33.167,-1620.9877 35.8877,-1616.4407 37.6967,-1611.8692 58.187,-1560.0872 43.5547,-1542.2181 55.6967,-1487.8692 58.0264,-1477.4411 59.6156,-1475.1005 62.6967,-1464.8692 88.4934,-1379.2069 117.8369,-1280.5323 137.0759,-1215.6654"/>
<polygon fill="#000000" stroke="#000000" points="140.4696,-1216.5317 139.957,-1205.9493 133.7584,-1214.5416 140.4696,-1216.5317"/>
<text text-anchor="middle" x="59.1967" y="-1491.6692" font-family="Times,serif" font-size="14.00" fill="#000000">0</text>
</g>
<!-- A -->
<g id="node24" class="node">
<title>A</title>
<ellipse fill="none" stroke="#000000" cx="18.8483" cy="-1530.8692" rx="18" ry="18"/>
<text text-anchor="middle" x="18.8483" y="-1527.1692" font-family="Times,serif" font-size="14.00" fill="#000000">A</text>
</g>
<!-- A&#45;&gt;NoOneWantsIt (7) -->
<g id="edge61" class="edge">
<title>A&#45;&gt;NoOneWantsIt (7)</title>
<path fill="none" stroke="#000000" d="M30.7277,-1517.1466C33.5448,-1513.1239 36.1722,-1508.5432 37.6967,-1503.8692 67.0579,-1413.8487 37.4814,-744.7884 55.6967,-651.8692 59.4267,-632.8415 96.7226,-537.5922 125.2249,-466.2435"/>
<polygon fill="#000000" stroke="#000000" points="128.5432,-467.3716 129.0069,-456.7869 122.0437,-464.7722 128.5432,-467.3716"/>
<text text-anchor="middle" x="59.1967" y="-655.6692" font-family="Times,serif" font-size="14.00" fill="#000000">2</text>
</g>
<!-- A&#45;&gt;WhyNot (7) -->
<g id="edge62" class="edge">
<title>A&#45;&gt;WhyNot (7)</title>
<path fill="none" stroke="#000000" d="M30.7046,-1544.5994C33.5216,-1548.6221 36.1547,-1553.2009 37.6967,-1557.8692 48.6611,-1591.064 30.626,-2162.5057 55.6967,-2186.8692 115.649,-2245.1304 142.0827,-2097.2508 152.3563,-2006.8721"/>
<polygon fill="#000000" stroke="#000000" points="155.8614,-2007.0161 153.4731,-1996.694 148.9032,-2006.2525 155.8614,-2007.0161"/>
<text text-anchor="middle" x="59.1967" y="-2194.6692" font-family="Times,serif" font-size="14.00" fill="#000000">1</text>
</g>
<!-- A&#45;&gt;BestChoice (7) -->
<g id="edge63" class="edge">
<title>A&#45;&gt;BestChoice (7)</title>
<path fill="none" stroke="#000000" d="M30.4001,-1516.6688C33.1467,-1512.7162 35.8208,-1508.2897 37.6967,-1503.8692 53.9723,-1465.5155 44.1976,-1451.9151 55.6967,-1411.8692 66.6498,-1373.7245 103.8424,-1279.0777 130.2258,-1213.3856"/>
<polygon fill="#000000" stroke="#000000" points="133.5511,-1214.4973 134.0356,-1203.9135 127.0568,-1211.8851 133.5511,-1214.4973"/>
<text text-anchor="middle" x="59.1967" y="-1415.6692" font-family="Times,serif" font-size="14.00" fill="#000000">0</text>
</g>
</g>
</svg>
