<?xml version="1.0" encoding="UTF-8" standalone="no"?>
<!DOCTYPE svg PUBLIC "-//W3C//DTD SVG 1.1//EN"
 "http://www.w3.org/Graphics/SVG/1.1/DTD/svg11.dtd">
<!-- Generated by graphviz version 2.43.20190912.0211 (20190912.0211)
 -->
<!-- Title: finite_state_machine Pages: 1 -->
<svg width="305pt" height="1937pt"
 viewBox="0.00 0.00 304.88 1936.89" xmlns="http://www.w3.org/2000/svg" xmlns:xlink="http://www.w3.org/1999/xlink">
<g id="graph0" class="graph" transform="scale(1 1) rotate(0) translate(4 1932.89)">
<title>finite_state_machine</title>
<polygon fill="white" stroke="transparent" points="-4,4 -4,-1932.89 300.88,-1932.89 300.88,4 -4,4"/>
<!-- Floriane -->
<g id="node1" class="node">
<title>Floriane</title>
<ellipse fill="none" stroke="black" cx="61.74" cy="-343.8" rx="49.29" ry="49.29"/>
<text text-anchor="middle" x="61.74" y="-340.1" font-family="Times,serif" font-size="14.00">Floriane</text>
</g>
<!-- Karate -->
<g id="node2" class="node">
<title>Karate</title>
<ellipse fill="none" stroke="black" cx="233.18" cy="-458.8" rx="42.49" ry="42.49"/>
<text text-anchor="middle" x="233.18" y="-455.1" font-family="Times,serif" font-size="14.00">Karate</text>
</g>
<!-- Floriane&#45;&gt;Karate -->
<g id="edge1" class="edge">
<title>Floriane&#45;&gt;Karate</title>
<path fill="none" stroke="black" d="M103.33,-371.34C129.3,-388.97 162.95,-411.81 189.35,-429.73"/>
<polygon fill="black" stroke="black" points="187.41,-432.64 197.65,-435.36 191.34,-426.85 187.41,-432.64"/>
<text text-anchor="middle" x="146.49" y="-405.6" font-family="Times,serif" font-size="14.00">4</text>
</g>
<!-- Skateboard -->
<g id="node3" class="node">
<title>Skateboard</title>
<ellipse fill="none" stroke="black" cx="233.18" cy="-334.8" rx="63.89" ry="63.89"/>
<text text-anchor="middle" x="233.18" y="-331.1" font-family="Times,serif" font-size="14.00">Skateboard</text>
</g>
<!-- Floriane&#45;&gt;Skateboard -->
<g id="edge2" class="edge">
<title>Floriane&#45;&gt;Skateboard</title>
<path fill="none" stroke="black" d="M111.3,-341.22C126.28,-340.42 143.12,-339.53 159.36,-338.66"/>
<polygon fill="black" stroke="black" points="159.58,-342.16 169.38,-338.13 159.21,-335.17 159.58,-342.16"/>
<text text-anchor="middle" x="146.49" y="-343.6" font-family="Times,serif" font-size="14.00">0</text>
</g>
<!-- Natation -->
<g id="node4" class="node">
<title>Natation</title>
<ellipse fill="none" stroke="black" cx="233.18" cy="-178.8" rx="51.19" ry="51.19"/>
<text text-anchor="middle" x="233.18" y="-175.1" font-family="Times,serif" font-size="14.00">Natation</text>
</g>
<!-- Floriane&#45;&gt;Natation -->
<g id="edge3" class="edge">
<title>Floriane&#45;&gt;Natation</title>
<path fill="none" stroke="black" d="M97.77,-309.8C106.2,-301.62 115.17,-292.9 123.49,-284.8 144.76,-264.09 168.35,-241.09 188.1,-221.82"/>
<polygon fill="black" stroke="black" points="190.76,-224.12 195.47,-214.63 185.87,-219.11 190.76,-224.12"/>
<text text-anchor="middle" x="146.49" y="-268.6" font-family="Times,serif" font-size="14.00">0</text>
</g>
<!-- Florian -->
<g id="node5" class="node">
<title>Florian</title>
<ellipse fill="none" stroke="black" cx="61.74" cy="-231.8" rx="44.39" ry="44.39"/>
<text text-anchor="middle" x="61.74" y="-228.1" font-family="Times,serif" font-size="14.00">Florian</text>
</g>
<!-- Florian&#45;&gt;Natation -->
<g id="edge4" class="edge">
<title>Florian&#45;&gt;Natation</title>
<path fill="none" stroke="black" d="M104.19,-218.83C125.28,-212.24 151.26,-204.11 174.29,-196.91"/>
<polygon fill="black" stroke="black" points="175.46,-200.21 183.96,-193.88 173.37,-193.53 175.46,-200.21"/>
<text text-anchor="middle" x="146.49" y="-211.6" font-family="Times,serif" font-size="14.00">0</text>
</g>
<!-- Bernard -->
<g id="node6" class="node">
<title>Bernard</title>
<ellipse fill="none" stroke="black" cx="61.74" cy="-551.8" rx="48.99" ry="48.99"/>
<text text-anchor="middle" x="61.74" y="-548.1" font-family="Times,serif" font-size="14.00">Bernard</text>
</g>
<!-- Gym -->
<g id="node7" class="node">
<title>Gym</title>
<ellipse fill="none" stroke="black" cx="233.18" cy="-551.8" rx="32.49" ry="32.49"/>
<text text-anchor="middle" x="233.18" y="-548.1" font-family="Times,serif" font-size="14.00">Gym</text>
</g>
<!-- Bernard&#45;&gt;Gym -->
<g id="edge5" class="edge">
<title>Bernard&#45;&gt;Gym</title>
<path fill="none" stroke="black" d="M110.85,-551.8C135.9,-551.8 166.25,-551.8 190.33,-551.8"/>
<polygon fill="black" stroke="black" points="190.57,-555.3 200.57,-551.8 190.57,-548.3 190.57,-555.3"/>
<text text-anchor="middle" x="146.49" y="-555.6" font-family="Times,serif" font-size="14.00">3</text>
</g>
<!-- Carole -->
<g id="node8" class="node">
<title>Carole</title>
<ellipse fill="none" stroke="black" cx="61.74" cy="-659.8" rx="40.89" ry="40.89"/>
<text text-anchor="middle" x="61.74" y="-656.1" font-family="Times,serif" font-size="14.00">Carole</text>
</g>
<!-- Volley -->
<g id="node9" class="node">
<title>Volley</title>
<ellipse fill="none" stroke="black" cx="233.18" cy="-659.8" rx="38.19" ry="38.19"/>
<text text-anchor="middle" x="233.18" y="-656.1" font-family="Times,serif" font-size="14.00">Volley</text>
</g>
<!-- Carole&#45;&gt;Volley -->
<g id="edge6" class="edge">
<title>Carole&#45;&gt;Volley</title>
<path fill="none" stroke="black" d="M102.9,-659.8C127.33,-659.8 158.66,-659.8 184.37,-659.8"/>
<polygon fill="black" stroke="black" points="184.64,-663.3 194.64,-659.8 184.64,-656.3 184.64,-663.3"/>
<text text-anchor="middle" x="146.49" y="-663.6" font-family="Times,serif" font-size="14.00">2</text>
</g>
<!-- Clotilde -->
<g id="node10" class="node">
<title>Clotilde</title>
<ellipse fill="none" stroke="black" cx="61.74" cy="-765.8" rx="46.59" ry="46.59"/>
<text text-anchor="middle" x="61.74" y="-762.1" font-family="Times,serif" font-size="14.00">Clotilde</text>
</g>
<!-- Dance -->
<g id="node11" class="node">
<title>Dance</title>
<ellipse fill="none" stroke="black" cx="233.18" cy="-765.8" rx="39.79" ry="39.79"/>
<text text-anchor="middle" x="233.18" y="-762.1" font-family="Times,serif" font-size="14.00">Dance</text>
</g>
<!-- Clotilde&#45;&gt;Dance -->
<g id="edge7" class="edge">
<title>Clotilde&#45;&gt;Dance</title>
<path fill="none" stroke="black" d="M108.6,-765.8C131.73,-765.8 159.81,-765.8 183.35,-765.8"/>
<polygon fill="black" stroke="black" points="183.47,-769.3 193.47,-765.8 183.47,-762.3 183.47,-769.3"/>
<text text-anchor="middle" x="146.49" y="-769.6" font-family="Times,serif" font-size="14.00">1</text>
</g>
<!-- Martin -->
<g id="node12" class="node">
<title>Martin</title>
<ellipse fill="none" stroke="black" cx="61.74" cy="-1297.8" rx="42.49" ry="42.49"/>
<text text-anchor="middle" x="61.74" y="-1294.1" font-family="Times,serif" font-size="14.00">Martin</text>
</g>
<!-- Basketball -->
<g id="node13" class="node">
<title>Basketball</title>
<ellipse fill="none" stroke="black" cx="233.18" cy="-1121.8" rx="59.59" ry="59.59"/>
<text text-anchor="middle" x="233.18" y="-1118.1" font-family="Times,serif" font-size="14.00">Basketball</text>
</g>
<!-- Martin&#45;&gt;Basketball -->
<g id="edge8" class="edge">
<title>Martin&#45;&gt;Basketball</title>
<path fill="none" stroke="black" d="M95.41,-1271.97C104.74,-1264.17 114.75,-1255.39 123.49,-1246.8 145.96,-1224.71 169.11,-1198.63 188.24,-1176.02"/>
<polygon fill="black" stroke="black" points="191.08,-1178.08 194.83,-1168.18 185.72,-1173.58 191.08,-1178.08"/>
<text text-anchor="middle" x="146.49" y="-1231.6" font-family="Times,serif" font-size="14.00">1</text>
</g>
<!-- Mael -->
<g id="node14" class="node">
<title>Mael</title>
<ellipse fill="none" stroke="black" cx="61.74" cy="-1203.8" rx="33.6" ry="33.6"/>
<text text-anchor="middle" x="61.74" y="-1200.1" font-family="Times,serif" font-size="14.00">Mael</text>
</g>
<!-- Mael&#45;&gt;Basketball -->
<g id="edge9" class="edge">
<title>Mael&#45;&gt;Basketball</title>
<path fill="none" stroke="black" d="M92.65,-1189.33C113.98,-1179 143.43,-1164.75 169.79,-1151.99"/>
<polygon fill="black" stroke="black" points="171.48,-1155.06 178.96,-1147.55 168.44,-1148.76 171.48,-1155.06"/>
<text text-anchor="middle" x="146.49" y="-1169.6" font-family="Times,serif" font-size="14.00">1</text>
</g>
<!-- Axel -->
<g id="node15" class="node">
<title>Axel</title>
<ellipse fill="none" stroke="black" cx="61.74" cy="-1121.8" rx="30.59" ry="30.59"/>
<text text-anchor="middle" x="61.74" y="-1118.1" font-family="Times,serif" font-size="14.00">Axel</text>
</g>
<!-- Axel&#45;&gt;Basketball -->
<g id="edge10" class="edge">
<title>Axel&#45;&gt;Basketball</title>
<path fill="none" stroke="black" d="M92.65,-1121.8C112.19,-1121.8 138.54,-1121.8 163.09,-1121.8"/>
<polygon fill="black" stroke="black" points="163.11,-1125.3 173.11,-1121.8 163.11,-1118.3 163.11,-1125.3"/>
<text text-anchor="middle" x="146.49" y="-1125.6" font-family="Times,serif" font-size="14.00">1</text>
</g>
<!-- Aurelien -->
<g id="node16" class="node">
<title>Aurelien</title>
<ellipse fill="none" stroke="black" cx="61.74" cy="-1022.8" rx="50.09" ry="50.09"/>
<text text-anchor="middle" x="61.74" y="-1019.1" font-family="Times,serif" font-size="14.00">Aurelien</text>
</g>
<!-- Aurelien&#45;&gt;Basketball -->
<g id="edge11" class="edge">
<title>Aurelien&#45;&gt;Basketball</title>
<path fill="none" stroke="black" d="M105.5,-1047.78C125.84,-1059.66 150.5,-1074.07 172.63,-1087"/>
<polygon fill="black" stroke="black" points="170.9,-1090.04 181.3,-1092.06 174.43,-1084 170.9,-1090.04"/>
<text text-anchor="middle" x="146.49" y="-1076.6" font-family="Times,serif" font-size="14.00">1</text>
</g>
<!-- Anasthasia -->
<g id="node17" class="node">
<title>Anasthasia</title>
<ellipse fill="none" stroke="black" cx="61.74" cy="-892.8" rx="61.99" ry="61.99"/>
<text text-anchor="middle" x="61.74" y="-889.1" font-family="Times,serif" font-size="14.00">Anasthasia</text>
</g>
<!-- Anasthasia&#45;&gt;Basketball -->
<g id="edge12" class="edge">
<title>Anasthasia&#45;&gt;Basketball</title>
<path fill="none" stroke="black" d="M103.32,-938.81C110.2,-947.01 117.16,-955.56 123.49,-963.8 148.15,-995.89 173.9,-1033.14 194.15,-1063.4"/>
<polygon fill="black" stroke="black" points="191.25,-1065.36 199.7,-1071.74 197.07,-1061.48 191.25,-1065.36"/>
<text text-anchor="middle" x="146.49" y="-1001.6" font-family="Times,serif" font-size="14.00">0</text>
</g>
<!-- Dupont -->
<g id="node18" class="node">
<title>Dupont</title>
<ellipse fill="none" stroke="black" cx="61.74" cy="-1631.8" rx="44.69" ry="44.69"/>
<text text-anchor="middle" x="61.74" y="-1628.1" font-family="Times,serif" font-size="14.00">Dupont</text>
</g>
<!-- Football -->
<g id="node19" class="node">
<title>Football</title>
<ellipse fill="none" stroke="black" cx="233.18" cy="-1516.8" rx="48.19" ry="48.19"/>
<text text-anchor="middle" x="233.18" y="-1513.1" font-family="Times,serif" font-size="14.00">Football</text>
</g>
<!-- Dupont&#45;&gt;Football -->
<g id="edge13" class="edge">
<title>Dupont&#45;&gt;Football</title>
<path fill="none" stroke="black" d="M99.51,-1606.84C124.36,-1589.97 157.43,-1567.53 184.33,-1549.27"/>
<polygon fill="black" stroke="black" points="186.52,-1552.02 192.83,-1543.5 182.59,-1546.22 186.52,-1552.02"/>
<text text-anchor="middle" x="146.49" y="-1581.6" font-family="Times,serif" font-size="14.00">0</text>
</g>
<!-- Bertrand -->
<g id="node20" class="node">
<title>Bertrand</title>
<ellipse fill="none" stroke="black" cx="61.74" cy="-1516.8" rx="52.79" ry="52.79"/>
<text text-anchor="middle" x="61.74" y="-1513.1" font-family="Times,serif" font-size="14.00">Bertrand</text>
</g>
<!-- Bertrand&#45;&gt;Football -->
<g id="edge14" class="edge">
<title>Bertrand&#45;&gt;Football</title>
<path fill="none" stroke="black" d="M114.5,-1516.8C133.65,-1516.8 155.45,-1516.8 175.05,-1516.8"/>
<polygon fill="black" stroke="black" points="175.07,-1520.3 185.07,-1516.8 175.07,-1513.3 175.07,-1520.3"/>
<text text-anchor="middle" x="146.49" y="-1520.6" font-family="Times,serif" font-size="14.00">0</text>
</g>
<!-- Charlie -->
<g id="node21" class="node">
<title>Charlie</title>
<ellipse fill="none" stroke="black" cx="61.74" cy="-1401.8" rx="44.39" ry="44.39"/>
<text text-anchor="middle" x="61.74" y="-1398.1" font-family="Times,serif" font-size="14.00">Charlie</text>
</g>
<!-- Charlie&#45;&gt;Football -->
<g id="edge15" class="edge">
<title>Charlie&#45;&gt;Football</title>
<path fill="none" stroke="black" d="M98.68,-1426.19C123.66,-1443.14 157.23,-1465.92 184.45,-1484.4"/>
<polygon fill="black" stroke="black" points="182.81,-1487.52 193.05,-1490.24 186.74,-1481.73 182.81,-1487.52"/>
<text text-anchor="middle" x="146.49" y="-1463.6" font-family="Times,serif" font-size="14.00">0</text>
</g>
<!-- Caroline -->
<g id="node22" class="node">
<title>Caroline</title>
<ellipse fill="none" stroke="black" cx="61.74" cy="-1744.8" rx="50.09" ry="50.09"/>
<text text-anchor="middle" x="61.74" y="-1741.1" font-family="Times,serif" font-size="14.00">Caroline</text>
</g>
<!-- Cricket -->
<g id="node23" class="node">
<title>Cricket</title>
<ellipse fill="none" stroke="black" cx="233.18" cy="-1744.8" rx="44.39" ry="44.39"/>
<text text-anchor="middle" x="233.18" y="-1741.1" font-family="Times,serif" font-size="14.00">Cricket</text>
</g>
<!-- Caroline&#45;&gt;Cricket -->
<g id="edge16" class="edge">
<title>Caroline&#45;&gt;Cricket</title>
<path fill="none" stroke="black" d="M112.21,-1744.8C133.03,-1744.8 157.3,-1744.8 178.55,-1744.8"/>
<polygon fill="black" stroke="black" points="178.71,-1748.3 188.71,-1744.8 178.71,-1741.3 178.71,-1748.3"/>
<text text-anchor="middle" x="146.49" y="-1748.6" font-family="Times,serif" font-size="14.00">0</text>
</g>
<!-- Angele -->
<g id="node24" class="node">
<title>Angele</title>
<ellipse fill="none" stroke="black" cx="61.74" cy="-127.8" rx="42.49" ry="42.49"/>
<text text-anchor="middle" x="61.74" y="-124.1" font-family="Times,serif" font-size="14.00">Angele</text>
</g>
<!-- Angele&#45;&gt;Natation -->
<g id="edge17" class="edge">
<title>Angele&#45;&gt;Natation</title>
<path fill="none" stroke="black" d="M102.47,-139.75C123.7,-146.14 150.23,-154.13 173.76,-161.21"/>
<polygon fill="black" stroke="black" points="173.05,-164.65 183.64,-164.18 175.07,-157.95 173.05,-164.65"/>
<text text-anchor="middle" x="146.49" y="-157.6" font-family="Times,serif" font-size="14.00">0</text>
</g>
<!-- Alexis -->
<g id="node25" class="node">
<title>Alexis</title>
<ellipse fill="none" stroke="black" cx="61.74" cy="-1867.8" rx="38.19" ry="38.19"/>
<text text-anchor="middle" x="61.74" y="-1864.1" font-family="Times,serif" font-size="14.00">Alexis</text>
</g>
<!-- Athletisme -->
<g id="node26" class="node">
<title>Athletisme</title>
<ellipse fill="none" stroke="black" cx="233.18" cy="-1867.8" rx="61.19" ry="61.19"/>
<text text-anchor="middle" x="233.18" y="-1864.1" font-family="Times,serif" font-size="14.00">Athletisme</text>
</g>
<!-- Alexis&#45;&gt;Athletisme -->
<g id="edge18" class="edge">
<title>Alexis&#45;&gt;Athletisme</title>
<path fill="none" stroke="black" d="M100.35,-1867.8C118.45,-1867.8 140.75,-1867.8 161.83,-1867.8"/>
<polygon fill="black" stroke="black" points="162.06,-1871.3 172.06,-1867.8 162.06,-1864.3 162.06,-1871.3"/>
<text text-anchor="middle" x="146.49" y="-1871.6" font-family="Times,serif" font-size="14.00">0</text>
</g>
<!-- Basil -->
<g id="node27" class="node">
<title>Basil</title>
<ellipse fill="none" stroke="black" cx="61.74" cy="-33.8" rx="33.6" ry="33.6"/>
<text text-anchor="middle" x="61.74" y="-30.1" font-family="Times,serif" font-size="14.00">Basil</text>
</g>
<!-- Basil&#45;&gt;Natation -->
<g id="edge19" class="edge">
<title>Basil&#45;&gt;Natation</title>
<path fill="none" stroke="black" d="M90.25,-52.07C100.87,-59.44 112.98,-68.22 123.49,-76.8 145.88,-95.09 169.43,-116.84 188.87,-135.55"/>
<polygon fill="black" stroke="black" points="186.48,-138.11 196.1,-142.56 191.35,-133.09 186.48,-138.11"/>
<text text-anchor="middle" x="146.49" y="-104.6" font-family="Times,serif" font-size="14.00">0</text>
</g>
</g>
</svg>
