<?xml version="1.0" encoding="UTF-8" standalone="no"?>
<!DOCTYPE svg PUBLIC "-//W3C//DTD SVG 1.1//EN"
 "http://www.w3.org/Graphics/SVG/1.1/DTD/svg11.dtd">
<!-- Generated by graphviz version 2.40.1 (20161225.0304)
 -->
<!-- Title: %3 Pages: 1 -->
<svg width="304pt" height="1846pt"
 viewBox="0.00 0.00 304.48 1845.94" xmlns="http://www.w3.org/2000/svg" xmlns:xlink="http://www.w3.org/1999/xlink">
<g id="graph0" class="graph" transform="scale(1 1) rotate(0) translate(4 1841.9418)">
<title>%3</title>
<polygon fill="#ffffff" stroke="transparent" points="-4,4 -4,-1841.9418 300.4775,-1841.9418 300.4775,4 -4,4"/>
<!-- Dupont -->
<g id="node1" class="node">
<title>Dupont</title>
<ellipse fill="none" stroke="#000000" cx="49.3956" cy="-52.6453" rx="37.0935" ry="37.0935"/>
<text text-anchor="middle" x="49.3956" y="-48.9453" font-family="Times,serif" font-size="14.00" fill="#000000">Dupont</text>
</g>
<!-- Football (3) -->
<g id="node2" class="node">
<title>Football (3)</title>
<ellipse fill="none" stroke="#000000" cx="219.1344" cy="-52.6453" rx="52.7911" ry="52.7911"/>
<text text-anchor="middle" x="219.1344" y="-48.9453" font-family="Times,serif" font-size="14.00" fill="#000000">Football (3)</text>
</g>
<!-- Dupont&#45;&gt;Football (3) -->
<g id="edge1" class="edge">
<title>Dupont&#45;&gt;Football (3)</title>
<path fill="none" stroke="#ffa500" stroke-width="2" d="M86.6455,-52.6453C106.9626,-52.6453 132.663,-52.6453 156.0094,-52.6453"/>
<polygon fill="#ffa500" stroke="#ffa500" stroke-width="2" points="156.1943,-56.1454 166.1942,-52.6453 156.1942,-49.1454 156.1943,-56.1454"/>
<text text-anchor="middle" x="120.2912" y="-56.4453" font-family="Times,serif" font-size="14.00" fill="#000000">1</text>
</g>
<!-- Bertrand -->
<g id="node3" class="node">
<title>Bertrand</title>
<ellipse fill="none" stroke="#000000" cx="49.3956" cy="-169.6453" rx="41.6928" ry="41.6928"/>
<text text-anchor="middle" x="49.3956" y="-165.9453" font-family="Times,serif" font-size="14.00" fill="#000000">Bertrand</text>
</g>
<!-- Karate (3) -->
<g id="node4" class="node">
<title>Karate (3)</title>
<ellipse fill="none" stroke="#000000" cx="219.1344" cy="-169.6453" rx="46.5926" ry="46.5926"/>
<text text-anchor="middle" x="219.1344" y="-165.9453" font-family="Times,serif" font-size="14.00" fill="#000000">Karate (3)</text>
</g>
<!-- Bertrand&#45;&gt;Karate (3) -->
<g id="edge2" class="edge">
<title>Bertrand&#45;&gt;Karate (3)</title>
<path fill="none" stroke="#ffa500" stroke-width="2" d="M91.3535,-169.6453C112.733,-169.6453 139.0426,-169.6453 162.2206,-169.6453"/>
<polygon fill="#ffa500" stroke="#ffa500" stroke-width="2" points="162.2786,-173.1454 172.2786,-169.6453 162.2785,-166.1454 162.2786,-173.1454"/>
<text text-anchor="middle" x="120.2912" y="-173.4453" font-family="Times,serif" font-size="14.00" fill="#000000">1</text>
</g>
<!-- Charlie -->
<g id="node5" class="node">
<title>Charlie</title>
<ellipse fill="none" stroke="#000000" cx="49.3956" cy="-457.6453" rx="36.2938" ry="36.2938"/>
<text text-anchor="middle" x="49.3956" y="-453.9453" font-family="Times,serif" font-size="14.00" fill="#000000">Charlie</text>
</g>
<!-- Dance (10) -->
<g id="node6" class="node">
<title>Dance (10)</title>
<ellipse fill="none" stroke="#000000" cx="219.1344" cy="-364.6453" rx="50.0912" ry="50.0912"/>
<text text-anchor="middle" x="219.1344" y="-360.9453" font-family="Times,serif" font-size="14.00" fill="#000000">Dance (10)</text>
</g>
<!-- Charlie&#45;&gt;Dance (10) -->
<g id="edge3" class="edge">
<title>Charlie&#45;&gt;Dance (10)</title>
<path fill="none" stroke="#ffa500" stroke-width="2" d="M81.3222,-440.1527C105.239,-427.0487 138.4956,-408.8274 166.3469,-393.5676"/>
<polygon fill="#ffa500" stroke="#ffa500" stroke-width="2" points="168.0928,-396.602 175.181,-388.7274 164.7293,-390.4631 168.0928,-396.602"/>
<text text-anchor="middle" x="120.2912" y="-423.4453" font-family="Times,serif" font-size="14.00" fill="#000000">1</text>
</g>
<!-- Anasthasia -->
<g id="node7" class="node">
<title>Anasthasia</title>
<ellipse fill="none" stroke="#000000" cx="49.3956" cy="-1000.6453" rx="49.2915" ry="49.2915"/>
<text text-anchor="middle" x="49.3956" y="-996.9453" font-family="Times,serif" font-size="14.00" fill="#000000">Anasthasia</text>
</g>
<!-- Basketball (10) -->
<g id="node8" class="node">
<title>Basketball (10)</title>
<ellipse fill="none" stroke="#000000" cx="219.1344" cy="-743.6453" rx="64.9885" ry="64.9885"/>
<text text-anchor="middle" x="219.1344" y="-739.9453" font-family="Times,serif" font-size="14.00" fill="#000000">Basketball (10)</text>
</g>
<!-- Anasthasia&#45;&gt;Basketball (10) -->
<g id="edge4" class="edge">
<title>Anasthasia&#45;&gt;Basketball (10)</title>
<path fill="none" stroke="#ffa500" stroke-width="2" d="M82.4586,-963.6097C88.1043,-956.7904 93.7634,-949.6189 98.7912,-942.6453 129.5243,-900.019 160.1146,-849.2968 182.7629,-809.7296"/>
<polygon fill="#ffa500" stroke="#ffa500" stroke-width="2" points="185.8544,-811.3736 187.7619,-800.9519 179.7717,-807.9094 185.8544,-811.3736"/>
<text text-anchor="middle" x="120.2912" y="-921.4453" font-family="Times,serif" font-size="14.00" fill="#000000">1</text>
</g>
<!-- Caroline -->
<g id="node9" class="node">
<title>Caroline</title>
<ellipse fill="none" stroke="#000000" cx="49.3956" cy="-892.6453" rx="40.8928" ry="40.8928"/>
<text text-anchor="middle" x="49.3956" y="-888.9453" font-family="Times,serif" font-size="14.00" fill="#000000">Caroline</text>
</g>
<!-- Caroline&#45;&gt;Basketball (10) -->
<g id="edge5" class="edge">
<title>Caroline&#45;&gt;Basketball (10)</title>
<path fill="none" stroke="#ffa500" stroke-width="2" d="M80.5283,-865.3164C103.4487,-845.1965 135.2521,-817.2788 162.614,-793.26"/>
<polygon fill="#ffa500" stroke="#ffa500" stroke-width="2" points="164.9963,-795.826 170.2026,-786.5986 160.3783,-790.5653 164.9963,-795.826"/>
<text text-anchor="middle" x="120.2912" y="-835.4453" font-family="Times,serif" font-size="14.00" fill="#000000">1</text>
</g>
<!-- Alexis -->
<g id="node10" class="node">
<title>Alexis</title>
<ellipse fill="none" stroke="#000000" cx="49.3956" cy="-1101.6453" rx="33.5952" ry="33.5952"/>
<text text-anchor="middle" x="49.3956" y="-1097.9453" font-family="Times,serif" font-size="14.00" fill="#000000">Alexis</text>
</g>
<!-- Athletisme (1) -->
<g id="node11" class="node">
<title>Athletisme (1)</title>
<ellipse fill="none" stroke="#000000" cx="219.1344" cy="-1101.6453" rx="62.2891" ry="62.2891"/>
<text text-anchor="middle" x="219.1344" y="-1097.9453" font-family="Times,serif" font-size="14.00" fill="#000000">Athletisme (1)</text>
</g>
<!-- Alexis&#45;&gt;Athletisme (1) -->
<g id="edge6" class="edge">
<title>Alexis&#45;&gt;Athletisme (1)</title>
<path fill="none" stroke="#ffa500" stroke-width="2" d="M83.3368,-1101.6453C101.377,-1101.6453 124.2889,-1101.6453 146.1312,-1101.6453"/>
<polygon fill="#ffa500" stroke="#ffa500" stroke-width="2" points="146.4047,-1105.1454 156.4046,-1101.6453 146.4046,-1098.1454 146.4047,-1105.1454"/>
<text text-anchor="middle" x="120.2912" y="-1105.4453" font-family="Times,serif" font-size="14.00" fill="#000000">1</text>
</g>
<!-- Basil -->
<g id="node12" class="node">
<title>Basil</title>
<ellipse fill="none" stroke="#000000" cx="49.3956" cy="-1228.6453" rx="28.6953" ry="28.6953"/>
<text text-anchor="middle" x="49.3956" y="-1224.9453" font-family="Times,serif" font-size="14.00" fill="#000000">Basil</text>
</g>
<!-- Kayak (1) -->
<g id="node13" class="node">
<title>Kayak (1)</title>
<ellipse fill="none" stroke="#000000" cx="219.1344" cy="-1228.6453" rx="46.2923" ry="46.2923"/>
<text text-anchor="middle" x="219.1344" y="-1224.9453" font-family="Times,serif" font-size="14.00" fill="#000000">Kayak (1)</text>
</g>
<!-- Basil&#45;&gt;Kayak (1) -->
<g id="edge7" class="edge">
<title>Basil&#45;&gt;Kayak (1)</title>
<path fill="none" stroke="#ffa500" stroke-width="2" d="M78.1895,-1228.6453C101.271,-1228.6453 134.3686,-1228.6453 162.691,-1228.6453"/>
<polygon fill="#ffa500" stroke="#ffa500" stroke-width="2" points="162.8822,-1232.1454 172.8822,-1228.6453 162.8821,-1225.1454 162.8822,-1232.1454"/>
<text text-anchor="middle" x="120.2912" y="-1232.4453" font-family="Times,serif" font-size="14.00" fill="#000000">1</text>
</g>
<!-- Florian -->
<g id="node14" class="node">
<title>Florian</title>
<ellipse fill="none" stroke="#000000" cx="49.3956" cy="-1402.6453" rx="36.2938" ry="36.2938"/>
<text text-anchor="middle" x="49.3956" y="-1398.9453" font-family="Times,serif" font-size="14.00" fill="#000000">Florian</text>
</g>
<!-- Natation (2) -->
<g id="node15" class="node">
<title>Natation (2)</title>
<ellipse fill="none" stroke="#000000" cx="219.1344" cy="-1366.6453" rx="53.8905" ry="53.8905"/>
<text text-anchor="middle" x="219.1344" y="-1362.9453" font-family="Times,serif" font-size="14.00" fill="#000000">Natation (2)</text>
</g>
<!-- Florian&#45;&gt;Natation (2) -->
<g id="edge8" class="edge">
<title>Florian&#45;&gt;Natation (2)</title>
<path fill="none" stroke="#ffa500" stroke-width="2" d="M85.3928,-1395.0107C105.9141,-1390.6583 132.2184,-1385.0794 156.0609,-1380.0226"/>
<polygon fill="#ffa500" stroke="#ffa500" stroke-width="2" points="157.0482,-1383.3912 166.1044,-1377.8925 155.5958,-1376.5435 157.0482,-1383.3912"/>
<text text-anchor="middle" x="120.2912" y="-1392.4453" font-family="Times,serif" font-size="14.00" fill="#000000">1</text>
</g>
<!-- Angele -->
<g id="node16" class="node">
<title>Angele</title>
<ellipse fill="none" stroke="#000000" cx="49.3956" cy="-1311.6453" rx="36.2938" ry="36.2938"/>
<text text-anchor="middle" x="49.3956" y="-1307.9453" font-family="Times,serif" font-size="14.00" fill="#000000">Angele</text>
</g>
<!-- Angele&#45;&gt;Natation (2) -->
<g id="edge9" class="edge">
<title>Angele&#45;&gt;Natation (2)</title>
<path fill="none" stroke="#ffa500" stroke-width="2" d="M84.1544,-1322.9081C105.3893,-1329.7888 133.145,-1338.7824 157.9619,-1346.8238"/>
<polygon fill="#ffa500" stroke="#ffa500" stroke-width="2" points="157.0753,-1350.2156 167.6672,-1349.9686 159.2331,-1343.5564 157.0753,-1350.2156"/>
<text text-anchor="middle" x="120.2912" y="-1338.4453" font-family="Times,serif" font-size="14.00" fill="#000000">1</text>
</g>
<!-- Floriane -->
<g id="node17" class="node">
<title>Floriane</title>
<ellipse fill="none" stroke="#000000" cx="49.3956" cy="-1512.6453" rx="40.0939" ry="40.0939"/>
<text text-anchor="middle" x="49.3956" y="-1508.9453" font-family="Times,serif" font-size="14.00" fill="#000000">Floriane</text>
</g>
<!-- Baseball (1) -->
<g id="node18" class="node">
<title>Baseball (1)</title>
<ellipse fill="none" stroke="#000000" cx="219.1344" cy="-1512.6453" rx="53.8905" ry="53.8905"/>
<text text-anchor="middle" x="219.1344" y="-1508.9453" font-family="Times,serif" font-size="14.00" fill="#000000">Baseball (1)</text>
</g>
<!-- Floriane&#45;&gt;Baseball (1) -->
<g id="edge10" class="edge">
<title>Floriane&#45;&gt;Baseball (1)</title>
<path fill="none" stroke="#ffa500" stroke-width="2" d="M90.0523,-1512.6453C109.4414,-1512.6453 133.1019,-1512.6453 154.8446,-1512.6453"/>
<polygon fill="#ffa500" stroke="#ffa500" stroke-width="2" points="155.006,-1516.1454 165.006,-1512.6453 155.006,-1509.1454 155.006,-1516.1454"/>
<text text-anchor="middle" x="120.2912" y="-1516.4453" font-family="Times,serif" font-size="14.00" fill="#000000">1</text>
</g>
<!-- Clotilde -->
<g id="node19" class="node">
<title>Clotilde</title>
<ellipse fill="none" stroke="#000000" cx="49.3956" cy="-364.6453" rx="38.9931" ry="38.9931"/>
<text text-anchor="middle" x="49.3956" y="-360.9453" font-family="Times,serif" font-size="14.00" fill="#000000">Clotilde</text>
</g>
<!-- Clotilde&#45;&gt;Dance (10) -->
<g id="edge11" class="edge">
<title>Clotilde&#45;&gt;Dance (10)</title>
<path fill="none" stroke="#ffa500" stroke-width="2" d="M88.7637,-364.6453C109.5794,-364.6453 135.5799,-364.6453 158.8732,-364.6453"/>
<polygon fill="#ffa500" stroke="#ffa500" stroke-width="2" points="159.0107,-368.1454 169.0107,-364.6453 159.0106,-361.1454 159.0107,-368.1454"/>
<text text-anchor="middle" x="120.2912" y="-368.4453" font-family="Times,serif" font-size="14.00" fill="#000000">1</text>
</g>
<!-- Aurelien -->
<g id="node20" class="node">
<title>Aurelien</title>
<ellipse fill="none" stroke="#000000" cx="49.3956" cy="-791.6453" rx="41.6928" ry="41.6928"/>
<text text-anchor="middle" x="49.3956" y="-787.9453" font-family="Times,serif" font-size="14.00" fill="#000000">Aurelien</text>
</g>
<!-- Aurelien&#45;&gt;Basketball (10) -->
<g id="edge12" class="edge">
<title>Aurelien&#45;&gt;Basketball (10)</title>
<path fill="none" stroke="#ffa500" stroke-width="2" d="M89.6213,-780.27C106.6461,-775.4556 127.0216,-769.6937 146.5161,-764.1809"/>
<polygon fill="#ffa500" stroke="#ffa500" stroke-width="2" points="147.6309,-767.503 156.3011,-761.4138 145.726,-760.7671 147.6309,-767.503"/>
<text text-anchor="middle" x="120.2912" y="-776.4453" font-family="Times,serif" font-size="14.00" fill="#000000">1</text>
</g>
<!-- Martin -->
<g id="node21" class="node">
<title>Martin</title>
<ellipse fill="none" stroke="#000000" cx="49.3956" cy="-696.6453" rx="35.194" ry="35.194"/>
<text text-anchor="middle" x="49.3956" y="-692.9453" font-family="Times,serif" font-size="14.00" fill="#000000">Martin</text>
</g>
<!-- Martin&#45;&gt;Basketball (10) -->
<g id="edge13" class="edge">
<title>Martin&#45;&gt;Basketball (10)</title>
<path fill="none" stroke="#ffa500" stroke-width="2" d="M83.3368,-706.0435C101.5402,-711.084 124.704,-717.4979 146.7239,-723.5952"/>
<polygon fill="#ffa500" stroke="#ffa500" stroke-width="2" points="145.8333,-726.9802 156.4046,-726.2757 147.7013,-720.234 145.8333,-726.9802"/>
<text text-anchor="middle" x="120.2912" y="-720.4453" font-family="Times,serif" font-size="14.00" fill="#000000">1</text>
</g>
<!-- Mael -->
<g id="node22" class="node">
<title>Mael</title>
<ellipse fill="none" stroke="#000000" cx="49.3956" cy="-614.6453" rx="29.4969" ry="29.4969"/>
<text text-anchor="middle" x="49.3956" y="-610.9453" font-family="Times,serif" font-size="14.00" fill="#000000">Mael</text>
</g>
<!-- Mael&#45;&gt;Basketball (10) -->
<g id="edge14" class="edge">
<title>Mael&#45;&gt;Basketball (10)</title>
<path fill="none" stroke="#ffa500" stroke-width="2" d="M72.9971,-632.5822C95.1454,-649.4148 129.2141,-675.3067 158.8868,-697.8577"/>
<polygon fill="#ffa500" stroke="#ffa500" stroke-width="2" points="157.0464,-700.8551 167.1259,-704.1193 161.282,-695.2819 157.0464,-700.8551"/>
<text text-anchor="middle" x="120.2912" y="-671.4453" font-family="Times,serif" font-size="14.00" fill="#000000">1</text>
</g>
<!-- Axel -->
<g id="node23" class="node">
<title>Axel</title>
<ellipse fill="none" stroke="#000000" cx="49.3956" cy="-539.6453" rx="27.8951" ry="27.8951"/>
<text text-anchor="middle" x="49.3956" y="-535.9453" font-family="Times,serif" font-size="14.00" fill="#000000">Axel</text>
</g>
<!-- Axel&#45;&gt;Basketball (10) -->
<g id="edge15" class="edge">
<title>Axel&#45;&gt;Basketball (10)</title>
<path fill="none" stroke="#ffa500" stroke-width="2" d="M72.9524,-555.0572C81.5537,-561.2422 91.0599,-568.7699 98.7912,-576.6453 129.2418,-607.6635 157.9232,-646.9054 179.6427,-679.5545"/>
<polygon fill="#ffa500" stroke="#ffa500" stroke-width="2" points="176.8723,-681.7114 185.2949,-688.1388 182.7187,-677.8619 176.8723,-681.7114"/>
<text text-anchor="middle" x="120.2912" y="-605.4453" font-family="Times,serif" font-size="14.00" fill="#000000">1</text>
</g>
<!-- Gatwick -->
<g id="node24" class="node">
<title>Gatwick</title>
<ellipse fill="none" stroke="#000000" cx="49.3956" cy="-1661.6453" rx="40.0939" ry="40.0939"/>
<text text-anchor="middle" x="49.3956" y="-1657.9453" font-family="Times,serif" font-size="14.00" fill="#000000">Gatwick</text>
</g>
<!-- PlancheAVoile (1) -->
<g id="node25" class="node">
<title>PlancheAVoile (1)</title>
<ellipse fill="none" stroke="#000000" cx="219.1344" cy="-1661.6453" rx="77.1866" ry="77.1866"/>
<text text-anchor="middle" x="219.1344" y="-1657.9453" font-family="Times,serif" font-size="14.00" fill="#000000">PlancheAVoile (1)</text>
</g>
<!-- Gatwick&#45;&gt;PlancheAVoile (1) -->
<g id="edge16" class="edge">
<title>Gatwick&#45;&gt;PlancheAVoile (1)</title>
<path fill="none" stroke="#ffa500" stroke-width="2" d="M90.0523,-1661.6453C102.643,-1661.6453 117.0349,-1661.6453 131.5332,-1661.6453"/>
<polygon fill="#ffa500" stroke="#ffa500" stroke-width="2" points="131.5666,-1665.1454 141.5666,-1661.6453 131.5666,-1658.1454 131.5666,-1665.1454"/>
<text text-anchor="middle" x="120.2912" y="-1665.4453" font-family="Times,serif" font-size="14.00" fill="#000000">1</text>
</g>
<!-- Laurent -->
<g id="node26" class="node">
<title>Laurent</title>
<ellipse fill="none" stroke="#000000" cx="49.3956" cy="-1797.6453" rx="38.1938" ry="38.1938"/>
<text text-anchor="middle" x="49.3956" y="-1793.9453" font-family="Times,serif" font-size="14.00" fill="#000000">Laurent</text>
</g>
<!-- Judo (1) -->
<g id="node27" class="node">
<title>Judo (1)</title>
<ellipse fill="none" stroke="#000000" cx="219.1344" cy="-1797.6453" rx="40.0939" ry="40.0939"/>
<text text-anchor="middle" x="219.1344" y="-1793.9453" font-family="Times,serif" font-size="14.00" fill="#000000">Judo (1)</text>
</g>
<!-- Laurent&#45;&gt;Judo (1) -->
<g id="edge17" class="edge">
<title>Laurent&#45;&gt;Judo (1)</title>
<path fill="none" stroke="#ffa500" stroke-width="2" d="M87.912,-1797.6453C111.831,-1797.6453 142.8358,-1797.6453 168.7015,-1797.6453"/>
<polygon fill="#ffa500" stroke="#ffa500" stroke-width="2" points="168.7018,-1801.1454 178.7018,-1797.6453 168.7017,-1794.1454 168.7018,-1801.1454"/>
<text text-anchor="middle" x="120.2912" y="-1801.4453" font-family="Times,serif" font-size="14.00" fill="#000000">1</text>
</g>
<!-- Bernard -->
<g id="node28" class="node">
<title>Bernard</title>
<ellipse fill="none" stroke="#000000" cx="49.3956" cy="-268.6453" rx="38.9931" ry="38.9931"/>
<text text-anchor="middle" x="49.3956" y="-264.9453" font-family="Times,serif" font-size="14.00" fill="#000000">Bernard</text>
</g>
<!-- Bernard&#45;&gt;Dance (10) -->
<g id="edge18" class="edge">
<title>Bernard&#45;&gt;Dance (10)</title>
<path fill="none" stroke="#ffa500" stroke-width="2" d="M83.7448,-288.0724C107.5048,-301.5104 139.5707,-319.6461 166.532,-334.8947"/>
<polygon fill="#ffa500" stroke="#ffa500" stroke-width="2" points="165.033,-338.0679 175.4603,-339.9444 168.4791,-331.9749 165.033,-338.0679"/>
<text text-anchor="middle" x="120.2912" y="-312.4453" font-family="Times,serif" font-size="14.00" fill="#000000">1</text>
</g>
</g>
</svg>
