<?xml version="1.0" encoding="UTF-8" standalone="no"?>
<!DOCTYPE svg PUBLIC "-//W3C//DTD SVG 1.1//EN"
 "http://www.w3.org/Graphics/SVG/1.1/DTD/svg11.dtd">
<!-- Generated by graphviz version 2.40.1 (20161225.0304)
 -->
<!-- Title: finite_state_machine Pages: 1 -->
<svg width="426pt" height="2403pt"
 viewBox="0.00 0.00 426.38 2403.06" xmlns="http://www.w3.org/2000/svg" xmlns:xlink="http://www.w3.org/1999/xlink">
<g id="graph0" class="graph" transform="scale(1 1) rotate(0) translate(4 2399.056)">
<title>finite_state_machine</title>
<polygon fill="#ffffff" stroke="transparent" points="-4,4 -4,-2399.056 422.3829,-2399.056 422.3829,4 -4,4"/>
<!-- 2 -->
<g id="node1" class="node">
<title>2</title>
<ellipse fill="none" stroke="#000000" cx="261.6897" cy="-1810.5577" rx="18" ry="18"/>
<text text-anchor="middle" x="261.6897" y="-1806.8577" font-family="Times,serif" font-size="14.00" fill="#000000">2</text>
</g>
<!-- 9999 -->
<g id="node2" class="node">
<title>9999</title>
<ellipse fill="none" stroke="#000000" cx="389.7855" cy="-985.5577" rx="28.6953" ry="28.6953"/>
<text text-anchor="middle" x="389.7855" y="-981.8577" font-family="Times,serif" font-size="14.00" fill="#000000">9999</text>
</g>
<!-- 2&#45;&gt;9999 -->
<g id="edge1" class="edge">
<title>2&#45;&gt;9999</title>
<path fill="none" stroke="#000000" d="M267.9516,-1793.416C283.5405,-1749.9606 324.1961,-1631.6828 343.188,-1529.5577 377.9527,-1342.6176 386.8463,-1114.6293 389.0675,-1024.7016"/>
<polygon fill="#000000" stroke="#000000" points="392.5728,-1024.51 389.3066,-1014.4312 385.5747,-1024.347 392.5728,-1024.51"/>
<text text-anchor="middle" x="321.188" y="-1701.3577" font-family="Times,serif" font-size="14.00" fill="#000000">1/3 (1)</text>
</g>
<!-- 7 -->
<g id="node3" class="node">
<title>7</title>
<ellipse fill="none" stroke="#000000" cx="149.6932" cy="-1487.5577" rx="18" ry="18"/>
<text text-anchor="middle" x="149.6932" y="-1483.8577" font-family="Times,serif" font-size="14.00" fill="#000000">7</text>
</g>
<!-- 7&#45;&gt;2 -->
<g id="edge2" class="edge">
<title>7&#45;&gt;2</title>
<path fill="none" stroke="#000000" d="M152.8081,-1505.5977C156.9731,-1530.1771 164.3876,-1575.5925 169.1915,-1614.5577 171.8268,-1635.9334 171.5658,-1792.7353 187.1915,-1807.5577 199.3236,-1819.0663 218.1828,-1819.7235 233.89,-1817.5506"/>
<polygon fill="#000000" stroke="#000000" points="234.9239,-1820.9203 244.1393,-1815.6927 233.6753,-1814.0326 234.9239,-1820.9203"/>
<text text-anchor="middle" x="205.6915" y="-1821.3577" font-family="Times,serif" font-size="14.00" fill="#000000">1/1 (1)</text>
</g>
<!-- 3 -->
<g id="node4" class="node">
<title>3</title>
<ellipse fill="none" stroke="#000000" cx="261.6897" cy="-1259.5577" rx="18" ry="18"/>
<text text-anchor="middle" x="261.6897" y="-1255.8577" font-family="Times,serif" font-size="14.00" fill="#000000">3</text>
</g>
<!-- 7&#45;&gt;3 -->
<g id="edge3" class="edge">
<title>7&#45;&gt;3</title>
<path fill="none" stroke="#000000" d="M167.8268,-1487.3231C184.9119,-1486.0744 209.9526,-1481.4093 224.1915,-1465.5577 235.9807,-1452.4332 251.4528,-1340.7581 258.2431,-1287.5421"/>
<polygon fill="#000000" stroke="#000000" points="261.7399,-1287.7865 259.5189,-1277.4271 254.7949,-1286.9105 261.7399,-1287.7865"/>
<text text-anchor="middle" x="205.6915" y="-1487.3577" font-family="Times,serif" font-size="14.00" fill="#000000">0/1 (4)</text>
</g>
<!-- 6 -->
<g id="node5" class="node">
<title>6</title>
<ellipse fill="none" stroke="#000000" cx="261.6897" cy="-309.5577" rx="18" ry="18"/>
<text text-anchor="middle" x="261.6897" y="-305.8577" font-family="Times,serif" font-size="14.00" fill="#000000">6</text>
</g>
<!-- 7&#45;&gt;6 -->
<g id="edge4" class="edge">
<title>7&#45;&gt;6</title>
<path fill="none" stroke="#000000" d="M154.6831,-1469.9407C159.3356,-1452.6767 166.0195,-1425.5379 169.1915,-1401.5577 175.7388,-1352.0599 160.3226,-994.6406 187.1915,-952.5577 197.1395,-936.9768 214.304,-949.1771 224.1915,-933.5577 257.3111,-881.2383 232.4638,-437.7101 242.1915,-376.5577 244.3474,-363.0047 248.4133,-348.3269 252.2766,-336.1736"/>
<polygon fill="#000000" stroke="#000000" points="255.613,-337.232 255.4278,-326.6387 248.9665,-335.0353 255.613,-337.232"/>
<text text-anchor="middle" x="205.6915" y="-956.3577" font-family="Times,serif" font-size="14.00" fill="#000000">0/1 (3)</text>
</g>
<!-- 5 -->
<g id="node6" class="node">
<title>5</title>
<ellipse fill="none" stroke="#000000" cx="261.6897" cy="-1620.5577" rx="18" ry="18"/>
<text text-anchor="middle" x="261.6897" y="-1616.8577" font-family="Times,serif" font-size="14.00" fill="#000000">5</text>
</g>
<!-- 7&#45;&gt;5 -->
<g id="edge5" class="edge">
<title>7&#45;&gt;5</title>
<path fill="none" stroke="#000000" d="M152.4227,-1505.5697C158.8761,-1546.9761 175.415,-1646.12 187.1915,-1655.5577 200.0236,-1665.8415 208.8927,-1661.5882 224.1915,-1655.5577 231.3682,-1652.7288 237.9816,-1647.8069 243.5912,-1642.5323"/>
<polygon fill="#000000" stroke="#000000" points="246.1572,-1644.9135 250.577,-1635.2846 241.1172,-1640.0557 246.1572,-1644.9135"/>
<text text-anchor="middle" x="205.6915" y="-1665.3577" font-family="Times,serif" font-size="14.00" fill="#000000">0/1 (2)</text>
</g>
<!-- 4 -->
<g id="node7" class="node">
<title>4</title>
<ellipse fill="none" stroke="#000000" cx="261.6897" cy="-2076.5577" rx="18" ry="18"/>
<text text-anchor="middle" x="261.6897" y="-2072.8577" font-family="Times,serif" font-size="14.00" fill="#000000">4</text>
</g>
<!-- 7&#45;&gt;4 -->
<g id="edge6" class="edge">
<title>7&#45;&gt;4</title>
<path fill="none" stroke="#000000" d="M153.0954,-1505.5659C157.586,-1530.1094 165.3683,-1575.4841 169.1915,-1614.5577 173.7509,-1661.1557 161.9428,-1996.1285 187.1915,-2035.5577 197.1602,-2051.1254 207.9907,-2045.6548 224.1915,-2054.5577 228.5118,-2056.9319 233.0684,-2059.5266 237.4595,-2062.0748"/>
<polygon fill="#000000" stroke="#000000" points="235.7161,-2065.1099 246.1118,-2067.1544 239.2601,-2059.0733 235.7161,-2065.1099"/>
<text text-anchor="middle" x="205.6915" y="-2058.3577" font-family="Times,serif" font-size="14.00" fill="#000000">0/1 (1)</text>
</g>
<!-- 1 -->
<g id="node8" class="node">
<title>1</title>
<ellipse fill="none" stroke="#000000" cx="261.6897" cy="-985.5577" rx="18" ry="18"/>
<text text-anchor="middle" x="261.6897" y="-981.8577" font-family="Times,serif" font-size="14.00" fill="#000000">1</text>
</g>
<!-- 7&#45;&gt;1 -->
<g id="edge7" class="edge">
<title>7&#45;&gt;1</title>
<path fill="none" stroke="#000000" d="M153.986,-1469.8247C158.1215,-1452.4748 164.4337,-1425.2742 169.1915,-1401.5577 178.332,-1355.994 163.3181,-1338.4284 187.1915,-1298.5577 197.925,-1280.6319 214.3958,-1288.0128 224.1915,-1269.5577 251.0328,-1218.9888 222.6848,-1066.3831 242.1915,-1012.5577 242.7739,-1010.9507 243.4818,-1009.3548 244.2784,-1007.7888"/>
<polygon fill="#000000" stroke="#000000" points="247.2598,-1009.6222 249.5558,-999.2791 241.3109,-1005.9329 247.2598,-1009.6222"/>
<text text-anchor="middle" x="205.6915" y="-1302.3577" font-family="Times,serif" font-size="14.00" fill="#000000">0/1 (1)</text>
</g>
<!-- 3&#45;&gt;9999 -->
<g id="edge26" class="edge">
<title>3&#45;&gt;9999</title>
<path fill="none" stroke="#000000" d="M270.1731,-1243.6479C285.4322,-1214.8279 318.2413,-1151.9262 343.188,-1097.5577 354.6641,-1072.5468 366.5646,-1043.8897 375.4665,-1021.8242"/>
<polygon fill="#000000" stroke="#000000" points="378.7344,-1023.0787 379.2104,-1012.4946 372.2379,-1020.4717 378.7344,-1023.0787"/>
<text text-anchor="middle" x="321.188" y="-1189.3577" font-family="Times,serif" font-size="14.00" fill="#000000">1/3 (1)</text>
</g>
<!-- 6&#45;&gt;9999 -->
<g id="edge41" class="edge">
<title>6&#45;&gt;9999</title>
<path fill="none" stroke="#000000" d="M274.0357,-323.0574C292.7622,-344.4524 327.7929,-388.28 343.188,-432.5577 376.2976,-527.7841 386.4144,-836.8915 389.0043,-946.5418"/>
<polygon fill="#000000" stroke="#000000" points="385.5114,-946.8994 389.2385,-956.817 392.5096,-946.7398 385.5114,-946.8994"/>
<text text-anchor="middle" x="321.188" y="-436.3577" font-family="Times,serif" font-size="14.00" fill="#000000">6/10 (1)</text>
</g>
<!-- 5&#45;&gt;9999 -->
<g id="edge34" class="edge">
<title>5&#45;&gt;9999</title>
<path fill="none" stroke="#000000" d="M268.2322,-1603.7097C283.7469,-1563.0705 322.9779,-1456.1638 343.188,-1363.5577 369.8192,-1241.5295 382.5197,-1093.7806 387.3483,-1024.7063"/>
<polygon fill="#000000" stroke="#000000" points="390.8685,-1024.5267 388.0565,-1014.3118 383.8847,-1024.0507 390.8685,-1024.5267"/>
<text text-anchor="middle" x="321.188" y="-1514.3577" font-family="Times,serif" font-size="14.00" fill="#000000">3/10 (1)</text>
</g>
<!-- 4&#45;&gt;9999 -->
<g id="edge58" class="edge">
<title>4&#45;&gt;9999</title>
<path fill="none" stroke="#000000" d="M266.6744,-2059.1363C281.245,-2007.4206 323.9448,-1850.0698 343.188,-1716.5577 381.0226,-1454.0563 388.1379,-1134.1045 389.4758,-1024.5266"/>
<polygon fill="#000000" stroke="#000000" points="392.9781,-1024.3285 389.5911,-1014.2896 385.9786,-1024.2495 392.9781,-1024.3285"/>
<text text-anchor="middle" x="321.188" y="-1934.3577" font-family="Times,serif" font-size="14.00" fill="#000000">2/2 (1)</text>
</g>
<!-- 1&#45;&gt;9999 -->
<g id="edge99" class="edge">
<title>1&#45;&gt;9999</title>
<path fill="none" stroke="#000000" d="M279.771,-985.5577C298.1538,-985.5577 327.2141,-985.5577 350.8518,-985.5577"/>
<polygon fill="#000000" stroke="#000000" points="350.9373,-989.0578 360.9372,-985.5577 350.9372,-982.0578 350.9373,-989.0578"/>
<text text-anchor="middle" x="321.188" y="-989.3577" font-family="Times,serif" font-size="14.00" fill="#000000">0/20 (1)</text>
</g>
<!-- 9998 -->
<g id="node9" class="node">
<title>9998</title>
<ellipse fill="none" stroke="#000000" cx="28.5975" cy="-1035.5577" rx="28.6953" ry="28.6953"/>
<text text-anchor="middle" x="28.5975" y="-1031.8577" font-family="Times,serif" font-size="14.00" fill="#000000">9998</text>
</g>
<!-- 9998&#45;&gt;7 -->
<g id="edge8" class="edge">
<title>9998&#45;&gt;7</title>
<path fill="none" stroke="#000000" d="M32.1433,-1064.1215C38.4038,-1111.5293 52.8998,-1209.2038 75.1949,-1289.5577 92.6975,-1352.6388 121.9424,-1423.8641 138.0934,-1461.3124"/>
<polygon fill="#000000" stroke="#000000" points="135.084,-1463.1689 142.281,-1470.9442 141.5036,-1460.3779 135.084,-1463.1689"/>
<text text-anchor="middle" x="93.6949" y="-1396.3577" font-family="Times,serif" font-size="14.00" fill="#000000">1/1 (1)</text>
</g>
<!-- 8 -->
<g id="node10" class="node">
<title>8</title>
<ellipse fill="none" stroke="#000000" cx="149.6932" cy="-1209.5577" rx="18" ry="18"/>
<text text-anchor="middle" x="149.6932" y="-1205.8577" font-family="Times,serif" font-size="14.00" fill="#000000">8</text>
</g>
<!-- 9998&#45;&gt;8 -->
<g id="edge9" class="edge">
<title>9998&#45;&gt;8</title>
<path fill="none" stroke="#000000" d="M45.1814,-1059.3869C68.3913,-1092.7367 110.301,-1152.956 133.3699,-1186.1032"/>
<polygon fill="#000000" stroke="#000000" points="130.7606,-1188.4811 139.3458,-1194.6897 136.5062,-1184.4825 130.7606,-1188.4811"/>
<text text-anchor="middle" x="93.6949" y="-1156.3577" font-family="Times,serif" font-size="14.00" fill="#000000">1/1 (1)</text>
</g>
<!-- 12 -->
<g id="node11" class="node">
<title>12</title>
<ellipse fill="none" stroke="#000000" cx="149.6932" cy="-1373.5577" rx="19.4965" ry="19.4965"/>
<text text-anchor="middle" x="149.6932" y="-1369.8577" font-family="Times,serif" font-size="14.00" fill="#000000">12</text>
</g>
<!-- 9998&#45;&gt;12 -->
<g id="edge10" class="edge">
<title>9998&#45;&gt;12</title>
<path fill="none" stroke="#000000" d="M37.6958,-1062.716C46.9565,-1090.2141 61.8132,-1133.9329 75.1949,-1171.5577 97.386,-1233.9516 124.5428,-1306.7325 139.1638,-1345.64"/>
<polygon fill="#000000" stroke="#000000" points="135.9736,-1347.1002 142.7706,-1355.2274 142.5253,-1344.6354 135.9736,-1347.1002"/>
<text text-anchor="middle" x="93.6949" y="-1274.3577" font-family="Times,serif" font-size="14.00" fill="#000000">1/1 (1)</text>
</g>
<!-- 15 -->
<g id="node12" class="node">
<title>15</title>
<ellipse fill="none" stroke="#000000" cx="149.6932" cy="-129.5577" rx="19.4965" ry="19.4965"/>
<text text-anchor="middle" x="149.6932" y="-125.8577" font-family="Times,serif" font-size="14.00" fill="#000000">15</text>
</g>
<!-- 9998&#45;&gt;15 -->
<g id="edge11" class="edge">
<title>9998&#45;&gt;15</title>
<path fill="none" stroke="#000000" d="M29.8316,-1006.925C33.6974,-922.6029 47.0299,-667.9729 75.1949,-458.5577 92.7395,-328.1092 87.4884,-292.0599 130.1949,-167.5577 131.537,-163.6453 133.2199,-159.6337 135.0314,-155.7519"/>
<polygon fill="#000000" stroke="#000000" points="138.3175,-157.0075 139.6786,-146.5004 132.0623,-153.8654 138.3175,-157.0075"/>
<text text-anchor="middle" x="93.6949" y="-462.3577" font-family="Times,serif" font-size="14.00" fill="#000000">1/1 (1)</text>
</g>
<!-- 16 -->
<g id="node13" class="node">
<title>16</title>
<ellipse fill="none" stroke="#000000" cx="149.6932" cy="-195.5577" rx="19.4965" ry="19.4965"/>
<text text-anchor="middle" x="149.6932" y="-191.8577" font-family="Times,serif" font-size="14.00" fill="#000000">16</text>
</g>
<!-- 9998&#45;&gt;16 -->
<g id="edge12" class="edge">
<title>9998&#45;&gt;16</title>
<path fill="none" stroke="#000000" d="M31.0053,-1006.8881C36.6789,-941.931 52.1658,-778.6787 75.1949,-643.5577 87.8946,-569.044 98.9784,-551.9816 112.1949,-477.5577 128.4402,-386.0783 141.0588,-276.7672 146.6085,-225.2292"/>
<polygon fill="#000000" stroke="#000000" points="150.1047,-225.4503 147.6842,-215.1357 143.1441,-224.7084 150.1047,-225.4503"/>
<text text-anchor="middle" x="93.6949" y="-647.3577" font-family="Times,serif" font-size="14.00" fill="#000000">1/1 (1)</text>
</g>
<!-- 17 -->
<g id="node14" class="node">
<title>17</title>
<ellipse fill="none" stroke="#000000" cx="149.6932" cy="-2294.5577" rx="19.4965" ry="19.4965"/>
<text text-anchor="middle" x="149.6932" y="-2290.8577" font-family="Times,serif" font-size="14.00" fill="#000000">17</text>
</g>
<!-- 9998&#45;&gt;17 -->
<g id="edge13" class="edge">
<title>9998&#45;&gt;17</title>
<path fill="none" stroke="#000000" d="M29.1793,-1064.3014C32.5435,-1226.2642 50.2281,-2021.4649 75.1949,-2127.5577 87.5853,-2180.2086 116.4807,-2236.747 134.424,-2268.678"/>
<polygon fill="#000000" stroke="#000000" points="131.6141,-2270.8158 139.6106,-2277.7661 137.6937,-2267.3461 131.6141,-2270.8158"/>
<text text-anchor="middle" x="93.6949" y="-2228.3577" font-family="Times,serif" font-size="14.00" fill="#000000">1/1 (1)</text>
</g>
<!-- 18 -->
<g id="node15" class="node">
<title>18</title>
<ellipse fill="none" stroke="#000000" cx="149.6932" cy="-2375.5577" rx="19.4965" ry="19.4965"/>
<text text-anchor="middle" x="149.6932" y="-2371.8577" font-family="Times,serif" font-size="14.00" fill="#000000">18</text>
</g>
<!-- 9998&#45;&gt;18 -->
<g id="edge14" class="edge">
<title>9998&#45;&gt;18</title>
<path fill="none" stroke="#000000" d="M28.8952,-1064.2529C30.7866,-1236.2361 42.126,-2126.8833 75.1949,-2243.5577 86.8131,-2284.549 113.535,-2326.4905 131.6083,-2351.7834"/>
<polygon fill="#000000" stroke="#000000" points="128.883,-2353.9866 137.6014,-2360.0066 134.5401,-2349.8637 128.883,-2353.9866"/>
<text text-anchor="middle" x="93.6949" y="-2324.3577" font-family="Times,serif" font-size="14.00" fill="#000000">1/1 (1)</text>
</g>
<!-- 19 -->
<g id="node16" class="node">
<title>19</title>
<ellipse fill="none" stroke="#000000" cx="149.6932" cy="-2133.5577" rx="19.4965" ry="19.4965"/>
<text text-anchor="middle" x="149.6932" y="-2129.8577" font-family="Times,serif" font-size="14.00" fill="#000000">19</text>
</g>
<!-- 9998&#45;&gt;19 -->
<g id="edge15" class="edge">
<title>9998&#45;&gt;19</title>
<path fill="none" stroke="#000000" d="M30.7562,-1064.1173C36.7848,-1142.7461 54.7085,-1369.0105 75.1949,-1556.5577 98.1768,-1766.9505 133.4475,-2019.4912 145.4932,-2104.2292"/>
<polygon fill="#000000" stroke="#000000" points="142.0331,-2104.7582 146.9085,-2114.1647 148.9632,-2103.771 142.0331,-2104.7582"/>
<text text-anchor="middle" x="93.6949" y="-1859.3577" font-family="Times,serif" font-size="14.00" fill="#000000">1/1 (1)</text>
</g>
<!-- 21 -->
<g id="node17" class="node">
<title>21</title>
<ellipse fill="none" stroke="#000000" cx="149.6932" cy="-537.5577" rx="19.4965" ry="19.4965"/>
<text text-anchor="middle" x="149.6932" y="-533.8577" font-family="Times,serif" font-size="14.00" fill="#000000">21</text>
</g>
<!-- 9998&#45;&gt;21 -->
<g id="edge16" class="edge">
<title>9998&#45;&gt;21</title>
<path fill="none" stroke="#000000" d="M31.7873,-1007.0422C37.0454,-966.4996 49.6035,-890.4701 75.1949,-830.5577 86.9129,-803.1248 102.2633,-802.6867 112.1949,-774.5577 140.2877,-694.9915 110.1046,-667.5113 130.1949,-585.5577 131.8928,-578.6318 134.4091,-571.392 137.074,-564.697"/>
<polygon fill="#000000" stroke="#000000" points="140.3433,-565.952 141.0069,-555.378 133.8941,-563.2303 140.3433,-565.952"/>
<text text-anchor="middle" x="93.6949" y="-834.3577" font-family="Times,serif" font-size="14.00" fill="#000000">1/1 (1)</text>
</g>
<!-- 24 -->
<g id="node18" class="node">
<title>24</title>
<ellipse fill="none" stroke="#000000" cx="149.6932" cy="-1642.5577" rx="19.4965" ry="19.4965"/>
<text text-anchor="middle" x="149.6932" y="-1638.8577" font-family="Times,serif" font-size="14.00" fill="#000000">24</text>
</g>
<!-- 9998&#45;&gt;24 -->
<g id="edge17" class="edge">
<title>9998&#45;&gt;24</title>
<path fill="none" stroke="#000000" d="M30.2955,-1064.1697C34.4517,-1127.4399 46.9314,-1283.749 75.1949,-1411.5577 91.7888,-1486.596 122.5499,-1571.9586 138.8702,-1614.8502"/>
<polygon fill="#000000" stroke="#000000" points="135.6532,-1616.2364 142.5022,-1624.3198 142.189,-1613.7296 135.6532,-1616.2364"/>
<text text-anchor="middle" x="93.6949" y="-1541.3577" font-family="Times,serif" font-size="14.00" fill="#000000">1/1 (1)</text>
</g>
<!-- 26 -->
<g id="node19" class="node">
<title>26</title>
<ellipse fill="none" stroke="#000000" cx="149.6932" cy="-2190.5577" rx="19.4965" ry="19.4965"/>
<text text-anchor="middle" x="149.6932" y="-2186.8577" font-family="Times,serif" font-size="14.00" fill="#000000">26</text>
</g>
<!-- 9998&#45;&gt;26 -->
<g id="edge18" class="edge">
<title>9998&#45;&gt;26</title>
<path fill="none" stroke="#000000" d="M28.8022,-1064.2941C29.8609,-1171.5552 36.3171,-1558.548 75.1949,-1874.5577 91.0537,-2003.4625 80.7409,-2041.4651 130.1949,-2161.5577 130.8461,-2163.139 131.5903,-2164.7237 132.399,-2166.2918"/>
<polygon fill="#000000" stroke="#000000" points="129.4262,-2168.1405 137.5403,-2174.9532 135.4457,-2164.5675 129.4262,-2168.1405"/>
<text text-anchor="middle" x="93.6949" y="-2112.3577" font-family="Times,serif" font-size="14.00" fill="#000000">1/1 (1)</text>
</g>
<!-- 27 -->
<g id="node20" class="node">
<title>27</title>
<ellipse fill="none" stroke="#000000" cx="149.6932" cy="-841.5577" rx="19.4965" ry="19.4965"/>
<text text-anchor="middle" x="149.6932" y="-837.8577" font-family="Times,serif" font-size="14.00" fill="#000000">27</text>
</g>
<!-- 9998&#45;&gt;27 -->
<g id="edge19" class="edge">
<title>9998&#45;&gt;27</title>
<path fill="none" stroke="#000000" d="M37.011,-1007.9742C44.5868,-986.2049 57.2941,-955.8873 75.1949,-933.5577 88.094,-917.4674 98.9254,-921.3439 112.1949,-905.5577 123.4503,-892.1677 121.2997,-885.6193 130.1949,-870.5577 131.0646,-869.0853 131.9791,-867.5854 132.918,-866.0822"/>
<polygon fill="#000000" stroke="#000000" points="135.9141,-867.8949 138.4211,-857.6009 130.0419,-864.0847 135.9141,-867.8949"/>
<text text-anchor="middle" x="93.6949" y="-937.3577" font-family="Times,serif" font-size="14.00" fill="#000000">1/1 (1)</text>
</g>
<!-- 28 -->
<g id="node21" class="node">
<title>28</title>
<ellipse fill="none" stroke="#000000" cx="149.6932" cy="-423.5577" rx="19.4965" ry="19.4965"/>
<text text-anchor="middle" x="149.6932" y="-419.8577" font-family="Times,serif" font-size="14.00" fill="#000000">28</text>
</g>
<!-- 9998&#45;&gt;28 -->
<g id="edge20" class="edge">
<title>9998&#45;&gt;28</title>
<path fill="none" stroke="#000000" d="M31.322,-1006.9025C36.6379,-955.7185 50.1261,-845.515 75.1949,-755.5577 87.1366,-712.7061 101.2807,-705.6825 112.1949,-662.5577 128.9937,-596.1815 118.609,-577.0393 130.1949,-509.5577 133.4676,-490.4964 138.2584,-469.3055 142.2721,-452.7283"/>
<polygon fill="#000000" stroke="#000000" points="145.7809,-453.1166 144.7737,-442.5698 138.984,-451.4428 145.7809,-453.1166"/>
<text text-anchor="middle" x="93.6949" y="-759.3577" font-family="Times,serif" font-size="14.00" fill="#000000">1/1 (1)</text>
</g>
<!-- 29 -->
<g id="node22" class="node">
<title>29</title>
<ellipse fill="none" stroke="#000000" cx="149.6932" cy="-1011.5577" rx="19.4965" ry="19.4965"/>
<text text-anchor="middle" x="149.6932" y="-1007.8577" font-family="Times,serif" font-size="14.00" fill="#000000">29</text>
</g>
<!-- 9998&#45;&gt;29 -->
<g id="edge21" class="edge">
<title>9998&#45;&gt;29</title>
<path fill="none" stroke="#000000" d="M56.6836,-1029.9913C75.7841,-1026.2058 101.0035,-1021.2076 120.3624,-1017.3708"/>
<polygon fill="#000000" stroke="#000000" points="121.3096,-1020.7513 130.4383,-1015.3739 119.9486,-1013.8848 121.3096,-1020.7513"/>
<text text-anchor="middle" x="93.6949" y="-1029.3577" font-family="Times,serif" font-size="14.00" fill="#000000">1/1 (1)</text>
</g>
<!-- 30 -->
<g id="node23" class="node">
<title>30</title>
<ellipse fill="none" stroke="#000000" cx="149.6932" cy="-72.5577" rx="19.4965" ry="19.4965"/>
<text text-anchor="middle" x="149.6932" y="-68.8577" font-family="Times,serif" font-size="14.00" fill="#000000">30</text>
</g>
<!-- 9998&#45;&gt;30 -->
<g id="edge22" class="edge">
<title>9998&#45;&gt;30</title>
<path fill="none" stroke="#000000" d="M29.4962,-1006.8892C33.8847,-869.96 53.723,-285.9267 75.1949,-207.5577 86.7113,-165.5251 113.7099,-122.3549 131.8411,-96.4937"/>
<polygon fill="#000000" stroke="#000000" points="134.8747,-98.2685 137.8445,-88.0983 129.1808,-94.1967 134.8747,-98.2685"/>
<text text-anchor="middle" x="93.6949" y="-211.3577" font-family="Times,serif" font-size="14.00" fill="#000000">1/1 (1)</text>
</g>
<!-- 32 -->
<g id="node24" class="node">
<title>32</title>
<ellipse fill="none" stroke="#000000" cx="149.6932" cy="-613.5577" rx="19.4965" ry="19.4965"/>
<text text-anchor="middle" x="149.6932" y="-609.8577" font-family="Times,serif" font-size="14.00" fill="#000000">32</text>
</g>
<!-- 9998&#45;&gt;32 -->
<g id="edge23" class="edge">
<title>9998&#45;&gt;32</title>
<path fill="none" stroke="#000000" d="M33.2427,-1007.248C39.2987,-975.9637 51.9694,-924.9331 75.1949,-886.5577 87.2363,-866.6619 101.6318,-870.2763 112.1949,-849.5577 130.3465,-813.955 142.4149,-698.2799 147.2758,-643.2152"/>
<polygon fill="#000000" stroke="#000000" points="150.7801,-643.3156 148.1516,-633.052 143.8059,-642.7146 150.7801,-643.3156"/>
<text text-anchor="middle" x="93.6949" y="-890.3577" font-family="Times,serif" font-size="14.00" fill="#000000">1/1 (1)</text>
</g>
<!-- 34 -->
<g id="node25" class="node">
<title>34</title>
<ellipse fill="none" stroke="#000000" cx="149.6932" cy="-1068.5577" rx="19.4965" ry="19.4965"/>
<text text-anchor="middle" x="149.6932" y="-1064.8577" font-family="Times,serif" font-size="14.00" fill="#000000">34</text>
</g>
<!-- 9998&#45;&gt;34 -->
<g id="edge24" class="edge">
<title>9998&#45;&gt;34</title>
<path fill="none" stroke="#000000" d="M56.3793,-1043.1286C75.6751,-1048.3869 101.3243,-1055.3766 120.848,-1060.6971"/>
<polygon fill="#000000" stroke="#000000" points="120.1401,-1064.1318 130.7085,-1063.3842 121.9806,-1057.378 120.1401,-1064.1318"/>
<text text-anchor="middle" x="93.6949" y="-1061.3577" font-family="Times,serif" font-size="14.00" fill="#000000">1/1 (1)</text>
</g>
<!-- 35 -->
<g id="node26" class="node">
<title>35</title>
<ellipse fill="none" stroke="#000000" cx="149.6932" cy="-898.5577" rx="19.4965" ry="19.4965"/>
<text text-anchor="middle" x="149.6932" y="-894.8577" font-family="Times,serif" font-size="14.00" fill="#000000">35</text>
</g>
<!-- 9998&#45;&gt;35 -->
<g id="edge25" class="edge">
<title>9998&#45;&gt;35</title>
<path fill="none" stroke="#000000" d="M49.9381,-1016.415C67.5042,-1000.1915 92.6107,-975.9047 112.1949,-952.5577 119.7548,-943.5454 127.3052,-933.0374 133.6286,-923.6987"/>
<polygon fill="#000000" stroke="#000000" points="136.6617,-925.4579 139.2754,-915.1904 130.8294,-921.587 136.6617,-925.4579"/>
<text text-anchor="middle" x="93.6949" y="-993.3577" font-family="Times,serif" font-size="14.00" fill="#000000">1/1 (1)</text>
</g>
<!-- 8&#45;&gt;2 -->
<g id="edge32" class="edge">
<title>8&#45;&gt;2</title>
<path fill="none" stroke="#000000" d="M152.8112,-1227.5332C157.1921,-1253.5008 165.0913,-1303.059 169.1915,-1345.5577 176.8835,-1425.2875 158.2969,-1630.8509 187.1915,-1705.5577 196.5317,-1729.7069 209.0763,-1729.5351 224.1915,-1750.5577 232.3707,-1761.9336 240.7055,-1775.0835 247.4335,-1786.1683"/>
<polygon fill="#000000" stroke="#000000" points="244.5277,-1788.1286 252.6684,-1794.9095 250.5331,-1784.532 244.5277,-1788.1286"/>
<text text-anchor="middle" x="205.6915" y="-1754.3577" font-family="Times,serif" font-size="14.00" fill="#000000">0/1 (1)</text>
</g>
<!-- 8&#45;&gt;3 -->
<g id="edge27" class="edge">
<title>8&#45;&gt;3</title>
<path fill="none" stroke="#000000" d="M163.5102,-1221.7344C170.2751,-1227.193 178.7643,-1233.3376 187.1915,-1237.5577 201.9404,-1244.9436 219.602,-1250.2939 234.0261,-1253.8677"/>
<polygon fill="#000000" stroke="#000000" points="233.3358,-1257.3005 243.8691,-1256.1597 234.9234,-1250.4829 233.3358,-1257.3005"/>
<text text-anchor="middle" x="205.6915" y="-1254.3577" font-family="Times,serif" font-size="14.00" fill="#000000">1/1 (1)</text>
</g>
<!-- 8&#45;&gt;5 -->
<g id="edge30" class="edge">
<title>8&#45;&gt;5</title>
<path fill="none" stroke="#000000" d="M152.6567,-1227.5492C156.8496,-1253.5361 164.522,-1303.1178 169.1915,-1345.5577 174.8953,-1397.3985 158.3234,-1536.1223 187.1915,-1579.5577 197.4238,-1594.9535 207.9907,-1589.6548 224.1915,-1598.5577 228.5118,-1600.9319 233.0684,-1603.5266 237.4595,-1606.0748"/>
<polygon fill="#000000" stroke="#000000" points="235.7161,-1609.1099 246.1118,-1611.1544 239.2601,-1603.0733 235.7161,-1609.1099"/>
<text text-anchor="middle" x="205.6915" y="-1602.3577" font-family="Times,serif" font-size="14.00" fill="#000000">0/1 (2)</text>
</g>
<!-- 8&#45;&gt;1 -->
<g id="edge33" class="edge">
<title>8&#45;&gt;1</title>
<path fill="none" stroke="#000000" d="M152.8216,-1191.7078C158.8703,-1158.7324 172.8426,-1089.8675 187.1915,-1070.5577 198.7402,-1055.0162 211.0667,-1061.7934 224.1915,-1047.5577 236.0483,-1034.6973 233.0452,-1027.4682 242.1915,-1012.5577 243.0852,-1011.1007 244.0326,-1009.6202 245.0092,-1008.1409"/>
<polygon fill="#000000" stroke="#000000" points="247.9318,-1010.0684 250.7541,-999.8564 242.1795,-1006.0795 247.9318,-1010.0684"/>
<text text-anchor="middle" x="205.6915" y="-1074.3577" font-family="Times,serif" font-size="14.00" fill="#000000">0/1 (1)</text>
</g>
<!-- 11 -->
<g id="node27" class="node">
<title>11</title>
<ellipse fill="none" stroke="#000000" cx="261.6897" cy="-810.5577" rx="19.4965" ry="19.4965"/>
<text text-anchor="middle" x="261.6897" y="-806.8577" font-family="Times,serif" font-size="14.00" fill="#000000">11</text>
</g>
<!-- 8&#45;&gt;11 -->
<g id="edge28" class="edge">
<title>8&#45;&gt;11</title>
<path fill="none" stroke="#000000" d="M152.7588,-1191.5253C160.9294,-1143.6985 182.8996,-1016.7035 187.1915,-1008.5577 198.0319,-987.9829 212.8971,-991.8869 224.1915,-971.5577 247.4588,-929.678 256.3264,-873.957 259.6804,-840.254"/>
<polygon fill="#000000" stroke="#000000" points="263.1809,-840.4029 260.5868,-830.1306 256.2088,-839.7786 263.1809,-840.4029"/>
<text text-anchor="middle" x="205.6915" y="-1012.3577" font-family="Times,serif" font-size="14.00" fill="#000000">0/1 (4)</text>
</g>
<!-- 10 -->
<g id="node28" class="node">
<title>10</title>
<ellipse fill="none" stroke="#000000" cx="261.6897" cy="-499.5577" rx="19.4965" ry="19.4965"/>
<text text-anchor="middle" x="261.6897" y="-495.8577" font-family="Times,serif" font-size="14.00" fill="#000000">10</text>
</g>
<!-- 8&#45;&gt;10 -->
<g id="edge29" class="edge">
<title>8&#45;&gt;10</title>
<path fill="none" stroke="#000000" d="M153.3877,-1191.638C157.8277,-1169.4253 165.1799,-1130.3632 169.1915,-1096.5577 176.4082,-1035.7426 163.0099,-877.8233 187.1915,-821.5577 196.7537,-799.3084 214.5025,-803.7522 224.1915,-781.5577 265.9237,-685.9626 218.2786,-649.0869 242.1915,-547.5577 243.8263,-540.6166 246.3186,-533.3711 248.9805,-526.6754"/>
<polygon fill="#000000" stroke="#000000" points="252.2492,-527.9318 252.9217,-517.3583 245.8023,-525.2047 252.2492,-527.9318"/>
<text text-anchor="middle" x="205.6915" y="-825.3577" font-family="Times,serif" font-size="14.00" fill="#000000">0/1 (3)</text>
</g>
<!-- 9 -->
<g id="node29" class="node">
<title>9</title>
<ellipse fill="none" stroke="#000000" cx="261.6897" cy="-1449.5577" rx="18" ry="18"/>
<text text-anchor="middle" x="261.6897" y="-1445.8577" font-family="Times,serif" font-size="14.00" fill="#000000">9</text>
</g>
<!-- 8&#45;&gt;9 -->
<g id="edge31" class="edge">
<title>8&#45;&gt;9</title>
<path fill="none" stroke="#000000" d="M152.2413,-1227.4147C159.5506,-1278.1559 180.4915,-1420.0256 187.1915,-1427.5577 193.477,-1434.624 215.2365,-1440.551 233.628,-1444.466"/>
<polygon fill="#000000" stroke="#000000" points="233.158,-1447.9415 243.6515,-1446.4803 234.5371,-1441.0787 233.158,-1447.9415"/>
<text text-anchor="middle" x="205.6915" y="-1445.3577" font-family="Times,serif" font-size="14.00" fill="#000000">0/1 (1)</text>
</g>
<!-- 12&#45;&gt;2 -->
<g id="edge39" class="edge">
<title>12&#45;&gt;2</title>
<path fill="none" stroke="#000000" d="M154.8474,-1392.4033C159.4144,-1409.9163 165.8594,-1436.798 169.1915,-1460.5577 173.9678,-1494.616 168.4221,-1740.7396 187.1915,-1769.5577 197.2803,-1785.0479 207.9907,-1779.6548 224.1915,-1788.5577 228.5118,-1790.9319 233.0684,-1793.5266 237.4595,-1796.0748"/>
<polygon fill="#000000" stroke="#000000" points="235.7161,-1799.1099 246.1118,-1801.1544 239.2601,-1793.0733 235.7161,-1799.1099"/>
<text text-anchor="middle" x="205.6915" y="-1792.3577" font-family="Times,serif" font-size="14.00" fill="#000000">0/1 (1)</text>
</g>
<!-- 12&#45;&gt;5 -->
<g id="edge35" class="edge">
<title>12&#45;&gt;5</title>
<path fill="none" stroke="#000000" d="M154.5376,-1392.4511C158.8908,-1409.9972 165.196,-1436.9006 169.1915,-1460.5577 175.0397,-1495.1848 161.4593,-1593.6603 187.1915,-1617.5577 199.4447,-1628.9373 218.3027,-1629.5957 233.9791,-1627.4557"/>
<polygon fill="#000000" stroke="#000000" points="234.9772,-1630.8327 244.2034,-1625.6244 233.743,-1623.9423 234.9772,-1630.8327"/>
<text text-anchor="middle" x="205.6915" y="-1631.3577" font-family="Times,serif" font-size="14.00" fill="#000000">1/1 (1)</text>
</g>
<!-- 12&#45;&gt;4 -->
<g id="edge38" class="edge">
<title>12&#45;&gt;4</title>
<path fill="none" stroke="#000000" d="M154.9845,-1392.3849C159.6459,-1409.8853 166.1529,-1436.7587 169.1915,-1460.5577 172.972,-1490.1675 171.2105,-1972.3459 187.1915,-1997.5577 197.0884,-2013.1712 210.5815,-2004.0478 224.1915,-2016.5577 234.5775,-2026.1044 243.1916,-2039.1606 249.5332,-2050.6562"/>
<polygon fill="#000000" stroke="#000000" points="246.5904,-2052.5828 254.3148,-2059.8343 252.7984,-2049.3485 246.5904,-2052.5828"/>
<text text-anchor="middle" x="205.6915" y="-2020.3577" font-family="Times,serif" font-size="14.00" fill="#000000">0/1 (2)</text>
</g>
<!-- 12&#45;&gt;1 -->
<g id="edge40" class="edge">
<title>12&#45;&gt;1</title>
<path fill="none" stroke="#000000" d="M152.4896,-1353.9066C160.1709,-1300.3464 181.4067,-1155.2129 187.1915,-1146.5577 197.9508,-1130.4596 213.4559,-1139.6718 224.1915,-1123.5577 251.9014,-1081.9652 223.0472,-1058.7235 242.1915,-1012.5577 242.8462,-1010.9788 243.6098,-1009.4045 244.4483,-1007.8548"/>
<polygon fill="#000000" stroke="#000000" points="247.4204,-1009.7034 249.8343,-999.3872 241.514,-1005.9465 247.4204,-1009.7034"/>
<text text-anchor="middle" x="205.6915" y="-1150.3577" font-family="Times,serif" font-size="14.00" fill="#000000">0/1 (1)</text>
</g>
<!-- 14 -->
<g id="node30" class="node">
<title>14</title>
<ellipse fill="none" stroke="#000000" cx="261.6897" cy="-1107.5577" rx="19.4965" ry="19.4965"/>
<text text-anchor="middle" x="261.6897" y="-1103.8577" font-family="Times,serif" font-size="14.00" fill="#000000">14</text>
</g>
<!-- 12&#45;&gt;14 -->
<g id="edge36" class="edge">
<title>12&#45;&gt;14</title>
<path fill="none" stroke="#000000" d="M169.2503,-1373.3196C186.3584,-1371.9951 210.5459,-1367.214 224.1915,-1351.5577 241.7642,-1331.3957 238.1304,-1258.9929 242.1915,-1232.5577 247.2107,-1199.8855 253.0673,-1162.4267 257.042,-1137.1014"/>
<polygon fill="#000000" stroke="#000000" points="260.5282,-1137.4618 258.6223,-1127.0399 253.613,-1136.3757 260.5282,-1137.4618"/>
<text text-anchor="middle" x="205.6915" y="-1373.3577" font-family="Times,serif" font-size="14.00" fill="#000000">0/1 (2)</text>
</g>
<!-- 13 -->
<g id="node31" class="node">
<title>13</title>
<ellipse fill="none" stroke="#000000" cx="261.6897" cy="-233.5577" rx="19.4965" ry="19.4965"/>
<text text-anchor="middle" x="261.6897" y="-229.8577" font-family="Times,serif" font-size="14.00" fill="#000000">13</text>
</g>
<!-- 12&#45;&gt;13 -->
<g id="edge37" class="edge">
<title>12&#45;&gt;13</title>
<path fill="none" stroke="#000000" d="M153.2113,-1354.1297C157.8333,-1327.6515 165.7639,-1278.7015 169.1915,-1236.5577 176.939,-1141.2958 156.7384,-467.1529 187.1915,-376.5577 196.1141,-350.0137 210.5861,-350.0341 224.1915,-325.5577 225.8726,-322.5333 240.1846,-287.1404 250.6291,-261.1539"/>
<polygon fill="#000000" stroke="#000000" points="253.93,-262.326 254.4083,-251.7419 247.4341,-259.7176 253.93,-262.326"/>
<text text-anchor="middle" x="205.6915" y="-380.3577" font-family="Times,serif" font-size="14.00" fill="#000000">0/1 (2)</text>
</g>
<!-- 15&#45;&gt;6 -->
<g id="edge42" class="edge">
<title>15&#45;&gt;6</title>
<path fill="none" stroke="#000000" d="M168.783,-124.8363C185.5765,-121.9223 209.5647,-120.9722 224.1915,-134.5577 245.0767,-153.9562 234.7721,-234.036 242.1915,-261.5577 244.142,-268.7931 246.888,-276.4028 249.7052,-283.377"/>
<polygon fill="#000000" stroke="#000000" points="246.6703,-285.1849 253.7993,-293.0225 253.1139,-282.4498 246.6703,-285.1849"/>
<text text-anchor="middle" x="205.6915" y="-138.3577" font-family="Times,serif" font-size="14.00" fill="#000000">1/1 (1)</text>
</g>
<!-- 15&#45;&gt;13 -->
<g id="edge43" class="edge">
<title>15&#45;&gt;13</title>
<path fill="none" stroke="#000000" d="M161.4634,-113.7818C164.2405,-109.6183 167.021,-105.0342 169.1915,-100.5577 180.5972,-77.034 166.0656,-59.9576 187.1915,-44.5577 200.48,-34.8709 211.4823,-34.1224 224.1915,-44.5577 230.3592,-49.622 248.1719,-152.1798 256.8386,-204.0509"/>
<polygon fill="#000000" stroke="#000000" points="253.4002,-204.7109 258.4928,-214.0015 260.3054,-203.5628 253.4002,-204.7109"/>
<text text-anchor="middle" x="205.6915" y="-48.3577" font-family="Times,serif" font-size="14.00" fill="#000000">0/1 (1)</text>
</g>
<!-- 16&#45;&gt;6 -->
<g id="edge44" class="edge">
<title>16&#45;&gt;6</title>
<path fill="none" stroke="#000000" d="M168.5582,-190.043C184.9716,-186.474 208.5213,-184.4704 224.1915,-196.5577 247.9268,-214.8663 232.5346,-233.1797 242.1915,-261.5577 244.6056,-268.6519 247.5135,-276.2123 250.3381,-283.1842"/>
<polygon fill="#000000" stroke="#000000" points="247.2851,-284.9591 254.3496,-292.8548 253.7508,-282.2769 247.2851,-284.9591"/>
<text text-anchor="middle" x="205.6915" y="-200.3577" font-family="Times,serif" font-size="14.00" fill="#000000">1/1 (1)</text>
</g>
<!-- 16&#45;&gt;13 -->
<g id="edge45" class="edge">
<title>16&#45;&gt;13</title>
<path fill="none" stroke="#000000" d="M160.9525,-179.6244C167.5739,-171.678 176.6996,-162.8626 187.1915,-158.5577 202.4051,-152.3156 210.2031,-149.9123 224.1915,-158.5577 240.3943,-168.5719 249.8301,-187.9418 255.1835,-204.4878"/>
<polygon fill="#000000" stroke="#000000" points="251.883,-205.675 258.0132,-214.3162 258.6098,-203.7382 251.883,-205.675"/>
<text text-anchor="middle" x="205.6915" y="-162.3577" font-family="Times,serif" font-size="14.00" fill="#000000">0/1 (1)</text>
</g>
<!-- 17&#45;&gt;4 -->
<g id="edge57" class="edge">
<title>17&#45;&gt;4</title>
<path fill="none" stroke="#000000" d="M167.53,-2303.1693C184.156,-2309.802 208.6561,-2315.8143 224.1915,-2302.5577 243.5341,-2286.0523 238.0295,-2214.6425 242.1915,-2189.5577 247.0017,-2160.5657 252.7479,-2127.4352 256.7511,-2104.5795"/>
<polygon fill="#000000" stroke="#000000" points="260.2298,-2105.0054 258.5113,-2094.5508 253.3352,-2103.7952 260.2298,-2105.0054"/>
<text text-anchor="middle" x="205.6915" y="-2313.3577" font-family="Times,serif" font-size="14.00" fill="#000000">1/1 (1)</text>
</g>
<!-- 18&#45;&gt;4 -->
<g id="edge59" class="edge">
<title>18&#45;&gt;4</title>
<path fill="none" stroke="#000000" d="M168.3689,-2369.1206C185.8561,-2362.0517 211.1858,-2348.9211 224.1915,-2328.5577 240.9567,-2302.308 237.5424,-2220.3556 242.1915,-2189.5577 246.5781,-2160.4986 252.3892,-2127.3784 256.5233,-2104.5434"/>
<polygon fill="#000000" stroke="#000000" points="259.9994,-2104.9906 258.349,-2094.5251 253.1128,-2103.7356 259.9994,-2104.9906"/>
<text text-anchor="middle" x="205.6915" y="-2362.3577" font-family="Times,serif" font-size="14.00" fill="#000000">1/1 (1)</text>
</g>
<!-- 19&#45;&gt;2 -->
<g id="edge51" class="edge">
<title>19&#45;&gt;2</title>
<path fill="none" stroke="#000000" d="M160.7335,-2149.8363C171.4232,-2165.54 186.1674,-2187.0221 187.1915,-2187.5577 201.763,-2195.1794 212.0016,-2198.5953 224.1915,-2187.5577 230.6717,-2181.6901 252.261,-1925.428 259.3861,-1838.817"/>
<polygon fill="#000000" stroke="#000000" points="262.8892,-1838.9206 260.2186,-1828.6679 255.9127,-1838.3482 262.8892,-1838.9206"/>
<text text-anchor="middle" x="205.6915" y="-2198.3577" font-family="Times,serif" font-size="14.00" fill="#000000">0/1 (2)</text>
</g>
<!-- 19&#45;&gt;3 -->
<g id="edge49" class="edge">
<title>19&#45;&gt;3</title>
<path fill="none" stroke="#000000" d="M151.3393,-2114.0889C155.6541,-2065.9775 168.2804,-1942.7584 187.1915,-1906.5577 197.815,-1886.2216 214.8437,-1891.511 224.1915,-1870.5577 244.4883,-1825.0619 238.2298,-1472.2179 242.1915,-1422.5577 245.9789,-1375.0818 253.1301,-1320.1318 257.6396,-1287.6954"/>
<polygon fill="#000000" stroke="#000000" points="261.1323,-1287.9916 259.059,-1277.6016 254.2005,-1287.0168 261.1323,-1287.9916"/>
<text text-anchor="middle" x="205.6915" y="-1910.3577" font-family="Times,serif" font-size="14.00" fill="#000000">0/1 (4)</text>
</g>
<!-- 19&#45;&gt;4 -->
<g id="edge50" class="edge">
<title>19&#45;&gt;4</title>
<path fill="none" stroke="#000000" d="M161.5652,-2149.2853C164.3404,-2153.4498 167.0945,-2158.0464 169.1915,-2162.5577 181.4662,-2188.9648 163.9432,-2208.0215 187.1915,-2225.5577 200.3199,-2235.4605 211.2219,-2235.6677 224.1915,-2225.5577 233.7955,-2218.0712 248.7774,-2145.4545 256.5786,-2104.4312"/>
<polygon fill="#000000" stroke="#000000" points="260.0377,-2104.9745 258.4443,-2094.5001 253.1581,-2103.682 260.0377,-2104.9745"/>
<text text-anchor="middle" x="205.6915" y="-2236.3577" font-family="Times,serif" font-size="14.00" fill="#000000">0/1 (3)</text>
</g>
<!-- 19&#45;&gt;9 -->
<g id="edge48" class="edge">
<title>19&#45;&gt;9</title>
<path fill="none" stroke="#000000" d="M169.1977,-2131.553C186.77,-2128.6104 211.702,-2121.3657 224.1915,-2103.5577 240.4705,-2080.3463 239.7864,-1621.8065 242.1915,-1593.5577 245.6263,-1553.2135 252.4181,-1506.8566 257.0076,-1477.8835"/>
<polygon fill="#000000" stroke="#000000" points="260.5163,-1478.1078 258.6471,-1467.6792 253.605,-1476.9973 260.5163,-1478.1078"/>
<text text-anchor="middle" x="205.6915" y="-2130.3577" font-family="Times,serif" font-size="14.00" fill="#000000">0/1 (1)</text>
</g>
<!-- 20 -->
<g id="node32" class="node">
<title>20</title>
<ellipse fill="none" stroke="#000000" cx="261.6897" cy="-2217.5577" rx="19.4965" ry="19.4965"/>
<text text-anchor="middle" x="261.6897" y="-2213.8577" font-family="Times,serif" font-size="14.00" fill="#000000">20</text>
</g>
<!-- 19&#45;&gt;20 -->
<g id="edge47" class="edge">
<title>19&#45;&gt;20</title>
<path fill="none" stroke="#000000" d="M161.8136,-2149.1757C164.584,-2153.3423 167.2737,-2157.9674 169.1915,-2162.5577 184.7486,-2199.7951 155.9545,-2226.0059 187.1915,-2251.5577 199.9199,-2261.9696 208.8495,-2257.4775 224.1915,-2251.5577 230.8016,-2249.0072 236.9675,-2244.6908 242.3133,-2239.9738"/>
<polygon fill="#000000" stroke="#000000" points="244.8097,-2242.428 249.515,-2232.9353 239.917,-2237.4218 244.8097,-2242.428"/>
<text text-anchor="middle" x="205.6915" y="-2261.3577" font-family="Times,serif" font-size="14.00" fill="#000000">1/1 (1)</text>
</g>
<!-- 21&#45;&gt;3 -->
<g id="edge62" class="edge">
<title>21&#45;&gt;3</title>
<path fill="none" stroke="#000000" d="M158.6668,-555.3124C162.6797,-564.1646 166.994,-575.174 169.1915,-585.5577 182.4483,-648.2016 152.9721,-1107.4372 187.1915,-1161.5577 197.0706,-1177.1824 211.3256,-1167.2837 224.1915,-1180.5577 238.1918,-1195.0023 247.7449,-1215.6575 253.7039,-1232.225"/>
<polygon fill="#000000" stroke="#000000" points="250.4577,-1233.5532 256.9573,-1241.9202 257.094,-1231.3262 250.4577,-1233.5532"/>
<text text-anchor="middle" x="205.6915" y="-1184.3577" font-family="Times,serif" font-size="14.00" fill="#000000">0/1 (4)</text>
</g>
<!-- 21&#45;&gt;4 -->
<g id="edge65" class="edge">
<title>21&#45;&gt;4</title>
<path fill="none" stroke="#000000" d="M158.7473,-555.2957C162.7792,-564.144 167.0864,-575.1549 169.1915,-585.5577 176.5527,-621.9349 167.6363,-1890.0128 187.1915,-1921.5577 196.9315,-1937.2696 212.5286,-1926.2152 224.1915,-1940.5577 237.6349,-1957.0899 250.1269,-2013.9773 256.7503,-2048.7245"/>
<polygon fill="#000000" stroke="#000000" points="253.3414,-2049.5374 258.612,-2058.7282 260.2233,-2048.2566 253.3414,-2049.5374"/>
<text text-anchor="middle" x="205.6915" y="-1944.3577" font-family="Times,serif" font-size="14.00" fill="#000000">0/1 (1)</text>
</g>
<!-- 21&#45;&gt;10 -->
<g id="edge61" class="edge">
<title>21&#45;&gt;10</title>
<path fill="none" stroke="#000000" d="M153.3697,-518.3162C157.9276,-500.3851 167.6258,-474.6503 187.1915,-462.5577 201.1799,-453.9123 208.9778,-456.3156 224.1915,-462.5577 231.4046,-465.5173 237.9721,-470.6089 243.5239,-476.0842"/>
<polygon fill="#000000" stroke="#000000" points="241.095,-478.6143 250.4304,-483.6244 246.2569,-473.8862 241.095,-478.6143"/>
<text text-anchor="middle" x="205.6915" y="-466.3577" font-family="Times,serif" font-size="14.00" fill="#000000">1/1 (1)</text>
</g>
<!-- 21&#45;&gt;13 -->
<g id="edge64" class="edge">
<title>21&#45;&gt;13</title>
<path fill="none" stroke="#000000" d="M154.7763,-518.5726C159.2301,-501.2408 165.5455,-474.8507 169.1915,-451.5577 176.2635,-406.377 156.261,-280.2418 187.1915,-246.5577 198.3026,-234.4574 216.3495,-231.08 231.8977,-230.7892"/>
<polygon fill="#000000" stroke="#000000" points="232.0731,-234.2937 242.1468,-231.0118 232.2252,-227.2954 232.0731,-234.2937"/>
<text text-anchor="middle" x="205.6915" y="-250.3577" font-family="Times,serif" font-size="14.00" fill="#000000">0/1 (2)</text>
</g>
<!-- 23 -->
<g id="node34" class="node">
<title>23</title>
<ellipse fill="none" stroke="#000000" cx="261.6897" cy="-575.5577" rx="19.4965" ry="19.4965"/>
<text text-anchor="middle" x="261.6897" y="-571.8577" font-family="Times,serif" font-size="14.00" fill="#000000">23</text>
</g>
<!-- 21&#45;&gt;23 -->
<g id="edge63" class="edge">
<title>21&#45;&gt;23</title>
<path fill="none" stroke="#000000" d="M169.1688,-533.9576C184.689,-531.9813 206.6491,-531.2222 224.1915,-538.5577 231.2686,-541.5171 237.7336,-546.5091 243.2278,-551.8841"/>
<polygon fill="#000000" stroke="#000000" points="240.7245,-554.3322 250.0845,-559.2961 245.863,-549.5786 240.7245,-554.3322"/>
<text text-anchor="middle" x="205.6915" y="-542.3577" font-family="Times,serif" font-size="14.00" fill="#000000">0/1 (3)</text>
</g>
<!-- 22 -->
<g id="node35" class="node">
<title>22</title>
<ellipse fill="none" stroke="#000000" cx="261.6897" cy="-404.5577" rx="19.4965" ry="19.4965"/>
<text text-anchor="middle" x="261.6897" y="-400.8577" font-family="Times,serif" font-size="14.00" fill="#000000">22</text>
</g>
<!-- 21&#45;&gt;22 -->
<g id="edge66" class="edge">
<title>21&#45;&gt;22</title>
<path fill="none" stroke="#000000" d="M153.8502,-518.2367C161.5599,-483.2849 178.1138,-412.512 187.1915,-405.5577 199.956,-395.779 217.8906,-395.2615 232.9643,-397.3167"/>
<polygon fill="#000000" stroke="#000000" points="232.3867,-400.7688 242.8442,-399.0683 233.6088,-393.8762 232.3867,-400.7688"/>
<text text-anchor="middle" x="205.6915" y="-409.3577" font-family="Times,serif" font-size="14.00" fill="#000000">0/1 (1)</text>
</g>
<!-- 24&#45;&gt;2 -->
<g id="edge55" class="edge">
<title>24&#45;&gt;2</title>
<path fill="none" stroke="#000000" d="M150.254,-1662.0658C152.0349,-1708.2766 159.2304,-1822.2886 187.1915,-1845.5577 199.8315,-1856.0767 208.8927,-1851.5882 224.1915,-1845.5577 231.3682,-1842.7288 237.9816,-1837.8069 243.5912,-1832.5323"/>
<polygon fill="#000000" stroke="#000000" points="246.1572,-1834.9135 250.577,-1825.2846 241.1172,-1830.0557 246.1572,-1834.9135"/>
<text text-anchor="middle" x="205.6915" y="-1855.3577" font-family="Times,serif" font-size="14.00" fill="#000000">0/1 (3)</text>
</g>
<!-- 24&#45;&gt;3 -->
<g id="edge54" class="edge">
<title>24&#45;&gt;3</title>
<path fill="none" stroke="#000000" d="M151.9376,-1623.0477C155.6221,-1598.3761 164.9155,-1555.6175 187.1915,-1526.5577 199.1163,-1511.0015 213.5443,-1519.0148 224.1915,-1502.5577 235.73,-1484.7229 251.9953,-1347.7144 258.6611,-1287.6378"/>
<polygon fill="#000000" stroke="#000000" points="262.1408,-1288.0136 259.7549,-1277.6909 255.1828,-1287.2484 262.1408,-1288.0136"/>
<text text-anchor="middle" x="205.6915" y="-1530.3577" font-family="Times,serif" font-size="14.00" fill="#000000">0/1 (4)</text>
</g>
<!-- 24&#45;&gt;4 -->
<g id="edge53" class="edge">
<title>24&#45;&gt;4</title>
<path fill="none" stroke="#000000" d="M149.9098,-1662.0937C150.9963,-1742.4764 157.0715,-2044.8078 187.1915,-2073.5577 199.2878,-2085.1039 218.1473,-2085.7607 233.8637,-2083.5783"/>
<polygon fill="#000000" stroke="#000000" points="234.9081,-2086.9458 244.1203,-2081.7127 233.6553,-2080.0588 234.9081,-2086.9458"/>
<text text-anchor="middle" x="205.6915" y="-2088.3577" font-family="Times,serif" font-size="14.00" fill="#000000">0/1 (1)</text>
</g>
<!-- 24&#45;&gt;9 -->
<g id="edge52" class="edge">
<title>24&#45;&gt;9</title>
<path fill="none" stroke="#000000" d="M160.8636,-1658.912C167.4589,-1667.0703 176.5881,-1676.1243 187.1915,-1680.5577 202.3632,-1686.9012 211.6665,-1691.2135 224.1915,-1680.5577 231.9092,-1673.9918 250.3744,-1537.3445 258.1464,-1477.3691"/>
<polygon fill="#000000" stroke="#000000" points="261.6191,-1477.8054 259.4261,-1467.44 254.6765,-1476.9106 261.6191,-1477.8054"/>
<text text-anchor="middle" x="205.6915" y="-1690.3577" font-family="Times,serif" font-size="14.00" fill="#000000">1/1 (1)</text>
</g>
<!-- 25 -->
<g id="node33" class="node">
<title>25</title>
<ellipse fill="none" stroke="#000000" cx="261.6897" cy="-1040.5577" rx="19.4965" ry="19.4965"/>
<text text-anchor="middle" x="261.6897" y="-1036.8577" font-family="Times,serif" font-size="14.00" fill="#000000">25</text>
</g>
<!-- 24&#45;&gt;25 -->
<g id="edge56" class="edge">
<title>24&#45;&gt;25</title>
<path fill="none" stroke="#000000" d="M152.9856,-1623.0852C157.1463,-1598.0329 164.348,-1553.1429 169.1915,-1514.5577 174.2534,-1474.2324 164.3277,-1366.1584 187.1915,-1332.5577 197.591,-1317.2745 213.9592,-1328.9535 224.1915,-1313.5577 253.0595,-1270.1223 228.2708,-1129.8192 242.1915,-1079.5577 243.3735,-1075.29 245.0335,-1070.9362 246.8912,-1066.7586"/>
<polygon fill="#000000" stroke="#000000" points="250.1936,-1067.9733 251.4532,-1057.4536 243.9084,-1064.8918 250.1936,-1067.9733"/>
<text text-anchor="middle" x="205.6915" y="-1336.3577" font-family="Times,serif" font-size="14.00" fill="#000000">0/1 (2)</text>
</g>
<!-- 26&#45;&gt;5 -->
<g id="edge68" class="edge">
<title>26&#45;&gt;5</title>
<path fill="none" stroke="#000000" d="M166.7515,-2180.2776C173.1209,-2176.5112 180.4443,-2172.2655 187.1915,-2168.5577 203.3923,-2159.6548 214.1728,-2165.0934 224.1915,-2149.5577 246.2578,-2115.34 238.7714,-1824.1297 242.1915,-1783.5577 246.1921,-1736.0993 253.2781,-1681.1439 257.7167,-1648.7017"/>
<polygon fill="#000000" stroke="#000000" points="261.2099,-1648.991 259.1122,-1638.606 254.2759,-1648.0325 261.2099,-1648.991"/>
<text text-anchor="middle" x="205.6915" y="-2172.3577" font-family="Times,serif" font-size="14.00" fill="#000000">1/1 (1)</text>
</g>
<!-- 26&#45;&gt;4 -->
<g id="edge69" class="edge">
<title>26&#45;&gt;4</title>
<path fill="none" stroke="#000000" d="M152.0828,-2210.2251C155.7404,-2230.7445 164.8447,-2261.9228 187.1915,-2276.5577 200.9483,-2285.5671 211.5374,-2287.0598 224.1915,-2276.5577 227.5125,-2273.8015 247.6238,-2158.6526 256.9488,-2104.3528"/>
<polygon fill="#000000" stroke="#000000" points="260.4226,-2104.803 258.6618,-2094.3555 253.5231,-2103.6207 260.4226,-2104.803"/>
<text text-anchor="middle" x="205.6915" y="-2287.3577" font-family="Times,serif" font-size="14.00" fill="#000000">0/1 (1)</text>
</g>
<!-- 27&#45;&gt;6 -->
<g id="edge70" class="edge">
<title>27&#45;&gt;6</title>
<path fill="none" stroke="#000000" d="M151.5618,-822.0115C158.1602,-753.4846 180.3388,-527.5128 187.1915,-513.5577 197.3046,-492.963 213.4395,-497.8263 224.1915,-477.5577 245.5589,-437.2781 231.8063,-420.9555 242.1915,-376.5577 245.3172,-363.195 249.4946,-348.5391 253.1809,-336.3511"/>
<polygon fill="#000000" stroke="#000000" points="256.5313,-337.3633 256.128,-326.7761 249.841,-335.304 256.5313,-337.3633"/>
<text text-anchor="middle" x="205.6915" y="-517.3577" font-family="Times,serif" font-size="14.00" fill="#000000">1/1 (1)</text>
</g>
<!-- 27&#45;&gt;1 -->
<g id="edge72" class="edge">
<title>27&#45;&gt;1</title>
<path fill="none" stroke="#000000" d="M169.2607,-839.9495C185.9024,-839.6888 209.3908,-842.1013 224.1915,-855.5577 239.1686,-869.1746 250.9753,-923.3784 257.0922,-957.3484"/>
<polygon fill="#000000" stroke="#000000" points="253.7118,-958.3381 258.8751,-967.5896 260.6081,-957.1375 253.7118,-958.3381"/>
<text text-anchor="middle" x="205.6915" y="-859.3577" font-family="Times,serif" font-size="14.00" fill="#000000">0/1 (1)</text>
</g>
<!-- 27&#45;&gt;14 -->
<g id="edge71" class="edge">
<title>27&#45;&gt;14</title>
<path fill="none" stroke="#000000" d="M161.9844,-856.7282C164.8231,-860.9742 167.5029,-865.7494 169.1915,-870.5577 185.0777,-915.7943 156.9105,-1048.3855 187.1915,-1085.5577 197.8489,-1098.6405 215.8856,-1104.1901 231.542,-1106.445"/>
<polygon fill="#000000" stroke="#000000" points="231.5697,-1109.9671 241.8808,-1107.5319 232.3016,-1103.0055 231.5697,-1109.9671"/>
<text text-anchor="middle" x="205.6915" y="-1108.3577" font-family="Times,serif" font-size="14.00" fill="#000000">0/1 (2)</text>
</g>
<!-- 28&#45;&gt;6 -->
<g id="edge73" class="edge">
<title>28&#45;&gt;6</title>
<path fill="none" stroke="#000000" d="M151.5944,-404.1174C155.6598,-367.0922 166.5522,-288.6985 187.1915,-272.5577 200.1451,-262.4275 208.9778,-266.3156 224.1915,-272.5577 231.9255,-275.731 238.9172,-281.3553 244.7107,-287.2758"/>
<polygon fill="#000000" stroke="#000000" points="242.114,-289.6228 251.3739,-294.7712 247.3457,-284.972 242.114,-289.6228"/>
<text text-anchor="middle" x="205.6915" y="-276.3577" font-family="Times,serif" font-size="14.00" fill="#000000">1/1 (1)</text>
</g>
<!-- 28&#45;&gt;10 -->
<g id="edge74" class="edge">
<title>28&#45;&gt;10</title>
<path fill="none" stroke="#000000" d="M169.4128,-422.9945C185.4845,-423.4747 208.0779,-426.3841 224.1915,-437.5577 236.1004,-445.8157 244.8848,-459.197 250.9451,-471.4181"/>
<polygon fill="#000000" stroke="#000000" points="247.9071,-473.1929 255.2291,-480.8505 254.2805,-470.2982 247.9071,-473.1929"/>
<text text-anchor="middle" x="205.6915" y="-441.3577" font-family="Times,serif" font-size="14.00" fill="#000000">0/1 (1)</text>
</g>
<!-- 29&#45;&gt;6 -->
<g id="edge75" class="edge">
<title>29&#45;&gt;6</title>
<path fill="none" stroke="#000000" d="M154.9394,-992.4736C159.438,-975.3496 165.7258,-949.4616 169.1915,-926.5577 177.1931,-873.6766 157.6301,-731.1287 187.1915,-686.5577 197.409,-671.1522 214.0749,-683.0297 224.1915,-667.5577 241.92,-640.4442 236.6314,-408.4722 242.1915,-376.5577 244.5469,-363.0379 248.6357,-348.364 252.4626,-336.2046"/>
<polygon fill="#000000" stroke="#000000" points="255.8014,-337.2551 255.5718,-326.6627 249.1458,-335.0863 255.8014,-337.2551"/>
<text text-anchor="middle" x="205.6915" y="-690.3577" font-family="Times,serif" font-size="14.00" fill="#000000">1/1 (1)</text>
</g>
<!-- 29&#45;&gt;4 -->
<g id="edge76" class="edge">
<title>29&#45;&gt;4</title>
<path fill="none" stroke="#000000" d="M162.1938,-1026.6584C165.0308,-1030.905 167.6574,-1035.6979 169.1915,-1040.5577 184.5629,-1089.2546 160.1533,-1916.2379 187.1915,-1959.5577 196.9794,-1975.2397 211.8511,-1964.7939 224.1915,-1978.5577 241.9576,-1998.3732 251.6585,-2027.4882 256.7134,-2048.8353"/>
<polygon fill="#000000" stroke="#000000" points="253.2948,-2049.5861 258.8367,-2058.616 260.1355,-2048.101 253.2948,-2049.5861"/>
<text text-anchor="middle" x="205.6915" y="-1982.3577" font-family="Times,serif" font-size="14.00" fill="#000000">0/1 (1)</text>
</g>
<!-- 30&#45;&gt;6 -->
<g id="edge77" class="edge">
<title>30&#45;&gt;6</title>
<path fill="none" stroke="#000000" d="M169.2499,-75.3959C186.6048,-79.0139 211.1683,-87.0523 224.1915,-104.5577 245.1527,-132.7333 233.5032,-227.532 242.1915,-261.5577 244.0454,-268.8184 246.7578,-276.437 249.5734,-283.4116"/>
<polygon fill="#000000" stroke="#000000" points="246.5425,-285.2269 253.6847,-293.0525 252.9815,-282.4811 246.5425,-285.2269"/>
<text text-anchor="middle" x="205.6915" y="-108.3577" font-family="Times,serif" font-size="14.00" fill="#000000">1/1 (1)</text>
</g>
<!-- 31 -->
<g id="node36" class="node">
<title>31</title>
<ellipse fill="none" stroke="#000000" cx="261.6897" cy="-91.5577" rx="19.4965" ry="19.4965"/>
<text text-anchor="middle" x="261.6897" y="-87.8577" font-family="Times,serif" font-size="14.00" fill="#000000">31</text>
</g>
<!-- 30&#45;&gt;31 -->
<g id="edge78" class="edge">
<title>30&#45;&gt;31</title>
<path fill="none" stroke="#000000" d="M154.7631,-53.4081C160.0366,-37.731 169.9924,-16.5672 187.1915,-6.5577 201.4042,1.7137 210.4153,2.422 224.1915,-6.5577 242.9753,-18.8016 252.4163,-42.8128 257.1224,-62.2009"/>
<polygon fill="#000000" stroke="#000000" points="253.726,-63.0568 259.2277,-72.1112 260.5732,-61.6021 253.726,-63.0568"/>
<text text-anchor="middle" x="205.6915" y="-10.3577" font-family="Times,serif" font-size="14.00" fill="#000000">0/1 (1)</text>
</g>
<!-- 32&#45;&gt;6 -->
<g id="edge83" class="edge">
<title>32&#45;&gt;6</title>
<path fill="none" stroke="#000000" d="M158.4897,-595.7638C162.4606,-586.9023 166.7908,-575.8963 169.1915,-565.5577 175.616,-537.89 166.5423,-330.0613 187.1915,-310.5577 199.5335,-298.9004 218.8025,-298.9335 234.6514,-301.7341"/>
<polygon fill="#000000" stroke="#000000" points="233.9486,-305.163 244.4654,-303.879 235.4433,-298.3244 233.9486,-305.163"/>
<text text-anchor="middle" x="205.6915" y="-314.3577" font-family="Times,serif" font-size="14.00" fill="#000000">0/1 (1)</text>
</g>
<!-- 32&#45;&gt;11 -->
<g id="edge82" class="edge">
<title>32&#45;&gt;11</title>
<path fill="none" stroke="#000000" d="M154.8736,-632.6949C160.721,-652.1606 171.5094,-682.6403 187.1915,-705.5577 199.9747,-724.2389 210.4477,-722.5715 224.1915,-740.5577 234.1604,-753.604 242.9694,-769.6612 249.5403,-783.1044"/>
<polygon fill="#000000" stroke="#000000" points="246.474,-784.8075 253.9139,-792.3507 252.8019,-781.8144 246.474,-784.8075"/>
<text text-anchor="middle" x="205.6915" y="-744.3577" font-family="Times,serif" font-size="14.00" fill="#000000">0/1 (2)</text>
</g>
<!-- 32&#45;&gt;23 -->
<g id="edge80" class="edge">
<title>32&#45;&gt;23</title>
<path fill="none" stroke="#000000" d="M161.2984,-597.2961C167.8986,-589.4672 176.8974,-580.8623 187.1915,-576.5577 201.1705,-570.7122 217.9549,-570.0069 232.0504,-570.9616"/>
<polygon fill="#000000" stroke="#000000" points="231.9204,-574.4656 242.2142,-571.9576 232.6032,-567.4989 231.9204,-574.4656"/>
<text text-anchor="middle" x="205.6915" y="-580.3577" font-family="Times,serif" font-size="14.00" fill="#000000">1/1 (1)</text>
</g>
<!-- 33 -->
<g id="node37" class="node">
<title>33</title>
<ellipse fill="none" stroke="#000000" cx="261.6897" cy="-702.5577" rx="19.4965" ry="19.4965"/>
<text text-anchor="middle" x="261.6897" y="-698.8577" font-family="Times,serif" font-size="14.00" fill="#000000">33</text>
</g>
<!-- 32&#45;&gt;33 -->
<g id="edge81" class="edge">
<title>32&#45;&gt;33</title>
<path fill="none" stroke="#000000" d="M168.8236,-608.4344C184.9652,-605.2864 207.9694,-603.6797 224.1915,-614.5577 243.5716,-627.5535 252.974,-652.7932 257.5133,-672.9216"/>
<polygon fill="#000000" stroke="#000000" points="254.1093,-673.7515 259.4708,-682.8896 260.9781,-672.4025 254.1093,-673.7515"/>
<text text-anchor="middle" x="205.6915" y="-618.3577" font-family="Times,serif" font-size="14.00" fill="#000000">0/1 (3)</text>
</g>
<!-- 34&#45;&gt;3 -->
<g id="edge88" class="edge">
<title>34&#45;&gt;3</title>
<path fill="none" stroke="#000000" d="M153.2375,-1087.7388C159.4706,-1119.7794 173.078,-1182.3735 187.1915,-1199.5577 198.9241,-1213.8432 209.4997,-1207.3381 224.1915,-1218.5577 231.199,-1223.9091 237.983,-1230.6661 243.8097,-1237.1426"/>
<polygon fill="#000000" stroke="#000000" points="241.4503,-1239.7671 250.6229,-1245.0693 246.7588,-1235.2043 241.4503,-1239.7671"/>
<text text-anchor="middle" x="205.6915" y="-1222.3577" font-family="Times,serif" font-size="14.00" fill="#000000">0/1 (1)</text>
</g>
<!-- 34&#45;&gt;9 -->
<g id="edge87" class="edge">
<title>34&#45;&gt;9</title>
<path fill="none" stroke="#000000" d="M153.4914,-1087.849C157.8275,-1110.4613 164.8761,-1149.1021 169.1915,-1182.5577 175.07,-1228.1324 161.9624,-1350.1507 187.1915,-1388.5577 197.4545,-1404.1815 209.4558,-1397.0559 224.1915,-1408.5577 231.142,-1413.9829 237.9097,-1420.761 243.739,-1427.2341"/>
<polygon fill="#000000" stroke="#000000" points="241.3818,-1429.86 250.564,-1435.1456 246.6821,-1425.2876 241.3818,-1429.86"/>
<text text-anchor="middle" x="205.6915" y="-1412.3577" font-family="Times,serif" font-size="14.00" fill="#000000">0/1 (2)</text>
</g>
<!-- 34&#45;&gt;25 -->
<g id="edge85" class="edge">
<title>34&#45;&gt;25</title>
<path fill="none" stroke="#000000" d="M161.3638,-1052.6709C167.982,-1045.0359 176.9771,-1036.6672 187.1915,-1032.5577 201.7579,-1026.6973 219.15,-1028.1417 233.4648,-1031.3053"/>
<polygon fill="#000000" stroke="#000000" points="232.7026,-1034.7232 243.26,-1033.8329 234.4517,-1027.9453 232.7026,-1034.7232"/>
<text text-anchor="middle" x="205.6915" y="-1036.3577" font-family="Times,serif" font-size="14.00" fill="#000000">1/1 (1)</text>
</g>
<!-- 34&#45;&gt;33 -->
<g id="edge86" class="edge">
<title>34&#45;&gt;33</title>
<path fill="none" stroke="#000000" d="M161.9795,-1053.0065C164.7467,-1048.8387 167.3934,-1044.1963 169.1915,-1039.5577 188.8424,-988.8636 157.3432,-964.0014 187.1915,-918.5577 197.8214,-902.3738 213.4785,-911.6868 224.1915,-895.5577 252.3288,-853.1955 232.162,-832.4144 242.1915,-782.5577 245.6275,-765.4773 250.2111,-746.5283 254.0709,-731.361"/>
<polygon fill="#000000" stroke="#000000" points="257.497,-732.0914 256.6044,-721.5342 250.7186,-730.3438 257.497,-732.0914"/>
<text text-anchor="middle" x="205.6915" y="-922.3577" font-family="Times,serif" font-size="14.00" fill="#000000">0/1 (3)</text>
</g>
<!-- 35&#45;&gt;5 -->
<g id="edge89" class="edge">
<title>35&#45;&gt;5</title>
<path fill="none" stroke="#000000" d="M155.1767,-917.6085C159.8313,-934.7107 166.2145,-960.5853 169.1915,-983.5577 173.1774,-1014.3167 170.6027,-1515.3506 187.1915,-1541.5577 197.0785,-1557.1774 210.5815,-1548.0478 224.1915,-1560.5577 234.5775,-1570.1044 243.1916,-1583.1606 249.5332,-1594.6562"/>
<polygon fill="#000000" stroke="#000000" points="246.5904,-1596.5828 254.3148,-1603.8343 252.7984,-1593.3485 246.5904,-1596.5828"/>
<text text-anchor="middle" x="205.6915" y="-1564.3577" font-family="Times,serif" font-size="14.00" fill="#000000">1/1 (1)</text>
</g>
<!-- 35&#45;&gt;1 -->
<g id="edge91" class="edge">
<title>35&#45;&gt;1</title>
<path fill="none" stroke="#000000" d="M165.9233,-887.6886C182.0389,-878.3911 206.7892,-868.2939 224.1915,-880.5577 237.0991,-889.6541 248.7853,-929.8055 255.564,-957.7325"/>
<polygon fill="#000000" stroke="#000000" points="252.222,-958.8112 257.9141,-967.7471 259.0368,-957.2119 252.222,-958.8112"/>
<text text-anchor="middle" x="205.6915" y="-884.3577" font-family="Times,serif" font-size="14.00" fill="#000000">0/1 (2)</text>
</g>
<!-- 35&#45;&gt;11 -->
<g id="edge92" class="edge">
<title>35&#45;&gt;11</title>
<path fill="none" stroke="#000000" d="M161.8982,-882.9745C164.667,-878.8072 167.3348,-874.1732 169.1915,-869.5577 186.5353,-826.444 151.6149,-796.4562 187.1915,-766.5577 199.7806,-755.9779 209.2612,-759.6651 224.1915,-766.5577 232.7059,-770.4885 240.0004,-777.4114 245.8313,-784.6187"/>
<polygon fill="#000000" stroke="#000000" points="243.2639,-787.0377 251.9892,-793.0478 248.9162,-782.9084 243.2639,-787.0377"/>
<text text-anchor="middle" x="205.6915" y="-770.3577" font-family="Times,serif" font-size="14.00" fill="#000000">0/1 (1)</text>
</g>
<!-- 35&#45;&gt;33 -->
<g id="edge90" class="edge">
<title>35&#45;&gt;33</title>
<path fill="none" stroke="#000000" d="M161.9869,-883.3882C164.8256,-879.1421 167.5047,-874.3667 169.1915,-869.5577 185.207,-823.8972 151.59,-685.3284 187.1915,-652.5577 199.2905,-641.4207 209.4832,-645.2034 224.1915,-652.5577 234.3407,-657.6325 242.4555,-666.9051 248.5044,-676.0989"/>
<polygon fill="#000000" stroke="#000000" points="245.5381,-677.9582 253.6697,-684.7498 251.5482,-674.3695 245.5381,-677.9582"/>
<text text-anchor="middle" x="205.6915" y="-656.3577" font-family="Times,serif" font-size="14.00" fill="#000000">0/1 (3)</text>
</g>
<!-- 11&#45;&gt;9999 -->
<g id="edge98" class="edge">
<title>11&#45;&gt;9999</title>
<path fill="none" stroke="#000000" d="M273.2833,-826.3965C294.3533,-855.1816 339.284,-916.5644 366.7794,-954.1277"/>
<polygon fill="#000000" stroke="#000000" points="363.97,-956.2153 372.7008,-962.2173 369.6186,-952.0807 363.97,-956.2153"/>
<text text-anchor="middle" x="321.188" y="-922.3577" font-family="Times,serif" font-size="14.00" fill="#000000">0/1 (1)</text>
</g>
<!-- 10&#45;&gt;9999 -->
<g id="edge60" class="edge">
<title>10&#45;&gt;9999</title>
<path fill="none" stroke="#000000" d="M274.7053,-514.638C293.3119,-537.1238 327.0454,-581.53 343.188,-625.5577 364.5989,-683.9546 380.695,-866.3223 386.9431,-946.7689"/>
<polygon fill="#000000" stroke="#000000" points="383.4708,-947.2644 387.7248,-956.9677 390.4503,-946.7295 383.4708,-947.2644"/>
<text text-anchor="middle" x="321.188" y="-629.3577" font-family="Times,serif" font-size="14.00" fill="#000000">1/1 (1)</text>
</g>
<!-- 9&#45;&gt;9999 -->
<g id="edge67" class="edge">
<title>9&#45;&gt;9999</title>
<path fill="none" stroke="#000000" d="M268.0863,-1432.5307C282.7923,-1392.9528 319.5559,-1291.5042 343.188,-1204.5577 360.2251,-1141.8754 374.8746,-1067.7131 382.9943,-1023.7656"/>
<polygon fill="#000000" stroke="#000000" points="386.4606,-1024.2668 384.8191,-1013.7999 379.5751,-1023.006 386.4606,-1024.2668"/>
<text text-anchor="middle" x="321.188" y="-1348.3577" font-family="Times,serif" font-size="14.00" fill="#000000">1/1 (1)</text>
</g>
<!-- 14&#45;&gt;9999 -->
<g id="edge96" class="edge">
<title>14&#45;&gt;9999</title>
<path fill="none" stroke="#000000" d="M277.8335,-1096.2643C294.9008,-1083.9735 322.203,-1063.291 343.188,-1042.5577 351.2632,-1034.5794 359.3438,-1025.2765 366.454,-1016.5283"/>
<polygon fill="#000000" stroke="#000000" points="369.1928,-1018.7076 372.6831,-1008.7042 363.7164,-1014.3476 369.1928,-1018.7076"/>
<text text-anchor="middle" x="321.188" y="-1082.3577" font-family="Times,serif" font-size="14.00" fill="#000000">0/1 (1)</text>
</g>
<!-- 13&#45;&gt;9999 -->
<g id="edge97" class="edge">
<title>13&#45;&gt;9999</title>
<path fill="none" stroke="#000000" d="M276.3344,-246.4872C295.5846,-264.4935 328.6557,-299.1487 343.188,-336.5577 365.2446,-393.3359 383.2119,-815.1321 388.3237,-946.5684"/>
<polygon fill="#000000" stroke="#000000" points="384.8412,-947.0928 388.7241,-956.9504 391.836,-946.8229 384.8412,-947.0928"/>
<text text-anchor="middle" x="321.188" y="-340.3577" font-family="Times,serif" font-size="14.00" fill="#000000">0/1 (1)</text>
</g>
<!-- 20&#45;&gt;9999 -->
<g id="edge46" class="edge">
<title>20&#45;&gt;9999</title>
<path fill="none" stroke="#000000" d="M268.9209,-2199.418C285.5654,-2156.7043 326.4398,-2046.1085 343.188,-1949.5577 374.8216,-1767.1949 386.5597,-1181.6542 389.1824,-1024.6205"/>
<polygon fill="#000000" stroke="#000000" points="392.6841,-1024.541 389.3489,-1014.4848 385.685,-1024.4259 392.6841,-1024.541"/>
<text text-anchor="middle" x="321.188" y="-2113.3577" font-family="Times,serif" font-size="14.00" fill="#000000">1/1 (1)</text>
</g>
<!-- 25&#45;&gt;9999 -->
<g id="edge84" class="edge">
<title>25&#45;&gt;9999</title>
<path fill="none" stroke="#000000" d="M279.771,-1032.7942C299.0099,-1024.5337 329.9441,-1011.2516 354.1175,-1000.8724"/>
<polygon fill="#000000" stroke="#000000" points="355.5356,-1004.0725 363.3435,-996.911 352.7738,-997.6404 355.5356,-1004.0725"/>
<text text-anchor="middle" x="321.188" y="-1027.3577" font-family="Times,serif" font-size="14.00" fill="#000000">1/1 (1)</text>
</g>
<!-- 23&#45;&gt;9999 -->
<g id="edge79" class="edge">
<title>23&#45;&gt;9999</title>
<path fill="none" stroke="#000000" d="M271.8359,-592.3556C289.0714,-621.6211 324.0558,-684.3122 343.188,-741.5577 366.6855,-811.8645 379.6362,-897.76 385.6099,-946.6143"/>
<polygon fill="#000000" stroke="#000000" points="382.1585,-947.2319 386.8135,-956.7493 389.1097,-946.4063 382.1585,-947.2319"/>
<text text-anchor="middle" x="321.188" y="-745.3577" font-family="Times,serif" font-size="14.00" fill="#000000">1/1 (1)</text>
</g>
<!-- 22&#45;&gt;9999 -->
<g id="edge95" class="edge">
<title>22&#45;&gt;9999</title>
<path fill="none" stroke="#000000" d="M274.867,-419.3026C293.6751,-441.3119 327.6572,-484.8658 343.188,-528.5577 370.4789,-605.3337 383.891,-850.7113 388.1927,-946.618"/>
<polygon fill="#000000" stroke="#000000" points="384.7025,-946.9203 388.6383,-956.7569 391.6958,-946.6128 384.7025,-946.9203"/>
<text text-anchor="middle" x="321.188" y="-532.3577" font-family="Times,serif" font-size="14.00" fill="#000000">0/1 (1)</text>
</g>
<!-- 31&#45;&gt;9999 -->
<g id="edge94" class="edge">
<title>31&#45;&gt;9999</title>
<path fill="none" stroke="#000000" d="M272.9031,-108.0226C291.3988,-136.1811 327.7854,-196.0345 343.188,-252.5577 379.3381,-385.2184 387.6499,-814.5568 389.3719,-946.5725"/>
<polygon fill="#000000" stroke="#000000" points="385.8728,-946.6766 389.4977,-956.632 392.8722,-946.5889 385.8728,-946.6766"/>
<text text-anchor="middle" x="321.188" y="-256.3577" font-family="Times,serif" font-size="14.00" fill="#000000">0/1 (1)</text>
</g>
<!-- 33&#45;&gt;9999 -->
<g id="edge93" class="edge">
<title>33&#45;&gt;9999</title>
<path fill="none" stroke="#000000" d="M272.6593,-718.7591C289.5444,-744.2295 322.1506,-795.5869 343.188,-842.5577 358.7026,-877.1977 371.6221,-918.6049 379.8914,-947.9257"/>
<polygon fill="#000000" stroke="#000000" points="376.574,-949.0609 382.619,-957.7619 383.3195,-947.1902 376.574,-949.0609"/>
<text text-anchor="middle" x="321.188" y="-846.3577" font-family="Times,serif" font-size="14.00" fill="#000000">0/1 (1)</text>
</g>
</g>
</svg>
