<?xml version="1.0" encoding="UTF-8" standalone="no"?>
<!DOCTYPE svg PUBLIC "-//W3C//DTD SVG 1.1//EN"
 "http://www.w3.org/Graphics/SVG/1.1/DTD/svg11.dtd">
<!-- Generated by graphviz version 2.43.20190912.0211 (20190912.0211)
 -->
<!-- Title: finite_state_machine Pages: 1 -->
<svg width="423pt" height="1337pt"
 viewBox="0.00 0.00 422.78 1336.75" xmlns="http://www.w3.org/2000/svg" xmlns:xlink="http://www.w3.org/1999/xlink">
<g id="graph0" class="graph" transform="scale(1 1) rotate(0) translate(4 1332.75)">
<title>finite_state_machine</title>
<polygon fill="white" stroke="transparent" points="-4,4 -4,-1332.75 418.78,-1332.75 418.78,4 -4,4"/>
<!-- 1 -->
<g id="node1" class="node">
<title>1</title>
<ellipse fill="none" stroke="black" cx="255.14" cy="-1237.75" rx="18" ry="18"/>
<text text-anchor="middle" x="255.14" y="-1234.05" font-family="Times,serif" font-size="14.00">1</text>
</g>
<!-- 9999 -->
<g id="node2" class="node">
<title>9999</title>
<ellipse fill="none" stroke="black" cx="380.33" cy="-798.75" rx="34.39" ry="34.39"/>
<text text-anchor="middle" x="380.33" y="-795.05" font-family="Times,serif" font-size="14.00">9999</text>
</g>
<!-- 1&#45;&gt;9999 -->
<g id="edge1" class="edge">
<title>1&#45;&gt;9999</title>
<path fill="none" stroke="black" d="M264.26,-1222.07C279.01,-1192.98 310.28,-1128.39 327.89,-1070.75 351.82,-992.37 366.69,-897.73 373.96,-843.27"/>
<polygon fill="black" stroke="black" points="377.44,-843.62 375.27,-833.25 370.5,-842.71 377.44,-843.62"/>
<text text-anchor="middle" x="311.89" y="-1157.55" font-family="Times,serif" font-size="14.00">0/20</text>
</g>
<!-- 2 -->
<g id="node3" class="node">
<title>2</title>
<ellipse fill="none" stroke="black" cx="255.14" cy="-1142.75" rx="18" ry="18"/>
<text text-anchor="middle" x="255.14" y="-1139.05" font-family="Times,serif" font-size="14.00">2</text>
</g>
<!-- 2&#45;&gt;9999 -->
<g id="edge2" class="edge">
<title>2&#45;&gt;9999</title>
<path fill="none" stroke="black" d="M263.68,-1126.58C277.48,-1096.64 307.28,-1030.36 327.89,-972.75 343.57,-928.88 358.31,-877.62 367.95,-842.16"/>
<polygon fill="black" stroke="black" points="371.43,-842.7 370.66,-832.14 364.67,-840.88 371.43,-842.7"/>
<text text-anchor="middle" x="311.89" y="-1055.55" font-family="Times,serif" font-size="14.00">0/3</text>
</g>
<!-- 3 -->
<g id="node4" class="node">
<title>3</title>
<ellipse fill="none" stroke="black" cx="255.14" cy="-1028.75" rx="18" ry="18"/>
<text text-anchor="middle" x="255.14" y="-1025.05" font-family="Times,serif" font-size="14.00">3</text>
</g>
<!-- 3&#45;&gt;9999 -->
<g id="edge3" class="edge">
<title>3&#45;&gt;9999</title>
<path fill="none" stroke="black" d="M264.41,-1013.3C283.45,-977.76 330.82,-889.32 358.43,-837.76"/>
<polygon fill="black" stroke="black" points="361.55,-839.36 363.18,-828.9 355.38,-836.06 361.55,-839.36"/>
<text text-anchor="middle" x="311.89" y="-957.55" font-family="Times,serif" font-size="14.00">0/5</text>
</g>
<!-- 4 -->
<g id="node5" class="node">
<title>4</title>
<ellipse fill="none" stroke="black" cx="255.14" cy="-864.75" rx="18" ry="18"/>
<text text-anchor="middle" x="255.14" y="-861.05" font-family="Times,serif" font-size="14.00">4</text>
</g>
<!-- 4&#45;&gt;9999 -->
<g id="edge4" class="edge">
<title>4&#45;&gt;9999</title>
<path fill="none" stroke="black" d="M271.24,-856.66C288.37,-847.48 316.97,-832.16 340.45,-819.58"/>
<polygon fill="black" stroke="black" points="342.33,-822.54 349.49,-814.74 339.02,-816.37 342.33,-822.54"/>
<text text-anchor="middle" x="311.89" y="-846.55" font-family="Times,serif" font-size="14.00">0/2</text>
</g>
<!-- 5 -->
<g id="node6" class="node">
<title>5</title>
<ellipse fill="none" stroke="black" cx="255.14" cy="-798.75" rx="18" ry="18"/>
<text text-anchor="middle" x="255.14" y="-795.05" font-family="Times,serif" font-size="14.00">5</text>
</g>
<!-- 5&#45;&gt;9999 -->
<g id="edge5" class="edge">
<title>5&#45;&gt;9999</title>
<path fill="none" stroke="black" d="M273.27,-798.75C289.29,-798.75 313.91,-798.75 335.39,-798.75"/>
<polygon fill="black" stroke="black" points="335.64,-802.25 345.64,-798.75 335.64,-795.25 335.64,-802.25"/>
<text text-anchor="middle" x="311.89" y="-802.55" font-family="Times,serif" font-size="14.00">0/10</text>
</g>
<!-- 6 -->
<g id="node7" class="node">
<title>6</title>
<ellipse fill="none" stroke="black" cx="255.14" cy="-570.75" rx="18" ry="18"/>
<text text-anchor="middle" x="255.14" y="-567.05" font-family="Times,serif" font-size="14.00">6</text>
</g>
<!-- 6&#45;&gt;9999 -->
<g id="edge6" class="edge">
<title>6&#45;&gt;9999</title>
<path fill="none" stroke="black" d="M264.61,-586.42C283.69,-621.75 330.56,-708.49 358.13,-759.5"/>
<polygon fill="black" stroke="black" points="355.21,-761.46 363.04,-768.59 361.37,-758.13 355.21,-761.46"/>
<text text-anchor="middle" x="311.89" y="-701.55" font-family="Times,serif" font-size="14.00">0/10</text>
</g>
<!-- 7 -->
<g id="node8" class="node">
<title>7</title>
<ellipse fill="none" stroke="black" cx="150.64" cy="-1294.75" rx="18" ry="18"/>
<text text-anchor="middle" x="150.64" y="-1291.05" font-family="Times,serif" font-size="14.00">7</text>
</g>
<!-- 7&#45;&gt;1 -->
<g id="edge7" class="edge">
<title>7&#45;&gt;1</title>
<path fill="none" stroke="black" d="M165.98,-1304.27C179.31,-1311.81 199.31,-1319.71 214.39,-1310.75 231.03,-1300.86 241.15,-1281.29 247.01,-1264.9"/>
<polygon fill="black" stroke="black" points="250.39,-1265.81 250.13,-1255.22 243.73,-1263.66 250.39,-1265.81"/>
<text text-anchor="middle" x="202.89" y="-1317.55" font-family="Times,serif" font-size="14.00">0/1</text>
</g>
<!-- 7&#45;&gt;2 -->
<g id="edge8" class="edge">
<title>7&#45;&gt;2</title>
<path fill="none" stroke="black" d="M167.72,-1288.99C181.86,-1283.15 202.06,-1272.83 214.39,-1257.75 217.3,-1254.19 234.62,-1202.34 245.41,-1169.49"/>
<polygon fill="black" stroke="black" points="248.74,-1170.57 248.53,-1159.98 242.09,-1168.39 248.74,-1170.57"/>
<text text-anchor="middle" x="202.89" y="-1280.55" font-family="Times,serif" font-size="14.00">0/1</text>
</g>
<!-- 8 -->
<g id="node9" class="node">
<title>8</title>
<ellipse fill="none" stroke="black" cx="150.64" cy="-1207.75" rx="18" ry="18"/>
<text text-anchor="middle" x="150.64" y="-1204.05" font-family="Times,serif" font-size="14.00">8</text>
</g>
<!-- 8&#45;&gt;1 -->
<g id="edge9" class="edge">
<title>8&#45;&gt;1</title>
<path fill="none" stroke="black" d="M164.62,-1219.27C171.95,-1225.04 181.58,-1231.47 191.39,-1234.75 202.68,-1238.52 215.75,-1239.62 227.02,-1239.64"/>
<polygon fill="black" stroke="black" points="227.26,-1243.14 237.17,-1239.38 227.08,-1236.14 227.26,-1243.14"/>
<text text-anchor="middle" x="202.89" y="-1242.55" font-family="Times,serif" font-size="14.00">0/1</text>
</g>
<!-- 8&#45;&gt;2 -->
<g id="edge10" class="edge">
<title>8&#45;&gt;2</title>
<path fill="none" stroke="black" d="M166.31,-1198.04C173.79,-1193.11 183.05,-1187.07 191.39,-1181.75 204.28,-1173.53 218.76,-1164.51 230.56,-1157.22"/>
<polygon fill="black" stroke="black" points="232.69,-1160.02 239.37,-1151.79 229.02,-1154.06 232.69,-1160.02"/>
<text text-anchor="middle" x="202.89" y="-1185.55" font-family="Times,serif" font-size="14.00">0/1</text>
</g>
<!-- 8&#45;&gt;3 -->
<g id="edge11" class="edge">
<title>8&#45;&gt;3</title>
<path fill="none" stroke="black" d="M163.2,-1194.37C166.64,-1190.14 170.31,-1185.35 173.39,-1180.75 182.67,-1166.85 181.92,-1161.51 191.39,-1147.75 200.32,-1134.76 206.06,-1134.13 214.39,-1120.75 227.33,-1099.96 238.05,-1074.23 245.09,-1055.27"/>
<polygon fill="black" stroke="black" points="248.41,-1056.37 248.51,-1045.77 241.83,-1053.99 248.41,-1056.37"/>
<text text-anchor="middle" x="202.89" y="-1151.55" font-family="Times,serif" font-size="14.00">0/1</text>
</g>
<!-- 9 -->
<g id="node10" class="node">
<title>9</title>
<ellipse fill="none" stroke="black" cx="150.64" cy="-963.75" rx="18" ry="18"/>
<text text-anchor="middle" x="150.64" y="-960.05" font-family="Times,serif" font-size="14.00">9</text>
</g>
<!-- 9&#45;&gt;1 -->
<g id="edge12" class="edge">
<title>9&#45;&gt;1</title>
<path fill="none" stroke="black" d="M163.98,-975.92C167.63,-980.25 171.23,-985.39 173.39,-990.75 190.55,-1033.38 167.78,-1157.32 191.39,-1196.75 196.06,-1204.54 214.29,-1216.03 229.91,-1224.86"/>
<polygon fill="black" stroke="black" points="228.24,-1227.93 238.68,-1229.71 231.62,-1221.81 228.24,-1227.93"/>
<text text-anchor="middle" x="202.89" y="-1218.55" font-family="Times,serif" font-size="14.00">0/1</text>
</g>
<!-- 9&#45;&gt;2 -->
<g id="edge13" class="edge">
<title>9&#45;&gt;2</title>
<path fill="none" stroke="black" d="M163.88,-976.34C167.44,-980.62 171,-985.62 173.39,-990.75 190.97,-1028.52 170.08,-1046.94 191.39,-1082.75 198.17,-1094.14 204.65,-1092.75 214.39,-1101.75 221.4,-1108.23 228.77,-1115.63 235.22,-1122.35"/>
<polygon fill="black" stroke="black" points="232.89,-1124.98 242.31,-1129.83 237.97,-1120.16 232.89,-1124.98"/>
<text text-anchor="middle" x="202.89" y="-1105.55" font-family="Times,serif" font-size="14.00">0/1</text>
</g>
<!-- 9&#45;&gt;4 -->
<g id="edge14" class="edge">
<title>9&#45;&gt;4</title>
<path fill="none" stroke="black" d="M167.83,-958.09C181.47,-952.69 200.87,-943.5 214.39,-930.75 226.44,-919.37 236.14,-903.54 242.94,-890.24"/>
<polygon fill="black" stroke="black" points="246.16,-891.62 247.37,-881.1 239.86,-888.57 246.16,-891.62"/>
<text text-anchor="middle" x="202.89" y="-949.55" font-family="Times,serif" font-size="14.00">0/1</text>
</g>
<!-- 10 -->
<g id="node11" class="node">
<title>10</title>
<ellipse fill="none" stroke="black" cx="255.14" cy="-730.75" rx="23" ry="23"/>
<text text-anchor="middle" x="255.14" y="-727.05" font-family="Times,serif" font-size="14.00">10</text>
</g>
<!-- 9&#45;&gt;10 -->
<g id="edge15" class="edge">
<title>9&#45;&gt;10</title>
<path fill="none" stroke="black" d="M162.85,-950.13C166.28,-945.88 170.03,-941.15 173.39,-936.75 181.69,-925.86 182.04,-921.75 191.39,-911.75 200.45,-902.07 207.87,-904.29 214.39,-892.75 241.12,-845.4 215.41,-823.4 232.39,-771.75 233.82,-767.41 235.68,-762.99 237.71,-758.72"/>
<polygon fill="black" stroke="black" points="240.86,-760.24 242.33,-749.75 234.64,-757.04 240.86,-760.24"/>
<text text-anchor="middle" x="202.89" y="-915.55" font-family="Times,serif" font-size="14.00">0/1</text>
</g>
<!-- 11 -->
<g id="node12" class="node">
<title>11</title>
<ellipse fill="none" stroke="black" cx="255.14" cy="-367.75" rx="23" ry="23"/>
<text text-anchor="middle" x="255.14" y="-364.05" font-family="Times,serif" font-size="14.00">11</text>
</g>
<!-- 9&#45;&gt;11 -->
<g id="edge16" class="edge">
<title>9&#45;&gt;11</title>
<path fill="none" stroke="black" d="M163.92,-951.55C167.57,-947.22 171.18,-942.09 173.39,-936.75 202.25,-866.94 162.79,-837.66 191.39,-767.75 197.62,-752.52 208.27,-754.02 214.39,-738.75 246.78,-657.96 223.05,-630.28 232.39,-543.75 237.79,-493.68 245.17,-435.73 249.79,-400.42"/>
<polygon fill="black" stroke="black" points="253.3,-400.6 251.13,-390.23 246.36,-399.68 253.3,-400.6"/>
<text text-anchor="middle" x="202.89" y="-771.55" font-family="Times,serif" font-size="14.00">0/1</text>
</g>
<!-- 10&#45;&gt;9999 -->
<g id="edge17" class="edge">
<title>10&#45;&gt;9999</title>
<path fill="none" stroke="black" d="M275.39,-741.37C292.8,-750.98 318.95,-765.42 340.67,-777.41"/>
<polygon fill="black" stroke="black" points="339.22,-780.61 349.67,-782.37 342.6,-774.48 339.22,-780.61"/>
<text text-anchor="middle" x="311.89" y="-772.55" font-family="Times,serif" font-size="14.00">0/1</text>
</g>
<!-- 11&#45;&gt;9999 -->
<g id="edge18" class="edge">
<title>11&#45;&gt;9999</title>
<path fill="none" stroke="black" d="M262.33,-389.42C281.68,-457.12 341.27,-665.57 367.14,-756.08"/>
<polygon fill="black" stroke="black" points="363.79,-757.09 369.9,-765.74 370.52,-755.17 363.79,-757.09"/>
<text text-anchor="middle" x="311.89" y="-612.55" font-family="Times,serif" font-size="14.00">0/1</text>
</g>
<!-- 12 -->
<g id="node13" class="node">
<title>12</title>
<ellipse fill="none" stroke="black" cx="150.64" cy="-652.75" rx="23" ry="23"/>
<text text-anchor="middle" x="150.64" y="-649.05" font-family="Times,serif" font-size="14.00">12</text>
</g>
<!-- 12&#45;&gt;6 -->
<g id="edge20" class="edge">
<title>12&#45;&gt;6</title>
<path fill="none" stroke="black" d="M165.78,-635.39C172.97,-627.12 182.14,-617.39 191.39,-609.75 203.25,-599.95 217.77,-590.77 229.86,-583.79"/>
<polygon fill="black" stroke="black" points="231.93,-586.63 238.93,-578.68 228.5,-580.53 231.93,-586.63"/>
<text text-anchor="middle" x="202.89" y="-613.55" font-family="Times,serif" font-size="14.00">0/1</text>
</g>
<!-- 12&#45;&gt;10 -->
<g id="edge19" class="edge">
<title>12&#45;&gt;10</title>
<path fill="none" stroke="black" d="M169.5,-666.33C185.81,-678.75 210.12,-697.25 228.51,-711.24"/>
<polygon fill="black" stroke="black" points="226.41,-714.05 236.49,-717.32 230.65,-708.48 226.41,-714.05"/>
<text text-anchor="middle" x="202.89" y="-701.55" font-family="Times,serif" font-size="14.00">0/1</text>
</g>
<!-- 13 -->
<g id="node14" class="node">
<title>13</title>
<ellipse fill="none" stroke="black" cx="150.64" cy="-715.75" rx="23" ry="23"/>
<text text-anchor="middle" x="150.64" y="-712.05" font-family="Times,serif" font-size="14.00">13</text>
</g>
<!-- 13&#45;&gt;6 -->
<g id="edge22" class="edge">
<title>13&#45;&gt;6</title>
<path fill="none" stroke="black" d="M164.62,-697.38C183.37,-670.86 217.99,-621.89 238.24,-593.24"/>
<polygon fill="black" stroke="black" points="241.12,-595.23 244.03,-585.05 235.4,-591.19 241.12,-595.23"/>
<text text-anchor="middle" x="202.89" y="-659.55" font-family="Times,serif" font-size="14.00">0/1</text>
</g>
<!-- 13&#45;&gt;10 -->
<g id="edge21" class="edge">
<title>13&#45;&gt;10</title>
<path fill="none" stroke="black" d="M173.46,-718.27C185.54,-719.73 200.82,-721.69 214.39,-723.75 217.09,-724.16 219.89,-724.6 222.69,-725.07"/>
<polygon fill="black" stroke="black" points="222.27,-728.55 232.71,-726.78 223.45,-721.65 222.27,-728.55"/>
<text text-anchor="middle" x="202.89" y="-727.55" font-family="Times,serif" font-size="14.00">0/1</text>
</g>
<!-- 14 -->
<g id="node15" class="node">
<title>14</title>
<ellipse fill="none" stroke="black" cx="150.64" cy="-778.75" rx="23" ry="23"/>
<text text-anchor="middle" x="150.64" y="-775.05" font-family="Times,serif" font-size="14.00">14</text>
</g>
<!-- 14&#45;&gt;5 -->
<g id="edge23" class="edge">
<title>14&#45;&gt;5</title>
<path fill="none" stroke="black" d="M173.38,-782.99C189,-786.04 210.16,-790.17 226.91,-793.43"/>
<polygon fill="black" stroke="black" points="226.68,-796.96 237.17,-795.44 228.03,-790.09 226.68,-796.96"/>
<text text-anchor="middle" x="202.89" y="-793.55" font-family="Times,serif" font-size="14.00">0/1</text>
</g>
<!-- 15 -->
<g id="node16" class="node">
<title>15</title>
<ellipse fill="none" stroke="black" cx="150.64" cy="-85.75" rx="23" ry="23"/>
<text text-anchor="middle" x="150.64" y="-82.05" font-family="Times,serif" font-size="14.00">15</text>
</g>
<!-- 16 -->
<g id="node17" class="node">
<title>16</title>
<ellipse fill="none" stroke="black" cx="255.14" cy="-111.75" rx="23" ry="23"/>
<text text-anchor="middle" x="255.14" y="-108.05" font-family="Times,serif" font-size="14.00">16</text>
</g>
<!-- 15&#45;&gt;16 -->
<g id="edge24" class="edge">
<title>15&#45;&gt;16</title>
<path fill="none" stroke="black" d="M173.23,-90.15C185.37,-92.73 200.79,-96.18 214.39,-99.75 217.36,-100.53 220.45,-101.38 223.52,-102.26"/>
<polygon fill="black" stroke="black" points="222.6,-105.63 233.18,-105.11 224.58,-98.92 222.6,-105.63"/>
<text text-anchor="middle" x="202.89" y="-103.55" font-family="Times,serif" font-size="14.00">0/1</text>
</g>
<!-- 16&#45;&gt;9999 -->
<g id="edge27" class="edge">
<title>16&#45;&gt;9999</title>
<path fill="none" stroke="black" d="M260.62,-134.17C272.21,-192.42 303.94,-353.3 327.89,-487.75 344.8,-582.74 362.82,-694.39 372.4,-754.71"/>
<polygon fill="black" stroke="black" points="368.95,-755.32 373.97,-764.65 375.86,-754.22 368.95,-755.32"/>
<text text-anchor="middle" x="311.89" y="-491.55" font-family="Times,serif" font-size="14.00">0/1</text>
</g>
<!-- 17 -->
<g id="node18" class="node">
<title>17</title>
<ellipse fill="none" stroke="black" cx="150.64" cy="-22.75" rx="23" ry="23"/>
<text text-anchor="middle" x="150.64" y="-19.05" font-family="Times,serif" font-size="14.00">17</text>
</g>
<!-- 17&#45;&gt;16 -->
<g id="edge25" class="edge">
<title>17&#45;&gt;16</title>
<path fill="none" stroke="black" d="M168.82,-36.99C181.51,-47.57 199.15,-62.42 214.39,-75.75 219.45,-80.17 224.81,-84.96 229.91,-89.56"/>
<polygon fill="black" stroke="black" points="227.86,-92.43 237.62,-96.56 232.56,-87.24 227.86,-92.43"/>
<text text-anchor="middle" x="202.89" y="-79.55" font-family="Times,serif" font-size="14.00">0/1</text>
</g>
<!-- 18 -->
<g id="node19" class="node">
<title>18</title>
<ellipse fill="none" stroke="black" cx="150.64" cy="-148.75" rx="23" ry="23"/>
<text text-anchor="middle" x="150.64" y="-145.05" font-family="Times,serif" font-size="14.00">18</text>
</g>
<!-- 18&#45;&gt;16 -->
<g id="edge26" class="edge">
<title>18&#45;&gt;16</title>
<path fill="none" stroke="black" d="M172.38,-141.26C187.11,-135.94 207.12,-128.72 223.66,-122.75"/>
<polygon fill="black" stroke="black" points="225.21,-125.91 233.43,-119.22 222.83,-119.33 225.21,-125.91"/>
<text text-anchor="middle" x="202.89" y="-137.55" font-family="Times,serif" font-size="14.00">0/1</text>
</g>
<!-- 20 -->
<g id="node20" class="node">
<title>20</title>
<ellipse fill="none" stroke="black" cx="150.64" cy="-526.75" rx="23" ry="23"/>
<text text-anchor="middle" x="150.64" y="-523.05" font-family="Times,serif" font-size="14.00">20</text>
</g>
<!-- 20&#45;&gt;6 -->
<g id="edge28" class="edge">
<title>20&#45;&gt;6</title>
<path fill="none" stroke="black" d="M172.55,-533.62C184.89,-537.87 200.72,-543.66 214.39,-549.75 219.43,-551.99 224.72,-554.6 229.73,-557.19"/>
<polygon fill="black" stroke="black" points="228.43,-560.46 238.9,-562.08 231.72,-554.29 228.43,-560.46"/>
<text text-anchor="middle" x="202.89" y="-553.55" font-family="Times,serif" font-size="14.00">0/1</text>
</g>
<!-- 21 -->
<g id="node21" class="node">
<title>21</title>
<ellipse fill="none" stroke="black" cx="150.64" cy="-463.75" rx="23" ry="23"/>
<text text-anchor="middle" x="150.64" y="-460.05" font-family="Times,serif" font-size="14.00">21</text>
</g>
<!-- 21&#45;&gt;6 -->
<g id="edge29" class="edge">
<title>21&#45;&gt;6</title>
<path fill="none" stroke="black" d="M168.58,-477.82C181.61,-488.95 199.8,-505.17 214.39,-520.75 222.55,-529.46 230.87,-539.68 237.78,-548.61"/>
<polygon fill="black" stroke="black" points="235.07,-550.83 243.91,-556.67 240.64,-546.59 235.07,-550.83"/>
<text text-anchor="middle" x="202.89" y="-524.55" font-family="Times,serif" font-size="14.00">0/1</text>
</g>
<!-- 22 -->
<g id="node22" class="node">
<title>22</title>
<ellipse fill="none" stroke="black" cx="150.64" cy="-589.75" rx="23" ry="23"/>
<text text-anchor="middle" x="150.64" y="-586.05" font-family="Times,serif" font-size="14.00">22</text>
</g>
<!-- 22&#45;&gt;6 -->
<g id="edge30" class="edge">
<title>22&#45;&gt;6</title>
<path fill="none" stroke="black" d="M170.9,-579.12C177.24,-576.15 184.44,-573.31 191.39,-571.75 202.91,-569.16 215.92,-568.59 227.1,-568.78"/>
<polygon fill="black" stroke="black" points="227.01,-572.28 237.14,-569.17 227.28,-565.29 227.01,-572.28"/>
<text text-anchor="middle" x="202.89" y="-575.55" font-family="Times,serif" font-size="14.00">0/1</text>
</g>
<!-- 19 -->
<g id="node23" class="node">
<title>19</title>
<ellipse fill="none" stroke="black" cx="150.64" cy="-400.75" rx="23" ry="23"/>
<text text-anchor="middle" x="150.64" y="-397.05" font-family="Times,serif" font-size="14.00">19</text>
</g>
<!-- 19&#45;&gt;6 -->
<g id="edge31" class="edge">
<title>19&#45;&gt;6</title>
<path fill="none" stroke="black" d="M166.7,-417.07C180.35,-432.43 200.4,-456.48 214.39,-479.75 226.84,-500.44 237.56,-525.73 244.72,-544.39"/>
<polygon fill="black" stroke="black" points="241.54,-545.87 248.32,-554.01 248.09,-543.42 241.54,-545.87"/>
<text text-anchor="middle" x="202.89" y="-483.55" font-family="Times,serif" font-size="14.00">0/1</text>
</g>
<!-- 19&#45;&gt;11 -->
<g id="edge32" class="edge">
<title>19&#45;&gt;11</title>
<path fill="none" stroke="black" d="M172.88,-393.91C187.54,-389.19 207.27,-382.84 223.61,-377.58"/>
<polygon fill="black" stroke="black" points="224.83,-380.86 233.28,-374.46 222.69,-374.2 224.83,-380.86"/>
<text text-anchor="middle" x="202.89" y="-390.55" font-family="Times,serif" font-size="14.00">0/1</text>
</g>
<!-- 23 -->
<g id="node24" class="node">
<title>23</title>
<ellipse fill="none" stroke="black" cx="150.64" cy="-337.75" rx="23" ry="23"/>
<text text-anchor="middle" x="150.64" y="-334.05" font-family="Times,serif" font-size="14.00">23</text>
</g>
<!-- 23&#45;&gt;11 -->
<g id="edge33" class="edge">
<title>23&#45;&gt;11</title>
<path fill="none" stroke="black" d="M173.02,-342.16C185.24,-344.85 200.79,-348.57 214.39,-352.75 217.56,-353.72 220.85,-354.82 224.11,-355.96"/>
<polygon fill="black" stroke="black" points="223.08,-359.31 233.68,-359.46 225.49,-352.74 223.08,-359.31"/>
<text text-anchor="middle" x="202.89" y="-356.55" font-family="Times,serif" font-size="14.00">0/1</text>
</g>
<!-- 24 -->
<g id="node25" class="node">
<title>24</title>
<ellipse fill="none" stroke="black" cx="150.64" cy="-274.75" rx="23" ry="23"/>
<text text-anchor="middle" x="150.64" y="-271.05" font-family="Times,serif" font-size="14.00">24</text>
</g>
<!-- 24&#45;&gt;11 -->
<g id="edge34" class="edge">
<title>24&#45;&gt;11</title>
<path fill="none" stroke="black" d="M169.12,-288.38C181.95,-298.6 199.64,-313.11 214.39,-326.75 220.19,-332.12 226.24,-338.12 231.81,-343.84"/>
<polygon fill="black" stroke="black" points="229.6,-346.59 239.05,-351.38 234.65,-341.74 229.6,-346.59"/>
<text text-anchor="middle" x="202.89" y="-330.55" font-family="Times,serif" font-size="14.00">0/1</text>
</g>
<!-- 25 -->
<g id="node26" class="node">
<title>25</title>
<ellipse fill="none" stroke="black" cx="150.64" cy="-211.75" rx="23" ry="23"/>
<text text-anchor="middle" x="150.64" y="-208.05" font-family="Times,serif" font-size="14.00">25</text>
</g>
<!-- 25&#45;&gt;11 -->
<g id="edge35" class="edge">
<title>25&#45;&gt;11</title>
<path fill="none" stroke="black" d="M167.02,-228.09C180.51,-242.93 200.14,-265.79 214.39,-287.75 224.57,-303.44 233.98,-322.09 241.08,-337.44"/>
<polygon fill="black" stroke="black" points="238.09,-339.32 245.41,-346.99 244.47,-336.44 238.09,-339.32"/>
<text text-anchor="middle" x="202.89" y="-291.55" font-family="Times,serif" font-size="14.00">0/1</text>
</g>
<!-- 26 -->
<g id="node27" class="node">
<title>26</title>
<ellipse fill="none" stroke="black" cx="150.64" cy="-841.75" rx="23" ry="23"/>
<text text-anchor="middle" x="150.64" y="-838.05" font-family="Times,serif" font-size="14.00">26</text>
</g>
<!-- 26&#45;&gt;4 -->
<g id="edge36" class="edge">
<title>26&#45;&gt;4</title>
<path fill="none" stroke="black" d="M173.25,-837.81C185.54,-836.38 201.09,-835.91 214.39,-839.75 220.51,-841.51 226.6,-844.53 232.11,-847.87"/>
<polygon fill="black" stroke="black" points="230.46,-850.98 240.72,-853.63 234.36,-845.17 230.46,-850.98"/>
<text text-anchor="middle" x="202.89" y="-843.55" font-family="Times,serif" font-size="14.00">0/1</text>
</g>
<!-- 27 -->
<g id="node28" class="node">
<title>27</title>
<ellipse fill="none" stroke="black" cx="150.64" cy="-904.75" rx="23" ry="23"/>
<text text-anchor="middle" x="150.64" y="-901.05" font-family="Times,serif" font-size="14.00">27</text>
</g>
<!-- 27&#45;&gt;4 -->
<g id="edge37" class="edge">
<title>27&#45;&gt;4</title>
<path fill="none" stroke="black" d="M168.98,-890.79C175.65,-886.03 183.55,-881.07 191.39,-877.75 202.57,-873.01 215.62,-869.95 226.91,-868"/>
<polygon fill="black" stroke="black" points="227.73,-871.42 237.09,-866.45 226.67,-864.5 227.73,-871.42"/>
<text text-anchor="middle" x="202.89" y="-881.55" font-family="Times,serif" font-size="14.00">0/1</text>
</g>
<!-- 28 -->
<g id="node29" class="node">
<title>28</title>
<ellipse fill="none" stroke="black" cx="150.64" cy="-1148.75" rx="23" ry="23"/>
<text text-anchor="middle" x="150.64" y="-1145.05" font-family="Times,serif" font-size="14.00">28</text>
</g>
<!-- 28&#45;&gt;3 -->
<g id="edge38" class="edge">
<title>28&#45;&gt;3</title>
<path fill="none" stroke="black" d="M165.36,-1130.9C168.24,-1126.72 171.09,-1122.18 173.39,-1117.75 184.27,-1096.78 176.54,-1086.11 191.39,-1067.75 201.29,-1055.51 216.12,-1046.04 228.87,-1039.5"/>
<polygon fill="black" stroke="black" points="230.6,-1042.55 238.11,-1035.07 227.58,-1036.24 230.6,-1042.55"/>
<text text-anchor="middle" x="202.89" y="-1071.55" font-family="Times,serif" font-size="14.00">0/1</text>
</g>
<!-- 29 -->
<g id="node30" class="node">
<title>29</title>
<ellipse fill="none" stroke="black" cx="150.64" cy="-1085.75" rx="23" ry="23"/>
<text text-anchor="middle" x="150.64" y="-1082.05" font-family="Times,serif" font-size="14.00">29</text>
</g>
<!-- 29&#45;&gt;3 -->
<g id="edge39" class="edge">
<title>29&#45;&gt;3</title>
<path fill="none" stroke="black" d="M164.43,-1067.53C175.85,-1051.29 190.87,-1030.02 191.39,-1029.75 202.24,-1024.03 215.68,-1023.15 227.33,-1023.96"/>
<polygon fill="black" stroke="black" points="227.08,-1027.45 237.41,-1025.08 227.85,-1020.49 227.08,-1027.45"/>
<text text-anchor="middle" x="202.89" y="-1033.55" font-family="Times,serif" font-size="14.00">0/1</text>
</g>
<!-- 9998 -->
<g id="node31" class="node">
<title>9998</title>
<ellipse fill="none" stroke="black" cx="34.45" cy="-652.75" rx="34.39" ry="34.39"/>
<text text-anchor="middle" x="34.45" y="-649.05" font-family="Times,serif" font-size="14.00">9998</text>
</g>
<!-- 9998&#45;&gt;7 -->
<g id="edge40" class="edge">
<title>9998&#45;&gt;7</title>
<path fill="none" stroke="black" d="M37.11,-687.36C42.25,-788.74 59.25,-1083.67 86.89,-1175.75 97.57,-1211.29 119.17,-1248.56 134.02,-1271.72"/>
<polygon fill="black" stroke="black" points="131.13,-1273.7 139.53,-1280.16 136.99,-1269.87 131.13,-1273.7"/>
<text text-anchor="middle" x="98.39" y="-1233.55" font-family="Times,serif" font-size="14.00">0/1</text>
</g>
<!-- 9998&#45;&gt;8 -->
<g id="edge41" class="edge">
<title>9998&#45;&gt;8</title>
<path fill="none" stroke="black" d="M37.35,-687.27C42.79,-780.32 59.78,-1034.61 86.89,-1113.75 96.41,-1141.5 116.21,-1168.91 131.05,-1186.9"/>
<polygon fill="black" stroke="black" points="128.72,-1189.57 137.86,-1194.93 134.06,-1185.04 128.72,-1189.57"/>
<text text-anchor="middle" x="98.39" y="-1160.55" font-family="Times,serif" font-size="14.00">0/1</text>
</g>
<!-- 9998&#45;&gt;9 -->
<g id="edge42" class="edge">
<title>9998&#45;&gt;9</title>
<path fill="none" stroke="black" d="M40.58,-686.87C47.73,-729.72 62.6,-804.99 86.89,-865.75 100.42,-899.58 107.29,-906.69 127.89,-936.75 129.17,-938.6 130.53,-940.49 131.93,-942.37"/>
<polygon fill="black" stroke="black" points="129.24,-944.6 138.16,-950.33 134.75,-940.29 129.24,-944.6"/>
<text text-anchor="middle" x="98.39" y="-912.55" font-family="Times,serif" font-size="14.00">0/1</text>
</g>
<!-- 9998&#45;&gt;12 -->
<g id="edge43" class="edge">
<title>9998&#45;&gt;12</title>
<path fill="none" stroke="black" d="M69.09,-652.75C84.34,-652.75 102.29,-652.75 117.37,-652.75"/>
<polygon fill="black" stroke="black" points="117.76,-656.25 127.76,-652.75 117.76,-649.25 117.76,-656.25"/>
<text text-anchor="middle" x="98.39" y="-656.55" font-family="Times,serif" font-size="14.00">0/1</text>
</g>
<!-- 9998&#45;&gt;13 -->
<g id="edge44" class="edge">
<title>9998&#45;&gt;13</title>
<path fill="none" stroke="black" d="M64.85,-668.97C82.25,-678.57 104.17,-690.66 121.37,-700.15"/>
<polygon fill="black" stroke="black" points="119.93,-703.35 130.38,-705.12 123.31,-697.22 119.93,-703.35"/>
<text text-anchor="middle" x="98.39" y="-696.55" font-family="Times,serif" font-size="14.00">0/1</text>
</g>
<!-- 9998&#45;&gt;14 -->
<g id="edge45" class="edge">
<title>9998&#45;&gt;14</title>
<path fill="none" stroke="black" d="M57.54,-678.48C66.56,-688.88 77.14,-700.96 86.89,-711.75 100.08,-726.34 115.13,-742.43 127.19,-755.18"/>
<polygon fill="black" stroke="black" points="124.84,-757.8 134.26,-762.65 129.93,-752.98 124.84,-757.8"/>
<text text-anchor="middle" x="98.39" y="-739.55" font-family="Times,serif" font-size="14.00">0/1</text>
</g>
<!-- 9998&#45;&gt;15 -->
<g id="edge46" class="edge">
<title>9998&#45;&gt;15</title>
<path fill="none" stroke="black" d="M37.2,-618.14C42.32,-523.6 58.67,-262.62 86.89,-181.75 96.17,-155.18 114.33,-128.68 128.74,-110.28"/>
<polygon fill="black" stroke="black" points="131.52,-112.41 135.05,-102.42 126.06,-108.02 131.52,-112.41"/>
<text text-anchor="middle" x="98.39" y="-185.55" font-family="Times,serif" font-size="14.00">0/1</text>
</g>
<!-- 9998&#45;&gt;17 -->
<g id="edge47" class="edge">
<title>9998&#45;&gt;17</title>
<path fill="none" stroke="black" d="M36.7,-618.03C40.74,-514.92 55.07,-211.84 86.89,-118.75 96,-92.12 114.18,-65.63 128.64,-47.24"/>
<polygon fill="black" stroke="black" points="131.41,-49.37 134.97,-39.39 125.97,-44.98 131.41,-49.37"/>
<text text-anchor="middle" x="98.39" y="-122.55" font-family="Times,serif" font-size="14.00">0/1</text>
</g>
<!-- 9998&#45;&gt;18 -->
<g id="edge48" class="edge">
<title>9998&#45;&gt;18</title>
<path fill="none" stroke="black" d="M34.91,-618.11C34.85,-546.43 40.18,-377.48 86.89,-245.75 96.37,-219.03 114.51,-192.24 128.86,-173.61"/>
<polygon fill="black" stroke="black" points="131.69,-175.67 135.14,-165.65 126.2,-171.33 131.69,-175.67"/>
<text text-anchor="middle" x="98.39" y="-249.55" font-family="Times,serif" font-size="14.00">0/1</text>
</g>
<!-- 9998&#45;&gt;20 -->
<g id="edge49" class="edge">
<title>9998&#45;&gt;20</title>
<path fill="none" stroke="black" d="M57.19,-626.8C66.25,-616.14 76.96,-603.75 86.89,-592.75 99.97,-578.27 115.02,-562.41 127.1,-549.87"/>
<polygon fill="black" stroke="black" points="129.76,-552.16 134.19,-542.54 124.73,-547.29 129.76,-552.16"/>
<text text-anchor="middle" x="98.39" y="-596.55" font-family="Times,serif" font-size="14.00">0/1</text>
</g>
<!-- 9998&#45;&gt;21 -->
<g id="edge50" class="edge">
<title>9998&#45;&gt;21</title>
<path fill="none" stroke="black" d="M49.44,-621.38C59.12,-600.59 72.76,-572.97 86.89,-549.75 99.74,-528.64 116.28,-506.12 129.16,-489.43"/>
<polygon fill="black" stroke="black" points="132.13,-491.3 135.52,-481.26 126.61,-487 132.13,-491.3"/>
<text text-anchor="middle" x="98.39" y="-553.55" font-family="Times,serif" font-size="14.00">0/1</text>
</g>
<!-- 9998&#45;&gt;22 -->
<g id="edge51" class="edge">
<title>9998&#45;&gt;22</title>
<path fill="none" stroke="black" d="M64.85,-636.52C82.25,-626.93 104.17,-614.83 121.37,-605.35"/>
<polygon fill="black" stroke="black" points="123.31,-608.27 130.38,-600.38 119.93,-602.14 123.31,-608.27"/>
<text text-anchor="middle" x="98.39" y="-626.55" font-family="Times,serif" font-size="14.00">0/1</text>
</g>
<!-- 9998&#45;&gt;19 -->
<g id="edge52" class="edge">
<title>9998&#45;&gt;19</title>
<path fill="none" stroke="black" d="M43.75,-619.34C52.42,-586.9 67.46,-536.69 86.89,-495.75 101.38,-465.23 109.08,-459.8 127.89,-431.75 128.85,-430.32 129.84,-428.86 130.84,-427.39"/>
<polygon fill="black" stroke="black" points="133.82,-429.23 136.63,-419.02 128.07,-425.25 133.82,-429.23"/>
<text text-anchor="middle" x="98.39" y="-499.55" font-family="Times,serif" font-size="14.00">0/1</text>
</g>
<!-- 9998&#45;&gt;23 -->
<g id="edge53" class="edge">
<title>9998&#45;&gt;23</title>
<path fill="none" stroke="black" d="M40.35,-618.63C47.29,-575.39 62,-499.09 86.89,-437.75 97.79,-410.9 115.78,-383.22 129.71,-363.8"/>
<polygon fill="black" stroke="black" points="132.71,-365.63 135.79,-355.5 127.06,-361.5 132.71,-365.63"/>
<text text-anchor="middle" x="98.39" y="-441.55" font-family="Times,serif" font-size="14.00">0/1</text>
</g>
<!-- 9998&#45;&gt;24 -->
<g id="edge54" class="edge">
<title>9998&#45;&gt;24</title>
<path fill="none" stroke="black" d="M37.9,-618.33C42.58,-564.76 55.29,-458.83 86.89,-374.75 97.15,-347.46 115.38,-319.63 129.55,-300.28"/>
<polygon fill="black" stroke="black" points="132.55,-302.12 135.74,-292.02 126.94,-297.93 132.55,-302.12"/>
<text text-anchor="middle" x="98.39" y="-378.55" font-family="Times,serif" font-size="14.00">0/1</text>
</g>
<!-- 9998&#45;&gt;25 -->
<g id="edge55" class="edge">
<title>9998&#45;&gt;25</title>
<path fill="none" stroke="black" d="M36.3,-618.3C38.78,-555.54 48.54,-419.16 86.89,-311.75 96.74,-284.17 115.14,-256.23 129.48,-236.92"/>
<polygon fill="black" stroke="black" points="132.27,-239.03 135.53,-228.95 126.7,-234.79 132.27,-239.03"/>
<text text-anchor="middle" x="98.39" y="-315.55" font-family="Times,serif" font-size="14.00">0/1</text>
</g>
<!-- 9998&#45;&gt;26 -->
<g id="edge56" class="edge">
<title>9998&#45;&gt;26</title>
<path fill="none" stroke="black" d="M49.53,-683.78C59.24,-704.35 72.89,-731.7 86.89,-754.75 99.9,-776.16 116.57,-799.1 129.46,-816.04"/>
<polygon fill="black" stroke="black" points="126.95,-818.52 135.81,-824.32 132.5,-814.25 126.95,-818.52"/>
<text text-anchor="middle" x="98.39" y="-792.55" font-family="Times,serif" font-size="14.00">0/1</text>
</g>
<!-- 9998&#45;&gt;27 -->
<g id="edge57" class="edge">
<title>9998&#45;&gt;27</title>
<path fill="none" stroke="black" d="M44.02,-685.97C52.84,-717.96 67.95,-767.31 86.89,-807.75 101.55,-839.02 108.86,-844.94 127.89,-873.75 128.84,-875.18 129.82,-876.64 130.82,-878.12"/>
<polygon fill="black" stroke="black" points="128.04,-880.25 136.59,-886.51 133.8,-876.28 128.04,-880.25"/>
<text text-anchor="middle" x="98.39" y="-850.55" font-family="Times,serif" font-size="14.00">0/1</text>
</g>
<!-- 9998&#45;&gt;28 -->
<g id="edge58" class="edge">
<title>9998&#45;&gt;28</title>
<path fill="none" stroke="black" d="M35.3,-687.45C35.99,-757.67 42.69,-920.81 86.89,-1048.75 96.46,-1076.42 114.89,-1104.35 129.31,-1123.63"/>
<polygon fill="black" stroke="black" points="126.55,-1125.78 135.41,-1131.6 132.11,-1121.53 126.55,-1125.78"/>
<text text-anchor="middle" x="98.39" y="-1098.55" font-family="Times,serif" font-size="14.00">0/1</text>
</g>
<!-- 9998&#45;&gt;29 -->
<g id="edge59" class="edge">
<title>9998&#45;&gt;29</title>
<path fill="none" stroke="black" d="M36.3,-687.62C38.8,-749.78 48.58,-883.03 86.89,-987.75 96.71,-1014.57 114.81,-1041.65 129.06,-1060.52"/>
<polygon fill="black" stroke="black" points="126.41,-1062.82 135.3,-1068.59 131.95,-1058.54 126.41,-1062.82"/>
<text text-anchor="middle" x="98.39" y="-1033.55" font-family="Times,serif" font-size="14.00">0/1</text>
</g>
<!-- 30 -->
<g id="node32" class="node">
<title>30</title>
<ellipse fill="none" stroke="black" cx="150.64" cy="-1022.75" rx="23" ry="23"/>
<text text-anchor="middle" x="150.64" y="-1019.05" font-family="Times,serif" font-size="14.00">30</text>
</g>
<!-- 9998&#45;&gt;30 -->
<g id="edge60" class="edge">
<title>9998&#45;&gt;30</title>
<path fill="none" stroke="black" d="M37.58,-687.39C41.82,-740.74 53.94,-845.46 86.89,-927.75 97.12,-953.29 114.79,-979.15 128.77,-997.42"/>
<polygon fill="black" stroke="black" points="126.37,-1000.04 135.29,-1005.75 131.88,-995.72 126.37,-1000.04"/>
<text text-anchor="middle" x="98.39" y="-972.55" font-family="Times,serif" font-size="14.00">0/1</text>
</g>
<!-- 30&#45;&gt;3 -->
<g id="edge61" class="edge">
<title>30&#45;&gt;3</title>
<path fill="none" stroke="black" d="M167.17,-1006.73C173.98,-1000.82 182.45,-994.82 191.39,-991.75 201.06,-988.42 204.88,-988.01 214.39,-991.75 222.66,-995 230.22,-1000.87 236.48,-1006.99"/>
<polygon fill="black" stroke="black" points="234.29,-1009.77 243.67,-1014.7 239.41,-1005 234.29,-1009.77"/>
<text text-anchor="middle" x="202.89" y="-995.55" font-family="Times,serif" font-size="14.00">0/1</text>
</g>
</g>
</svg>
