<?xml version="1.0" encoding="UTF-8" standalone="no"?>
<!DOCTYPE svg PUBLIC "-//W3C//DTD SVG 1.1//EN"
 "http://www.w3.org/Graphics/SVG/1.1/DTD/svg11.dtd">
<!-- Generated by graphviz version 2.43.20190912.0211 (20190912.0211)
 -->
<!-- Title: finite_state_machine Pages: 1 -->
<svg width="572pt" height="815pt"
 viewBox="0.00 0.00 572.26 814.59" xmlns="http://www.w3.org/2000/svg" xmlns:xlink="http://www.w3.org/1999/xlink">
<g id="graph0" class="graph" transform="scale(1 1) rotate(0) translate(4 810.59)">
<title>finite_state_machine</title>
<polygon fill="white" stroke="transparent" points="-4,4 -4,-810.59 568.26,-810.59 568.26,4 -4,4"/>
<!-- Football -->
<g id="node1" class="node">
<title>Football</title>
<ellipse fill="none" stroke="black" cx="373.57" cy="-750.75" rx="48.19" ry="48.19"/>
<text text-anchor="middle" x="373.57" y="-747.05" font-family="Times,serif" font-size="14.00">Football</text>
</g>
<!-- __sink__ -->
<g id="node2" class="node">
<title>__sink__</title>
<ellipse fill="none" stroke="black" cx="516.81" cy="-407.75" rx="47.39" ry="47.39"/>
<text text-anchor="middle" x="516.81" y="-404.05" font-family="Times,serif" font-size="14.00">__sink__</text>
</g>
<!-- Football&#45;&gt;__sink__ -->
<g id="edge1" class="edge">
<title>Football&#45;&gt;__sink__</title>
<path fill="none" stroke="black" d="M408.79,-717.45C417.77,-707.3 426.78,-695.66 433.37,-683.75 472.3,-613.36 494.86,-522.47 506.25,-464.62"/>
<polygon fill="black" stroke="black" points="509.73,-465.05 508.18,-454.57 502.85,-463.73 509.73,-465.05"/>
</g>
<!-- Dupont -->
<g id="node3" class="node">
<title>Dupont</title>
<ellipse fill="none" stroke="black" cx="216.03" cy="-761.75" rx="44.69" ry="44.69"/>
<text text-anchor="middle" x="216.03" y="-758.05" font-family="Times,serif" font-size="14.00">Dupont</text>
</g>
<!-- Dupont&#45;&gt;Football -->
<g id="edge2" class="edge">
<title>Dupont&#45;&gt;Football</title>
<path fill="none" stroke="black" d="M260.77,-758.65C277.68,-757.46 297.25,-756.07 315.25,-754.8"/>
<polygon fill="black" stroke="black" points="315.62,-758.28 325.35,-754.09 315.13,-751.3 315.62,-758.28"/>
</g>
<!-- __source__ -->
<g id="node4" class="node">
<title>__source__</title>
<ellipse fill="none" stroke="black" cx="59.14" cy="-407.75" rx="59.29" ry="59.29"/>
<text text-anchor="middle" x="59.14" y="-404.05" font-family="Times,serif" font-size="14.00">__source__</text>
</g>
<!-- __source__&#45;&gt;Dupont -->
<g id="edge3" class="edge">
<title>__source__&#45;&gt;Dupont</title>
<path fill="none" stroke="black" d="M68.66,-466.13C80.07,-529.92 104.91,-633.09 154.29,-708.75 159.02,-715.99 165,-722.83 171.37,-729.03"/>
<polygon fill="black" stroke="black" points="169.22,-731.81 178.95,-736.01 173.96,-726.66 169.22,-731.81"/>
</g>
<!-- Bertrand -->
<g id="node5" class="node">
<title>Bertrand</title>
<ellipse fill="none" stroke="black" cx="216.03" cy="-646.75" rx="52.79" ry="52.79"/>
<text text-anchor="middle" x="216.03" y="-643.05" font-family="Times,serif" font-size="14.00">Bertrand</text>
</g>
<!-- __source__&#45;&gt;Bertrand -->
<g id="edge4" class="edge">
<title>__source__&#45;&gt;Bertrand</title>
<path fill="none" stroke="black" d="M83.81,-461.59C100.96,-497.94 126.02,-546.13 154.29,-584.75 158.98,-591.16 164.32,-597.56 169.84,-603.68"/>
<polygon fill="black" stroke="black" points="167.52,-606.32 176.89,-611.27 172.65,-601.56 167.52,-606.32"/>
</g>
<!-- Charlie -->
<g id="node6" class="node">
<title>Charlie</title>
<ellipse fill="none" stroke="black" cx="216.03" cy="-531.75" rx="44.39" ry="44.39"/>
<text text-anchor="middle" x="216.03" y="-528.05" font-family="Times,serif" font-size="14.00">Charlie</text>
</g>
<!-- __source__&#45;&gt;Charlie -->
<g id="edge5" class="edge">
<title>__source__&#45;&gt;Charlie</title>
<path fill="none" stroke="black" d="M105.78,-444.28C127.05,-461.31 152.19,-481.44 173,-498.09"/>
<polygon fill="black" stroke="black" points="171.04,-501.01 181.03,-504.52 175.41,-495.54 171.04,-501.01"/>
</g>
<!-- Anasthasia -->
<g id="node7" class="node">
<title>Anasthasia</title>
<ellipse fill="none" stroke="black" cx="216.03" cy="-407.75" rx="61.99" ry="61.99"/>
<text text-anchor="middle" x="216.03" y="-404.05" font-family="Times,serif" font-size="14.00">Anasthasia</text>
</g>
<!-- __source__&#45;&gt;Anasthasia -->
<g id="edge6" class="edge">
<title>__source__&#45;&gt;Anasthasia</title>
<path fill="none" stroke="black" d="M118.7,-407.75C126.92,-407.75 135.45,-407.75 143.87,-407.75"/>
<polygon fill="black" stroke="black" points="144.07,-411.25 154.07,-407.75 144.07,-404.25 144.07,-411.25"/>
</g>
<!-- Caroline -->
<g id="node8" class="node">
<title>Caroline</title>
<ellipse fill="none" stroke="black" cx="216.03" cy="-277.75" rx="50.09" ry="50.09"/>
<text text-anchor="middle" x="216.03" y="-274.05" font-family="Times,serif" font-size="14.00">Caroline</text>
</g>
<!-- __source__&#45;&gt;Caroline -->
<g id="edge7" class="edge">
<title>__source__&#45;&gt;Caroline</title>
<path fill="none" stroke="black" d="M104.95,-370.14C125.14,-353.2 148.95,-333.21 169.26,-316.16"/>
<polygon fill="black" stroke="black" points="171.73,-318.66 177.14,-309.55 167.23,-313.3 171.73,-318.66"/>
</g>
<!-- Clotilde -->
<g id="node9" class="node">
<title>Clotilde</title>
<ellipse fill="none" stroke="black" cx="216.03" cy="-162.75" rx="46.59" ry="46.59"/>
<text text-anchor="middle" x="216.03" y="-159.05" font-family="Times,serif" font-size="14.00">Clotilde</text>
</g>
<!-- __source__&#45;&gt;Clotilde -->
<g id="edge8" class="edge">
<title>__source__&#45;&gt;Clotilde</title>
<path fill="none" stroke="black" d="M81.28,-352.61C97.85,-313.22 123.25,-260.08 154.29,-218.75 159.43,-211.9 165.47,-205.21 171.72,-198.96"/>
<polygon fill="black" stroke="black" points="174.32,-201.32 179.1,-191.86 169.47,-196.27 174.32,-201.32"/>
</g>
<!-- Bernard -->
<g id="node10" class="node">
<title>Bernard</title>
<ellipse fill="none" stroke="black" cx="216.03" cy="-48.75" rx="48.99" ry="48.99"/>
<text text-anchor="middle" x="216.03" y="-45.05" font-family="Times,serif" font-size="14.00">Bernard</text>
</g>
<!-- __source__&#45;&gt;Bernard -->
<g id="edge9" class="edge">
<title>__source__&#45;&gt;Bernard</title>
<path fill="none" stroke="black" d="M69.36,-349.49C81.37,-286.04 106.69,-183.37 154.29,-106.75 158.77,-99.53 164.35,-92.6 170.31,-86.2"/>
<polygon fill="black" stroke="black" points="172.92,-88.53 177.42,-78.94 167.92,-83.63 172.92,-88.53"/>
</g>
<!-- Karate -->
<g id="node11" class="node">
<title>Karate</title>
<ellipse fill="none" stroke="black" cx="373.57" cy="-632.75" rx="42.49" ry="42.49"/>
<text text-anchor="middle" x="373.57" y="-629.05" font-family="Times,serif" font-size="14.00">Karate</text>
</g>
<!-- Bertrand&#45;&gt;Karate -->
<g id="edge11" class="edge">
<title>Bertrand&#45;&gt;Karate</title>
<path fill="none" stroke="black" d="M268.83,-642.08C285.66,-640.57 304.32,-638.89 321.13,-637.38"/>
<polygon fill="black" stroke="black" points="321.68,-640.84 331.32,-636.46 321.05,-633.87 321.68,-640.84"/>
</g>
<!-- Volley -->
<g id="node12" class="node">
<title>Volley</title>
<ellipse fill="none" stroke="black" cx="373.57" cy="-519.75" rx="38.19" ry="38.19"/>
<text text-anchor="middle" x="373.57" y="-516.05" font-family="Times,serif" font-size="14.00">Volley</text>
</g>
<!-- Charlie&#45;&gt;Volley -->
<g id="edge13" class="edge">
<title>Charlie&#45;&gt;Volley</title>
<path fill="none" stroke="black" d="M260.36,-528.4C280.51,-526.85 304.52,-525 325.15,-523.4"/>
<polygon fill="black" stroke="black" points="325.58,-526.88 335.28,-522.62 325.04,-519.9 325.58,-526.88"/>
</g>
<!-- Cricket -->
<g id="node13" class="node">
<title>Cricket</title>
<ellipse fill="none" stroke="black" cx="373.57" cy="-407.75" rx="44.39" ry="44.39"/>
<text text-anchor="middle" x="373.57" y="-404.05" font-family="Times,serif" font-size="14.00">Cricket</text>
</g>
<!-- Anasthasia&#45;&gt;Cricket -->
<g id="edge15" class="edge">
<title>Anasthasia&#45;&gt;Cricket</title>
<path fill="none" stroke="black" d="M278.06,-407.75C291.49,-407.75 305.62,-407.75 318.75,-407.75"/>
<polygon fill="black" stroke="black" points="319.02,-411.25 329.02,-407.75 319.02,-404.25 319.02,-411.25"/>
</g>
<!-- Basketball -->
<g id="node14" class="node">
<title>Basketball</title>
<ellipse fill="none" stroke="black" cx="373.57" cy="-282.75" rx="59.59" ry="59.59"/>
<text text-anchor="middle" x="373.57" y="-279.05" font-family="Times,serif" font-size="14.00">Basketball</text>
</g>
<!-- Caroline&#45;&gt;Basketball -->
<g id="edge17" class="edge">
<title>Caroline&#45;&gt;Basketball</title>
<path fill="none" stroke="black" d="M266.25,-279.33C278.12,-279.71 291.01,-280.12 303.6,-280.53"/>
<polygon fill="black" stroke="black" points="303.5,-284.03 313.6,-280.85 303.72,-277.03 303.5,-284.03"/>
</g>
<!-- Dance -->
<g id="node15" class="node">
<title>Dance</title>
<ellipse fill="none" stroke="black" cx="373.57" cy="-163.75" rx="39.79" ry="39.79"/>
<text text-anchor="middle" x="373.57" y="-160.05" font-family="Times,serif" font-size="14.00">Dance</text>
</g>
<!-- Clotilde&#45;&gt;Dance -->
<g id="edge19" class="edge">
<title>Clotilde&#45;&gt;Dance</title>
<path fill="none" stroke="black" d="M262.86,-163.04C282,-163.16 304.27,-163.31 323.72,-163.43"/>
<polygon fill="black" stroke="black" points="323.88,-166.93 333.9,-163.5 323.92,-159.93 323.88,-166.93"/>
</g>
<!-- Gym -->
<g id="node16" class="node">
<title>Gym</title>
<ellipse fill="none" stroke="black" cx="373.57" cy="-61.75" rx="32.49" ry="32.49"/>
<text text-anchor="middle" x="373.57" y="-58.05" font-family="Times,serif" font-size="14.00">Gym</text>
</g>
<!-- Bernard&#45;&gt;Gym -->
<g id="edge21" class="edge">
<title>Bernard&#45;&gt;Gym</title>
<path fill="none" stroke="black" d="M264.97,-52.75C285.95,-54.51 310.34,-56.54 330.59,-58.24"/>
<polygon fill="black" stroke="black" points="330.51,-61.74 340.77,-59.09 331.09,-54.77 330.51,-61.74"/>
</g>
<!-- Karate&#45;&gt;__sink__ -->
<g id="edge10" class="edge">
<title>Karate&#45;&gt;__sink__</title>
<path fill="none" stroke="black" d="M403.77,-603.17C413.79,-592.22 424.66,-579.38 433.37,-566.75 456.56,-533.06 477.68,-492.03 492.74,-460.08"/>
<polygon fill="black" stroke="black" points="495.97,-461.44 497.02,-450.9 489.62,-458.48 495.97,-461.44"/>
</g>
<!-- Volley&#45;&gt;__sink__ -->
<g id="edge12" class="edge">
<title>Volley&#45;&gt;__sink__</title>
<path fill="none" stroke="black" d="M404.18,-496.27C423.63,-480.84 449.44,-460.38 471.34,-443.01"/>
<polygon fill="black" stroke="black" points="473.55,-445.73 479.21,-436.77 469.2,-440.24 473.55,-445.73"/>
</g>
<!-- Cricket&#45;&gt;__sink__ -->
<g id="edge14" class="edge">
<title>Cricket&#45;&gt;__sink__</title>
<path fill="none" stroke="black" d="M418.1,-407.75C431.02,-407.75 445.36,-407.75 458.99,-407.75"/>
<polygon fill="black" stroke="black" points="459.24,-411.25 469.24,-407.75 459.24,-404.25 459.24,-411.25"/>
</g>
<!-- Basketball&#45;&gt;__sink__ -->
<g id="edge16" class="edge">
<title>Basketball&#45;&gt;__sink__</title>
<path fill="none" stroke="black" d="M418.88,-321.95C436.13,-337.23 455.84,-354.67 472.96,-369.82"/>
<polygon fill="black" stroke="black" points="470.81,-372.59 480.62,-376.6 475.45,-367.35 470.81,-372.59"/>
</g>
<!-- Dance&#45;&gt;__sink__ -->
<g id="edge18" class="edge">
<title>Dance&#45;&gt;__sink__</title>
<path fill="none" stroke="black" d="M406.45,-186.28C416,-194.16 425.91,-203.6 433.37,-213.75 464.37,-255.92 486.47,-311.53 499.93,-352.39"/>
<polygon fill="black" stroke="black" points="496.6,-353.48 503,-361.92 503.27,-351.33 496.6,-353.48"/>
</g>
<!-- Gym&#45;&gt;__sink__ -->
<g id="edge20" class="edge">
<title>Gym&#45;&gt;__sink__</title>
<path fill="none" stroke="black" d="M400.85,-80.05C412.32,-89.26 425.03,-101.32 433.37,-114.75 479.25,-188.63 500.22,-288.62 509.34,-350.61"/>
<polygon fill="black" stroke="black" points="505.88,-351.19 510.75,-360.6 512.81,-350.21 505.88,-351.19"/>
</g>
</g>
</svg>
