<?xml version="1.0" encoding="UTF-8" standalone="no"?>
<!DOCTYPE svg PUBLIC "-//W3C//DTD SVG 1.1//EN"
 "http://www.w3.org/Graphics/SVG/1.1/DTD/svg11.dtd">
<!-- Generated by graphviz version 2.40.1 (20161225.0304)
 -->
<!-- Title: finite_state_machine Pages: 1 -->
<svg width="416pt" height="2372pt"
 viewBox="0.00 0.00 416.39 2372.39" xmlns="http://www.w3.org/2000/svg" xmlns:xlink="http://www.w3.org/1999/xlink">
<g id="graph0" class="graph" transform="scale(1 1) rotate(0) translate(4 2368.3917)">
<title>finite_state_machine</title>
<polygon fill="#ffffff" stroke="transparent" points="-4,4 -4,-2368.3917 412.3864,-2368.3917 412.3864,4 -4,4"/>
<!-- 3 -->
<g id="node1" class="node">
<title>3</title>
<ellipse fill="none" stroke="#000000" cx="260.1915" cy="-406.3917" rx="18" ry="18"/>
<text text-anchor="middle" x="260.1915" y="-402.6917" font-family="Times,serif" font-size="14.00" fill="#000000">3</text>
</g>
<!-- 9999 -->
<g id="node2" class="node">
<title>9999</title>
<ellipse fill="none" stroke="#000000" cx="379.7889" cy="-1147.3917" rx="28.6953" ry="28.6953"/>
<text text-anchor="middle" x="379.7889" y="-1143.6917" font-family="Times,serif" font-size="14.00" fill="#000000">9999</text>
</g>
<!-- 3&#45;&gt;9999 -->
<g id="edge1" class="edge">
<title>3&#45;&gt;9999</title>
<path fill="none" stroke="#000000" d="M263.0886,-424.3415C278.5773,-520.3062 351.7209,-973.4883 373.5953,-1109.0171"/>
<polygon fill="#000000" stroke="#000000" points="370.1498,-1109.6362 375.1986,-1118.9508 377.0604,-1108.5208 370.1498,-1109.6362"/>
<text text-anchor="middle" x="314.6915" y="-847.1917" font-family="Times,serif" font-size="14.00" fill="#000000">7/7 (1)</text>
</g>
<!-- 4 -->
<g id="node3" class="node">
<title>4</title>
<ellipse fill="none" stroke="#000000" cx="149.6932" cy="-1331.3917" rx="18" ry="18"/>
<text text-anchor="middle" x="149.6932" y="-1327.6917" font-family="Times,serif" font-size="14.00" fill="#000000">4</text>
</g>
<!-- 4&#45;&gt;3 -->
<g id="edge2" class="edge">
<title>4&#45;&gt;3</title>
<path fill="none" stroke="#000000" d="M161.771,-1318.0015C164.7618,-1313.913 167.5719,-1309.2152 169.1915,-1304.3917 183.3773,-1262.1429 165.1038,-541.1 187.1915,-502.3917 196.7878,-485.5743 211.1871,-493.7374 224.1915,-479.3917 236.2208,-466.1215 245.1633,-448.0966 251.1269,-433.2784"/>
<polygon fill="#000000" stroke="#000000" points="254.5124,-434.2212 254.7808,-423.6297 247.9661,-431.742 254.5124,-434.2212"/>
<text text-anchor="middle" x="205.6915" y="-506.1917" font-family="Times,serif" font-size="14.00" fill="#000000">1/1 (2)</text>
</g>
<!-- 2 -->
<g id="node4" class="node">
<title>2</title>
<ellipse fill="none" stroke="#000000" cx="260.1915" cy="-1926.3917" rx="18" ry="18"/>
<text text-anchor="middle" x="260.1915" y="-1922.6917" font-family="Times,serif" font-size="14.00" fill="#000000">2</text>
</g>
<!-- 4&#45;&gt;2 -->
<g id="edge3" class="edge">
<title>4&#45;&gt;2</title>
<path fill="none" stroke="#000000" d="M161.7583,-1344.7861C164.7489,-1348.8747 167.5621,-1353.5715 169.1915,-1358.3917 181.2755,-1394.14 160.1572,-2011.0646 187.1915,-2037.3917 198.9725,-2048.8646 210.8902,-2047.0611 224.1915,-2037.3917 237.7642,-2027.5249 248.8456,-1983.9484 254.9766,-1954.4205"/>
<polygon fill="#000000" stroke="#000000" points="258.4783,-1954.758 257.0068,-1944.2658 251.6141,-1953.3856 258.4783,-1954.758"/>
<text text-anchor="middle" x="205.6915" y="-2048.1917" font-family="Times,serif" font-size="14.00" fill="#000000">0/1 (1)</text>
</g>
<!-- 1 -->
<g id="node5" class="node">
<title>1</title>
<ellipse fill="none" stroke="#000000" cx="260.1915" cy="-1147.3917" rx="18" ry="18"/>
<text text-anchor="middle" x="260.1915" y="-1143.6917" font-family="Times,serif" font-size="14.00" fill="#000000">1</text>
</g>
<!-- 4&#45;&gt;1 -->
<g id="edge4" class="edge">
<title>4&#45;&gt;1</title>
<path fill="none" stroke="#000000" d="M160.8275,-1317.2102C163.7373,-1313.1857 166.7416,-1308.7188 169.1915,-1304.3917 179.1972,-1286.7188 173.9572,-1277.7962 187.1915,-1262.3917 199.8092,-1247.7048 211.8096,-1254.278 224.1915,-1239.3917 239.6245,-1220.837 248.9681,-1194.8848 254.2539,-1175.2728"/>
<polygon fill="#000000" stroke="#000000" points="257.694,-1175.943 256.7224,-1165.3928 250.9028,-1174.2461 257.694,-1175.943"/>
<text text-anchor="middle" x="205.6915" y="-1266.1917" font-family="Times,serif" font-size="14.00" fill="#000000">0/1 (1)</text>
</g>
<!-- 2&#45;&gt;9999 -->
<g id="edge66" class="edge">
<title>2&#45;&gt;9999</title>
<path fill="none" stroke="#000000" d="M262.9717,-1908.2825C278.2681,-1808.6494 352.2691,-1326.6424 373.8626,-1185.9931"/>
<polygon fill="#000000" stroke="#000000" points="377.3835,-1186.1237 375.4416,-1175.7083 370.4645,-1185.0614 377.3835,-1186.1237"/>
<text text-anchor="middle" x="314.6915" y="-1678.1917" font-family="Times,serif" font-size="14.00" fill="#000000">7/7 (1)</text>
</g>
<!-- 1&#45;&gt;9999 -->
<g id="edge44" class="edge">
<title>1&#45;&gt;9999</title>
<path fill="none" stroke="#000000" d="M278.3557,-1147.3917C294.9025,-1147.3917 319.8926,-1147.3917 340.9271,-1147.3917"/>
<polygon fill="#000000" stroke="#000000" points="341.1899,-1150.8918 351.1899,-1147.3917 341.1898,-1143.8918 341.1899,-1150.8918"/>
<text text-anchor="middle" x="314.6915" y="-1151.1917" font-family="Times,serif" font-size="14.00" fill="#000000">7/7 (1)</text>
</g>
<!-- 9998 -->
<g id="node6" class="node">
<title>9998</title>
<ellipse fill="none" stroke="#000000" cx="28.5975" cy="-1166.3917" rx="28.6953" ry="28.6953"/>
<text text-anchor="middle" x="28.5975" y="-1162.6917" font-family="Times,serif" font-size="14.00" fill="#000000">9998</text>
</g>
<!-- 9998&#45;&gt;4 -->
<g id="edge5" class="edge">
<title>9998&#45;&gt;4</title>
<path fill="none" stroke="#000000" d="M37.2408,-1194.0249C44.9466,-1215.8826 57.7166,-1246.4372 75.1949,-1269.3917 89.3006,-1287.9168 109.9234,-1304.5298 125.8967,-1315.8853"/>
<polygon fill="#000000" stroke="#000000" points="124.0035,-1318.8313 134.2215,-1321.6318 127.9801,-1313.0705 124.0035,-1318.8313"/>
<text text-anchor="middle" x="93.6949" y="-1308.1917" font-family="Times,serif" font-size="14.00" fill="#000000">1/1 (1)</text>
</g>
<!-- 5 -->
<g id="node7" class="node">
<title>5</title>
<ellipse fill="none" stroke="#000000" cx="149.6932" cy="-883.3917" rx="18" ry="18"/>
<text text-anchor="middle" x="149.6932" y="-879.6917" font-family="Times,serif" font-size="14.00" fill="#000000">5</text>
</g>
<!-- 9998&#45;&gt;5 -->
<g id="edge6" class="edge">
<title>9998&#45;&gt;5</title>
<path fill="none" stroke="#000000" d="M32.365,-1137.787C39.5523,-1086.0697 56.2075,-979.4041 75.1949,-947.3917 87.3782,-926.8509 108.5303,-909.6289 125.1903,-898.2428"/>
<polygon fill="#000000" stroke="#000000" points="127.4544,-900.9436 133.8982,-892.5336 123.6163,-895.0896 127.4544,-900.9436"/>
<text text-anchor="middle" x="93.6949" y="-951.1917" font-family="Times,serif" font-size="14.00" fill="#000000">1/1 (1)</text>
</g>
<!-- 6 -->
<g id="node8" class="node">
<title>6</title>
<ellipse fill="none" stroke="#000000" cx="149.6932" cy="-1498.3917" rx="18" ry="18"/>
<text text-anchor="middle" x="149.6932" y="-1494.6917" font-family="Times,serif" font-size="14.00" fill="#000000">6</text>
</g>
<!-- 9998&#45;&gt;6 -->
<g id="edge7" class="edge">
<title>9998&#45;&gt;6</title>
<path fill="none" stroke="#000000" d="M31.0199,-1194.9494C36.5713,-1255.6948 51.581,-1395.5104 75.1949,-1436.3917 86.9831,-1456.7998 108.1725,-1473.4357 124.9472,-1484.318"/>
<polygon fill="#000000" stroke="#000000" points="123.3811,-1487.4651 133.7246,-1489.7592 127.0694,-1481.5155 123.3811,-1487.4651"/>
<text text-anchor="middle" x="93.6949" y="-1477.1917" font-family="Times,serif" font-size="14.00" fill="#000000">1/1 (1)</text>
</g>
<!-- 7 -->
<g id="node9" class="node">
<title>7</title>
<ellipse fill="none" stroke="#000000" cx="149.6932" cy="-606.3917" rx="18" ry="18"/>
<text text-anchor="middle" x="149.6932" y="-602.6917" font-family="Times,serif" font-size="14.00" fill="#000000">7</text>
</g>
<!-- 9998&#45;&gt;7 -->
<g id="edge8" class="edge">
<title>9998&#45;&gt;7</title>
<path fill="none" stroke="#000000" d="M29.9565,-1137.6063C34.872,-1037.3016 52.6318,-707.0034 75.1949,-665.3917 86.2098,-645.0776 107.4721,-629.3309 124.4714,-619.2347"/>
<polygon fill="#000000" stroke="#000000" points="126.3898,-622.1712 133.3848,-614.2138 122.9542,-616.0722 126.3898,-622.1712"/>
<text text-anchor="middle" x="93.6949" y="-669.1917" font-family="Times,serif" font-size="14.00" fill="#000000">1/1 (1)</text>
</g>
<!-- 8 -->
<g id="node10" class="node">
<title>8</title>
<ellipse fill="none" stroke="#000000" cx="149.6932" cy="-716.3917" rx="18" ry="18"/>
<text text-anchor="middle" x="149.6932" y="-712.6917" font-family="Times,serif" font-size="14.00" fill="#000000">8</text>
</g>
<!-- 9998&#45;&gt;8 -->
<g id="edge9" class="edge">
<title>9998&#45;&gt;8</title>
<path fill="none" stroke="#000000" d="M29.2912,-1137.6046C31.6247,-1058.4962 41.0781,-839.553 75.1949,-777.3917 86.46,-756.8666 107.6987,-740.5411 124.6254,-729.9639"/>
<polygon fill="#000000" stroke="#000000" points="126.689,-732.8088 133.4947,-724.6888 123.1108,-726.7924 126.689,-732.8088"/>
<text text-anchor="middle" x="93.6949" y="-781.1917" font-family="Times,serif" font-size="14.00" fill="#000000">1/1 (1)</text>
</g>
<!-- 9 -->
<g id="node11" class="node">
<title>9</title>
<ellipse fill="none" stroke="#000000" cx="149.6932" cy="-1221.3917" rx="18" ry="18"/>
<text text-anchor="middle" x="149.6932" y="-1217.6917" font-family="Times,serif" font-size="14.00" fill="#000000">9</text>
</g>
<!-- 9998&#45;&gt;9 -->
<g id="edge10" class="edge">
<title>9998&#45;&gt;9</title>
<path fill="none" stroke="#000000" d="M54.8734,-1178.3259C75.3178,-1187.6114 103.5353,-1200.4274 123.8651,-1209.6609"/>
<polygon fill="#000000" stroke="#000000" points="122.5906,-1212.9261 133.1429,-1213.8748 125.4853,-1206.5527 122.5906,-1212.9261"/>
<text text-anchor="middle" x="93.6949" y="-1207.1917" font-family="Times,serif" font-size="14.00" fill="#000000">1/1 (1)</text>
</g>
<!-- 10 -->
<g id="node12" class="node">
<title>10</title>
<ellipse fill="none" stroke="#000000" cx="149.6932" cy="-1276.3917" rx="19.4965" ry="19.4965"/>
<text text-anchor="middle" x="149.6932" y="-1272.6917" font-family="Times,serif" font-size="14.00" fill="#000000">10</text>
</g>
<!-- 9998&#45;&gt;10 -->
<g id="edge11" class="edge">
<title>9998&#45;&gt;10</title>
<path fill="none" stroke="#000000" d="M45.766,-1189.6004C54.0903,-1200.1463 64.5724,-1212.456 75.1949,-1222.3917 90.3629,-1236.5789 109.3398,-1250.284 124.3444,-1260.3373"/>
<polygon fill="#000000" stroke="#000000" points="122.8254,-1263.5273 133.1039,-1266.0967 126.6711,-1257.6783 122.8254,-1263.5273"/>
<text text-anchor="middle" x="93.6949" y="-1254.1917" font-family="Times,serif" font-size="14.00" fill="#000000">1/1 (1)</text>
</g>
<!-- 11 -->
<g id="node13" class="node">
<title>11</title>
<ellipse fill="none" stroke="#000000" cx="149.6932" cy="-1166.3917" rx="19.4965" ry="19.4965"/>
<text text-anchor="middle" x="149.6932" y="-1162.6917" font-family="Times,serif" font-size="14.00" fill="#000000">11</text>
</g>
<!-- 9998&#45;&gt;11 -->
<g id="edge12" class="edge">
<title>9998&#45;&gt;11</title>
<path fill="none" stroke="#000000" d="M57.2955,-1166.3917C76.092,-1166.3917 100.6135,-1166.3917 119.671,-1166.3917"/>
<polygon fill="#000000" stroke="#000000" points="119.9,-1169.8918 129.9,-1166.3917 119.8999,-1162.8918 119.9,-1169.8918"/>
<text text-anchor="middle" x="93.6949" y="-1170.1917" font-family="Times,serif" font-size="14.00" fill="#000000">1/1 (1)</text>
</g>
<!-- 12 -->
<g id="node14" class="node">
<title>12</title>
<ellipse fill="none" stroke="#000000" cx="149.6932" cy="-828.3917" rx="19.4965" ry="19.4965"/>
<text text-anchor="middle" x="149.6932" y="-824.6917" font-family="Times,serif" font-size="14.00" fill="#000000">12</text>
</g>
<!-- 9998&#45;&gt;12 -->
<g id="edge13" class="edge">
<title>9998&#45;&gt;12</title>
<path fill="none" stroke="#000000" d="M30.9135,-1137.6697C36.3021,-1075.8327 51.0868,-932.3046 75.1949,-890.3917 86.6628,-870.4544 107.1229,-854.1321 123.7034,-843.2484"/>
<polygon fill="#000000" stroke="#000000" points="125.8218,-846.0513 132.434,-837.773 122.1026,-840.1211 125.8218,-846.0513"/>
<text text-anchor="middle" x="93.6949" y="-894.1917" font-family="Times,serif" font-size="14.00" fill="#000000">1/1 (1)</text>
</g>
<!-- 13 -->
<g id="node15" class="node">
<title>13</title>
<ellipse fill="none" stroke="#000000" cx="149.6932" cy="-1610.3917" rx="19.4965" ry="19.4965"/>
<text text-anchor="middle" x="149.6932" y="-1606.6917" font-family="Times,serif" font-size="14.00" fill="#000000">13</text>
</g>
<!-- 9998&#45;&gt;13 -->
<g id="edge14" class="edge">
<title>9998&#45;&gt;13</title>
<path fill="none" stroke="#000000" d="M29.3905,-1195.21C31.9631,-1273.3335 41.941,-1487.3824 75.1949,-1548.3917 86.2025,-1568.5868 106.6939,-1584.8915 123.4035,-1595.7029"/>
<polygon fill="#000000" stroke="#000000" points="121.8642,-1598.8656 132.2133,-1601.134 125.5376,-1592.9068 121.8642,-1598.8656"/>
<text text-anchor="middle" x="93.6949" y="-1590.1917" font-family="Times,serif" font-size="14.00" fill="#000000">1/1 (1)</text>
</g>
<!-- 14 -->
<g id="node16" class="node">
<title>14</title>
<ellipse fill="none" stroke="#000000" cx="149.6932" cy="-1553.3917" rx="19.4965" ry="19.4965"/>
<text text-anchor="middle" x="149.6932" y="-1549.6917" font-family="Times,serif" font-size="14.00" fill="#000000">14</text>
</g>
<!-- 9998&#45;&gt;14 -->
<g id="edge15" class="edge">
<title>9998&#45;&gt;14</title>
<path fill="none" stroke="#000000" d="M30.0394,-1194.9914C33.9709,-1264.7411 46.557,-1441.592 75.1949,-1492.3917 86.4157,-1512.2958 106.8927,-1528.3352 123.5425,-1538.9625"/>
<polygon fill="#000000" stroke="#000000" points="121.9532,-1542.0925 132.3155,-1544.3 125.5915,-1536.1122 121.9532,-1542.0925"/>
<text text-anchor="middle" x="93.6949" y="-1533.1917" font-family="Times,serif" font-size="14.00" fill="#000000">1/1 (1)</text>
</g>
<!-- 15 -->
<g id="node17" class="node">
<title>15</title>
<ellipse fill="none" stroke="#000000" cx="149.6932" cy="-661.3917" rx="19.4965" ry="19.4965"/>
<text text-anchor="middle" x="149.6932" y="-657.6917" font-family="Times,serif" font-size="14.00" fill="#000000">15</text>
</g>
<!-- 9998&#45;&gt;15 -->
<g id="edge16" class="edge">
<title>9998&#45;&gt;15</title>
<path fill="none" stroke="#000000" d="M30.3239,-1137.6609C36.0678,-1045 55.3002,-757.934 75.1949,-721.3917 86.0489,-701.4553 106.5507,-685.7032 123.3034,-675.3507"/>
<polygon fill="#000000" stroke="#000000" points="125.2883,-678.244 132.1397,-670.1625 121.7441,-672.2075 125.2883,-678.244"/>
<text text-anchor="middle" x="93.6949" y="-725.1917" font-family="Times,serif" font-size="14.00" fill="#000000">1/1 (1)</text>
</g>
<!-- 16 -->
<g id="node18" class="node">
<title>16</title>
<ellipse fill="none" stroke="#000000" cx="149.6932" cy="-938.3917" rx="19.4965" ry="19.4965"/>
<text text-anchor="middle" x="149.6932" y="-934.6917" font-family="Times,serif" font-size="14.00" fill="#000000">16</text>
</g>
<!-- 9998&#45;&gt;16 -->
<g id="edge17" class="edge">
<title>9998&#45;&gt;16</title>
<path fill="none" stroke="#000000" d="M32.1263,-1137.8934C37.3139,-1104.3273 49.3395,-1047.8911 75.1949,-1006.3917 88.0483,-985.7614 108.8648,-967.5117 125.2305,-955.1261"/>
<polygon fill="#000000" stroke="#000000" points="127.3184,-957.9352 133.3172,-949.2022 123.1818,-952.2883 127.3184,-957.9352"/>
<text text-anchor="middle" x="93.6949" y="-1010.1917" font-family="Times,serif" font-size="14.00" fill="#000000">1/1 (1)</text>
</g>
<!-- 17 -->
<g id="node19" class="node">
<title>17</title>
<ellipse fill="none" stroke="#000000" cx="149.6932" cy="-771.3917" rx="19.4965" ry="19.4965"/>
<text text-anchor="middle" x="149.6932" y="-767.6917" font-family="Times,serif" font-size="14.00" fill="#000000">17</text>
</g>
<!-- 9998&#45;&gt;17 -->
<g id="edge18" class="edge">
<title>9998&#45;&gt;17</title>
<path fill="none" stroke="#000000" d="M30.0058,-1137.816C33.8933,-1067.2156 46.4469,-886.5012 75.1949,-834.3917 86.3789,-814.1194 106.8583,-797.5348 123.5184,-786.4793"/>
<polygon fill="#000000" stroke="#000000" points="125.7231,-789.2259 132.2979,-780.9179 121.9772,-783.3125 125.7231,-789.2259"/>
<text text-anchor="middle" x="93.6949" y="-838.1917" font-family="Times,serif" font-size="14.00" fill="#000000">1/1 (1)</text>
</g>
<!-- 18 -->
<g id="node20" class="node">
<title>18</title>
<ellipse fill="none" stroke="#000000" cx="149.6932" cy="-995.3917" rx="19.4965" ry="19.4965"/>
<text text-anchor="middle" x="149.6932" y="-991.6917" font-family="Times,serif" font-size="14.00" fill="#000000">18</text>
</g>
<!-- 9998&#45;&gt;18 -->
<g id="edge19" class="edge">
<title>9998&#45;&gt;18</title>
<path fill="none" stroke="#000000" d="M37.1729,-1138.8145C44.9133,-1116.5837 57.7639,-1085.2115 75.1949,-1061.3917 89.0569,-1042.4491 109.1845,-1025.0257 125.025,-1012.843"/>
<polygon fill="#000000" stroke="#000000" points="127.4078,-1015.4315 133.3172,-1006.6377 123.2137,-1009.827 127.4078,-1015.4315"/>
<text text-anchor="middle" x="93.6949" y="-1065.1917" font-family="Times,serif" font-size="14.00" fill="#000000">1/1 (1)</text>
</g>
<!-- 19 -->
<g id="node21" class="node">
<title>19</title>
<ellipse fill="none" stroke="#000000" cx="149.6932" cy="-2024.3917" rx="19.4965" ry="19.4965"/>
<text text-anchor="middle" x="149.6932" y="-2020.6917" font-family="Times,serif" font-size="14.00" fill="#000000">19</text>
</g>
<!-- 9998&#45;&gt;19 -->
<g id="edge20" class="edge">
<title>9998&#45;&gt;19</title>
<path fill="none" stroke="#000000" d="M30.1805,-1195.0992C34.6361,-1271.5639 48.7176,-1486.4018 75.1949,-1663.3917 93.8177,-1787.877 127.8016,-1934.1777 142.5487,-1995.2854"/>
<polygon fill="#000000" stroke="#000000" points="139.2308,-1996.4547 144.9895,-2005.3478 146.0335,-1994.8046 139.2308,-1996.4547"/>
<text text-anchor="middle" x="93.6949" y="-1864.1917" font-family="Times,serif" font-size="14.00" fill="#000000">1/1 (1)</text>
</g>
<!-- 20 -->
<g id="node22" class="node">
<title>20</title>
<ellipse fill="none" stroke="#000000" cx="149.6932" cy="-1052.3917" rx="19.4965" ry="19.4965"/>
<text text-anchor="middle" x="149.6932" y="-1048.6917" font-family="Times,serif" font-size="14.00" fill="#000000">20</text>
</g>
<!-- 9998&#45;&gt;20 -->
<g id="edge21" class="edge">
<title>9998&#45;&gt;20</title>
<path fill="none" stroke="#000000" d="M45.6061,-1143.1494C53.9772,-1132.3759 64.5433,-1119.7056 75.1949,-1109.3917 90.6472,-1094.4293 109.9852,-1079.7335 125.0861,-1069.012"/>
<polygon fill="#000000" stroke="#000000" points="127.2323,-1071.7822 133.4264,-1063.1866 123.2239,-1066.0435 127.2323,-1071.7822"/>
<text text-anchor="middle" x="93.6949" y="-1113.1917" font-family="Times,serif" font-size="14.00" fill="#000000">1/1 (1)</text>
</g>
<!-- 21 -->
<g id="node23" class="node">
<title>21</title>
<ellipse fill="none" stroke="#000000" cx="149.6932" cy="-1386.3917" rx="19.4965" ry="19.4965"/>
<text text-anchor="middle" x="149.6932" y="-1382.6917" font-family="Times,serif" font-size="14.00" fill="#000000">21</text>
</g>
<!-- 9998&#45;&gt;21 -->
<g id="edge22" class="edge">
<title>9998&#45;&gt;21</title>
<path fill="none" stroke="#000000" d="M32.0244,-1194.8212C37.0962,-1227.9567 48.9933,-1283.2835 75.1949,-1323.3917 87.7793,-1342.6552 107.9852,-1359.2142 124.1807,-1370.5147"/>
<polygon fill="#000000" stroke="#000000" points="122.4397,-1373.5617 132.6916,-1376.2356 126.3448,-1367.7522 122.4397,-1373.5617"/>
<text text-anchor="middle" x="93.6949" y="-1364.1917" font-family="Times,serif" font-size="14.00" fill="#000000">1/1 (1)</text>
</g>
<!-- 22 -->
<g id="node24" class="node">
<title>22</title>
<ellipse fill="none" stroke="#000000" cx="149.6932" cy="-1109.3917" rx="19.4965" ry="19.4965"/>
<text text-anchor="middle" x="149.6932" y="-1105.6917" font-family="Times,serif" font-size="14.00" fill="#000000">22</text>
</g>
<!-- 9998&#45;&gt;22 -->
<g id="edge23" class="edge">
<title>9998&#45;&gt;22</title>
<path fill="none" stroke="#000000" d="M54.5755,-1154.1638C74.6425,-1144.7182 102.3281,-1131.6865 122.6566,-1122.1178"/>
<polygon fill="#000000" stroke="#000000" points="124.4223,-1125.1552 131.9795,-1117.7296 121.4411,-1118.8217 124.4223,-1125.1552"/>
<text text-anchor="middle" x="93.6949" y="-1147.1917" font-family="Times,serif" font-size="14.00" fill="#000000">1/1 (1)</text>
</g>
<!-- 23 -->
<g id="node25" class="node">
<title>23</title>
<ellipse fill="none" stroke="#000000" cx="149.6932" cy="-1443.3917" rx="19.4965" ry="19.4965"/>
<text text-anchor="middle" x="149.6932" y="-1439.6917" font-family="Times,serif" font-size="14.00" fill="#000000">23</text>
</g>
<!-- 9998&#45;&gt;23 -->
<g id="edge24" class="edge">
<title>9998&#45;&gt;23</title>
<path fill="none" stroke="#000000" d="M32.5581,-1195.0079C39.9341,-1245.602 56.7127,-1348.4334 75.1949,-1379.3917 87.142,-1399.4034 107.5696,-1416.2907 124.0157,-1427.6851"/>
<polygon fill="#000000" stroke="#000000" points="122.3985,-1430.8128 132.6637,-1433.4351 126.2743,-1424.9837 122.3985,-1430.8128"/>
<text text-anchor="middle" x="93.6949" y="-1421.1917" font-family="Times,serif" font-size="14.00" fill="#000000">1/1 (1)</text>
</g>
<!-- 24 -->
<g id="node26" class="node">
<title>24</title>
<ellipse fill="none" stroke="#000000" cx="149.6932" cy="-1667.3917" rx="19.4965" ry="19.4965"/>
<text text-anchor="middle" x="149.6932" y="-1663.6917" font-family="Times,serif" font-size="14.00" fill="#000000">24</text>
</g>
<!-- 9998&#45;&gt;24 -->
<g id="edge25" class="edge">
<title>9998&#45;&gt;24</title>
<path fill="none" stroke="#000000" d="M28.8663,-1195.0965C30.0977,-1280.9021 36.9627,-1533.9251 75.1949,-1605.3917 86.0443,-1625.6722 106.5465,-1641.9712 123.3004,-1652.7586"/>
<polygon fill="#000000" stroke="#000000" points="121.7825,-1655.9333 132.1375,-1658.1749 125.4405,-1649.9651 121.7825,-1655.9333"/>
<text text-anchor="middle" x="93.6949" y="-1648.1917" font-family="Times,serif" font-size="14.00" fill="#000000">1/1 (1)</text>
</g>
<!-- 5&#45;&gt;3 -->
<g id="edge26" class="edge">
<title>5&#45;&gt;3</title>
<path fill="none" stroke="#000000" d="M161.7557,-869.9964C164.7462,-865.9078 167.56,-861.2112 169.1915,-856.3917 180.9167,-821.7532 160.9819,-223.894 187.1915,-198.3917 243.299,-143.798 256.3502,-309.2542 259.3298,-377.9559"/>
<polygon fill="#000000" stroke="#000000" points="255.8384,-378.2472 259.7266,-388.1028 262.8331,-377.9736 255.8384,-378.2472"/>
<text text-anchor="middle" x="205.6915" y="-202.1917" font-family="Times,serif" font-size="14.00" fill="#000000">1/1 (2)</text>
</g>
<!-- 5&#45;&gt;2 -->
<g id="edge27" class="edge">
<title>5&#45;&gt;2</title>
<path fill="none" stroke="#000000" d="M161.7728,-896.7813C164.7636,-900.8698 167.5733,-905.5677 169.1915,-910.3917 183.7362,-953.7503 162.9323,-1694.623 187.1915,-1733.3917 196.9973,-1749.0625 213.001,-1737.6777 224.1915,-1752.3917 241.3635,-1774.9706 252.4425,-1854.9122 257.3204,-1898.1428"/>
<polygon fill="#000000" stroke="#000000" points="253.8629,-1898.7239 258.4268,-1908.2854 260.8216,-1897.9647 253.8629,-1898.7239"/>
<text text-anchor="middle" x="205.6915" y="-1756.1917" font-family="Times,serif" font-size="14.00" fill="#000000">0/1 (1)</text>
</g>
<!-- 5&#45;&gt;1 -->
<g id="edge28" class="edge">
<title>5&#45;&gt;1</title>
<path fill="none" stroke="#000000" d="M160.4242,-898.2434C163.275,-902.191 166.3508,-906.4522 169.1915,-910.3917 177.1994,-921.4971 176.8136,-926.461 187.1915,-935.3917 201.2034,-947.4496 213.1458,-939.5687 224.1915,-954.3917 243.3222,-980.0647 253.7621,-1071.9954 257.9641,-1119.1111"/>
<polygon fill="#000000" stroke="#000000" points="254.4921,-1119.5887 258.8336,-1129.2531 261.4665,-1118.9906 254.4921,-1119.5887"/>
<text text-anchor="middle" x="205.6915" y="-958.1917" font-family="Times,serif" font-size="14.00" fill="#000000">0/1 (1)</text>
</g>
<!-- 6&#45;&gt;3 -->
<g id="edge29" class="edge">
<title>6&#45;&gt;3</title>
<path fill="none" stroke="#000000" d="M161.7753,-1485.003C164.7662,-1480.9145 167.5752,-1476.2163 169.1915,-1471.3917 184.283,-1426.3418 163.6735,-657.6731 187.1915,-616.3917 196.7761,-599.5676 213.22,-609.346 224.1915,-593.3917 233.1143,-580.4164 248.6951,-483.1814 256.0819,-434.2889"/>
<polygon fill="#000000" stroke="#000000" points="259.5491,-434.7679 257.5697,-424.3596 252.6264,-433.7305 259.5491,-434.7679"/>
<text text-anchor="middle" x="205.6915" y="-620.1917" font-family="Times,serif" font-size="14.00" fill="#000000">1/1 (2)</text>
</g>
<!-- 6&#45;&gt;2 -->
<g id="edge30" class="edge">
<title>6&#45;&gt;2</title>
<path fill="none" stroke="#000000" d="M161.7513,-1511.7885C164.7418,-1515.8771 167.5567,-1520.5733 169.1915,-1525.3917 180.3699,-1558.3392 162.2386,-2127.1461 187.1915,-2151.3917 198.9854,-2162.8513 211.6786,-2162.0616 224.1915,-2151.3917 239.0025,-2138.762 252.3183,-2012.5614 257.6836,-1954.8839"/>
<polygon fill="#000000" stroke="#000000" points="261.1955,-1954.9118 258.6202,-1944.6347 254.2246,-1954.2747 261.1955,-1954.9118"/>
<text text-anchor="middle" x="205.6915" y="-2163.1917" font-family="Times,serif" font-size="14.00" fill="#000000">0/1 (1)</text>
</g>
<!-- 6&#45;&gt;1 -->
<g id="edge31" class="edge">
<title>6&#45;&gt;1</title>
<path fill="none" stroke="#000000" d="M161.4684,-1484.5283C164.3807,-1480.5051 167.226,-1475.9593 169.1915,-1471.3917 186.177,-1431.9176 162.8934,-1411.8363 187.1915,-1376.3917 198.1395,-1360.4213 213.3574,-1369.4397 224.1915,-1353.3917 243.4956,-1324.7973 253.9786,-1225.1211 258.0985,-1175.6656"/>
<polygon fill="#000000" stroke="#000000" points="261.592,-1175.8863 258.9036,-1165.6382 254.6144,-1175.326 261.592,-1175.8863"/>
<text text-anchor="middle" x="205.6915" y="-1380.1917" font-family="Times,serif" font-size="14.00" fill="#000000">0/1 (1)</text>
</g>
<!-- 7&#45;&gt;3 -->
<g id="edge32" class="edge">
<title>7&#45;&gt;3</title>
<path fill="none" stroke="#000000" d="M150.1404,-588.1993C152.6358,-490.194 165.511,-28.7552 187.1915,-8.3917 199.1778,2.8666 212.051,2.7002 224.1915,-8.3917 251.4223,-33.2706 258.254,-291.45 259.7868,-378.1652"/>
<polygon fill="#000000" stroke="#000000" points="256.2897,-378.3786 259.9555,-388.319 263.2888,-378.2622 256.2897,-378.3786"/>
<text text-anchor="middle" x="205.6915" y="-12.1917" font-family="Times,serif" font-size="14.00" fill="#000000">1/1 (2)</text>
</g>
<!-- 7&#45;&gt;2 -->
<g id="edge33" class="edge">
<title>7&#45;&gt;2</title>
<path fill="none" stroke="#000000" d="M161.7793,-619.7791C164.7702,-623.8676 167.5783,-628.566 169.1915,-633.3917 185.2229,-681.3485 160.4138,-1500.4986 187.1915,-1543.3917 196.9809,-1559.0727 213.7919,-1547.1085 224.1915,-1562.3917 242.9147,-1589.9074 255.1146,-1816.4579 258.9193,-1897.6099"/>
<polygon fill="#000000" stroke="#000000" points="255.4441,-1898.2315 259.4002,-1908.06 262.4367,-1897.9096 255.4441,-1898.2315"/>
<text text-anchor="middle" x="205.6915" y="-1566.1917" font-family="Times,serif" font-size="14.00" fill="#000000">0/1 (1)</text>
</g>
<!-- 7&#45;&gt;1 -->
<g id="edge34" class="edge">
<title>7&#45;&gt;1</title>
<path fill="none" stroke="#000000" d="M161.5529,-620.2194C164.4656,-624.2424 167.2899,-628.7971 169.1915,-633.3917 188.471,-679.9763 157.5755,-704.5907 187.1915,-745.3917 198.0506,-760.3519 213.8291,-749.0832 224.1915,-764.3917 243.9622,-793.5992 255.6169,-1035.385 259.0879,-1119.0402"/>
<polygon fill="#000000" stroke="#000000" points="255.5934,-1119.2486 259.4972,-1129.098 262.5876,-1118.964 255.5934,-1119.2486"/>
<text text-anchor="middle" x="205.6915" y="-768.1917" font-family="Times,serif" font-size="14.00" fill="#000000">0/1 (1)</text>
</g>
<!-- 8&#45;&gt;3 -->
<g id="edge35" class="edge">
<title>8&#45;&gt;3</title>
<path fill="none" stroke="#000000" d="M161.7482,-702.9938C164.7387,-698.9052 167.5543,-694.2093 169.1915,-689.3917 180.0111,-657.554 163.0633,-107.8126 187.1915,-84.3917 198.9911,-72.9379 211.9345,-73.4287 224.1915,-84.3917 245.9206,-103.8269 256.0649,-302.937 259.138,-377.9816"/>
<polygon fill="#000000" stroke="#000000" points="255.6463,-378.2643 259.5406,-388.1174 262.6408,-377.9864 255.6463,-378.2643"/>
<text text-anchor="middle" x="205.6915" y="-88.1917" font-family="Times,serif" font-size="14.00" fill="#000000">1/1 (2)</text>
</g>
<!-- 8&#45;&gt;2 -->
<g id="edge36" class="edge">
<title>8&#45;&gt;2</title>
<path fill="none" stroke="#000000" d="M161.7769,-729.7799C164.7678,-733.8684 167.5764,-738.5666 169.1915,-743.3917 184.6419,-789.5515 161.398,-1578.1104 187.1915,-1619.3917 196.987,-1635.069 213.5958,-1623.2437 224.1915,-1638.3917 238.9271,-1659.4583 253.0471,-1829.9664 258.1682,-1898.2596"/>
<polygon fill="#000000" stroke="#000000" points="254.683,-1898.5897 258.9116,-1908.3041 261.6639,-1898.073 254.683,-1898.5897"/>
<text text-anchor="middle" x="205.6915" y="-1642.1917" font-family="Times,serif" font-size="14.00" fill="#000000">0/1 (1)</text>
</g>
<!-- 8&#45;&gt;1 -->
<g id="edge37" class="edge">
<title>8&#45;&gt;1</title>
<path fill="none" stroke="#000000" d="M161.3494,-730.3077C164.2612,-734.3311 167.1361,-738.8638 169.1915,-743.3917 183.8972,-775.788 165.3333,-793.3204 187.1915,-821.3917 198.5488,-835.9773 213.6536,-825.2035 224.1915,-840.3917 239.9403,-863.0906 253.6468,-1047.9228 258.406,-1119.3574"/>
<polygon fill="#000000" stroke="#000000" points="254.9193,-1119.6758 259.0673,-1129.4249 261.9043,-1119.217 254.9193,-1119.6758"/>
<text text-anchor="middle" x="205.6915" y="-844.1917" font-family="Times,serif" font-size="14.00" fill="#000000">0/1 (1)</text>
</g>
<!-- 9&#45;&gt;3 -->
<g id="edge38" class="edge">
<title>9&#45;&gt;3</title>
<path fill="none" stroke="#000000" d="M161.7679,-1208.0005C164.7586,-1203.9119 167.5695,-1199.2144 169.1915,-1194.3917 182.7963,-1153.9398 160.9098,-460.0179 187.1915,-426.3917 197.5797,-413.1004 215.9064,-408.11 231.5975,-406.4376"/>
<polygon fill="#000000" stroke="#000000" points="232.1651,-409.9076 241.9095,-405.7486 231.6984,-402.9231 232.1651,-409.9076"/>
<text text-anchor="middle" x="205.6915" y="-430.1917" font-family="Times,serif" font-size="14.00" fill="#000000">1/1 (2)</text>
</g>
<!-- 9&#45;&gt;2 -->
<g id="edge39" class="edge">
<title>9&#45;&gt;2</title>
<path fill="none" stroke="#000000" d="M161.7623,-1234.7848C164.7529,-1238.8734 167.5651,-1243.5704 169.1915,-1248.3917 181.8565,-1285.9368 158.8219,-1933.7293 187.1915,-1961.3917 198.9653,-1972.872 208.9548,-1967.5776 224.1915,-1961.3917 231.0289,-1958.6158 237.281,-1953.8484 242.5871,-1948.7102"/>
<polygon fill="#000000" stroke="#000000" points="245.4069,-1950.8169 249.6425,-1941.1055 240.2753,-1946.0559 245.4069,-1950.8169"/>
<text text-anchor="middle" x="205.6915" y="-1971.1917" font-family="Times,serif" font-size="14.00" fill="#000000">0/1 (1)</text>
</g>
<!-- 9&#45;&gt;1 -->
<g id="edge40" class="edge">
<title>9&#45;&gt;1</title>
<path fill="none" stroke="#000000" d="M162.1567,-1208.195C169.1309,-1201.2275 178.2094,-1192.8151 187.1915,-1186.3917 201.9107,-1175.8655 219.8145,-1166.2575 234.2074,-1159.2118"/>
<polygon fill="#000000" stroke="#000000" points="236.011,-1162.2293 243.5285,-1154.7636 232.9961,-1155.9118 236.011,-1162.2293"/>
<text text-anchor="middle" x="205.6915" y="-1190.1917" font-family="Times,serif" font-size="14.00" fill="#000000">0/1 (1)</text>
</g>
<!-- 10&#45;&gt;3 -->
<g id="edge41" class="edge">
<title>10&#45;&gt;3</title>
<path fill="none" stroke="#000000" d="M162.3818,-1261.5691C165.1413,-1257.5413 167.6837,-1253.0091 169.1915,-1248.3917 196.2383,-1165.5617 143.9876,-540.0605 187.1915,-464.3917 196.7921,-447.5768 208.9396,-453.3204 224.1915,-441.3917 229.8197,-436.9898 235.5345,-431.8185 240.7034,-426.8218"/>
<polygon fill="#000000" stroke="#000000" points="243.2005,-429.2746 247.8122,-419.736 238.2588,-424.3168 243.2005,-429.2746"/>
<text text-anchor="middle" x="205.6915" y="-468.1917" font-family="Times,serif" font-size="14.00" fill="#000000">1/1 (2)</text>
</g>
<!-- 10&#45;&gt;2 -->
<g id="edge42" class="edge">
<title>10&#45;&gt;2</title>
<path fill="none" stroke="#000000" d="M162.3724,-1291.2173C165.1321,-1295.2451 167.6769,-1299.7765 169.1915,-1304.3917 181.2345,-1341.0902 159.5288,-1972.4362 187.1915,-1999.3917 198.969,-2010.8682 210.2268,-2008.0754 224.1915,-1999.3917 240.0399,-1989.5365 249.1175,-1970.4208 254.1922,-1954.2225"/>
<polygon fill="#000000" stroke="#000000" points="257.6921,-1954.6967 256.9799,-1944.1259 250.9446,-1952.8337 257.6921,-1954.6967"/>
<text text-anchor="middle" x="205.6915" y="-2010.1917" font-family="Times,serif" font-size="14.00" fill="#000000">0/1 (1)</text>
</g>
<!-- 10&#45;&gt;1 -->
<g id="edge43" class="edge">
<title>10&#45;&gt;1</title>
<path fill="none" stroke="#000000" d="M160.936,-1260.1429C170.7881,-1246.0156 184.0186,-1227.354 187.1915,-1224.3917 201.3444,-1211.1777 210.2838,-1214.8635 224.1915,-1201.3917 232.7777,-1193.0746 240.4302,-1182.3766 246.4482,-1172.6996"/>
<polygon fill="#000000" stroke="#000000" points="249.6079,-1174.233 251.6943,-1163.8456 243.5856,-1170.6647 249.6079,-1174.233"/>
<text text-anchor="middle" x="205.6915" y="-1228.1917" font-family="Times,serif" font-size="14.00" fill="#000000">0/1 (1)</text>
</g>
<!-- 11&#45;&gt;3 -->
<g id="edge46" class="edge">
<title>11&#45;&gt;3</title>
<path fill="none" stroke="#000000" d="M162.1791,-1151.2864C165.0163,-1147.0398 167.6466,-1142.2481 169.1915,-1137.3917 181.8088,-1097.727 157.408,-417.468 187.1915,-388.3917 200.2306,-375.6622 220.7569,-382.1687 236.7272,-390.717"/>
<polygon fill="#000000" stroke="#000000" points="235.1138,-393.8281 245.5127,-395.8562 238.6482,-387.7859 235.1138,-393.8281"/>
<text text-anchor="middle" x="205.6915" y="-392.1917" font-family="Times,serif" font-size="14.00" fill="#000000">0/1 (2)</text>
</g>
<!-- 11&#45;&gt;2 -->
<g id="edge47" class="edge">
<title>11&#45;&gt;2</title>
<path fill="none" stroke="#000000" d="M162.3763,-1181.216C165.1359,-1185.2438 167.6797,-1189.7756 169.1915,-1194.3917 181.8,-1232.892 158.7806,-1894.5114 187.1915,-1923.3917 198.6832,-1935.0733 217.1668,-1935.7289 232.659,-1933.5119"/>
<polygon fill="#000000" stroke="#000000" points="233.5976,-1936.8972 242.7838,-1931.6184 232.3108,-1930.0165 233.5976,-1936.8972"/>
<text text-anchor="middle" x="205.6915" y="-1938.1917" font-family="Times,serif" font-size="14.00" fill="#000000">0/1 (1)</text>
</g>
<!-- 11&#45;&gt;1 -->
<g id="edge45" class="edge">
<title>11&#45;&gt;1</title>
<path fill="none" stroke="#000000" d="M166.6646,-1156.3245C172.9017,-1153.15 180.1613,-1150.0423 187.1915,-1148.3917 201.6987,-1144.9854 218.2779,-1144.497 231.966,-1144.9647"/>
<polygon fill="#000000" stroke="#000000" points="232.0581,-1148.4744 242.229,-1145.5073 232.4278,-1141.4841 232.0581,-1148.4744"/>
<text text-anchor="middle" x="205.6915" y="-1152.1917" font-family="Times,serif" font-size="14.00" fill="#000000">1/1 (1)</text>
</g>
<!-- 12&#45;&gt;3 -->
<g id="edge49" class="edge">
<title>12&#45;&gt;3</title>
<path fill="none" stroke="#000000" d="M162.1656,-813.2821C165.0028,-809.0355 167.6366,-804.2449 169.1915,-799.3917 180.0269,-765.5709 161.7281,-185.1479 187.1915,-160.3917 198.982,-148.9286 211.7501,-149.6385 224.1915,-160.3917 240.5188,-174.5036 253.3066,-316.7013 258.1206,-378.246"/>
<polygon fill="#000000" stroke="#000000" points="254.6459,-378.7112 258.9005,-388.4142 261.6254,-378.1758 254.6459,-378.7112"/>
<text text-anchor="middle" x="205.6915" y="-164.1917" font-family="Times,serif" font-size="14.00" fill="#000000">0/1 (2)</text>
</g>
<!-- 12&#45;&gt;2 -->
<g id="edge50" class="edge">
<title>12&#45;&gt;2</title>
<path fill="none" stroke="#000000" d="M162.3867,-843.2127C165.1461,-847.2405 167.6872,-851.7731 169.1915,-856.3917 183.6298,-900.7215 162.4691,-1655.8645 187.1915,-1695.3917 196.9941,-1711.0645 213.2662,-1699.4797 224.1915,-1714.3917 245.2607,-1743.1494 254.9297,-1846.9924 258.4819,-1897.8816"/>
<polygon fill="#000000" stroke="#000000" points="255.0107,-1898.4322 259.1671,-1908.1777 261.9952,-1897.9673 255.0107,-1898.4322"/>
<text text-anchor="middle" x="205.6915" y="-1718.1917" font-family="Times,serif" font-size="14.00" fill="#000000">0/1 (1)</text>
</g>
<!-- 12&#45;&gt;1 -->
<g id="edge48" class="edge">
<title>12&#45;&gt;1</title>
<path fill="none" stroke="#000000" d="M161.383,-844.0363C164.1008,-847.9737 166.874,-852.2581 169.1915,-856.3917 178.9238,-873.7506 173.5529,-882.8989 187.1915,-897.3917 199.8602,-910.8539 213.3679,-901.4057 224.1915,-916.3917 247.258,-948.329 256.0425,-1064.6609 258.9414,-1119.029"/>
<polygon fill="#000000" stroke="#000000" points="255.4618,-1119.524 259.4595,-1129.3356 262.453,-1119.1725 255.4618,-1119.524"/>
<text text-anchor="middle" x="205.6915" y="-920.1917" font-family="Times,serif" font-size="14.00" fill="#000000">1/1 (1)</text>
</g>
<!-- 13&#45;&gt;3 -->
<g id="edge52" class="edge">
<title>13&#45;&gt;3</title>
<path fill="none" stroke="#000000" d="M162.1916,-1595.2904C165.0286,-1591.0437 167.6558,-1586.251 169.1915,-1581.3917 184.0769,-1534.2887 162.756,-735.3239 187.1915,-692.3917 196.7693,-675.5638 213.6559,-685.6372 224.1915,-669.3917 249.0373,-631.08 256.989,-494.4894 259.3138,-434.7293"/>
<polygon fill="#000000" stroke="#000000" points="262.8198,-434.6264 259.6852,-424.5058 255.8244,-434.3722 262.8198,-434.6264"/>
<text text-anchor="middle" x="205.6915" y="-696.1917" font-family="Times,serif" font-size="14.00" fill="#000000">0/1 (2)</text>
</g>
<!-- 13&#45;&gt;2 -->
<g id="edge53" class="edge">
<title>13&#45;&gt;2</title>
<path fill="none" stroke="#000000" d="M162.1575,-1625.5039C164.9949,-1629.7504 167.6307,-1634.5404 169.1915,-1639.3917 179.2008,-1670.5032 163.7309,-2204.6383 187.1915,-2227.3917 198.996,-2238.8404 211.8924,-2238.3074 224.1915,-2227.3917 244.4092,-2209.4479 255.3626,-2026.4351 258.8998,-1954.8633"/>
<polygon fill="#000000" stroke="#000000" points="262.4013,-1954.9162 259.3862,-1944.7594 255.4094,-1954.5795 262.4013,-1954.9162"/>
<text text-anchor="middle" x="205.6915" y="-2239.1917" font-family="Times,serif" font-size="14.00" fill="#000000">0/1 (1)</text>
</g>
<!-- 13&#45;&gt;1 -->
<g id="edge51" class="edge">
<title>13&#45;&gt;1</title>
<path fill="none" stroke="#000000" d="M162.0086,-1594.8517C164.7752,-1590.6836 167.4144,-1586.0383 169.1915,-1581.3917 189.8702,-1527.3223 155.6301,-1500.92 187.1915,-1452.3917 197.7481,-1436.1599 213.7297,-1445.6848 224.1915,-1429.3917 250.9128,-1387.7761 257.8593,-1238.4979 259.6161,-1175.625"/>
<polygon fill="#000000" stroke="#000000" points="263.1151,-1175.7044 259.8717,-1165.6183 256.1174,-1175.5256 263.1151,-1175.7044"/>
<text text-anchor="middle" x="205.6915" y="-1456.1917" font-family="Times,serif" font-size="14.00" fill="#000000">1/1 (1)</text>
</g>
<!-- 14&#45;&gt;3 -->
<g id="edge55" class="edge">
<title>14&#45;&gt;3</title>
<path fill="none" stroke="#000000" d="M162.3892,-1538.5715C165.1485,-1534.5437 167.689,-1530.0109 169.1915,-1525.3917 184.1621,-1479.366 163.2418,-696.4499 187.1915,-654.3917 196.7728,-637.5658 213.4729,-647.517 224.1915,-631.3917 245.3446,-599.5682 255.0732,-487.6391 258.5737,-434.6312"/>
<polygon fill="#000000" stroke="#000000" points="262.0724,-434.7608 259.2102,-424.56 255.0863,-434.3193 262.0724,-434.7608"/>
<text text-anchor="middle" x="205.6915" y="-658.1917" font-family="Times,serif" font-size="14.00" fill="#000000">0/1 (2)</text>
</g>
<!-- 14&#45;&gt;2 -->
<g id="edge56" class="edge">
<title>14&#45;&gt;2</title>
<path fill="none" stroke="#000000" d="M162.1607,-1568.5029C164.998,-1572.7494 167.633,-1577.5396 169.1915,-1582.3917 179.5085,-1614.5125 162.9848,-2165.8922 187.1915,-2189.3917 198.9905,-2200.846 211.8001,-2200.2025 224.1915,-2189.3917 241.7133,-2174.1049 253.9828,-2019.4575 258.3912,-1954.6879"/>
<polygon fill="#000000" stroke="#000000" points="261.9045,-1954.6042 259.0769,-1944.3936 254.9199,-1954.1389 261.9045,-1954.6042"/>
<text text-anchor="middle" x="205.6915" y="-2201.1917" font-family="Times,serif" font-size="14.00" fill="#000000">0/1 (1)</text>
</g>
<!-- 14&#45;&gt;1 -->
<g id="edge54" class="edge">
<title>14&#45;&gt;1</title>
<path fill="none" stroke="#000000" d="M162.1485,-1538.1148C164.8431,-1534.1662 167.4138,-1529.7845 169.1915,-1525.3917 187.939,-1479.0634 159.4815,-1455.9842 187.1915,-1414.3917 197.927,-1398.2777 213.5712,-1407.5819 224.1915,-1391.3917 247.1933,-1356.326 256.0717,-1232.0733 258.9733,-1175.6436"/>
<polygon fill="#000000" stroke="#000000" points="262.4708,-1175.7789 259.462,-1165.6203 255.4791,-1175.438 262.4708,-1175.7789"/>
<text text-anchor="middle" x="205.6915" y="-1418.1917" font-family="Times,serif" font-size="14.00" fill="#000000">1/1 (1)</text>
</g>
<!-- 15&#45;&gt;3 -->
<g id="edge58" class="edge">
<title>15&#45;&gt;3</title>
<path fill="none" stroke="#000000" d="M162.3572,-646.5611C165.1172,-642.5334 167.6659,-638.0033 169.1915,-633.3917 179.4382,-602.4161 163.7702,-69.1058 187.1915,-46.3917 198.9963,-34.9433 211.9987,-35.3574 224.1915,-46.3917 248.6497,-68.5261 257.2087,-296.7407 259.4927,-377.9209"/>
<polygon fill="#000000" stroke="#000000" points="255.9943,-378.0324 259.7632,-387.9342 262.9918,-377.8433 255.9943,-378.0324"/>
<text text-anchor="middle" x="205.6915" y="-50.1917" font-family="Times,serif" font-size="14.00" fill="#000000">0/1 (2)</text>
</g>
<!-- 15&#45;&gt;2 -->
<g id="edge59" class="edge">
<title>15&#45;&gt;2</title>
<path fill="none" stroke="#000000" d="M162.3907,-676.2113C165.1501,-680.2392 167.6901,-684.7722 169.1915,-689.3917 184.5114,-736.5303 160.9349,-1539.3519 187.1915,-1581.3917 196.9841,-1597.0708 213.7049,-1585.168 224.1915,-1600.3917 240.9319,-1624.6945 254.1671,-1823.4118 258.5964,-1898.1309"/>
<polygon fill="#000000" stroke="#000000" points="255.1085,-1898.4408 259.1854,-1908.2198 262.0966,-1898.0327 255.1085,-1898.4408"/>
<text text-anchor="middle" x="205.6915" y="-1604.1917" font-family="Times,serif" font-size="14.00" fill="#000000">0/1 (1)</text>
</g>
<!-- 15&#45;&gt;1 -->
<g id="edge57" class="edge">
<title>15&#45;&gt;1</title>
<path fill="none" stroke="#000000" d="M162.0602,-676.7051C164.7574,-680.6525 167.3515,-685.0245 169.1915,-689.3917 185.7068,-728.5915 161.6933,-749.3443 187.1915,-783.3917 198.2726,-798.1882 213.7507,-787.1365 224.1915,-802.3917 241.9362,-828.3188 254.6731,-1041.2312 258.7752,-1119.049"/>
<polygon fill="#000000" stroke="#000000" points="255.2831,-1119.294 259.2964,-1129.0993 262.2737,-1118.9315 255.2831,-1119.294"/>
<text text-anchor="middle" x="205.6915" y="-806.1917" font-family="Times,serif" font-size="14.00" fill="#000000">1/1 (1)</text>
</g>
<!-- 16&#45;&gt;3 -->
<g id="edge61" class="edge">
<title>16&#45;&gt;3</title>
<path fill="none" stroke="#000000" d="M162.3699,-923.5652C165.1296,-919.5375 167.6751,-915.0063 169.1915,-910.3917 180.8852,-874.806 160.3536,-262.5224 187.1915,-236.3917 198.9736,-224.92 211.4157,-226.038 224.1915,-236.3917 245.7984,-253.9022 254.9556,-334.3707 258.3883,-378.0277"/>
<polygon fill="#000000" stroke="#000000" points="254.9177,-378.5568 259.1418,-388.2731 261.8988,-378.0433 254.9177,-378.5568"/>
<text text-anchor="middle" x="205.6915" y="-240.1917" font-family="Times,serif" font-size="14.00" fill="#000000">0/1 (2)</text>
</g>
<!-- 16&#45;&gt;2 -->
<g id="edge62" class="edge">
<title>16&#45;&gt;2</title>
<path fill="none" stroke="#000000" d="M162.1846,-953.4952C165.0217,-957.7419 167.6506,-962.534 169.1915,-967.3917 182.6998,-1009.9785 163.4823,-1733.5237 187.1915,-1771.3917 197.0014,-1787.0599 212.6024,-1775.9895 224.1915,-1790.3917 237.5128,-1806.9467 249.3566,-1863.8258 255.5772,-1898.5655"/>
<polygon fill="#000000" stroke="#000000" points="252.1554,-1899.3175 257.3226,-1908.5669 259.0512,-1898.114 252.1554,-1899.3175"/>
<text text-anchor="middle" x="205.6915" y="-1794.1917" font-family="Times,serif" font-size="14.00" fill="#000000">0/1 (1)</text>
</g>
<!-- 16&#45;&gt;1 -->
<g id="edge60" class="edge">
<title>16&#45;&gt;1</title>
<path fill="none" stroke="#000000" d="M163.522,-952.1657C170.4276,-958.8164 179.0321,-966.7699 187.1915,-973.3917 202.7975,-986.0567 212.869,-982.7859 224.1915,-999.3917 237.3772,-1018.7302 249.5414,-1082.0939 255.7917,-1119.3483"/>
<polygon fill="#000000" stroke="#000000" points="252.3925,-1120.2484 257.4651,-1129.5499 259.3002,-1119.1153 252.3925,-1120.2484"/>
<text text-anchor="middle" x="205.6915" y="-1003.1917" font-family="Times,serif" font-size="14.00" fill="#000000">1/1 (1)</text>
</g>
<!-- 17&#45;&gt;3 -->
<g id="edge64" class="edge">
<title>17&#45;&gt;3</title>
<path fill="none" stroke="#000000" d="M162.3626,-756.5628C165.1224,-752.5351 167.6698,-748.0046 169.1915,-743.3917 180.0037,-710.6145 162.435,-146.441 187.1915,-122.3917 198.9867,-110.9334 211.854,-111.5194 224.1915,-122.3917 243.2158,-139.1567 254.7866,-309.6796 258.6974,-378.1557"/>
<polygon fill="#000000" stroke="#000000" points="255.2078,-378.4407 259.2593,-388.2303 262.1969,-378.0509 255.2078,-378.4407"/>
<text text-anchor="middle" x="205.6915" y="-126.1917" font-family="Times,serif" font-size="14.00" fill="#000000">0/1 (2)</text>
</g>
<!-- 17&#45;&gt;2 -->
<g id="edge65" class="edge">
<title>17&#45;&gt;2</title>
<path fill="none" stroke="#000000" d="M162.1891,-786.4938C165.0262,-790.7404 167.654,-795.5329 169.1915,-800.3917 183.5584,-845.7944 161.9481,-1617.0111 187.1915,-1657.3917 196.9905,-1673.0667 213.4549,-1661.3433 224.1915,-1676.3917 249.2541,-1711.5197 257.0584,-1840.4015 259.3274,-1898.1162"/>
<polygon fill="#000000" stroke="#000000" points="255.8382,-1898.4784 259.7003,-1908.3442 262.8335,-1898.2233 255.8382,-1898.4784"/>
<text text-anchor="middle" x="205.6915" y="-1680.1917" font-family="Times,serif" font-size="14.00" fill="#000000">0/1 (1)</text>
</g>
<!-- 17&#45;&gt;1 -->
<g id="edge63" class="edge">
<title>17&#45;&gt;1</title>
<path fill="none" stroke="#000000" d="M161.5096,-787.1454C164.2858,-791.3093 167.0544,-795.8992 169.1915,-800.3917 180.9685,-825.1487 169.6086,-838.3572 187.1915,-859.3917 199.0474,-873.575 213.5301,-863.2899 224.1915,-878.3917 251.2363,-916.7008 257.9887,-1058.0632 259.6546,-1119.0638"/>
<polygon fill="#000000" stroke="#000000" points="256.1576,-1119.2319 259.9029,-1129.1427 263.1555,-1119.0594 256.1576,-1119.2319"/>
<text text-anchor="middle" x="205.6915" y="-882.1917" font-family="Times,serif" font-size="14.00" fill="#000000">1/1 (1)</text>
</g>
<!-- 18&#45;&gt;3 -->
<g id="edge68" class="edge">
<title>18&#45;&gt;3</title>
<path fill="none" stroke="#000000" d="M162.1726,-980.2843C165.0098,-976.0378 167.6418,-971.2466 169.1915,-966.3917 180.8854,-929.7553 159.6467,-301.2293 187.1915,-274.3917 198.9697,-262.9159 211.123,-264.41 224.1915,-274.3917 240.6146,-286.9356 251.3437,-343.4084 256.5319,-378.2992"/>
<polygon fill="#000000" stroke="#000000" points="253.0899,-378.9551 257.9644,-388.362 260.0201,-377.9685 253.0899,-378.9551"/>
<text text-anchor="middle" x="205.6915" y="-278.1917" font-family="Times,serif" font-size="14.00" fill="#000000">0/1 (2)</text>
</g>
<!-- 18&#45;&gt;2 -->
<g id="edge67" class="edge">
<title>18&#45;&gt;2</title>
<path fill="none" stroke="#000000" d="M162.1828,-1010.4958C165.0199,-1014.7424 167.6493,-1019.5344 169.1915,-1024.3917 182.392,-1065.969 164.0323,-1772.4244 187.1915,-1809.3917 197.0056,-1825.0573 211.9436,-1814.5455 224.1915,-1828.3917 241.6563,-1848.1357 250.896,-1877.0737 255.6195,-1898.3881"/>
<polygon fill="#000000" stroke="#000000" points="252.2416,-1899.3438 257.6448,-1908.4573 259.1041,-1897.9634 252.2416,-1899.3438"/>
<text text-anchor="middle" x="205.6915" y="-1832.1917" font-family="Times,serif" font-size="14.00" fill="#000000">1/1 (1)</text>
</g>
<!-- 18&#45;&gt;1 -->
<g id="edge69" class="edge">
<title>18&#45;&gt;1</title>
<path fill="none" stroke="#000000" d="M167.0151,-1004.7949C183.7354,-1014.664 208.7288,-1031.622 224.1915,-1052.3917 239.1698,-1072.5109 248.6162,-1099.5936 254.0546,-1119.6944"/>
<polygon fill="#000000" stroke="#000000" points="250.6895,-1120.6635 256.5412,-1129.4956 257.4745,-1118.942 250.6895,-1120.6635"/>
<text text-anchor="middle" x="205.6915" y="-1056.1917" font-family="Times,serif" font-size="14.00" fill="#000000">0/1 (1)</text>
</g>
<!-- 19&#45;&gt;3 -->
<g id="edge71" class="edge">
<title>19&#45;&gt;3</title>
<path fill="none" stroke="#000000" d="M150.8931,-2004.9246C156.5333,-1913.942 180.4179,-1534.6045 187.1915,-1524.3917 197.409,-1508.9862 214.3005,-1521.0089 224.1915,-1505.3917 231.5741,-1493.7349 255.0023,-606.0633 259.4563,-434.8074"/>
<polygon fill="#000000" stroke="#000000" points="262.9555,-434.8807 259.7164,-424.7932 255.9579,-434.6989 262.9555,-434.8807"/>
<text text-anchor="middle" x="205.6915" y="-1528.1917" font-family="Times,serif" font-size="14.00" fill="#000000">0/1 (2)</text>
</g>
<!-- 19&#45;&gt;2 -->
<g id="edge70" class="edge">
<title>19&#45;&gt;2</title>
<path fill="none" stroke="#000000" d="M150.5361,-2044.194C153.558,-2110.4832 164.874,-2321.5586 187.1915,-2341.3917 199.4835,-2352.3154 212.0714,-2352.5059 224.1915,-2341.3917 252.6532,-2315.292 258.6818,-2043.8525 259.8982,-1954.636"/>
<polygon fill="#000000" stroke="#000000" points="263.4001,-1954.498 260.0265,-1944.4546 256.4007,-1954.4097 263.4001,-1954.498"/>
<text text-anchor="middle" x="205.6915" y="-2353.1917" font-family="Times,serif" font-size="14.00" fill="#000000">1/1 (1)</text>
</g>
<!-- 19&#45;&gt;1 -->
<g id="edge72" class="edge">
<title>19&#45;&gt;1</title>
<path fill="none" stroke="#000000" d="M150.9706,-2043.973C155.0174,-2102.9823 168.4042,-2276.0501 187.1915,-2292.3917 199.599,-2303.184 212.3822,-2303.8355 224.1915,-2292.3917 234.5415,-2282.3619 255.6802,-1350.9797 259.5693,-1175.6688"/>
<polygon fill="#000000" stroke="#000000" points="263.0685,-1175.742 259.7907,-1165.667 256.0702,-1175.5871 263.0685,-1175.742"/>
<text text-anchor="middle" x="205.6915" y="-2304.1917" font-family="Times,serif" font-size="14.00" fill="#000000">0/1 (1)</text>
</g>
<!-- 20&#45;&gt;3 -->
<g id="edge74" class="edge">
<title>20&#45;&gt;3</title>
<path fill="none" stroke="#000000" d="M162.1749,-1037.2851C165.0121,-1033.0385 167.6435,-1028.2471 169.1915,-1023.3917 181.1932,-985.7459 158.9005,-339.9755 187.1915,-312.3917 198.9657,-300.9118 210.6428,-303.0722 224.1915,-312.3917 235.5299,-320.1908 246.5432,-353.9736 253.3397,-378.8159"/>
<polygon fill="#000000" stroke="#000000" points="250.0431,-380.0403 255.983,-388.8134 256.8106,-378.251 250.0431,-380.0403"/>
<text text-anchor="middle" x="205.6915" y="-316.1917" font-family="Times,serif" font-size="14.00" fill="#000000">0/1 (2)</text>
</g>
<!-- 20&#45;&gt;2 -->
<g id="edge73" class="edge">
<title>20&#45;&gt;2</title>
<path fill="none" stroke="#000000" d="M162.1809,-1067.4964C165.018,-1071.743 167.6479,-1076.5349 169.1915,-1081.3917 182.0842,-1121.9596 164.5823,-1811.3251 187.1915,-1847.3917 197.0101,-1863.0545 210.6957,-1853.7587 224.1915,-1866.3917 234.3765,-1875.9256 242.6684,-1888.9805 248.7159,-1900.4786"/>
<polygon fill="#000000" stroke="#000000" points="245.6872,-1902.2498 253.2602,-1909.6594 251.9608,-1899.1445 245.6872,-1902.2498"/>
<text text-anchor="middle" x="205.6915" y="-1870.1917" font-family="Times,serif" font-size="14.00" fill="#000000">1/1 (1)</text>
</g>
<!-- 20&#45;&gt;1 -->
<g id="edge75" class="edge">
<title>20&#45;&gt;1</title>
<path fill="none" stroke="#000000" d="M167.6032,-1060.6164C183.6025,-1068.5345 207.0875,-1081.6142 224.1915,-1097.3917 232.3289,-1104.8981 239.7709,-1114.5076 245.7496,-1123.2928"/>
<polygon fill="#000000" stroke="#000000" points="242.827,-1125.2187 251.2122,-1131.6947 248.6957,-1121.4031 242.827,-1125.2187"/>
<text text-anchor="middle" x="205.6915" y="-1101.1917" font-family="Times,serif" font-size="14.00" fill="#000000">0/1 (1)</text>
</g>
<!-- 21&#45;&gt;3 -->
<g id="edge77" class="edge">
<title>21&#45;&gt;3</title>
<path fill="none" stroke="#000000" d="M162.3849,-1371.5701C165.1443,-1367.5423 167.6859,-1363.0099 169.1915,-1358.3917 183.2805,-1315.1748 164.672,-579.8768 187.1915,-540.3917 196.7841,-523.5722 212.2569,-532.639 224.1915,-517.3917 243.2269,-493.0726 252.3573,-458.3568 256.6294,-434.2496"/>
<polygon fill="#000000" stroke="#000000" points="260.0953,-434.7404 258.2231,-424.3123 253.1836,-433.6319 260.0953,-434.7404"/>
<text text-anchor="middle" x="205.6915" y="-544.1917" font-family="Times,serif" font-size="14.00" fill="#000000">0/1 (2)</text>
</g>
<!-- 21&#45;&gt;2 -->
<g id="edge76" class="edge">
<title>21&#45;&gt;2</title>
<path fill="none" stroke="#000000" d="M162.1685,-1401.5004C165.0057,-1405.7469 167.6388,-1410.5378 169.1915,-1415.3917 180.3671,-1450.3281 160.9034,-2049.8108 187.1915,-2075.3917 198.9769,-2086.8601 211.27,-2085.563 224.1915,-2075.3917 242.9232,-2060.6467 253.0683,-1993.5653 257.471,-1954.6221"/>
<polygon fill="#000000" stroke="#000000" points="260.9755,-1954.7677 258.5629,-1944.4512 254.0154,-1954.0204 260.9755,-1954.7677"/>
<text text-anchor="middle" x="205.6915" y="-2087.1917" font-family="Times,serif" font-size="14.00" fill="#000000">1/1 (1)</text>
</g>
<!-- 21&#45;&gt;1 -->
<g id="edge78" class="edge">
<title>21&#45;&gt;1</title>
<path fill="none" stroke="#000000" d="M161.7185,-1370.923C164.4261,-1366.9803 167.1106,-1362.6493 169.1915,-1358.3917 181.0432,-1334.1423 170.6905,-1321.7508 187.1915,-1300.3917 199.029,-1285.0689 212.591,-1292.8947 224.1915,-1277.3917 246.7099,-1247.2976 255.1428,-1203.8411 258.3009,-1175.6055"/>
<polygon fill="#000000" stroke="#000000" points="261.7906,-1175.8798 259.2713,-1165.5888 254.8232,-1175.2047 261.7906,-1175.8798"/>
<text text-anchor="middle" x="205.6915" y="-1304.1917" font-family="Times,serif" font-size="14.00" fill="#000000">0/1 (1)</text>
</g>
<!-- 22&#45;&gt;3 -->
<g id="edge80" class="edge">
<title>22&#45;&gt;3</title>
<path fill="none" stroke="#000000" d="M162.1771,-1094.2858C165.0143,-1090.0392 167.6451,-1085.2476 169.1915,-1080.3917 181.501,-1041.7364 158.1542,-378.7218 187.1915,-350.3917 198.9619,-338.9079 209.758,-342.5117 224.1915,-350.3917 235.921,-356.7955 244.3989,-368.8384 250.1696,-380.1202"/>
<polygon fill="#000000" stroke="#000000" points="247.0264,-381.662 254.3923,-389.2774 253.3831,-378.7307 247.0264,-381.662"/>
<text text-anchor="middle" x="205.6915" y="-354.1917" font-family="Times,serif" font-size="14.00" fill="#000000">0/1 (2)</text>
</g>
<!-- 22&#45;&gt;2 -->
<g id="edge79" class="edge">
<title>22&#45;&gt;2</title>
<path fill="none" stroke="#000000" d="M162.1789,-1124.497C165.0161,-1128.7436 167.6465,-1133.5353 169.1915,-1138.3917 181.7764,-1177.9501 165.1323,-1850.2258 187.1915,-1885.3917 197.0147,-1901.0516 208.0713,-1895.3435 224.1915,-1904.3917 228.0717,-1906.5697 232.1377,-1908.9529 236.0827,-1911.3212"/>
<polygon fill="#000000" stroke="#000000" points="234.5646,-1914.495 244.9238,-1916.7169 238.2112,-1908.5199 234.5646,-1914.495"/>
<text text-anchor="middle" x="205.6915" y="-1908.1917" font-family="Times,serif" font-size="14.00" fill="#000000">1/1 (1)</text>
</g>
<!-- 22&#45;&gt;1 -->
<g id="edge81" class="edge">
<title>22&#45;&gt;1</title>
<path fill="none" stroke="#000000" d="M169.159,-1112.169C184.4796,-1114.747 206.1774,-1119.2756 224.1915,-1126.3917 228.204,-1127.9768 232.3003,-1129.9626 236.2237,-1132.0767"/>
<polygon fill="#000000" stroke="#000000" points="234.5338,-1135.1425 244.9437,-1137.1136 238.0352,-1129.081 234.5338,-1135.1425"/>
<text text-anchor="middle" x="205.6915" y="-1130.1917" font-family="Times,serif" font-size="14.00" fill="#000000">0/1 (1)</text>
</g>
<!-- 23&#45;&gt;3 -->
<g id="edge83" class="edge">
<title>23&#45;&gt;3</title>
<path fill="none" stroke="#000000" d="M162.1874,-1428.289C165.0245,-1424.0424 167.6527,-1419.25 169.1915,-1414.3917 183.2182,-1370.1047 164.1863,-618.7507 187.1915,-578.3917 196.7801,-561.5699 212.8491,-571.0845 224.1915,-555.3917 237.9898,-536.3009 249.9194,-472.3641 255.9666,-434.7326"/>
<polygon fill="#000000" stroke="#000000" points="259.4913,-434.8473 257.5816,-424.426 252.5757,-433.7636 259.4913,-434.8473"/>
<text text-anchor="middle" x="205.6915" y="-582.1917" font-family="Times,serif" font-size="14.00" fill="#000000">0/1 (2)</text>
</g>
<!-- 23&#45;&gt;2 -->
<g id="edge82" class="edge">
<title>23&#45;&gt;2</title>
<path fill="none" stroke="#000000" d="M162.3656,-1458.2196C165.1254,-1462.2473 167.672,-1466.7781 169.1915,-1471.3917 180.353,-1505.2817 161.6103,-2088.5177 187.1915,-2113.3917 198.9813,-2124.8556 211.5119,-2123.8631 224.1915,-2113.3917 248.137,-2093.6163 256.3249,-2002.1585 258.9872,-1954.8767"/>
<polygon fill="#000000" stroke="#000000" points="262.493,-1954.8539 259.5136,-1944.6866 255.5023,-1954.4927 262.493,-1954.8539"/>
<text text-anchor="middle" x="205.6915" y="-2125.1917" font-family="Times,serif" font-size="14.00" fill="#000000">1/1 (1)</text>
</g>
<!-- 23&#45;&gt;1 -->
<g id="edge84" class="edge">
<title>23&#45;&gt;1</title>
<path fill="none" stroke="#000000" d="M161.709,-1427.729C164.4814,-1423.5633 167.1982,-1418.9498 169.1915,-1414.3917 183.0995,-1382.5875 166.9211,-1366.5706 187.1915,-1338.3917 198.4984,-1322.6733 213.0538,-1331.2305 224.1915,-1315.3917 239.857,-1293.1138 251.4907,-1217.1399 256.8739,-1175.4075"/>
<polygon fill="#000000" stroke="#000000" points="260.3641,-1175.7035 258.1361,-1165.3456 253.4185,-1174.8322 260.3641,-1175.7035"/>
<text text-anchor="middle" x="205.6915" y="-1342.1917" font-family="Times,serif" font-size="14.00" fill="#000000">0/1 (1)</text>
</g>
<!-- 24&#45;&gt;3 -->
<g id="edge86" class="edge">
<title>24&#45;&gt;3</title>
<path fill="none" stroke="#000000" d="M162.1933,-1652.2909C165.0303,-1648.0443 167.6571,-1643.2514 169.1915,-1638.3917 184.4495,-1590.0667 160.3559,-769.3796 187.1915,-726.3917 196.9806,-710.7105 213.6361,-722.5678 224.1915,-707.3917 239.595,-685.2451 253.4171,-505.4978 258.3104,-434.8015"/>
<polygon fill="#000000" stroke="#000000" points="261.829,-434.6474 259.0179,-424.4323 254.8452,-434.1708 261.829,-434.6474"/>
<text text-anchor="middle" x="205.6915" y="-730.1917" font-family="Times,serif" font-size="14.00" fill="#000000">0/1 (2)</text>
</g>
<!-- 24&#45;&gt;2 -->
<g id="edge85" class="edge">
<title>24&#45;&gt;2</title>
<path fill="none" stroke="#000000" d="M150.8718,-1686.9035C157.089,-1789.7343 185.8394,-2264.1218 187.1915,-2265.3917 199.1778,-2276.6499 211.9649,-2276.3886 224.1915,-2265.3917 247.1491,-2244.743 256.6001,-2032.4904 259.3094,-1954.7362"/>
<polygon fill="#000000" stroke="#000000" points="262.8091,-1954.8035 259.6477,-1944.6913 255.813,-1954.5678 262.8091,-1954.8035"/>
<text text-anchor="middle" x="205.6915" y="-2277.1917" font-family="Times,serif" font-size="14.00" fill="#000000">1/1 (1)</text>
</g>
<!-- 24&#45;&gt;1 -->
<g id="edge87" class="edge">
<title>24&#45;&gt;1</title>
<path fill="none" stroke="#000000" d="M162.0654,-1651.8731C164.8309,-1647.7046 167.4554,-1643.0538 169.1915,-1638.3917 192.3155,-1576.295 151.5553,-1546.2556 187.1915,-1490.3917 197.6048,-1474.0676 213.8517,-1483.7625 224.1915,-1467.3917 239.5965,-1443.0011 253.5628,-1249.92 258.3961,-1176.023"/>
<polygon fill="#000000" stroke="#000000" points="261.9158,-1175.8284 259.0672,-1165.6237 254.9303,-1175.3775 261.9158,-1175.8284"/>
<text text-anchor="middle" x="205.6915" y="-1494.1917" font-family="Times,serif" font-size="14.00" fill="#000000">0/1 (1)</text>
</g>
</g>
</svg>
