<?xml version="1.0" encoding="UTF-8" standalone="no"?>
<!DOCTYPE svg PUBLIC "-//W3C//DTD SVG 1.1//EN"
 "http://www.w3.org/Graphics/SVG/1.1/DTD/svg11.dtd">
<!-- Generated by graphviz version 2.40.1 (20161225.0304)
 -->
<!-- Title: %3 Pages: 1 -->
<svg width="236pt" height="370pt"
 viewBox="0.00 0.00 235.58 370.19" xmlns="http://www.w3.org/2000/svg" xmlns:xlink="http://www.w3.org/1999/xlink">
<g id="graph0" class="graph" transform="scale(1 1) rotate(0) translate(4 366.1926)">
<title>%3</title>
<polygon fill="#ffffff" stroke="transparent" points="-4,4 -4,-366.1926 231.5836,-366.1926 231.5836,4 -4,4"/>
<!-- Laurent -->
<g id="node1" class="node">
<title>Laurent</title>
<ellipse fill="none" stroke="#000000" cx="38.3466" cy="-46.7958" rx="38.1938" ry="38.1938"/>
<text text-anchor="middle" x="38.3466" y="-43.0958" font-family="Times,serif" font-size="14.00" fill="#000000">Laurent</text>
</g>
<!-- Karate (3) -->
<g id="node2" class="node">
<title>Karate (3)</title>
<ellipse fill="none" stroke="#000000" cx="173.6384" cy="-46.7958" rx="46.5926" ry="46.5926"/>
<text text-anchor="middle" x="173.6384" y="-43.0958" font-family="Times,serif" font-size="14.00" fill="#000000">Karate (3)</text>
</g>
<!-- Laurent&#45;&gt;Karate (3) -->
<g id="edge1" class="edge">
<title>Laurent&#45;&gt;Karate (3)</title>
<path fill="none" stroke="#ffa500" stroke-width="2" d="M76.7539,-46.7958C89.08,-46.7958 103.0099,-46.7958 116.3846,-46.7958"/>
<polygon fill="#ffa500" stroke="#ffa500" stroke-width="2" points="116.4683,-50.2959 126.4683,-46.7958 116.4683,-43.2959 116.4683,-50.2959"/>
<text text-anchor="middle" x="98.1932" y="-50.5958" font-family="Times,serif" font-size="14.00" fill="#000000">1</text>
</g>
<!-- Basil -->
<g id="node3" class="node">
<title>Basil</title>
<ellipse fill="none" stroke="#000000" cx="38.3466" cy="-151.7958" rx="28.6953" ry="28.6953"/>
<text text-anchor="middle" x="38.3466" y="-148.0958" font-family="Times,serif" font-size="14.00" fill="#000000">Basil</text>
</g>
<!-- Judo (1) -->
<g id="node4" class="node">
<title>Judo (1)</title>
<ellipse fill="none" stroke="#000000" cx="173.6384" cy="-151.7958" rx="40.0939" ry="40.0939"/>
<text text-anchor="middle" x="173.6384" y="-148.0958" font-family="Times,serif" font-size="14.00" fill="#000000">Judo (1)</text>
</g>
<!-- Basil&#45;&gt;Judo (1) -->
<g id="edge2" class="edge">
<title>Basil&#45;&gt;Judo (1)</title>
<path fill="none" stroke="#ffa500" stroke-width="2" d="M67.0385,-151.7958C83.2692,-151.7958 104.0384,-151.7958 122.9255,-151.7958"/>
<polygon fill="#ffa500" stroke="#ffa500" stroke-width="2" points="123.1839,-155.2959 133.1839,-151.7958 123.1838,-148.2959 123.1839,-155.2959"/>
<text text-anchor="middle" x="98.1932" y="-155.5958" font-family="Times,serif" font-size="14.00" fill="#000000">1</text>
</g>
<!-- Angele -->
<g id="node5" class="node">
<title>Angele</title>
<ellipse fill="none" stroke="#000000" cx="38.3466" cy="-325.7958" rx="36.2938" ry="36.2938"/>
<text text-anchor="middle" x="38.3466" y="-322.0958" font-family="Times,serif" font-size="14.00" fill="#000000">Angele</text>
</g>
<!-- Natation (2) -->
<g id="node6" class="node">
<title>Natation (2)</title>
<ellipse fill="none" stroke="#000000" cx="173.6384" cy="-294.7958" rx="53.8905" ry="53.8905"/>
<text text-anchor="middle" x="173.6384" y="-291.0958" font-family="Times,serif" font-size="14.00" fill="#000000">Natation (2)</text>
</g>
<!-- Angele&#45;&gt;Natation (2) -->
<g id="edge3" class="edge">
<title>Angele&#45;&gt;Natation (2)</title>
<path fill="none" stroke="#ff0000" stroke-width="3" d="M73.8929,-317.651C85.2597,-315.0464 98.2006,-312.0812 110.9089,-309.1693"/>
<polygon fill="#ff0000" stroke="#ff0000" stroke-width="3" points="112.0507,-312.4985 121.0163,-306.8534 110.4872,-305.6753 112.0507,-312.4985"/>
<text text-anchor="middle" x="98.1932" y="-315.5958" font-family="Times,serif" font-size="14.00" fill="#000000">4</text>
</g>
<!-- Florian -->
<g id="node7" class="node">
<title>Florian</title>
<ellipse fill="none" stroke="#000000" cx="38.3466" cy="-234.7958" rx="36.2938" ry="36.2938"/>
<text text-anchor="middle" x="38.3466" y="-231.0958" font-family="Times,serif" font-size="14.00" fill="#000000">Florian</text>
</g>
<!-- Florian&#45;&gt;Natation (2) -->
<g id="edge4" class="edge">
<title>Florian&#45;&gt;Natation (2)</title>
<path fill="none" stroke="#ffa500" stroke-width="2" d="M71.7895,-249.6273C84.7557,-255.3776 99.9971,-262.137 114.6828,-268.6499"/>
<polygon fill="#ffa500" stroke="#ffa500" stroke-width="2" points="113.6633,-272.0265 124.2237,-272.8811 116.5012,-265.6275 113.6633,-272.0265"/>
<text text-anchor="middle" x="98.1932" y="-264.5958" font-family="Times,serif" font-size="14.00" fill="#000000">1</text>
</g>
</g>
</svg>
