<?xml version="1.0" encoding="UTF-8" standalone="no"?>
<!DOCTYPE svg PUBLIC "-//W3C//DTD SVG 1.1//EN"
 "http://www.w3.org/Graphics/SVG/1.1/DTD/svg11.dtd">
<!-- Generated by graphviz version 2.43.20190912.0211 (20190912.0211)
 -->
<!-- Title: %3 Pages: 1 -->
<svg width="344pt" height="2403pt"
 viewBox="0.00 0.00 343.87 2403.19" xmlns="http://www.w3.org/2000/svg" xmlns:xlink="http://www.w3.org/1999/xlink">
<g id="graph0" class="graph" transform="scale(1 1) rotate(0) translate(4 2399.19)">
<title>%3</title>
<polygon fill="white" stroke="transparent" points="-4,4 -4,-2399.19 339.87,-2399.19 339.87,4 -4,4"/>
<!-- Bernard -->
<g id="node1" class="node">
<title>Bernard</title>
<ellipse fill="none" stroke="black" cx="61.74" cy="-276.1" rx="48.99" ry="48.99"/>
<text text-anchor="middle" x="61.74" y="-272.4" font-family="Times,serif" font-size="14.00">Bernard</text>
</g>
<!-- Gym (1) -->
<g id="node2" class="node">
<title>Gym (1)</title>
<ellipse fill="none" stroke="black" cx="252.68" cy="-162.1" rx="48.19" ry="48.19"/>
<text text-anchor="middle" x="252.68" y="-158.4" font-family="Times,serif" font-size="14.00">Gym (1)</text>
</g>
<!-- Bernard&#45;&gt;Gym (1) -->
<g id="edge1" class="edge">
<title>Bernard&#45;&gt;Gym (1)</title>
<path fill="none" stroke="black" d="M104.21,-251.08C133.08,-233.66 171.71,-210.35 202.19,-191.96"/>
<polygon fill="black" stroke="black" points="204.21,-194.83 210.96,-186.66 200.59,-188.83 204.21,-194.83"/>
<text text-anchor="middle" x="146.49" y="-229.9" font-family="Times,serif" font-size="14.00">3</text>
</g>
<!-- Laurent -->
<g id="node3" class="node">
<title>Laurent</title>
<ellipse fill="none" stroke="black" cx="61.74" cy="-162.1" rx="47.39" ry="47.39"/>
<text text-anchor="middle" x="61.74" y="-158.4" font-family="Times,serif" font-size="14.00">Laurent</text>
</g>
<!-- Laurent&#45;&gt;Gym (1) -->
<g id="edge2" class="edge">
<title>Laurent&#45;&gt;Gym (1)</title>
<path fill="none" stroke="black" d="M109.45,-162.1C135.13,-162.1 167.19,-162.1 194.38,-162.1"/>
<polygon fill="black" stroke="black" points="194.53,-165.6 204.53,-162.1 194.53,-158.6 194.53,-165.6"/>
<text text-anchor="middle" x="146.49" y="-165.9" font-family="Times,serif" font-size="14.00">3</text>
</g>
<!-- Gatwick -->
<g id="node4" class="node">
<title>Gatwick</title>
<ellipse fill="none" stroke="black" cx="61.74" cy="-48.1" rx="48.19" ry="48.19"/>
<text text-anchor="middle" x="61.74" y="-44.4" font-family="Times,serif" font-size="14.00">Gatwick</text>
</g>
<!-- Gatwick&#45;&gt;Gym (1) -->
<g id="edge3" class="edge">
<title>Gatwick&#45;&gt;Gym (1)</title>
<path fill="none" stroke="black" d="M103.28,-72.55C132.29,-90.06 171.51,-113.72 202.35,-132.33"/>
<polygon fill="black" stroke="black" points="200.85,-135.51 211.22,-137.68 204.46,-129.52 200.85,-135.51"/>
<text text-anchor="middle" x="146.49" y="-102.9" font-family="Times,serif" font-size="14.00">3</text>
</g>
<!-- Axel -->
<g id="node5" class="node">
<title>Axel</title>
<ellipse fill="none" stroke="black" cx="61.74" cy="-2239.1" rx="30.59" ry="30.59"/>
<text text-anchor="middle" x="61.74" y="-2235.4" font-family="Times,serif" font-size="14.00">Axel</text>
</g>
<!-- Basketball (10) -->
<g id="node6" class="node">
<title>Basketball (10)</title>
<ellipse fill="none" stroke="black" cx="252.68" cy="-2017.1" rx="81.49" ry="81.49"/>
<text text-anchor="middle" x="252.68" y="-2013.4" font-family="Times,serif" font-size="14.00">Basketball (10)</text>
</g>
<!-- Axel&#45;&gt;Basketball (10) -->
<g id="edge4" class="edge">
<title>Axel&#45;&gt;Basketball (10)</title>
<path fill="none" stroke="black" d="M89.17,-2225.19C100.47,-2218.5 113.37,-2209.82 123.49,-2200.1 155.08,-2169.75 183.75,-2130.57 205.92,-2096.25"/>
<polygon fill="black" stroke="black" points="208.99,-2097.95 211.42,-2087.64 203.09,-2094.18 208.99,-2097.95"/>
<text text-anchor="middle" x="146.49" y="-2182.9" font-family="Times,serif" font-size="14.00">1</text>
</g>
<!-- Mael -->
<g id="node7" class="node">
<title>Mael</title>
<ellipse fill="none" stroke="black" cx="61.74" cy="-2157.1" rx="33.6" ry="33.6"/>
<text text-anchor="middle" x="61.74" y="-2153.4" font-family="Times,serif" font-size="14.00">Mael</text>
</g>
<!-- Mael&#45;&gt;Basketball (10) -->
<g id="edge5" class="edge">
<title>Mael&#45;&gt;Basketball (10)</title>
<path fill="none" stroke="black" d="M89.79,-2138.23C100.36,-2130.78 112.54,-2122.11 123.49,-2114.1 141.75,-2100.73 161.3,-2086.1 179.5,-2072.35"/>
<polygon fill="black" stroke="black" points="181.89,-2074.92 187.75,-2066.1 177.67,-2069.34 181.89,-2074.92"/>
<text text-anchor="middle" x="146.49" y="-2102.9" font-family="Times,serif" font-size="14.00">1</text>
</g>
<!-- Martin -->
<g id="node8" class="node">
<title>Martin</title>
<ellipse fill="none" stroke="black" cx="61.74" cy="-2063.1" rx="42.49" ry="42.49"/>
<text text-anchor="middle" x="61.74" y="-2059.4" font-family="Times,serif" font-size="14.00">Martin</text>
</g>
<!-- Martin&#45;&gt;Basketball (10) -->
<g id="edge6" class="edge">
<title>Martin&#45;&gt;Basketball (10)</title>
<path fill="none" stroke="black" d="M103.28,-2053.23C120.97,-2048.92 142.45,-2043.69 163.52,-2038.56"/>
<polygon fill="black" stroke="black" points="164.59,-2041.9 173.48,-2036.13 162.94,-2035.1 164.59,-2041.9"/>
<text text-anchor="middle" x="146.49" y="-2046.9" font-family="Times,serif" font-size="14.00">1</text>
</g>
<!-- Aurelien -->
<g id="node9" class="node">
<title>Aurelien</title>
<ellipse fill="none" stroke="black" cx="61.74" cy="-1693.1" rx="50.09" ry="50.09"/>
<text text-anchor="middle" x="61.74" y="-1689.4" font-family="Times,serif" font-size="14.00">Aurelien</text>
</g>
<!-- Aurelien&#45;&gt;Basketball (10) -->
<g id="edge8" class="edge">
<title>Aurelien&#45;&gt;Basketball (10)</title>
<path fill="none" stroke="black" d="M99.23,-1726.34C107.51,-1734.48 116.05,-1743.36 123.49,-1752.1 137.56,-1768.62 142.91,-1772.16 151.49,-1792.1 167.26,-1828.77 155.01,-1842.89 169.49,-1880.1 177.6,-1900.94 188.76,-1922.25 200.24,-1941.66"/>
<polygon fill="black" stroke="black" points="197.37,-1943.68 205.53,-1950.44 203.36,-1940.07 197.37,-1943.68"/>
<text text-anchor="middle" x="146.49" y="-1795.9" font-family="Times,serif" font-size="14.00">1</text>
</g>
<!-- Volley (1) -->
<g id="node10" class="node">
<title>Volley (1)</title>
<ellipse fill="none" stroke="black" cx="252.68" cy="-1490.1" rx="53.89" ry="53.89"/>
<text text-anchor="middle" x="252.68" y="-1486.4" font-family="Times,serif" font-size="14.00">Volley (1)</text>
</g>
<!-- Aurelien&#45;&gt;Volley (1) -->
<g id="edge7" class="edge">
<title>Aurelien&#45;&gt;Volley (1)</title>
<path fill="none" stroke="black" d="M98.83,-1658.89C107.05,-1650.87 115.66,-1642.27 123.49,-1634.1 153.22,-1603.05 185.38,-1566.91 210.05,-1538.6"/>
<polygon fill="black" stroke="black" points="212.88,-1540.68 216.81,-1530.84 207.6,-1536.09 212.88,-1540.68"/>
<text text-anchor="middle" x="146.49" y="-1615.9" font-family="Times,serif" font-size="14.00">2</text>
</g>
<!-- Clotilde -->
<g id="node11" class="node">
<title>Clotilde</title>
<ellipse fill="none" stroke="black" cx="61.74" cy="-2334.1" rx="46.59" ry="46.59"/>
<text text-anchor="middle" x="61.74" y="-2330.4" font-family="Times,serif" font-size="14.00">Clotilde</text>
</g>
<!-- Dance (10) -->
<g id="node12" class="node">
<title>Dance (10)</title>
<ellipse fill="none" stroke="black" cx="252.68" cy="-2334.1" rx="61.19" ry="61.19"/>
<text text-anchor="middle" x="252.68" y="-2330.4" font-family="Times,serif" font-size="14.00">Dance (10)</text>
</g>
<!-- Clotilde&#45;&gt;Dance (10) -->
<g id="edge9" class="edge">
<title>Clotilde&#45;&gt;Dance (10)</title>
<path fill="none" stroke="black" d="M108.96,-2334.1C130.66,-2334.1 157,-2334.1 181.12,-2334.1"/>
<polygon fill="black" stroke="black" points="181.3,-2337.6 191.3,-2334.1 181.3,-2330.6 181.3,-2337.6"/>
<text text-anchor="middle" x="146.49" y="-2337.9" font-family="Times,serif" font-size="14.00">1</text>
</g>
<!-- Floriane -->
<g id="node13" class="node">
<title>Floriane</title>
<ellipse fill="none" stroke="black" cx="61.74" cy="-936.1" rx="49.29" ry="49.29"/>
<text text-anchor="middle" x="61.74" y="-932.4" font-family="Times,serif" font-size="14.00">Floriane</text>
</g>
<!-- Natation (2) -->
<g id="node14" class="node">
<title>Natation (2)</title>
<ellipse fill="none" stroke="black" cx="252.68" cy="-1147.1" rx="66.89" ry="66.89"/>
<text text-anchor="middle" x="252.68" y="-1143.4" font-family="Times,serif" font-size="14.00">Natation (2)</text>
</g>
<!-- Floriane&#45;&gt;Natation (2) -->
<g id="edge10" class="edge">
<title>Floriane&#45;&gt;Natation (2)</title>
<path fill="none" stroke="black" d="M97.84,-970.02C106.27,-978.2 115.22,-986.94 123.49,-995.1 136.02,-1007.45 141.96,-1008.3 151.49,-1023.1 163.82,-1042.25 156.78,-1052.18 169.49,-1071.1 176.01,-1080.8 184,-1090.14 192.42,-1098.75"/>
<polygon fill="black" stroke="black" points="189.99,-1101.27 199.57,-1105.8 194.91,-1096.29 189.99,-1101.27"/>
<text text-anchor="middle" x="146.49" y="-1026.9" font-family="Times,serif" font-size="14.00">0</text>
</g>
<!-- Karate (3) -->
<g id="node15" class="node">
<title>Karate (3)</title>
<ellipse fill="none" stroke="black" cx="252.68" cy="-656.1" rx="57.69" ry="57.69"/>
<text text-anchor="middle" x="252.68" y="-652.4" font-family="Times,serif" font-size="14.00">Karate (3)</text>
</g>
<!-- Floriane&#45;&gt;Karate (3) -->
<g id="edge11" class="edge">
<title>Floriane&#45;&gt;Karate (3)</title>
<path fill="none" stroke="black" d="M110.77,-927.5C126.08,-922.37 141.59,-914.17 151.49,-901.1 199.48,-837.7 131.8,-793.11 169.49,-723.1 175.75,-711.47 184.95,-701.1 194.96,-692.19"/>
<polygon fill="black" stroke="black" points="197.32,-694.78 202.73,-685.67 192.82,-689.42 197.32,-694.78"/>
<text text-anchor="middle" x="146.49" y="-914.9" font-family="Times,serif" font-size="14.00">4</text>
</g>
<!-- Skateboard (1) -->
<g id="node16" class="node">
<title>Skateboard (1)</title>
<ellipse fill="none" stroke="black" cx="252.68" cy="-983.1" rx="79.09" ry="79.09"/>
<text text-anchor="middle" x="252.68" y="-979.4" font-family="Times,serif" font-size="14.00">Skateboard (1)</text>
</g>
<!-- Floriane&#45;&gt;Skateboard (1) -->
<g id="edge12" class="edge">
<title>Floriane&#45;&gt;Skateboard (1)</title>
<path fill="none" stroke="black" d="M109.93,-947.83C126.78,-952.03 146.33,-956.89 165.43,-961.64"/>
<polygon fill="black" stroke="black" points="164.81,-965.09 175.36,-964.11 166.5,-958.3 164.81,-965.09"/>
<text text-anchor="middle" x="146.49" y="-960.9" font-family="Times,serif" font-size="14.00">0</text>
</g>
<!-- Basil -->
<g id="node17" class="node">
<title>Basil</title>
<ellipse fill="none" stroke="black" cx="61.74" cy="-835.1" rx="33.6" ry="33.6"/>
<text text-anchor="middle" x="61.74" y="-831.4" font-family="Times,serif" font-size="14.00">Basil</text>
</g>
<!-- Basil&#45;&gt;Natation (2) -->
<g id="edge14" class="edge">
<title>Basil&#45;&gt;Natation (2)</title>
<path fill="none" stroke="black" d="M94.71,-843.56C114.44,-850.53 138.41,-862.53 151.49,-882.1 198.39,-952.24 132.05,-995.48 169.49,-1071.1 174.81,-1081.85 182.34,-1091.83 190.71,-1100.79"/>
<polygon fill="black" stroke="black" points="188.39,-1103.42 197.91,-1108.07 193.37,-1098.5 188.39,-1103.42"/>
<text text-anchor="middle" x="146.49" y="-885.9" font-family="Times,serif" font-size="14.00">0</text>
</g>
<!-- Basil&#45;&gt;Karate (3) -->
<g id="edge13" class="edge">
<title>Basil&#45;&gt;Karate (3)</title>
<path fill="none" stroke="black" d="M93.35,-822.04C112.52,-812.44 136.37,-797.65 151.49,-778.1 167.22,-757.75 154.93,-744.3 169.49,-723.1 176.72,-712.56 186.08,-702.81 195.88,-694.19"/>
<polygon fill="black" stroke="black" points="198.39,-696.65 203.79,-687.53 193.89,-691.29 198.39,-696.65"/>
<text text-anchor="middle" x="146.49" y="-792.9" font-family="Times,serif" font-size="14.00">4</text>
</g>
<!-- Alexis -->
<g id="node18" class="node">
<title>Alexis</title>
<ellipse fill="none" stroke="black" cx="61.74" cy="-719.1" rx="38.19" ry="38.19"/>
<text text-anchor="middle" x="61.74" y="-715.4" font-family="Times,serif" font-size="14.00">Alexis</text>
</g>
<!-- Alexis&#45;&gt;Karate (3) -->
<g id="edge15" class="edge">
<title>Alexis&#45;&gt;Karate (3)</title>
<path fill="none" stroke="black" d="M98.28,-707.25C123.46,-698.85 157.93,-687.36 187.82,-677.39"/>
<polygon fill="black" stroke="black" points="188.96,-680.7 197.34,-674.21 186.75,-674.06 188.96,-680.7"/>
<text text-anchor="middle" x="146.49" y="-695.9" font-family="Times,serif" font-size="14.00">4</text>
</g>
<!-- Athletisme (1) -->
<g id="node19" class="node">
<title>Athletisme (1)</title>
<ellipse fill="none" stroke="black" cx="252.68" cy="-809.1" rx="76.89" ry="76.89"/>
<text text-anchor="middle" x="252.68" y="-805.4" font-family="Times,serif" font-size="14.00">Athletisme (1)</text>
</g>
<!-- Alexis&#45;&gt;Athletisme (1) -->
<g id="edge16" class="edge">
<title>Alexis&#45;&gt;Athletisme (1)</title>
<path fill="none" stroke="black" d="M96.96,-735.39C118.36,-745.59 146.85,-759.16 173.54,-771.87"/>
<polygon fill="black" stroke="black" points="172.36,-775.19 182.89,-776.33 175.37,-768.87 172.36,-775.19"/>
<text text-anchor="middle" x="146.49" y="-762.9" font-family="Times,serif" font-size="14.00">0</text>
</g>
<!-- Angele -->
<g id="node20" class="node">
<title>Angele</title>
<ellipse fill="none" stroke="black" cx="61.74" cy="-1267.1" rx="42.49" ry="42.49"/>
<text text-anchor="middle" x="61.74" y="-1263.4" font-family="Times,serif" font-size="14.00">Angele</text>
</g>
<!-- Angele&#45;&gt;Natation (2) -->
<g id="edge17" class="edge">
<title>Angele&#45;&gt;Natation (2)</title>
<path fill="none" stroke="black" d="M104.26,-1264.42C119.79,-1262.09 137.13,-1257.83 151.49,-1250.1 171.2,-1239.47 189.41,-1223.64 204.74,-1207.55"/>
<polygon fill="black" stroke="black" points="207.35,-1209.88 211.58,-1200.16 202.22,-1205.13 207.35,-1209.88"/>
<text text-anchor="middle" x="146.49" y="-1258.9" font-family="Times,serif" font-size="14.00">0</text>
</g>
<!-- Florian -->
<g id="node21" class="node">
<title>Florian</title>
<ellipse fill="none" stroke="black" cx="61.74" cy="-1048.1" rx="44.39" ry="44.39"/>
<text text-anchor="middle" x="61.74" y="-1044.4" font-family="Times,serif" font-size="14.00">Florian</text>
</g>
<!-- Florian&#45;&gt;Natation (2) -->
<g id="edge18" class="edge">
<title>Florian&#45;&gt;Natation (2)</title>
<path fill="none" stroke="black" d="M104.88,-1038.27C120.31,-1036.77 137.42,-1037.73 151.49,-1045.1 163.94,-1051.62 160.27,-1060.48 169.49,-1071.1 176.98,-1079.72 185.36,-1088.39 193.84,-1096.63"/>
<polygon fill="black" stroke="black" points="191.64,-1099.37 201.28,-1103.75 196.47,-1094.31 191.64,-1099.37"/>
<text text-anchor="middle" x="146.49" y="-1048.9" font-family="Times,serif" font-size="14.00">0</text>
</g>
<!-- Caroline -->
<g id="node22" class="node">
<title>Caroline</title>
<ellipse fill="none" stroke="black" cx="61.74" cy="-1811.1" rx="50.09" ry="50.09"/>
<text text-anchor="middle" x="61.74" y="-1807.4" font-family="Times,serif" font-size="14.00">Caroline</text>
</g>
<!-- Caroline&#45;&gt;Basketball (10) -->
<g id="edge19" class="edge">
<title>Caroline&#45;&gt;Basketball (10)</title>
<path fill="none" stroke="black" d="M106.98,-1832.87C122.13,-1841.6 138.51,-1852.58 151.49,-1865.1 173.06,-1885.9 192.4,-1912.15 208.2,-1936.95"/>
<polygon fill="black" stroke="black" points="205.37,-1939.02 213.63,-1945.65 211.3,-1935.31 205.37,-1939.02"/>
<text text-anchor="middle" x="146.49" y="-1868.9" font-family="Times,serif" font-size="14.00">0</text>
</g>
<!-- Cricket (1) -->
<g id="node23" class="node">
<title>Cricket (1)</title>
<ellipse fill="none" stroke="black" cx="252.68" cy="-1811.1" rx="59.59" ry="59.59"/>
<text text-anchor="middle" x="252.68" y="-1807.4" font-family="Times,serif" font-size="14.00">Cricket (1)</text>
</g>
<!-- Caroline&#45;&gt;Cricket (1) -->
<g id="edge20" class="edge">
<title>Caroline&#45;&gt;Cricket (1)</title>
<path fill="none" stroke="black" d="M111.89,-1811.1C133.42,-1811.1 159.06,-1811.1 182.46,-1811.1"/>
<polygon fill="black" stroke="black" points="182.69,-1814.6 192.69,-1811.1 182.69,-1807.6 182.69,-1814.6"/>
<text text-anchor="middle" x="146.49" y="-1814.9" font-family="Times,serif" font-size="14.00">0</text>
</g>
<!-- Anasthasia -->
<g id="node24" class="node">
<title>Anasthasia</title>
<ellipse fill="none" stroke="black" cx="61.74" cy="-1941.1" rx="61.99" ry="61.99"/>
<text text-anchor="middle" x="61.74" y="-1937.4" font-family="Times,serif" font-size="14.00">Anasthasia</text>
</g>
<!-- Anasthasia&#45;&gt;Basketball (10) -->
<g id="edge21" class="edge">
<title>Anasthasia&#45;&gt;Basketball (10)</title>
<path fill="none" stroke="black" d="M119.18,-1963.8C134.36,-1969.9 151.11,-1976.64 167.45,-1983.21"/>
<polygon fill="black" stroke="black" points="166.42,-1986.57 177.01,-1987.06 169.03,-1980.08 166.42,-1986.57"/>
<text text-anchor="middle" x="146.49" y="-1978.9" font-family="Times,serif" font-size="14.00">0</text>
</g>
<!-- Anasthasia&#45;&gt;Cricket (1) -->
<g id="edge22" class="edge">
<title>Anasthasia&#45;&gt;Cricket (1)</title>
<path fill="none" stroke="black" d="M113.38,-1906.26C138.32,-1889.09 168.5,-1868.33 194.3,-1850.58"/>
<polygon fill="black" stroke="black" points="196.61,-1853.23 202.87,-1844.68 192.65,-1847.47 196.61,-1853.23"/>
<text text-anchor="middle" x="146.49" y="-1887.9" font-family="Times,serif" font-size="14.00">0</text>
</g>
<!-- Charlie -->
<g id="node25" class="node">
<title>Charlie</title>
<ellipse fill="none" stroke="black" cx="61.74" cy="-1158.1" rx="44.39" ry="44.39"/>
<text text-anchor="middle" x="61.74" y="-1154.4" font-family="Times,serif" font-size="14.00">Charlie</text>
</g>
<!-- Charlie&#45;&gt;Volley (1) -->
<g id="edge23" class="edge">
<title>Charlie&#45;&gt;Volley (1)</title>
<path fill="none" stroke="black" d="M105.1,-1168.71C121.48,-1174.68 139.19,-1183.71 151.49,-1197.1 182.86,-1231.24 217.45,-1352.41 236.67,-1427.82"/>
<polygon fill="black" stroke="black" points="233.32,-1428.85 239.17,-1437.69 240.11,-1427.13 233.32,-1428.85"/>
<text text-anchor="middle" x="146.49" y="-1200.9" font-family="Times,serif" font-size="14.00">2</text>
</g>
<!-- Charlie&#45;&gt;Natation (2) -->
<g id="edge25" class="edge">
<title>Charlie&#45;&gt;Natation (2)</title>
<path fill="none" stroke="black" d="M106.09,-1155.57C126.68,-1154.37 151.91,-1152.9 175.55,-1151.53"/>
<polygon fill="black" stroke="black" points="175.78,-1155.02 185.56,-1150.95 175.37,-1148.03 175.78,-1155.02"/>
<text text-anchor="middle" x="146.49" y="-1157.9" font-family="Times,serif" font-size="14.00">2</text>
</g>
<!-- Charlie&#45;&gt;Cricket (1) -->
<g id="edge24" class="edge">
<title>Charlie&#45;&gt;Cricket (1)</title>
<path fill="none" stroke="black" d="M100.73,-1179.01C119.47,-1191.5 140.39,-1209.21 151.49,-1231.1 183.89,-1295.02 156.51,-1482.61 169.49,-1553.1 181.89,-1620.42 206.77,-1694.63 225.93,-1746.11"/>
<polygon fill="black" stroke="black" points="222.77,-1747.64 229.56,-1755.77 229.32,-1745.18 222.77,-1747.64"/>
<text text-anchor="middle" x="146.49" y="-1234.9" font-family="Times,serif" font-size="14.00">2</text>
</g>
<!-- Football (3) -->
<g id="node26" class="node">
<title>Football (3)</title>
<ellipse fill="none" stroke="black" cx="252.68" cy="-332.1" rx="63.89" ry="63.89"/>
<text text-anchor="middle" x="252.68" y="-328.4" font-family="Times,serif" font-size="14.00">Football (3)</text>
</g>
<!-- Charlie&#45;&gt;Football (3) -->
<g id="edge26" class="edge">
<title>Charlie&#45;&gt;Football (3)</title>
<path fill="none" stroke="black" d="M95.88,-1129.45C105.22,-1120.74 115.12,-1110.87 123.49,-1101.1 130.67,-1092.72 148.09,-1070.59 151.49,-1060.1 173.93,-990.84 138.74,-471.09 169.49,-405.1 174.83,-393.63 182.92,-383.21 191.97,-374.06"/>
<polygon fill="black" stroke="black" points="194.56,-376.42 199.4,-367 189.74,-371.35 194.56,-376.42"/>
<text text-anchor="middle" x="146.49" y="-1081.9" font-family="Times,serif" font-size="14.00">0</text>
</g>
<!-- Badminton (20) -->
<g id="node27" class="node">
<title>Badminton (20)</title>
<ellipse fill="none" stroke="black" cx="252.68" cy="-497.1" rx="83.39" ry="83.39"/>
<text text-anchor="middle" x="252.68" y="-493.4" font-family="Times,serif" font-size="14.00">Badminton (20)</text>
</g>
<!-- Charlie&#45;&gt;Badminton (20) -->
<g id="edge27" class="edge">
<title>Charlie&#45;&gt;Badminton (20)</title>
<path fill="none" stroke="black" d="M103.04,-1141.32C121.17,-1131.54 140.86,-1117.29 151.49,-1098.1 178.91,-1048.59 148.38,-641.6 169.49,-589.1 173.36,-579.46 178.72,-570.17 184.86,-561.44"/>
<polygon fill="black" stroke="black" points="187.79,-563.37 190.96,-553.26 182.18,-559.18 187.79,-563.37"/>
<text text-anchor="middle" x="146.49" y="-1115.9" font-family="Times,serif" font-size="14.00">0</text>
</g>
<!-- Bertrand -->
<g id="node28" class="node">
<title>Bertrand</title>
<ellipse fill="none" stroke="black" cx="61.74" cy="-537.1" rx="52.79" ry="52.79"/>
<text text-anchor="middle" x="61.74" y="-533.4" font-family="Times,serif" font-size="14.00">Bertrand</text>
</g>
<!-- Bertrand&#45;&gt;Karate (3) -->
<g id="edge28" class="edge">
<title>Bertrand&#45;&gt;Karate (3)</title>
<path fill="none" stroke="black" d="M107.04,-565C133.24,-581.49 166.68,-602.56 194.81,-620.28"/>
<polygon fill="black" stroke="black" points="193.03,-623.29 203.35,-625.66 196.76,-617.37 193.03,-623.29"/>
<text text-anchor="middle" x="146.49" y="-593.9" font-family="Times,serif" font-size="14.00">4</text>
</g>
<!-- Bertrand&#45;&gt;Football (3) -->
<g id="edge29" class="edge">
<title>Bertrand&#45;&gt;Football (3)</title>
<path fill="none" stroke="black" d="M109.56,-514.38C124.95,-504.82 140.83,-492.33 151.49,-477.1 170.4,-450.07 152.4,-433.31 169.49,-405.1 175.89,-394.53 184.3,-384.65 193.31,-375.77"/>
<polygon fill="black" stroke="black" points="195.75,-378.28 200.63,-368.87 190.95,-373.19 195.75,-378.28"/>
<text text-anchor="middle" x="146.49" y="-492.9" font-family="Times,serif" font-size="14.00">0</text>
</g>
<!-- Bertrand&#45;&gt;Badminton (20) -->
<g id="edge30" class="edge">
<title>Bertrand&#45;&gt;Badminton (20)</title>
<path fill="none" stroke="black" d="M113.38,-526.38C128.04,-523.27 144.52,-519.78 160.85,-516.33"/>
<polygon fill="black" stroke="black" points="161.92,-519.68 170.98,-514.18 160.47,-512.83 161.92,-519.68"/>
<text text-anchor="middle" x="146.49" y="-523.9" font-family="Times,serif" font-size="14.00">0</text>
</g>
<!-- Dupont -->
<g id="node29" class="node">
<title>Dupont</title>
<ellipse fill="none" stroke="black" cx="61.74" cy="-422.1" rx="44.69" ry="44.69"/>
<text text-anchor="middle" x="61.74" y="-418.4" font-family="Times,serif" font-size="14.00">Dupont</text>
</g>
<!-- Dupont&#45;&gt;Karate (3) -->
<g id="edge31" class="edge">
<title>Dupont&#45;&gt;Karate (3)</title>
<path fill="none" stroke="black" d="M105.92,-429.92C122.62,-435.14 140.36,-443.79 151.49,-458.1 187.57,-504.49 140.71,-537.85 169.49,-589.1 175.95,-600.61 185.25,-610.93 195.28,-619.82"/>
<polygon fill="black" stroke="black" points="193.14,-622.6 203.06,-626.34 197.64,-617.23 193.14,-622.6"/>
<text text-anchor="middle" x="146.49" y="-461.9" font-family="Times,serif" font-size="14.00">4</text>
</g>
<!-- Dupont&#45;&gt;Football (3) -->
<g id="edge32" class="edge">
<title>Dupont&#45;&gt;Football (3)</title>
<path fill="none" stroke="black" d="M102.81,-403.01C126.85,-391.56 158.02,-376.71 185.62,-363.56"/>
<polygon fill="black" stroke="black" points="187.3,-366.64 194.83,-359.18 184.29,-360.32 187.3,-366.64"/>
<text text-anchor="middle" x="146.49" y="-386.9" font-family="Times,serif" font-size="14.00">0</text>
</g>
<!-- Dupont&#45;&gt;Badminton (20) -->
<g id="edge33" class="edge">
<title>Dupont&#45;&gt;Badminton (20)</title>
<path fill="none" stroke="black" d="M106.53,-417.91C121.16,-417.86 137.33,-419.31 151.49,-424.1 161.38,-427.44 171.11,-432.14 180.4,-437.55"/>
<polygon fill="black" stroke="black" points="178.81,-440.68 189.16,-442.95 182.48,-434.72 178.81,-440.68"/>
<text text-anchor="middle" x="146.49" y="-427.9" font-family="Times,serif" font-size="14.00">0</text>
</g>
<!-- Carole -->
<g id="node30" class="node">
<title>Carole</title>
<ellipse fill="none" stroke="black" cx="61.74" cy="-1490.1" rx="40.89" ry="40.89"/>
<text text-anchor="middle" x="61.74" y="-1486.4" font-family="Times,serif" font-size="14.00">Carole</text>
</g>
<!-- Carole&#45;&gt;Volley (1) -->
<g id="edge34" class="edge">
<title>Carole&#45;&gt;Volley (1)</title>
<path fill="none" stroke="black" d="M102.81,-1490.1C127.61,-1490.1 159.98,-1490.1 188.21,-1490.1"/>
<polygon fill="black" stroke="black" points="188.4,-1493.6 198.4,-1490.1 188.4,-1486.6 188.4,-1493.6"/>
<text text-anchor="middle" x="146.49" y="-1493.9" font-family="Times,serif" font-size="14.00">2</text>
</g>
<!-- Maxence -->
<g id="node31" class="node">
<title>Maxence</title>
<ellipse fill="none" stroke="black" cx="61.74" cy="-1379.1" rx="51.99" ry="51.99"/>
<text text-anchor="middle" x="61.74" y="-1375.4" font-family="Times,serif" font-size="14.00">Maxence</text>
</g>
<!-- Maxence&#45;&gt;Volley (1) -->
<g id="edge35" class="edge">
<title>Maxence&#45;&gt;Volley (1)</title>
<path fill="none" stroke="black" d="M107.04,-1405.12C133.93,-1420.92 168.45,-1441.2 197.03,-1457.99"/>
<polygon fill="black" stroke="black" points="195.29,-1461.03 205.69,-1463.08 198.84,-1454.99 195.29,-1461.03"/>
<text text-anchor="middle" x="146.49" y="-1431.9" font-family="Times,serif" font-size="14.00">2</text>
</g>
<!-- Kilian -->
<g id="node32" class="node">
<title>Kilian</title>
<ellipse fill="none" stroke="black" cx="61.74" cy="-1587.1" rx="37.89" ry="37.89"/>
<text text-anchor="middle" x="61.74" y="-1583.4" font-family="Times,serif" font-size="14.00">Kilian</text>
</g>
<!-- Kilian&#45;&gt;Volley (1) -->
<g id="edge36" class="edge">
<title>Kilian&#45;&gt;Volley (1)</title>
<path fill="none" stroke="black" d="M95.65,-1570.2C123.1,-1556.11 162.82,-1535.71 195.32,-1519.03"/>
<polygon fill="black" stroke="black" points="196.98,-1522.11 204.28,-1514.43 193.78,-1515.89 196.98,-1522.11"/>
<text text-anchor="middle" x="146.49" y="-1548.9" font-family="Times,serif" font-size="14.00">2</text>
</g>
</g>
</svg>
