<?xml version="1.0" encoding="UTF-8" standalone="no"?>
<!DOCTYPE svg PUBLIC "-//W3C//DTD SVG 1.1//EN"
 "http://www.w3.org/Graphics/SVG/1.1/DTD/svg11.dtd">
<!-- Generated by graphviz version 2.43.20190912.0211 (20190912.0211)
 -->
<!-- Title: %3 Pages: 1 -->
<svg width="340pt" height="2035pt"
 viewBox="0.00 0.00 339.97 2035.49" xmlns="http://www.w3.org/2000/svg" xmlns:xlink="http://www.w3.org/1999/xlink">
<g id="graph0" class="graph" transform="scale(1 1) rotate(0) translate(4 2031.49)">
<title>%3</title>
<polygon fill="white" stroke="transparent" points="-4,4 -4,-2031.49 335.97,-2031.49 335.97,4 -4,4"/>
<!-- Floriane -->
<g id="node1" class="node">
<title>Floriane</title>
<ellipse fill="none" stroke="black" cx="61.74" cy="-343.8" rx="49.29" ry="49.29"/>
<text text-anchor="middle" x="61.74" y="-340.1" font-family="Times,serif" font-size="14.00">Floriane</text>
</g>
<!-- Karate (3) -->
<g id="node2" class="node">
<title>Karate (3)</title>
<ellipse fill="none" stroke="black" cx="250.73" cy="-489.8" rx="57.69" ry="57.69"/>
<text text-anchor="middle" x="250.73" y="-486.1" font-family="Times,serif" font-size="14.00">Karate (3)</text>
</g>
<!-- Floriane&#45;&gt;Karate (3) -->
<g id="edge1" class="edge">
<title>Floriane&#45;&gt;Karate (3)</title>
<path fill="none" stroke="red" stroke-width="3" d="M101.49,-374.05C128.98,-395.52 166.23,-424.6 196.51,-448.24"/>
<polygon fill="red" stroke="red" stroke-width="3" points="194.42,-451.05 204.45,-454.44 198.72,-445.53 194.42,-451.05"/>
<text text-anchor="middle" x="146.49" y="-416.6" font-family="Times,serif" font-size="14.00">4</text>
</g>
<!-- Skateboard (1) -->
<g id="node3" class="node">
<title>Skateboard (1)</title>
<ellipse fill="none" stroke="black" cx="250.73" cy="-334.8" rx="79.09" ry="79.09"/>
<text text-anchor="middle" x="250.73" y="-331.1" font-family="Times,serif" font-size="14.00">Skateboard (1)</text>
</g>
<!-- Floriane&#45;&gt;Skateboard (1) -->
<g id="edge2" class="edge">
<title>Floriane&#45;&gt;Skateboard (1)</title>
<path fill="none" stroke="green" d="M111.39,-341.46C126.67,-340.72 144.06,-339.88 161.22,-339.06"/>
<polygon fill="green" stroke="green" points="161.46,-342.55 171.28,-338.57 161.12,-335.56 161.46,-342.55"/>
<text text-anchor="middle" x="146.49" y="-344.6" font-family="Times,serif" font-size="14.00">0</text>
</g>
<!-- Natation (2) -->
<g id="node4" class="node">
<title>Natation (2)</title>
<ellipse fill="none" stroke="black" cx="250.73" cy="-162.8" rx="66.89" ry="66.89"/>
<text text-anchor="middle" x="250.73" y="-159.1" font-family="Times,serif" font-size="14.00">Natation (2)</text>
</g>
<!-- Floriane&#45;&gt;Natation (2) -->
<g id="edge3" class="edge">
<title>Floriane&#45;&gt;Natation (2)</title>
<path fill="none" stroke="green" d="M97.92,-309.75C125.14,-283.4 163.36,-246.41 194.63,-216.13"/>
<polygon fill="green" stroke="green" points="197.26,-218.46 202.01,-208.99 192.39,-213.43 197.26,-218.46"/>
<text text-anchor="middle" x="146.49" y="-268.6" font-family="Times,serif" font-size="14.00">0</text>
</g>
<!-- Florian -->
<g id="node5" class="node">
<title>Florian</title>
<ellipse fill="none" stroke="black" cx="61.74" cy="-231.8" rx="44.39" ry="44.39"/>
<text text-anchor="middle" x="61.74" y="-228.1" font-family="Times,serif" font-size="14.00">Florian</text>
</g>
<!-- Florian&#45;&gt;Natation (2) -->
<g id="edge4" class="edge">
<title>Florian&#45;&gt;Natation (2)</title>
<path fill="none" stroke="green" d="M103.78,-216.65C125.51,-208.63 152.84,-198.55 177.96,-189.28"/>
<polygon fill="green" stroke="green" points="179.29,-192.52 187.46,-185.78 176.86,-185.96 179.29,-192.52"/>
<text text-anchor="middle" x="146.49" y="-205.6" font-family="Times,serif" font-size="14.00">0</text>
</g>
<!-- Bernard -->
<g id="node6" class="node">
<title>Bernard</title>
<ellipse fill="none" stroke="black" cx="61.74" cy="-613.8" rx="48.99" ry="48.99"/>
<text text-anchor="middle" x="61.74" y="-610.1" font-family="Times,serif" font-size="14.00">Bernard</text>
</g>
<!-- Gym (1) -->
<g id="node7" class="node">
<title>Gym (1)</title>
<ellipse fill="none" stroke="black" cx="250.73" cy="-613.8" rx="48.19" ry="48.19"/>
<text text-anchor="middle" x="250.73" y="-610.1" font-family="Times,serif" font-size="14.00">Gym (1)</text>
</g>
<!-- Bernard&#45;&gt;Gym (1) -->
<g id="edge5" class="edge">
<title>Bernard&#45;&gt;Gym (1)</title>
<path fill="none" stroke="red" stroke-width="3" d="M110.9,-613.8C135.74,-613.8 166.21,-613.8 192.27,-613.8"/>
<polygon fill="red" stroke="red" stroke-width="3" points="192.39,-617.3 202.39,-613.8 192.39,-610.3 192.39,-617.3"/>
<text text-anchor="middle" x="146.49" y="-617.6" font-family="Times,serif" font-size="14.00">3</text>
</g>
<!-- Carole -->
<g id="node8" class="node">
<title>Carole</title>
<ellipse fill="none" stroke="black" cx="61.74" cy="-733.8" rx="40.89" ry="40.89"/>
<text text-anchor="middle" x="61.74" y="-730.1" font-family="Times,serif" font-size="14.00">Carole</text>
</g>
<!-- Volley (1) -->
<g id="node9" class="node">
<title>Volley (1)</title>
<ellipse fill="none" stroke="black" cx="250.73" cy="-733.8" rx="53.89" ry="53.89"/>
<text text-anchor="middle" x="250.73" y="-730.1" font-family="Times,serif" font-size="14.00">Volley (1)</text>
</g>
<!-- Carole&#45;&gt;Volley (1) -->
<g id="edge6" class="edge">
<title>Carole&#45;&gt;Volley (1)</title>
<path fill="none" stroke="orange" stroke-width="2" d="M102.86,-733.8C127.12,-733.8 158.6,-733.8 186.19,-733.8"/>
<polygon fill="orange" stroke="orange" stroke-width="2" points="186.55,-737.3 196.55,-733.8 186.55,-730.3 186.55,-737.3"/>
<text text-anchor="middle" x="146.49" y="-737.6" font-family="Times,serif" font-size="14.00">2</text>
</g>
<!-- Clotilde -->
<g id="node10" class="node">
<title>Clotilde</title>
<ellipse fill="none" stroke="black" cx="61.74" cy="-866.8" rx="46.59" ry="46.59"/>
<text text-anchor="middle" x="61.74" y="-863.1" font-family="Times,serif" font-size="14.00">Clotilde</text>
</g>
<!-- Dance (10) -->
<g id="node11" class="node">
<title>Dance (10)</title>
<ellipse fill="none" stroke="black" cx="250.73" cy="-866.8" rx="61.19" ry="61.19"/>
<text text-anchor="middle" x="250.73" y="-863.1" font-family="Times,serif" font-size="14.00">Dance (10)</text>
</g>
<!-- Clotilde&#45;&gt;Dance (10) -->
<g id="edge7" class="edge">
<title>Clotilde&#45;&gt;Dance (10)</title>
<path fill="none" stroke="orange" stroke-width="2" d="M108.97,-866.8C130.16,-866.8 155.76,-866.8 179.28,-866.8"/>
<polygon fill="orange" stroke="orange" stroke-width="2" points="179.56,-870.3 189.56,-866.8 179.56,-863.3 179.56,-870.3"/>
<text text-anchor="middle" x="146.49" y="-870.6" font-family="Times,serif" font-size="14.00">1</text>
</g>
<!-- Aurelien -->
<g id="node12" class="node">
<title>Aurelien</title>
<ellipse fill="none" stroke="black" cx="61.74" cy="-1507.8" rx="50.09" ry="50.09"/>
<text text-anchor="middle" x="61.74" y="-1504.1" font-family="Times,serif" font-size="14.00">Aurelien</text>
</g>
<!-- Basketball (10) -->
<g id="node13" class="node">
<title>Basketball (10)</title>
<ellipse fill="none" stroke="black" cx="250.73" cy="-1262.8" rx="81.49" ry="81.49"/>
<text text-anchor="middle" x="250.73" y="-1259.1" font-family="Times,serif" font-size="14.00">Basketball (10)</text>
</g>
<!-- Aurelien&#45;&gt;Basketball (10) -->
<g id="edge8" class="edge">
<title>Aurelien&#45;&gt;Basketball (10)</title>
<path fill="none" stroke="orange" stroke-width="2" d="M99.32,-1474.63C107.6,-1466.49 116.12,-1457.58 123.49,-1448.8 151.82,-1415.04 179.72,-1374.87 202.06,-1340.51"/>
<polygon fill="orange" stroke="orange" stroke-width="2" points="205.13,-1342.21 207.62,-1331.91 199.25,-1338.41 205.13,-1342.21"/>
<text text-anchor="middle" x="146.49" y="-1429.6" font-family="Times,serif" font-size="14.00">1</text>
</g>
<!-- Martin -->
<g id="node14" class="node">
<title>Martin</title>
<ellipse fill="none" stroke="black" cx="61.74" cy="-1397.8" rx="42.49" ry="42.49"/>
<text text-anchor="middle" x="61.74" y="-1394.1" font-family="Times,serif" font-size="14.00">Martin</text>
</g>
<!-- Martin&#45;&gt;Basketball (10) -->
<g id="edge9" class="edge">
<title>Martin&#45;&gt;Basketball (10)</title>
<path fill="none" stroke="orange" stroke-width="2" d="M96.61,-1373.35C118.73,-1357.37 148.51,-1335.88 175.92,-1316.09"/>
<polygon fill="orange" stroke="orange" stroke-width="2" points="178.28,-1318.7 184.34,-1310.01 174.18,-1313.02 178.28,-1318.7"/>
<text text-anchor="middle" x="146.49" y="-1342.6" font-family="Times,serif" font-size="14.00">1</text>
</g>
<!-- Mael -->
<g id="node15" class="node">
<title>Mael</title>
<ellipse fill="none" stroke="black" cx="61.74" cy="-1303.8" rx="33.6" ry="33.6"/>
<text text-anchor="middle" x="61.74" y="-1300.1" font-family="Times,serif" font-size="14.00">Mael</text>
</g>
<!-- Mael&#45;&gt;Basketball (10) -->
<g id="edge10" class="edge">
<title>Mael&#45;&gt;Basketball (10)</title>
<path fill="none" stroke="orange" stroke-width="2" d="M94.89,-1296.75C113.25,-1292.72 137.27,-1287.46 160.89,-1282.28"/>
<polygon fill="orange" stroke="orange" stroke-width="2" points="161.96,-1285.63 170.98,-1280.07 160.46,-1278.79 161.96,-1285.63"/>
<text text-anchor="middle" x="146.49" y="-1289.6" font-family="Times,serif" font-size="14.00">1</text>
</g>
<!-- Axel -->
<g id="node16" class="node">
<title>Axel</title>
<ellipse fill="none" stroke="black" cx="61.74" cy="-1221.8" rx="30.59" ry="30.59"/>
<text text-anchor="middle" x="61.74" y="-1218.1" font-family="Times,serif" font-size="14.00">Axel</text>
</g>
<!-- Axel&#45;&gt;Basketball (10) -->
<g id="edge11" class="edge">
<title>Axel&#45;&gt;Basketball (10)</title>
<path fill="none" stroke="orange" stroke-width="2" d="M91.96,-1228.2C110.73,-1232.32 136.2,-1237.9 161.2,-1243.38"/>
<polygon fill="orange" stroke="orange" stroke-width="2" points="160.59,-1246.83 171.11,-1245.56 162.09,-1240 160.59,-1246.83"/>
<text text-anchor="middle" x="146.49" y="-1245.6" font-family="Times,serif" font-size="14.00">1</text>
</g>
<!-- Dupont -->
<g id="node17" class="node">
<title>Dupont</title>
<ellipse fill="none" stroke="black" cx="61.74" cy="-1849.8" rx="44.69" ry="44.69"/>
<text text-anchor="middle" x="61.74" y="-1846.1" font-family="Times,serif" font-size="14.00">Dupont</text>
</g>
<!-- Football (3) -->
<g id="node18" class="node">
<title>Football (3)</title>
<ellipse fill="none" stroke="black" cx="250.73" cy="-1734.8" rx="63.89" ry="63.89"/>
<text text-anchor="middle" x="250.73" y="-1731.1" font-family="Times,serif" font-size="14.00">Football (3)</text>
</g>
<!-- Dupont&#45;&gt;Football (3) -->
<g id="edge12" class="edge">
<title>Dupont&#45;&gt;Football (3)</title>
<path fill="none" stroke="green" d="M100.58,-1826.53C125.44,-1811.24 158.54,-1790.88 187.25,-1773.22"/>
<polygon fill="green" stroke="green" points="189.32,-1776.06 196,-1767.84 185.65,-1770.1 189.32,-1776.06"/>
<text text-anchor="middle" x="146.49" y="-1803.6" font-family="Times,serif" font-size="14.00">0</text>
</g>
<!-- Bertrand -->
<g id="node19" class="node">
<title>Bertrand</title>
<ellipse fill="none" stroke="black" cx="61.74" cy="-1734.8" rx="52.79" ry="52.79"/>
<text text-anchor="middle" x="61.74" y="-1731.1" font-family="Times,serif" font-size="14.00">Bertrand</text>
</g>
<!-- Bertrand&#45;&gt;Football (3) -->
<g id="edge13" class="edge">
<title>Bertrand&#45;&gt;Football (3)</title>
<path fill="none" stroke="green" d="M114.83,-1734.8C134.05,-1734.8 156.2,-1734.8 176.93,-1734.8"/>
<polygon fill="green" stroke="green" points="176.97,-1738.3 186.97,-1734.8 176.97,-1731.3 176.97,-1738.3"/>
<text text-anchor="middle" x="146.49" y="-1738.6" font-family="Times,serif" font-size="14.00">0</text>
</g>
<!-- Charlie -->
<g id="node20" class="node">
<title>Charlie</title>
<ellipse fill="none" stroke="black" cx="61.74" cy="-1619.8" rx="44.39" ry="44.39"/>
<text text-anchor="middle" x="61.74" y="-1616.1" font-family="Times,serif" font-size="14.00">Charlie</text>
</g>
<!-- Charlie&#45;&gt;Football (3) -->
<g id="edge14" class="edge">
<title>Charlie&#45;&gt;Football (3)</title>
<path fill="none" stroke="green" d="M99.69,-1642.52C124.57,-1657.82 158.02,-1678.39 187.02,-1696.23"/>
<polygon fill="green" stroke="green" points="185.51,-1699.41 195.86,-1701.67 189.18,-1693.45 185.51,-1699.41"/>
<text text-anchor="middle" x="146.49" y="-1678.6" font-family="Times,serif" font-size="14.00">0</text>
</g>
<!-- Anasthasia -->
<g id="node21" class="node">
<title>Anasthasia</title>
<ellipse fill="none" stroke="black" cx="61.74" cy="-1111.8" rx="61.99" ry="61.99"/>
<text text-anchor="middle" x="61.74" y="-1108.1" font-family="Times,serif" font-size="14.00">Anasthasia</text>
</g>
<!-- Anasthasia&#45;&gt;Basketball (10) -->
<g id="edge15" class="edge">
<title>Anasthasia&#45;&gt;Basketball (10)</title>
<path fill="none" stroke="green" d="M110.41,-1150.29C131.22,-1167.1 156.06,-1187.15 178.96,-1205.64"/>
<polygon fill="green" stroke="green" points="176.99,-1208.55 186.96,-1212.11 181.38,-1203.1 176.99,-1208.55"/>
<text text-anchor="middle" x="146.49" y="-1186.6" font-family="Times,serif" font-size="14.00">0</text>
</g>
<!-- Caroline -->
<g id="node22" class="node">
<title>Caroline</title>
<ellipse fill="none" stroke="black" cx="61.74" cy="-981.8" rx="50.09" ry="50.09"/>
<text text-anchor="middle" x="61.74" y="-978.1" font-family="Times,serif" font-size="14.00">Caroline</text>
</g>
<!-- Caroline&#45;&gt;Basketball (10) -->
<g id="edge16" class="edge">
<title>Caroline&#45;&gt;Basketball (10)</title>
<path fill="none" stroke="green" d="M99.83,-1014.55C108.09,-1022.71 116.47,-1031.73 123.49,-1040.8 156.99,-1084.09 187.54,-1137.27 210.19,-1180.72"/>
<polygon fill="green" stroke="green" points="207.21,-1182.56 214.91,-1189.83 213.42,-1179.34 207.21,-1182.56"/>
<text text-anchor="middle" x="146.49" y="-1078.6" font-family="Times,serif" font-size="14.00">0</text>
</g>
<!-- Angele -->
<g id="node23" class="node">
<title>Angele</title>
<ellipse fill="none" stroke="black" cx="61.74" cy="-127.8" rx="42.49" ry="42.49"/>
<text text-anchor="middle" x="61.74" y="-124.1" font-family="Times,serif" font-size="14.00">Angele</text>
</g>
<!-- Angele&#45;&gt;Natation (2) -->
<g id="edge17" class="edge">
<title>Angele&#45;&gt;Natation (2)</title>
<path fill="none" stroke="green" d="M103.32,-135.39C124.18,-139.3 150.29,-144.18 174.65,-148.74"/>
<polygon fill="green" stroke="green" points="174.14,-152.21 184.61,-150.61 175.42,-145.33 174.14,-152.21"/>
<text text-anchor="middle" x="146.49" y="-148.6" font-family="Times,serif" font-size="14.00">0</text>
</g>
<!-- Alexis -->
<g id="node24" class="node">
<title>Alexis</title>
<ellipse fill="none" stroke="black" cx="61.74" cy="-1950.8" rx="38.19" ry="38.19"/>
<text text-anchor="middle" x="61.74" y="-1947.1" font-family="Times,serif" font-size="14.00">Alexis</text>
</g>
<!-- Athletisme (1) -->
<g id="node25" class="node">
<title>Athletisme (1)</title>
<ellipse fill="none" stroke="black" cx="250.73" cy="-1950.8" rx="76.89" ry="76.89"/>
<text text-anchor="middle" x="250.73" y="-1947.1" font-family="Times,serif" font-size="14.00">Athletisme (1)</text>
</g>
<!-- Alexis&#45;&gt;Athletisme (1) -->
<g id="edge18" class="edge">
<title>Alexis&#45;&gt;Athletisme (1)</title>
<path fill="none" stroke="green" d="M100.13,-1950.8C118.43,-1950.8 141.28,-1950.8 163.58,-1950.8"/>
<polygon fill="green" stroke="green" points="163.76,-1954.3 173.76,-1950.8 163.76,-1947.3 163.76,-1954.3"/>
<text text-anchor="middle" x="146.49" y="-1954.6" font-family="Times,serif" font-size="14.00">0</text>
</g>
<!-- Basil -->
<g id="node26" class="node">
<title>Basil</title>
<ellipse fill="none" stroke="black" cx="61.74" cy="-33.8" rx="33.6" ry="33.6"/>
<text text-anchor="middle" x="61.74" y="-30.1" font-family="Times,serif" font-size="14.00">Basil</text>
</g>
<!-- Basil&#45;&gt;Natation (2) -->
<g id="edge19" class="edge">
<title>Basil&#45;&gt;Natation (2)</title>
<path fill="none" stroke="green" d="M89.93,-52.55C115.24,-70.01 153.9,-96.68 186.85,-119.42"/>
<polygon fill="green" stroke="green" points="184.87,-122.3 195.09,-125.1 188.85,-116.54 184.87,-122.3"/>
<text text-anchor="middle" x="146.49" y="-98.6" font-family="Times,serif" font-size="14.00">0</text>
</g>
</g>
</svg>
