<?xml version="1.0" encoding="UTF-8" standalone="no"?>
<!DOCTYPE svg PUBLIC "-//W3C//DTD SVG 1.1//EN"
 "http://www.w3.org/Graphics/SVG/1.1/DTD/svg11.dtd">
<!-- Generated by graphviz version 2.43.20190912.0211 (20190912.0211)
 -->
<!-- Title: finite_state_machine Pages: 1 -->
<svg width="305pt" height="1865pt"
 viewBox="0.00 0.00 304.88 1865.29" xmlns="http://www.w3.org/2000/svg" xmlns:xlink="http://www.w3.org/1999/xlink">
<g id="graph0" class="graph" transform="scale(1 1) rotate(0) translate(4 1861.29)">
<title>finite_state_machine</title>
<polygon fill="white" stroke="transparent" points="-4,4 -4,-1861.29 300.88,-1861.29 300.88,4 -4,4"/>
<!-- Charlie -->
<g id="node1" class="node">
<title>Charlie</title>
<ellipse fill="none" stroke="black" cx="61.74" cy="-44.2" rx="44.39" ry="44.39"/>
<text text-anchor="middle" x="61.74" y="-40.5" font-family="Times,serif" font-size="14.00">Charlie</text>
</g>
<!-- Cricket -->
<g id="node2" class="node">
<title>Cricket</title>
<ellipse fill="none" stroke="black" cx="233.18" cy="-44.2" rx="44.39" ry="44.39"/>
<text text-anchor="middle" x="233.18" y="-40.5" font-family="Times,serif" font-size="14.00">Cricket</text>
</g>
<!-- Charlie&#45;&gt;Cricket -->
<g id="edge1" class="edge">
<title>Charlie&#45;&gt;Cricket</title>
<path fill="none" stroke="black" d="M106.38,-44.2C128.42,-44.2 155.35,-44.2 178.63,-44.2"/>
<polygon fill="black" stroke="black" points="178.7,-47.7 188.7,-44.2 178.7,-40.7 178.7,-47.7"/>
<text text-anchor="middle" x="146.49" y="-48" font-family="Times,serif" font-size="14.00">2</text>
</g>
<!-- Anasthasia -->
<g id="node3" class="node">
<title>Anasthasia</title>
<ellipse fill="none" stroke="black" cx="61.74" cy="-671.2" rx="61.99" ry="61.99"/>
<text text-anchor="middle" x="61.74" y="-667.5" font-family="Times,serif" font-size="14.00">Anasthasia</text>
</g>
<!-- Basketball -->
<g id="node4" class="node">
<title>Basketball</title>
<ellipse fill="none" stroke="black" cx="233.18" cy="-384.2" rx="59.59" ry="59.59"/>
<text text-anchor="middle" x="233.18" y="-380.5" font-family="Times,serif" font-size="14.00">Basketball</text>
</g>
<!-- Anasthasia&#45;&gt;Basketball -->
<g id="edge2" class="edge">
<title>Anasthasia&#45;&gt;Basketball</title>
<path fill="none" stroke="black" d="M104.29,-625.88C111.07,-617.6 117.74,-608.84 123.49,-600.2 155.72,-551.74 184.92,-492.41 204.92,-448.21"/>
<polygon fill="black" stroke="black" points="208.14,-449.57 209.05,-439.01 201.76,-446.7 208.14,-449.57"/>
<text text-anchor="middle" x="146.49" y="-571" font-family="Times,serif" font-size="14.00">0</text>
</g>
<!-- Caroline -->
<g id="node5" class="node">
<title>Caroline</title>
<ellipse fill="none" stroke="black" cx="61.74" cy="-541.2" rx="50.09" ry="50.09"/>
<text text-anchor="middle" x="61.74" y="-537.5" font-family="Times,serif" font-size="14.00">Caroline</text>
</g>
<!-- Caroline&#45;&gt;Basketball -->
<g id="edge3" class="edge">
<title>Caroline&#45;&gt;Basketball</title>
<path fill="none" stroke="black" d="M99.09,-507.52C122.99,-485.37 154.61,-456.08 181.03,-431.6"/>
<polygon fill="black" stroke="black" points="183.73,-433.86 188.69,-424.5 178.97,-428.73 183.73,-433.86"/>
<text text-anchor="middle" x="146.49" y="-472" font-family="Times,serif" font-size="14.00">0</text>
</g>
<!-- Clotilde -->
<g id="node6" class="node">
<title>Clotilde</title>
<ellipse fill="none" stroke="black" cx="61.74" cy="-798.2" rx="46.59" ry="46.59"/>
<text text-anchor="middle" x="61.74" y="-794.5" font-family="Times,serif" font-size="14.00">Clotilde</text>
</g>
<!-- Dance -->
<g id="node7" class="node">
<title>Dance</title>
<ellipse fill="none" stroke="black" cx="233.18" cy="-798.2" rx="39.79" ry="39.79"/>
<text text-anchor="middle" x="233.18" y="-794.5" font-family="Times,serif" font-size="14.00">Dance</text>
</g>
<!-- Clotilde&#45;&gt;Dance -->
<g id="edge4" class="edge">
<title>Clotilde&#45;&gt;Dance</title>
<path fill="none" stroke="black" d="M108.6,-798.2C131.73,-798.2 159.81,-798.2 183.35,-798.2"/>
<polygon fill="black" stroke="black" points="183.47,-801.7 193.47,-798.2 183.47,-794.7 183.47,-801.7"/>
<text text-anchor="middle" x="146.49" y="-802" font-family="Times,serif" font-size="14.00">1</text>
</g>
<!-- Bernard -->
<g id="node8" class="node">
<title>Bernard</title>
<ellipse fill="none" stroke="black" cx="61.74" cy="-912.2" rx="48.99" ry="48.99"/>
<text text-anchor="middle" x="61.74" y="-908.5" font-family="Times,serif" font-size="14.00">Bernard</text>
</g>
<!-- Gym -->
<g id="node9" class="node">
<title>Gym</title>
<ellipse fill="none" stroke="black" cx="233.18" cy="-912.2" rx="32.49" ry="32.49"/>
<text text-anchor="middle" x="233.18" y="-908.5" font-family="Times,serif" font-size="14.00">Gym</text>
</g>
<!-- Bernard&#45;&gt;Gym -->
<g id="edge5" class="edge">
<title>Bernard&#45;&gt;Gym</title>
<path fill="none" stroke="black" d="M110.85,-912.2C135.9,-912.2 166.25,-912.2 190.33,-912.2"/>
<polygon fill="black" stroke="black" points="190.57,-915.7 200.57,-912.2 190.57,-908.7 190.57,-915.7"/>
<text text-anchor="middle" x="146.49" y="-916" font-family="Times,serif" font-size="14.00">3</text>
</g>
<!-- Martin -->
<g id="node10" class="node">
<title>Martin</title>
<ellipse fill="none" stroke="black" cx="61.74" cy="-431.2" rx="42.49" ry="42.49"/>
<text text-anchor="middle" x="61.74" y="-427.5" font-family="Times,serif" font-size="14.00">Martin</text>
</g>
<!-- Martin&#45;&gt;Basketball -->
<g id="edge6" class="edge">
<title>Martin&#45;&gt;Basketball</title>
<path fill="none" stroke="black" d="M102.9,-420.06C121.57,-414.88 144.28,-408.58 165.42,-402.72"/>
<polygon fill="black" stroke="black" points="166.63,-406.01 175.33,-399.97 164.75,-399.27 166.63,-406.01"/>
<text text-anchor="middle" x="146.49" y="-413" font-family="Times,serif" font-size="14.00">1</text>
</g>
<!-- Mael -->
<g id="node11" class="node">
<title>Mael</title>
<ellipse fill="none" stroke="black" cx="61.74" cy="-337.2" rx="33.6" ry="33.6"/>
<text text-anchor="middle" x="61.74" y="-333.5" font-family="Times,serif" font-size="14.00">Mael</text>
</g>
<!-- Mael&#45;&gt;Basketball -->
<g id="edge7" class="edge">
<title>Mael&#45;&gt;Basketball</title>
<path fill="none" stroke="black" d="M94.61,-346.04C114.58,-351.58 141.07,-358.92 165.47,-365.69"/>
<polygon fill="black" stroke="black" points="164.85,-369.15 175.42,-368.45 166.72,-362.4 164.85,-369.15"/>
<text text-anchor="middle" x="146.49" y="-365" font-family="Times,serif" font-size="14.00">1</text>
</g>
<!-- Axel -->
<g id="node12" class="node">
<title>Axel</title>
<ellipse fill="none" stroke="black" cx="61.74" cy="-255.2" rx="30.59" ry="30.59"/>
<text text-anchor="middle" x="61.74" y="-251.5" font-family="Times,serif" font-size="14.00">Axel</text>
</g>
<!-- Axel&#45;&gt;Basketball -->
<g id="edge8" class="edge">
<title>Axel&#45;&gt;Basketball</title>
<path fill="none" stroke="black" d="M88.32,-270.66C99.35,-277.56 112.26,-285.99 123.49,-294.2 142.36,-307.99 162.26,-324 179.8,-338.66"/>
<polygon fill="black" stroke="black" points="177.77,-341.53 187.68,-345.28 182.28,-336.17 177.77,-341.53"/>
<text text-anchor="middle" x="146.49" y="-320" font-family="Times,serif" font-size="14.00">1</text>
</g>
<!-- Aurelien -->
<g id="node13" class="node">
<title>Aurelien</title>
<ellipse fill="none" stroke="black" cx="61.74" cy="-156.2" rx="50.09" ry="50.09"/>
<text text-anchor="middle" x="61.74" y="-152.5" font-family="Times,serif" font-size="14.00">Aurelien</text>
</g>
<!-- Aurelien&#45;&gt;Basketball -->
<g id="edge9" class="edge">
<title>Aurelien&#45;&gt;Basketball</title>
<path fill="none" stroke="black" d="M99.48,-189.23C107.75,-197.38 116.23,-206.32 123.49,-215.2 151.17,-249.03 177.79,-290.23 197.76,-323.48"/>
<polygon fill="black" stroke="black" points="194.83,-325.39 202.95,-332.19 200.84,-321.81 194.83,-325.39"/>
<text text-anchor="middle" x="146.49" y="-255" font-family="Times,serif" font-size="14.00">1</text>
</g>
<!-- Carole -->
<g id="node14" class="node">
<title>Carole</title>
<ellipse fill="none" stroke="black" cx="61.74" cy="-1020.2" rx="40.89" ry="40.89"/>
<text text-anchor="middle" x="61.74" y="-1016.5" font-family="Times,serif" font-size="14.00">Carole</text>
</g>
<!-- Volley -->
<g id="node15" class="node">
<title>Volley</title>
<ellipse fill="none" stroke="black" cx="233.18" cy="-1020.2" rx="38.19" ry="38.19"/>
<text text-anchor="middle" x="233.18" y="-1016.5" font-family="Times,serif" font-size="14.00">Volley</text>
</g>
<!-- Carole&#45;&gt;Volley -->
<g id="edge10" class="edge">
<title>Carole&#45;&gt;Volley</title>
<path fill="none" stroke="black" d="M102.9,-1020.2C127.33,-1020.2 158.66,-1020.2 184.37,-1020.2"/>
<polygon fill="black" stroke="black" points="184.64,-1023.7 194.64,-1020.2 184.64,-1016.7 184.64,-1023.7"/>
<text text-anchor="middle" x="146.49" y="-1024" font-family="Times,serif" font-size="14.00">2</text>
</g>
<!-- Floriane -->
<g id="node16" class="node">
<title>Floriane</title>
<ellipse fill="none" stroke="black" cx="61.74" cy="-1653.2" rx="49.29" ry="49.29"/>
<text text-anchor="middle" x="61.74" y="-1649.5" font-family="Times,serif" font-size="14.00">Floriane</text>
</g>
<!-- Skateboard -->
<g id="node17" class="node">
<title>Skateboard</title>
<ellipse fill="none" stroke="black" cx="233.18" cy="-1653.2" rx="63.89" ry="63.89"/>
<text text-anchor="middle" x="233.18" y="-1649.5" font-family="Times,serif" font-size="14.00">Skateboard</text>
</g>
<!-- Floriane&#45;&gt;Skateboard -->
<g id="edge11" class="edge">
<title>Floriane&#45;&gt;Skateboard</title>
<path fill="none" stroke="black" d="M111.3,-1653.2C126.28,-1653.2 143.12,-1653.2 159.36,-1653.2"/>
<polygon fill="black" stroke="black" points="159.38,-1656.7 169.38,-1653.2 159.38,-1649.7 159.38,-1656.7"/>
<text text-anchor="middle" x="146.49" y="-1657" font-family="Times,serif" font-size="14.00">0</text>
</g>
<!-- Natation -->
<g id="node18" class="node">
<title>Natation</title>
<ellipse fill="none" stroke="black" cx="233.18" cy="-1479.2" rx="51.19" ry="51.19"/>
<text text-anchor="middle" x="233.18" y="-1475.5" font-family="Times,serif" font-size="14.00">Natation</text>
</g>
<!-- Floriane&#45;&gt;Natation -->
<g id="edge12" class="edge">
<title>Floriane&#45;&gt;Natation</title>
<path fill="none" stroke="black" d="M98.01,-1619.44C106.43,-1611.25 115.33,-1602.46 123.49,-1594.2 146.01,-1571.37 170.59,-1545.44 190.68,-1524"/>
<polygon fill="black" stroke="black" points="193.31,-1526.31 197.58,-1516.61 188.2,-1521.53 193.31,-1526.31"/>
<text text-anchor="middle" x="146.49" y="-1580" font-family="Times,serif" font-size="14.00">0</text>
</g>
<!-- Florian -->
<g id="node19" class="node">
<title>Florian</title>
<ellipse fill="none" stroke="black" cx="61.74" cy="-1541.2" rx="44.39" ry="44.39"/>
<text text-anchor="middle" x="61.74" y="-1537.5" font-family="Times,serif" font-size="14.00">Florian</text>
</g>
<!-- Florian&#45;&gt;Natation -->
<g id="edge13" class="edge">
<title>Florian&#45;&gt;Natation</title>
<path fill="none" stroke="black" d="M103.76,-1526.19C125.2,-1518.34 151.77,-1508.62 175.17,-1500.06"/>
<polygon fill="black" stroke="black" points="176.46,-1503.31 184.64,-1496.59 174.05,-1496.74 176.46,-1503.31"/>
<text text-anchor="middle" x="146.49" y="-1516" font-family="Times,serif" font-size="14.00">0</text>
</g>
<!-- Basil -->
<g id="node20" class="node">
<title>Basil</title>
<ellipse fill="none" stroke="black" cx="61.74" cy="-1343.2" rx="33.6" ry="33.6"/>
<text text-anchor="middle" x="61.74" y="-1339.5" font-family="Times,serif" font-size="14.00">Basil</text>
</g>
<!-- Basil&#45;&gt;Natation -->
<g id="edge15" class="edge">
<title>Basil&#45;&gt;Natation</title>
<path fill="none" stroke="black" d="M90.04,-1361.73C100.64,-1369.13 112.79,-1377.86 123.49,-1386.2 144.75,-1402.76 167.53,-1422 186.71,-1438.67"/>
<polygon fill="black" stroke="black" points="184.58,-1441.46 194.42,-1445.39 189.18,-1436.18 184.58,-1441.46"/>
<text text-anchor="middle" x="146.49" y="-1413" font-family="Times,serif" font-size="14.00">0</text>
</g>
<!-- Karate -->
<g id="node21" class="node">
<title>Karate</title>
<ellipse fill="none" stroke="black" cx="233.18" cy="-1239.2" rx="42.49" ry="42.49"/>
<text text-anchor="middle" x="233.18" y="-1235.5" font-family="Times,serif" font-size="14.00">Karate</text>
</g>
<!-- Basil&#45;&gt;Karate -->
<g id="edge14" class="edge">
<title>Basil&#45;&gt;Karate</title>
<path fill="none" stroke="black" d="M91.1,-1325.79C117.51,-1309.58 157.3,-1285.16 187.89,-1266.38"/>
<polygon fill="black" stroke="black" points="189.97,-1269.21 196.66,-1261 186.31,-1263.25 189.97,-1269.21"/>
<text text-anchor="middle" x="146.49" y="-1299" font-family="Times,serif" font-size="14.00">4</text>
</g>
<!-- Angele -->
<g id="node22" class="node">
<title>Angele</title>
<ellipse fill="none" stroke="black" cx="61.74" cy="-1437.2" rx="42.49" ry="42.49"/>
<text text-anchor="middle" x="61.74" y="-1433.5" font-family="Times,serif" font-size="14.00">Angele</text>
</g>
<!-- Angele&#45;&gt;Natation -->
<g id="edge16" class="edge">
<title>Angele&#45;&gt;Natation</title>
<path fill="none" stroke="black" d="M102.9,-1447.15C123.96,-1452.37 150.17,-1458.87 173.47,-1464.64"/>
<polygon fill="black" stroke="black" points="172.7,-1468.06 183.25,-1467.07 174.39,-1461.26 172.7,-1468.06"/>
<text text-anchor="middle" x="146.49" y="-1462" font-family="Times,serif" font-size="14.00">0</text>
</g>
<!-- Alexis -->
<g id="node23" class="node">
<title>Alexis</title>
<ellipse fill="none" stroke="black" cx="61.74" cy="-1796.2" rx="38.19" ry="38.19"/>
<text text-anchor="middle" x="61.74" y="-1792.5" font-family="Times,serif" font-size="14.00">Alexis</text>
</g>
<!-- Athletisme -->
<g id="node24" class="node">
<title>Athletisme</title>
<ellipse fill="none" stroke="black" cx="233.18" cy="-1796.2" rx="61.19" ry="61.19"/>
<text text-anchor="middle" x="233.18" y="-1792.5" font-family="Times,serif" font-size="14.00">Athletisme</text>
</g>
<!-- Alexis&#45;&gt;Athletisme -->
<g id="edge17" class="edge">
<title>Alexis&#45;&gt;Athletisme</title>
<path fill="none" stroke="black" d="M100.35,-1796.2C118.45,-1796.2 140.75,-1796.2 161.83,-1796.2"/>
<polygon fill="black" stroke="black" points="162.06,-1799.7 172.06,-1796.2 162.06,-1792.7 162.06,-1799.7"/>
<text text-anchor="middle" x="146.49" y="-1800" font-family="Times,serif" font-size="14.00">0</text>
</g>
<!-- Dupont -->
<g id="node25" class="node">
<title>Dupont</title>
<ellipse fill="none" stroke="black" cx="61.74" cy="-1124.2" rx="44.69" ry="44.69"/>
<text text-anchor="middle" x="61.74" y="-1120.5" font-family="Times,serif" font-size="14.00">Dupont</text>
</g>
<!-- Dupont&#45;&gt;Karate -->
<g id="edge18" class="edge">
<title>Dupont&#45;&gt;Karate</title>
<path fill="none" stroke="black" d="M99.51,-1149.15C125.97,-1167.11 161.74,-1191.39 189.47,-1210.21"/>
<polygon fill="black" stroke="black" points="187.56,-1213.14 197.8,-1215.86 191.49,-1207.35 187.56,-1213.14"/>
<text text-anchor="middle" x="146.49" y="-1186" font-family="Times,serif" font-size="14.00">4</text>
</g>
<!-- Bertrand -->
<g id="node26" class="node">
<title>Bertrand</title>
<ellipse fill="none" stroke="black" cx="61.74" cy="-1239.2" rx="52.79" ry="52.79"/>
<text text-anchor="middle" x="61.74" y="-1235.5" font-family="Times,serif" font-size="14.00">Bertrand</text>
</g>
<!-- Bertrand&#45;&gt;Karate -->
<g id="edge19" class="edge">
<title>Bertrand&#45;&gt;Karate</title>
<path fill="none" stroke="black" d="M114.5,-1239.2C135.58,-1239.2 159.88,-1239.2 180.91,-1239.2"/>
<polygon fill="black" stroke="black" points="180.94,-1242.7 190.94,-1239.2 180.94,-1235.7 180.94,-1242.7"/>
<text text-anchor="middle" x="146.49" y="-1243" font-family="Times,serif" font-size="14.00">4</text>
</g>
</g>
</svg>
