<?xml version="1.0" encoding="UTF-8" standalone="no"?>
<!DOCTYPE svg PUBLIC "-//W3C//DTD SVG 1.1//EN"
 "http://www.w3.org/Graphics/SVG/1.1/DTD/svg11.dtd">
<!-- Generated by graphviz version 2.43.20190912.0211 (20190912.0211)
 -->
<!-- Title: finite_state_machine Pages: 1 -->
<svg width="495pt" height="1469pt"
 viewBox="0.00 0.00 494.78 1468.92" xmlns="http://www.w3.org/2000/svg" xmlns:xlink="http://www.w3.org/1999/xlink">
<g id="graph0" class="graph" transform="scale(1 1) rotate(0) translate(4 1464.92)">
<title>finite_state_machine</title>
<polygon fill="white" stroke="transparent" points="-4,4 -4,-1464.92 490.78,-1464.92 490.78,4 -4,4"/>
<!-- 32 -->
<g id="node1" class="node">
<title>32</title>
<ellipse fill="none" stroke="black" cx="174.64" cy="-1438.17" rx="23" ry="23"/>
<text text-anchor="middle" x="174.64" y="-1434.47" font-family="Times,serif" font-size="14.00">32</text>
</g>
<!-- 30 -->
<g id="node2" class="node">
<title>30</title>
<ellipse fill="none" stroke="black" cx="303.14" cy="-1343.17" rx="23" ry="23"/>
<text text-anchor="middle" x="303.14" y="-1339.47" font-family="Times,serif" font-size="14.00">30</text>
</g>
<!-- 32&#45;&gt;30 -->
<g id="edge1" class="edge">
<title>32&#45;&gt;30</title>
<path fill="none" stroke="black" d="M195.08,-1427.52C213.23,-1417.2 240.7,-1400.59 262.39,-1383.17 268.37,-1378.36 274.42,-1372.75 279.92,-1367.28"/>
<polygon fill="black" stroke="black" points="282.56,-1369.58 287.05,-1359.98 277.56,-1364.69 282.56,-1369.58"/>
<text text-anchor="middle" x="238.89" y="-1417.97" font-family="Times,serif" font-size="14.00">0/1 (3)</text>
</g>
<!-- 9999 -->
<g id="node34" class="node">
<title>9999</title>
<ellipse fill="none" stroke="black" cx="452.33" cy="-540.17" rx="34.39" ry="34.39"/>
<text text-anchor="middle" x="452.33" y="-536.47" font-family="Times,serif" font-size="14.00">9999</text>
</g>
<!-- 30&#45;&gt;9999 -->
<g id="edge55" class="edge">
<title>30&#45;&gt;9999</title>
<path fill="none" stroke="black" d="M312.53,-1322.11C331.46,-1273.72 377.52,-1150.48 399.89,-1043.17 434.64,-876.36 446.27,-673.32 449.86,-584.9"/>
<polygon fill="black" stroke="black" points="453.37,-584.83 450.26,-574.7 446.37,-584.55 453.37,-584.83"/>
<text text-anchor="middle" x="371.89" y="-1233.97" font-family="Times,serif" font-size="14.00">0/1 (1)</text>
</g>
<!-- 9998 -->
<g id="node3" class="node">
<title>9998</title>
<ellipse fill="none" stroke="black" cx="34.45" cy="-808.17" rx="34.39" ry="34.39"/>
<text text-anchor="middle" x="34.45" y="-804.47" font-family="Times,serif" font-size="14.00">9998</text>
</g>
<!-- 9998&#45;&gt;32 -->
<g id="edge2" class="edge">
<title>9998&#45;&gt;32</title>
<path fill="none" stroke="black" d="M35.02,-842.81C34.24,-950.95 36.17,-1280.56 86.89,-1372.17 99.79,-1395.46 124.72,-1413.09 144.56,-1424.24"/>
<polygon fill="black" stroke="black" points="143.06,-1427.41 153.53,-1429.05 146.37,-1421.24 143.06,-1427.41"/>
<text text-anchor="middle" x="110.39" y="-1419.97" font-family="Times,serif" font-size="14.00">0/1 (1)</text>
</g>
<!-- 31 -->
<g id="node4" class="node">
<title>31</title>
<ellipse fill="none" stroke="black" cx="174.64" cy="-1375.17" rx="23" ry="23"/>
<text text-anchor="middle" x="174.64" y="-1371.47" font-family="Times,serif" font-size="14.00">31</text>
</g>
<!-- 9998&#45;&gt;31 -->
<g id="edge3" class="edge">
<title>9998&#45;&gt;31</title>
<path fill="none" stroke="black" d="M35.48,-842.77C36.11,-942.58 41.91,-1229.01 86.89,-1309.17 99.93,-1332.39 124.84,-1350.02 144.64,-1361.2"/>
<polygon fill="black" stroke="black" points="143.13,-1364.36 153.59,-1366.02 146.44,-1358.19 143.13,-1364.36"/>
<text text-anchor="middle" x="110.39" y="-1356.97" font-family="Times,serif" font-size="14.00">0/1 (1)</text>
</g>
<!-- 29 -->
<g id="node5" class="node">
<title>29</title>
<ellipse fill="none" stroke="black" cx="174.64" cy="-1312.17" rx="23" ry="23"/>
<text text-anchor="middle" x="174.64" y="-1308.47" font-family="Times,serif" font-size="14.00">29</text>
</g>
<!-- 9998&#45;&gt;29 -->
<g id="edge4" class="edge">
<title>9998&#45;&gt;29</title>
<path fill="none" stroke="black" d="M36.11,-842.84C38.37,-933.7 47.99,-1176.45 86.89,-1245.17 100.09,-1268.47 124.99,-1286.4 144.74,-1297.82"/>
<polygon fill="black" stroke="black" points="143.22,-1300.98 153.67,-1302.75 146.6,-1294.85 143.22,-1300.98"/>
<text text-anchor="middle" x="110.39" y="-1293.97" font-family="Times,serif" font-size="14.00">0/1 (1)</text>
</g>
<!-- 24 -->
<g id="node6" class="node">
<title>24</title>
<ellipse fill="none" stroke="black" cx="174.64" cy="-1249.17" rx="23" ry="23"/>
<text text-anchor="middle" x="174.64" y="-1245.47" font-family="Times,serif" font-size="14.00">24</text>
</g>
<!-- 9998&#45;&gt;24 -->
<g id="edge5" class="edge">
<title>9998&#45;&gt;24</title>
<path fill="none" stroke="black" d="M36.89,-842.82C40.8,-924.15 53.64,-1124.74 86.89,-1182.17 100.31,-1205.34 125.19,-1223.28 144.87,-1234.74"/>
<polygon fill="black" stroke="black" points="143.33,-1237.89 153.77,-1239.69 146.73,-1231.77 143.33,-1237.89"/>
<text text-anchor="middle" x="110.39" y="-1229.97" font-family="Times,serif" font-size="14.00">0/1 (1)</text>
</g>
<!-- 23 -->
<g id="node7" class="node">
<title>23</title>
<ellipse fill="none" stroke="black" cx="174.64" cy="-1186.17" rx="23" ry="23"/>
<text text-anchor="middle" x="174.64" y="-1182.47" font-family="Times,serif" font-size="14.00">23</text>
</g>
<!-- 9998&#45;&gt;23 -->
<g id="edge6" class="edge">
<title>9998&#45;&gt;23</title>
<path fill="none" stroke="black" d="M38.02,-842.61C43.8,-913.29 59.49,-1071.95 86.89,-1118.17 100.63,-1141.33 125.47,-1159.57 145.06,-1171.31"/>
<polygon fill="black" stroke="black" points="143.5,-1174.45 153.91,-1176.39 146.98,-1168.37 143.5,-1174.45"/>
<text text-anchor="middle" x="110.39" y="-1166.97" font-family="Times,serif" font-size="14.00">0/1 (1)</text>
</g>
<!-- 22 -->
<g id="node8" class="node">
<title>22</title>
<ellipse fill="none" stroke="black" cx="174.64" cy="-1123.17" rx="23" ry="23"/>
<text text-anchor="middle" x="174.64" y="-1119.47" font-family="Times,serif" font-size="14.00">22</text>
</g>
<!-- 9998&#45;&gt;22 -->
<g id="edge7" class="edge">
<title>9998&#45;&gt;22</title>
<path fill="none" stroke="black" d="M35.57,-842.9C37.25,-892.95 46.16,-986.63 86.89,-1053.17 101.11,-1076.39 125.91,-1095.23 145.36,-1107.5"/>
<polygon fill="black" stroke="black" points="143.77,-1110.62 154.14,-1112.82 147.4,-1104.64 143.77,-1110.62"/>
<text text-anchor="middle" x="110.39" y="-1102.97" font-family="Times,serif" font-size="14.00">0/1 (1)</text>
</g>
<!-- 21 -->
<g id="node9" class="node">
<title>21</title>
<ellipse fill="none" stroke="black" cx="174.64" cy="-934.17" rx="23" ry="23"/>
<text text-anchor="middle" x="174.64" y="-930.47" font-family="Times,serif" font-size="14.00">21</text>
</g>
<!-- 9998&#45;&gt;21 -->
<g id="edge8" class="edge">
<title>9998&#45;&gt;21</title>
<path fill="none" stroke="black" d="M55.54,-835.86C64.52,-847.37 75.6,-860.5 86.89,-871.17 105.21,-888.48 128.42,-905.1 146.22,-916.92"/>
<polygon fill="black" stroke="black" points="144.7,-920.1 154.98,-922.64 148.52,-914.24 144.7,-920.1"/>
<text text-anchor="middle" x="110.39" y="-910.97" font-family="Times,serif" font-size="14.00">0/1 (1)</text>
</g>
<!-- 20 -->
<g id="node10" class="node">
<title>20</title>
<ellipse fill="none" stroke="black" cx="174.64" cy="-682.17" rx="23" ry="23"/>
<text text-anchor="middle" x="174.64" y="-678.47" font-family="Times,serif" font-size="14.00">20</text>
</g>
<!-- 9998&#45;&gt;20 -->
<g id="edge9" class="edge">
<title>9998&#45;&gt;20</title>
<path fill="none" stroke="black" d="M55.54,-780.48C64.52,-768.97 75.6,-755.84 86.89,-745.17 92.23,-740.13 123.88,-717.41 147.43,-700.69"/>
<polygon fill="black" stroke="black" points="149.53,-703.49 155.67,-694.85 145.49,-697.78 149.53,-703.49"/>
<text text-anchor="middle" x="110.39" y="-748.97" font-family="Times,serif" font-size="14.00">0/1 (1)</text>
</g>
<!-- 17 -->
<g id="node11" class="node">
<title>17</title>
<ellipse fill="none" stroke="black" cx="174.64" cy="-438.17" rx="23" ry="23"/>
<text text-anchor="middle" x="174.64" y="-434.47" font-family="Times,serif" font-size="14.00">17</text>
</g>
<!-- 9998&#45;&gt;17 -->
<g id="edge10" class="edge">
<title>9998&#45;&gt;17</title>
<path fill="none" stroke="black" d="M35.09,-773.48C36.19,-723.59 44.38,-630.49 86.89,-566.17 100.97,-544.88 119.14,-553.99 133.89,-533.17 150.98,-509.06 139.23,-495.86 151.89,-469.17 152.65,-467.58 153.49,-465.98 154.38,-464.39"/>
<polygon fill="black" stroke="black" points="157.56,-465.9 159.91,-455.57 151.63,-462.18 157.56,-465.9"/>
<text text-anchor="middle" x="110.39" y="-569.97" font-family="Times,serif" font-size="14.00">0/1 (1)</text>
</g>
<!-- 19 -->
<g id="node12" class="node">
<title>19</title>
<ellipse fill="none" stroke="black" cx="174.64" cy="-375.17" rx="23" ry="23"/>
<text text-anchor="middle" x="174.64" y="-371.47" font-family="Times,serif" font-size="14.00">19</text>
</g>
<!-- 9998&#45;&gt;19 -->
<g id="edge11" class="edge">
<title>9998&#45;&gt;19</title>
<path fill="none" stroke="black" d="M35.01,-773.48C35.67,-716.26 42.9,-599.92 86.89,-514.17 100.52,-487.6 118.72,-491.88 133.89,-466.17 148.04,-442.19 139.74,-431.22 151.89,-406.17 152.66,-404.58 153.51,-402.99 154.41,-401.41"/>
<polygon fill="black" stroke="black" points="157.59,-402.92 159.97,-392.6 151.67,-399.19 157.59,-402.92"/>
<text text-anchor="middle" x="110.39" y="-517.97" font-family="Times,serif" font-size="14.00">0/1 (1)</text>
</g>
<!-- 15 -->
<g id="node13" class="node">
<title>15</title>
<ellipse fill="none" stroke="black" cx="174.64" cy="-312.17" rx="23" ry="23"/>
<text text-anchor="middle" x="174.64" y="-308.47" font-family="Times,serif" font-size="14.00">15</text>
</g>
<!-- 9998&#45;&gt;15 -->
<g id="edge12" class="edge">
<title>9998&#45;&gt;15</title>
<path fill="none" stroke="black" d="M35.66,-773.68C37.07,-708.08 45.1,-561.64 86.89,-447.17 89.23,-440.77 148.13,-348.85 151.89,-343.17 152.84,-341.74 153.82,-340.27 154.82,-338.8"/>
<polygon fill="black" stroke="black" points="157.81,-340.64 160.6,-330.42 152.04,-336.67 157.81,-340.64"/>
<text text-anchor="middle" x="110.39" y="-450.97" font-family="Times,serif" font-size="14.00">0/1 (1)</text>
</g>
<!-- 14 -->
<g id="node14" class="node">
<title>14</title>
<ellipse fill="none" stroke="black" cx="174.64" cy="-564.17" rx="23" ry="23"/>
<text text-anchor="middle" x="174.64" y="-560.47" font-family="Times,serif" font-size="14.00">14</text>
</g>
<!-- 9998&#45;&gt;14 -->
<g id="edge13" class="edge">
<title>9998&#45;&gt;14</title>
<path fill="none" stroke="black" d="M38.85,-773.85C43.93,-739.36 56.42,-686.51 86.89,-652.17 102.2,-634.92 117.19,-646.07 133.89,-630.17 146.28,-618.38 143.08,-610.82 151.89,-596.17 152.91,-594.48 153.97,-592.77 155.07,-591.05"/>
<polygon fill="black" stroke="black" points="158.08,-592.84 160.64,-582.56 152.23,-589 158.08,-592.84"/>
<text text-anchor="middle" x="110.39" y="-655.97" font-family="Times,serif" font-size="14.00">0/1 (1)</text>
</g>
<!-- 13 -->
<g id="node15" class="node">
<title>13</title>
<ellipse fill="none" stroke="black" cx="174.64" cy="-501.17" rx="23" ry="23"/>
<text text-anchor="middle" x="174.64" y="-497.47" font-family="Times,serif" font-size="14.00">13</text>
</g>
<!-- 9998&#45;&gt;13 -->
<g id="edge14" class="edge">
<title>9998&#45;&gt;13</title>
<path fill="none" stroke="black" d="M36.41,-773.59C39.25,-731.18 49.7,-659.04 86.89,-611.17 101.54,-592.32 118.58,-603.48 133.89,-585.17 149.85,-566.08 140.64,-554.35 151.89,-532.17 152.69,-530.6 153.56,-529.01 154.48,-527.44"/>
<polygon fill="black" stroke="black" points="157.65,-528.97 160.09,-518.66 151.75,-525.2 157.65,-528.97"/>
<text text-anchor="middle" x="110.39" y="-614.97" font-family="Times,serif" font-size="14.00">0/1 (1)</text>
</g>
<!-- 12 -->
<g id="node16" class="node">
<title>12</title>
<ellipse fill="none" stroke="black" cx="174.64" cy="-997.17" rx="23" ry="23"/>
<text text-anchor="middle" x="174.64" y="-993.47" font-family="Times,serif" font-size="14.00">12</text>
</g>
<!-- 9998&#45;&gt;12 -->
<g id="edge15" class="edge">
<title>9998&#45;&gt;12</title>
<path fill="none" stroke="black" d="M45.13,-841.17C53.52,-866.14 67.4,-900.42 86.89,-926.17 103.32,-947.87 127.69,-967.05 146.42,-979.98"/>
<polygon fill="black" stroke="black" points="144.59,-982.97 154.84,-985.65 148.5,-977.16 144.59,-982.97"/>
<text text-anchor="middle" x="110.39" y="-972.97" font-family="Times,serif" font-size="14.00">0/1 (1)</text>
</g>
<!-- 10 -->
<g id="node17" class="node">
<title>10</title>
<ellipse fill="none" stroke="black" cx="174.64" cy="-1060.17" rx="23" ry="23"/>
<text text-anchor="middle" x="174.64" y="-1056.47" font-family="Times,serif" font-size="14.00">10</text>
</g>
<!-- 9998&#45;&gt;10 -->
<g id="edge16" class="edge">
<title>9998&#45;&gt;10</title>
<path fill="none" stroke="black" d="M39.12,-842.51C44.53,-880.71 57.41,-942.99 86.89,-988.17 101.95,-1011.23 126.66,-1030.69 145.87,-1043.55"/>
<polygon fill="black" stroke="black" points="144.22,-1046.65 154.52,-1049.14 148.02,-1040.77 144.22,-1046.65"/>
<text text-anchor="middle" x="110.39" y="-1037.97" font-family="Times,serif" font-size="14.00">0/1 (1)</text>
</g>
<!-- 9 -->
<g id="node18" class="node">
<title>9</title>
<ellipse fill="none" stroke="black" cx="174.64" cy="-623.17" rx="18" ry="18"/>
<text text-anchor="middle" x="174.64" y="-619.47" font-family="Times,serif" font-size="14.00">9</text>
</g>
<!-- 9998&#45;&gt;9 -->
<g id="edge17" class="edge">
<title>9998&#45;&gt;9</title>
<path fill="none" stroke="black" d="M43.28,-774.67C50.73,-749.23 64.26,-714.87 86.89,-692.17 103.05,-675.97 115.68,-685.01 133.89,-671.17 135.34,-670.07 146.25,-656.87 156.27,-644.59"/>
<polygon fill="black" stroke="black" points="159.02,-646.75 162.62,-636.79 153.59,-642.34 159.02,-646.75"/>
<text text-anchor="middle" x="110.39" y="-695.97" font-family="Times,serif" font-size="14.00">0/1 (1)</text>
</g>
<!-- 8 -->
<g id="node19" class="node">
<title>8</title>
<ellipse fill="none" stroke="black" cx="174.64" cy="-224.17" rx="18" ry="18"/>
<text text-anchor="middle" x="174.64" y="-220.47" font-family="Times,serif" font-size="14.00">8</text>
</g>
<!-- 9998&#45;&gt;8 -->
<g id="edge18" class="edge">
<title>9998&#45;&gt;8</title>
<path fill="none" stroke="black" d="M37.22,-773.7C42.31,-681.43 58.43,-430.58 86.89,-353.17 102.39,-311.02 134.39,-269.17 154.89,-245.03"/>
<polygon fill="black" stroke="black" points="157.72,-247.11 161.62,-237.26 152.42,-242.53 157.72,-247.11"/>
<text text-anchor="middle" x="110.39" y="-356.97" font-family="Times,serif" font-size="14.00">0/1 (1)</text>
</g>
<!-- 7 -->
<g id="node20" class="node">
<title>7</title>
<ellipse fill="none" stroke="black" cx="174.64" cy="-113.17" rx="18" ry="18"/>
<text text-anchor="middle" x="174.64" y="-109.47" font-family="Times,serif" font-size="14.00">7</text>
</g>
<!-- 9998&#45;&gt;7 -->
<g id="edge19" class="edge">
<title>9998&#45;&gt;7</title>
<path fill="none" stroke="black" d="M36.62,-773.74C40.51,-668.5 54.65,-352.28 86.89,-255.17 102.35,-208.61 135.47,-161.34 156.02,-134.79"/>
<polygon fill="black" stroke="black" points="159.02,-136.63 162.46,-126.61 153.52,-132.3 159.02,-136.63"/>
<text text-anchor="middle" x="110.39" y="-258.97" font-family="Times,serif" font-size="14.00">0/1 (1)</text>
</g>
<!-- 28 -->
<g id="node21" class="node">
<title>28</title>
<ellipse fill="none" stroke="black" cx="174.64" cy="-871.17" rx="23" ry="23"/>
<text text-anchor="middle" x="174.64" y="-867.47" font-family="Times,serif" font-size="14.00">28</text>
</g>
<!-- 9998&#45;&gt;28 -->
<g id="edge20" class="edge">
<title>9998&#45;&gt;28</title>
<path fill="none" stroke="black" d="M66.12,-822.15C89.5,-832.81 121.48,-847.39 144.48,-857.87"/>
<polygon fill="black" stroke="black" points="143.18,-861.13 153.73,-862.09 146.08,-854.76 143.18,-861.13"/>
<text text-anchor="middle" x="110.39" y="-855.97" font-family="Times,serif" font-size="14.00">0/1 (1)</text>
</g>
<!-- 27 -->
<g id="node22" class="node">
<title>27</title>
<ellipse fill="none" stroke="black" cx="174.64" cy="-808.17" rx="23" ry="23"/>
<text text-anchor="middle" x="174.64" y="-804.47" font-family="Times,serif" font-size="14.00">27</text>
</g>
<!-- 9998&#45;&gt;27 -->
<g id="edge21" class="edge">
<title>9998&#45;&gt;27</title>
<path fill="none" stroke="black" d="M68.9,-808.17C91,-808.17 119.81,-808.17 141.62,-808.17"/>
<polygon fill="black" stroke="black" points="141.7,-811.67 151.7,-808.17 141.7,-804.67 141.7,-811.67"/>
<text text-anchor="middle" x="110.39" y="-811.97" font-family="Times,serif" font-size="14.00">0/1 (1)</text>
</g>
<!-- 26 -->
<g id="node23" class="node">
<title>26</title>
<ellipse fill="none" stroke="black" cx="174.64" cy="-745.17" rx="23" ry="23"/>
<text text-anchor="middle" x="174.64" y="-741.47" font-family="Times,serif" font-size="14.00">26</text>
</g>
<!-- 9998&#45;&gt;26 -->
<g id="edge22" class="edge">
<title>9998&#45;&gt;26</title>
<path fill="none" stroke="black" d="M66.12,-794.19C89.5,-783.53 121.48,-768.95 144.48,-758.46"/>
<polygon fill="black" stroke="black" points="146.08,-761.58 153.73,-754.24 143.18,-755.21 146.08,-761.58"/>
<text text-anchor="middle" x="110.39" y="-786.97" font-family="Times,serif" font-size="14.00">0/1 (1)</text>
</g>
<!-- 31&#45;&gt;30 -->
<g id="edge23" class="edge">
<title>31&#45;&gt;30</title>
<path fill="none" stroke="black" d="M196.81,-1369.81C217.06,-1364.69 247.84,-1356.9 270.91,-1351.07"/>
<polygon fill="black" stroke="black" points="272.06,-1354.39 280.9,-1348.54 270.34,-1347.6 272.06,-1354.39"/>
<text text-anchor="middle" x="238.89" y="-1367.97" font-family="Times,serif" font-size="14.00">0/1 (3)</text>
</g>
<!-- 29&#45;&gt;30 -->
<g id="edge24" class="edge">
<title>29&#45;&gt;30</title>
<path fill="none" stroke="black" d="M197.14,-1316.39C214.76,-1319.97 240.31,-1325.43 262.39,-1331.17 265.36,-1331.94 268.45,-1332.79 271.53,-1333.67"/>
<polygon fill="black" stroke="black" points="270.6,-1337.04 281.18,-1336.51 272.58,-1330.33 270.6,-1337.04"/>
<text text-anchor="middle" x="238.89" y="-1334.97" font-family="Times,serif" font-size="14.00">0/1 (3)</text>
</g>
<!-- 6 -->
<g id="node24" class="node">
<title>6</title>
<ellipse fill="none" stroke="black" cx="303.14" cy="-1110.17" rx="18" ry="18"/>
<text text-anchor="middle" x="303.14" y="-1106.47" font-family="Times,serif" font-size="14.00">6</text>
</g>
<!-- 24&#45;&gt;6 -->
<g id="edge25" class="edge">
<title>24&#45;&gt;6</title>
<path fill="none" stroke="black" d="M195.34,-1239.31C214.45,-1228.96 243.28,-1211.14 262.39,-1189.17 275.82,-1173.72 286.05,-1152.94 292.76,-1136.56"/>
<polygon fill="black" stroke="black" points="296.11,-1137.61 296.48,-1127.03 289.59,-1135.07 296.11,-1137.61"/>
<text text-anchor="middle" x="238.89" y="-1229.97" font-family="Times,serif" font-size="14.00">0/1 (1)</text>
</g>
<!-- 23&#45;&gt;6 -->
<g id="edge26" class="edge">
<title>23&#45;&gt;6</title>
<path fill="none" stroke="black" d="M196.61,-1178.96C214.82,-1172.2 241.48,-1161.05 262.39,-1147.17 269.57,-1142.4 276.69,-1136.32 282.88,-1130.47"/>
<polygon fill="black" stroke="black" points="285.48,-1132.82 290.15,-1123.31 280.57,-1127.83 285.48,-1132.82"/>
<text text-anchor="middle" x="238.89" y="-1173.97" font-family="Times,serif" font-size="14.00">0/1 (1)</text>
</g>
<!-- 22&#45;&gt;6 -->
<g id="edge27" class="edge">
<title>22&#45;&gt;6</title>
<path fill="none" stroke="black" d="M197.24,-1126.58C214.92,-1128.74 240.49,-1130.41 262.39,-1126.17 267.33,-1125.21 272.44,-1123.64 277.28,-1121.85"/>
<polygon fill="black" stroke="black" points="278.78,-1125.02 286.7,-1117.99 276.12,-1118.54 278.78,-1125.02"/>
<text text-anchor="middle" x="238.89" y="-1131.97" font-family="Times,serif" font-size="14.00">0/1 (1)</text>
</g>
<!-- 21&#45;&gt;6 -->
<g id="edge29" class="edge">
<title>21&#45;&gt;6</title>
<path fill="none" stroke="black" d="M189.87,-951.26C196.95,-958.99 205.99,-967.8 215.39,-974.17 234.18,-986.9 246.93,-977.55 262.39,-994.17 285.07,-1018.55 294.88,-1056.46 299.07,-1082.25"/>
<polygon fill="black" stroke="black" points="295.61,-1082.75 300.5,-1092.15 302.54,-1081.75 295.61,-1082.75"/>
<text text-anchor="middle" x="238.89" y="-997.97" font-family="Times,serif" font-size="14.00">0/1 (1)</text>
</g>
<!-- 25 -->
<g id="node25" class="node">
<title>25</title>
<ellipse fill="none" stroke="black" cx="303.14" cy="-798.17" rx="23" ry="23"/>
<text text-anchor="middle" x="303.14" y="-794.47" font-family="Times,serif" font-size="14.00">25</text>
</g>
<!-- 21&#45;&gt;25 -->
<g id="edge28" class="edge">
<title>21&#45;&gt;25</title>
<path fill="none" stroke="black" d="M196.26,-925.84C221.52,-915.61 261.15,-899.43 262.39,-898.17 280.42,-879.87 290.55,-852.38 296.06,-830.85"/>
<polygon fill="black" stroke="black" points="299.54,-831.36 298.41,-820.82 292.72,-829.76 299.54,-831.36"/>
<text text-anchor="middle" x="238.89" y="-920.97" font-family="Times,serif" font-size="14.00">0/1 (2)</text>
</g>
<!-- 5 -->
<g id="node26" class="node">
<title>5</title>
<ellipse fill="none" stroke="black" cx="303.14" cy="-692.17" rx="18" ry="18"/>
<text text-anchor="middle" x="303.14" y="-688.47" font-family="Times,serif" font-size="14.00">5</text>
</g>
<!-- 20&#45;&gt;5 -->
<g id="edge30" class="edge">
<title>20&#45;&gt;5</title>
<path fill="none" stroke="black" d="M192.74,-696.47C199.38,-701.15 207.33,-705.77 215.39,-708.17 235.41,-714.13 241.88,-712.14 262.39,-708.17 267.33,-707.21 272.44,-705.64 277.28,-703.85"/>
<polygon fill="black" stroke="black" points="278.78,-707.02 286.7,-699.99 276.12,-700.54 278.78,-707.02"/>
<text text-anchor="middle" x="238.89" y="-715.97" font-family="Times,serif" font-size="14.00">0/1 (1)</text>
</g>
<!-- 4 -->
<g id="node27" class="node">
<title>4</title>
<ellipse fill="none" stroke="black" cx="303.14" cy="-540.17" rx="18" ry="18"/>
<text text-anchor="middle" x="303.14" y="-536.47" font-family="Times,serif" font-size="14.00">4</text>
</g>
<!-- 17&#45;&gt;4 -->
<g id="edge31" class="edge">
<title>17&#45;&gt;4</title>
<path fill="none" stroke="black" d="M189.31,-455.8C196.39,-464.05 205.6,-473.49 215.39,-480.17 234,-492.86 243.7,-486.59 262.39,-499.17 270.31,-504.5 277.9,-511.62 284.28,-518.44"/>
<polygon fill="black" stroke="black" points="281.9,-521.03 291.17,-526.16 287.13,-516.37 281.9,-521.03"/>
<text text-anchor="middle" x="238.89" y="-502.97" font-family="Times,serif" font-size="14.00">0/1 (0)</text>
</g>
<!-- 3 -->
<g id="node28" class="node">
<title>3</title>
<ellipse fill="none" stroke="black" cx="303.14" cy="-330.17" rx="18" ry="18"/>
<text text-anchor="middle" x="303.14" y="-326.47" font-family="Times,serif" font-size="14.00">3</text>
</g>
<!-- 17&#45;&gt;3 -->
<g id="edge32" class="edge">
<title>17&#45;&gt;3</title>
<path fill="none" stroke="black" d="M192.66,-424.04C199.7,-418.19 207.94,-411.35 215.39,-405.17 236.28,-387.83 241.88,-383.95 262.39,-366.17 268.82,-360.59 275.73,-354.41 281.95,-348.76"/>
<polygon fill="black" stroke="black" points="284.35,-351.31 289.38,-341.98 279.63,-346.14 284.35,-351.31"/>
<text text-anchor="middle" x="238.89" y="-408.97" font-family="Times,serif" font-size="14.00">0/1 (4)</text>
</g>
<!-- 18 -->
<g id="node29" class="node">
<title>18</title>
<ellipse fill="none" stroke="black" cx="303.14" cy="-453.17" rx="23" ry="23"/>
<text text-anchor="middle" x="303.14" y="-449.47" font-family="Times,serif" font-size="14.00">18</text>
</g>
<!-- 17&#45;&gt;18 -->
<g id="edge33" class="edge">
<title>17&#45;&gt;18</title>
<path fill="none" stroke="black" d="M196.36,-430.83C214.19,-425.62 240.42,-420.62 262.39,-427.17 267.18,-428.59 271.92,-430.8 276.38,-433.34"/>
<polygon fill="black" stroke="black" points="274.73,-436.44 285.04,-438.87 278.5,-430.54 274.73,-436.44"/>
<text text-anchor="middle" x="238.89" y="-430.97" font-family="Times,serif" font-size="14.00">0/1 (0)</text>
</g>
<!-- 19&#45;&gt;4 -->
<g id="edge35" class="edge">
<title>19&#45;&gt;4</title>
<path fill="none" stroke="black" d="M188.98,-393.23C191.87,-397.4 194.83,-401.88 197.39,-406.17 206.55,-421.53 202.25,-430.03 215.39,-442.17 231.94,-457.45 245.82,-445.9 262.39,-461.17 270.83,-468.95 282.97,-494.59 291.61,-514.58"/>
<polygon fill="black" stroke="black" points="288.41,-515.99 295.54,-523.83 294.85,-513.26 288.41,-515.99"/>
<text text-anchor="middle" x="238.89" y="-464.97" font-family="Times,serif" font-size="14.00">0/1 (0)</text>
</g>
<!-- 19&#45;&gt;3 -->
<g id="edge34" class="edge">
<title>19&#45;&gt;3</title>
<path fill="none" stroke="black" d="M194.03,-362.46C200.55,-358.4 208.08,-354.17 215.39,-351.17 234.61,-343.26 257.51,-337.87 274.96,-334.54"/>
<polygon fill="black" stroke="black" points="275.81,-337.94 285.03,-332.72 274.57,-331.05 275.81,-337.94"/>
<text text-anchor="middle" x="238.89" y="-354.97" font-family="Times,serif" font-size="14.00">0/1 (4)</text>
</g>
<!-- 15&#45;&gt;3 -->
<g id="edge36" class="edge">
<title>15&#45;&gt;3</title>
<path fill="none" stroke="black" d="M197.65,-310.07C215.34,-308.95 240.73,-308.6 262.39,-313.17 267.36,-314.22 272.48,-315.9 277.33,-317.81"/>
<polygon fill="black" stroke="black" points="276.18,-321.12 286.74,-321.91 278.97,-314.71 276.18,-321.12"/>
<text text-anchor="middle" x="238.89" y="-316.97" font-family="Times,serif" font-size="14.00">0/1 (4)</text>
</g>
<!-- 16 -->
<g id="node30" class="node">
<title>16</title>
<ellipse fill="none" stroke="black" cx="303.14" cy="-269.17" rx="23" ry="23"/>
<text text-anchor="middle" x="303.14" y="-265.47" font-family="Times,serif" font-size="14.00">16</text>
</g>
<!-- 15&#45;&gt;16 -->
<g id="edge37" class="edge">
<title>15&#45;&gt;16</title>
<path fill="none" stroke="black" d="M183.24,-291.01C187.44,-279.28 192.73,-264.43 197.39,-251.17 205.5,-228.09 195.47,-213.35 215.39,-199.17 232.41,-187.05 244.49,-188.39 262.39,-199.17 277.04,-207.99 271.97,-218.29 280.39,-233.17 281.92,-235.88 283.55,-238.68 285.19,-241.47"/>
<polygon fill="black" stroke="black" points="282.29,-243.44 290.42,-250.23 288.3,-239.85 282.29,-243.44"/>
<text text-anchor="middle" x="238.89" y="-202.97" font-family="Times,serif" font-size="14.00">0/1 (0)</text>
</g>
<!-- 14&#45;&gt;4 -->
<g id="edge38" class="edge">
<title>14&#45;&gt;4</title>
<path fill="none" stroke="black" d="M197.68,-563.89C215.38,-563.26 240.78,-561.39 262.39,-556.17 267.28,-554.98 272.37,-553.31 277.2,-551.48"/>
<polygon fill="black" stroke="black" points="278.69,-554.66 286.62,-547.63 276.04,-548.17 278.69,-554.66"/>
<text text-anchor="middle" x="238.89" y="-566.97" font-family="Times,serif" font-size="14.00">0/1 (0)</text>
</g>
<!-- 13&#45;&gt;4 -->
<g id="edge39" class="edge">
<title>13&#45;&gt;4</title>
<path fill="none" stroke="black" d="M195.63,-510.43C201.88,-513.14 208.85,-515.95 215.39,-518.17 235.13,-524.85 258.01,-530.57 275.31,-534.5"/>
<polygon fill="black" stroke="black" points="274.76,-537.96 285.28,-536.71 276.28,-531.13 274.76,-537.96"/>
<text text-anchor="middle" x="238.89" y="-535.97" font-family="Times,serif" font-size="14.00">0/1 (0)</text>
</g>
<!-- 12&#45;&gt;6 -->
<g id="edge40" class="edge">
<title>12&#45;&gt;6</title>
<path fill="none" stroke="black" d="M196.28,-1005.37C220.26,-1015.04 257.24,-1030.39 262.39,-1035.17 276.57,-1048.33 286.65,-1067.71 293.12,-1083.47"/>
<polygon fill="black" stroke="black" points="290,-1085.12 296.85,-1093.2 296.54,-1082.61 290,-1085.12"/>
<text text-anchor="middle" x="238.89" y="-1038.97" font-family="Times,serif" font-size="14.00">0/1 (0)</text>
</g>
<!-- 11 -->
<g id="node31" class="node">
<title>11</title>
<ellipse fill="none" stroke="black" cx="303.14" cy="-920.17" rx="23" ry="23"/>
<text text-anchor="middle" x="303.14" y="-916.47" font-family="Times,serif" font-size="14.00">11</text>
</g>
<!-- 12&#45;&gt;11 -->
<g id="edge41" class="edge">
<title>12&#45;&gt;11</title>
<path fill="none" stroke="black" d="M190.43,-980.67C197.49,-973.45 206.36,-965.25 215.39,-959.17 225.2,-952.56 251.21,-941.13 272.21,-932.34"/>
<polygon fill="black" stroke="black" points="273.83,-935.46 281.73,-928.4 271.15,-929 273.83,-935.46"/>
<text text-anchor="middle" x="238.89" y="-962.97" font-family="Times,serif" font-size="14.00">0/1 (0)</text>
</g>
<!-- 10&#45;&gt;6 -->
<g id="edge42" class="edge">
<title>10&#45;&gt;6</title>
<path fill="none" stroke="black" d="M192.6,-1074.18C199.36,-1079.19 207.41,-1084.5 215.39,-1088.17 234.44,-1096.93 257.52,-1102.57 275.08,-1105.94"/>
<polygon fill="black" stroke="black" points="274.76,-1109.44 285.22,-1107.76 275.99,-1102.55 274.76,-1109.44"/>
<text text-anchor="middle" x="238.89" y="-1105.97" font-family="Times,serif" font-size="14.00">0/1 (0)</text>
</g>
<!-- 10&#45;&gt;11 -->
<g id="edge43" class="edge">
<title>10&#45;&gt;11</title>
<path fill="none" stroke="black" d="M197.44,-1063.79C216.7,-1065.69 244.45,-1065.11 262.39,-1050.17 290.78,-1026.53 299.31,-983.19 301.66,-953.08"/>
<polygon fill="black" stroke="black" points="305.15,-953.23 302.25,-943.04 298.17,-952.81 305.15,-953.23"/>
<text text-anchor="middle" x="238.89" y="-1067.97" font-family="Times,serif" font-size="14.00">0/1 (0)</text>
</g>
<!-- 9&#45;&gt;25 -->
<g id="edge44" class="edge">
<title>9&#45;&gt;25</title>
<path fill="none" stroke="black" d="M188.06,-635.41C195.67,-642.65 205.77,-651.82 215.39,-659.17 235.09,-674.21 246.88,-669.84 262.39,-689.17 272.21,-701.41 284.81,-739.15 293.16,-766.8"/>
<polygon fill="black" stroke="black" points="289.83,-767.88 296.03,-776.47 296.54,-765.88 289.83,-767.88"/>
<text text-anchor="middle" x="238.89" y="-692.97" font-family="Times,serif" font-size="14.00">0/1 (2)</text>
</g>
<!-- 9&#45;&gt;4 -->
<g id="edge46" class="edge">
<title>9&#45;&gt;4</title>
<path fill="none" stroke="black" d="M191.48,-630.45C210.05,-637.8 241.01,-646.22 262.39,-632.17 283.88,-618.04 293.81,-589.56 298.36,-568"/>
<polygon fill="black" stroke="black" points="301.82,-568.54 300.19,-558.07 294.93,-567.27 301.82,-568.54"/>
<text text-anchor="middle" x="238.89" y="-643.97" font-family="Times,serif" font-size="14.00">0/1 (2)</text>
</g>
<!-- 9&#45;&gt;11 -->
<g id="edge45" class="edge">
<title>9&#45;&gt;11</title>
<path fill="none" stroke="black" d="M187.99,-635.34C191.64,-639.67 195.24,-644.81 197.39,-650.17 214.84,-693.63 187.57,-822.49 215.39,-860.17 228.77,-878.29 243.7,-866.59 262.39,-879.17 268.95,-883.58 275.28,-889.23 280.89,-894.9"/>
<polygon fill="black" stroke="black" points="278.65,-897.64 288.04,-902.56 283.77,-892.86 278.65,-897.64"/>
<text text-anchor="middle" x="238.89" y="-882.97" font-family="Times,serif" font-size="14.00">0/1 (2)</text>
</g>
<!-- 2 -->
<g id="node32" class="node">
<title>2</title>
<ellipse fill="none" stroke="black" cx="303.14" cy="-206.17" rx="18" ry="18"/>
<text text-anchor="middle" x="303.14" y="-202.47" font-family="Times,serif" font-size="14.00">2</text>
</g>
<!-- 9&#45;&gt;2 -->
<g id="edge47" class="edge">
<title>9&#45;&gt;2</title>
<path fill="none" stroke="black" d="M191.83,-617.77C214.55,-609.83 254.04,-594.62 262.39,-582.17 283.77,-550.29 267.88,-273.46 280.39,-237.17 281.5,-233.94 283.06,-230.74 284.84,-227.69"/>
<polygon fill="black" stroke="black" points="287.92,-229.39 290.6,-219.14 282.11,-225.48 287.92,-229.39"/>
<text text-anchor="middle" x="238.89" y="-612.97" font-family="Times,serif" font-size="14.00">0/1 (0)</text>
</g>
<!-- 1 -->
<g id="node33" class="node">
<title>1</title>
<ellipse fill="none" stroke="black" cx="303.14" cy="-143.17" rx="18" ry="18"/>
<text text-anchor="middle" x="303.14" y="-139.47" font-family="Times,serif" font-size="14.00">1</text>
</g>
<!-- 9&#45;&gt;1 -->
<g id="edge48" class="edge">
<title>9&#45;&gt;1</title>
<path fill="none" stroke="black" d="M188.12,-611.05C191.79,-606.72 195.35,-601.58 197.39,-596.17 214.01,-552.04 187.03,-209.84 215.39,-172.17 229.15,-153.89 254.91,-147 274.79,-144.47"/>
<polygon fill="black" stroke="black" points="275.23,-147.94 284.84,-143.49 274.55,-140.97 275.23,-147.94"/>
<text text-anchor="middle" x="238.89" y="-175.97" font-family="Times,serif" font-size="14.00">0/1 (0)</text>
</g>
<!-- 8&#45;&gt;3 -->
<g id="edge49" class="edge">
<title>8&#45;&gt;3</title>
<path fill="none" stroke="black" d="M189.87,-234.35C207.39,-247.08 237.86,-269.79 262.39,-291.17 269.15,-297.06 276.24,-303.81 282.52,-310.02"/>
<polygon fill="black" stroke="black" points="280.43,-312.87 289.97,-317.48 285.38,-307.93 280.43,-312.87"/>
<text text-anchor="middle" x="238.89" y="-294.97" font-family="Times,serif" font-size="14.00">0/1 (4)</text>
</g>
<!-- 8&#45;&gt;2 -->
<g id="edge50" class="edge">
<title>8&#45;&gt;2</title>
<path fill="none" stroke="black" d="M176.83,-206.21C179.47,-182.57 187.98,-141.84 215.39,-123.17 232.65,-111.41 245.18,-111.33 262.39,-123.17 280.82,-135.84 270.57,-150.07 280.39,-170.17 282.43,-174.34 284.8,-178.66 287.2,-182.8"/>
<polygon fill="black" stroke="black" points="284.26,-184.69 292.43,-191.44 290.25,-181.07 284.26,-184.69"/>
<text text-anchor="middle" x="238.89" y="-126.97" font-family="Times,serif" font-size="14.00">0/1 (0)</text>
</g>
<!-- 8&#45;&gt;1 -->
<g id="edge51" class="edge">
<title>8&#45;&gt;1</title>
<path fill="none" stroke="black" d="M180.46,-206.87C185.09,-189.94 192.14,-163.38 197.39,-140.17 206.67,-99.1 182.91,-73.96 215.39,-47.17 231.5,-33.87 245.02,-35.56 262.39,-47.17 284.92,-62.22 294.69,-92.66 298.93,-115.25"/>
<polygon fill="black" stroke="black" points="295.5,-115.98 300.55,-125.3 302.41,-114.87 295.5,-115.98"/>
<text text-anchor="middle" x="238.89" y="-50.97" font-family="Times,serif" font-size="14.00">0/1 (0)</text>
</g>
<!-- 7&#45;&gt;3 -->
<g id="edge52" class="edge">
<title>7&#45;&gt;3</title>
<path fill="none" stroke="black" d="M178.44,-131.09C182.75,-153.2 193,-190.74 215.39,-214.17 231.2,-230.71 247.5,-217.79 262.39,-235.17 282.17,-258.26 267.03,-273.85 280.39,-301.17 281.62,-303.68 283.07,-306.19 284.64,-308.63"/>
<polygon fill="black" stroke="black" points="281.95,-310.88 290.61,-316.99 287.65,-306.82 281.95,-310.88"/>
<text text-anchor="middle" x="238.89" y="-238.97" font-family="Times,serif" font-size="14.00">0/1 (4)</text>
</g>
<!-- 7&#45;&gt;2 -->
<g id="edge53" class="edge">
<title>7&#45;&gt;2</title>
<path fill="none" stroke="black" d="M190.18,-103.97C208.86,-93.45 241.39,-79.67 262.39,-96.17 289,-117.08 267.49,-138.87 280.39,-170.17 282.16,-174.46 284.39,-178.84 286.75,-183"/>
<polygon fill="black" stroke="black" points="283.8,-184.9 291.97,-191.64 289.79,-181.27 283.8,-184.9"/>
<text text-anchor="middle" x="238.89" y="-99.97" font-family="Times,serif" font-size="14.00">0/1 (0)</text>
</g>
<!-- 7&#45;&gt;1 -->
<g id="edge54" class="edge">
<title>7&#45;&gt;1</title>
<path fill="none" stroke="black" d="M176.61,-95.11C179,-70.86 187.21,-28.57 215.39,-9.17 232.6,2.68 245.65,3.33 262.39,-9.17 294.92,-33.45 301.91,-83.21 302.85,-114.79"/>
<polygon fill="black" stroke="black" points="299.35,-115.17 302.96,-125.13 306.35,-115.09 299.35,-115.17"/>
<text text-anchor="middle" x="238.89" y="-12.97" font-family="Times,serif" font-size="14.00">0/1 (0)</text>
</g>
<!-- 28&#45;&gt;25 -->
<g id="edge57" class="edge">
<title>28&#45;&gt;25</title>
<path fill="none" stroke="black" d="M193.95,-858.51C200.59,-854.1 208.22,-849.24 215.39,-845.17 235.6,-833.67 241.97,-833.3 262.39,-822.17 266.4,-819.98 270.58,-817.59 274.66,-815.18"/>
<polygon fill="black" stroke="black" points="276.55,-818.13 283.33,-809.99 272.95,-812.13 276.55,-818.13"/>
<text text-anchor="middle" x="238.89" y="-848.97" font-family="Times,serif" font-size="14.00">0/1 (2)</text>
</g>
<!-- 27&#45;&gt;25 -->
<g id="edge58" class="edge">
<title>27&#45;&gt;25</title>
<path fill="none" stroke="black" d="M197.39,-806.45C217.39,-804.87 247.31,-802.5 270.05,-800.7"/>
<polygon fill="black" stroke="black" points="270.56,-804.18 280.25,-799.9 270.01,-797.2 270.56,-804.18"/>
<text text-anchor="middle" x="238.89" y="-807.97" font-family="Times,serif" font-size="14.00">0/1 (2)</text>
</g>
<!-- 26&#45;&gt;25 -->
<g id="edge59" class="edge">
<title>26&#45;&gt;25</title>
<path fill="none" stroke="black" d="M195.97,-753.68C216.62,-762.34 248.84,-775.84 272.37,-785.7"/>
<polygon fill="black" stroke="black" points="271.29,-789.04 281.86,-789.67 273.99,-782.58 271.29,-789.04"/>
<text text-anchor="middle" x="238.89" y="-783.97" font-family="Times,serif" font-size="14.00">0/1 (2)</text>
</g>
<!-- 6&#45;&gt;9999 -->
<g id="edge63" class="edge">
<title>6&#45;&gt;9999</title>
<path fill="none" stroke="black" d="M312.27,-1094.62C330.85,-1058.42 376.58,-965.26 399.89,-882.17 429.13,-777.9 442.7,-650.81 448.17,-584.8"/>
<polygon fill="black" stroke="black" points="451.67,-584.99 448.98,-574.74 444.69,-584.43 451.67,-584.99"/>
<text text-anchor="middle" x="371.89" y="-1027.97" font-family="Times,serif" font-size="14.00">0/10 (1)</text>
</g>
<!-- 25&#45;&gt;9999 -->
<g id="edge56" class="edge">
<title>25&#45;&gt;9999</title>
<path fill="none" stroke="black" d="M318.59,-781.3C338.73,-757.2 375.49,-710.98 399.89,-667.17 414.95,-640.1 428,-607.71 437.19,-582.42"/>
<polygon fill="black" stroke="black" points="440.58,-583.34 440.64,-572.75 433.98,-580.99 440.58,-583.34"/>
<text text-anchor="middle" x="371.89" y="-750.97" font-family="Times,serif" font-size="14.00">0/1 (1)</text>
</g>
<!-- 5&#45;&gt;9999 -->
<g id="edge64" class="edge">
<title>5&#45;&gt;9999</title>
<path fill="none" stroke="black" d="M316.18,-679.73C338.78,-656.39 388.17,-605.39 420.57,-571.94"/>
<polygon fill="black" stroke="black" points="423.17,-574.28 427.61,-564.67 418.14,-569.41 423.17,-574.28"/>
<text text-anchor="middle" x="371.89" y="-651.97" font-family="Times,serif" font-size="14.00">0/10 (1)</text>
</g>
<!-- 4&#45;&gt;9999 -->
<g id="edge65" class="edge">
<title>4&#45;&gt;9999</title>
<path fill="none" stroke="black" d="M321.31,-540.17C342.32,-540.17 378.65,-540.17 407.57,-540.17"/>
<polygon fill="black" stroke="black" points="407.86,-543.67 417.86,-540.17 407.85,-536.67 407.86,-543.67"/>
<text text-anchor="middle" x="371.89" y="-543.97" font-family="Times,serif" font-size="14.00">0/2 (1)</text>
</g>
<!-- 3&#45;&gt;9999 -->
<g id="edge66" class="edge">
<title>3&#45;&gt;9999</title>
<path fill="none" stroke="black" d="M312.04,-346.12C319.47,-360.52 331.3,-382 343.89,-399.17 365.65,-428.85 377.41,-431.03 399.89,-460.17 410.06,-473.36 420.21,-488.58 428.77,-502.18"/>
<polygon fill="black" stroke="black" points="425.9,-504.2 434.15,-510.85 431.85,-500.51 425.9,-504.2"/>
<text text-anchor="middle" x="371.89" y="-463.97" font-family="Times,serif" font-size="14.00">0/3 (1)</text>
</g>
<!-- 18&#45;&gt;9999 -->
<g id="edge60" class="edge">
<title>18&#45;&gt;9999</title>
<path fill="none" stroke="black" d="M323.08,-464.36C345.88,-477.84 384.71,-500.79 413.68,-517.92"/>
<polygon fill="black" stroke="black" points="411.94,-520.95 422.33,-523.03 415.5,-514.93 411.94,-520.95"/>
<text text-anchor="middle" x="371.89" y="-513.97" font-family="Times,serif" font-size="14.00">0/1 (1)</text>
</g>
<!-- 16&#45;&gt;9999 -->
<g id="edge61" class="edge">
<title>16&#45;&gt;9999</title>
<path fill="none" stroke="black" d="M316.2,-287.81C319.38,-292.78 322.79,-298.16 325.89,-303.17 334.08,-316.39 333.79,-321.34 343.89,-333.17 364.98,-357.88 381.76,-353.2 399.89,-380.17 423.56,-415.39 436.94,-462.24 444.08,-496.13"/>
<polygon fill="black" stroke="black" points="440.71,-497.09 446.1,-506.21 447.57,-495.72 440.71,-497.09"/>
<text text-anchor="middle" x="371.89" y="-383.97" font-family="Times,serif" font-size="14.00">0/1 (1)</text>
</g>
<!-- 11&#45;&gt;9999 -->
<g id="edge62" class="edge">
<title>11&#45;&gt;9999</title>
<path fill="none" stroke="black" d="M318.05,-902.29C338.9,-874.64 378.1,-819.16 399.89,-766.17 424.71,-705.79 438.73,-631.18 445.67,-584.62"/>
<polygon fill="black" stroke="black" points="449.16,-584.95 447.13,-574.55 442.23,-583.95 449.16,-584.95"/>
<text text-anchor="middle" x="371.89" y="-866.97" font-family="Times,serif" font-size="14.00">0/1 (1)</text>
</g>
<!-- 2&#45;&gt;9999 -->
<g id="edge67" class="edge">
<title>2&#45;&gt;9999</title>
<path fill="none" stroke="black" d="M317.6,-217.26C338.57,-235.31 378.82,-273.16 399.89,-314.17 429.89,-372.57 442.55,-448.33 447.78,-495.6"/>
<polygon fill="black" stroke="black" points="444.33,-496.23 448.84,-505.81 451.29,-495.51 444.33,-496.23"/>
<text text-anchor="middle" x="371.89" y="-317.97" font-family="Times,serif" font-size="14.00">0/3 (1)</text>
</g>
<!-- 1&#45;&gt;9999 -->
<g id="edge68" class="edge">
<title>1&#45;&gt;9999</title>
<path fill="none" stroke="black" d="M319.34,-151.48C341.09,-164.24 380.58,-190.83 399.89,-225.17 425.5,-270.72 441.3,-420.16 447.84,-495.67"/>
<polygon fill="black" stroke="black" points="444.37,-496.14 448.7,-505.81 451.34,-495.55 444.37,-496.14"/>
<text text-anchor="middle" x="371.89" y="-228.97" font-family="Times,serif" font-size="14.00">0/20 (1)</text>
</g>
</g>
</svg>
