<?xml version="1.0" encoding="UTF-8" standalone="no"?>
<!DOCTYPE svg PUBLIC "-//W3C//DTD SVG 1.1//EN"
 "http://www.w3.org/Graphics/SVG/1.1/DTD/svg11.dtd">
<!-- Generated by graphviz version 2.40.1 (20161225.0304)
 -->
<!-- Title: %3 Pages: 1 -->
<svg width="304pt" height="2515pt"
 viewBox="0.00 0.00 304.48 2515.49" xmlns="http://www.w3.org/2000/svg" xmlns:xlink="http://www.w3.org/1999/xlink">
<g id="graph0" class="graph" transform="scale(1 1) rotate(0) translate(4 2511.4913)">
<title>%3</title>
<polygon fill="#ffffff" stroke="transparent" points="-4,4 -4,-2511.4913 300.4775,-2511.4913 300.4775,4 -4,4"/>
<!-- Bernard -->
<g id="node1" class="node">
<title>Bernard</title>
<ellipse fill="none" stroke="#000000" cx="49.3956" cy="-2226.895" rx="38.9931" ry="38.9931"/>
<text text-anchor="middle" x="49.3956" y="-2223.195" font-family="Times,serif" font-size="14.00" fill="#000000">Bernard</text>
</g>
<!-- Gym (1) -->
<g id="node2" class="node">
<title>Gym (1)</title>
<ellipse fill="none" stroke="#000000" cx="219.1344" cy="-2465.895" rx="41.6928" ry="41.6928"/>
<text text-anchor="middle" x="219.1344" y="-2462.195" font-family="Times,serif" font-size="14.00" fill="#000000">Gym (1)</text>
</g>
<!-- Bernard&#45;&gt;Gym (1) -->
<g id="edge1" class="edge">
<title>Bernard&#45;&gt;Gym (1)</title>
<path fill="none" stroke="#000000" d="M76.1309,-2255.6881C84.6509,-2266.3437 93.2855,-2278.9886 98.7912,-2291.895 118.918,-2339.0758 87.8888,-2363.5186 116.7912,-2405.895 129.7152,-2424.844 150.762,-2438.661 170.4189,-2448.2252"/>
<polygon fill="#000000" stroke="#000000" points="169.0679,-2451.4562 179.6157,-2452.4528 171.9915,-2445.096 169.0679,-2451.4562"/>
<text text-anchor="middle" x="120.2912" y="-2416.695" font-family="Times,serif" font-size="14.00" fill="#000000">3</text>
</g>
<!-- Badminton (20) -->
<g id="node3" class="node">
<title>Badminton (20)</title>
<ellipse fill="none" stroke="#000000" cx="219.1344" cy="-1318.895" rx="67.6881" ry="67.6881"/>
<text text-anchor="middle" x="219.1344" y="-1315.195" font-family="Times,serif" font-size="14.00" fill="#000000">Badminton (20)</text>
</g>
<!-- Bernard&#45;&gt;Badminton (20) -->
<g id="edge2" class="edge">
<title>Bernard&#45;&gt;Badminton (20)</title>
<path fill="none" stroke="#000000" d="M73.2563,-2195.5722C83.1393,-2180.7363 93.512,-2162.2677 98.7912,-2143.895 110.9151,-2101.7021 90.8557,-1389.3151 116.7912,-1353.895 123.4163,-1344.8472 132.5198,-1338.116 142.5848,-1333.113"/>
<polygon fill="#000000" stroke="#000000" points="144.285,-1336.1901 152.0549,-1328.9874 141.4892,-1329.7726 144.285,-1336.1901"/>
<text text-anchor="middle" x="120.2912" y="-1357.695" font-family="Times,serif" font-size="14.00" fill="#000000">2</text>
</g>
<!-- Dance (10) -->
<g id="node4" class="node">
<title>Dance (10)</title>
<ellipse fill="none" stroke="#000000" cx="219.1344" cy="-1470.895" rx="50.0912" ry="50.0912"/>
<text text-anchor="middle" x="219.1344" y="-1467.195" font-family="Times,serif" font-size="14.00" fill="#000000">Dance (10)</text>
</g>
<!-- Bernard&#45;&gt;Dance (10) -->
<g id="edge3" class="edge">
<title>Bernard&#45;&gt;Dance (10)</title>
<path fill="none" stroke="#000000" d="M73.1952,-2195.5545C83.0658,-2180.7151 93.4458,-2162.2485 98.7912,-2143.895 117.4417,-2079.8591 85.3668,-1602.7249 116.7912,-1543.895 127.3992,-1524.0358 146.0772,-1508.3277 164.5985,-1496.65"/>
<polygon fill="#000000" stroke="#000000" points="166.5743,-1499.5465 173.3538,-1491.4046 162.9767,-1493.5417 166.5743,-1499.5465"/>
<text text-anchor="middle" x="120.2912" y="-1547.695" font-family="Times,serif" font-size="14.00" fill="#000000">1</text>
</g>
<!-- LancerDePoids (1) -->
<g id="node5" class="node">
<title>LancerDePoids (1)</title>
<ellipse fill="none" stroke="#000000" cx="219.1344" cy="-2229.895" rx="77.1866" ry="77.1866"/>
<text text-anchor="middle" x="219.1344" y="-2226.195" font-family="Times,serif" font-size="14.00" fill="#000000">LancerDePoids (1)</text>
</g>
<!-- Bernard&#45;&gt;LancerDePoids (1) -->
<g id="edge4" class="edge">
<title>Bernard&#45;&gt;LancerDePoids (1)</title>
<path fill="none" stroke="#000000" d="M86.3971,-2239.9563C96.1574,-2242.8247 106.7663,-2245.4389 116.7912,-2246.895 122.2499,-2247.6879 127.8672,-2248.0478 133.5271,-2248.0669"/>
<polygon fill="#000000" stroke="#000000" points="133.8479,-2251.5588 143.7357,-2247.7533 133.6329,-2244.5621 133.8479,-2251.5588"/>
<text text-anchor="middle" x="120.2912" y="-2250.695" font-family="Times,serif" font-size="14.00" fill="#000000">0</text>
</g>
<!-- Laurent -->
<g id="node6" class="node">
<title>Laurent</title>
<ellipse fill="none" stroke="#000000" cx="49.3956" cy="-2338.895" rx="38.1938" ry="38.1938"/>
<text text-anchor="middle" x="49.3956" y="-2335.195" font-family="Times,serif" font-size="14.00" fill="#000000">Laurent</text>
</g>
<!-- Laurent&#45;&gt;Gym (1) -->
<g id="edge5" class="edge">
<title>Laurent&#45;&gt;Gym (1)</title>
<path fill="none" stroke="#000000" d="M63.6121,-2374.6569C74.6841,-2397.8996 92.3099,-2426.9316 116.7912,-2443.895 131.5263,-2454.1051 150.1007,-2459.7133 167.3681,-2462.7501"/>
<polygon fill="#000000" stroke="#000000" points="166.9345,-2466.2242 177.3449,-2464.2563 167.9795,-2459.3026 166.9345,-2466.2242"/>
<text text-anchor="middle" x="120.2912" y="-2450.695" font-family="Times,serif" font-size="14.00" fill="#000000">3</text>
</g>
<!-- Kayak (1) -->
<g id="node7" class="node">
<title>Kayak (1)</title>
<ellipse fill="none" stroke="#000000" cx="219.1344" cy="-2088.895" rx="46.2923" ry="46.2923"/>
<text text-anchor="middle" x="219.1344" y="-2085.195" font-family="Times,serif" font-size="14.00" fill="#000000">Kayak (1)</text>
</g>
<!-- Laurent&#45;&gt;Kayak (1) -->
<g id="edge6" class="edge">
<title>Laurent&#45;&gt;Kayak (1)</title>
<path fill="none" stroke="#000000" d="M75.9258,-2310.9414C84.5342,-2300.3914 93.2775,-2287.8023 98.7912,-2274.895 119.8044,-2225.7048 87.8974,-2200.9104 116.7912,-2155.895 128.972,-2136.918 148.6555,-2122.1567 167.522,-2111.3788"/>
<polygon fill="#000000" stroke="#000000" points="169.2775,-2114.4083 176.3913,-2106.5569 165.934,-2108.2584 169.2775,-2114.4083"/>
<text text-anchor="middle" x="120.2912" y="-2159.695" font-family="Times,serif" font-size="14.00" fill="#000000">2</text>
</g>
<!-- Judo (1) -->
<g id="node8" class="node">
<title>Judo (1)</title>
<ellipse fill="none" stroke="#000000" cx="219.1344" cy="-2365.895" rx="40.0939" ry="40.0939"/>
<text text-anchor="middle" x="219.1344" y="-2362.195" font-family="Times,serif" font-size="14.00" fill="#000000">Judo (1)</text>
</g>
<!-- Laurent&#45;&gt;Judo (1) -->
<g id="edge7" class="edge">
<title>Laurent&#45;&gt;Judo (1)</title>
<path fill="none" stroke="#000000" d="M87.4883,-2344.9544C111.563,-2348.7839 142.9406,-2353.775 169.0234,-2357.924"/>
<polygon fill="#000000" stroke="#000000" points="168.6752,-2361.4125 179.1009,-2359.527 169.775,-2354.4994 168.6752,-2361.4125"/>
<text text-anchor="middle" x="120.2912" y="-2353.695" font-family="Times,serif" font-size="14.00" fill="#000000">1</text>
</g>
<!-- Karate (3) -->
<g id="node9" class="node">
<title>Karate (3)</title>
<ellipse fill="none" stroke="#000000" cx="219.1344" cy="-1834.895" rx="46.5926" ry="46.5926"/>
<text text-anchor="middle" x="219.1344" y="-1831.195" font-family="Times,serif" font-size="14.00" fill="#000000">Karate (3)</text>
</g>
<!-- Laurent&#45;&gt;Karate (3) -->
<g id="edge8" class="edge">
<title>Laurent&#45;&gt;Karate (3)</title>
<path fill="none" stroke="#000000" d="M76.3382,-2311.5256C85.0975,-2300.9385 93.8322,-2288.1753 98.7912,-2274.895 123.1633,-2209.6265 103.0864,-2030.2043 116.7912,-1961.895 123.3721,-1929.0941 121.7765,-1917.7021 141.7912,-1890.895 149.4606,-1880.623 159.5536,-1871.447 169.9064,-1863.6421"/>
<polygon fill="#000000" stroke="#000000" points="172.1337,-1866.3519 178.2234,-1857.682 168.0563,-1860.662 172.1337,-1866.3519"/>
<text text-anchor="middle" x="120.2912" y="-1965.695" font-family="Times,serif" font-size="14.00" fill="#000000">0</text>
</g>
<!-- Gatwick -->
<g id="node10" class="node">
<title>Gatwick</title>
<ellipse fill="none" stroke="#000000" cx="49.3956" cy="-2094.895" rx="40.0939" ry="40.0939"/>
<text text-anchor="middle" x="49.3956" y="-2091.195" font-family="Times,serif" font-size="14.00" fill="#000000">Gatwick</text>
</g>
<!-- Gatwick&#45;&gt;Gym (1) -->
<g id="edge9" class="edge">
<title>Gatwick&#45;&gt;Gym (1)</title>
<path fill="none" stroke="#000000" d="M73.1575,-2127.6185C82.7675,-2142.5378 92.9521,-2160.8692 98.7912,-2178.895 124.7945,-2259.1685 92.5088,-2287.0844 116.7912,-2367.895 120.1956,-2379.2247 133.8288,-2406.1457 141.7912,-2414.895 150.8493,-2424.8482 162.2485,-2433.7433 173.4908,-2441.2087"/>
<polygon fill="#000000" stroke="#000000" points="171.7001,-2444.2176 182.016,-2446.6326 175.4577,-2438.3116 171.7001,-2444.2176"/>
<text text-anchor="middle" x="120.2912" y="-2387.695" font-family="Times,serif" font-size="14.00" fill="#000000">3</text>
</g>
<!-- Gatwick&#45;&gt;LancerDePoids (1) -->
<g id="edge10" class="edge">
<title>Gatwick&#45;&gt;LancerDePoids (1)</title>
<path fill="none" stroke="#000000" d="M69.9734,-2129.8913C89.6202,-2163.2762 116.3189,-2208.5581 116.7912,-2208.895 121.6629,-2212.3703 126.9787,-2215.2985 132.5432,-2217.7631"/>
<polygon fill="#000000" stroke="#000000" points="131.5198,-2221.1205 142.1083,-2221.4877 134.0598,-2214.5976 131.5198,-2221.1205"/>
<text text-anchor="middle" x="120.2912" y="-2215.695" font-family="Times,serif" font-size="14.00" fill="#000000">2</text>
</g>
<!-- PlancheAVoile (1) -->
<g id="node11" class="node">
<title>PlancheAVoile (1)</title>
<ellipse fill="none" stroke="#000000" cx="219.1344" cy="-1155.895" rx="77.1866" ry="77.1866"/>
<text text-anchor="middle" x="219.1344" y="-1152.195" font-family="Times,serif" font-size="14.00" fill="#000000">PlancheAVoile (1)</text>
</g>
<!-- Gatwick&#45;&gt;PlancheAVoile (1) -->
<g id="edge11" class="edge">
<title>Gatwick&#45;&gt;PlancheAVoile (1)</title>
<path fill="none" stroke="#000000" d="M68.519,-2059.1012C79.6546,-2036.2769 92.6719,-2005.6781 98.7912,-1976.895 108.0245,-1933.4655 88.5018,-1212.1161 116.7912,-1177.895 121.2258,-1172.5307 126.6239,-1168.279 132.598,-1164.927"/>
<polygon fill="#000000" stroke="#000000" points="134.1602,-1168.0601 141.7179,-1160.6351 131.1794,-1161.7265 134.1602,-1168.0601"/>
<text text-anchor="middle" x="120.2912" y="-1181.695" font-family="Times,serif" font-size="14.00" fill="#000000">1</text>
</g>
<!-- Basketball (10) -->
<g id="node12" class="node">
<title>Basketball (10)</title>
<ellipse fill="none" stroke="#000000" cx="219.1344" cy="-379.895" rx="64.9885" ry="64.9885"/>
<text text-anchor="middle" x="219.1344" y="-376.195" font-family="Times,serif" font-size="14.00" fill="#000000">Basketball (10)</text>
</g>
<!-- Gatwick&#45;&gt;Basketball (10) -->
<g id="edge12" class="edge">
<title>Gatwick&#45;&gt;Basketball (10)</title>
<path fill="none" stroke="#000000" d="M68.4932,-2059.3803C79.6952,-2036.5371 92.7934,-2005.8171 98.7912,-1976.895 131.2379,-1820.4337 89.5635,-696.3485 116.7912,-538.895 122.6349,-505.1023 124.4189,-495.4636 141.7912,-465.895 148.438,-454.5819 156.7307,-443.441 165.396,-433.1215"/>
<polygon fill="#000000" stroke="#000000" points="168.1792,-435.2539 172.074,-425.4009 162.8849,-430.6745 168.1792,-435.2539"/>
<text text-anchor="middle" x="120.2912" y="-542.695" font-family="Times,serif" font-size="14.00" fill="#000000">0</text>
</g>
<!-- Axel -->
<g id="node13" class="node">
<title>Axel</title>
<ellipse fill="none" stroke="#000000" cx="49.3956" cy="-218.895" rx="27.8951" ry="27.8951"/>
<text text-anchor="middle" x="49.3956" y="-215.195" font-family="Times,serif" font-size="14.00" fill="#000000">Axel</text>
</g>
<!-- Axel&#45;&gt;Basketball (10) -->
<g id="edge13" class="edge">
<title>Axel&#45;&gt;Basketball (10)</title>
<path fill="none" stroke="#000000" d="M69.8701,-238.3154C93.1347,-260.3823 132.0605,-297.3041 164.328,-327.9103"/>
<polygon fill="#000000" stroke="#000000" points="162.2846,-330.7962 171.9487,-335.1386 167.1019,-325.7174 162.2846,-330.7962"/>
<text text-anchor="middle" x="120.2912" y="-289.695" font-family="Times,serif" font-size="14.00" fill="#000000">1</text>
</g>
<!-- Handball (1) -->
<g id="node14" class="node">
<title>Handball (1)</title>
<ellipse fill="none" stroke="#000000" cx="219.1344" cy="-55.895" rx="55.7903" ry="55.7903"/>
<text text-anchor="middle" x="219.1344" y="-52.195" font-family="Times,serif" font-size="14.00" fill="#000000">Handball (1)</text>
</g>
<!-- Axel&#45;&gt;Handball (1) -->
<g id="edge14" class="edge">
<title>Axel&#45;&gt;Handball (1)</title>
<path fill="none" stroke="#000000" d="M69.548,-199.1666C79.6995,-188.1811 91.3915,-173.7498 98.7912,-158.895 114.0759,-128.2113 92.9366,-108.5134 116.7912,-83.895 126.6421,-73.7288 139.8011,-67.1429 153.3945,-62.904"/>
<polygon fill="#000000" stroke="#000000" points="154.5904,-66.2063 163.3282,-60.2146 152.761,-59.4496 154.5904,-66.2063"/>
<text text-anchor="middle" x="120.2912" y="-87.695" font-family="Times,serif" font-size="14.00" fill="#000000">0</text>
</g>
<!-- Mael -->
<g id="node15" class="node">
<title>Mael</title>
<ellipse fill="none" stroke="#000000" cx="49.3956" cy="-540.895" rx="29.4969" ry="29.4969"/>
<text text-anchor="middle" x="49.3956" y="-537.195" font-family="Times,serif" font-size="14.00" fill="#000000">Mael</text>
</g>
<!-- Mael&#45;&gt;Basketball (10) -->
<g id="edge15" class="edge">
<title>Mael&#45;&gt;Basketball (10)</title>
<path fill="none" stroke="#000000" d="M71.6735,-521.5756C81.3557,-512.0503 92.0121,-499.8387 98.7912,-486.895 115.4989,-454.9945 91.8813,-433.9006 116.7912,-407.895 124.4983,-399.849 134.2766,-394.0419 144.717,-389.865"/>
<polygon fill="#000000" stroke="#000000" points="146.1615,-393.0681 154.451,-386.4699 143.8562,-386.4585 146.1615,-393.0681"/>
<text text-anchor="middle" x="120.2912" y="-411.695" font-family="Times,serif" font-size="14.00" fill="#000000">1</text>
</g>
<!-- Natation (2) -->
<g id="node16" class="node">
<title>Natation (2)</title>
<ellipse fill="none" stroke="#000000" cx="219.1344" cy="-862.895" rx="53.8905" ry="53.8905"/>
<text text-anchor="middle" x="219.1344" y="-859.195" font-family="Times,serif" font-size="14.00" fill="#000000">Natation (2)</text>
</g>
<!-- Mael&#45;&gt;Natation (2) -->
<g id="edge16" class="edge">
<title>Mael&#45;&gt;Natation (2)</title>
<path fill="none" stroke="#000000" d="M73.2522,-558.1287C82.6382,-566.136 92.6252,-576.4264 98.7912,-587.895 120.3828,-628.0549 101.9036,-645.7978 116.7912,-688.895 131.9174,-732.6828 158.7098,-777.6431 181.0875,-810.89"/>
<polygon fill="#000000" stroke="#000000" points="178.443,-813.2243 186.9694,-819.5132 184.2258,-809.2798 178.443,-813.2243"/>
<text text-anchor="middle" x="120.2912" y="-708.695" font-family="Times,serif" font-size="14.00" fill="#000000">0</text>
</g>
<!-- Martin -->
<g id="node17" class="node">
<title>Martin</title>
<ellipse fill="none" stroke="#000000" cx="49.3956" cy="-442.895" rx="35.194" ry="35.194"/>
<text text-anchor="middle" x="49.3956" y="-439.195" font-family="Times,serif" font-size="14.00" fill="#000000">Martin</text>
</g>
<!-- Martin&#45;&gt;Basketball (10) -->
<g id="edge17" class="edge">
<title>Martin&#45;&gt;Basketball (10)</title>
<path fill="none" stroke="#000000" d="M71.2335,-414.8888C86.3377,-396.4218 105.6515,-374.7718 116.7912,-369.895 125.929,-365.8947 135.9534,-364.1169 146.0421,-363.7822"/>
<polygon fill="#000000" stroke="#000000" points="146.0816,-367.2828 156.1217,-363.8995 146.1631,-360.2832 146.0816,-367.2828"/>
<text text-anchor="middle" x="120.2912" y="-373.695" font-family="Times,serif" font-size="14.00" fill="#000000">1</text>
</g>
<!-- Baseball (1) -->
<g id="node18" class="node">
<title>Baseball (1)</title>
<ellipse fill="none" stroke="#000000" cx="219.1344" cy="-672.895" rx="53.8905" ry="53.8905"/>
<text text-anchor="middle" x="219.1344" y="-669.195" font-family="Times,serif" font-size="14.00" fill="#000000">Baseball (1)</text>
</g>
<!-- Martin&#45;&gt;Baseball (1) -->
<g id="edge18" class="edge">
<title>Martin&#45;&gt;Baseball (1)</title>
<path fill="none" stroke="#000000" d="M74.2786,-467.9812C83.139,-478.1127 92.4754,-490.3645 98.7912,-502.895 113.6375,-532.3499 102.9625,-544.949 116.7912,-574.895 124.8056,-592.2502 128.7085,-595.9568 141.7912,-609.895 149.6749,-618.2942 158.6832,-626.5819 167.6995,-634.2489"/>
<polygon fill="#000000" stroke="#000000" points="165.6696,-637.1129 175.597,-640.8141 170.1445,-631.73 165.6696,-637.1129"/>
<text text-anchor="middle" x="120.2912" y="-592.695" font-family="Times,serif" font-size="14.00" fill="#000000">0</text>
</g>
<!-- Aurelien -->
<g id="node19" class="node">
<title>Aurelien</title>
<ellipse fill="none" stroke="#000000" cx="49.3956" cy="-1052.895" rx="41.6928" ry="41.6928"/>
<text text-anchor="middle" x="49.3956" y="-1049.195" font-family="Times,serif" font-size="14.00" fill="#000000">Aurelien</text>
</g>
<!-- Aurelien&#45;&gt;Badminton (20) -->
<g id="edge21" class="edge">
<title>Aurelien&#45;&gt;Badminton (20)</title>
<path fill="none" stroke="#000000" d="M68.3836,-1090.0128C77.6629,-1108.2917 88.9282,-1130.6915 98.7912,-1150.895 118.4153,-1191.0931 115.9998,-1205.3466 141.7912,-1241.895 147.6086,-1250.1387 154.3522,-1258.2844 161.3851,-1266.0163"/>
<polygon fill="#000000" stroke="#000000" points="159.0989,-1268.6952 168.4909,-1273.5985 164.2066,-1263.9085 159.0989,-1268.6952"/>
<text text-anchor="middle" x="120.2912" y="-1214.695" font-family="Times,serif" font-size="14.00" fill="#000000">0</text>
</g>
<!-- Aurelien&#45;&gt;Basketball (10) -->
<g id="edge20" class="edge">
<title>Aurelien&#45;&gt;Basketball (10)</title>
<path fill="none" stroke="#000000" d="M64.8348,-1013.9308C76.4716,-982.5907 91.6102,-937.1356 98.7912,-895.895 107.3753,-846.5968 91.9708,-489.3455 116.7912,-445.895 124.8243,-431.8325 137.2133,-420.2763 150.6322,-410.9857"/>
<polygon fill="#000000" stroke="#000000" points="152.611,-413.8739 159.0907,-405.4915 148.798,-408.0036 152.611,-413.8739"/>
<text text-anchor="middle" x="120.2912" y="-449.695" font-family="Times,serif" font-size="14.00" fill="#000000">1</text>
</g>
<!-- Volley (1) -->
<g id="node20" class="node">
<title>Volley (1)</title>
<ellipse fill="none" stroke="#000000" cx="219.1344" cy="-1012.895" rx="47.3916" ry="47.3916"/>
<text text-anchor="middle" x="219.1344" y="-1009.195" font-family="Times,serif" font-size="14.00" fill="#000000">Volley (1)</text>
</g>
<!-- Aurelien&#45;&gt;Volley (1) -->
<g id="edge19" class="edge">
<title>Aurelien&#45;&gt;Volley (1)</title>
<path fill="none" stroke="#000000" d="M90.0523,-1043.314C111.85,-1038.1773 139.0463,-1031.7683 162.8471,-1026.1595"/>
<polygon fill="#000000" stroke="#000000" points="163.8833,-1029.5113 172.8138,-1023.8108 162.2776,-1022.6979 163.8833,-1029.5113"/>
<text text-anchor="middle" x="120.2912" y="-1040.695" font-family="Times,serif" font-size="14.00" fill="#000000">2</text>
</g>
<!-- Clotilde -->
<g id="node21" class="node">
<title>Clotilde</title>
<ellipse fill="none" stroke="#000000" cx="49.3956" cy="-1322.895" rx="38.9931" ry="38.9931"/>
<text text-anchor="middle" x="49.3956" y="-1319.195" font-family="Times,serif" font-size="14.00" fill="#000000">Clotilde</text>
</g>
<!-- Clotilde&#45;&gt;Dance (10) -->
<g id="edge22" class="edge">
<title>Clotilde&#45;&gt;Dance (10)</title>
<path fill="none" stroke="#000000" d="M72.151,-1355.2312C87.4875,-1376.4929 106.6973,-1401.975 116.7912,-1410.895 131.1154,-1423.5534 148.5053,-1434.9197 164.8552,-1444.267"/>
<polygon fill="#000000" stroke="#000000" points="163.3653,-1447.4433 173.8054,-1449.2476 166.7692,-1441.3266 163.3653,-1447.4433"/>
<text text-anchor="middle" x="120.2912" y="-1419.695" font-family="Times,serif" font-size="14.00" fill="#000000">1</text>
</g>
<!-- Clotilde&#45;&gt;Natation (2) -->
<g id="edge23" class="edge">
<title>Clotilde&#45;&gt;Natation (2)</title>
<path fill="none" stroke="#000000" d="M73.26,-1291.5278C83.0147,-1276.9304 93.2843,-1258.8495 98.7912,-1240.895 109.852,-1204.8335 94.5725,-932.3763 116.7912,-901.895 126.3911,-888.7252 141.0351,-880.0024 156.2694,-874.225"/>
<polygon fill="#000000" stroke="#000000" points="157.4458,-877.5219 165.7914,-870.995 155.1971,-870.8929 157.4458,-877.5219"/>
<text text-anchor="middle" x="120.2912" y="-905.695" font-family="Times,serif" font-size="14.00" fill="#000000">0</text>
</g>
<!-- Basil -->
<g id="node22" class="node">
<title>Basil</title>
<ellipse fill="none" stroke="#000000" cx="49.3956" cy="-1938.895" rx="28.6953" ry="28.6953"/>
<text text-anchor="middle" x="49.3956" y="-1935.195" font-family="Times,serif" font-size="14.00" fill="#000000">Basil</text>
</g>
<!-- Basil&#45;&gt;Kayak (1) -->
<g id="edge27" class="edge">
<title>Basil&#45;&gt;Kayak (1)</title>
<path fill="none" stroke="#000000" d="M62.1711,-1965.0179C72.5145,-1986.5235 87.2152,-2017.9138 98.7912,-2045.895 107.6605,-2067.3335 97.7666,-2081.616 116.7912,-2094.895 130.6301,-2104.5544 148.2578,-2106.2351 164.9691,-2104.5225"/>
<polygon fill="#000000" stroke="#000000" points="165.8094,-2107.9381 175.2138,-2103.0586 164.8192,-2101.0084 165.8094,-2107.9381"/>
<text text-anchor="middle" x="120.2912" y="-2100.695" font-family="Times,serif" font-size="14.00" fill="#000000">1</text>
</g>
<!-- Basil&#45;&gt;Judo (1) -->
<g id="edge26" class="edge">
<title>Basil&#45;&gt;Judo (1)</title>
<path fill="none" stroke="#000000" d="M64.0078,-1963.8947C75.5788,-1985.0008 91.0404,-2016.411 98.7912,-2045.895 123.7336,-2140.7759 90.374,-2171.4142 116.7912,-2265.895 123.4815,-2289.8225 125.2176,-2297.3856 141.7912,-2315.895 150.9706,-2326.1466 162.7193,-2335.1563 174.2724,-2342.6005"/>
<polygon fill="#000000" stroke="#000000" points="172.6716,-2345.7249 183.0231,-2347.9826 176.3389,-2339.7624 172.6716,-2345.7249"/>
<text text-anchor="middle" x="120.2912" y="-2291.695" font-family="Times,serif" font-size="14.00" fill="#000000">2</text>
</g>
<!-- Basil&#45;&gt;Karate (3) -->
<g id="edge24" class="edge">
<title>Basil&#45;&gt;Karate (3)</title>
<path fill="none" stroke="#000000" d="M74.0771,-1923.7725C99.2065,-1908.3756 138.8406,-1884.0916 170.3337,-1864.7955"/>
<polygon fill="#000000" stroke="#000000" points="172.2835,-1867.7056 178.9817,-1859.4968 168.6264,-1861.7369 172.2835,-1867.7056"/>
<text text-anchor="middle" x="120.2912" y="-1899.695" font-family="Times,serif" font-size="14.00" fill="#000000">4</text>
</g>
<!-- Basil&#45;&gt;Natation (2) -->
<g id="edge28" class="edge">
<title>Basil&#45;&gt;Natation (2)</title>
<path fill="none" stroke="#000000" d="M75.0573,-1926.08C84.2458,-1920.0801 93.6058,-1911.9997 98.7912,-1901.895 121.2183,-1858.1923 106.8082,-1065.9912 116.7912,-1017.895 125.2376,-977.2023 151.1193,-938.1966 174.7399,-909.4932"/>
<polygon fill="#000000" stroke="#000000" points="177.5583,-911.5802 181.3258,-901.6778 172.2054,-907.0694 177.5583,-911.5802"/>
<text text-anchor="middle" x="120.2912" y="-1021.695" font-family="Times,serif" font-size="14.00" fill="#000000">0</text>
</g>
<!-- Football (3) -->
<g id="node23" class="node">
<title>Football (3)</title>
<ellipse fill="none" stroke="#000000" cx="219.1344" cy="-1660.895" rx="52.7911" ry="52.7911"/>
<text text-anchor="middle" x="219.1344" y="-1657.195" font-family="Times,serif" font-size="14.00" fill="#000000">Football (3)</text>
</g>
<!-- Basil&#45;&gt;Football (3) -->
<g id="edge25" class="edge">
<title>Basil&#45;&gt;Football (3)</title>
<path fill="none" stroke="#000000" d="M74.8581,-1925.6609C83.9029,-1919.6463 93.2147,-1911.6661 98.7912,-1901.895 135.1373,-1838.2102 80.5128,-1801.6184 116.7912,-1737.895 127.7105,-1718.7153 145.5478,-1702.833 163.297,-1690.5745"/>
<polygon fill="#000000" stroke="#000000" points="165.5539,-1693.2785 171.9724,-1684.8492 161.6983,-1687.4361 165.5539,-1693.2785"/>
<text text-anchor="middle" x="120.2912" y="-1741.695" font-family="Times,serif" font-size="14.00" fill="#000000">3</text>
</g>
<!-- Floriane -->
<g id="node24" class="node">
<title>Floriane</title>
<ellipse fill="none" stroke="#000000" cx="49.3956" cy="-636.895" rx="40.0939" ry="40.0939"/>
<text text-anchor="middle" x="49.3956" y="-633.195" font-family="Times,serif" font-size="14.00" fill="#000000">Floriane</text>
</g>
<!-- Floriane&#45;&gt;Karate (3) -->
<g id="edge29" class="edge">
<title>Floriane&#45;&gt;Karate (3)</title>
<path fill="none" stroke="#000000" d="M74.8559,-668.3333C84.2584,-681.8381 93.8256,-698.3116 98.7912,-714.895 115.3353,-770.1466 91.3765,-1701.1211 116.7912,-1752.895 127.9838,-1775.6962 148.8575,-1794.1972 168.8488,-1807.8158"/>
<polygon fill="#000000" stroke="#000000" points="167.0444,-1810.8175 177.3317,-1813.3516 170.87,-1804.9554 167.0444,-1810.8175"/>
<text text-anchor="middle" x="120.2912" y="-1765.695" font-family="Times,serif" font-size="14.00" fill="#000000">4</text>
</g>
<!-- Floriane&#45;&gt;PlancheAVoile (1) -->
<g id="edge30" class="edge">
<title>Floriane&#45;&gt;PlancheAVoile (1)</title>
<path fill="none" stroke="#000000" d="M74.6191,-668.406C83.9853,-681.922 93.5894,-698.3841 98.7912,-714.895 111.8931,-756.4814 92.7118,-1070.5458 116.7912,-1106.895 122.0243,-1114.7947 128.9041,-1121.4556 136.627,-1127.0645"/>
<polygon fill="#000000" stroke="#000000" points="135.0172,-1130.1941 145.3,-1132.7466 138.8534,-1124.3388 135.0172,-1130.1941"/>
<text text-anchor="middle" x="120.2912" y="-1118.695" font-family="Times,serif" font-size="14.00" fill="#000000">3</text>
</g>
<!-- Floriane&#45;&gt;Natation (2) -->
<g id="edge33" class="edge">
<title>Floriane&#45;&gt;Natation (2)</title>
<path fill="none" stroke="#000000" d="M73.7093,-669.402C86.5175,-686.5165 102.494,-707.8494 116.7912,-726.895 137.8413,-754.9364 161.365,-786.2012 180.5469,-811.6768"/>
<polygon fill="#000000" stroke="#000000" points="177.8021,-813.8503 186.6135,-819.7333 183.394,-809.6395 177.8021,-813.8503"/>
<text text-anchor="middle" x="120.2912" y="-738.695" font-family="Times,serif" font-size="14.00" fill="#000000">0</text>
</g>
<!-- Floriane&#45;&gt;Baseball (1) -->
<g id="edge32" class="edge">
<title>Floriane&#45;&gt;Baseball (1)</title>
<path fill="none" stroke="#000000" d="M90.0228,-636.1948C98.8476,-636.0699 108.1321,-635.9593 116.7912,-635.895 119.9023,-635.872 120.7333,-635.3225 123.7912,-635.895 136.0472,-638.1898 148.7539,-642.0099 160.7416,-646.3458"/>
<polygon fill="#000000" stroke="#000000" points="159.5875,-649.6512 170.1791,-649.9144 162.0634,-643.1036 159.5875,-649.6512"/>
<text text-anchor="middle" x="120.2912" y="-639.695" font-family="Times,serif" font-size="14.00" fill="#000000">1</text>
</g>
<!-- Cricket (1) -->
<g id="node25" class="node">
<title>Cricket (1)</title>
<ellipse fill="none" stroke="#000000" cx="219.1344" cy="-178.895" rx="49.2915" ry="49.2915"/>
<text text-anchor="middle" x="219.1344" y="-175.195" font-family="Times,serif" font-size="14.00" fill="#000000">Cricket (1)</text>
</g>
<!-- Floriane&#45;&gt;Cricket (1) -->
<g id="edge31" class="edge">
<title>Floriane&#45;&gt;Cricket (1)</title>
<path fill="none" stroke="#000000" d="M79.2651,-609.3309C87.0279,-600.4269 94.4283,-589.9703 98.7912,-578.895 115.0568,-537.6049 84.8618,-210.7164 116.7912,-179.895 128.4898,-168.6024 144.9017,-165.2552 161.1625,-165.616"/>
<polygon fill="#000000" stroke="#000000" points="161.0147,-169.1138 171.2241,-166.282 161.4771,-162.1291 161.0147,-169.1138"/>
<text text-anchor="middle" x="120.2912" y="-183.695" font-family="Times,serif" font-size="14.00" fill="#000000">2</text>
</g>
<!-- Skateboard (1) -->
<g id="node26" class="node">
<title>Skateboard (1)</title>
<ellipse fill="none" stroke="#000000" cx="219.1344" cy="-537.895" rx="63.0888" ry="63.0888"/>
<text text-anchor="middle" x="219.1344" y="-534.195" font-family="Times,serif" font-size="14.00" fill="#000000">Skateboard (1)</text>
</g>
<!-- Floriane&#45;&gt;Skateboard (1) -->
<g id="edge34" class="edge">
<title>Floriane&#45;&gt;Skateboard (1)</title>
<path fill="none" stroke="#000000" d="M75.5972,-606.0728C93.3457,-585.3426 114.0542,-561.5053 116.7912,-559.895 125.8721,-554.5527 136.0886,-550.5017 146.4606,-547.4312"/>
<polygon fill="#000000" stroke="#000000" points="147.6587,-550.7342 156.4205,-544.7777 145.8565,-543.9702 147.6587,-550.7342"/>
<text text-anchor="middle" x="120.2912" y="-563.695" font-family="Times,serif" font-size="14.00" fill="#000000">0</text>
</g>
<!-- Alexis -->
<g id="node27" class="node">
<title>Alexis</title>
<ellipse fill="none" stroke="#000000" cx="49.3956" cy="-1858.895" rx="33.5952" ry="33.5952"/>
<text text-anchor="middle" x="49.3956" y="-1855.195" font-family="Times,serif" font-size="14.00" fill="#000000">Alexis</text>
</g>
<!-- Alexis&#45;&gt;Kayak (1) -->
<g id="edge38" class="edge">
<title>Alexis&#45;&gt;Kayak (1)</title>
<path fill="none" stroke="#000000" d="M77.9731,-1877.0626C85.9924,-1883.5929 93.8597,-1891.6608 98.7912,-1900.895 131.6691,-1962.4593 72.2944,-2003.1257 116.7912,-2056.895 128.2506,-2070.7424 145.6238,-2078.6965 162.8199,-2083.2328"/>
<polygon fill="#000000" stroke="#000000" points="162.3502,-2086.7155 172.8782,-2085.5276 163.9073,-2079.8909 162.3502,-2086.7155"/>
<text text-anchor="middle" x="120.2912" y="-2066.695" font-family="Times,serif" font-size="14.00" fill="#000000">1</text>
</g>
<!-- Alexis&#45;&gt;Karate (3) -->
<g id="edge35" class="edge">
<title>Alexis&#45;&gt;Karate (3)</title>
<path fill="none" stroke="#000000" d="M82.9214,-1863.6657C93.7111,-1864.9888 105.7347,-1866.2411 116.7912,-1866.895 133.5659,-1867.8872 151.2351,-1864.2012 167.0824,-1859.0127"/>
<polygon fill="#000000" stroke="#000000" points="168.4282,-1862.2493 176.6899,-1855.6164 166.0951,-1855.6496 168.4282,-1862.2493"/>
<text text-anchor="middle" x="120.2912" y="-1870.695" font-family="Times,serif" font-size="14.00" fill="#000000">4</text>
</g>
<!-- Alexis&#45;&gt;Natation (2) -->
<g id="edge36" class="edge">
<title>Alexis&#45;&gt;Natation (2)</title>
<path fill="none" stroke="#000000" d="M62.899,-1827.7803C74.8643,-1798.505 91.5291,-1753.1258 98.7912,-1711.895 112.9423,-1631.5517 86.8444,-1053.7798 116.7912,-977.895 127.932,-949.6645 149.326,-923.8515 169.6851,-903.8659"/>
<polygon fill="#000000" stroke="#000000" points="172.2999,-906.2087 177.1181,-896.7728 167.4673,-901.1445 172.2999,-906.2087"/>
<text text-anchor="middle" x="120.2912" y="-981.695" font-family="Times,serif" font-size="14.00" fill="#000000">3</text>
</g>
<!-- Alexis&#45;&gt;Football (3) -->
<g id="edge37" class="edge">
<title>Alexis&#45;&gt;Football (3)</title>
<path fill="none" stroke="#000000" d="M55.4609,-1825.5954C63.5786,-1790.0136 81.2807,-1734.1212 116.7912,-1699.895 128.1901,-1688.9084 143.0003,-1680.9429 157.7969,-1675.1956"/>
<polygon fill="#000000" stroke="#000000" points="159.2465,-1678.3943 167.4825,-1671.7295 156.8879,-1671.8035 159.2465,-1678.3943"/>
<text text-anchor="middle" x="120.2912" y="-1703.695" font-family="Times,serif" font-size="14.00" fill="#000000">2</text>
</g>
<!-- Athletisme (1) -->
<g id="node28" class="node">
<title>Athletisme (1)</title>
<ellipse fill="none" stroke="#000000" cx="219.1344" cy="-1961.895" rx="62.2891" ry="62.2891"/>
<text text-anchor="middle" x="219.1344" y="-1958.195" font-family="Times,serif" font-size="14.00" fill="#000000">Athletisme (1)</text>
</g>
<!-- Alexis&#45;&gt;Athletisme (1) -->
<g id="edge39" class="edge">
<title>Alexis&#45;&gt;Athletisme (1)</title>
<path fill="none" stroke="#000000" d="M77.642,-1877.6092C85.5475,-1884.1156 93.4338,-1892.0325 98.7912,-1900.895 117.645,-1932.0837 88.3329,-1958.1284 116.7912,-1980.895 126.9239,-1989.0012 139.4241,-1991.0652 152.1665,-1989.8389"/>
<polygon fill="#000000" stroke="#000000" points="153.0753,-1993.2381 162.3969,-1988.2025 151.9696,-1986.3259 153.0753,-1993.2381"/>
<text text-anchor="middle" x="120.2912" y="-1988.695" font-family="Times,serif" font-size="14.00" fill="#000000">0</text>
</g>
<!-- Angele -->
<g id="node29" class="node">
<title>Angele</title>
<ellipse fill="none" stroke="#000000" cx="49.3956" cy="-759.895" rx="36.2938" ry="36.2938"/>
<text text-anchor="middle" x="49.3956" y="-756.195" font-family="Times,serif" font-size="14.00" fill="#000000">Angele</text>
</g>
<!-- Angele&#45;&gt;Natation (2) -->
<g id="edge40" class="edge">
<title>Angele&#45;&gt;Natation (2)</title>
<path fill="none" stroke="#000000" d="M80.5283,-778.7868C103.8458,-792.9362 136.3566,-812.6643 164.0318,-829.458"/>
<polygon fill="#000000" stroke="#000000" points="162.4648,-832.601 172.8296,-834.7966 166.0962,-826.6167 162.4648,-832.601"/>
<text text-anchor="middle" x="120.2912" y="-806.695" font-family="Times,serif" font-size="14.00" fill="#000000">0</text>
</g>
<!-- Florian -->
<g id="node30" class="node">
<title>Florian</title>
<ellipse fill="none" stroke="#000000" cx="49.3956" cy="-850.895" rx="36.2938" ry="36.2938"/>
<text text-anchor="middle" x="49.3956" y="-847.195" font-family="Times,serif" font-size="14.00" fill="#000000">Florian</text>
</g>
<!-- Florian&#45;&gt;Natation (2) -->
<g id="edge41" class="edge">
<title>Florian&#45;&gt;Natation (2)</title>
<path fill="none" stroke="#000000" d="M81.1017,-832.6196C94.113,-827.1391 109.4608,-823.2119 123.7912,-825.895 136.0472,-828.1898 148.7539,-832.0099 160.7416,-836.3458"/>
<polygon fill="#000000" stroke="#000000" points="159.5875,-839.6512 170.1791,-839.9144 162.0634,-833.1036 159.5875,-839.6512"/>
<text text-anchor="middle" x="120.2912" y="-829.695" font-family="Times,serif" font-size="14.00" fill="#000000">0</text>
</g>
<!-- Caroline -->
<g id="node31" class="node">
<title>Caroline</title>
<ellipse fill="none" stroke="#000000" cx="49.3956" cy="-108.895" rx="40.8928" ry="40.8928"/>
<text text-anchor="middle" x="49.3956" y="-105.195" font-family="Times,serif" font-size="14.00" fill="#000000">Caroline</text>
</g>
<!-- Caroline&#45;&gt;Basketball (10) -->
<g id="edge42" class="edge">
<title>Caroline&#45;&gt;Basketball (10)</title>
<path fill="none" stroke="#000000" d="M74.1383,-141.5958C82.6752,-153.8215 91.8319,-168.0952 98.7912,-181.895 109.6148,-203.3573 105.8252,-211.5052 116.7912,-232.895 132.4089,-263.3582 153.5199,-294.8048 172.5118,-320.7559"/>
<polygon fill="#000000" stroke="#000000" points="169.8338,-323.021 178.5938,-328.9802 175.462,-318.8589 169.8338,-323.021"/>
<text text-anchor="middle" x="120.2912" y="-249.695" font-family="Times,serif" font-size="14.00" fill="#000000">0</text>
</g>
<!-- Caroline&#45;&gt;Cricket (1) -->
<g id="edge43" class="edge">
<title>Caroline&#45;&gt;Cricket (1)</title>
<path fill="none" stroke="#000000" d="M89.4,-99.8538C100.8315,-98.946 113.0853,-99.6386 123.7912,-103.895 134.0166,-107.9604 133.3759,-113.805 141.7912,-120.895 150.9164,-128.5832 160.9382,-136.4744 170.6549,-143.8628"/>
<polygon fill="#000000" stroke="#000000" points="168.625,-146.7156 178.7187,-149.9354 172.8359,-141.1238 168.625,-146.7156"/>
<text text-anchor="middle" x="120.2912" y="-107.695" font-family="Times,serif" font-size="14.00" fill="#000000">0</text>
</g>
<!-- Anasthasia -->
<g id="node32" class="node">
<title>Anasthasia</title>
<ellipse fill="none" stroke="#000000" cx="49.3956" cy="-324.895" rx="49.2915" ry="49.2915"/>
<text text-anchor="middle" x="49.3956" y="-321.195" font-family="Times,serif" font-size="14.00" fill="#000000">Anasthasia</text>
</g>
<!-- Anasthasia&#45;&gt;Basketball (10) -->
<g id="edge44" class="edge">
<title>Anasthasia&#45;&gt;Basketball (10)</title>
<path fill="none" stroke="#000000" d="M99.0994,-326.9792C107.4427,-328.0642 115.9368,-329.6356 123.7912,-331.895 133.7111,-334.7487 143.8278,-338.6328 153.586,-342.964"/>
<polygon fill="#000000" stroke="#000000" points="152.2686,-346.2109 162.8139,-347.2344 155.2086,-339.8582 152.2686,-346.2109"/>
<text text-anchor="middle" x="120.2912" y="-335.695" font-family="Times,serif" font-size="14.00" fill="#000000">0</text>
</g>
<!-- Anasthasia&#45;&gt;Cricket (1) -->
<g id="edge45" class="edge">
<title>Anasthasia&#45;&gt;Cricket (1)</title>
<path fill="none" stroke="#000000" d="M81.253,-286.9967C87.9842,-277.3577 94.3777,-266.6643 98.7912,-255.895 118.2431,-208.432 77.7947,-175.2174 116.7912,-141.895 132.221,-128.7104 152.722,-133.1056 171.3214,-142.6486"/>
<polygon fill="#000000" stroke="#000000" points="169.8388,-145.8306 180.2688,-147.6925 173.2763,-139.7328 169.8388,-145.8306"/>
<text text-anchor="middle" x="120.2912" y="-145.695" font-family="Times,serif" font-size="14.00" fill="#000000">0</text>
</g>
<!-- Charlie -->
<g id="node33" class="node">
<title>Charlie</title>
<ellipse fill="none" stroke="#000000" cx="49.3956" cy="-1195.895" rx="36.2938" ry="36.2938"/>
<text text-anchor="middle" x="49.3956" y="-1192.195" font-family="Times,serif" font-size="14.00" fill="#000000">Charlie</text>
</g>
<!-- Charlie&#45;&gt;Badminton (20) -->
<g id="edge51" class="edge">
<title>Charlie&#45;&gt;Badminton (20)</title>
<path fill="none" stroke="#000000" d="M78.9619,-1217.32C100.1316,-1232.6605 129.4325,-1253.8932 155.7739,-1272.9813"/>
<polygon fill="#000000" stroke="#000000" points="154.057,-1276.0595 164.2082,-1279.0932 158.1645,-1270.3912 154.057,-1276.0595"/>
<text text-anchor="middle" x="120.2912" y="-1250.695" font-family="Times,serif" font-size="14.00" fill="#000000">0</text>
</g>
<!-- Charlie&#45;&gt;Dance (10) -->
<g id="edge49" class="edge">
<title>Charlie&#45;&gt;Dance (10)</title>
<path fill="none" stroke="#000000" d="M71.4651,-1225.2389C81.2237,-1239.5422 92.0022,-1257.4026 98.7912,-1274.895 114.8141,-1316.1789 95.7798,-1333.9129 116.7912,-1372.895 129.7746,-1396.9827 150.7974,-1418.64 170.4219,-1435.4312"/>
<polygon fill="#000000" stroke="#000000" points="168.2157,-1438.1486 178.141,-1441.8551 172.6934,-1432.768 168.2157,-1438.1486"/>
<text text-anchor="middle" x="120.2912" y="-1386.695" font-family="Times,serif" font-size="14.00" fill="#000000">1</text>
</g>
<!-- Charlie&#45;&gt;Natation (2) -->
<g id="edge48" class="edge">
<title>Charlie&#45;&gt;Natation (2)</title>
<path fill="none" stroke="#000000" d="M69.977,-1165.3678C80.5205,-1148.094 92.4461,-1125.6496 98.7912,-1103.895 106.279,-1078.2232 97.2768,-882.1789 116.7912,-863.895 127.4846,-853.876 141.9092,-850.2083 156.5513,-849.8396"/>
<polygon fill="#000000" stroke="#000000" points="156.6014,-853.3416 166.6797,-850.0739 156.7634,-846.3435 156.6014,-853.3416"/>
<text text-anchor="middle" x="120.2912" y="-867.695" font-family="Times,serif" font-size="14.00" fill="#000000">2</text>
</g>
<!-- Charlie&#45;&gt;Volley (1) -->
<g id="edge46" class="edge">
<title>Charlie&#45;&gt;Volley (1)</title>
<path fill="none" stroke="#000000" d="M67.0604,-1163.835C79.5843,-1142.4246 97.5317,-1114.2087 116.7912,-1091.895 126.462,-1080.6907 130.2676,-1079.183 141.7912,-1069.895 151.3286,-1062.208 161.7587,-1054.2407 171.7846,-1046.7864"/>
<polygon fill="#000000" stroke="#000000" points="174.1147,-1049.4168 180.0829,-1040.6629 169.9583,-1043.7843 174.1147,-1049.4168"/>
<text text-anchor="middle" x="120.2912" y="-1095.695" font-family="Times,serif" font-size="14.00" fill="#000000">2</text>
</g>
<!-- Charlie&#45;&gt;Football (3) -->
<g id="edge50" class="edge">
<title>Charlie&#45;&gt;Football (3)</title>
<path fill="none" stroke="#000000" d="M72.1534,-1224.5367C82.1923,-1238.8253 93.007,-1256.8752 98.7912,-1274.895 118.3899,-1335.9515 89.7831,-1504.7352 116.7912,-1562.895 127.9922,-1587.0154 147.9836,-1608.2403 167.3438,-1624.7139"/>
<polygon fill="#000000" stroke="#000000" points="165.3393,-1627.597 175.2854,-1631.2475 169.7867,-1622.1913 165.3393,-1627.597"/>
<text text-anchor="middle" x="120.2912" y="-1577.695" font-family="Times,serif" font-size="14.00" fill="#000000">0</text>
</g>
<!-- Charlie&#45;&gt;Cricket (1) -->
<g id="edge47" class="edge">
<title>Charlie&#45;&gt;Cricket (1)</title>
<path fill="none" stroke="#000000" d="M70.1894,-1165.9102C80.9401,-1148.6222 92.9967,-1125.9901 98.7912,-1103.895 111.3367,-1056.0582 87.6254,-253.8338 116.7912,-213.895 127.1134,-199.7602 143.4859,-191.2784 160.1348,-186.207"/>
<polygon fill="#000000" stroke="#000000" points="161.1639,-189.5549 169.9256,-183.5981 159.3616,-182.7909 161.1639,-189.5549"/>
<text text-anchor="middle" x="120.2912" y="-217.695" font-family="Times,serif" font-size="14.00" fill="#000000">2</text>
</g>
<!-- Bertrand -->
<g id="node34" class="node">
<title>Bertrand</title>
<ellipse fill="none" stroke="#000000" cx="49.3956" cy="-1660.895" rx="41.6928" ry="41.6928"/>
<text text-anchor="middle" x="49.3956" y="-1657.195" font-family="Times,serif" font-size="14.00" fill="#000000">Bertrand</text>
</g>
<!-- Bertrand&#45;&gt;Badminton (20) -->
<g id="edge58" class="edge">
<title>Bertrand&#45;&gt;Badminton (20)</title>
<path fill="none" stroke="#000000" d="M62.4414,-1621.0368C73.6774,-1585.2467 89.508,-1531.0769 98.7912,-1482.895 105.6858,-1447.1108 89.7643,-1344.3407 116.7912,-1319.895 124.0777,-1313.3045 132.991,-1309.5142 142.4884,-1307.6221"/>
<polygon fill="#000000" stroke="#000000" points="143.0947,-1311.0726 152.5535,-1306.2996 142.1827,-1304.1323 143.0947,-1311.0726"/>
<text text-anchor="middle" x="120.2912" y="-1323.695" font-family="Times,serif" font-size="14.00" fill="#000000">0</text>
</g>
<!-- Bertrand&#45;&gt;Dance (10) -->
<g id="edge54" class="edge">
<title>Bertrand&#45;&gt;Dance (10)</title>
<path fill="none" stroke="#000000" d="M58.3065,-1620.2234C67.6261,-1586.5524 85.4013,-1539.5831 116.7912,-1509.895 128.9177,-1498.4261 144.7612,-1490.2369 160.3468,-1484.4267"/>
<polygon fill="#000000" stroke="#000000" points="161.6668,-1487.674 169.9821,-1481.1085 159.3874,-1481.0554 161.6668,-1487.674"/>
<text text-anchor="middle" x="120.2912" y="-1513.695" font-family="Times,serif" font-size="14.00" fill="#000000">2</text>
</g>
<!-- Bertrand&#45;&gt;LancerDePoids (1) -->
<g id="edge52" class="edge">
<title>Bertrand&#45;&gt;LancerDePoids (1)</title>
<path fill="none" stroke="#000000" d="M64.8384,-1699.6826C76.3954,-1730.6139 91.4258,-1775.3232 98.7912,-1815.895 105.8458,-1854.755 96.1729,-2137.209 116.7912,-2170.895 122.4884,-2180.2029 130.2388,-2188.1905 138.9427,-2195.0044"/>
<polygon fill="#000000" stroke="#000000" points="137.0137,-2197.9284 147.1726,-2200.9363 141.1068,-2192.2498 137.0137,-2197.9284"/>
<text text-anchor="middle" x="120.2912" y="-2181.695" font-family="Times,serif" font-size="14.00" fill="#000000">4</text>
</g>
<!-- Bertrand&#45;&gt;Kayak (1) -->
<g id="edge55" class="edge">
<title>Bertrand&#45;&gt;Kayak (1)</title>
<path fill="none" stroke="#000000" d="M64.3362,-1699.7796C75.6161,-1730.7644 90.5191,-1775.4983 98.7912,-1815.895 115.6299,-1898.1264 83.8373,-1926.6968 116.7912,-2003.895 127.1918,-2028.2595 148.8167,-2047.8543 169.5203,-2062.0624"/>
<polygon fill="#000000" stroke="#000000" points="167.7136,-2065.0632 177.9936,-2067.6268 171.556,-2059.212 167.7136,-2065.0632"/>
<text text-anchor="middle" x="120.2912" y="-2019.695" font-family="Times,serif" font-size="14.00" fill="#000000">1</text>
</g>
<!-- Bertrand&#45;&gt;Karate (3) -->
<g id="edge56" class="edge">
<title>Bertrand&#45;&gt;Karate (3)</title>
<path fill="none" stroke="#000000" d="M53.6243,-1702.4027C60.0611,-1741.9656 76.238,-1799.7029 116.7912,-1828.895 129.8256,-1838.2778 146.3866,-1841.7916 162.3685,-1842.4081"/>
<polygon fill="#000000" stroke="#000000" points="162.738,-1845.9087 172.7445,-1842.4273 162.7511,-1838.9087 162.738,-1845.9087"/>
<text text-anchor="middle" x="120.2912" y="-1836.695" font-family="Times,serif" font-size="14.00" fill="#000000">0</text>
</g>
<!-- Bertrand&#45;&gt;Baseball (1) -->
<g id="edge53" class="edge">
<title>Bertrand&#45;&gt;Baseball (1)</title>
<path fill="none" stroke="#000000" d="M63.3566,-1621.5614C75.2807,-1585.891 91.6092,-1531.5967 98.7912,-1482.895 102.0868,-1460.5479 100.6427,-685.69 116.7912,-669.895 127.4775,-659.4428 142.1866,-656.1812 157.1224,-656.514"/>
<polygon fill="#000000" stroke="#000000" points="157.2222,-660.0307 167.4522,-657.2744 157.7362,-653.0496 157.2222,-660.0307"/>
<text text-anchor="middle" x="120.2912" y="-673.695" font-family="Times,serif" font-size="14.00" fill="#000000">3</text>
</g>
<!-- Bertrand&#45;&gt;Football (3) -->
<g id="edge57" class="edge">
<title>Bertrand&#45;&gt;Football (3)</title>
<path fill="none" stroke="#000000" d="M91.3535,-1660.895C110.931,-1660.895 134.6425,-1660.895 156.2979,-1660.895"/>
<polygon fill="#000000" stroke="#000000" points="156.4074,-1664.3951 166.4074,-1660.895 156.4073,-1657.3951 156.4074,-1664.3951"/>
<text text-anchor="middle" x="120.2912" y="-1664.695" font-family="Times,serif" font-size="14.00" fill="#000000">0</text>
</g>
<!-- Dupont -->
<g id="node35" class="node">
<title>Dupont</title>
<ellipse fill="none" stroke="#000000" cx="49.3956" cy="-1436.895" rx="37.0935" ry="37.0935"/>
<text text-anchor="middle" x="49.3956" y="-1433.195" font-family="Times,serif" font-size="14.00" fill="#000000">Dupont</text>
</g>
<!-- Dupont&#45;&gt;Badminton (20) -->
<g id="edge64" class="edge">
<title>Dupont&#45;&gt;Badminton (20)</title>
<path fill="none" stroke="#000000" d="M74.2682,-1409.4116C83.2362,-1398.1779 92.6495,-1384.6104 98.7912,-1370.895 115.2846,-1334.0629 85.5543,-1307.4469 116.7912,-1281.895 127.7352,-1272.9428 141.0266,-1272.3865 154.3576,-1276.0822"/>
<polygon fill="#000000" stroke="#000000" points="153.4439,-1279.4704 164.0387,-1279.4656 155.7533,-1272.8623 153.4439,-1279.4704"/>
<text text-anchor="middle" x="120.2912" y="-1285.695" font-family="Times,serif" font-size="14.00" fill="#000000">0</text>
</g>
<!-- Dupont&#45;&gt;Dance (10) -->
<g id="edge61" class="edge">
<title>Dupont&#45;&gt;Dance (10)</title>
<path fill="none" stroke="#000000" d="M85.8088,-1444.1889C107.384,-1448.5106 135.2423,-1454.0908 159.9103,-1459.032"/>
<polygon fill="#000000" stroke="#000000" points="159.4073,-1462.5007 169.9,-1461.033 160.7822,-1455.637 159.4073,-1462.5007"/>
<text text-anchor="middle" x="120.2912" y="-1454.695" font-family="Times,serif" font-size="14.00" fill="#000000">2</text>
</g>
<!-- Dupont&#45;&gt;Karate (3) -->
<g id="edge59" class="edge">
<title>Dupont&#45;&gt;Karate (3)</title>
<path fill="none" stroke="#000000" d="M61.5013,-1472.2299C72.8906,-1506.8814 89.5376,-1561.419 98.7912,-1609.895 106.3703,-1649.5987 92.9143,-1758.2803 116.7912,-1790.895 128.0213,-1806.2347 145.7162,-1816.2815 163.2556,-1822.8384"/>
<polygon fill="#000000" stroke="#000000" points="162.3473,-1826.2263 172.9417,-1826.1336 164.6018,-1819.5993 162.3473,-1826.2263"/>
<text text-anchor="middle" x="120.2912" y="-1800.695" font-family="Times,serif" font-size="14.00" fill="#000000">4</text>
</g>
<!-- Dupont&#45;&gt;Basketball (10) -->
<g id="edge60" class="edge">
<title>Dupont&#45;&gt;Basketball (10)</title>
<path fill="none" stroke="#000000" d="M75.3143,-1410.2463C84.5382,-1399.0216 93.8553,-1385.2404 98.7912,-1370.895 130.8636,-1277.6826 78.5103,-574.7343 116.7912,-483.895 126.0045,-462.0322 142.1744,-442.2466 158.9777,-425.9445"/>
<polygon fill="#000000" stroke="#000000" points="161.8065,-428.0911 166.72,-418.7045 157.0253,-422.9783 161.8065,-428.0911"/>
<text text-anchor="middle" x="120.2912" y="-487.695" font-family="Times,serif" font-size="14.00" fill="#000000">3</text>
</g>
<!-- Dupont&#45;&gt;Natation (2) -->
<g id="edge62" class="edge">
<title>Dupont&#45;&gt;Natation (2)</title>
<path fill="none" stroke="#000000" d="M75.1561,-1410.1909C84.3582,-1398.9586 93.7018,-1385.1866 98.7912,-1370.895 130.9507,-1280.5892 72.2052,-1024.7565 116.7912,-939.895 126.9674,-920.5265 144.4409,-904.6714 162.0986,-892.4903"/>
<polygon fill="#000000" stroke="#000000" points="164.3145,-895.2222 170.7505,-886.8063 160.471,-889.3718 164.3145,-895.2222"/>
<text text-anchor="middle" x="120.2912" y="-943.695" font-family="Times,serif" font-size="14.00" fill="#000000">1</text>
</g>
<!-- Dupont&#45;&gt;Football (3) -->
<g id="edge63" class="edge">
<title>Dupont&#45;&gt;Football (3)</title>
<path fill="none" stroke="#000000" d="M57.1799,-1473.4358C66.3548,-1509.2876 84.5932,-1563.8284 116.7912,-1600.895 129.0423,-1614.9985 145.4596,-1626.6401 161.5531,-1635.7939"/>
<polygon fill="#000000" stroke="#000000" points="159.975,-1638.9198 170.432,-1640.6232 163.3197,-1632.7705 159.975,-1638.9198"/>
<text text-anchor="middle" x="120.2912" y="-1610.695" font-family="Times,serif" font-size="14.00" fill="#000000">0</text>
</g>
</g>
</svg>
