<?xml version="1.0" encoding="UTF-8" standalone="no"?>
<!DOCTYPE svg PUBLIC "-//W3C//DTD SVG 1.1//EN"
 "http://www.w3.org/Graphics/SVG/1.1/DTD/svg11.dtd">
<!-- Generated by graphviz version 2.43.20190912.0211 (20190912.0211)
 -->
<!-- Title: finite_state_machine Pages: 1 -->
<svg width="340pt" height="2037pt"
 viewBox="0.00 0.00 339.97 2037.49" xmlns="http://www.w3.org/2000/svg" xmlns:xlink="http://www.w3.org/1999/xlink">
<g id="graph0" class="graph" transform="scale(1 1) rotate(0) translate(4 2033.49)">
<title>finite_state_machine</title>
<polygon fill="white" stroke="transparent" points="-4,4 -4,-2033.49 335.97,-2033.49 335.97,4 -4,4"/>
<!-- Floriane -->
<g id="node1" class="node">
<title>Floriane</title>
<ellipse fill="none" stroke="black" cx="61.74" cy="-343.8" rx="49.29" ry="49.29"/>
<text text-anchor="middle" x="61.74" y="-340.1" font-family="Times,serif" font-size="14.00">Floriane</text>
</g>
<!-- Karate (3) -->
<g id="node2" class="node">
<title>Karate (3)</title>
<ellipse fill="none" stroke="black" cx="250.73" cy="-489.8" rx="57.69" ry="57.69"/>
<text text-anchor="middle" x="250.73" y="-486.1" font-family="Times,serif" font-size="14.00">Karate (3)</text>
</g>
<!-- Floriane&#45;&gt;Karate (3) -->
<g id="edge1" class="edge">
<title>Floriane&#45;&gt;Karate (3)</title>
<path fill="none" stroke="red" stroke-width="3" d="M101.49,-374.05C128.98,-395.52 166.23,-424.6 196.51,-448.24"/>
<polygon fill="red" stroke="red" stroke-width="3" points="194.42,-451.05 204.45,-454.44 198.72,-445.53 194.42,-451.05"/>
<text text-anchor="middle" x="146.49" y="-416.6" font-family="Times,serif" font-size="14.00">4</text>
</g>
<!-- Skateboard (1) -->
<g id="node3" class="node">
<title>Skateboard (1)</title>
<ellipse fill="none" stroke="black" cx="250.73" cy="-334.8" rx="79.09" ry="79.09"/>
<text text-anchor="middle" x="250.73" y="-331.1" font-family="Times,serif" font-size="14.00">Skateboard (1)</text>
</g>
<!-- Floriane&#45;&gt;Skateboard (1) -->
<g id="edge2" class="edge">
<title>Floriane&#45;&gt;Skateboard (1)</title>
<path fill="none" stroke="green" d="M111.39,-341.46C126.67,-340.72 144.06,-339.88 161.22,-339.06"/>
<polygon fill="green" stroke="green" points="161.46,-342.55 171.28,-338.57 161.12,-335.56 161.46,-342.55"/>
<text text-anchor="middle" x="146.49" y="-344.6" font-family="Times,serif" font-size="14.00">0</text>
</g>
<!-- Natation (2) -->
<g id="node4" class="node">
<title>Natation (2)</title>
<ellipse fill="none" stroke="black" cx="250.73" cy="-162.8" rx="66.89" ry="66.89"/>
<text text-anchor="middle" x="250.73" y="-159.1" font-family="Times,serif" font-size="14.00">Natation (2)</text>
</g>
<!-- Floriane&#45;&gt;Natation (2) -->
<g id="edge3" class="edge">
<title>Floriane&#45;&gt;Natation (2)</title>
<path fill="none" stroke="green" d="M97.92,-309.75C125.14,-283.4 163.36,-246.41 194.63,-216.13"/>
<polygon fill="green" stroke="green" points="197.26,-218.46 202.01,-208.99 192.39,-213.43 197.26,-218.46"/>
<text text-anchor="middle" x="146.49" y="-268.6" font-family="Times,serif" font-size="14.00">0</text>
</g>
<!-- Florian -->
<g id="node5" class="node">
<title>Florian</title>
<ellipse fill="none" stroke="black" cx="61.74" cy="-231.8" rx="44.39" ry="44.39"/>
<text text-anchor="middle" x="61.74" y="-228.1" font-family="Times,serif" font-size="14.00">Florian</text>
</g>
<!-- Florian&#45;&gt;Natation (2) -->
<g id="edge4" class="edge">
<title>Florian&#45;&gt;Natation (2)</title>
<path fill="none" stroke="green" d="M103.78,-216.65C125.51,-208.63 152.84,-198.55 177.96,-189.28"/>
<polygon fill="green" stroke="green" points="179.29,-192.52 187.46,-185.78 176.86,-185.96 179.29,-192.52"/>
<text text-anchor="middle" x="146.49" y="-205.6" font-family="Times,serif" font-size="14.00">0</text>
</g>
<!-- Bernard -->
<g id="node6" class="node">
<title>Bernard</title>
<ellipse fill="none" stroke="black" cx="61.74" cy="-613.8" rx="48.99" ry="48.99"/>
<text text-anchor="middle" x="61.74" y="-610.1" font-family="Times,serif" font-size="14.00">Bernard</text>
</g>
<!-- Gym (1) -->
<g id="node7" class="node">
<title>Gym (1)</title>
<ellipse fill="none" stroke="black" cx="250.73" cy="-613.8" rx="48.19" ry="48.19"/>
<text text-anchor="middle" x="250.73" y="-610.1" font-family="Times,serif" font-size="14.00">Gym (1)</text>
</g>
<!-- Bernard&#45;&gt;Gym (1) -->
<g id="edge5" class="edge">
<title>Bernard&#45;&gt;Gym (1)</title>
<path fill="none" stroke="red" stroke-width="3" d="M110.9,-613.8C135.74,-613.8 166.21,-613.8 192.27,-613.8"/>
<polygon fill="red" stroke="red" stroke-width="3" points="192.39,-617.3 202.39,-613.8 192.39,-610.3 192.39,-617.3"/>
<text text-anchor="middle" x="146.49" y="-617.6" font-family="Times,serif" font-size="14.00">3</text>
</g>
<!-- Carole -->
<g id="node8" class="node">
<title>Carole</title>
<ellipse fill="none" stroke="black" cx="61.74" cy="-733.8" rx="40.89" ry="40.89"/>
<text text-anchor="middle" x="61.74" y="-730.1" font-family="Times,serif" font-size="14.00">Carole</text>
</g>
<!-- Volley (1) -->
<g id="node9" class="node">
<title>Volley (1)</title>
<ellipse fill="none" stroke="black" cx="250.73" cy="-733.8" rx="53.89" ry="53.89"/>
<text text-anchor="middle" x="250.73" y="-730.1" font-family="Times,serif" font-size="14.00">Volley (1)</text>
</g>
<!-- Carole&#45;&gt;Volley (1) -->
<g id="edge6" class="edge">
<title>Carole&#45;&gt;Volley (1)</title>
<path fill="none" stroke="orange" stroke-width="2" d="M102.86,-733.8C127.12,-733.8 158.6,-733.8 186.19,-733.8"/>
<polygon fill="orange" stroke="orange" stroke-width="2" points="186.55,-737.3 196.55,-733.8 186.55,-730.3 186.55,-737.3"/>
<text text-anchor="middle" x="146.49" y="-737.6" font-family="Times,serif" font-size="14.00">2</text>
</g>
<!-- Clotilde -->
<g id="node10" class="node">
<title>Clotilde</title>
<ellipse fill="none" stroke="black" cx="61.74" cy="-866.8" rx="46.59" ry="46.59"/>
<text text-anchor="middle" x="61.74" y="-863.1" font-family="Times,serif" font-size="14.00">Clotilde</text>
</g>
<!-- Dance (10) -->
<g id="node11" class="node">
<title>Dance (10)</title>
<ellipse fill="none" stroke="black" cx="250.73" cy="-866.8" rx="61.19" ry="61.19"/>
<text text-anchor="middle" x="250.73" y="-863.1" font-family="Times,serif" font-size="14.00">Dance (10)</text>
</g>
<!-- Clotilde&#45;&gt;Dance (10) -->
<g id="edge7" class="edge">
<title>Clotilde&#45;&gt;Dance (10)</title>
<path fill="none" stroke="orange" stroke-width="2" d="M108.97,-866.8C130.16,-866.8 155.76,-866.8 179.28,-866.8"/>
<polygon fill="orange" stroke="orange" stroke-width="2" points="179.56,-870.3 189.56,-866.8 179.56,-863.3 179.56,-870.3"/>
<text text-anchor="middle" x="146.49" y="-870.6" font-family="Times,serif" font-size="14.00">1</text>
</g>
<!-- Martin -->
<g id="node12" class="node">
<title>Martin</title>
<ellipse fill="none" stroke="black" cx="61.74" cy="-1516.8" rx="42.49" ry="42.49"/>
<text text-anchor="middle" x="61.74" y="-1513.1" font-family="Times,serif" font-size="14.00">Martin</text>
</g>
<!-- Basketball (10) -->
<g id="node13" class="node">
<title>Basketball (10)</title>
<ellipse fill="none" stroke="black" cx="250.73" cy="-1290.8" rx="81.49" ry="81.49"/>
<text text-anchor="middle" x="250.73" y="-1287.1" font-family="Times,serif" font-size="14.00">Basketball (10)</text>
</g>
<!-- Martin&#45;&gt;Basketball (10) -->
<g id="edge8" class="edge">
<title>Martin&#45;&gt;Basketball (10)</title>
<path fill="none" stroke="orange" stroke-width="2" d="M95.92,-1491.47C105.26,-1483.67 115.15,-1474.78 123.49,-1465.8 151.46,-1435.69 178.64,-1399.25 200.57,-1367.44"/>
<polygon fill="orange" stroke="orange" stroke-width="2" points="203.57,-1369.26 206.32,-1359.03 197.79,-1365.31 203.57,-1369.26"/>
<text text-anchor="middle" x="146.49" y="-1448.6" font-family="Times,serif" font-size="14.00">1</text>
</g>
<!-- Mael -->
<g id="node14" class="node">
<title>Mael</title>
<ellipse fill="none" stroke="black" cx="61.74" cy="-1422.8" rx="33.6" ry="33.6"/>
<text text-anchor="middle" x="61.74" y="-1419.1" font-family="Times,serif" font-size="14.00">Mael</text>
</g>
<!-- Mael&#45;&gt;Basketball (10) -->
<g id="edge9" class="edge">
<title>Mael&#45;&gt;Basketball (10)</title>
<path fill="none" stroke="orange" stroke-width="2" d="M90.02,-1404.06C100.5,-1396.83 112.58,-1388.46 123.49,-1380.8 140.53,-1368.83 158.79,-1355.89 175.99,-1343.64"/>
<polygon fill="orange" stroke="orange" stroke-width="2" points="178.22,-1346.34 184.34,-1337.69 174.16,-1340.64 178.22,-1346.34"/>
<text text-anchor="middle" x="146.49" y="-1370.6" font-family="Times,serif" font-size="14.00">1</text>
</g>
<!-- Axel -->
<g id="node15" class="node">
<title>Axel</title>
<ellipse fill="none" stroke="black" cx="61.74" cy="-1340.8" rx="30.59" ry="30.59"/>
<text text-anchor="middle" x="61.74" y="-1337.1" font-family="Times,serif" font-size="14.00">Axel</text>
</g>
<!-- Axel&#45;&gt;Basketball (10) -->
<g id="edge10" class="edge">
<title>Axel&#45;&gt;Basketball (10)</title>
<path fill="none" stroke="orange" stroke-width="2" d="M91.55,-1333.09C110.63,-1327.99 136.75,-1321.01 162.27,-1314.18"/>
<polygon fill="orange" stroke="orange" stroke-width="2" points="163.25,-1317.54 172.01,-1311.58 161.44,-1310.78 163.25,-1317.54"/>
<text text-anchor="middle" x="146.49" y="-1322.6" font-family="Times,serif" font-size="14.00">1</text>
</g>
<!-- Aurelien -->
<g id="node16" class="node">
<title>Aurelien</title>
<ellipse fill="none" stroke="black" cx="61.74" cy="-1241.8" rx="50.09" ry="50.09"/>
<text text-anchor="middle" x="61.74" y="-1238.1" font-family="Times,serif" font-size="14.00">Aurelien</text>
</g>
<!-- Aurelien&#45;&gt;Basketball (10) -->
<g id="edge11" class="edge">
<title>Aurelien&#45;&gt;Basketball (10)</title>
<path fill="none" stroke="orange" stroke-width="2" d="M110.41,-1254.29C126.21,-1258.43 144.32,-1263.17 162.14,-1267.84"/>
<polygon fill="orange" stroke="orange" stroke-width="2" points="161.44,-1271.28 172,-1270.43 163.21,-1264.51 161.44,-1271.28"/>
<text text-anchor="middle" x="146.49" y="-1269.6" font-family="Times,serif" font-size="14.00">1</text>
</g>
<!-- Charlie -->
<g id="node17" class="node">
<title>Charlie</title>
<ellipse fill="none" stroke="black" cx="61.74" cy="-1851.8" rx="44.39" ry="44.39"/>
<text text-anchor="middle" x="61.74" y="-1848.1" font-family="Times,serif" font-size="14.00">Charlie</text>
</g>
<!-- Football (3) -->
<g id="node18" class="node">
<title>Football (3)</title>
<ellipse fill="none" stroke="black" cx="250.73" cy="-1744.8" rx="63.89" ry="63.89"/>
<text text-anchor="middle" x="250.73" y="-1741.1" font-family="Times,serif" font-size="14.00">Football (3)</text>
</g>
<!-- Charlie&#45;&gt;Football (3) -->
<g id="edge12" class="edge">
<title>Charlie&#45;&gt;Football (3)</title>
<path fill="none" stroke="green" d="M100.58,-1830.14C125.15,-1816.09 157.77,-1797.42 186.24,-1781.13"/>
<polygon fill="green" stroke="green" points="187.99,-1784.16 194.93,-1776.16 184.51,-1778.08 187.99,-1784.16"/>
<text text-anchor="middle" x="146.49" y="-1808.6" font-family="Times,serif" font-size="14.00">0</text>
</g>
<!-- Anasthasia -->
<g id="node19" class="node">
<title>Anasthasia</title>
<ellipse fill="none" stroke="black" cx="61.74" cy="-1111.8" rx="61.99" ry="61.99"/>
<text text-anchor="middle" x="61.74" y="-1108.1" font-family="Times,serif" font-size="14.00">Anasthasia</text>
</g>
<!-- Anasthasia&#45;&gt;Basketball (10) -->
<g id="edge13" class="edge">
<title>Anasthasia&#45;&gt;Basketball (10)</title>
<path fill="none" stroke="green" d="M107.06,-1154.22C129.96,-1176.14 158.37,-1203.34 183.79,-1227.67"/>
<polygon fill="green" stroke="green" points="181.58,-1230.4 191.22,-1234.79 186.42,-1225.34 181.58,-1230.4"/>
<text text-anchor="middle" x="146.49" y="-1200.6" font-family="Times,serif" font-size="14.00">0</text>
</g>
<!-- Caroline -->
<g id="node20" class="node">
<title>Caroline</title>
<ellipse fill="none" stroke="black" cx="61.74" cy="-981.8" rx="50.09" ry="50.09"/>
<text text-anchor="middle" x="61.74" y="-978.1" font-family="Times,serif" font-size="14.00">Caroline</text>
</g>
<!-- Caroline&#45;&gt;Basketball (10) -->
<g id="edge14" class="edge">
<title>Caroline&#45;&gt;Basketball (10)</title>
<path fill="none" stroke="green" d="M100.16,-1014.3C108.41,-1022.47 116.7,-1031.56 123.49,-1040.8 161.1,-1091.97 193.2,-1156.01 215.61,-1206.46"/>
<polygon fill="green" stroke="green" points="212.46,-1207.97 219.69,-1215.72 218.86,-1205.15 212.46,-1207.97"/>
<text text-anchor="middle" x="146.49" y="-1082.6" font-family="Times,serif" font-size="14.00">0</text>
</g>
<!-- Angele -->
<g id="node21" class="node">
<title>Angele</title>
<ellipse fill="none" stroke="black" cx="61.74" cy="-127.8" rx="42.49" ry="42.49"/>
<text text-anchor="middle" x="61.74" y="-124.1" font-family="Times,serif" font-size="14.00">Angele</text>
</g>
<!-- Angele&#45;&gt;Natation (2) -->
<g id="edge15" class="edge">
<title>Angele&#45;&gt;Natation (2)</title>
<path fill="none" stroke="green" d="M103.32,-135.39C124.18,-139.3 150.29,-144.18 174.65,-148.74"/>
<polygon fill="green" stroke="green" points="174.14,-152.21 184.61,-150.61 175.42,-145.33 174.14,-152.21"/>
<text text-anchor="middle" x="146.49" y="-148.6" font-family="Times,serif" font-size="14.00">0</text>
</g>
<!-- Alexis -->
<g id="node22" class="node">
<title>Alexis</title>
<ellipse fill="none" stroke="black" cx="61.74" cy="-1952.8" rx="38.19" ry="38.19"/>
<text text-anchor="middle" x="61.74" y="-1949.1" font-family="Times,serif" font-size="14.00">Alexis</text>
</g>
<!-- Athletisme (1) -->
<g id="node23" class="node">
<title>Athletisme (1)</title>
<ellipse fill="none" stroke="black" cx="250.73" cy="-1952.8" rx="76.89" ry="76.89"/>
<text text-anchor="middle" x="250.73" y="-1949.1" font-family="Times,serif" font-size="14.00">Athletisme (1)</text>
</g>
<!-- Alexis&#45;&gt;Athletisme (1) -->
<g id="edge16" class="edge">
<title>Alexis&#45;&gt;Athletisme (1)</title>
<path fill="none" stroke="green" d="M100.13,-1952.8C118.43,-1952.8 141.28,-1952.8 163.58,-1952.8"/>
<polygon fill="green" stroke="green" points="163.76,-1956.3 173.76,-1952.8 163.76,-1949.3 163.76,-1956.3"/>
<text text-anchor="middle" x="146.49" y="-1956.6" font-family="Times,serif" font-size="14.00">0</text>
</g>
<!-- Basil -->
<g id="node24" class="node">
<title>Basil</title>
<ellipse fill="none" stroke="black" cx="61.74" cy="-33.8" rx="33.6" ry="33.6"/>
<text text-anchor="middle" x="61.74" y="-30.1" font-family="Times,serif" font-size="14.00">Basil</text>
</g>
<!-- Basil&#45;&gt;Natation (2) -->
<g id="edge17" class="edge">
<title>Basil&#45;&gt;Natation (2)</title>
<path fill="none" stroke="green" d="M89.93,-52.55C115.24,-70.01 153.9,-96.68 186.85,-119.42"/>
<polygon fill="green" stroke="green" points="184.87,-122.3 195.09,-125.1 188.85,-116.54 184.87,-122.3"/>
<text text-anchor="middle" x="146.49" y="-98.6" font-family="Times,serif" font-size="14.00">0</text>
</g>
<!-- Dupont -->
<g id="node25" class="node">
<title>Dupont</title>
<ellipse fill="none" stroke="black" cx="61.74" cy="-1744.8" rx="44.69" ry="44.69"/>
<text text-anchor="middle" x="61.74" y="-1741.1" font-family="Times,serif" font-size="14.00">Dupont</text>
</g>
<!-- Dupont&#45;&gt;Football (3) -->
<g id="edge18" class="edge">
<title>Dupont&#45;&gt;Football (3)</title>
<path fill="none" stroke="green" d="M107.06,-1744.8C127.85,-1744.8 153.18,-1744.8 176.69,-1744.8"/>
<polygon fill="green" stroke="green" points="176.99,-1748.3 186.99,-1744.8 176.99,-1741.3 176.99,-1748.3"/>
<text text-anchor="middle" x="146.49" y="-1748.6" font-family="Times,serif" font-size="14.00">0</text>
</g>
<!-- Bertrand -->
<g id="node26" class="node">
<title>Bertrand</title>
<ellipse fill="none" stroke="black" cx="61.74" cy="-1629.8" rx="52.79" ry="52.79"/>
<text text-anchor="middle" x="61.74" y="-1626.1" font-family="Times,serif" font-size="14.00">Bertrand</text>
</g>
<!-- Bertrand&#45;&gt;Football (3) -->
<g id="edge19" class="edge">
<title>Bertrand&#45;&gt;Football (3)</title>
<path fill="none" stroke="green" d="M107.06,-1657.05C131.02,-1671.79 161.02,-1690.24 187.31,-1706.41"/>
<polygon fill="green" stroke="green" points="185.72,-1709.54 196.07,-1711.8 189.39,-1703.58 185.72,-1709.54"/>
<text text-anchor="middle" x="146.49" y="-1688.6" font-family="Times,serif" font-size="14.00">0</text>
</g>
</g>
</svg>
