<?xml version="1.0" encoding="UTF-8" standalone="no"?>
<!DOCTYPE svg PUBLIC "-//W3C//DTD SVG 1.1//EN"
 "http://www.w3.org/Graphics/SVG/1.1/DTD/svg11.dtd">
<!-- Generated by graphviz version 2.43.20190912.0211 (20190912.0211)
 -->
<!-- Title: finite_state_machine Pages: 1 -->
<svg width="305pt" height="2267pt"
 viewBox="0.00 0.00 304.88 2266.54" xmlns="http://www.w3.org/2000/svg" xmlns:xlink="http://www.w3.org/1999/xlink">
<g id="graph0" class="graph" transform="scale(1 1) rotate(0) translate(4 2262.54)">
<title>finite_state_machine</title>
<polygon fill="white" stroke="transparent" points="-4,4 -4,-2262.54 300.88,-2262.54 300.88,4 -4,4"/>
<!-- Floriane -->
<g id="node1" class="node">
<title>Floriane</title>
<ellipse fill="none" stroke="black" cx="61.74" cy="-1641.74" rx="49.29" ry="49.29"/>
<text text-anchor="middle" x="61.74" y="-1638.04" font-family="Times,serif" font-size="14.00">Floriane</text>
</g>
<!-- Karate -->
<g id="node2" class="node">
<title>Karate</title>
<ellipse fill="none" stroke="black" cx="233.18" cy="-1525.74" rx="42.49" ry="42.49"/>
<text text-anchor="middle" x="233.18" y="-1522.04" font-family="Times,serif" font-size="14.00">Karate</text>
</g>
<!-- Floriane&#45;&gt;Karate -->
<g id="edge1" class="edge">
<title>Floriane&#45;&gt;Karate</title>
<path fill="none" stroke="black" d="M105.48,-1618.33C120.32,-1609.77 136.9,-1599.73 151.49,-1589.74 159.66,-1584.15 175.85,-1571.43 191.6,-1558.79"/>
<polygon fill="black" stroke="black" points="194.16,-1561.22 199.75,-1552.22 189.77,-1555.77 194.16,-1561.22"/>
<text text-anchor="middle" x="146.49" y="-1600.54" font-family="Times,serif" font-size="14.00">4</text>
</g>
<!-- Skateboard -->
<g id="node3" class="node">
<title>Skateboard</title>
<ellipse fill="none" stroke="black" cx="233.18" cy="-1649.74" rx="63.89" ry="63.89"/>
<text text-anchor="middle" x="233.18" y="-1646.04" font-family="Times,serif" font-size="14.00">Skateboard</text>
</g>
<!-- Floriane&#45;&gt;Skateboard -->
<g id="edge2" class="edge">
<title>Floriane&#45;&gt;Skateboard</title>
<path fill="none" stroke="black" d="M111.3,-1644.04C126.28,-1644.74 143.12,-1645.54 159.36,-1646.31"/>
<polygon fill="black" stroke="black" points="159.23,-1649.8 169.38,-1646.78 159.56,-1642.81 159.23,-1649.8"/>
<text text-anchor="middle" x="146.49" y="-1649.54" font-family="Times,serif" font-size="14.00">0</text>
</g>
<!-- Natation -->
<g id="node4" class="node">
<title>Natation</title>
<ellipse fill="none" stroke="black" cx="233.18" cy="-1413.74" rx="51.19" ry="51.19"/>
<text text-anchor="middle" x="233.18" y="-1410.04" font-family="Times,serif" font-size="14.00">Natation</text>
</g>
<!-- Floriane&#45;&gt;Natation -->
<g id="edge3" class="edge">
<title>Floriane&#45;&gt;Natation</title>
<path fill="none" stroke="black" d="M98.69,-1608.62C107,-1600.64 115.69,-1592.02 123.49,-1583.74 136.69,-1569.75 142.81,-1567.91 151.49,-1550.74 167.15,-1519.77 152.37,-1504.94 169.49,-1474.74 173.8,-1467.15 179.33,-1459.89 185.33,-1453.19"/>
<polygon fill="black" stroke="black" points="188.18,-1455.27 192.53,-1445.61 183.1,-1450.45 188.18,-1455.27"/>
<text text-anchor="middle" x="146.49" y="-1570.54" font-family="Times,serif" font-size="14.00">0</text>
</g>
<!-- Florian -->
<g id="node5" class="node">
<title>Florian</title>
<ellipse fill="none" stroke="black" cx="61.74" cy="-1444.74" rx="44.39" ry="44.39"/>
<text text-anchor="middle" x="61.74" y="-1441.04" font-family="Times,serif" font-size="14.00">Florian</text>
</g>
<!-- Florian&#45;&gt;Natation -->
<g id="edge4" class="edge">
<title>Florian&#45;&gt;Natation</title>
<path fill="none" stroke="black" d="M105.5,-1436.92C125.82,-1433.2 150.45,-1428.7 172.57,-1424.65"/>
<polygon fill="black" stroke="black" points="173.32,-1428.07 182.53,-1422.83 172.06,-1421.19 173.32,-1428.07"/>
<text text-anchor="middle" x="146.49" y="-1434.54" font-family="Times,serif" font-size="14.00">0</text>
</g>
<!-- Bernard -->
<g id="node6" class="node">
<title>Bernard</title>
<ellipse fill="none" stroke="black" cx="61.74" cy="-2097.74" rx="48.99" ry="48.99"/>
<text text-anchor="middle" x="61.74" y="-2094.04" font-family="Times,serif" font-size="14.00">Bernard</text>
</g>
<!-- Gym -->
<g id="node7" class="node">
<title>Gym</title>
<ellipse fill="none" stroke="black" cx="233.18" cy="-1983.74" rx="32.49" ry="32.49"/>
<text text-anchor="middle" x="233.18" y="-1980.04" font-family="Times,serif" font-size="14.00">Gym</text>
</g>
<!-- Bernard&#45;&gt;Gym -->
<g id="edge5" class="edge">
<title>Bernard&#45;&gt;Gym</title>
<path fill="none" stroke="black" d="M102.9,-2070.73C131.6,-2051.42 169.84,-2025.69 197.27,-2007.23"/>
<polygon fill="black" stroke="black" points="199.43,-2010 205.77,-2001.51 195.52,-2004.19 199.43,-2010"/>
<text text-anchor="middle" x="146.49" y="-2048.54" font-family="Times,serif" font-size="14.00">3</text>
</g>
<!-- Carole -->
<g id="node8" class="node">
<title>Carole</title>
<ellipse fill="none" stroke="black" cx="61.74" cy="-1145.74" rx="40.89" ry="40.89"/>
<text text-anchor="middle" x="61.74" y="-1142.04" font-family="Times,serif" font-size="14.00">Carole</text>
</g>
<!-- Volley -->
<g id="node9" class="node">
<title>Volley</title>
<ellipse fill="none" stroke="black" cx="233.18" cy="-1034.74" rx="38.19" ry="38.19"/>
<text text-anchor="middle" x="233.18" y="-1031.04" font-family="Times,serif" font-size="14.00">Volley</text>
</g>
<!-- Carole&#45;&gt;Volley -->
<g id="edge6" class="edge">
<title>Carole&#45;&gt;Volley</title>
<path fill="none" stroke="black" d="M96.63,-1123.55C124.11,-1105.55 162.91,-1080.12 191.97,-1061.09"/>
<polygon fill="black" stroke="black" points="194.2,-1063.81 200.65,-1055.4 190.37,-1057.95 194.2,-1063.81"/>
<text text-anchor="middle" x="146.49" y="-1097.54" font-family="Times,serif" font-size="14.00">2</text>
</g>
<!-- Clotilde -->
<g id="node10" class="node">
<title>Clotilde</title>
<ellipse fill="none" stroke="black" cx="61.74" cy="-2211.74" rx="46.59" ry="46.59"/>
<text text-anchor="middle" x="61.74" y="-2208.04" font-family="Times,serif" font-size="14.00">Clotilde</text>
</g>
<!-- Dance -->
<g id="node11" class="node">
<title>Dance</title>
<ellipse fill="none" stroke="black" cx="233.18" cy="-2211.74" rx="39.79" ry="39.79"/>
<text text-anchor="middle" x="233.18" y="-2208.04" font-family="Times,serif" font-size="14.00">Dance</text>
</g>
<!-- Clotilde&#45;&gt;Dance -->
<g id="edge7" class="edge">
<title>Clotilde&#45;&gt;Dance</title>
<path fill="none" stroke="black" d="M108.6,-2211.74C131.73,-2211.74 159.81,-2211.74 183.35,-2211.74"/>
<polygon fill="black" stroke="black" points="183.47,-2215.24 193.47,-2211.74 183.47,-2208.24 183.47,-2215.24"/>
<text text-anchor="middle" x="146.49" y="-2215.54" font-family="Times,serif" font-size="14.00">1</text>
</g>
<!-- Martin -->
<g id="node12" class="node">
<title>Martin</title>
<ellipse fill="none" stroke="black" cx="61.74" cy="-724.74" rx="42.49" ry="42.49"/>
<text text-anchor="middle" x="61.74" y="-721.04" font-family="Times,serif" font-size="14.00">Martin</text>
</g>
<!-- Basketball -->
<g id="node13" class="node">
<title>Basketball</title>
<ellipse fill="none" stroke="black" cx="233.18" cy="-685.74" rx="59.59" ry="59.59"/>
<text text-anchor="middle" x="233.18" y="-682.04" font-family="Times,serif" font-size="14.00">Basketball</text>
</g>
<!-- Martin&#45;&gt;Basketball -->
<g id="edge8" class="edge">
<title>Martin&#45;&gt;Basketball</title>
<path fill="none" stroke="black" d="M103.33,-715.4C121.75,-711.16 144.04,-706.03 164.87,-701.24"/>
<polygon fill="black" stroke="black" points="165.67,-704.65 174.63,-698.99 164.1,-697.82 165.67,-704.65"/>
<text text-anchor="middle" x="146.49" y="-710.54" font-family="Times,serif" font-size="14.00">1</text>
</g>
<!-- Mael -->
<g id="node14" class="node">
<title>Mael</title>
<ellipse fill="none" stroke="black" cx="61.74" cy="-630.74" rx="33.6" ry="33.6"/>
<text text-anchor="middle" x="61.74" y="-627.04" font-family="Times,serif" font-size="14.00">Mael</text>
</g>
<!-- Mael&#45;&gt;Basketball -->
<g id="edge9" class="edge">
<title>Mael&#45;&gt;Basketball</title>
<path fill="none" stroke="black" d="M94.22,-640.96C114.49,-647.54 141.62,-656.35 166.44,-664.41"/>
<polygon fill="black" stroke="black" points="165.6,-667.81 176.19,-667.57 167.76,-661.15 165.6,-667.81"/>
<text text-anchor="middle" x="146.49" y="-662.54" font-family="Times,serif" font-size="14.00">1</text>
</g>
<!-- Axel -->
<g id="node15" class="node">
<title>Axel</title>
<ellipse fill="none" stroke="black" cx="61.74" cy="-815.74" rx="30.59" ry="30.59"/>
<text text-anchor="middle" x="61.74" y="-812.04" font-family="Times,serif" font-size="14.00">Axel</text>
</g>
<!-- Axel&#45;&gt;Basketball -->
<g id="edge10" class="edge">
<title>Axel&#45;&gt;Basketball</title>
<path fill="none" stroke="black" d="M87.99,-800C99.07,-792.86 112.12,-784.16 123.49,-775.74 142.28,-761.84 162.15,-745.81 179.7,-731.16"/>
<polygon fill="black" stroke="black" points="182.18,-733.65 187.59,-724.53 177.68,-728.28 182.18,-733.65"/>
<text text-anchor="middle" x="146.49" y="-766.54" font-family="Times,serif" font-size="14.00">1</text>
</g>
<!-- Aurelien -->
<g id="node16" class="node">
<title>Aurelien</title>
<ellipse fill="none" stroke="black" cx="61.74" cy="-914.74" rx="50.09" ry="50.09"/>
<text text-anchor="middle" x="61.74" y="-911.04" font-family="Times,serif" font-size="14.00">Aurelien</text>
</g>
<!-- Aurelien&#45;&gt;Volley -->
<g id="edge12" class="edge">
<title>Aurelien&#45;&gt;Volley</title>
<path fill="none" stroke="black" d="M103.33,-943.49C130.54,-962.76 166.18,-988 193.07,-1007.05"/>
<polygon fill="black" stroke="black" points="191.29,-1010.07 201.48,-1013 195.34,-1004.36 191.29,-1010.07"/>
<text text-anchor="middle" x="146.49" y="-978.54" font-family="Times,serif" font-size="14.00">2</text>
</g>
<!-- Aurelien&#45;&gt;Basketball -->
<g id="edge11" class="edge">
<title>Aurelien&#45;&gt;Basketball</title>
<path fill="none" stroke="black" d="M99.49,-881.72C107.77,-873.58 116.24,-864.63 123.49,-855.74 151.34,-821.61 178.06,-779.99 198.04,-746.47"/>
<polygon fill="black" stroke="black" points="201.15,-748.08 203.23,-737.69 195.13,-744.52 201.15,-748.08"/>
<text text-anchor="middle" x="146.49" y="-833.54" font-family="Times,serif" font-size="14.00">1</text>
</g>
<!-- Charlie -->
<g id="node17" class="node">
<title>Charlie</title>
<ellipse fill="none" stroke="black" cx="61.74" cy="-303.74" rx="44.39" ry="44.39"/>
<text text-anchor="middle" x="61.74" y="-300.04" font-family="Times,serif" font-size="14.00">Charlie</text>
</g>
<!-- Charlie&#45;&gt;Natation -->
<g id="edge16" class="edge">
<title>Charlie&#45;&gt;Natation</title>
<path fill="none" stroke="black" d="M100.57,-325.01C119.51,-337.89 140.67,-356.19 151.49,-378.74 168.39,-413.97 165.35,-1042.9 169.49,-1081.74 179.74,-1178 202.83,-1288.12 217.94,-1354.23"/>
<polygon fill="black" stroke="black" points="214.55,-1355.1 220.21,-1364.06 221.37,-1353.53 214.55,-1355.1"/>
<text text-anchor="middle" x="146.49" y="-382.54" font-family="Times,serif" font-size="14.00">2</text>
</g>
<!-- Charlie&#45;&gt;Volley -->
<g id="edge14" class="edge">
<title>Charlie&#45;&gt;Volley</title>
<path fill="none" stroke="black" d="M105.34,-313.08C122.59,-319.14 140.9,-328.96 151.49,-344.74 176.89,-382.61 163.48,-709.54 169.49,-754.74 180.54,-837.96 204.21,-932.94 219.09,-988.15"/>
<polygon fill="black" stroke="black" points="215.77,-989.25 221.77,-997.98 222.52,-987.41 215.77,-989.25"/>
<text text-anchor="middle" x="146.49" y="-348.54" font-family="Times,serif" font-size="14.00">2</text>
</g>
<!-- Football -->
<g id="node18" class="node">
<title>Football</title>
<ellipse fill="none" stroke="black" cx="233.18" cy="-373.74" rx="48.19" ry="48.19"/>
<text text-anchor="middle" x="233.18" y="-370.04" font-family="Times,serif" font-size="14.00">Football</text>
</g>
<!-- Charlie&#45;&gt;Football -->
<g id="edge13" class="edge">
<title>Charlie&#45;&gt;Football</title>
<path fill="none" stroke="black" d="M97.02,-276.67C113.73,-266.87 133.96,-260.11 151.49,-268.74 174.5,-280.08 192.78,-301.48 206.08,-322.01"/>
<polygon fill="black" stroke="black" points="203.24,-324.07 211.48,-330.73 209.19,-320.38 203.24,-324.07"/>
<text text-anchor="middle" x="146.49" y="-272.54" font-family="Times,serif" font-size="14.00">0</text>
</g>
<!-- Cricket -->
<g id="node19" class="node">
<title>Cricket</title>
<ellipse fill="none" stroke="black" cx="233.18" cy="-153.74" rx="44.39" ry="44.39"/>
<text text-anchor="middle" x="233.18" y="-150.04" font-family="Times,serif" font-size="14.00">Cricket</text>
</g>
<!-- Charlie&#45;&gt;Cricket -->
<g id="edge15" class="edge">
<title>Charlie&#45;&gt;Cricket</title>
<path fill="none" stroke="black" d="M95.59,-275.21C104.65,-267.3 114.46,-258.71 123.49,-250.74 146.19,-230.71 171.43,-208.2 191.87,-189.92"/>
<polygon fill="black" stroke="black" points="194.33,-192.41 199.45,-183.13 189.66,-187.19 194.33,-192.41"/>
<text text-anchor="middle" x="146.49" y="-236.54" font-family="Times,serif" font-size="14.00">2</text>
</g>
<!-- Badminton -->
<g id="node20" class="node">
<title>Badminton</title>
<ellipse fill="none" stroke="black" cx="233.18" cy="-501.74" rx="61.99" ry="61.99"/>
<text text-anchor="middle" x="233.18" y="-498.04" font-family="Times,serif" font-size="14.00">Badminton</text>
</g>
<!-- Charlie&#45;&gt;Badminton -->
<g id="edge17" class="edge">
<title>Charlie&#45;&gt;Badminton</title>
<path fill="none" stroke="black" d="M104.99,-294.46C121.35,-293.37 139.08,-295.64 151.49,-306.74 192.98,-343.89 146.08,-380.21 169.49,-430.74 172.79,-437.88 177.05,-444.82 181.79,-451.4"/>
<polygon fill="black" stroke="black" points="179.15,-453.72 188.01,-459.53 184.71,-449.46 179.15,-453.72"/>
<text text-anchor="middle" x="146.49" y="-310.54" font-family="Times,serif" font-size="14.00">0</text>
</g>
<!-- Anasthasia -->
<g id="node21" class="node">
<title>Anasthasia</title>
<ellipse fill="none" stroke="black" cx="61.74" cy="-61.74" rx="61.99" ry="61.99"/>
<text text-anchor="middle" x="61.74" y="-58.04" font-family="Times,serif" font-size="14.00">Anasthasia</text>
</g>
<!-- Anasthasia&#45;&gt;Basketball -->
<g id="edge18" class="edge">
<title>Anasthasia&#45;&gt;Basketball</title>
<path fill="none" stroke="black" d="M115.28,-93.01C129.55,-104.26 143.31,-118.31 151.49,-134.74 173.19,-178.35 156.32,-525.85 169.49,-572.74 174.81,-591.69 183.84,-610.92 193.42,-628.01"/>
<polygon fill="black" stroke="black" points="190.43,-629.83 198.46,-636.74 196.5,-626.33 190.43,-629.83"/>
<text text-anchor="middle" x="146.49" y="-138.54" font-family="Times,serif" font-size="14.00">0</text>
</g>
<!-- Anasthasia&#45;&gt;Cricket -->
<g id="edge19" class="edge">
<title>Anasthasia&#45;&gt;Cricket</title>
<path fill="none" stroke="black" d="M123.49,-65.44C133.17,-67.48 142.84,-70.46 151.49,-74.74 169.13,-83.49 185.34,-97.52 198.54,-111.36"/>
<polygon fill="black" stroke="black" points="196.21,-113.99 205.55,-118.99 201.36,-109.25 196.21,-113.99"/>
<text text-anchor="middle" x="146.49" y="-78.54" font-family="Times,serif" font-size="14.00">0</text>
</g>
<!-- Caroline -->
<g id="node22" class="node">
<title>Caroline</title>
<ellipse fill="none" stroke="black" cx="61.74" cy="-191.74" rx="50.09" ry="50.09"/>
<text text-anchor="middle" x="61.74" y="-188.04" font-family="Times,serif" font-size="14.00">Caroline</text>
</g>
<!-- Caroline&#45;&gt;Basketball -->
<g id="edge20" class="edge">
<title>Caroline&#45;&gt;Basketball</title>
<path fill="none" stroke="black" d="M111.83,-190.05C126.66,-192.15 141.61,-197.38 151.49,-208.74 178.05,-239.31 158.38,-533.81 169.49,-572.74 174.89,-591.67 183.95,-610.89 193.53,-627.98"/>
<polygon fill="black" stroke="black" points="190.53,-629.8 198.56,-636.71 196.6,-626.3 190.53,-629.8"/>
<text text-anchor="middle" x="146.49" y="-212.54" font-family="Times,serif" font-size="14.00">0</text>
</g>
<!-- Caroline&#45;&gt;Cricket -->
<g id="edge21" class="edge">
<title>Caroline&#45;&gt;Cricket</title>
<path fill="none" stroke="black" d="M105.69,-167.53C117,-162.3 129.42,-157.51 141.49,-154.74 153.36,-152.03 166.34,-150.86 178.67,-150.55"/>
<polygon fill="black" stroke="black" points="178.86,-154.05 188.83,-150.48 178.81,-147.05 178.86,-154.05"/>
<text text-anchor="middle" x="146.49" y="-158.54" font-family="Times,serif" font-size="14.00">0</text>
</g>
<!-- Angele -->
<g id="node23" class="node">
<title>Angele</title>
<ellipse fill="none" stroke="black" cx="61.74" cy="-1340.74" rx="42.49" ry="42.49"/>
<text text-anchor="middle" x="61.74" y="-1337.04" font-family="Times,serif" font-size="14.00">Angele</text>
</g>
<!-- Angele&#45;&gt;Natation -->
<g id="edge22" class="edge">
<title>Angele&#45;&gt;Natation</title>
<path fill="none" stroke="black" d="M100.77,-1357.13C123.09,-1366.74 151.7,-1379.07 176.53,-1389.77"/>
<polygon fill="black" stroke="black" points="175.26,-1393.03 185.83,-1393.78 178.03,-1386.6 175.26,-1393.03"/>
<text text-anchor="middle" x="146.49" y="-1381.54" font-family="Times,serif" font-size="14.00">0</text>
</g>
<!-- Alexis -->
<g id="node24" class="node">
<title>Alexis</title>
<ellipse fill="none" stroke="black" cx="61.74" cy="-1765.74" rx="38.19" ry="38.19"/>
<text text-anchor="middle" x="61.74" y="-1762.04" font-family="Times,serif" font-size="14.00">Alexis</text>
</g>
<!-- Alexis&#45;&gt;Karate -->
<g id="edge24" class="edge">
<title>Alexis&#45;&gt;Karate</title>
<path fill="none" stroke="black" d="M91.5,-1741.35C111.66,-1722.55 137.42,-1694.76 151.49,-1664.74 168.43,-1628.6 148.8,-1610.89 169.49,-1576.74 174.51,-1568.46 181.38,-1560.94 188.74,-1554.36"/>
<polygon fill="black" stroke="black" points="191.4,-1556.7 196.85,-1547.62 186.93,-1551.32 191.4,-1556.7"/>
<text text-anchor="middle" x="146.49" y="-1684.54" font-family="Times,serif" font-size="14.00">4</text>
</g>
<!-- Athletisme -->
<g id="node25" class="node">
<title>Athletisme</title>
<ellipse fill="none" stroke="black" cx="233.18" cy="-1792.74" rx="61.19" ry="61.19"/>
<text text-anchor="middle" x="233.18" y="-1789.04" font-family="Times,serif" font-size="14.00">Athletisme</text>
</g>
<!-- Alexis&#45;&gt;Athletisme -->
<g id="edge23" class="edge">
<title>Alexis&#45;&gt;Athletisme</title>
<path fill="none" stroke="black" d="M99.93,-1771.67C118.35,-1774.6 141.19,-1778.25 162.69,-1781.67"/>
<polygon fill="black" stroke="black" points="162.35,-1785.16 172.78,-1783.28 163.46,-1778.25 162.35,-1785.16"/>
<text text-anchor="middle" x="146.49" y="-1783.54" font-family="Times,serif" font-size="14.00">0</text>
</g>
<!-- Basil -->
<g id="node26" class="node">
<title>Basil</title>
<ellipse fill="none" stroke="black" cx="61.74" cy="-1540.74" rx="33.6" ry="33.6"/>
<text text-anchor="middle" x="61.74" y="-1537.04" font-family="Times,serif" font-size="14.00">Basil</text>
</g>
<!-- Basil&#45;&gt;Karate -->
<g id="edge26" class="edge">
<title>Basil&#45;&gt;Karate</title>
<path fill="none" stroke="black" d="M95.82,-1537.82C119.9,-1535.68 152.98,-1532.76 180.54,-1530.32"/>
<polygon fill="black" stroke="black" points="181.14,-1533.78 190.79,-1529.41 180.52,-1526.8 181.14,-1533.78"/>
<text text-anchor="middle" x="146.49" y="-1537.54" font-family="Times,serif" font-size="14.00">4</text>
</g>
<!-- Basil&#45;&gt;Natation -->
<g id="edge25" class="edge">
<title>Basil&#45;&gt;Natation</title>
<path fill="none" stroke="black" d="M89.83,-1521.93C100.4,-1514.5 112.58,-1505.81 123.49,-1497.74 143.7,-1482.79 165.71,-1465.9 184.59,-1451.21"/>
<polygon fill="black" stroke="black" points="186.75,-1453.97 192.48,-1445.07 182.44,-1448.45 186.75,-1453.97"/>
<text text-anchor="middle" x="146.49" y="-1488.54" font-family="Times,serif" font-size="14.00">0</text>
</g>
<!-- Dupont -->
<g id="node27" class="node">
<title>Dupont</title>
<ellipse fill="none" stroke="black" cx="61.74" cy="-533.74" rx="44.69" ry="44.69"/>
<text text-anchor="middle" x="61.74" y="-530.04" font-family="Times,serif" font-size="14.00">Dupont</text>
</g>
<!-- Dupont&#45;&gt;Karate -->
<g id="edge28" class="edge">
<title>Dupont&#45;&gt;Karate</title>
<path fill="none" stroke="black" d="M97.83,-560.76C118.85,-579.6 143.07,-606.83 151.49,-637.74 175.91,-727.39 129.08,-1390.08 169.49,-1473.74 173.92,-1482.91 180.81,-1491.04 188.44,-1497.98"/>
<polygon fill="black" stroke="black" points="186.33,-1500.78 196.24,-1504.52 190.83,-1495.42 186.33,-1500.78"/>
<text text-anchor="middle" x="146.49" y="-641.54" font-family="Times,serif" font-size="14.00">4</text>
</g>
<!-- Dupont&#45;&gt;Football -->
<g id="edge27" class="edge">
<title>Dupont&#45;&gt;Football</title>
<path fill="none" stroke="black" d="M106.8,-532.26C122.83,-529.52 139.85,-523.67 151.49,-511.74 177.25,-485.35 150.98,-462.64 169.49,-430.74 173.95,-423.06 179.79,-415.83 186.11,-409.27"/>
<polygon fill="black" stroke="black" points="188.98,-411.37 193.71,-401.89 184.1,-406.35 188.98,-411.37"/>
<text text-anchor="middle" x="146.49" y="-523.54" font-family="Times,serif" font-size="14.00">0</text>
</g>
<!-- Dupont&#45;&gt;Badminton -->
<g id="edge29" class="edge">
<title>Dupont&#45;&gt;Badminton</title>
<path fill="none" stroke="black" d="M104.18,-548.85C119.21,-552.33 136.24,-553.94 151.49,-549.74 158.89,-547.71 166.31,-544.8 173.47,-541.4"/>
<polygon fill="black" stroke="black" points="175.07,-544.52 182.4,-536.87 171.9,-538.27 175.07,-544.52"/>
<text text-anchor="middle" x="146.49" y="-555.54" font-family="Times,serif" font-size="14.00">0</text>
</g>
<!-- Bertrand -->
<g id="node28" class="node">
<title>Bertrand</title>
<ellipse fill="none" stroke="black" cx="61.74" cy="-418.74" rx="52.79" ry="52.79"/>
<text text-anchor="middle" x="61.74" y="-415.04" font-family="Times,serif" font-size="14.00">Bertrand</text>
</g>
<!-- Bertrand&#45;&gt;Karate -->
<g id="edge31" class="edge">
<title>Bertrand&#45;&gt;Karate</title>
<path fill="none" stroke="black" d="M108.04,-444.76C124.86,-456.99 142.12,-473.21 151.49,-492.74 198.62,-591.05 122.23,-1375.5 169.49,-1473.74 173.9,-1482.92 180.79,-1491.05 188.42,-1497.99"/>
<polygon fill="black" stroke="black" points="186.31,-1500.79 196.22,-1504.53 190.81,-1495.43 186.31,-1500.79"/>
<text text-anchor="middle" x="146.49" y="-496.54" font-family="Times,serif" font-size="14.00">4</text>
</g>
<!-- Bertrand&#45;&gt;Football -->
<g id="edge30" class="edge">
<title>Bertrand&#45;&gt;Football</title>
<path fill="none" stroke="black" d="M113.55,-407.24C126,-404.28 139.25,-401.01 151.49,-397.74 159.9,-395.5 168.77,-393 177.43,-390.49"/>
<polygon fill="black" stroke="black" points="178.46,-393.83 187.07,-387.65 176.49,-387.11 178.46,-393.83"/>
<text text-anchor="middle" x="146.49" y="-404.54" font-family="Times,serif" font-size="14.00">0</text>
</g>
<!-- Bertrand&#45;&gt;Badminton -->
<g id="edge32" class="edge">
<title>Bertrand&#45;&gt;Badminton</title>
<path fill="none" stroke="black" d="M110.45,-439.55C123.82,-445.57 138.29,-452.26 151.49,-458.74 157.42,-461.66 163.56,-464.76 169.69,-467.92"/>
<polygon fill="black" stroke="black" points="168.13,-471.06 178.62,-472.56 171.36,-464.85 168.13,-471.06"/>
<text text-anchor="middle" x="146.49" y="-462.54" font-family="Times,serif" font-size="14.00">0</text>
</g>
<!-- Maxence -->
<g id="node29" class="node">
<title>Maxence</title>
<ellipse fill="none" stroke="black" cx="61.74" cy="-1034.74" rx="51.99" ry="51.99"/>
<text text-anchor="middle" x="61.74" y="-1031.04" font-family="Times,serif" font-size="14.00">Maxence</text>
</g>
<!-- Maxence&#45;&gt;Volley -->
<g id="edge33" class="edge">
<title>Maxence&#45;&gt;Volley</title>
<path fill="none" stroke="black" d="M114.04,-1034.74C136.49,-1034.74 162.67,-1034.74 184.67,-1034.74"/>
<polygon fill="black" stroke="black" points="184.78,-1038.24 194.78,-1034.74 184.78,-1031.24 184.78,-1038.24"/>
<text text-anchor="middle" x="146.49" y="-1038.54" font-family="Times,serif" font-size="14.00">2</text>
</g>
<!-- Kilian -->
<g id="node30" class="node">
<title>Kilian</title>
<ellipse fill="none" stroke="black" cx="61.74" cy="-1242.74" rx="37.89" ry="37.89"/>
<text text-anchor="middle" x="61.74" y="-1239.04" font-family="Times,serif" font-size="14.00">Kilian</text>
</g>
<!-- Kilian&#45;&gt;Volley -->
<g id="edge34" class="edge">
<title>Kilian&#45;&gt;Volley</title>
<path fill="none" stroke="black" d="M93.39,-1222.03C103.56,-1214.4 114.55,-1205.28 123.49,-1195.74 157.68,-1159.27 188.72,-1111.04 208.8,-1076.91"/>
<polygon fill="black" stroke="black" points="211.91,-1078.52 213.91,-1068.12 205.86,-1075 211.91,-1078.52"/>
<text text-anchor="middle" x="146.49" y="-1176.54" font-family="Times,serif" font-size="14.00">2</text>
</g>
<!-- Laurent -->
<g id="node31" class="node">
<title>Laurent</title>
<ellipse fill="none" stroke="black" cx="61.74" cy="-1983.74" rx="47.39" ry="47.39"/>
<text text-anchor="middle" x="61.74" y="-1980.04" font-family="Times,serif" font-size="14.00">Laurent</text>
</g>
<!-- Laurent&#45;&gt;Gym -->
<g id="edge35" class="edge">
<title>Laurent&#45;&gt;Gym</title>
<path fill="none" stroke="black" d="M109.49,-1983.74C134.86,-1983.74 165.96,-1983.74 190.5,-1983.74"/>
<polygon fill="black" stroke="black" points="190.58,-1987.24 200.58,-1983.74 190.58,-1980.24 190.58,-1987.24"/>
<text text-anchor="middle" x="146.49" y="-1987.54" font-family="Times,serif" font-size="14.00">3</text>
</g>
<!-- Gatwick -->
<g id="node32" class="node">
<title>Gatwick</title>
<ellipse fill="none" stroke="black" cx="61.74" cy="-1869.74" rx="48.19" ry="48.19"/>
<text text-anchor="middle" x="61.74" y="-1866.04" font-family="Times,serif" font-size="14.00">Gatwick</text>
</g>
<!-- Gatwick&#45;&gt;Gym -->
<g id="edge36" class="edge">
<title>Gatwick&#45;&gt;Gym</title>
<path fill="none" stroke="black" d="M102.04,-1896.18C130.8,-1915.53 169.47,-1941.55 197.17,-1960.19"/>
<polygon fill="black" stroke="black" points="195.5,-1963.28 205.76,-1965.96 199.41,-1957.48 195.5,-1963.28"/>
<text text-anchor="middle" x="146.49" y="-1930.54" font-family="Times,serif" font-size="14.00">3</text>
</g>
</g>
</svg>
