<?xml version="1.0" encoding="UTF-8" standalone="no"?>
<!DOCTYPE svg PUBLIC "-//W3C//DTD SVG 1.1//EN"
 "http://www.w3.org/Graphics/SVG/1.1/DTD/svg11.dtd">
<!-- Generated by graphviz version 2.40.1 (20161225.0304)
 -->
<!-- Title: %3 Pages: 1 -->
<svg width="304pt" height="1993pt"
 viewBox="0.00 0.00 304.48 1992.64" xmlns="http://www.w3.org/2000/svg" xmlns:xlink="http://www.w3.org/1999/xlink">
<g id="graph0" class="graph" transform="scale(1 1) rotate(0) translate(4 1988.6396)">
<title>%3</title>
<polygon fill="#ffffff" stroke="transparent" points="-4,4 -4,-1988.6396 300.4775,-1988.6396 300.4775,4 -4,4"/>
<!-- Mael -->
<g id="node1" class="node">
<title>Mael</title>
<ellipse fill="none" stroke="#000000" cx="49.3956" cy="-344.2964" rx="29.4969" ry="29.4969"/>
<text text-anchor="middle" x="49.3956" y="-340.5964" font-family="Times,serif" font-size="14.00" fill="#000000">Mael</text>
</g>
<!-- Basketball (10) -->
<g id="node2" class="node">
<title>Basketball (10)</title>
<ellipse fill="none" stroke="#000000" cx="219.1344" cy="-193.2964" rx="64.9885" ry="64.9885"/>
<text text-anchor="middle" x="219.1344" y="-189.5964" font-family="Times,serif" font-size="14.00" fill="#000000">Basketball (10)</text>
</g>
<!-- Mael&#45;&gt;Basketball (10) -->
<g id="edge1" class="edge">
<title>Mael&#45;&gt;Basketball (10)</title>
<path fill="none" stroke="#ffa500" stroke-width="2" d="M72.8287,-326.4243C81.1459,-319.9166 90.4974,-312.4096 98.7912,-305.2964 120.8841,-286.3485 144.4718,-264.7241 164.8576,-245.5622"/>
<polygon fill="#ffa500" stroke="#ffa500" stroke-width="2" points="167.3412,-248.031 172.2146,-238.6235 162.5383,-242.9386 167.3412,-248.031"/>
<text text-anchor="middle" x="120.2912" y="-292.0964" font-family="Times,serif" font-size="14.00" fill="#000000">1</text>
</g>
<!-- Florian -->
<g id="node3" class="node">
<title>Florian</title>
<ellipse fill="none" stroke="#000000" cx="49.3956" cy="-519.2964" rx="36.2938" ry="36.2938"/>
<text text-anchor="middle" x="49.3956" y="-515.5964" font-family="Times,serif" font-size="14.00" fill="#000000">Florian</text>
</g>
<!-- Natation (2) -->
<g id="node4" class="node">
<title>Natation (2)</title>
<ellipse fill="none" stroke="#000000" cx="219.1344" cy="-459.2964" rx="53.8905" ry="53.8905"/>
<text text-anchor="middle" x="219.1344" y="-455.5964" font-family="Times,serif" font-size="14.00" fill="#000000">Natation (2)</text>
</g>
<!-- Florian&#45;&gt;Natation (2) -->
<g id="edge2" class="edge">
<title>Florian&#45;&gt;Natation (2)</title>
<path fill="none" stroke="#00ff00" d="M83.7448,-507.1545C105.2192,-499.5637 133.4785,-489.5744 158.6217,-480.6867"/>
<polygon fill="#00ff00" stroke="#00ff00" points="159.8231,-483.9743 168.0849,-477.3416 157.4901,-477.3745 159.8231,-483.9743"/>
<text text-anchor="middle" x="120.2912" y="-499.0964" font-family="Times,serif" font-size="14.00" fill="#000000">0</text>
</g>
<!-- Clotilde -->
<g id="node5" class="node">
<title>Clotilde</title>
<ellipse fill="none" stroke="#000000" cx="49.3956" cy="-612.2964" rx="38.9931" ry="38.9931"/>
<text text-anchor="middle" x="49.3956" y="-608.5964" font-family="Times,serif" font-size="14.00" fill="#000000">Clotilde</text>
</g>
<!-- Dance (10) -->
<g id="node6" class="node">
<title>Dance (10)</title>
<ellipse fill="none" stroke="#000000" cx="219.1344" cy="-612.2964" rx="50.0912" ry="50.0912"/>
<text text-anchor="middle" x="219.1344" y="-608.5964" font-family="Times,serif" font-size="14.00" fill="#000000">Dance (10)</text>
</g>
<!-- Clotilde&#45;&gt;Dance (10) -->
<g id="edge3" class="edge">
<title>Clotilde&#45;&gt;Dance (10)</title>
<path fill="none" stroke="#ffa500" stroke-width="2" d="M88.7637,-612.2964C109.5794,-612.2964 135.5799,-612.2964 158.8732,-612.2964"/>
<polygon fill="#ffa500" stroke="#ffa500" stroke-width="2" points="159.0107,-615.7965 169.0107,-612.2964 159.0106,-608.7965 159.0107,-615.7965"/>
<text text-anchor="middle" x="120.2912" y="-616.0964" font-family="Times,serif" font-size="14.00" fill="#000000">1</text>
</g>
<!-- Angele -->
<g id="node7" class="node">
<title>Angele</title>
<ellipse fill="none" stroke="#000000" cx="49.3956" cy="-428.2964" rx="36.2938" ry="36.2938"/>
<text text-anchor="middle" x="49.3956" y="-424.5964" font-family="Times,serif" font-size="14.00" fill="#000000">Angele</text>
</g>
<!-- Angele&#45;&gt;Natation (2) -->
<g id="edge4" class="edge">
<title>Angele&#45;&gt;Natation (2)</title>
<path fill="none" stroke="#00ff00" d="M85.3928,-434.8707C105.829,-438.6031 132.0002,-443.3828 155.764,-447.7229"/>
<polygon fill="#00ff00" stroke="#00ff00" points="155.3112,-451.198 165.7773,-449.5516 156.5689,-444.3119 155.3112,-451.198"/>
<text text-anchor="middle" x="120.2912" y="-445.0964" font-family="Times,serif" font-size="14.00" fill="#000000">0</text>
</g>
<!-- Basil -->
<g id="node8" class="node">
<title>Basil</title>
<ellipse fill="none" stroke="#000000" cx="49.3956" cy="-726.2964" rx="28.6953" ry="28.6953"/>
<text text-anchor="middle" x="49.3956" y="-722.5964" font-family="Times,serif" font-size="14.00" fill="#000000">Basil</text>
</g>
<!-- Kayak (1) -->
<g id="node9" class="node">
<title>Kayak (1)</title>
<ellipse fill="none" stroke="#000000" cx="219.1344" cy="-726.2964" rx="46.2923" ry="46.2923"/>
<text text-anchor="middle" x="219.1344" y="-722.5964" font-family="Times,serif" font-size="14.00" fill="#000000">Kayak (1)</text>
</g>
<!-- Basil&#45;&gt;Kayak (1) -->
<g id="edge5" class="edge">
<title>Basil&#45;&gt;Kayak (1)</title>
<path fill="none" stroke="#ffa500" stroke-width="2" d="M78.1895,-726.2964C101.271,-726.2964 134.3686,-726.2964 162.691,-726.2964"/>
<polygon fill="#ffa500" stroke="#ffa500" stroke-width="2" points="162.8822,-729.7965 172.8822,-726.2964 162.8821,-722.7965 162.8822,-729.7965"/>
<text text-anchor="middle" x="120.2912" y="-730.0964" font-family="Times,serif" font-size="14.00" fill="#000000">1</text>
</g>
<!-- Dupont -->
<g id="node10" class="node">
<title>Dupont</title>
<ellipse fill="none" stroke="#000000" cx="49.3956" cy="-900.2964" rx="37.0935" ry="37.0935"/>
<text text-anchor="middle" x="49.3956" y="-896.5964" font-family="Times,serif" font-size="14.00" fill="#000000">Dupont</text>
</g>
<!-- Football (3) -->
<g id="node11" class="node">
<title>Football (3)</title>
<ellipse fill="none" stroke="#000000" cx="219.1344" cy="-883.2964" rx="52.7911" ry="52.7911"/>
<text text-anchor="middle" x="219.1344" y="-879.5964" font-family="Times,serif" font-size="14.00" fill="#000000">Football (3)</text>
</g>
<!-- Dupont&#45;&gt;Football (3) -->
<g id="edge6" class="edge">
<title>Dupont&#45;&gt;Football (3)</title>
<path fill="none" stroke="#00ff00" d="M86.6455,-896.5657C107.0476,-894.5223 132.8782,-891.9353 156.3023,-889.5893"/>
<polygon fill="#00ff00" stroke="#00ff00" points="156.9165,-893.0454 166.5179,-888.5662 156.2189,-886.0802 156.9165,-893.0454"/>
<text text-anchor="middle" x="120.2912" y="-898.0964" font-family="Times,serif" font-size="14.00" fill="#000000">0</text>
</g>
<!-- Bertrand -->
<g id="node12" class="node">
<title>Bertrand</title>
<ellipse fill="none" stroke="#000000" cx="49.3956" cy="-1103.2964" rx="41.6928" ry="41.6928"/>
<text text-anchor="middle" x="49.3956" y="-1099.5964" font-family="Times,serif" font-size="14.00" fill="#000000">Bertrand</text>
</g>
<!-- Karate (3) -->
<g id="node13" class="node">
<title>Karate (3)</title>
<ellipse fill="none" stroke="#000000" cx="219.1344" cy="-1022.2964" rx="46.5926" ry="46.5926"/>
<text text-anchor="middle" x="219.1344" y="-1018.5964" font-family="Times,serif" font-size="14.00" fill="#000000">Karate (3)</text>
</g>
<!-- Bertrand&#45;&gt;Karate (3) -->
<g id="edge7" class="edge">
<title>Bertrand&#45;&gt;Karate (3)</title>
<path fill="none" stroke="#00ff00" d="M87.0661,-1085.3199C110.7264,-1074.0291 141.5628,-1059.3139 167.4879,-1046.9423"/>
<polygon fill="#00ff00" stroke="#00ff00" points="169.2769,-1049.9667 176.7946,-1042.5011 166.2621,-1043.6492 169.2769,-1049.9667"/>
<text text-anchor="middle" x="120.2912" y="-1074.0964" font-family="Times,serif" font-size="14.00" fill="#000000">0</text>
</g>
<!-- Charlie -->
<g id="node14" class="node">
<title>Charlie</title>
<ellipse fill="none" stroke="#000000" cx="49.3956" cy="-809.2964" rx="36.2938" ry="36.2938"/>
<text text-anchor="middle" x="49.3956" y="-805.5964" font-family="Times,serif" font-size="14.00" fill="#000000">Charlie</text>
</g>
<!-- Charlie&#45;&gt;Football (3) -->
<g id="edge8" class="edge">
<title>Charlie&#45;&gt;Football (3)</title>
<path fill="none" stroke="#00ff00" d="M82.9305,-823.9164C105.217,-833.6325 135.0684,-846.6467 161.1445,-858.0149"/>
<polygon fill="#00ff00" stroke="#00ff00" points="159.9943,-861.3316 170.5597,-862.1196 162.7918,-854.9148 159.9943,-861.3316"/>
<text text-anchor="middle" x="120.2912" y="-844.0964" font-family="Times,serif" font-size="14.00" fill="#000000">0</text>
</g>
<!-- Anasthasia -->
<g id="node15" class="node">
<title>Anasthasia</title>
<ellipse fill="none" stroke="#000000" cx="49.3956" cy="-247.2964" rx="49.2915" ry="49.2915"/>
<text text-anchor="middle" x="49.3956" y="-243.5964" font-family="Times,serif" font-size="14.00" fill="#000000">Anasthasia</text>
</g>
<!-- Anasthasia&#45;&gt;Basketball (10) -->
<g id="edge9" class="edge">
<title>Anasthasia&#45;&gt;Basketball (10)</title>
<path fill="none" stroke="#00ff00" d="M96.6773,-232.2544C112.3395,-227.2717 130.1419,-221.6081 147.2266,-216.1729"/>
<polygon fill="#00ff00" stroke="#00ff00" points="148.7129,-219.3729 157.1812,-213.0059 146.5907,-212.7024 148.7129,-219.3729"/>
<text text-anchor="middle" x="120.2912" y="-229.0964" font-family="Times,serif" font-size="14.00" fill="#000000">0</text>
</g>
<!-- Caroline -->
<g id="node16" class="node">
<title>Caroline</title>
<ellipse fill="none" stroke="#000000" cx="49.3956" cy="-139.2964" rx="40.8928" ry="40.8928"/>
<text text-anchor="middle" x="49.3956" y="-135.5964" font-family="Times,serif" font-size="14.00" fill="#000000">Caroline</text>
</g>
<!-- Caroline&#45;&gt;Basketball (10) -->
<g id="edge10" class="edge">
<title>Caroline&#45;&gt;Basketball (10)</title>
<path fill="none" stroke="#00ff00" d="M88.7637,-151.8208C106.1854,-157.3633 127.2389,-164.0612 147.2974,-170.4425"/>
<polygon fill="#00ff00" stroke="#00ff00" points="146.4536,-173.8469 157.0441,-173.5433 148.5758,-167.1763 146.4536,-173.8469"/>
<text text-anchor="middle" x="120.2912" y="-166.0964" font-family="Times,serif" font-size="14.00" fill="#000000">0</text>
</g>
<!-- Alexis -->
<g id="node17" class="node">
<title>Alexis</title>
<ellipse fill="none" stroke="#000000" cx="49.3956" cy="-1196.2964" rx="33.5952" ry="33.5952"/>
<text text-anchor="middle" x="49.3956" y="-1192.5964" font-family="Times,serif" font-size="14.00" fill="#000000">Alexis</text>
</g>
<!-- Athletisme (1) -->
<g id="node18" class="node">
<title>Athletisme (1)</title>
<ellipse fill="none" stroke="#000000" cx="219.1344" cy="-1196.2964" rx="62.2891" ry="62.2891"/>
<text text-anchor="middle" x="219.1344" y="-1192.5964" font-family="Times,serif" font-size="14.00" fill="#000000">Athletisme (1)</text>
</g>
<!-- Alexis&#45;&gt;Athletisme (1) -->
<g id="edge11" class="edge">
<title>Alexis&#45;&gt;Athletisme (1)</title>
<path fill="none" stroke="#00ff00" d="M83.3368,-1196.2964C101.377,-1196.2964 124.2889,-1196.2964 146.1312,-1196.2964"/>
<polygon fill="#00ff00" stroke="#00ff00" points="146.4047,-1199.7965 156.4046,-1196.2964 146.4046,-1192.7965 146.4047,-1199.7965"/>
<text text-anchor="middle" x="120.2912" y="-1200.0964" font-family="Times,serif" font-size="14.00" fill="#000000">0</text>
</g>
<!-- Floriane -->
<g id="node19" class="node">
<title>Floriane</title>
<ellipse fill="none" stroke="#000000" cx="49.3956" cy="-1339.2964" rx="40.0939" ry="40.0939"/>
<text text-anchor="middle" x="49.3956" y="-1335.5964" font-family="Times,serif" font-size="14.00" fill="#000000">Floriane</text>
</g>
<!-- Skateboard (1) -->
<g id="node20" class="node">
<title>Skateboard (1)</title>
<ellipse fill="none" stroke="#000000" cx="219.1344" cy="-1339.2964" rx="63.0888" ry="63.0888"/>
<text text-anchor="middle" x="219.1344" y="-1335.5964" font-family="Times,serif" font-size="14.00" fill="#000000">Skateboard (1)</text>
</g>
<!-- Floriane&#45;&gt;Skateboard (1) -->
<g id="edge12" class="edge">
<title>Floriane&#45;&gt;Skateboard (1)</title>
<path fill="none" stroke="#00ff00" d="M90.0523,-1339.2964C106.7626,-1339.2964 126.6457,-1339.2964 145.7394,-1339.2964"/>
<polygon fill="#00ff00" stroke="#00ff00" points="145.9347,-1342.7965 155.9346,-1339.2964 145.9346,-1335.7965 145.9347,-1342.7965"/>
<text text-anchor="middle" x="120.2912" y="-1343.0964" font-family="Times,serif" font-size="14.00" fill="#000000">0</text>
</g>
<!-- Aurelien -->
<g id="node21" class="node">
<title>Aurelien</title>
<ellipse fill="none" stroke="#000000" cx="49.3956" cy="-1488.2964" rx="41.6928" ry="41.6928"/>
<text text-anchor="middle" x="49.3956" y="-1484.5964" font-family="Times,serif" font-size="14.00" fill="#000000">Aurelien</text>
</g>
<!-- Badminton (20) -->
<g id="node22" class="node">
<title>Badminton (20)</title>
<ellipse fill="none" stroke="#000000" cx="219.1344" cy="-1488.2964" rx="67.6881" ry="67.6881"/>
<text text-anchor="middle" x="219.1344" y="-1484.5964" font-family="Times,serif" font-size="14.00" fill="#000000">Badminton (20)</text>
</g>
<!-- Aurelien&#45;&gt;Badminton (20) -->
<g id="edge13" class="edge">
<title>Aurelien&#45;&gt;Badminton (20)</title>
<path fill="none" stroke="#00ff00" d="M91.3535,-1488.2964C106.4537,-1488.2964 124.0134,-1488.2964 141.192,-1488.2964"/>
<polygon fill="#00ff00" stroke="#00ff00" points="141.2411,-1491.7965 151.241,-1488.2964 141.241,-1484.7965 141.2411,-1491.7965"/>
<text text-anchor="middle" x="120.2912" y="-1492.0964" font-family="Times,serif" font-size="14.00" fill="#000000">0</text>
</g>
<!-- Martin -->
<g id="node23" class="node">
<title>Martin</title>
<ellipse fill="none" stroke="#000000" cx="49.3956" cy="-1628.2964" rx="35.194" ry="35.194"/>
<text text-anchor="middle" x="49.3956" y="-1624.5964" font-family="Times,serif" font-size="14.00" fill="#000000">Martin</text>
</g>
<!-- Baseball (1) -->
<g id="node24" class="node">
<title>Baseball (1)</title>
<ellipse fill="none" stroke="#000000" cx="219.1344" cy="-1628.2964" rx="53.8905" ry="53.8905"/>
<text text-anchor="middle" x="219.1344" y="-1624.5964" font-family="Times,serif" font-size="14.00" fill="#000000">Baseball (1)</text>
</g>
<!-- Martin&#45;&gt;Baseball (1) -->
<g id="edge14" class="edge">
<title>Martin&#45;&gt;Baseball (1)</title>
<path fill="none" stroke="#00ff00" d="M84.5656,-1628.2964C104.8726,-1628.2964 131.0409,-1628.2964 154.8947,-1628.2964"/>
<polygon fill="#00ff00" stroke="#00ff00" points="154.9522,-1631.7965 164.9522,-1628.2964 154.9521,-1624.7965 154.9522,-1631.7965"/>
<text text-anchor="middle" x="120.2912" y="-1632.0964" font-family="Times,serif" font-size="14.00" fill="#000000">0</text>
</g>
<!-- Axel -->
<g id="node25" class="node">
<title>Axel</title>
<ellipse fill="none" stroke="#000000" cx="49.3956" cy="-1756.2964" rx="27.8951" ry="27.8951"/>
<text text-anchor="middle" x="49.3956" y="-1752.5964" font-family="Times,serif" font-size="14.00" fill="#000000">Axel</text>
</g>
<!-- Handball (1) -->
<g id="node26" class="node">
<title>Handball (1)</title>
<ellipse fill="none" stroke="#000000" cx="219.1344" cy="-1756.2964" rx="55.7903" ry="55.7903"/>
<text text-anchor="middle" x="219.1344" y="-1752.5964" font-family="Times,serif" font-size="14.00" fill="#000000">Handball (1)</text>
</g>
<!-- Axel&#45;&gt;Handball (1) -->
<g id="edge15" class="edge">
<title>Axel&#45;&gt;Handball (1)</title>
<path fill="none" stroke="#00ff00" d="M77.4245,-1756.2964C97.9568,-1756.2964 126.7036,-1756.2964 152.9439,-1756.2964"/>
<polygon fill="#00ff00" stroke="#00ff00" points="153.236,-1759.7965 163.2359,-1756.2964 153.2359,-1752.7965 153.236,-1759.7965"/>
<text text-anchor="middle" x="120.2912" y="-1760.0964" font-family="Times,serif" font-size="14.00" fill="#000000">0</text>
</g>
<!-- Gatwick -->
<g id="node27" class="node">
<title>Gatwick</title>
<ellipse fill="none" stroke="#000000" cx="49.3956" cy="-40.2964" rx="40.0939" ry="40.0939"/>
<text text-anchor="middle" x="49.3956" y="-36.5964" font-family="Times,serif" font-size="14.00" fill="#000000">Gatwick</text>
</g>
<!-- Gatwick&#45;&gt;Basketball (10) -->
<g id="edge16" class="edge">
<title>Gatwick&#45;&gt;Basketball (10)</title>
<path fill="none" stroke="#00ff00" d="M79.3508,-67.2976C102.4042,-88.0776 134.9313,-117.397 162.8081,-142.5248"/>
<polygon fill="#00ff00" stroke="#00ff00" points="160.7646,-145.3948 170.5358,-149.4904 165.4513,-140.1953 160.7646,-145.3948"/>
<text text-anchor="middle" x="120.2912" y="-107.0964" font-family="Times,serif" font-size="14.00" fill="#000000">0</text>
</g>
<!-- Laurent -->
<g id="node28" class="node">
<title>Laurent</title>
<ellipse fill="none" stroke="#000000" cx="49.3956" cy="-1005.2964" rx="38.1938" ry="38.1938"/>
<text text-anchor="middle" x="49.3956" y="-1001.5964" font-family="Times,serif" font-size="14.00" fill="#000000">Laurent</text>
</g>
<!-- Laurent&#45;&gt;Karate (3) -->
<g id="edge17" class="edge">
<title>Laurent&#45;&gt;Karate (3)</title>
<path fill="none" stroke="#00ff00" d="M87.912,-1009.154C109.822,-1011.3484 137.6775,-1014.1382 162.0825,-1016.5825"/>
<polygon fill="#00ff00" stroke="#00ff00" points="162.0041,-1020.092 172.3032,-1017.6061 162.7018,-1013.1269 162.0041,-1020.092"/>
<text text-anchor="middle" x="120.2912" y="-1016.0964" font-family="Times,serif" font-size="14.00" fill="#000000">0</text>
</g>
<!-- Bernard -->
<g id="node29" class="node">
<title>Bernard</title>
<ellipse fill="none" stroke="#000000" cx="49.3956" cy="-1907.2964" rx="38.9931" ry="38.9931"/>
<text text-anchor="middle" x="49.3956" y="-1903.5964" font-family="Times,serif" font-size="14.00" fill="#000000">Bernard</text>
</g>
<!-- LancerDePoids (1) -->
<g id="node30" class="node">
<title>LancerDePoids (1)</title>
<ellipse fill="none" stroke="#000000" cx="219.1344" cy="-1907.2964" rx="77.1866" ry="77.1866"/>
<text text-anchor="middle" x="219.1344" y="-1903.5964" font-family="Times,serif" font-size="14.00" fill="#000000">LancerDePoids (1)</text>
</g>
<!-- Bernard&#45;&gt;LancerDePoids (1) -->
<g id="edge18" class="edge">
<title>Bernard&#45;&gt;LancerDePoids (1)</title>
<path fill="none" stroke="#00ff00" d="M88.7637,-1907.2964C101.5748,-1907.2964 116.3498,-1907.2964 131.2488,-1907.2964"/>
<polygon fill="#00ff00" stroke="#00ff00" points="131.5608,-1910.7965 141.5608,-1907.2964 131.5608,-1903.7965 131.5608,-1910.7965"/>
<text text-anchor="middle" x="120.2912" y="-1911.0964" font-family="Times,serif" font-size="14.00" fill="#000000">0</text>
</g>
</g>
</svg>
