<?xml version="1.0" encoding="UTF-8" standalone="no"?>
<!DOCTYPE svg PUBLIC "-//W3C//DTD SVG 1.1//EN"
 "http://www.w3.org/Graphics/SVG/1.1/DTD/svg11.dtd">
<!-- Generated by graphviz version 2.43.20190912.0211 (20190912.0211)
 -->
<!-- Title: finite_state_machine Pages: 1 -->
<svg width="423pt" height="697pt"
 viewBox="0.00 0.00 422.78 696.75" xmlns="http://www.w3.org/2000/svg" xmlns:xlink="http://www.w3.org/1999/xlink">
<g id="graph0" class="graph" transform="scale(1 1) rotate(0) translate(4 692.75)">
<title>finite_state_machine</title>
<polygon fill="white" stroke="transparent" points="-4,4 -4,-692.75 418.78,-692.75 418.78,4 -4,4"/>
<!-- 1 -->
<g id="node1" class="node">
<title>1</title>
<ellipse fill="none" stroke="black" cx="255.14" cy="-502.75" rx="18" ry="18"/>
<text text-anchor="middle" x="255.14" y="-499.05" font-family="Times,serif" font-size="14.00">1</text>
</g>
<!-- 9999 -->
<g id="node2" class="node">
<title>9999</title>
<ellipse fill="none" stroke="black" cx="380.33" cy="-388.75" rx="34.39" ry="34.39"/>
<text text-anchor="middle" x="380.33" y="-385.05" font-family="Times,serif" font-size="14.00">9999</text>
</g>
<!-- 1&#45;&gt;9999 -->
<g id="edge1" class="edge">
<title>1&#45;&gt;9999</title>
<path fill="none" stroke="black" d="M270.23,-492.93C285.16,-482.26 309.11,-464.38 327.89,-446.75 335.77,-439.35 343.77,-430.88 351.04,-422.74"/>
<polygon fill="black" stroke="black" points="353.79,-424.92 357.76,-415.09 348.53,-420.3 353.79,-424.92"/>
<text text-anchor="middle" x="311.89" y="-475.55" font-family="Times,serif" font-size="14.00">0/20</text>
</g>
<!-- 2 -->
<g id="node3" class="node">
<title>2</title>
<ellipse fill="none" stroke="black" cx="255.14" cy="-567.75" rx="18" ry="18"/>
<text text-anchor="middle" x="255.14" y="-564.05" font-family="Times,serif" font-size="14.00">2</text>
</g>
<!-- 2&#45;&gt;9999 -->
<g id="edge2" class="edge">
<title>2&#45;&gt;9999</title>
<path fill="none" stroke="black" d="M268.98,-556.15C284.31,-541.83 310.13,-516.23 327.89,-490.75 341.14,-471.73 353.01,-448.82 362.01,-429.53"/>
<polygon fill="black" stroke="black" points="365.21,-430.94 366.18,-420.39 358.85,-428.03 365.21,-430.94"/>
<text text-anchor="middle" x="311.89" y="-531.55" font-family="Times,serif" font-size="14.00">0/3</text>
</g>
<!-- 3 -->
<g id="node4" class="node">
<title>3</title>
<ellipse fill="none" stroke="black" cx="255.14" cy="-657.75" rx="18" ry="18"/>
<text text-anchor="middle" x="255.14" y="-654.05" font-family="Times,serif" font-size="14.00">3</text>
</g>
<!-- 3&#45;&gt;9999 -->
<g id="edge3" class="edge">
<title>3&#45;&gt;9999</title>
<path fill="none" stroke="black" d="M266.91,-643.73C282.19,-623.33 310.23,-583.83 327.89,-546.75 345.62,-509.49 359.6,-464.55 368.48,-432.14"/>
<polygon fill="black" stroke="black" points="371.97,-432.65 371.18,-422.08 365.21,-430.83 371.97,-432.65"/>
<text text-anchor="middle" x="311.89" y="-603.55" font-family="Times,serif" font-size="14.00">0/5</text>
</g>
<!-- 4 -->
<g id="node5" class="node">
<title>4</title>
<ellipse fill="none" stroke="black" cx="255.14" cy="-447.75" rx="18" ry="18"/>
<text text-anchor="middle" x="255.14" y="-444.05" font-family="Times,serif" font-size="14.00">4</text>
</g>
<!-- 4&#45;&gt;9999 -->
<g id="edge4" class="edge">
<title>4&#45;&gt;9999</title>
<path fill="none" stroke="black" d="M271.74,-440.28C288.7,-432.15 316.46,-418.86 339.54,-407.81"/>
<polygon fill="black" stroke="black" points="341.26,-410.86 348.77,-403.39 338.24,-404.55 341.26,-410.86"/>
<text text-anchor="middle" x="311.89" y="-431.55" font-family="Times,serif" font-size="14.00">0/2</text>
</g>
<!-- 5 -->
<g id="node6" class="node">
<title>5</title>
<ellipse fill="none" stroke="black" cx="255.14" cy="-329.75" rx="18" ry="18"/>
<text text-anchor="middle" x="255.14" y="-326.05" font-family="Times,serif" font-size="14.00">5</text>
</g>
<!-- 5&#45;&gt;9999 -->
<g id="edge5" class="edge">
<title>5&#45;&gt;9999</title>
<path fill="none" stroke="black" d="M271.74,-337.22C288.7,-345.34 316.46,-358.64 339.54,-369.69"/>
<polygon fill="black" stroke="black" points="338.24,-372.95 348.77,-374.11 341.26,-366.63 338.24,-372.95"/>
<text text-anchor="middle" x="311.89" y="-366.55" font-family="Times,serif" font-size="14.00">0/10</text>
</g>
<!-- 6 -->
<g id="node7" class="node">
<title>6</title>
<ellipse fill="none" stroke="black" cx="150.64" cy="-503.75" rx="18" ry="18"/>
<text text-anchor="middle" x="150.64" y="-500.05" font-family="Times,serif" font-size="14.00">6</text>
</g>
<!-- 6&#45;&gt;1 -->
<g id="edge6" class="edge">
<title>6&#45;&gt;1</title>
<path fill="none" stroke="black" d="M169.03,-503.58C184.88,-503.42 208.55,-503.19 226.91,-503.01"/>
<polygon fill="black" stroke="black" points="227.04,-506.51 237.01,-502.92 226.97,-499.51 227.04,-506.51"/>
<text text-anchor="middle" x="202.89" y="-506.55" font-family="Times,serif" font-size="14.00">0/1</text>
</g>
<!-- 6&#45;&gt;2 -->
<g id="edge7" class="edge">
<title>6&#45;&gt;2</title>
<path fill="none" stroke="black" d="M159.04,-519.69C165.69,-532.14 176.68,-548.78 191.39,-557.75 201.92,-564.16 215.22,-566.88 226.86,-567.91"/>
<polygon fill="black" stroke="black" points="226.79,-571.41 236.96,-568.44 227.15,-564.42 226.79,-571.41"/>
<text text-anchor="middle" x="202.89" y="-569.55" font-family="Times,serif" font-size="14.00">0/1</text>
</g>
<!-- 7 -->
<g id="node8" class="node">
<title>7</title>
<ellipse fill="none" stroke="black" cx="150.64" cy="-636.75" rx="18" ry="18"/>
<text text-anchor="middle" x="150.64" y="-633.05" font-family="Times,serif" font-size="14.00">7</text>
</g>
<!-- 7&#45;&gt;1 -->
<g id="edge8" class="edge">
<title>7&#45;&gt;1</title>
<path fill="none" stroke="black" d="M166.37,-627.64C180.36,-618.35 201.16,-602.76 214.39,-584.75 226.9,-567.72 223.12,-559.74 232.39,-540.75 234.65,-536.12 237.23,-531.29 239.81,-526.68"/>
<polygon fill="black" stroke="black" points="243.04,-528.08 245,-517.66 236.97,-524.59 243.04,-528.08"/>
<text text-anchor="middle" x="202.89" y="-610.55" font-family="Times,serif" font-size="14.00">0/1</text>
</g>
<!-- 7&#45;&gt;2 -->
<g id="edge9" class="edge">
<title>7&#45;&gt;2</title>
<path fill="none" stroke="black" d="M168.6,-640.05C181.98,-641.74 200.62,-641.97 214.39,-633.75 229.04,-625 238.96,-608.58 245.22,-594.31"/>
<polygon fill="black" stroke="black" points="248.53,-595.48 248.99,-584.9 242.03,-592.88 248.53,-595.48"/>
<text text-anchor="middle" x="202.89" y="-643.55" font-family="Times,serif" font-size="14.00">0/1</text>
</g>
<!-- 7&#45;&gt;3 -->
<g id="edge10" class="edge">
<title>7&#45;&gt;3</title>
<path fill="none" stroke="black" d="M162.59,-650.41C169.82,-658.29 180.04,-667.46 191.39,-671.75 203.5,-676.32 217.53,-673.87 229.24,-669.83"/>
<polygon fill="black" stroke="black" points="230.84,-672.96 238.83,-666 228.24,-666.46 230.84,-672.96"/>
<text text-anchor="middle" x="202.89" y="-677.55" font-family="Times,serif" font-size="14.00">0/1</text>
</g>
<!-- 8 -->
<g id="node9" class="node">
<title>8</title>
<ellipse fill="none" stroke="black" cx="150.64" cy="-412.75" rx="18" ry="18"/>
<text text-anchor="middle" x="150.64" y="-409.05" font-family="Times,serif" font-size="14.00">8</text>
</g>
<!-- 8&#45;&gt;1 -->
<g id="edge11" class="edge">
<title>8&#45;&gt;1</title>
<path fill="none" stroke="black" d="M164.62,-424.15C181.93,-439.35 212.78,-466.43 233.35,-484.49"/>
<polygon fill="black" stroke="black" points="231.11,-487.19 240.94,-491.16 235.73,-481.93 231.11,-487.19"/>
<text text-anchor="middle" x="202.89" y="-469.55" font-family="Times,serif" font-size="14.00">0/1</text>
</g>
<!-- 8&#45;&gt;2 -->
<g id="edge12" class="edge">
<title>8&#45;&gt;2</title>
<path fill="none" stroke="black" d="M157.39,-429.8C167.01,-458.06 185.85,-512.26 191.39,-519.75 194.41,-523.83 214.96,-539.27 231.73,-551.55"/>
<polygon fill="black" stroke="black" points="229.9,-554.55 240.04,-557.61 234.02,-548.89 229.9,-554.55"/>
<text text-anchor="middle" x="202.89" y="-541.55" font-family="Times,serif" font-size="14.00">0/1</text>
</g>
<!-- 8&#45;&gt;4 -->
<g id="edge13" class="edge">
<title>8&#45;&gt;4</title>
<path fill="none" stroke="black" d="M168.42,-416.09C181.22,-418.86 199.17,-423.23 214.39,-428.75 219.47,-430.59 224.78,-432.86 229.8,-435.19"/>
<polygon fill="black" stroke="black" points="228.44,-438.42 238.96,-439.63 231.49,-432.12 228.44,-438.42"/>
<text text-anchor="middle" x="202.89" y="-432.55" font-family="Times,serif" font-size="14.00">0/1</text>
</g>
<!-- 9 -->
<g id="node10" class="node">
<title>9</title>
<ellipse fill="none" stroke="black" cx="255.14" cy="-275.75" rx="18" ry="18"/>
<text text-anchor="middle" x="255.14" y="-272.05" font-family="Times,serif" font-size="14.00">9</text>
</g>
<!-- 8&#45;&gt;9 -->
<g id="edge14" class="edge">
<title>8&#45;&gt;9</title>
<path fill="none" stroke="black" d="M162.56,-398.84C175.28,-382.5 196.81,-354.49 214.39,-329.75 222.74,-317.99 223.86,-314.38 232.39,-302.75 233.72,-300.93 235.13,-299.07 236.56,-297.22"/>
<polygon fill="black" stroke="black" points="239.37,-299.31 242.83,-289.3 233.88,-294.96 239.37,-299.31"/>
<text text-anchor="middle" x="202.89" y="-363.55" font-family="Times,serif" font-size="14.00">0/1</text>
</g>
<!-- 10 -->
<g id="node11" class="node">
<title>10</title>
<ellipse fill="none" stroke="black" cx="255.14" cy="-388.75" rx="23" ry="23"/>
<text text-anchor="middle" x="255.14" y="-385.05" font-family="Times,serif" font-size="14.00">10</text>
</g>
<!-- 8&#45;&gt;10 -->
<g id="edge15" class="edge">
<title>8&#45;&gt;10</title>
<path fill="none" stroke="black" d="M166.02,-402.62C173.27,-398.09 182.42,-393.22 191.39,-390.75 201.22,-388.04 212.24,-387.05 222.27,-386.87"/>
<polygon fill="black" stroke="black" points="222.24,-390.37 232.27,-386.95 222.3,-383.37 222.24,-390.37"/>
<text text-anchor="middle" x="202.89" y="-394.55" font-family="Times,serif" font-size="14.00">0/1</text>
</g>
<!-- 9&#45;&gt;9999 -->
<g id="edge16" class="edge">
<title>9&#45;&gt;9999</title>
<path fill="none" stroke="black" d="M270.58,-285.28C285.58,-295.49 309.4,-312.54 327.89,-329.75 336.04,-337.33 344.24,-346.1 351.63,-354.53"/>
<polygon fill="black" stroke="black" points="348.98,-356.82 358.15,-362.12 354.29,-352.26 348.98,-356.82"/>
<text text-anchor="middle" x="311.89" y="-333.55" font-family="Times,serif" font-size="14.00">0/1</text>
</g>
<!-- 10&#45;&gt;9999 -->
<g id="edge17" class="edge">
<title>10&#45;&gt;9999</title>
<path fill="none" stroke="black" d="M278.16,-388.75C294,-388.75 315.9,-388.75 335.27,-388.75"/>
<polygon fill="black" stroke="black" points="335.42,-392.25 345.42,-388.75 335.42,-385.25 335.42,-392.25"/>
<text text-anchor="middle" x="311.89" y="-392.55" font-family="Times,serif" font-size="14.00">0/1</text>
</g>
<!-- 11 -->
<g id="node12" class="node">
<title>11</title>
<ellipse fill="none" stroke="black" cx="150.64" cy="-211.75" rx="23" ry="23"/>
<text text-anchor="middle" x="150.64" y="-208.05" font-family="Times,serif" font-size="14.00">11</text>
</g>
<!-- 11&#45;&gt;9 -->
<g id="edge18" class="edge">
<title>11&#45;&gt;9</title>
<path fill="none" stroke="black" d="M173.53,-210.52C186.36,-210.82 202.35,-213.02 214.39,-220.75 226.84,-228.74 223.74,-236.75 232.39,-248.75 233.71,-250.57 235.1,-252.44 236.52,-254.3"/>
<polygon fill="black" stroke="black" points="233.84,-256.55 242.78,-262.23 239.34,-252.21 233.84,-256.55"/>
<text text-anchor="middle" x="202.89" y="-224.55" font-family="Times,serif" font-size="14.00">0/1</text>
</g>
<!-- 12 -->
<g id="node13" class="node">
<title>12</title>
<ellipse fill="none" stroke="black" cx="255.14" cy="-216.75" rx="23" ry="23"/>
<text text-anchor="middle" x="255.14" y="-213.05" font-family="Times,serif" font-size="14.00">12</text>
</g>
<!-- 11&#45;&gt;12 -->
<g id="edge19" class="edge">
<title>11&#45;&gt;12</title>
<path fill="none" stroke="black" d="M164.09,-193.24C172.91,-180.8 184.37,-166.09 191.39,-162.75 200.62,-158.35 205.27,-158.14 214.39,-162.75 224.97,-168.1 233.42,-177.73 239.76,-187.4"/>
<polygon fill="black" stroke="black" points="236.87,-189.38 245,-196.17 242.88,-185.79 236.87,-189.38"/>
<text text-anchor="middle" x="202.89" y="-166.55" font-family="Times,serif" font-size="14.00">0/1</text>
</g>
<!-- 12&#45;&gt;9999 -->
<g id="edge22" class="edge">
<title>12&#45;&gt;9999</title>
<path fill="none" stroke="black" d="M273.76,-230.4C289.42,-243.19 312.19,-263.48 327.89,-284.75 341.97,-303.83 353.98,-327.36 362.85,-347.21"/>
<polygon fill="black" stroke="black" points="359.74,-348.84 366.94,-356.62 366.16,-346.05 359.74,-348.84"/>
<text text-anchor="middle" x="311.89" y="-288.55" font-family="Times,serif" font-size="14.00">0/1</text>
</g>
<!-- 13 -->
<g id="node14" class="node">
<title>13</title>
<ellipse fill="none" stroke="black" cx="150.64" cy="-274.75" rx="23" ry="23"/>
<text text-anchor="middle" x="150.64" y="-271.05" font-family="Times,serif" font-size="14.00">13</text>
</g>
<!-- 13&#45;&gt;9 -->
<g id="edge20" class="edge">
<title>13&#45;&gt;9</title>
<path fill="none" stroke="black" d="M173.63,-274.96C189.17,-275.11 210.1,-275.32 226.73,-275.48"/>
<polygon fill="black" stroke="black" points="226.9,-278.98 236.93,-275.58 226.97,-271.98 226.9,-278.98"/>
<text text-anchor="middle" x="202.89" y="-278.55" font-family="Times,serif" font-size="14.00">0/1</text>
</g>
<!-- 13&#45;&gt;12 -->
<g id="edge21" class="edge">
<title>13&#45;&gt;12</title>
<path fill="none" stroke="black" d="M170.92,-263.84C186.38,-255.09 208.31,-242.68 225.77,-232.8"/>
<polygon fill="black" stroke="black" points="227.97,-235.58 234.95,-227.61 224.52,-229.49 227.97,-235.58"/>
<text text-anchor="middle" x="202.89" y="-254.55" font-family="Times,serif" font-size="14.00">0/1</text>
</g>
<!-- 14 -->
<g id="node15" class="node">
<title>14</title>
<ellipse fill="none" stroke="black" cx="150.64" cy="-337.75" rx="23" ry="23"/>
<text text-anchor="middle" x="150.64" y="-334.05" font-family="Times,serif" font-size="14.00">14</text>
</g>
<!-- 14&#45;&gt;5 -->
<g id="edge23" class="edge">
<title>14&#45;&gt;5</title>
<path fill="none" stroke="black" d="M169.75,-324.59C176.25,-320.62 183.84,-316.77 191.39,-314.75 203.86,-311.4 217.81,-314.11 229.4,-318.09"/>
<polygon fill="black" stroke="black" points="228.28,-321.42 238.86,-321.81 230.83,-314.9 228.28,-321.42"/>
<text text-anchor="middle" x="202.89" y="-318.55" font-family="Times,serif" font-size="14.00">0/1</text>
</g>
<!-- 15 -->
<g id="node16" class="node">
<title>15</title>
<ellipse fill="none" stroke="black" cx="150.64" cy="-148.75" rx="23" ry="23"/>
<text text-anchor="middle" x="150.64" y="-145.05" font-family="Times,serif" font-size="14.00">15</text>
</g>
<!-- 16 -->
<g id="node17" class="node">
<title>16</title>
<ellipse fill="none" stroke="black" cx="255.14" cy="-104.75" rx="23" ry="23"/>
<text text-anchor="middle" x="255.14" y="-101.05" font-family="Times,serif" font-size="14.00">16</text>
</g>
<!-- 15&#45;&gt;16 -->
<g id="edge24" class="edge">
<title>15&#45;&gt;16</title>
<path fill="none" stroke="black" d="M171.89,-140.05C186.91,-133.61 207.62,-124.72 224.51,-117.47"/>
<polygon fill="black" stroke="black" points="226.12,-120.58 233.93,-113.42 223.36,-114.15 226.12,-120.58"/>
<text text-anchor="middle" x="202.89" y="-133.55" font-family="Times,serif" font-size="14.00">0/1</text>
</g>
<!-- 16&#45;&gt;9999 -->
<g id="edge36" class="edge">
<title>16&#45;&gt;9999</title>
<path fill="none" stroke="black" d="M268.3,-123.5C283.65,-147.76 310.2,-191.66 327.89,-231.75 344.39,-269.16 358.47,-313.6 367.7,-345.63"/>
<polygon fill="black" stroke="black" points="364.43,-346.91 370.53,-355.57 371.16,-344.99 364.43,-346.91"/>
<text text-anchor="middle" x="311.89" y="-235.55" font-family="Times,serif" font-size="14.00">0/1</text>
</g>
<!-- 17 -->
<g id="node18" class="node">
<title>17</title>
<ellipse fill="none" stroke="black" cx="150.64" cy="-85.75" rx="23" ry="23"/>
<text text-anchor="middle" x="150.64" y="-82.05" font-family="Times,serif" font-size="14.00">17</text>
</g>
<!-- 17&#45;&gt;16 -->
<g id="edge25" class="edge">
<title>17&#45;&gt;16</title>
<path fill="none" stroke="black" d="M173.39,-83.94C185.58,-83.46 200.99,-83.74 214.39,-86.75 218.08,-87.58 221.84,-88.77 225.51,-90.14"/>
<polygon fill="black" stroke="black" points="224.31,-93.43 234.88,-94.12 227.04,-86.99 224.31,-93.43"/>
<text text-anchor="middle" x="202.89" y="-90.55" font-family="Times,serif" font-size="14.00">0/1</text>
</g>
<!-- 9998 -->
<g id="node19" class="node">
<title>9998</title>
<ellipse fill="none" stroke="black" cx="34.45" cy="-274.75" rx="34.39" ry="34.39"/>
<text text-anchor="middle" x="34.45" y="-271.05" font-family="Times,serif" font-size="14.00">9998</text>
</g>
<!-- 9998&#45;&gt;6 -->
<g id="edge26" class="edge">
<title>9998&#45;&gt;6</title>
<path fill="none" stroke="black" d="M49.81,-305.61C59.98,-327.28 74.04,-356.9 86.89,-382.75 103.64,-416.42 123.77,-454.91 136.64,-479.26"/>
<polygon fill="black" stroke="black" points="133.58,-480.97 141.35,-488.17 139.77,-477.7 133.58,-480.97"/>
<text text-anchor="middle" x="98.39" y="-429.55" font-family="Times,serif" font-size="14.00">0/1</text>
</g>
<!-- 9998&#45;&gt;7 -->
<g id="edge27" class="edge">
<title>9998&#45;&gt;7</title>
<path fill="none" stroke="black" d="M45.19,-307.72C55.38,-342.02 71.95,-397.24 86.89,-444.75 105.56,-504.07 128.47,-573.33 140.79,-610.3"/>
<polygon fill="black" stroke="black" points="137.49,-611.46 143.98,-619.84 144.13,-609.24 137.49,-611.46"/>
<text text-anchor="middle" x="98.39" y="-516.55" font-family="Times,serif" font-size="14.00">0/1</text>
</g>
<!-- 9998&#45;&gt;8 -->
<g id="edge28" class="edge">
<title>9998&#45;&gt;8</title>
<path fill="none" stroke="black" d="M57.19,-301.03C78.84,-327.19 111.67,-366.86 131.83,-391.22"/>
<polygon fill="black" stroke="black" points="129.32,-393.68 138.39,-399.15 134.71,-389.21 129.32,-393.68"/>
<text text-anchor="middle" x="98.39" y="-367.55" font-family="Times,serif" font-size="14.00">0/1</text>
</g>
<!-- 9998&#45;&gt;11 -->
<g id="edge29" class="edge">
<title>9998&#45;&gt;11</title>
<path fill="none" stroke="black" d="M64.85,-258.52C82.25,-248.93 104.17,-236.83 121.37,-227.35"/>
<polygon fill="black" stroke="black" points="123.31,-230.27 130.38,-222.38 119.93,-224.14 123.31,-230.27"/>
<text text-anchor="middle" x="98.39" y="-248.55" font-family="Times,serif" font-size="14.00">0/1</text>
</g>
<!-- 9998&#45;&gt;13 -->
<g id="edge30" class="edge">
<title>9998&#45;&gt;13</title>
<path fill="none" stroke="black" d="M69.09,-274.75C84.34,-274.75 102.29,-274.75 117.37,-274.75"/>
<polygon fill="black" stroke="black" points="117.76,-278.25 127.76,-274.75 117.76,-271.25 117.76,-278.25"/>
<text text-anchor="middle" x="98.39" y="-278.55" font-family="Times,serif" font-size="14.00">0/1</text>
</g>
<!-- 9998&#45;&gt;14 -->
<g id="edge31" class="edge">
<title>9998&#45;&gt;14</title>
<path fill="none" stroke="black" d="M64.85,-290.97C82.25,-300.57 104.17,-312.66 121.37,-322.15"/>
<polygon fill="black" stroke="black" points="119.93,-325.35 130.38,-327.12 123.31,-319.22 119.93,-325.35"/>
<text text-anchor="middle" x="98.39" y="-318.55" font-family="Times,serif" font-size="14.00">0/1</text>
</g>
<!-- 9998&#45;&gt;15 -->
<g id="edge32" class="edge">
<title>9998&#45;&gt;15</title>
<path fill="none" stroke="black" d="M57.19,-248.8C66.25,-238.14 76.96,-225.75 86.89,-214.75 99.97,-200.27 115.02,-184.41 127.1,-171.87"/>
<polygon fill="black" stroke="black" points="129.76,-174.16 134.19,-164.54 124.73,-169.29 129.76,-174.16"/>
<text text-anchor="middle" x="98.39" y="-218.55" font-family="Times,serif" font-size="14.00">0/1</text>
</g>
<!-- 9998&#45;&gt;17 -->
<g id="edge33" class="edge">
<title>9998&#45;&gt;17</title>
<path fill="none" stroke="black" d="M49.44,-243.38C59.12,-222.59 72.76,-194.97 86.89,-171.75 99.74,-150.64 116.28,-128.12 129.16,-111.43"/>
<polygon fill="black" stroke="black" points="132.13,-113.3 135.52,-103.26 126.61,-109 132.13,-113.3"/>
<text text-anchor="middle" x="98.39" y="-175.55" font-family="Times,serif" font-size="14.00">0/1</text>
</g>
<!-- 18 -->
<g id="node20" class="node">
<title>18</title>
<ellipse fill="none" stroke="black" cx="150.64" cy="-22.75" rx="23" ry="23"/>
<text text-anchor="middle" x="150.64" y="-19.05" font-family="Times,serif" font-size="14.00">18</text>
</g>
<!-- 9998&#45;&gt;18 -->
<g id="edge34" class="edge">
<title>9998&#45;&gt;18</title>
<path fill="none" stroke="black" d="M43.75,-241.34C52.42,-208.9 67.46,-158.69 86.89,-117.75 101.38,-87.23 109.08,-81.8 127.89,-53.75 128.85,-52.32 129.84,-50.86 130.84,-49.39"/>
<polygon fill="black" stroke="black" points="133.82,-51.23 136.63,-41.02 128.07,-47.25 133.82,-51.23"/>
<text text-anchor="middle" x="98.39" y="-121.55" font-family="Times,serif" font-size="14.00">0/1</text>
</g>
<!-- 18&#45;&gt;16 -->
<g id="edge35" class="edge">
<title>18&#45;&gt;16</title>
<path fill="none" stroke="black" d="M170.45,-33.96C183.29,-41.94 200.43,-53.24 214.39,-64.75 220.31,-69.63 226.33,-75.27 231.84,-80.75"/>
<polygon fill="black" stroke="black" points="229.47,-83.33 238.97,-88.03 234.47,-78.44 229.47,-83.33"/>
<text text-anchor="middle" x="202.89" y="-68.55" font-family="Times,serif" font-size="14.00">0/1</text>
</g>
</g>
</svg>
