<?xml version="1.0" encoding="UTF-8" standalone="no"?>
<!DOCTYPE svg PUBLIC "-//W3C//DTD SVG 1.1//EN"
 "http://www.w3.org/Graphics/SVG/1.1/DTD/svg11.dtd">
<!-- Generated by graphviz version 2.40.1 (20161225.0304)
 -->
<!-- Title: finite_state_machine Pages: 1 -->
<svg width="416pt" height="2372pt"
 viewBox="0.00 0.00 416.39 2372.39" xmlns="http://www.w3.org/2000/svg" xmlns:xlink="http://www.w3.org/1999/xlink">
<g id="graph0" class="graph" transform="scale(1 1) rotate(0) translate(4 2368.3903)">
<title>finite_state_machine</title>
<polygon fill="#ffffff" stroke="transparent" points="-4,4 -4,-2368.3903 412.3864,-2368.3903 412.3864,4 -4,4"/>
<!-- 24 -->
<g id="node1" class="node">
<title>24</title>
<ellipse fill="none" stroke="#000000" cx="149.6932" cy="-1335.3903" rx="19.4965" ry="19.4965"/>
<text text-anchor="middle" x="149.6932" y="-1331.6903" font-family="Times,serif" font-size="14.00" fill="#000000">24</text>
</g>
<!-- 3 -->
<g id="node2" class="node">
<title>3</title>
<ellipse fill="none" stroke="#000000" cx="260.1915" cy="-406.3903" rx="18" ry="18"/>
<text text-anchor="middle" x="260.1915" y="-402.6903" font-family="Times,serif" font-size="14.00" fill="#000000">3</text>
</g>
<!-- 24&#45;&gt;3 -->
<g id="edge1" class="edge">
<title>24&#45;&gt;3</title>
<path fill="none" stroke="#000000" d="M162.1846,-1320.2867C165.0217,-1316.0401 167.6506,-1311.248 169.1915,-1306.3903 182.6998,-1263.8035 165.0498,-541.1957 187.1915,-502.3903 196.7873,-485.5727 211.1871,-493.7361 224.1915,-479.3903 236.2208,-466.1201 245.1633,-448.0953 251.1269,-433.277"/>
<polygon fill="#000000" stroke="#000000" points="254.5124,-434.2198 254.7808,-423.6284 247.9661,-431.7406 254.5124,-434.2198"/>
<text text-anchor="middle" x="205.6915" y="-506.1903" font-family="Times,serif" font-size="14.00" fill="#000000">0/1 (2)</text>
</g>
<!-- 2 -->
<g id="node3" class="node">
<title>2</title>
<ellipse fill="none" stroke="#000000" cx="260.1915" cy="-1926.3903" rx="18" ry="18"/>
<text text-anchor="middle" x="260.1915" y="-1922.6903" font-family="Times,serif" font-size="14.00" fill="#000000">2</text>
</g>
<!-- 24&#45;&gt;2 -->
<g id="edge2" class="edge">
<title>24&#45;&gt;2</title>
<path fill="none" stroke="#000000" d="M162.3699,-1350.2168C165.1296,-1354.2445 167.6751,-1358.7757 169.1915,-1363.3903 180.8852,-1398.976 160.3536,-2011.2596 187.1915,-2037.3903 198.9736,-2048.862 210.8902,-2047.0597 224.1915,-2037.3903 237.7642,-2027.5235 248.8456,-1983.947 254.9766,-1954.4191"/>
<polygon fill="#000000" stroke="#000000" points="258.4783,-1954.7566 257.0068,-1944.2645 251.6141,-1953.3842 258.4783,-1954.7566"/>
<text text-anchor="middle" x="205.6915" y="-2048.1903" font-family="Times,serif" font-size="14.00" fill="#000000">0/1 (1)</text>
</g>
<!-- 1 -->
<g id="node4" class="node">
<title>1</title>
<ellipse fill="none" stroke="#000000" cx="260.1915" cy="-1147.3903" rx="18" ry="18"/>
<text text-anchor="middle" x="260.1915" y="-1143.6903" font-family="Times,serif" font-size="14.00" fill="#000000">1</text>
</g>
<!-- 24&#45;&gt;1 -->
<g id="edge3" class="edge">
<title>24&#45;&gt;1</title>
<path fill="none" stroke="#000000" d="M161.2259,-1319.4935C164.0075,-1315.3323 166.8496,-1310.7795 169.1915,-1306.3903 179.1375,-1287.749 173.5562,-1278.5303 187.1915,-1262.3903 199.6871,-1247.5993 211.8096,-1254.2766 224.1915,-1239.3903 239.6245,-1220.8357 248.9681,-1194.8834 254.2539,-1175.2715"/>
<polygon fill="#000000" stroke="#000000" points="257.694,-1175.9416 256.7224,-1165.3914 250.9028,-1174.2448 257.694,-1175.9416"/>
<text text-anchor="middle" x="205.6915" y="-1266.1903" font-family="Times,serif" font-size="14.00" fill="#000000">0/1 (0)</text>
</g>
<!-- 9999 -->
<g id="node26" class="node">
<title>9999</title>
<ellipse fill="none" stroke="#000000" cx="379.7889" cy="-1147.3903" rx="28.6953" ry="28.6953"/>
<text text-anchor="middle" x="379.7889" y="-1143.6903" font-family="Times,serif" font-size="14.00" fill="#000000">9999</text>
</g>
<!-- 3&#45;&gt;9999 -->
<g id="edge85" class="edge">
<title>3&#45;&gt;9999</title>
<path fill="none" stroke="#000000" d="M263.0886,-424.3401C278.5773,-520.3048 351.7209,-973.4869 373.5953,-1109.0157"/>
<polygon fill="#000000" stroke="#000000" points="370.1498,-1109.6349 375.1986,-1118.9494 377.0604,-1108.5194 370.1498,-1109.6349"/>
<text text-anchor="middle" x="314.6915" y="-847.1903" font-family="Times,serif" font-size="14.00" fill="#000000">0/7 (1)</text>
</g>
<!-- 2&#45;&gt;9999 -->
<g id="edge86" class="edge">
<title>2&#45;&gt;9999</title>
<path fill="none" stroke="#000000" d="M262.9717,-1908.2811C278.2681,-1808.648 352.2691,-1326.641 373.8626,-1185.9917"/>
<polygon fill="#000000" stroke="#000000" points="377.3835,-1186.1223 375.4416,-1175.707 370.4645,-1185.06 377.3835,-1186.1223"/>
<text text-anchor="middle" x="314.6915" y="-1678.1903" font-family="Times,serif" font-size="14.00" fill="#000000">0/7 (1)</text>
</g>
<!-- 1&#45;&gt;9999 -->
<g id="edge87" class="edge">
<title>1&#45;&gt;9999</title>
<path fill="none" stroke="#000000" d="M278.3557,-1147.3903C294.9025,-1147.3903 319.8926,-1147.3903 340.9271,-1147.3903"/>
<polygon fill="#000000" stroke="#000000" points="341.1899,-1150.8904 351.1899,-1147.3903 341.1898,-1143.8904 341.1899,-1150.8904"/>
<text text-anchor="middle" x="314.6915" y="-1151.1903" font-family="Times,serif" font-size="14.00" fill="#000000">0/7 (1)</text>
</g>
<!-- 9998 -->
<g id="node5" class="node">
<title>9998</title>
<ellipse fill="none" stroke="#000000" cx="28.5975" cy="-1164.3903" rx="28.6953" ry="28.6953"/>
<text text-anchor="middle" x="28.5975" y="-1160.6903" font-family="Times,serif" font-size="14.00" fill="#000000">9998</text>
</g>
<!-- 9998&#45;&gt;24 -->
<g id="edge4" class="edge">
<title>9998&#45;&gt;24</title>
<path fill="none" stroke="#000000" d="M37.1729,-1191.9675C44.9133,-1214.1983 57.7639,-1245.5705 75.1949,-1269.3903 89.0569,-1288.3329 109.1845,-1305.7563 125.025,-1317.939"/>
<polygon fill="#000000" stroke="#000000" points="123.2137,-1320.955 133.3172,-1324.1443 127.4078,-1315.3505 123.2137,-1320.955"/>
<text text-anchor="middle" x="93.6949" y="-1309.1903" font-family="Times,serif" font-size="14.00" fill="#000000">0/1 (1)</text>
</g>
<!-- 23 -->
<g id="node6" class="node">
<title>23</title>
<ellipse fill="none" stroke="#000000" cx="149.6932" cy="-886.3903" rx="19.4965" ry="19.4965"/>
<text text-anchor="middle" x="149.6932" y="-882.6903" font-family="Times,serif" font-size="14.00" fill="#000000">23</text>
</g>
<!-- 9998&#45;&gt;23 -->
<g id="edge5" class="edge">
<title>9998&#45;&gt;23</title>
<path fill="none" stroke="#000000" d="M32.5814,-1135.788C39.9949,-1085.2162 56.8316,-982.4193 75.1949,-951.3903 87.1442,-931.1993 107.5717,-914.039 124.0172,-902.4292"/>
<polygon fill="#000000" stroke="#000000" points="126.3518,-905.075 132.6648,-896.5664 122.4236,-899.2811 126.3518,-905.075"/>
<text text-anchor="middle" x="93.6949" y="-955.1903" font-family="Times,serif" font-size="14.00" fill="#000000">0/1 (1)</text>
</g>
<!-- 22 -->
<g id="node7" class="node">
<title>22</title>
<ellipse fill="none" stroke="#000000" cx="149.6932" cy="-1499.3903" rx="19.4965" ry="19.4965"/>
<text text-anchor="middle" x="149.6932" y="-1495.6903" font-family="Times,serif" font-size="14.00" fill="#000000">22</text>
</g>
<!-- 9998&#45;&gt;22 -->
<g id="edge6" class="edge">
<title>9998&#45;&gt;22</title>
<path fill="none" stroke="#000000" d="M30.9104,-1192.9193C36.2928,-1254.3384 51.0659,-1396.8829 75.1949,-1438.3903 86.6782,-1458.1442 107.1374,-1474.1938 123.7135,-1484.8632"/>
<polygon fill="#000000" stroke="#000000" points="122.089,-1487.9729 132.4414,-1490.2265 125.7539,-1482.009 122.089,-1487.9729"/>
<text text-anchor="middle" x="93.6949" y="-1479.1903" font-family="Times,serif" font-size="14.00" fill="#000000">0/1 (1)</text>
</g>
<!-- 21 -->
<g id="node8" class="node">
<title>21</title>
<ellipse fill="none" stroke="#000000" cx="149.6932" cy="-601.3903" rx="19.4965" ry="19.4965"/>
<text text-anchor="middle" x="149.6932" y="-597.6903" font-family="Times,serif" font-size="14.00" fill="#000000">21</text>
</g>
<!-- 9998&#45;&gt;21 -->
<g id="edge7" class="edge">
<title>9998&#45;&gt;21</title>
<path fill="none" stroke="#000000" d="M29.9776,-1135.5605C34.9638,-1035.099 52.9312,-704.2691 75.1949,-662.3903 85.9206,-642.215 106.4311,-626.194 123.2198,-615.6428"/>
<polygon fill="#000000" stroke="#000000" points="125.2875,-618.4846 132.0782,-610.3521 121.6982,-612.4749 125.2875,-618.4846"/>
<text text-anchor="middle" x="93.6949" y="-666.1903" font-family="Times,serif" font-size="14.00" fill="#000000">0/1 (1)</text>
</g>
<!-- 20 -->
<g id="node9" class="node">
<title>20</title>
<ellipse fill="none" stroke="#000000" cx="149.6932" cy="-715.3903" rx="19.4965" ry="19.4965"/>
<text text-anchor="middle" x="149.6932" y="-711.6903" font-family="Times,serif" font-size="14.00" fill="#000000">20</text>
</g>
<!-- 9998&#45;&gt;20 -->
<g id="edge8" class="edge">
<title>9998&#45;&gt;20</title>
<path fill="none" stroke="#000000" d="M29.3748,-1135.5692C31.9161,-1056.9023 41.8394,-840.256 75.1949,-778.3903 86.2505,-757.8852 106.9288,-741.2291 123.6997,-730.2046"/>
<polygon fill="#000000" stroke="#000000" points="125.9146,-732.9471 132.529,-724.6706 122.1969,-727.0159 125.9146,-732.9471"/>
<text text-anchor="middle" x="93.6949" y="-782.1903" font-family="Times,serif" font-size="14.00" fill="#000000">0/1 (1)</text>
</g>
<!-- 19 -->
<g id="node10" class="node">
<title>19</title>
<ellipse fill="none" stroke="#000000" cx="149.6932" cy="-1221.3903" rx="19.4965" ry="19.4965"/>
<text text-anchor="middle" x="149.6932" y="-1217.6903" font-family="Times,serif" font-size="14.00" fill="#000000">19</text>
</g>
<!-- 9998&#45;&gt;19 -->
<g id="edge9" class="edge">
<title>9998&#45;&gt;19</title>
<path fill="none" stroke="#000000" d="M54.5755,-1176.6182C74.6425,-1186.0638 102.3281,-1199.0955 122.6566,-1208.6642"/>
<polygon fill="#000000" stroke="#000000" points="121.4411,-1211.9603 131.9795,-1213.0524 124.4223,-1205.6268 121.4411,-1211.9603"/>
<text text-anchor="middle" x="93.6949" y="-1206.1903" font-family="Times,serif" font-size="14.00" fill="#000000">0/1 (1)</text>
</g>
<!-- 18 -->
<g id="node11" class="node">
<title>18</title>
<ellipse fill="none" stroke="#000000" cx="149.6932" cy="-1278.3903" rx="19.4965" ry="19.4965"/>
<text text-anchor="middle" x="149.6932" y="-1274.6903" font-family="Times,serif" font-size="14.00" fill="#000000">18</text>
</g>
<!-- 9998&#45;&gt;18 -->
<g id="edge10" class="edge">
<title>9998&#45;&gt;18</title>
<path fill="none" stroke="#000000" d="M45.6061,-1187.6326C53.9772,-1198.4061 64.5433,-1211.0764 75.1949,-1221.3903 90.6472,-1236.3527 109.9852,-1251.0485 125.0861,-1261.77"/>
<polygon fill="#000000" stroke="#000000" points="123.2239,-1264.7385 133.4264,-1267.5954 127.2323,-1258.9998 123.2239,-1264.7385"/>
<text text-anchor="middle" x="93.6949" y="-1254.1903" font-family="Times,serif" font-size="14.00" fill="#000000">0/1 (1)</text>
</g>
<!-- 17 -->
<g id="node12" class="node">
<title>17</title>
<ellipse fill="none" stroke="#000000" cx="149.6932" cy="-1164.3903" rx="19.4965" ry="19.4965"/>
<text text-anchor="middle" x="149.6932" y="-1160.6903" font-family="Times,serif" font-size="14.00" fill="#000000">17</text>
</g>
<!-- 9998&#45;&gt;17 -->
<g id="edge11" class="edge">
<title>9998&#45;&gt;17</title>
<path fill="none" stroke="#000000" d="M57.2955,-1164.3903C76.092,-1164.3903 100.6135,-1164.3903 119.671,-1164.3903"/>
<polygon fill="#000000" stroke="#000000" points="119.9,-1167.8904 129.9,-1164.3903 119.8999,-1160.8904 119.9,-1167.8904"/>
<text text-anchor="middle" x="93.6949" y="-1168.1903" font-family="Times,serif" font-size="14.00" fill="#000000">0/1 (1)</text>
</g>
<!-- 16 -->
<g id="node13" class="node">
<title>16</title>
<ellipse fill="none" stroke="#000000" cx="149.6932" cy="-829.3903" rx="19.4965" ry="19.4965"/>
<text text-anchor="middle" x="149.6932" y="-825.6903" font-family="Times,serif" font-size="14.00" fill="#000000">16</text>
</g>
<!-- 9998&#45;&gt;16 -->
<g id="edge12" class="edge">
<title>9998&#45;&gt;16</title>
<path fill="none" stroke="#000000" d="M31.0577,-1135.7551C36.6834,-1074.8405 51.8306,-934.6101 75.1949,-893.3903 86.6878,-873.1144 107.1463,-856.2449 123.7198,-844.9247"/>
<polygon fill="#000000" stroke="#000000" points="125.9909,-847.6216 132.446,-839.2202 122.1606,-841.7625 125.9909,-847.6216"/>
<text text-anchor="middle" x="93.6949" y="-897.1903" font-family="Times,serif" font-size="14.00" fill="#000000">0/1 (1)</text>
</g>
<!-- 15 -->
<g id="node14" class="node">
<title>15</title>
<ellipse fill="none" stroke="#000000" cx="149.6932" cy="-1613.3903" rx="19.4965" ry="19.4965"/>
<text text-anchor="middle" x="149.6932" y="-1609.6903" font-family="Times,serif" font-size="14.00" fill="#000000">15</text>
</g>
<!-- 9998&#45;&gt;15 -->
<g id="edge13" class="edge">
<title>9998&#45;&gt;15</title>
<path fill="none" stroke="#000000" d="M29.3326,-1193.016C31.7736,-1271.6831 41.4792,-1489.4194 75.1949,-1551.3903 86.1868,-1571.5939 106.6793,-1587.8981 123.3933,-1598.7071"/>
<polygon fill="#000000" stroke="#000000" points="121.8561,-1601.8709 132.2058,-1604.1367 125.5279,-1595.9113 121.8561,-1601.8709"/>
<text text-anchor="middle" x="93.6949" y="-1593.1903" font-family="Times,serif" font-size="14.00" fill="#000000">0/1 (1)</text>
</g>
<!-- 14 -->
<g id="node15" class="node">
<title>14</title>
<ellipse fill="none" stroke="#000000" cx="149.6932" cy="-1556.3903" rx="19.4965" ry="19.4965"/>
<text text-anchor="middle" x="149.6932" y="-1552.6903" font-family="Times,serif" font-size="14.00" fill="#000000">14</text>
</g>
<!-- 9998&#45;&gt;14 -->
<g id="edge14" class="edge">
<title>9998&#45;&gt;14</title>
<path fill="none" stroke="#000000" d="M30.0133,-1193.0663C33.9016,-1263.456 46.4266,-1442.7768 75.1949,-1494.3903 86.3928,-1514.4805 106.8713,-1530.7924 123.5275,-1541.6332"/>
<polygon fill="#000000" stroke="#000000" points="121.9626,-1544.7813 132.3045,-1547.0823 125.6548,-1538.8342 121.9626,-1544.7813"/>
<text text-anchor="middle" x="93.6949" y="-1536.1903" font-family="Times,serif" font-size="14.00" fill="#000000">0/1 (1)</text>
</g>
<!-- 13 -->
<g id="node16" class="node">
<title>13</title>
<ellipse fill="none" stroke="#000000" cx="149.6932" cy="-658.3903" rx="19.4965" ry="19.4965"/>
<text text-anchor="middle" x="149.6932" y="-654.6903" font-family="Times,serif" font-size="14.00" fill="#000000">13</text>
</g>
<!-- 9998&#45;&gt;13 -->
<g id="edge15" class="edge">
<title>9998&#45;&gt;13</title>
<path fill="none" stroke="#000000" d="M28.8596,-1135.7449C30.0726,-1049.4966 36.8916,-793.7558 75.1949,-721.3903 86.0929,-700.801 106.7829,-684.1512 123.5985,-673.1505"/>
<polygon fill="#000000" stroke="#000000" points="125.8194,-675.8906 132.455,-667.6311 122.117,-669.9498 125.8194,-675.8906"/>
<text text-anchor="middle" x="93.6949" y="-725.1903" font-family="Times,serif" font-size="14.00" fill="#000000">0/1 (1)</text>
</g>
<!-- 12 -->
<g id="node17" class="node">
<title>12</title>
<ellipse fill="none" stroke="#000000" cx="149.6932" cy="-943.3903" rx="19.4965" ry="19.4965"/>
<text text-anchor="middle" x="149.6932" y="-939.6903" font-family="Times,serif" font-size="14.00" fill="#000000">12</text>
</g>
<!-- 9998&#45;&gt;12 -->
<g id="edge16" class="edge">
<title>9998&#45;&gt;12</title>
<path fill="none" stroke="#000000" d="M32.2207,-1135.9182C37.4596,-1103.0272 49.4968,-1048.3224 75.1949,-1008.3903 87.8918,-988.6608 108.2685,-971.4692 124.5043,-959.73"/>
<polygon fill="#000000" stroke="#000000" points="126.8238,-962.3794 133.0231,-953.7876 122.8189,-956.6382 126.8238,-962.3794"/>
<text text-anchor="middle" x="93.6949" y="-1012.1903" font-family="Times,serif" font-size="14.00" fill="#000000">0/1 (1)</text>
</g>
<!-- 11 -->
<g id="node18" class="node">
<title>11</title>
<ellipse fill="none" stroke="#000000" cx="149.6932" cy="-772.3903" rx="19.4965" ry="19.4965"/>
<text text-anchor="middle" x="149.6932" y="-768.6903" font-family="Times,serif" font-size="14.00" fill="#000000">11</text>
</g>
<!-- 9998&#45;&gt;11 -->
<g id="edge17" class="edge">
<title>9998&#45;&gt;11</title>
<path fill="none" stroke="#000000" d="M30.0958,-1135.6575C34.1561,-1065.5767 47.0127,-887.8444 75.1949,-836.3903 86.4601,-815.8228 107.1228,-798.8828 123.8343,-787.6088"/>
<polygon fill="#000000" stroke="#000000" points="126.1181,-790.3009 132.6273,-781.9414 122.3258,-784.4171 126.1181,-790.3009"/>
<text text-anchor="middle" x="93.6949" y="-840.1903" font-family="Times,serif" font-size="14.00" fill="#000000">0/1 (1)</text>
</g>
<!-- 10 -->
<g id="node19" class="node">
<title>10</title>
<ellipse fill="none" stroke="#000000" cx="149.6932" cy="-1000.3903" rx="19.4965" ry="19.4965"/>
<text text-anchor="middle" x="149.6932" y="-996.6903" font-family="Times,serif" font-size="14.00" fill="#000000">10</text>
</g>
<!-- 9998&#45;&gt;10 -->
<g id="edge18" class="edge">
<title>9998&#45;&gt;10</title>
<path fill="none" stroke="#000000" d="M37.2946,-1137.0287C45.0308,-1115.3851 57.8155,-1085.128 75.1949,-1062.3903 88.9898,-1044.3423 108.9527,-1028.0876 124.7421,-1016.7539"/>
<polygon fill="#000000" stroke="#000000" points="126.8174,-1019.5737 133.0189,-1010.9835 122.814,-1013.8315 126.8174,-1019.5737"/>
<text text-anchor="middle" x="93.6949" y="-1066.1903" font-family="Times,serif" font-size="14.00" fill="#000000">0/1 (1)</text>
</g>
<!-- 9 -->
<g id="node20" class="node">
<title>9</title>
<ellipse fill="none" stroke="#000000" cx="149.6932" cy="-2023.3903" rx="18" ry="18"/>
<text text-anchor="middle" x="149.6932" y="-2019.6903" font-family="Times,serif" font-size="14.00" fill="#000000">9</text>
</g>
<!-- 9998&#45;&gt;9 -->
<g id="edge19" class="edge">
<title>9998&#45;&gt;9</title>
<path fill="none" stroke="#000000" d="M30.1413,-1192.9942C34.5223,-1269.6803 48.4783,-1486.1331 75.1949,-1664.3903 93.886,-1789.0999 128.2617,-1935.7812 142.8539,-1995.7472"/>
<polygon fill="#000000" stroke="#000000" points="139.4849,-1996.7051 145.2607,-2005.5872 146.2845,-1995.0419 139.4849,-1996.7051"/>
<text text-anchor="middle" x="93.6949" y="-1863.1903" font-family="Times,serif" font-size="14.00" fill="#000000">0/1 (1)</text>
</g>
<!-- 8 -->
<g id="node21" class="node">
<title>8</title>
<ellipse fill="none" stroke="#000000" cx="149.6932" cy="-1055.3903" rx="18" ry="18"/>
<text text-anchor="middle" x="149.6932" y="-1051.6903" font-family="Times,serif" font-size="14.00" fill="#000000">8</text>
</g>
<!-- 9998&#45;&gt;8 -->
<g id="edge20" class="edge">
<title>9998&#45;&gt;8</title>
<path fill="none" stroke="#000000" d="M45.7261,-1141.1387C54.0419,-1130.5838 64.5285,-1118.2788 75.1949,-1108.3903 90.7146,-1094.0025 110.276,-1080.2253 125.4594,-1070.3254"/>
<polygon fill="#000000" stroke="#000000" points="127.732,-1073.0268 134.2723,-1064.6916 123.9616,-1067.1289 127.732,-1073.0268"/>
<text text-anchor="middle" x="93.6949" y="-1112.1903" font-family="Times,serif" font-size="14.00" fill="#000000">0/1 (1)</text>
</g>
<!-- 7 -->
<g id="node22" class="node">
<title>7</title>
<ellipse fill="none" stroke="#000000" cx="149.6932" cy="-1390.3903" rx="18" ry="18"/>
<text text-anchor="middle" x="149.6932" y="-1386.6903" font-family="Times,serif" font-size="14.00" fill="#000000">7</text>
</g>
<!-- 9998&#45;&gt;7 -->
<g id="edge21" class="edge">
<title>9998&#45;&gt;7</title>
<path fill="none" stroke="#000000" d="M32.0199,-1192.9555C37.105,-1226.5859 49.0323,-1283.084 75.1949,-1324.3903 88.1449,-1344.836 109.2247,-1362.6657 125.6621,-1374.6216"/>
<polygon fill="#000000" stroke="#000000" points="124.0393,-1377.7587 134.2351,-1380.6388 128.0607,-1372.0291 124.0393,-1377.7587"/>
<text text-anchor="middle" x="93.6949" y="-1367.1903" font-family="Times,serif" font-size="14.00" fill="#000000">0/1 (1)</text>
</g>
<!-- 6 -->
<g id="node23" class="node">
<title>6</title>
<ellipse fill="none" stroke="#000000" cx="149.6932" cy="-1109.3903" rx="18" ry="18"/>
<text text-anchor="middle" x="149.6932" y="-1105.6903" font-family="Times,serif" font-size="14.00" fill="#000000">6</text>
</g>
<!-- 9998&#45;&gt;6 -->
<g id="edge22" class="edge">
<title>9998&#45;&gt;6</title>
<path fill="none" stroke="#000000" d="M54.8734,-1152.4561C75.3178,-1143.1706 103.5353,-1130.3546 123.8651,-1121.1211"/>
<polygon fill="#000000" stroke="#000000" points="125.4853,-1124.2293 133.1429,-1116.9072 122.5906,-1117.8559 125.4853,-1124.2293"/>
<text text-anchor="middle" x="93.6949" y="-1146.1903" font-family="Times,serif" font-size="14.00" fill="#000000">0/1 (1)</text>
</g>
<!-- 5 -->
<g id="node24" class="node">
<title>5</title>
<ellipse fill="none" stroke="#000000" cx="149.6932" cy="-1444.3903" rx="18" ry="18"/>
<text text-anchor="middle" x="149.6932" y="-1440.6903" font-family="Times,serif" font-size="14.00" fill="#000000">5</text>
</g>
<!-- 9998&#45;&gt;5 -->
<g id="edge23" class="edge">
<title>9998&#45;&gt;5</title>
<path fill="none" stroke="#000000" d="M32.3306,-1192.8933C39.4612,-1244.4219 56.0267,-1350.6756 75.1949,-1382.3903 87.3857,-1402.5606 108.5371,-1419.2188 125.1949,-1430.1702"/>
<polygon fill="#000000" stroke="#000000" points="123.5746,-1433.286 133.9015,-1435.6533 127.3048,-1427.3627 123.5746,-1433.286"/>
<text text-anchor="middle" x="93.6949" y="-1423.1903" font-family="Times,serif" font-size="14.00" fill="#000000">0/1 (1)</text>
</g>
<!-- 4 -->
<g id="node25" class="node">
<title>4</title>
<ellipse fill="none" stroke="#000000" cx="149.6932" cy="-1668.3903" rx="18" ry="18"/>
<text text-anchor="middle" x="149.6932" y="-1664.6903" font-family="Times,serif" font-size="14.00" fill="#000000">4</text>
</g>
<!-- 9998&#45;&gt;4 -->
<g id="edge24" class="edge">
<title>9998&#45;&gt;4</title>
<path fill="none" stroke="#000000" d="M30.3271,-1193.0567C36.0808,-1285.5097 55.3402,-1571.9315 75.1949,-1608.3903 86.3193,-1628.8177 107.5712,-1644.853 124.5388,-1655.1875"/>
<polygon fill="#000000" stroke="#000000" points="123.0245,-1658.355 133.4329,-1660.3341 126.5304,-1652.2962 123.0245,-1658.355"/>
<text text-anchor="middle" x="93.6949" y="-1649.1903" font-family="Times,serif" font-size="14.00" fill="#000000">0/1 (1)</text>
</g>
<!-- 23&#45;&gt;3 -->
<g id="edge25" class="edge">
<title>23&#45;&gt;3</title>
<path fill="none" stroke="#000000" d="M162.1684,-871.2816C165.0056,-867.035 167.6387,-862.2442 169.1915,-857.3903 180.3509,-822.5071 160.9427,-223.9319 187.1915,-198.3903 243.2979,-143.7955 256.3497,-309.2524 259.3297,-377.9543"/>
<polygon fill="#000000" stroke="#000000" points="255.8383,-378.2458 259.7265,-388.1013 262.8329,-377.9722 255.8383,-378.2458"/>
<text text-anchor="middle" x="205.6915" y="-202.1903" font-family="Times,serif" font-size="14.00" fill="#000000">0/1 (2)</text>
</g>
<!-- 23&#45;&gt;2 -->
<g id="edge26" class="edge">
<title>23&#45;&gt;2</title>
<path fill="none" stroke="#000000" d="M162.1858,-901.4935C165.0229,-905.7401 167.6516,-910.5323 169.1915,-915.3903 182.9266,-958.7209 163.077,-1694.8586 187.1915,-1733.3903 196.9984,-1749.0604 213.001,-1737.6763 224.1915,-1752.3903 241.3635,-1774.9693 252.4425,-1854.9109 257.3204,-1898.1414"/>
<polygon fill="#000000" stroke="#000000" points="253.8629,-1898.7225 258.4268,-1908.284 260.8216,-1897.9634 253.8629,-1898.7225"/>
<text text-anchor="middle" x="205.6915" y="-1756.1903" font-family="Times,serif" font-size="14.00" fill="#000000">0/1 (1)</text>
</g>
<!-- 23&#45;&gt;1 -->
<g id="edge27" class="edge">
<title>23&#45;&gt;1</title>
<path fill="none" stroke="#000000" d="M160.8931,-902.4138C169.6165,-914.6184 181.2158,-930.1818 187.1915,-935.3903 201.4454,-947.8143 213.1983,-941.0058 224.1915,-956.3903 242.5738,-982.1157 253.3347,-1072.5307 257.7818,-1119.1387"/>
<polygon fill="#000000" stroke="#000000" points="254.3043,-1119.5447 258.7067,-1129.1816 261.2748,-1118.9027 254.3043,-1119.5447"/>
<text text-anchor="middle" x="205.6915" y="-960.1903" font-family="Times,serif" font-size="14.00" fill="#000000">0/1 (0)</text>
</g>
<!-- 22&#45;&gt;3 -->
<g id="edge28" class="edge">
<title>22&#45;&gt;3</title>
<path fill="none" stroke="#000000" d="M162.3879,-1484.5697C165.1473,-1480.5419 167.6881,-1476.0092 169.1915,-1471.3903 183.8959,-1426.2126 163.6735,-657.6718 187.1915,-616.3903 196.7761,-599.5663 213.22,-609.3446 224.1915,-593.3903 233.1143,-580.415 248.6951,-483.18 256.0819,-434.2875"/>
<polygon fill="#000000" stroke="#000000" points="259.5491,-434.7665 257.5697,-424.3582 252.6264,-433.7291 259.5491,-434.7665"/>
<text text-anchor="middle" x="205.6915" y="-620.1903" font-family="Times,serif" font-size="14.00" fill="#000000">0/1 (2)</text>
</g>
<!-- 22&#45;&gt;2 -->
<g id="edge29" class="edge">
<title>22&#45;&gt;2</title>
<path fill="none" stroke="#000000" d="M162.1632,-1514.5007C165.0005,-1518.7472 167.6348,-1523.5377 169.1915,-1528.3903 179.7677,-1561.3611 162.3565,-2127.2625 187.1915,-2151.3903 198.9862,-2162.8491 211.6786,-2162.0603 224.1915,-2151.3903 239.0025,-2138.7606 252.3183,-2012.56 257.6836,-1954.8825"/>
<polygon fill="#000000" stroke="#000000" points="261.1955,-1954.9104 258.6202,-1944.6333 254.2246,-1954.2733 261.1955,-1954.9104"/>
<text text-anchor="middle" x="205.6915" y="-2163.1903" font-family="Times,serif" font-size="14.00" fill="#000000">0/1 (1)</text>
</g>
<!-- 22&#45;&gt;1 -->
<g id="edge30" class="edge">
<title>22&#45;&gt;1</title>
<path fill="none" stroke="#000000" d="M162.0662,-1484.0795C164.7633,-1480.132 167.3558,-1475.7592 169.1915,-1471.3903 185.8377,-1431.7719 162.8934,-1411.8349 187.1915,-1376.3903 198.1395,-1360.4199 213.3574,-1369.4383 224.1915,-1353.3903 243.4956,-1324.7959 253.9786,-1225.1197 258.0985,-1175.6642"/>
<polygon fill="#000000" stroke="#000000" points="261.592,-1175.8849 258.9036,-1165.6368 254.6144,-1175.3246 261.592,-1175.8849"/>
<text text-anchor="middle" x="205.6915" y="-1380.1903" font-family="Times,serif" font-size="14.00" fill="#000000">0/1 (0)</text>
</g>
<!-- 21&#45;&gt;3 -->
<g id="edge31" class="edge">
<title>21&#45;&gt;3</title>
<path fill="none" stroke="#000000" d="M150.1887,-581.7244C152.8156,-481.1753 165.8038,-28.4683 187.1915,-8.3903 199.1807,2.8648 212.051,2.7016 224.1915,-8.3903 251.4223,-33.2692 258.254,-291.4486 259.7868,-378.1638"/>
<polygon fill="#000000" stroke="#000000" points="256.2897,-378.3772 259.9555,-388.3176 263.2888,-378.2608 256.2897,-378.3772"/>
<text text-anchor="middle" x="205.6915" y="-12.1903" font-family="Times,serif" font-size="14.00" fill="#000000">0/1 (2)</text>
</g>
<!-- 21&#45;&gt;2 -->
<g id="edge32" class="edge">
<title>21&#45;&gt;2</title>
<path fill="none" stroke="#000000" d="M162.1933,-616.4911C165.0304,-620.7377 167.6571,-625.5306 169.1915,-630.3903 184.4657,-678.7684 160.327,-1500.355 187.1915,-1543.3903 196.9804,-1559.0717 213.7919,-1547.1071 224.1915,-1562.3903 242.9147,-1589.906 255.1146,-1816.4565 258.9193,-1897.6085"/>
<polygon fill="#000000" stroke="#000000" points="255.4441,-1898.2301 259.4002,-1908.0586 262.4367,-1897.9082 255.4441,-1898.2301"/>
<text text-anchor="middle" x="205.6915" y="-1566.1903" font-family="Times,serif" font-size="14.00" fill="#000000">0/1 (1)</text>
</g>
<!-- 21&#45;&gt;1 -->
<g id="edge33" class="edge">
<title>21&#45;&gt;1</title>
<path fill="none" stroke="#000000" d="M161.9551,-616.951C164.7228,-621.1187 167.3758,-625.7586 169.1915,-630.3903 188.0724,-678.5552 156.8876,-703.4615 187.1915,-745.3903 198.0199,-760.3727 213.8291,-749.0818 224.1915,-764.3903 243.9622,-793.5979 255.6169,-1035.3836 259.0879,-1119.0388"/>
<polygon fill="#000000" stroke="#000000" points="255.5934,-1119.2472 259.4972,-1129.0966 262.5876,-1118.9626 255.5934,-1119.2472"/>
<text text-anchor="middle" x="205.6915" y="-768.1903" font-family="Times,serif" font-size="14.00" fill="#000000">0/1 (0)</text>
</g>
<!-- 20&#45;&gt;3 -->
<g id="edge34" class="edge">
<title>20&#45;&gt;3</title>
<path fill="none" stroke="#000000" d="M162.1599,-700.2789C164.9972,-696.0323 167.6324,-691.2422 169.1915,-686.3903 179.4276,-654.5351 163.1812,-107.6934 187.1915,-84.3903 198.9919,-72.9374 211.9345,-73.4273 224.1915,-84.3903 245.9206,-103.8255 256.0649,-302.9356 259.138,-377.9803"/>
<polygon fill="#000000" stroke="#000000" points="255.6463,-378.2629 259.5406,-388.1161 262.6408,-377.985 255.6463,-378.2629"/>
<text text-anchor="middle" x="205.6915" y="-88.1903" font-family="Times,serif" font-size="14.00" fill="#000000">0/1 (2)</text>
</g>
<!-- 20&#45;&gt;2 -->
<g id="edge35" class="edge">
<title>20&#45;&gt;2</title>
<path fill="none" stroke="#000000" d="M162.1905,-730.492C165.0276,-734.7386 167.655,-739.5312 169.1915,-744.3903 183.8501,-790.7494 161.427,-1578.1564 187.1915,-1619.3903 196.9871,-1635.0675 213.5958,-1623.2424 224.1915,-1638.3903 238.9271,-1659.4569 253.0471,-1829.965 258.1682,-1898.2582"/>
<polygon fill="#000000" stroke="#000000" points="254.683,-1898.5883 258.9116,-1908.3027 261.6639,-1898.0716 254.683,-1898.5883"/>
<text text-anchor="middle" x="205.6915" y="-1642.1903" font-family="Times,serif" font-size="14.00" fill="#000000">0/1 (1)</text>
</g>
<!-- 20&#45;&gt;1 -->
<g id="edge36" class="edge">
<title>20&#45;&gt;1</title>
<path fill="none" stroke="#000000" d="M161.7182,-731.049C164.4904,-735.2148 167.2048,-739.8293 169.1915,-744.3903 183.2259,-776.6114 165.5598,-793.6913 187.1915,-821.3903 198.5695,-835.9597 213.6536,-825.2021 224.1915,-840.3903 239.9403,-863.0892 253.6468,-1047.9214 258.406,-1119.356"/>
<polygon fill="#000000" stroke="#000000" points="254.9193,-1119.6744 259.0673,-1129.4235 261.9043,-1119.2156 254.9193,-1119.6744"/>
<text text-anchor="middle" x="205.6915" y="-844.1903" font-family="Times,serif" font-size="14.00" fill="#000000">0/1 (0)</text>
</g>
<!-- 19&#45;&gt;3 -->
<g id="edge37" class="edge">
<title>19&#45;&gt;3</title>
<path fill="none" stroke="#000000" d="M162.1809,-1206.2856C165.018,-1202.039 167.6479,-1197.2471 169.1915,-1192.3903 182.0842,-1151.8224 160.9772,-459.9282 187.1915,-426.3903 197.5801,-413.0993 215.9068,-408.1089 231.5978,-406.4365"/>
<polygon fill="#000000" stroke="#000000" points="232.1654,-409.9064 241.9097,-405.7474 231.6986,-402.922 232.1654,-409.9064"/>
<text text-anchor="middle" x="205.6915" y="-430.1903" font-family="Times,serif" font-size="14.00" fill="#000000">0/1 (2)</text>
</g>
<!-- 19&#45;&gt;2 -->
<g id="edge38" class="edge">
<title>19&#45;&gt;2</title>
<path fill="none" stroke="#000000" d="M162.1749,-1236.4969C165.0121,-1240.7435 167.6435,-1245.5349 169.1915,-1250.3903 181.1932,-1288.0361 158.9005,-1933.8065 187.1915,-1961.3903 198.9657,-1972.8702 208.9548,-1967.5762 224.1915,-1961.3903 231.0289,-1958.6144 237.281,-1953.847 242.5871,-1948.7088"/>
<polygon fill="#000000" stroke="#000000" points="245.4069,-1950.8155 249.6425,-1941.1042 240.2753,-1946.0546 245.4069,-1950.8155"/>
<text text-anchor="middle" x="205.6915" y="-1971.1903" font-family="Times,serif" font-size="14.00" fill="#000000">0/1 (1)</text>
</g>
<!-- 19&#45;&gt;1 -->
<g id="edge39" class="edge">
<title>19&#45;&gt;1</title>
<path fill="none" stroke="#000000" d="M163.1836,-1207.1724C170.0092,-1200.4167 178.644,-1192.5029 187.1915,-1186.3903 201.9107,-1175.8641 219.8145,-1166.2561 234.2074,-1159.2104"/>
<polygon fill="#000000" stroke="#000000" points="236.011,-1162.2279 243.5285,-1154.7622 232.9961,-1155.9104 236.011,-1162.2279"/>
<text text-anchor="middle" x="205.6915" y="-1190.1903" font-family="Times,serif" font-size="14.00" fill="#000000">0/1 (0)</text>
</g>
<!-- 18&#45;&gt;3 -->
<g id="edge40" class="edge">
<title>18&#45;&gt;3</title>
<path fill="none" stroke="#000000" d="M162.1828,-1263.2862C165.0199,-1259.0396 167.6493,-1254.2476 169.1915,-1249.3903 182.392,-1207.813 165.5626,-502.2733 187.1915,-464.3903 196.7919,-447.5753 208.9396,-453.319 224.1915,-441.3903 229.8197,-436.9884 235.5345,-431.8171 240.7034,-426.8205"/>
<polygon fill="#000000" stroke="#000000" points="243.2005,-429.2732 247.8122,-419.7347 238.2588,-424.3154 243.2005,-429.2732"/>
<text text-anchor="middle" x="205.6915" y="-468.1903" font-family="Times,serif" font-size="14.00" fill="#000000">0/1 (2)</text>
</g>
<!-- 18&#45;&gt;2 -->
<g id="edge41" class="edge">
<title>18&#45;&gt;2</title>
<path fill="none" stroke="#000000" d="M162.1726,-1293.4977C165.0098,-1297.7442 167.6418,-1302.5354 169.1915,-1307.3903 180.8854,-1344.0267 159.6467,-1972.5527 187.1915,-1999.3903 198.9697,-2010.8661 210.2268,-2008.0741 224.1915,-1999.3903 240.0399,-1989.5351 249.1175,-1970.4194 254.1922,-1954.2211"/>
<polygon fill="#000000" stroke="#000000" points="257.6921,-1954.6953 256.9799,-1944.1245 250.9446,-1952.8323 257.6921,-1954.6953"/>
<text text-anchor="middle" x="205.6915" y="-2010.1903" font-family="Times,serif" font-size="14.00" fill="#000000">0/1 (1)</text>
</g>
<!-- 18&#45;&gt;1 -->
<g id="edge42" class="edge">
<title>18&#45;&gt;1</title>
<path fill="none" stroke="#000000" d="M160.6645,-1262.2541C171.1243,-1246.923 185.5265,-1225.9728 187.1915,-1224.3903 201.2263,-1211.051 210.2838,-1214.8621 224.1915,-1201.3903 232.7777,-1193.0732 240.4302,-1182.3752 246.4482,-1172.6983"/>
<polygon fill="#000000" stroke="#000000" points="249.6079,-1174.2316 251.6943,-1163.8442 243.5856,-1170.6633 249.6079,-1174.2316"/>
<text text-anchor="middle" x="205.6915" y="-1228.1903" font-family="Times,serif" font-size="14.00" fill="#000000">0/1 (0)</text>
</g>
<!-- 17&#45;&gt;3 -->
<g id="edge43" class="edge">
<title>17&#45;&gt;3</title>
<path fill="none" stroke="#000000" d="M162.3783,-1149.5666C165.1379,-1145.5388 167.6812,-1141.0069 169.1915,-1136.3903 182.1161,-1096.8831 157.4473,-417.4273 187.1915,-388.3903 200.2308,-375.661 220.7571,-382.1675 236.7273,-390.7158"/>
<polygon fill="#000000" stroke="#000000" points="235.1139,-393.8268 245.5128,-395.8549 238.6483,-387.7846 235.1139,-393.8268"/>
<text text-anchor="middle" x="205.6915" y="-392.1903" font-family="Times,serif" font-size="14.00" fill="#000000">0/1 (2)</text>
</g>
<!-- 17&#45;&gt;2 -->
<g id="edge44" class="edge">
<title>17&#45;&gt;2</title>
<path fill="none" stroke="#000000" d="M162.1771,-1179.4962C165.0143,-1183.7428 167.6451,-1188.5344 169.1915,-1193.3903 181.501,-1232.0456 158.7421,-1894.4699 187.1915,-1923.3903 198.683,-1935.0721 217.1666,-1935.7277 232.6588,-1933.5107"/>
<polygon fill="#000000" stroke="#000000" points="233.5976,-1936.8959 242.7837,-1931.6171 232.3107,-1930.0152 233.5976,-1936.8959"/>
<text text-anchor="middle" x="205.6915" y="-1938.1903" font-family="Times,serif" font-size="14.00" fill="#000000">0/1 (1)</text>
</g>
<!-- 17&#45;&gt;1 -->
<g id="edge45" class="edge">
<title>17&#45;&gt;1</title>
<path fill="none" stroke="#000000" d="M167.1581,-1155.2701C173.3196,-1152.5073 180.4053,-1149.8261 187.1915,-1148.3903 201.6727,-1145.3265 218.133,-1144.8498 231.7533,-1145.2375"/>
<polygon fill="#000000" stroke="#000000" points="231.8273,-1148.7444 241.9756,-1145.7009 232.1443,-1141.7516 231.8273,-1148.7444"/>
<text text-anchor="middle" x="205.6915" y="-1152.1903" font-family="Times,serif" font-size="14.00" fill="#000000">0/1 (0)</text>
</g>
<!-- 16&#45;&gt;3 -->
<g id="edge46" class="edge">
<title>16&#45;&gt;3</title>
<path fill="none" stroke="#000000" d="M162.1657,-814.2807C165.003,-810.0342 167.6367,-805.2436 169.1915,-800.3903 180.0431,-766.5164 161.6888,-185.1858 187.1915,-160.3903 198.9818,-148.9269 211.7501,-149.6371 224.1915,-160.3903 240.5188,-174.5022 253.3066,-316.6999 258.1206,-378.2446"/>
<polygon fill="#000000" stroke="#000000" points="254.6459,-378.7098 258.9005,-388.4128 261.6254,-378.1744 254.6459,-378.7098"/>
<text text-anchor="middle" x="205.6915" y="-164.1903" font-family="Times,serif" font-size="14.00" fill="#000000">0/1 (2)</text>
</g>
<!-- 16&#45;&gt;2 -->
<g id="edge47" class="edge">
<title>16&#45;&gt;2</title>
<path fill="none" stroke="#000000" d="M162.1875,-844.4929C165.0245,-848.7396 167.6528,-853.5319 169.1915,-858.3903 183.2344,-902.7304 162.527,-1655.9579 187.1915,-1695.3903 196.9945,-1711.0629 213.2662,-1699.4783 224.1915,-1714.3903 245.2607,-1743.148 254.9297,-1846.9911 258.4819,-1897.8802"/>
<polygon fill="#000000" stroke="#000000" points="255.0107,-1898.4309 259.1671,-1908.1763 261.9952,-1897.966 255.0107,-1898.4309"/>
<text text-anchor="middle" x="205.6915" y="-1718.1903" font-family="Times,serif" font-size="14.00" fill="#000000">0/1 (1)</text>
</g>
<!-- 16&#45;&gt;1 -->
<g id="edge48" class="edge">
<title>16&#45;&gt;1</title>
<path fill="none" stroke="#000000" d="M161.0926,-845.3601C163.8767,-849.52 166.7534,-854.0538 169.1915,-858.3903 178.5471,-875.0311 173.9789,-883.6109 187.1915,-897.3903 199.9857,-910.7334 213.3679,-901.4043 224.1915,-916.3903 247.258,-948.3277 256.0425,-1064.6595 258.9414,-1119.0276"/>
<polygon fill="#000000" stroke="#000000" points="255.4618,-1119.5226 259.4595,-1129.3342 262.453,-1119.1711 255.4618,-1119.5226"/>
<text text-anchor="middle" x="205.6915" y="-920.1903" font-family="Times,serif" font-size="14.00" fill="#000000">0/1 (0)</text>
</g>
<!-- 15&#45;&gt;3 -->
<g id="edge49" class="edge">
<title>15&#45;&gt;3</title>
<path fill="none" stroke="#000000" d="M162.1918,-1598.289C165.0289,-1594.0424 167.656,-1589.2497 169.1915,-1584.3903 184.1255,-1537.128 162.6751,-735.4681 187.1915,-692.3903 196.7687,-675.5621 213.6559,-685.6358 224.1915,-669.3903 249.0373,-631.0786 256.989,-494.488 259.3138,-434.7279"/>
<polygon fill="#000000" stroke="#000000" points="262.8198,-434.625 259.6852,-424.5045 255.8244,-434.3708 262.8198,-434.625"/>
<text text-anchor="middle" x="205.6915" y="-696.1903" font-family="Times,serif" font-size="14.00" fill="#000000">0/1 (2)</text>
</g>
<!-- 15&#45;&gt;2 -->
<g id="edge50" class="edge">
<title>15&#45;&gt;2</title>
<path fill="none" stroke="#000000" d="M162.3571,-1628.221C165.117,-1632.2487 167.6658,-1636.7787 169.1915,-1641.3903 179.4216,-1672.3129 163.8095,-2204.7155 187.1915,-2227.3903 198.9966,-2238.8384 211.8924,-2238.306 224.1915,-2227.3903 244.4092,-2209.4465 255.3626,-2026.4337 258.8998,-1954.862"/>
<polygon fill="#000000" stroke="#000000" points="262.4013,-1954.9148 259.3862,-1944.7581 255.4094,-1954.5782 262.4013,-1954.9148"/>
<text text-anchor="middle" x="205.6915" y="-2239.1903" font-family="Times,serif" font-size="14.00" fill="#000000">0/1 (1)</text>
</g>
<!-- 15&#45;&gt;1 -->
<g id="edge51" class="edge">
<title>15&#45;&gt;1</title>
<path fill="none" stroke="#000000" d="M162.0186,-1597.8541C164.785,-1593.686 167.4216,-1589.0397 169.1915,-1584.3903 190.256,-1529.0544 154.9873,-1502.076 187.1915,-1452.3903 197.7228,-1436.1421 213.7297,-1445.6834 224.1915,-1429.3903 250.9128,-1387.7747 257.8593,-1238.4965 259.6161,-1175.6236"/>
<polygon fill="#000000" stroke="#000000" points="263.1151,-1175.7031 259.8717,-1165.6169 256.1174,-1175.5242 263.1151,-1175.7031"/>
<text text-anchor="middle" x="205.6915" y="-1456.1903" font-family="Times,serif" font-size="14.00" fill="#000000">0/1 (0)</text>
</g>
<!-- 14&#45;&gt;3 -->
<g id="edge52" class="edge">
<title>14&#45;&gt;3</title>
<path fill="none" stroke="#000000" d="M162.1904,-1541.2886C165.0274,-1537.042 167.6549,-1532.2494 169.1915,-1527.3903 183.8177,-1481.1375 163.1878,-696.5457 187.1915,-654.3903 196.7724,-637.5642 213.4729,-647.5156 224.1915,-631.3903 245.3446,-599.5668 255.0732,-487.6378 258.5737,-434.6299"/>
<polygon fill="#000000" stroke="#000000" points="262.0724,-434.7595 259.2102,-424.5586 255.0863,-434.3179 262.0724,-434.7595"/>
<text text-anchor="middle" x="205.6915" y="-658.1903" font-family="Times,serif" font-size="14.00" fill="#000000">0/1 (2)</text>
</g>
<!-- 14&#45;&gt;2 -->
<g id="edge53" class="edge">
<title>14&#45;&gt;2</title>
<path fill="none" stroke="#000000" d="M162.1602,-1571.5016C164.9975,-1575.7482 167.6326,-1580.5384 169.1915,-1585.3903 179.4599,-1617.3517 163.1026,-2166.0086 187.1915,-2189.3903 198.9914,-2200.8438 211.8001,-2200.2011 224.1915,-2189.3903 241.7133,-2174.1035 253.9828,-2019.4561 258.3912,-1954.6865"/>
<polygon fill="#000000" stroke="#000000" points="261.9045,-1954.6028 259.0769,-1944.3922 254.9199,-1954.1375 261.9045,-1954.6028"/>
<text text-anchor="middle" x="205.6915" y="-2201.1903" font-family="Times,serif" font-size="14.00" fill="#000000">0/1 (1)</text>
</g>
<!-- 14&#45;&gt;1 -->
<g id="edge54" class="edge">
<title>14&#45;&gt;1</title>
<path fill="none" stroke="#000000" d="M161.9464,-1540.8262C164.7143,-1536.6586 167.3696,-1532.0196 169.1915,-1527.3903 187.8159,-1480.068 159.0542,-1456.7526 187.1915,-1414.3903 197.9045,-1398.2613 213.5712,-1407.5806 224.1915,-1391.3903 247.1933,-1356.3246 256.0717,-1232.0719 258.9733,-1175.6423"/>
<polygon fill="#000000" stroke="#000000" points="262.4708,-1175.7775 259.462,-1165.6189 255.4791,-1175.4366 262.4708,-1175.7775"/>
<text text-anchor="middle" x="205.6915" y="-1418.1903" font-family="Times,serif" font-size="14.00" fill="#000000">0/1 (0)</text>
</g>
<!-- 13&#45;&gt;3 -->
<g id="edge55" class="edge">
<title>13&#45;&gt;3</title>
<path fill="none" stroke="#000000" d="M162.1567,-643.2778C164.994,-639.0313 167.63,-634.2414 169.1915,-629.3903 179.1198,-598.5444 163.9273,-68.9473 187.1915,-46.3903 198.9975,-34.9432 211.9987,-35.356 224.1915,-46.3903 248.6497,-68.5247 257.2087,-296.7393 259.4927,-377.9195"/>
<polygon fill="#000000" stroke="#000000" points="255.9943,-378.0311 259.7632,-387.9328 262.9918,-377.8419 255.9943,-378.0311"/>
<text text-anchor="middle" x="205.6915" y="-50.1903" font-family="Times,serif" font-size="14.00" fill="#000000">0/1 (2)</text>
</g>
<!-- 13&#45;&gt;2 -->
<g id="edge56" class="edge">
<title>13&#45;&gt;2</title>
<path fill="none" stroke="#000000" d="M162.192,-673.4915C165.029,-677.7381 167.6561,-682.5309 169.1915,-687.3903 184.1579,-734.7589 160.877,-1539.2557 187.1915,-1581.3903 196.9837,-1597.0696 213.7049,-1585.1666 224.1915,-1600.3903 240.9319,-1624.6931 254.1671,-1823.4104 258.5964,-1898.1295"/>
<polygon fill="#000000" stroke="#000000" points="255.1085,-1898.4394 259.1854,-1908.2184 262.0966,-1898.0314 255.1085,-1898.4394"/>
<text text-anchor="middle" x="205.6915" y="-1604.1903" font-family="Times,serif" font-size="14.00" fill="#000000">0/1 (1)</text>
</g>
<!-- 13&#45;&gt;1 -->
<g id="edge57" class="edge">
<title>13&#45;&gt;1</title>
<path fill="none" stroke="#000000" d="M161.8588,-673.9896C164.6284,-678.1565 167.3063,-682.7864 169.1915,-687.3903 185.6408,-727.5632 161.2367,-748.5938 187.1915,-783.3903 198.2441,-798.2081 213.7507,-787.1352 224.1915,-802.3903 241.9362,-828.3174 254.6731,-1041.2299 258.7752,-1119.0476"/>
<polygon fill="#000000" stroke="#000000" points="255.2831,-1119.2926 259.2964,-1129.0979 262.2737,-1118.9301 255.2831,-1119.2926"/>
<text text-anchor="middle" x="205.6915" y="-806.1903" font-family="Times,serif" font-size="14.00" fill="#000000">0/1 (0)</text>
</g>
<!-- 12&#45;&gt;3 -->
<g id="edge58" class="edge">
<title>12&#45;&gt;3</title>
<path fill="none" stroke="#000000" d="M162.1709,-928.2824C165.0081,-924.0358 167.6405,-919.2448 169.1915,-914.3903 180.6586,-878.4977 160.1965,-262.6781 187.1915,-236.3903 198.9727,-224.9177 211.4157,-226.0366 224.1915,-236.3903 245.7984,-253.9008 254.9556,-334.3693 258.3883,-378.0263"/>
<polygon fill="#000000" stroke="#000000" points="254.9177,-378.5554 259.1418,-388.2717 261.8988,-378.0419 254.9177,-378.5554"/>
<text text-anchor="middle" x="205.6915" y="-240.1903" font-family="Times,serif" font-size="14.00" fill="#000000">0/1 (2)</text>
</g>
<!-- 12&#45;&gt;2 -->
<g id="edge59" class="edge">
<title>12&#45;&gt;2</title>
<path fill="none" stroke="#000000" d="M162.1841,-958.494C165.0212,-962.7406 167.6503,-967.5327 169.1915,-972.3903 182.6188,-1014.7115 163.627,-1733.7593 187.1915,-1771.3903 197.0025,-1787.0579 212.6024,-1775.9881 224.1915,-1790.3903 237.5128,-1806.9453 249.3566,-1863.8245 255.5772,-1898.5641"/>
<polygon fill="#000000" stroke="#000000" points="252.1554,-1899.3161 257.3226,-1908.5655 259.0512,-1898.1126 252.1554,-1899.3161"/>
<text text-anchor="middle" x="205.6915" y="-1794.1903" font-family="Times,serif" font-size="14.00" fill="#000000">0/1 (1)</text>
</g>
<!-- 12&#45;&gt;1 -->
<g id="edge60" class="edge">
<title>12&#45;&gt;1</title>
<path fill="none" stroke="#000000" d="M165.2259,-955.9071C186.7622,-973.2902 223.1835,-1002.8026 224.1915,-1004.3903 246.6774,-1039.8091 255.1271,-1088.48 258.2966,-1118.9229"/>
<polygon fill="#000000" stroke="#000000" points="254.8453,-1119.6161 259.2416,-1129.2557 261.8162,-1118.9785 254.8453,-1119.6161"/>
<text text-anchor="middle" x="205.6915" y="-1008.1903" font-family="Times,serif" font-size="14.00" fill="#000000">0/1 (0)</text>
</g>
<!-- 11&#45;&gt;3 -->
<g id="edge61" class="edge">
<title>11&#45;&gt;3</title>
<path fill="none" stroke="#000000" d="M162.1629,-757.2798C165.0002,-753.0333 167.6346,-748.2429 169.1915,-743.3903 179.7353,-710.5258 162.435,-146.4396 187.1915,-122.3903 198.9867,-110.932 211.854,-111.518 224.1915,-122.3903 243.2158,-139.1553 254.7866,-309.6782 258.6974,-378.1543"/>
<polygon fill="#000000" stroke="#000000" points="255.2078,-378.4394 259.2593,-388.2289 262.1969,-378.0495 255.2078,-378.4394"/>
<text text-anchor="middle" x="205.6915" y="-126.1903" font-family="Times,serif" font-size="14.00" fill="#000000">0/1 (2)</text>
</g>
<!-- 11&#45;&gt;2 -->
<g id="edge62" class="edge">
<title>11&#45;&gt;2</title>
<path fill="none" stroke="#000000" d="M162.189,-787.4925C165.0261,-791.7391 167.6539,-796.5316 169.1915,-801.3903 183.5422,-846.7399 161.977,-1617.0572 187.1915,-1657.3903 196.9907,-1673.0652 213.4549,-1661.3419 224.1915,-1676.3903 249.2541,-1711.5183 257.0584,-1840.4001 259.3274,-1898.1148"/>
<polygon fill="#000000" stroke="#000000" points="255.8382,-1898.477 259.7003,-1908.3428 262.8335,-1898.2219 255.8382,-1898.477"/>
<text text-anchor="middle" x="205.6915" y="-1680.1903" font-family="Times,serif" font-size="14.00" fill="#000000">0/1 (1)</text>
</g>
<!-- 11&#45;&gt;1 -->
<g id="edge63" class="edge">
<title>11&#45;&gt;1</title>
<path fill="none" stroke="#000000" d="M161.4947,-788.1511C164.2712,-792.315 167.0436,-796.903 169.1915,-801.3903 180.8445,-825.7358 169.8313,-838.7234 187.1915,-859.3903 199.0814,-873.5451 213.5301,-863.2885 224.1915,-878.3903 251.2363,-916.6995 257.9887,-1058.0618 259.6546,-1119.0624"/>
<polygon fill="#000000" stroke="#000000" points="256.1576,-1119.2306 259.9029,-1129.1413 263.1555,-1119.0581 256.1576,-1119.2306"/>
<text text-anchor="middle" x="205.6915" y="-882.1903" font-family="Times,serif" font-size="14.00" fill="#000000">0/1 (0)</text>
</g>
<!-- 10&#45;&gt;3 -->
<g id="edge64" class="edge">
<title>10&#45;&gt;3</title>
<path fill="none" stroke="#000000" d="M162.1733,-985.2832C165.0105,-981.0366 167.6423,-976.2453 169.1915,-971.3903 180.9664,-934.4883 159.4503,-301.4243 187.1915,-274.3903 198.9686,-262.9134 211.123,-264.4086 224.1915,-274.3903 240.6146,-286.9342 251.3437,-343.407 256.5319,-378.2978"/>
<polygon fill="#000000" stroke="#000000" points="253.0899,-378.9537 257.9644,-388.3606 260.0201,-377.9671 253.0899,-378.9537"/>
<text text-anchor="middle" x="205.6915" y="-278.1903" font-family="Times,serif" font-size="14.00" fill="#000000">0/1 (2)</text>
</g>
<!-- 10&#45;&gt;2 -->
<g id="edge65" class="edge">
<title>10&#45;&gt;2</title>
<path fill="none" stroke="#000000" d="M162.3816,-1015.2129C165.1411,-1019.2408 167.6835,-1023.7729 169.1915,-1028.3903 182.665,-1069.6463 164.1481,-1772.6126 187.1915,-1809.3903 197.0065,-1825.0553 211.9436,-1814.5441 224.1915,-1828.3903 241.6563,-1848.1343 250.896,-1877.0724 255.6195,-1898.3867"/>
<polygon fill="#000000" stroke="#000000" points="252.2416,-1899.3424 257.6448,-1908.4559 259.1041,-1897.962 252.2416,-1899.3424"/>
<text text-anchor="middle" x="205.6915" y="-1832.1903" font-family="Times,serif" font-size="14.00" fill="#000000">0/1 (1)</text>
</g>
<!-- 10&#45;&gt;1 -->
<g id="edge66" class="edge">
<title>10&#45;&gt;1</title>
<path fill="none" stroke="#000000" d="M167.3146,-1009.2821C184.02,-1018.5132 208.7876,-1034.397 224.1915,-1054.3903 239.0598,-1073.6886 248.4596,-1099.8691 253.9104,-1119.5359"/>
<polygon fill="#000000" stroke="#000000" points="250.5779,-1120.6289 256.4754,-1129.4306 257.354,-1118.8723 250.5779,-1120.6289"/>
<text text-anchor="middle" x="205.6915" y="-1058.1903" font-family="Times,serif" font-size="14.00" fill="#000000">0/1 (0)</text>
</g>
<!-- 9&#45;&gt;3 -->
<g id="edge67" class="edge">
<title>9&#45;&gt;3</title>
<path fill="none" stroke="#000000" d="M150.8196,-2005.1544C156.3239,-1916.5301 180.4006,-1534.6276 187.1915,-1524.3903 197.4102,-1508.9856 214.3005,-1521.0075 224.1915,-1505.3903 231.5741,-1493.7336 255.0023,-606.0619 259.4563,-434.806"/>
<polygon fill="#000000" stroke="#000000" points="262.9555,-434.8793 259.7164,-424.7918 255.9579,-434.6975 262.9555,-434.8793"/>
<text text-anchor="middle" x="205.6915" y="-1528.1903" font-family="Times,serif" font-size="14.00" fill="#000000">0/1 (2)</text>
</g>
<!-- 9&#45;&gt;2 -->
<g id="edge68" class="edge">
<title>9&#45;&gt;2</title>
<path fill="none" stroke="#000000" d="M150.4496,-2041.4412C153.3289,-2105.8057 164.6005,-2321.3067 187.1915,-2341.3903 199.4815,-2352.3162 212.0714,-2352.5045 224.1915,-2341.3903 252.6532,-2315.2906 258.6818,-2043.8512 259.8982,-1954.6346"/>
<polygon fill="#000000" stroke="#000000" points="263.4001,-1954.4966 260.0265,-1944.4533 256.4007,-1954.4083 263.4001,-1954.4966"/>
<text text-anchor="middle" x="205.6915" y="-2353.1903" font-family="Times,serif" font-size="14.00" fill="#000000">0/1 (1)</text>
</g>
<!-- 9&#45;&gt;1 -->
<g id="edge69" class="edge">
<title>9&#45;&gt;1</title>
<path fill="none" stroke="#000000" d="M150.8533,-2041.3988C154.7439,-2098.9813 168.1618,-2275.8294 187.1915,-2292.3903 199.5962,-2303.1858 212.3822,-2303.8341 224.1915,-2292.3903 234.5415,-2282.3606 255.6802,-1350.9783 259.5693,-1175.6674"/>
<polygon fill="#000000" stroke="#000000" points="263.0685,-1175.7406 259.7907,-1165.6656 256.0702,-1175.5857 263.0685,-1175.7406"/>
<text text-anchor="middle" x="205.6915" y="-2304.1903" font-family="Times,serif" font-size="14.00" fill="#000000">0/1 (0)</text>
</g>
<!-- 8&#45;&gt;3 -->
<g id="edge70" class="edge">
<title>8&#45;&gt;3</title>
<path fill="none" stroke="#000000" d="M161.7626,-1041.9973C164.7532,-1037.9087 167.5654,-1033.2116 169.1915,-1028.3903 181.9078,-990.6866 158.7041,-340.1705 187.1915,-312.3903 198.9647,-300.9094 210.6428,-303.0708 224.1915,-312.3903 235.5299,-320.1895 246.5432,-353.9723 253.3397,-378.8145"/>
<polygon fill="#000000" stroke="#000000" points="250.0431,-380.0389 255.983,-388.812 256.8106,-378.2496 250.0431,-380.0389"/>
<text text-anchor="middle" x="205.6915" y="-316.1903" font-family="Times,serif" font-size="14.00" fill="#000000">0/1 (2)</text>
</g>
<!-- 8&#45;&gt;2 -->
<g id="edge71" class="edge">
<title>8&#45;&gt;2</title>
<path fill="none" stroke="#000000" d="M161.7676,-1068.7816C164.7583,-1072.8702 167.5693,-1077.5677 169.1915,-1082.3903 182.7451,-1122.6836 164.6112,-1811.3711 187.1915,-1847.3903 197.0103,-1863.053 210.6957,-1853.7573 224.1915,-1866.3903 234.3765,-1875.9242 242.6684,-1888.9791 248.7159,-1900.4772"/>
<polygon fill="#000000" stroke="#000000" points="245.6872,-1902.2485 253.2602,-1909.658 251.9608,-1899.1431 245.6872,-1902.2485"/>
<text text-anchor="middle" x="205.6915" y="-1870.1903" font-family="Times,serif" font-size="14.00" fill="#000000">0/1 (1)</text>
</g>
<!-- 8&#45;&gt;1 -->
<g id="edge72" class="edge">
<title>8&#45;&gt;1</title>
<path fill="none" stroke="#000000" d="M166.4018,-1062.2644C182.4303,-1069.4132 206.7113,-1081.745 224.1915,-1097.3903 232.4407,-1104.7737 239.9041,-1114.3597 245.8686,-1123.1604"/>
<polygon fill="#000000" stroke="#000000" points="242.9443,-1125.0839 251.3072,-1131.5888 248.8261,-1121.2885 242.9443,-1125.0839"/>
<text text-anchor="middle" x="205.6915" y="-1101.1903" font-family="Times,serif" font-size="14.00" fill="#000000">0/1 (0)</text>
</g>
<!-- 7&#45;&gt;3 -->
<g id="edge73" class="edge">
<title>7&#45;&gt;3</title>
<path fill="none" stroke="#000000" d="M161.7728,-1377.0007C164.7636,-1372.9122 167.5733,-1368.2143 169.1915,-1363.3903 183.7362,-1320.0317 164.5371,-580.1182 187.1915,-540.3903 196.783,-523.5702 212.2569,-532.6376 224.1915,-517.3903 243.2269,-493.0712 252.3573,-458.3555 256.6294,-434.2482"/>
<polygon fill="#000000" stroke="#000000" points="260.0953,-434.739 258.2231,-424.3109 253.1836,-433.6305 260.0953,-434.739"/>
<text text-anchor="middle" x="205.6915" y="-544.1903" font-family="Times,serif" font-size="14.00" fill="#000000">0/1 (2)</text>
</g>
<!-- 7&#45;&gt;2 -->
<g id="edge74" class="edge">
<title>7&#45;&gt;2</title>
<path fill="none" stroke="#000000" d="M161.7557,-1403.7856C164.7462,-1407.8742 167.56,-1412.5708 169.1915,-1417.3903 180.9167,-1452.0288 160.9819,-2049.888 187.1915,-2075.3903 198.9774,-2086.8582 211.27,-2085.5616 224.1915,-2075.3903 242.9232,-2060.6454 253.0683,-1993.5639 257.471,-1954.6207"/>
<polygon fill="#000000" stroke="#000000" points="260.9755,-1954.7663 258.5629,-1944.4498 254.0154,-1954.019 260.9755,-1954.7663"/>
<text text-anchor="middle" x="205.6915" y="-2087.1903" font-family="Times,serif" font-size="14.00" fill="#000000">0/1 (1)</text>
</g>
<!-- 7&#45;&gt;1 -->
<g id="edge75" class="edge">
<title>7&#45;&gt;1</title>
<path fill="none" stroke="#000000" d="M161.1961,-1376.4023C164.1073,-1372.3787 167.0202,-1367.8638 169.1915,-1363.3903 181.9069,-1337.1926 169.6502,-1323.6348 187.1915,-1300.3903 198.8549,-1284.9347 212.591,-1292.8933 224.1915,-1277.3903 246.7099,-1247.2962 255.1428,-1203.8398 258.3009,-1175.6042"/>
<polygon fill="#000000" stroke="#000000" points="261.7906,-1175.8784 259.2713,-1165.5875 254.8232,-1175.2033 261.7906,-1175.8784"/>
<text text-anchor="middle" x="205.6915" y="-1304.1903" font-family="Times,serif" font-size="14.00" fill="#000000">0/1 (0)</text>
</g>
<!-- 6&#45;&gt;3 -->
<g id="edge76" class="edge">
<title>6&#45;&gt;3</title>
<path fill="none" stroke="#000000" d="M161.7643,-1095.9979C164.755,-1091.9093 167.5667,-1087.2121 169.1915,-1082.3903 182.1812,-1043.841 158.0757,-378.7989 187.1915,-350.3903 198.9615,-338.9061 209.758,-342.5103 224.1915,-350.3903 235.921,-356.7941 244.3989,-368.837 250.1696,-380.1188"/>
<polygon fill="#000000" stroke="#000000" points="247.0264,-381.6606 254.3923,-389.276 253.3831,-378.7293 247.0264,-381.6606"/>
<text text-anchor="middle" x="205.6915" y="-354.1903" font-family="Times,serif" font-size="14.00" fill="#000000">0/1 (2)</text>
</g>
<!-- 6&#45;&gt;2 -->
<g id="edge77" class="edge">
<title>6&#45;&gt;2</title>
<path fill="none" stroke="#000000" d="M161.766,-1122.7821C164.7567,-1126.8707 167.568,-1131.5681 169.1915,-1136.3903 182.4716,-1175.838 165.0744,-1850.1296 187.1915,-1885.3903 197.0142,-1901.0505 208.0713,-1895.3421 224.1915,-1904.3903 228.0717,-1906.5683 232.1377,-1908.9515 236.0827,-1911.3198"/>
<polygon fill="#000000" stroke="#000000" points="234.5646,-1914.4937 244.9238,-1916.7155 238.2112,-1908.5185 234.5646,-1914.4937"/>
<text text-anchor="middle" x="205.6915" y="-1908.1903" font-family="Times,serif" font-size="14.00" fill="#000000">0/1 (1)</text>
</g>
<!-- 6&#45;&gt;1 -->
<g id="edge78" class="edge">
<title>6&#45;&gt;1</title>
<path fill="none" stroke="#000000" d="M167.6078,-1111.9096C182.9891,-1114.4384 205.5605,-1119.0305 224.1915,-1126.3903 228.204,-1127.9754 232.3003,-1129.9613 236.2237,-1132.0753"/>
<polygon fill="#000000" stroke="#000000" points="234.5338,-1135.1411 244.9437,-1137.1123 238.0352,-1129.0797 234.5338,-1135.1411"/>
<text text-anchor="middle" x="205.6915" y="-1130.1903" font-family="Times,serif" font-size="14.00" fill="#000000">0/1 (0)</text>
</g>
<!-- 5&#45;&gt;3 -->
<g id="edge79" class="edge">
<title>5&#45;&gt;3</title>
<path fill="none" stroke="#000000" d="M161.7741,-1431.0012C164.7649,-1426.9127 167.5743,-1422.2146 169.1915,-1417.3903 184.0096,-1373.186 164.1053,-618.8949 187.1915,-578.3903 196.7795,-561.5682 212.8491,-571.0831 224.1915,-555.3903 237.9898,-536.2995 249.9194,-472.3627 255.9666,-434.7312"/>
<polygon fill="#000000" stroke="#000000" points="259.4913,-434.8459 257.5816,-424.4246 252.5757,-433.7622 259.4913,-434.8459"/>
<text text-anchor="middle" x="205.6915" y="-582.1903" font-family="Times,serif" font-size="14.00" fill="#000000">0/1 (2)</text>
</g>
<!-- 5&#45;&gt;2 -->
<g id="edge80" class="edge">
<title>5&#45;&gt;2</title>
<path fill="none" stroke="#000000" d="M161.7536,-1457.7864C164.7441,-1461.875 167.5584,-1466.5713 169.1915,-1471.3903 180.6433,-1505.1833 161.6103,-2088.5163 187.1915,-2113.3903 198.9813,-2124.8542 211.5119,-2123.8617 224.1915,-2113.3903 248.137,-2093.615 256.3249,-2002.1571 258.9872,-1954.8753"/>
<polygon fill="#000000" stroke="#000000" points="262.493,-1954.8525 259.5136,-1944.6852 255.5023,-1954.4913 262.493,-1954.8525"/>
<text text-anchor="middle" x="205.6915" y="-2125.1903" font-family="Times,serif" font-size="14.00" fill="#000000">0/1 (1)</text>
</g>
<!-- 5&#45;&gt;1 -->
<g id="edge81" class="edge">
<title>5&#45;&gt;1</title>
<path fill="none" stroke="#000000" d="M161.3577,-1430.4781C164.2696,-1426.4547 167.1424,-1421.921 169.1915,-1417.3903 184.0308,-1384.579 166.2876,-1367.7129 187.1915,-1338.3903 198.4313,-1322.6239 213.0538,-1331.2291 224.1915,-1315.3903 239.857,-1293.1125 251.4907,-1217.1385 256.8739,-1175.4061"/>
<polygon fill="#000000" stroke="#000000" points="260.3641,-1175.7021 258.1361,-1165.3442 253.4185,-1174.8308 260.3641,-1175.7021"/>
<text text-anchor="middle" x="205.6915" y="-1342.1903" font-family="Times,serif" font-size="14.00" fill="#000000">0/1 (0)</text>
</g>
<!-- 4&#45;&gt;3 -->
<g id="edge82" class="edge">
<title>4&#45;&gt;3</title>
<path fill="none" stroke="#000000" d="M161.7796,-1655.003C164.7705,-1650.9146 167.5786,-1646.2161 169.1915,-1641.3903 185.3083,-1593.1692 160.2691,-769.5205 187.1915,-726.3903 196.9801,-710.7088 213.6361,-722.5664 224.1915,-707.3903 239.595,-685.2437 253.4171,-505.4964 258.3104,-434.8001"/>
<polygon fill="#000000" stroke="#000000" points="261.829,-434.646 259.0179,-424.4309 254.8452,-434.1694 261.829,-434.646"/>
<text text-anchor="middle" x="205.6915" y="-730.1903" font-family="Times,serif" font-size="14.00" fill="#000000">0/1 (2)</text>
</g>
<!-- 4&#45;&gt;2 -->
<g id="edge83" class="edge">
<title>4&#45;&gt;2</title>
<path fill="none" stroke="#000000" d="M150.7915,-1686.5416C156.837,-1786.3695 185.8357,-2264.117 187.1915,-2265.3903 199.1784,-2276.6479 211.9649,-2276.3872 224.1915,-2265.3903 247.1491,-2244.7416 256.6001,-2032.489 259.3094,-1954.7348"/>
<polygon fill="#000000" stroke="#000000" points="262.8091,-1954.8021 259.6477,-1944.6899 255.813,-1954.5664 262.8091,-1954.8021"/>
<text text-anchor="middle" x="205.6915" y="-2277.1903" font-family="Times,serif" font-size="14.00" fill="#000000">0/1 (1)</text>
</g>
<!-- 4&#45;&gt;1 -->
<g id="edge84" class="edge">
<title>4&#45;&gt;1</title>
<path fill="none" stroke="#000000" d="M161.6772,-1654.6125C164.5903,-1650.5897 167.3838,-1646.0226 169.1915,-1641.3903 193.7605,-1578.4279 150.9113,-1547.4135 187.1915,-1490.3903 197.5853,-1474.0538 213.8517,-1483.7611 224.1915,-1467.3903 239.5965,-1442.9998 253.5628,-1249.9186 258.3961,-1176.0216"/>
<polygon fill="#000000" stroke="#000000" points="261.9158,-1175.827 259.0672,-1165.6224 254.9303,-1175.3762 261.9158,-1175.827"/>
<text text-anchor="middle" x="205.6915" y="-1494.1903" font-family="Times,serif" font-size="14.00" fill="#000000">0/1 (0)</text>
</g>
</g>
</svg>
