<?xml version="1.0" encoding="UTF-8" standalone="no"?>
<!DOCTYPE svg PUBLIC "-//W3C//DTD SVG 1.1//EN"
 "http://www.w3.org/Graphics/SVG/1.1/DTD/svg11.dtd">
<!-- Generated by graphviz version 2.43.20190912.0211 (20190912.0211)
 -->
<!-- Title: finite_state_machine Pages: 1 -->
<svg width="423pt" height="1113pt"
 viewBox="0.00 0.00 422.78 1112.75" xmlns="http://www.w3.org/2000/svg" xmlns:xlink="http://www.w3.org/1999/xlink">
<g id="graph0" class="graph" transform="scale(1 1) rotate(0) translate(4 1108.75)">
<title>finite_state_machine</title>
<polygon fill="white" stroke="transparent" points="-4,4 -4,-1108.75 418.78,-1108.75 418.78,4 -4,4"/>
<!-- 1 -->
<g id="node1" class="node">
<title>1</title>
<ellipse fill="none" stroke="black" cx="255.14" cy="-978.75" rx="18" ry="18"/>
<text text-anchor="middle" x="255.14" y="-975.05" font-family="Times,serif" font-size="14.00">1</text>
</g>
<!-- 9999 -->
<g id="node2" class="node">
<title>9999</title>
<ellipse fill="none" stroke="black" cx="380.33" cy="-750.75" rx="34.39" ry="34.39"/>
<text text-anchor="middle" x="380.33" y="-747.05" font-family="Times,serif" font-size="14.00">9999</text>
</g>
<!-- 1&#45;&gt;9999 -->
<g id="edge1" class="edge">
<title>1&#45;&gt;9999</title>
<path fill="none" stroke="black" d="M267.11,-964.89C282.13,-945.51 309.32,-908.85 327.89,-874.75 342.25,-848.36 355.19,-817.12 364.5,-792.59"/>
<polygon fill="black" stroke="black" points="367.79,-793.8 368.01,-783.2 361.23,-791.34 367.79,-793.8"/>
<text text-anchor="middle" x="311.89" y="-927.55" font-family="Times,serif" font-size="14.00">0/20</text>
</g>
<!-- 2 -->
<g id="node3" class="node">
<title>2</title>
<ellipse fill="none" stroke="black" cx="255.14" cy="-894.75" rx="18" ry="18"/>
<text text-anchor="middle" x="255.14" y="-891.05" font-family="Times,serif" font-size="14.00">2</text>
</g>
<!-- 2&#45;&gt;9999 -->
<g id="edge2" class="edge">
<title>2&#45;&gt;9999</title>
<path fill="none" stroke="black" d="M269.27,-883.07C284.21,-869.5 308.98,-846.09 327.89,-823.75 337.4,-812.51 346.93,-799.56 355.16,-787.73"/>
<polygon fill="black" stroke="black" points="358.14,-789.57 360.9,-779.34 352.36,-785.61 358.14,-789.57"/>
<text text-anchor="middle" x="311.89" y="-859.55" font-family="Times,serif" font-size="14.00">0/3</text>
</g>
<!-- 3 -->
<g id="node4" class="node">
<title>3</title>
<ellipse fill="none" stroke="black" cx="255.14" cy="-1077.75" rx="18" ry="18"/>
<text text-anchor="middle" x="255.14" y="-1074.05" font-family="Times,serif" font-size="14.00">3</text>
</g>
<!-- 3&#45;&gt;9999 -->
<g id="edge3" class="edge">
<title>3&#45;&gt;9999</title>
<path fill="none" stroke="black" d="M265.48,-1062.9C280.44,-1038.59 309.89,-988.44 327.89,-942.75 347.37,-893.27 362.04,-833.8 370.63,-794.28"/>
<polygon fill="black" stroke="black" points="374.06,-794.95 372.73,-784.44 367.22,-793.49 374.06,-794.95"/>
<text text-anchor="middle" x="311.89" y="-1010.55" font-family="Times,serif" font-size="14.00">0/5</text>
</g>
<!-- 4 -->
<g id="node5" class="node">
<title>4</title>
<ellipse fill="none" stroke="black" cx="255.14" cy="-830.75" rx="18" ry="18"/>
<text text-anchor="middle" x="255.14" y="-827.05" font-family="Times,serif" font-size="14.00">4</text>
</g>
<!-- 4&#45;&gt;9999 -->
<g id="edge4" class="edge">
<title>4&#45;&gt;9999</title>
<path fill="none" stroke="black" d="M270.75,-821.26C288.24,-809.9 318.15,-790.48 342.16,-774.89"/>
<polygon fill="black" stroke="black" points="344.23,-777.72 350.71,-769.34 340.41,-771.85 344.23,-777.72"/>
<text text-anchor="middle" x="311.89" y="-808.55" font-family="Times,serif" font-size="14.00">0/2</text>
</g>
<!-- 5 -->
<g id="node6" class="node">
<title>5</title>
<ellipse fill="none" stroke="black" cx="255.14" cy="-750.75" rx="18" ry="18"/>
<text text-anchor="middle" x="255.14" y="-747.05" font-family="Times,serif" font-size="14.00">5</text>
</g>
<!-- 5&#45;&gt;9999 -->
<g id="edge5" class="edge">
<title>5&#45;&gt;9999</title>
<path fill="none" stroke="black" d="M273.27,-750.75C289.29,-750.75 313.91,-750.75 335.39,-750.75"/>
<polygon fill="black" stroke="black" points="335.64,-754.25 345.64,-750.75 335.64,-747.25 335.64,-754.25"/>
<text text-anchor="middle" x="311.89" y="-754.55" font-family="Times,serif" font-size="14.00">0/10</text>
</g>
<!-- 6 -->
<g id="node7" class="node">
<title>6</title>
<ellipse fill="none" stroke="black" cx="255.14" cy="-539.75" rx="18" ry="18"/>
<text text-anchor="middle" x="255.14" y="-536.05" font-family="Times,serif" font-size="14.00">6</text>
</g>
<!-- 6&#45;&gt;9999 -->
<g id="edge6" class="edge">
<title>6&#45;&gt;9999</title>
<path fill="none" stroke="black" d="M265,-554.92C284.07,-587.59 329.52,-665.43 357.02,-712.54"/>
<polygon fill="black" stroke="black" points="354.04,-714.37 362.11,-721.24 360.09,-710.84 354.04,-714.37"/>
<text text-anchor="middle" x="311.89" y="-661.55" font-family="Times,serif" font-size="14.00">0/10</text>
</g>
<!-- 7 -->
<g id="node8" class="node">
<title>7</title>
<ellipse fill="none" stroke="black" cx="150.64" cy="-957.75" rx="18" ry="18"/>
<text text-anchor="middle" x="150.64" y="-954.05" font-family="Times,serif" font-size="14.00">7</text>
</g>
<!-- 7&#45;&gt;1 -->
<g id="edge7" class="edge">
<title>7&#45;&gt;1</title>
<path fill="none" stroke="black" d="M167.14,-965.26C174.35,-968.42 183.14,-971.81 191.39,-973.75 202.84,-976.44 215.75,-977.75 226.87,-978.37"/>
<polygon fill="black" stroke="black" points="226.75,-981.87 236.88,-978.77 227.02,-974.87 226.75,-981.87"/>
<text text-anchor="middle" x="202.89" y="-980.55" font-family="Times,serif" font-size="14.00">0/1</text>
</g>
<!-- 7&#45;&gt;2 -->
<g id="edge8" class="edge">
<title>7&#45;&gt;2</title>
<path fill="none" stroke="black" d="M168.31,-954.15C181.53,-950.79 200.09,-944.89 214.39,-935.75 222.43,-930.6 230.05,-923.53 236.42,-916.7"/>
<polygon fill="black" stroke="black" points="239.29,-918.74 243.29,-908.93 234.04,-914.11 239.29,-918.74"/>
<text text-anchor="middle" x="202.89" y="-950.55" font-family="Times,serif" font-size="14.00">0/1</text>
</g>
<!-- 8 -->
<g id="node9" class="node">
<title>8</title>
<ellipse fill="none" stroke="black" cx="150.64" cy="-1052.75" rx="18" ry="18"/>
<text text-anchor="middle" x="150.64" y="-1049.05" font-family="Times,serif" font-size="14.00">8</text>
</g>
<!-- 8&#45;&gt;1 -->
<g id="edge9" class="edge">
<title>8&#45;&gt;1</title>
<path fill="none" stroke="black" d="M168.39,-1056.13C181.84,-1057.92 200.66,-1058.24 214.39,-1049.75 230.16,-1039.99 240.2,-1021.58 246.25,-1005.95"/>
<polygon fill="black" stroke="black" points="249.67,-1006.79 249.67,-996.2 243.06,-1004.48 249.67,-1006.79"/>
<text text-anchor="middle" x="202.89" y="-1059.55" font-family="Times,serif" font-size="14.00">0/1</text>
</g>
<!-- 8&#45;&gt;2 -->
<g id="edge10" class="edge">
<title>8&#45;&gt;2</title>
<path fill="none" stroke="black" d="M165.85,-1042.89C179.85,-1032.55 201.01,-1015.13 214.39,-995.75 216.64,-992.49 233.09,-949.92 244.11,-921.1"/>
<polygon fill="black" stroke="black" points="247.45,-922.16 247.75,-911.57 240.91,-919.66 247.45,-922.16"/>
<text text-anchor="middle" x="202.89" y="-1024.55" font-family="Times,serif" font-size="14.00">0/1</text>
</g>
<!-- 8&#45;&gt;3 -->
<g id="edge11" class="edge">
<title>8&#45;&gt;3</title>
<path fill="none" stroke="black" d="M162.59,-1066.41C169.82,-1074.29 180.04,-1083.46 191.39,-1087.75 203.28,-1092.24 217.18,-1090.66 228.88,-1087.57"/>
<polygon fill="black" stroke="black" points="229.97,-1090.89 238.47,-1084.57 227.89,-1084.21 229.97,-1090.89"/>
<text text-anchor="middle" x="202.89" y="-1093.55" font-family="Times,serif" font-size="14.00">0/1</text>
</g>
<!-- 9 -->
<g id="node10" class="node">
<title>9</title>
<ellipse fill="none" stroke="black" cx="150.64" cy="-840.75" rx="18" ry="18"/>
<text text-anchor="middle" x="150.64" y="-837.05" font-family="Times,serif" font-size="14.00">9</text>
</g>
<!-- 9&#45;&gt;1 -->
<g id="edge12" class="edge">
<title>9&#45;&gt;1</title>
<path fill="none" stroke="black" d="M162.58,-854.92C170.46,-865.01 181.41,-878.85 191.39,-890.75 201.3,-902.57 205.09,-904.44 214.39,-916.75 223.51,-928.82 232.7,-942.98 239.94,-954.72"/>
<polygon fill="black" stroke="black" points="237.1,-956.8 245.28,-963.53 243.09,-953.17 237.1,-956.8"/>
<text text-anchor="middle" x="202.89" y="-920.55" font-family="Times,serif" font-size="14.00">0/1</text>
</g>
<!-- 9&#45;&gt;2 -->
<g id="edge13" class="edge">
<title>9&#45;&gt;2</title>
<path fill="none" stroke="black" d="M167.21,-848.95C183.86,-857.72 210.49,-871.75 229.89,-881.97"/>
<polygon fill="black" stroke="black" points="228.28,-885.08 238.76,-886.65 231.54,-878.89 228.28,-885.08"/>
<text text-anchor="middle" x="202.89" y="-875.55" font-family="Times,serif" font-size="14.00">0/1</text>
</g>
<!-- 9&#45;&gt;4 -->
<g id="edge14" class="edge">
<title>9&#45;&gt;4</title>
<path fill="none" stroke="black" d="M168.57,-839.1C184.44,-837.55 208.45,-835.21 227,-833.4"/>
<polygon fill="black" stroke="black" points="227.57,-836.86 237.19,-832.4 226.89,-829.89 227.57,-836.86"/>
<text text-anchor="middle" x="202.89" y="-839.55" font-family="Times,serif" font-size="14.00">0/1</text>
</g>
<!-- 10 -->
<g id="node11" class="node">
<title>10</title>
<ellipse fill="none" stroke="black" cx="255.14" cy="-691.75" rx="23" ry="23"/>
<text text-anchor="middle" x="255.14" y="-688.05" font-family="Times,serif" font-size="14.00">10</text>
</g>
<!-- 9&#45;&gt;10 -->
<g id="edge15" class="edge">
<title>9&#45;&gt;10</title>
<path fill="none" stroke="black" d="M166.2,-831.12C180.46,-820.95 201.83,-803.67 214.39,-783.75 229.24,-760.2 220.43,-748.89 232.39,-723.75 233.26,-721.93 234.22,-720.1 235.24,-718.28"/>
<polygon fill="black" stroke="black" points="238.42,-719.79 240.71,-709.45 232.47,-716.11 238.42,-719.79"/>
<text text-anchor="middle" x="202.89" y="-813.55" font-family="Times,serif" font-size="14.00">0/1</text>
</g>
<!-- 11 -->
<g id="node12" class="node">
<title>11</title>
<ellipse fill="none" stroke="black" cx="255.14" cy="-360.75" rx="23" ry="23"/>
<text text-anchor="middle" x="255.14" y="-357.05" font-family="Times,serif" font-size="14.00">11</text>
</g>
<!-- 9&#45;&gt;11 -->
<g id="edge16" class="edge">
<title>9&#45;&gt;11</title>
<path fill="none" stroke="black" d="M162.59,-827.19C166.31,-822.21 170.31,-816.39 173.39,-810.75 183.92,-791.48 178.51,-782.53 191.39,-764.75 199.17,-754.01 208.28,-757.52 214.39,-745.75 238.31,-699.65 226.71,-564.37 232.39,-512.75 236.94,-471.39 244.03,-423.95 248.87,-393.23"/>
<polygon fill="black" stroke="black" points="252.36,-393.52 250.48,-383.1 245.45,-392.42 252.36,-393.52"/>
<text text-anchor="middle" x="202.89" y="-768.55" font-family="Times,serif" font-size="14.00">0/1</text>
</g>
<!-- 10&#45;&gt;9999 -->
<g id="edge17" class="edge">
<title>10&#45;&gt;9999</title>
<path fill="none" stroke="black" d="M275.93,-701.23C293.11,-709.46 318.51,-721.62 339.84,-731.83"/>
<polygon fill="black" stroke="black" points="338.47,-735.06 349,-736.22 341.49,-728.74 338.47,-735.06"/>
<text text-anchor="middle" x="311.89" y="-728.55" font-family="Times,serif" font-size="14.00">0/1</text>
</g>
<!-- 11&#45;&gt;9999 -->
<g id="edge18" class="edge">
<title>11&#45;&gt;9999</title>
<path fill="none" stroke="black" d="M262.94,-382.27C282.59,-444.49 339.75,-625.43 365.94,-708.35"/>
<polygon fill="black" stroke="black" points="362.62,-709.48 368.97,-717.96 369.3,-707.37 362.62,-709.48"/>
<text text-anchor="middle" x="311.89" y="-582.55" font-family="Times,serif" font-size="14.00">0/1</text>
</g>
<!-- 12 -->
<g id="node13" class="node">
<title>12</title>
<ellipse fill="none" stroke="black" cx="150.64" cy="-715.75" rx="23" ry="23"/>
<text text-anchor="middle" x="150.64" y="-712.05" font-family="Times,serif" font-size="14.00">12</text>
</g>
<!-- 12&#45;&gt;6 -->
<g id="edge20" class="edge">
<title>12&#45;&gt;6</title>
<path fill="none" stroke="black" d="M166.11,-698.87C179.72,-682.47 200.07,-656.48 214.39,-631.75 226.65,-610.56 237.45,-584.87 244.68,-566.03"/>
<polygon fill="black" stroke="black" points="247.98,-567.19 248.22,-556.6 241.43,-564.73 247.98,-567.19"/>
<text text-anchor="middle" x="202.89" y="-668.55" font-family="Times,serif" font-size="14.00">0/1</text>
</g>
<!-- 12&#45;&gt;10 -->
<g id="edge19" class="edge">
<title>12&#45;&gt;10</title>
<path fill="none" stroke="black" d="M169.77,-702.66C176.27,-698.69 183.86,-694.83 191.39,-692.75 201.21,-690.03 212.23,-689.16 222.26,-689.16"/>
<polygon fill="black" stroke="black" points="222.17,-692.66 232.26,-689.42 222.36,-685.66 222.17,-692.66"/>
<text text-anchor="middle" x="202.89" y="-696.55" font-family="Times,serif" font-size="14.00">0/1</text>
</g>
<!-- 13 -->
<g id="node14" class="node">
<title>13</title>
<ellipse fill="none" stroke="black" cx="150.64" cy="-652.75" rx="23" ry="23"/>
<text text-anchor="middle" x="150.64" y="-649.05" font-family="Times,serif" font-size="14.00">13</text>
</g>
<!-- 13&#45;&gt;6 -->
<g id="edge22" class="edge">
<title>13&#45;&gt;6</title>
<path fill="none" stroke="black" d="M164.65,-634.47C167.55,-630.31 170.6,-625.9 173.39,-621.75 181.64,-609.47 181.68,-604.91 191.39,-593.75 203.5,-579.83 219.24,-566.29 231.93,-556.25"/>
<polygon fill="black" stroke="black" points="234.37,-558.78 240.14,-549.9 230.09,-553.25 234.37,-558.78"/>
<text text-anchor="middle" x="202.89" y="-597.55" font-family="Times,serif" font-size="14.00">0/1</text>
</g>
<!-- 13&#45;&gt;10 -->
<g id="edge21" class="edge">
<title>13&#45;&gt;10</title>
<path fill="none" stroke="black" d="M165.7,-635.41C178.48,-621.83 197.82,-606.78 214.39,-616.75 230.07,-626.19 239.9,-644.12 245.85,-660.09"/>
<polygon fill="black" stroke="black" points="242.57,-661.32 249.08,-669.68 249.21,-659.09 242.57,-661.32"/>
<text text-anchor="middle" x="202.89" y="-620.55" font-family="Times,serif" font-size="14.00">0/1</text>
</g>
<!-- 14 -->
<g id="node15" class="node">
<title>14</title>
<ellipse fill="none" stroke="black" cx="150.64" cy="-778.75" rx="23" ry="23"/>
<text text-anchor="middle" x="150.64" y="-775.05" font-family="Times,serif" font-size="14.00">14</text>
</g>
<!-- 14&#45;&gt;5 -->
<g id="edge23" class="edge">
<title>14&#45;&gt;5</title>
<path fill="none" stroke="black" d="M164.32,-760.36C173.13,-748.23 184.49,-733.99 191.39,-730.75 204.13,-724.76 219.12,-729.15 231.26,-735.33"/>
<polygon fill="black" stroke="black" points="229.87,-738.57 240.28,-740.5 233.35,-732.49 229.87,-738.57"/>
<text text-anchor="middle" x="202.89" y="-734.55" font-family="Times,serif" font-size="14.00">0/1</text>
</g>
<!-- 15 -->
<g id="node16" class="node">
<title>15</title>
<ellipse fill="none" stroke="black" cx="150.64" cy="-148.75" rx="23" ry="23"/>
<text text-anchor="middle" x="150.64" y="-145.05" font-family="Times,serif" font-size="14.00">15</text>
</g>
<!-- 16 -->
<g id="node17" class="node">
<title>16</title>
<ellipse fill="none" stroke="black" cx="255.14" cy="-111.75" rx="23" ry="23"/>
<text text-anchor="middle" x="255.14" y="-108.05" font-family="Times,serif" font-size="14.00">16</text>
</g>
<!-- 15&#45;&gt;16 -->
<g id="edge24" class="edge">
<title>15&#45;&gt;16</title>
<path fill="none" stroke="black" d="M172.38,-141.26C187.11,-135.94 207.12,-128.72 223.66,-122.75"/>
<polygon fill="black" stroke="black" points="225.21,-125.91 233.43,-119.22 222.83,-119.33 225.21,-125.91"/>
<text text-anchor="middle" x="202.89" y="-136.55" font-family="Times,serif" font-size="14.00">0/1</text>
</g>
<!-- 16&#45;&gt;9999 -->
<g id="edge27" class="edge">
<title>16&#45;&gt;9999</title>
<path fill="none" stroke="black" d="M260.73,-133.8C272.34,-189.63 303.62,-341.12 327.89,-467.75 344.08,-552.24 361.78,-651.18 371.62,-706.85"/>
<polygon fill="black" stroke="black" points="368.18,-707.49 373.36,-716.73 375.07,-706.27 368.18,-707.49"/>
<text text-anchor="middle" x="311.89" y="-471.55" font-family="Times,serif" font-size="14.00">0/1</text>
</g>
<!-- 17 -->
<g id="node18" class="node">
<title>17</title>
<ellipse fill="none" stroke="black" cx="150.64" cy="-85.75" rx="23" ry="23"/>
<text text-anchor="middle" x="150.64" y="-82.05" font-family="Times,serif" font-size="14.00">17</text>
</g>
<!-- 17&#45;&gt;16 -->
<g id="edge25" class="edge">
<title>17&#45;&gt;16</title>
<path fill="none" stroke="black" d="M173.23,-90.15C185.37,-92.73 200.79,-96.18 214.39,-99.75 217.36,-100.53 220.45,-101.38 223.52,-102.26"/>
<polygon fill="black" stroke="black" points="222.6,-105.63 233.18,-105.11 224.58,-98.92 222.6,-105.63"/>
<text text-anchor="middle" x="202.89" y="-103.55" font-family="Times,serif" font-size="14.00">0/1</text>
</g>
<!-- 18 -->
<g id="node19" class="node">
<title>18</title>
<ellipse fill="none" stroke="black" cx="150.64" cy="-22.75" rx="23" ry="23"/>
<text text-anchor="middle" x="150.64" y="-19.05" font-family="Times,serif" font-size="14.00">18</text>
</g>
<!-- 18&#45;&gt;16 -->
<g id="edge26" class="edge">
<title>18&#45;&gt;16</title>
<path fill="none" stroke="black" d="M168.91,-36.61C181.64,-46.94 199.3,-61.49 214.39,-74.75 219.72,-79.43 225.35,-84.56 230.64,-89.46"/>
<polygon fill="black" stroke="black" points="228.39,-92.14 238.09,-96.41 233.17,-87.03 228.39,-92.14"/>
<text text-anchor="middle" x="202.89" y="-78.55" font-family="Times,serif" font-size="14.00">0/1</text>
</g>
<!-- 20 -->
<g id="node20" class="node">
<title>20</title>
<ellipse fill="none" stroke="black" cx="150.64" cy="-589.75" rx="23" ry="23"/>
<text text-anchor="middle" x="150.64" y="-586.05" font-family="Times,serif" font-size="14.00">20</text>
</g>
<!-- 20&#45;&gt;6 -->
<g id="edge28" class="edge">
<title>20&#45;&gt;6</title>
<path fill="none" stroke="black" d="M164.11,-571.27C172.93,-558.85 184.4,-544.15 191.39,-540.75 202.34,-535.42 215.69,-534.56 227.26,-535.27"/>
<polygon fill="black" stroke="black" points="226.96,-538.76 237.26,-536.29 227.67,-531.8 226.96,-538.76"/>
<text text-anchor="middle" x="202.89" y="-544.55" font-family="Times,serif" font-size="14.00">0/1</text>
</g>
<!-- 21 -->
<g id="node21" class="node">
<title>21</title>
<ellipse fill="none" stroke="black" cx="150.64" cy="-526.75" rx="23" ry="23"/>
<text text-anchor="middle" x="150.64" y="-523.05" font-family="Times,serif" font-size="14.00">21</text>
</g>
<!-- 21&#45;&gt;6 -->
<g id="edge29" class="edge">
<title>21&#45;&gt;6</title>
<path fill="none" stroke="black" d="M168.99,-512.93C181.61,-504.62 199.09,-496.73 214.39,-502.75 222.66,-506 230.22,-511.87 236.48,-517.99"/>
<polygon fill="black" stroke="black" points="234.29,-520.77 243.67,-525.7 239.41,-516 234.29,-520.77"/>
<text text-anchor="middle" x="202.89" y="-506.55" font-family="Times,serif" font-size="14.00">0/1</text>
</g>
<!-- 22 -->
<g id="node22" class="node">
<title>22</title>
<ellipse fill="none" stroke="black" cx="150.64" cy="-463.75" rx="23" ry="23"/>
<text text-anchor="middle" x="150.64" y="-460.05" font-family="Times,serif" font-size="14.00">22</text>
</g>
<!-- 22&#45;&gt;6 -->
<g id="edge30" class="edge">
<title>22&#45;&gt;6</title>
<path fill="none" stroke="black" d="M173.31,-465.79C186.22,-467.89 202.37,-472.14 214.39,-480.75 226.28,-489.26 235.67,-502.51 242.33,-514.3"/>
<polygon fill="black" stroke="black" points="239.33,-516.11 247.09,-523.32 245.52,-512.85 239.33,-516.11"/>
<text text-anchor="middle" x="202.89" y="-484.55" font-family="Times,serif" font-size="14.00">0/1</text>
</g>
<!-- 19 -->
<g id="node23" class="node">
<title>19</title>
<ellipse fill="none" stroke="black" cx="150.64" cy="-400.75" rx="23" ry="23"/>
<text text-anchor="middle" x="150.64" y="-397.05" font-family="Times,serif" font-size="14.00">19</text>
</g>
<!-- 19&#45;&gt;6 -->
<g id="edge31" class="edge">
<title>19&#45;&gt;6</title>
<path fill="none" stroke="black" d="M170.4,-412.17C184.04,-421.24 202.19,-435 214.39,-450.75 228.9,-469.49 239.43,-494.36 245.99,-513.05"/>
<polygon fill="black" stroke="black" points="242.74,-514.35 249.23,-522.72 249.38,-512.12 242.74,-514.35"/>
<text text-anchor="middle" x="202.89" y="-454.55" font-family="Times,serif" font-size="14.00">0/1</text>
</g>
<!-- 19&#45;&gt;11 -->
<g id="edge32" class="edge">
<title>19&#45;&gt;11</title>
<path fill="none" stroke="black" d="M172.38,-392.65C187.35,-386.81 207.76,-378.85 224.45,-372.33"/>
<polygon fill="black" stroke="black" points="225.73,-375.59 233.78,-368.69 223.19,-369.07 225.73,-375.59"/>
<text text-anchor="middle" x="202.89" y="-387.55" font-family="Times,serif" font-size="14.00">0/1</text>
</g>
<!-- 23 -->
<g id="node24" class="node">
<title>23</title>
<ellipse fill="none" stroke="black" cx="150.64" cy="-337.75" rx="23" ry="23"/>
<text text-anchor="middle" x="150.64" y="-334.05" font-family="Times,serif" font-size="14.00">23</text>
</g>
<!-- 23&#45;&gt;11 -->
<g id="edge33" class="edge">
<title>23&#45;&gt;11</title>
<path fill="none" stroke="black" d="M173.36,-339.26C185.55,-340.42 200.96,-342.41 214.39,-345.75 217.61,-346.55 220.93,-347.53 224.21,-348.61"/>
<polygon fill="black" stroke="black" points="223.2,-351.97 233.8,-352.03 225.56,-345.37 223.2,-351.97"/>
<text text-anchor="middle" x="202.89" y="-349.55" font-family="Times,serif" font-size="14.00">0/1</text>
</g>
<!-- 24 -->
<g id="node25" class="node">
<title>24</title>
<ellipse fill="none" stroke="black" cx="150.64" cy="-274.75" rx="23" ry="23"/>
<text text-anchor="middle" x="150.64" y="-271.05" font-family="Times,serif" font-size="14.00">24</text>
</g>
<!-- 24&#45;&gt;11 -->
<g id="edge34" class="edge">
<title>24&#45;&gt;11</title>
<path fill="none" stroke="black" d="M169.71,-287.31C182.52,-296.44 199.93,-309.34 214.39,-321.75 220.14,-326.68 226.09,-332.25 231.59,-337.6"/>
<polygon fill="black" stroke="black" points="229.17,-340.13 238.74,-344.69 234.1,-335.16 229.17,-340.13"/>
<text text-anchor="middle" x="202.89" y="-325.55" font-family="Times,serif" font-size="14.00">0/1</text>
</g>
<!-- 9998 -->
<g id="node26" class="node">
<title>9998</title>
<ellipse fill="none" stroke="black" cx="34.45" cy="-488.75" rx="34.39" ry="34.39"/>
<text text-anchor="middle" x="34.45" y="-485.05" font-family="Times,serif" font-size="14.00">9998</text>
</g>
<!-- 9998&#45;&gt;7 -->
<g id="edge35" class="edge">
<title>9998&#45;&gt;7</title>
<path fill="none" stroke="black" d="M38.6,-523.09C44.49,-581.27 59.16,-702.57 86.89,-801.75 100.17,-849.23 123.24,-901.97 137.41,-932.35"/>
<polygon fill="black" stroke="black" points="134.41,-934.21 141.84,-941.76 140.74,-931.22 134.41,-934.21"/>
<text text-anchor="middle" x="98.39" y="-870.55" font-family="Times,serif" font-size="14.00">0/1</text>
</g>
<!-- 9998&#45;&gt;8 -->
<g id="edge36" class="edge">
<title>9998&#45;&gt;8</title>
<path fill="none" stroke="black" d="M37.24,-523.23C41.43,-592.73 54.13,-754.24 86.89,-885.75 99.79,-937.5 123.72,-995.18 138.01,-1027.41"/>
<polygon fill="black" stroke="black" points="134.83,-1028.87 142.12,-1036.56 141.22,-1026 134.83,-1028.87"/>
<text text-anchor="middle" x="98.39" y="-959.55" font-family="Times,serif" font-size="14.00">0/1</text>
</g>
<!-- 9998&#45;&gt;9 -->
<g id="edge37" class="edge">
<title>9998&#45;&gt;9</title>
<path fill="none" stroke="black" d="M38.94,-523.01C44.74,-572.25 58.63,-665.31 86.89,-739.75 98.02,-769.03 118,-799.09 132.43,-818.71"/>
<polygon fill="black" stroke="black" points="129.82,-821.06 138.62,-826.96 135.42,-816.86 129.82,-821.06"/>
<text text-anchor="middle" x="98.39" y="-786.55" font-family="Times,serif" font-size="14.00">0/1</text>
</g>
<!-- 9998&#45;&gt;12 -->
<g id="edge38" class="edge">
<title>9998&#45;&gt;12</title>
<path fill="none" stroke="black" d="M46.09,-521.26C55.47,-548.46 70.22,-587.98 86.89,-620.75 102.21,-650.86 109.08,-656.69 127.89,-684.75 128.85,-686.17 129.84,-687.63 130.84,-689.1"/>
<polygon fill="black" stroke="black" points="128.07,-691.24 136.63,-697.48 133.82,-687.26 128.07,-691.24"/>
<text text-anchor="middle" x="98.39" y="-662.55" font-family="Times,serif" font-size="14.00">0/1</text>
</g>
<!-- 9998&#45;&gt;13 -->
<g id="edge39" class="edge">
<title>9998&#45;&gt;13</title>
<path fill="none" stroke="black" d="M52.49,-518.43C62.14,-534.76 74.69,-555.19 86.89,-572.75 100.07,-591.7 116.16,-612.17 128.75,-627.66"/>
<polygon fill="black" stroke="black" points="126.29,-630.19 135.34,-635.71 131.71,-625.75 126.29,-630.19"/>
<text text-anchor="middle" x="98.39" y="-605.55" font-family="Times,serif" font-size="14.00">0/1</text>
</g>
<!-- 9998&#45;&gt;14 -->
<g id="edge40" class="edge">
<title>9998&#45;&gt;14</title>
<path fill="none" stroke="black" d="M41.8,-522.41C49.7,-560.91 64.89,-625.39 86.89,-677.75 98.32,-704.94 116.53,-733.23 130.4,-752.93"/>
<polygon fill="black" stroke="black" points="127.57,-754.99 136.24,-761.08 133.26,-750.92 127.57,-754.99"/>
<text text-anchor="middle" x="98.39" y="-724.55" font-family="Times,serif" font-size="14.00">0/1</text>
</g>
<!-- 9998&#45;&gt;15 -->
<g id="edge41" class="edge">
<title>9998&#45;&gt;15</title>
<path fill="none" stroke="black" d="M39.48,-454.29C45.75,-407.11 60.03,-320.36 86.89,-250.75 97.59,-223.04 115.89,-194.49 129.97,-174.67"/>
<polygon fill="black" stroke="black" points="132.88,-176.63 135.91,-166.47 127.21,-172.52 132.88,-176.63"/>
<text text-anchor="middle" x="98.39" y="-254.55" font-family="Times,serif" font-size="14.00">0/1</text>
</g>
<!-- 9998&#45;&gt;17 -->
<g id="edge42" class="edge">
<title>9998&#45;&gt;17</title>
<path fill="none" stroke="black" d="M37.37,-454.34C41.42,-397.37 53.41,-280.5 86.89,-187.75 96.98,-159.81 115.35,-131.29 129.62,-111.54"/>
<polygon fill="black" stroke="black" points="132.52,-113.5 135.64,-103.37 126.89,-109.34 132.52,-113.5"/>
<text text-anchor="middle" x="98.39" y="-191.55" font-family="Times,serif" font-size="14.00">0/1</text>
</g>
<!-- 9998&#45;&gt;18 -->
<g id="edge43" class="edge">
<title>9998&#45;&gt;18</title>
<path fill="none" stroke="black" d="M35.89,-454.25C37.69,-388.23 46.35,-240.24 86.89,-123.75 96.59,-95.9 115,-67.68 129.39,-48.17"/>
<polygon fill="black" stroke="black" points="132.24,-50.21 135.47,-40.12 126.65,-45.99 132.24,-50.21"/>
<text text-anchor="middle" x="98.39" y="-127.55" font-family="Times,serif" font-size="14.00">0/1</text>
</g>
<!-- 9998&#45;&gt;20 -->
<g id="edge44" class="edge">
<title>9998&#45;&gt;20</title>
<path fill="none" stroke="black" d="M60.79,-511.16C79.99,-528.15 106.22,-551.35 125.2,-568.13"/>
<polygon fill="black" stroke="black" points="123.04,-570.89 132.85,-574.9 127.68,-565.65 123.04,-570.89"/>
<text text-anchor="middle" x="98.39" y="-557.55" font-family="Times,serif" font-size="14.00">0/1</text>
</g>
<!-- 9998&#45;&gt;21 -->
<g id="edge45" class="edge">
<title>9998&#45;&gt;21</title>
<path fill="none" stroke="black" d="M67.26,-499.33C83.39,-504.7 102.9,-511.19 118.88,-516.51"/>
<polygon fill="black" stroke="black" points="118.21,-519.98 128.8,-519.81 120.42,-513.33 118.21,-519.98"/>
<text text-anchor="middle" x="98.39" y="-516.55" font-family="Times,serif" font-size="14.00">0/1</text>
</g>
<!-- 9998&#45;&gt;22 -->
<g id="edge46" class="edge">
<title>9998&#45;&gt;22</title>
<path fill="none" stroke="black" d="M68.17,-481.58C83.81,-478.16 102.45,-474.08 117.95,-470.69"/>
<polygon fill="black" stroke="black" points="119.08,-474.02 128.1,-468.46 117.58,-467.18 119.08,-474.02"/>
<text text-anchor="middle" x="98.39" y="-480.55" font-family="Times,serif" font-size="14.00">0/1</text>
</g>
<!-- 9998&#45;&gt;19 -->
<g id="edge47" class="edge">
<title>9998&#45;&gt;19</title>
<path fill="none" stroke="black" d="M62.22,-468.12C80.86,-453.75 105.57,-434.71 123.96,-420.54"/>
<polygon fill="black" stroke="black" points="126.14,-423.28 131.92,-414.4 121.86,-417.74 126.14,-423.28"/>
<text text-anchor="middle" x="98.39" y="-450.55" font-family="Times,serif" font-size="14.00">0/1</text>
</g>
<!-- 9998&#45;&gt;23 -->
<g id="edge48" class="edge">
<title>9998&#45;&gt;23</title>
<path fill="none" stroke="black" d="M53.51,-460.05C63.05,-445.33 75.18,-427.28 86.89,-411.75 99.78,-394.66 115.33,-376.3 127.73,-362.15"/>
<polygon fill="black" stroke="black" points="130.63,-364.16 134.62,-354.34 125.38,-359.52 130.63,-364.16"/>
<text text-anchor="middle" x="98.39" y="-415.55" font-family="Times,serif" font-size="14.00">0/1</text>
</g>
<!-- 9998&#45;&gt;24 -->
<g id="edge49" class="edge">
<title>9998&#45;&gt;24</title>
<path fill="none" stroke="black" d="M46.74,-456.28C56.13,-430.74 70.57,-394.61 86.89,-364.75 102.21,-336.73 109.61,-331.93 127.89,-305.75 128.88,-304.34 129.89,-302.9 130.91,-301.44"/>
<polygon fill="black" stroke="black" points="133.88,-303.3 136.75,-293.1 128.14,-299.28 133.88,-303.3"/>
<text text-anchor="middle" x="98.39" y="-368.55" font-family="Times,serif" font-size="14.00">0/1</text>
</g>
<!-- 25 -->
<g id="node27" class="node">
<title>25</title>
<ellipse fill="none" stroke="black" cx="150.64" cy="-211.75" rx="23" ry="23"/>
<text text-anchor="middle" x="150.64" y="-208.05" font-family="Times,serif" font-size="14.00">25</text>
</g>
<!-- 9998&#45;&gt;25 -->
<g id="edge50" class="edge">
<title>9998&#45;&gt;25</title>
<path fill="none" stroke="black" d="M42.42,-455.03C50.6,-418.54 65.77,-359.09 86.89,-310.75 101.02,-278.41 108.64,-272.32 127.89,-242.75 128.83,-241.31 129.8,-239.84 130.79,-238.36"/>
<polygon fill="black" stroke="black" points="133.78,-240.19 136.55,-229.96 128.01,-236.23 133.78,-240.19"/>
<text text-anchor="middle" x="98.39" y="-314.55" font-family="Times,serif" font-size="14.00">0/1</text>
</g>
<!-- 25&#45;&gt;11 -->
<g id="edge51" class="edge">
<title>25&#45;&gt;11</title>
<path fill="none" stroke="black" d="M167.24,-227.69C180.68,-241.93 200.13,-263.72 214.39,-284.75 224.33,-299.41 233.61,-316.85 240.71,-331.33"/>
<polygon fill="black" stroke="black" points="237.55,-332.85 245.03,-340.35 243.87,-329.82 237.55,-332.85"/>
<text text-anchor="middle" x="202.89" y="-288.55" font-family="Times,serif" font-size="14.00">0/1</text>
</g>
</g>
</svg>
