<?xml version="1.0" encoding="UTF-8" standalone="no"?>
<!DOCTYPE svg PUBLIC "-//W3C//DTD SVG 1.1//EN"
 "http://www.w3.org/Graphics/SVG/1.1/DTD/svg11.dtd">
<!-- Generated by graphviz version 2.43.20190912.0211 (20190912.0211)
 -->
<!-- Title: finite_state_machine Pages: 1 -->
<svg width="495pt" height="1422pt"
 viewBox="0.00 0.00 494.78 1421.75" xmlns="http://www.w3.org/2000/svg" xmlns:xlink="http://www.w3.org/1999/xlink">
<g id="graph0" class="graph" transform="scale(1 1) rotate(0) translate(4 1417.75)">
<title>finite_state_machine</title>
<polygon fill="white" stroke="transparent" points="-4,4 -4,-1417.75 490.78,-1417.75 490.78,4 -4,4"/>
<!-- 29 -->
<g id="node1" class="node">
<title>29</title>
<ellipse fill="none" stroke="black" cx="174.64" cy="-1357.75" rx="23" ry="23"/>
<text text-anchor="middle" x="174.64" y="-1354.05" font-family="Times,serif" font-size="14.00">29</text>
</g>
<!-- 4 -->
<g id="node2" class="node">
<title>4</title>
<ellipse fill="none" stroke="black" cx="303.14" cy="-1102.75" rx="18" ry="18"/>
<text text-anchor="middle" x="303.14" y="-1099.05" font-family="Times,serif" font-size="14.00">4</text>
</g>
<!-- 29&#45;&gt;4 -->
<g id="edge1" class="edge">
<title>29&#45;&gt;4</title>
<path fill="none" stroke="black" d="M194.94,-1346.91C219.21,-1333.12 258.21,-1310.29 262.39,-1303.75 297.15,-1249.42 264.78,-1222.33 280.39,-1159.75 283.02,-1149.22 287.02,-1137.99 290.88,-1128.31"/>
<polygon fill="black" stroke="black" points="294.2,-1129.45 294.79,-1118.88 287.73,-1126.78 294.2,-1129.45"/>
<text text-anchor="middle" x="238.89" y="-1337.55" font-family="Times,serif" font-size="14.00">0/1 (0)</text>
</g>
<!-- 32 -->
<g id="node3" class="node">
<title>32</title>
<ellipse fill="none" stroke="black" cx="303.14" cy="-1329.75" rx="23" ry="23"/>
<text text-anchor="middle" x="303.14" y="-1326.05" font-family="Times,serif" font-size="14.00">32</text>
</g>
<!-- 29&#45;&gt;32 -->
<g id="edge2" class="edge">
<title>29&#45;&gt;32</title>
<path fill="none" stroke="black" d="M190.08,-1375.06C196.94,-1381.96 205.76,-1389.11 215.39,-1392.75 234.93,-1400.13 244.1,-1402.84 262.39,-1392.75 275.11,-1385.73 284.33,-1372.74 290.66,-1360.37"/>
<polygon fill="black" stroke="black" points="293.91,-1361.68 294.95,-1351.13 287.56,-1358.73 293.91,-1361.68"/>
<text text-anchor="middle" x="238.89" y="-1402.55" font-family="Times,serif" font-size="14.00">0/1 (0)</text>
</g>
<!-- 3 -->
<g id="node4" class="node">
<title>3</title>
<ellipse fill="none" stroke="black" cx="303.14" cy="-1186.75" rx="18" ry="18"/>
<text text-anchor="middle" x="303.14" y="-1183.05" font-family="Times,serif" font-size="14.00">3</text>
</g>
<!-- 29&#45;&gt;3 -->
<g id="edge3" class="edge">
<title>29&#45;&gt;3</title>
<path fill="none" stroke="black" d="M196.69,-1363.55C215.97,-1367.5 244.21,-1369.65 262.39,-1354.75 267.86,-1350.26 286.88,-1261.02 296.49,-1214.48"/>
<polygon fill="black" stroke="black" points="299.97,-1214.94 298.55,-1204.44 293.11,-1213.53 299.97,-1214.94"/>
<text text-anchor="middle" x="238.89" y="-1369.55" font-family="Times,serif" font-size="14.00">0/1 (4)</text>
</g>
<!-- 9999 -->
<g id="node26" class="node">
<title>9999</title>
<ellipse fill="none" stroke="black" cx="452.33" cy="-866.75" rx="34.39" ry="34.39"/>
<text text-anchor="middle" x="452.33" y="-863.05" font-family="Times,serif" font-size="14.00">9999</text>
</g>
<!-- 4&#45;&gt;9999 -->
<g id="edge64" class="edge">
<title>4&#45;&gt;9999</title>
<path fill="none" stroke="black" d="M317.63,-1091.49C337.91,-1073.95 376.4,-1038.2 399.89,-1000.75 417.69,-972.36 430.99,-936.82 439.6,-909.47"/>
<polygon fill="black" stroke="black" points="442.98,-910.38 442.56,-899.8 436.29,-908.33 442.98,-910.38"/>
<text text-anchor="middle" x="371.89" y="-1070.55" font-family="Times,serif" font-size="14.00">0/2 (1)</text>
</g>
<!-- 32&#45;&gt;9999 -->
<g id="edge27" class="edge">
<title>32&#45;&gt;9999</title>
<path fill="none" stroke="black" d="M318.06,-1311.82C339.27,-1283.53 379.4,-1226.04 399.89,-1170.75 432.61,-1082.44 444.65,-971.93 448.99,-911.44"/>
<polygon fill="black" stroke="black" points="452.5,-911.32 449.69,-901.1 445.52,-910.84 452.5,-911.32"/>
<text text-anchor="middle" x="371.89" y="-1275.55" font-family="Times,serif" font-size="14.00">0/1 (1)</text>
</g>
<!-- 3&#45;&gt;9999 -->
<g id="edge65" class="edge">
<title>3&#45;&gt;9999</title>
<path fill="none" stroke="black" d="M317.93,-1176.29C338.99,-1159.55 378.89,-1124.66 399.89,-1085.75 429.88,-1030.14 442.51,-957.37 447.75,-911.32"/>
<polygon fill="black" stroke="black" points="451.23,-911.67 448.81,-901.35 444.27,-910.92 451.23,-911.67"/>
<text text-anchor="middle" x="371.89" y="-1155.55" font-family="Times,serif" font-size="14.00">0/5 (1)</text>
</g>
<!-- 9998 -->
<g id="node5" class="node">
<title>9998</title>
<ellipse fill="none" stroke="black" cx="34.45" cy="-652.75" rx="34.39" ry="34.39"/>
<text text-anchor="middle" x="34.45" y="-649.05" font-family="Times,serif" font-size="14.00">9998</text>
</g>
<!-- 9998&#45;&gt;29 -->
<g id="edge4" class="edge">
<title>9998&#45;&gt;29</title>
<path fill="none" stroke="black" d="M35.7,-687.21C36.94,-798.95 44.21,-1150 86.89,-1253.75 100.54,-1286.91 128.71,-1317.47 149.26,-1336.76"/>
<polygon fill="black" stroke="black" points="146.98,-1339.42 156.72,-1343.58 151.71,-1334.25 146.98,-1339.42"/>
<text text-anchor="middle" x="110.39" y="-1322.55" font-family="Times,serif" font-size="14.00">0/1 (1)</text>
</g>
<!-- 30 -->
<g id="node6" class="node">
<title>30</title>
<ellipse fill="none" stroke="black" cx="174.64" cy="-1262.75" rx="23" ry="23"/>
<text text-anchor="middle" x="174.64" y="-1259.05" font-family="Times,serif" font-size="14.00">30</text>
</g>
<!-- 9998&#45;&gt;30 -->
<g id="edge5" class="edge">
<title>9998&#45;&gt;30</title>
<path fill="none" stroke="black" d="M35.63,-687.29C36.65,-790.56 43.38,-1095.2 86.89,-1182.75 100.08,-1209.28 126.05,-1231.36 146.15,-1245.56"/>
<polygon fill="black" stroke="black" points="144.39,-1248.59 154.63,-1251.33 148.33,-1242.81 144.39,-1248.59"/>
<text text-anchor="middle" x="110.39" y="-1238.55" font-family="Times,serif" font-size="14.00">0/1 (1)</text>
</g>
<!-- 28 -->
<g id="node7" class="node">
<title>28</title>
<ellipse fill="none" stroke="black" cx="174.64" cy="-1118.75" rx="23" ry="23"/>
<text text-anchor="middle" x="174.64" y="-1115.05" font-family="Times,serif" font-size="14.00">28</text>
</g>
<!-- 9998&#45;&gt;28 -->
<g id="edge6" class="edge">
<title>9998&#45;&gt;28</title>
<path fill="none" stroke="black" d="M36.78,-687.18C40.54,-771.18 53.2,-984.18 86.89,-1045.75 100.33,-1070.31 125.61,-1090.11 145.43,-1102.86"/>
<polygon fill="black" stroke="black" points="143.74,-1105.93 154.09,-1108.21 147.42,-1099.98 143.74,-1105.93"/>
<text text-anchor="middle" x="110.39" y="-1097.55" font-family="Times,serif" font-size="14.00">0/1 (1)</text>
</g>
<!-- 27 -->
<g id="node8" class="node">
<title>27</title>
<ellipse fill="none" stroke="black" cx="174.64" cy="-1190.75" rx="23" ry="23"/>
<text text-anchor="middle" x="174.64" y="-1187.05" font-family="Times,serif" font-size="14.00">27</text>
</g>
<!-- 9998&#45;&gt;27 -->
<g id="edge7" class="edge">
<title>9998&#45;&gt;27</title>
<path fill="none" stroke="black" d="M36.16,-687.36C38.6,-781.2 48.68,-1038.42 86.89,-1112.75 100.29,-1138.79 126.23,-1160.3 146.27,-1174.09"/>
<polygon fill="black" stroke="black" points="144.45,-1177.08 154.72,-1179.69 148.32,-1171.25 144.45,-1177.08"/>
<text text-anchor="middle" x="110.39" y="-1167.55" font-family="Times,serif" font-size="14.00">0/1 (1)</text>
</g>
<!-- 26 -->
<g id="node9" class="node">
<title>26</title>
<ellipse fill="none" stroke="black" cx="174.64" cy="-1055.75" rx="23" ry="23"/>
<text text-anchor="middle" x="174.64" y="-1052.05" font-family="Times,serif" font-size="14.00">26</text>
</g>
<!-- 9998&#45;&gt;26 -->
<g id="edge8" class="edge">
<title>9998&#45;&gt;26</title>
<path fill="none" stroke="black" d="M38.12,-687.22C44.19,-759.71 60.56,-925.27 86.89,-974.75 100.89,-1001.05 126.75,-1023.48 146.61,-1038.02"/>
<polygon fill="black" stroke="black" points="144.79,-1041.02 154.97,-1043.95 148.84,-1035.31 144.79,-1041.02"/>
<text text-anchor="middle" x="110.39" y="-1030.55" font-family="Times,serif" font-size="14.00">0/1 (1)</text>
</g>
<!-- 25 -->
<g id="node10" class="node">
<title>25</title>
<ellipse fill="none" stroke="black" cx="174.64" cy="-652.75" rx="23" ry="23"/>
<text text-anchor="middle" x="174.64" y="-649.05" font-family="Times,serif" font-size="14.00">25</text>
</g>
<!-- 9998&#45;&gt;25 -->
<g id="edge9" class="edge">
<title>9998&#45;&gt;25</title>
<path fill="none" stroke="black" d="M68.9,-652.75C91,-652.75 119.81,-652.75 141.62,-652.75"/>
<polygon fill="black" stroke="black" points="141.7,-656.25 151.7,-652.75 141.7,-649.25 141.7,-656.25"/>
<text text-anchor="middle" x="110.39" y="-656.55" font-family="Times,serif" font-size="14.00">0/1 (1)</text>
</g>
<!-- 24 -->
<g id="node11" class="node">
<title>24</title>
<ellipse fill="none" stroke="black" cx="174.64" cy="-778.75" rx="23" ry="23"/>
<text text-anchor="middle" x="174.64" y="-775.05" font-family="Times,serif" font-size="14.00">24</text>
</g>
<!-- 9998&#45;&gt;24 -->
<g id="edge10" class="edge">
<title>9998&#45;&gt;24</title>
<path fill="none" stroke="black" d="M55.54,-680.44C64.52,-691.95 75.6,-705.08 86.89,-715.75 105.21,-733.06 128.42,-749.68 146.22,-761.5"/>
<polygon fill="black" stroke="black" points="144.7,-764.68 154.98,-767.22 148.52,-758.82 144.7,-764.68"/>
<text text-anchor="middle" x="110.39" y="-755.55" font-family="Times,serif" font-size="14.00">0/1 (1)</text>
</g>
<!-- 23 -->
<g id="node12" class="node">
<title>23</title>
<ellipse fill="none" stroke="black" cx="174.64" cy="-715.75" rx="23" ry="23"/>
<text text-anchor="middle" x="174.64" y="-712.05" font-family="Times,serif" font-size="14.00">23</text>
</g>
<!-- 9998&#45;&gt;23 -->
<g id="edge11" class="edge">
<title>9998&#45;&gt;23</title>
<path fill="none" stroke="black" d="M66.12,-666.73C89.5,-677.39 121.48,-691.97 144.48,-702.45"/>
<polygon fill="black" stroke="black" points="143.18,-705.71 153.73,-706.67 146.08,-699.34 143.18,-705.71"/>
<text text-anchor="middle" x="110.39" y="-700.55" font-family="Times,serif" font-size="14.00">0/1 (1)</text>
</g>
<!-- 19 -->
<g id="node13" class="node">
<title>19</title>
<ellipse fill="none" stroke="black" cx="174.64" cy="-589.75" rx="23" ry="23"/>
<text text-anchor="middle" x="174.64" y="-586.05" font-family="Times,serif" font-size="14.00">19</text>
</g>
<!-- 9998&#45;&gt;19 -->
<g id="edge12" class="edge">
<title>9998&#45;&gt;19</title>
<path fill="none" stroke="black" d="M66.12,-638.77C89.5,-628.11 121.48,-613.53 144.48,-603.04"/>
<polygon fill="black" stroke="black" points="146.08,-606.16 153.73,-598.82 143.18,-599.79 146.08,-606.16"/>
<text text-anchor="middle" x="110.39" y="-631.55" font-family="Times,serif" font-size="14.00">0/1 (1)</text>
</g>
<!-- 22 -->
<g id="node14" class="node">
<title>22</title>
<ellipse fill="none" stroke="black" cx="174.64" cy="-337.75" rx="23" ry="23"/>
<text text-anchor="middle" x="174.64" y="-334.05" font-family="Times,serif" font-size="14.00">22</text>
</g>
<!-- 9998&#45;&gt;22 -->
<g id="edge13" class="edge">
<title>9998&#45;&gt;22</title>
<path fill="none" stroke="black" d="M35.36,-618.08C36.77,-567.63 45.3,-472.73 86.89,-405.75 101.1,-382.87 125.9,-364.6 145.35,-352.78"/>
<polygon fill="black" stroke="black" points="147.26,-355.72 154.13,-347.66 143.73,-349.68 147.26,-355.72"/>
<text text-anchor="middle" x="110.39" y="-409.55" font-family="Times,serif" font-size="14.00">0/1 (1)</text>
</g>
<!-- 21 -->
<g id="node15" class="node">
<title>21</title>
<ellipse fill="none" stroke="black" cx="174.64" cy="-400.75" rx="23" ry="23"/>
<text text-anchor="middle" x="174.64" y="-397.05" font-family="Times,serif" font-size="14.00">21</text>
</g>
<!-- 9998&#45;&gt;21 -->
<g id="edge14" class="edge">
<title>9998&#45;&gt;21</title>
<path fill="none" stroke="black" d="M38.87,-618.29C44.07,-579.63 56.77,-516.37 86.89,-470.75 101.9,-448.02 126.62,-429.13 145.84,-416.73"/>
<polygon fill="black" stroke="black" points="147.86,-419.59 154.5,-411.33 144.16,-413.65 147.86,-419.59"/>
<text text-anchor="middle" x="110.39" y="-474.55" font-family="Times,serif" font-size="14.00">0/1 (1)</text>
</g>
<!-- 20 -->
<g id="node16" class="node">
<title>20</title>
<ellipse fill="none" stroke="black" cx="174.64" cy="-274.75" rx="23" ry="23"/>
<text text-anchor="middle" x="174.64" y="-271.05" font-family="Times,serif" font-size="14.00">20</text>
</g>
<!-- 9998&#45;&gt;20 -->
<g id="edge15" class="edge">
<title>9998&#45;&gt;20</title>
<path fill="none" stroke="black" d="M37.92,-618.32C43.53,-547.27 58.97,-387.13 86.89,-340.75 100.54,-318.07 125.17,-300.48 144.7,-289.18"/>
<polygon fill="black" stroke="black" points="146.49,-292.19 153.54,-284.29 143.09,-286.07 146.49,-292.19"/>
<text text-anchor="middle" x="110.39" y="-344.55" font-family="Times,serif" font-size="14.00">0/1 (1)</text>
</g>
<!-- 18 -->
<g id="node17" class="node">
<title>18</title>
<ellipse fill="none" stroke="black" cx="174.64" cy="-211.75" rx="23" ry="23"/>
<text text-anchor="middle" x="174.64" y="-208.05" font-family="Times,serif" font-size="14.00">18</text>
</g>
<!-- 9998&#45;&gt;18 -->
<g id="edge16" class="edge">
<title>9998&#45;&gt;18</title>
<path fill="none" stroke="black" d="M36.8,-618.18C40.53,-536.54 53.02,-334.31 86.89,-276.75 100.24,-254.06 124.89,-236.77 144.52,-225.74"/>
<polygon fill="black" stroke="black" points="146.24,-228.79 153.4,-220.98 142.93,-222.62 146.24,-228.79"/>
<text text-anchor="middle" x="110.39" y="-280.55" font-family="Times,serif" font-size="14.00">0/1 (1)</text>
</g>
<!-- 17 -->
<g id="node18" class="node">
<title>17</title>
<ellipse fill="none" stroke="black" cx="174.64" cy="-148.75" rx="23" ry="23"/>
<text text-anchor="middle" x="174.64" y="-145.05" font-family="Times,serif" font-size="14.00">17</text>
</g>
<!-- 9998&#45;&gt;17 -->
<g id="edge17" class="edge">
<title>9998&#45;&gt;17</title>
<path fill="none" stroke="black" d="M36.03,-618.22C38.09,-527.13 47.28,-282.59 86.89,-213.75 100.1,-190.8 125,-173.44 144.75,-162.46"/>
<polygon fill="black" stroke="black" points="146.48,-165.5 153.67,-157.72 143.2,-159.32 146.48,-165.5"/>
<text text-anchor="middle" x="110.39" y="-217.55" font-family="Times,serif" font-size="14.00">0/1 (1)</text>
</g>
<!-- 15 -->
<g id="node19" class="node">
<title>15</title>
<ellipse fill="none" stroke="black" cx="174.64" cy="-85.75" rx="23" ry="23"/>
<text text-anchor="middle" x="174.64" y="-82.05" font-family="Times,serif" font-size="14.00">15</text>
</g>
<!-- 9998&#45;&gt;15 -->
<g id="edge18" class="edge">
<title>9998&#45;&gt;15</title>
<path fill="none" stroke="black" d="M35.48,-618.15C36.11,-518.33 41.91,-231.91 86.89,-151.75 99.93,-128.53 124.84,-110.89 144.64,-99.72"/>
<polygon fill="black" stroke="black" points="146.44,-102.72 153.59,-94.9 143.13,-96.56 146.44,-102.72"/>
<text text-anchor="middle" x="110.39" y="-155.55" font-family="Times,serif" font-size="14.00">0/1 (1)</text>
</g>
<!-- 14 -->
<g id="node20" class="node">
<title>14</title>
<ellipse fill="none" stroke="black" cx="174.64" cy="-22.75" rx="23" ry="23"/>
<text text-anchor="middle" x="174.64" y="-19.05" font-family="Times,serif" font-size="14.00">14</text>
</g>
<!-- 9998&#45;&gt;14 -->
<g id="edge19" class="edge">
<title>9998&#45;&gt;14</title>
<path fill="none" stroke="black" d="M35.02,-618.11C34.24,-509.97 36.17,-180.36 86.89,-88.75 99.79,-65.45 124.72,-47.83 144.56,-36.67"/>
<polygon fill="black" stroke="black" points="146.37,-39.67 153.53,-31.87 143.06,-33.5 146.37,-39.67"/>
<text text-anchor="middle" x="110.39" y="-92.55" font-family="Times,serif" font-size="14.00">0/1 (1)</text>
</g>
<!-- 13 -->
<g id="node21" class="node">
<title>13</title>
<ellipse fill="none" stroke="black" cx="174.64" cy="-463.75" rx="23" ry="23"/>
<text text-anchor="middle" x="174.64" y="-460.05" font-family="Times,serif" font-size="14.00">13</text>
</g>
<!-- 9998&#45;&gt;13 -->
<g id="edge20" class="edge">
<title>9998&#45;&gt;13</title>
<path fill="none" stroke="black" d="M44.94,-619.69C53.26,-594.46 67.14,-559.73 86.89,-533.75 103.27,-512.2 127.64,-493.31 146.39,-480.6"/>
<polygon fill="black" stroke="black" points="148.4,-483.46 154.82,-475.04 144.54,-477.62 148.4,-483.46"/>
<text text-anchor="middle" x="110.39" y="-537.55" font-family="Times,serif" font-size="14.00">0/1 (1)</text>
</g>
<!-- 12 -->
<g id="node22" class="node">
<title>12</title>
<ellipse fill="none" stroke="black" cx="174.64" cy="-526.75" rx="23" ry="23"/>
<text text-anchor="middle" x="174.64" y="-523.05" font-family="Times,serif" font-size="14.00">12</text>
</g>
<!-- 9998&#45;&gt;12 -->
<g id="edge21" class="edge">
<title>9998&#45;&gt;12</title>
<path fill="none" stroke="black" d="M55.2,-624.87C64.19,-613.09 75.39,-599.62 86.89,-588.75 105,-571.64 128.03,-555.39 145.82,-543.82"/>
<polygon fill="black" stroke="black" points="148.04,-546.55 154.58,-538.22 144.27,-540.65 148.04,-546.55"/>
<text text-anchor="middle" x="110.39" y="-592.55" font-family="Times,serif" font-size="14.00">0/1 (1)</text>
</g>
<!-- 9 -->
<g id="node23" class="node">
<title>9</title>
<ellipse fill="none" stroke="black" cx="174.64" cy="-837.75" rx="18" ry="18"/>
<text text-anchor="middle" x="174.64" y="-834.05" font-family="Times,serif" font-size="14.00">9</text>
</g>
<!-- 9998&#45;&gt;9 -->
<g id="edge22" class="edge">
<title>9998&#45;&gt;9</title>
<path fill="none" stroke="black" d="M44.84,-685.65C53.11,-710.73 66.97,-745.19 86.89,-770.75 104.29,-793.06 130.74,-812.05 149.86,-824.06"/>
<polygon fill="black" stroke="black" points="148.22,-827.16 158.58,-829.37 151.86,-821.18 148.22,-827.16"/>
<text text-anchor="middle" x="110.39" y="-815.55" font-family="Times,serif" font-size="14.00">0/1 (1)</text>
</g>
<!-- 8 -->
<g id="node24" class="node">
<title>8</title>
<ellipse fill="none" stroke="black" cx="174.64" cy="-996.75" rx="18" ry="18"/>
<text text-anchor="middle" x="174.64" y="-993.05" font-family="Times,serif" font-size="14.00">8</text>
</g>
<!-- 9998&#45;&gt;8 -->
<g id="edge23" class="edge">
<title>9998&#45;&gt;8</title>
<path fill="none" stroke="black" d="M37.91,-687.33C42.4,-734.99 54.65,-822.56 86.89,-889.75 103.52,-924.39 133.45,-957.69 153.43,-977.7"/>
<polygon fill="black" stroke="black" points="151.22,-980.43 160.81,-984.93 156.12,-975.43 151.22,-980.43"/>
<text text-anchor="middle" x="110.39" y="-959.55" font-family="Times,serif" font-size="14.00">0/1 (1)</text>
</g>
<!-- 7 -->
<g id="node25" class="node">
<title>7</title>
<ellipse fill="none" stroke="black" cx="174.64" cy="-891.75" rx="18" ry="18"/>
<text text-anchor="middle" x="174.64" y="-888.05" font-family="Times,serif" font-size="14.00">7</text>
</g>
<!-- 9998&#45;&gt;7 -->
<g id="edge24" class="edge">
<title>9998&#45;&gt;7</title>
<path fill="none" stroke="black" d="M38.55,-687.16C43.46,-725.34 55.88,-787.28 86.89,-830.75 102.7,-852.9 129.17,-869.81 148.73,-880.14"/>
<polygon fill="black" stroke="black" points="147.19,-883.29 157.69,-884.68 150.35,-877.04 147.19,-883.29"/>
<text text-anchor="middle" x="110.39" y="-874.55" font-family="Times,serif" font-size="14.00">0/1 (1)</text>
</g>
<!-- 30&#45;&gt;4 -->
<g id="edge25" class="edge">
<title>30&#45;&gt;4</title>
<path fill="none" stroke="black" d="M197.33,-1259.04C217.07,-1254.53 245.61,-1245 262.39,-1225.75 282.37,-1202.83 270.96,-1188.65 280.39,-1159.75 283.75,-1149.43 287.91,-1138.25 291.68,-1128.54"/>
<polygon fill="black" stroke="black" points="295.01,-1129.64 295.43,-1119.06 288.5,-1127.07 295.01,-1129.64"/>
<text text-anchor="middle" x="238.89" y="-1256.55" font-family="Times,serif" font-size="14.00">0/1 (0)</text>
</g>
<!-- 30&#45;&gt;3 -->
<g id="edge26" class="edge">
<title>30&#45;&gt;3</title>
<path fill="none" stroke="black" d="M194.8,-1273.66C213.51,-1282.71 242.04,-1292.12 262.39,-1278.75 283.88,-1264.62 293.81,-1236.14 298.36,-1214.58"/>
<polygon fill="black" stroke="black" points="301.82,-1215.12 300.19,-1204.65 294.93,-1213.85 301.82,-1215.12"/>
<text text-anchor="middle" x="238.89" y="-1288.55" font-family="Times,serif" font-size="14.00">0/1 (4)</text>
</g>
<!-- 28&#45;&gt;3 -->
<g id="edge30" class="edge">
<title>28&#45;&gt;3</title>
<path fill="none" stroke="black" d="M187.91,-1137.8C194.89,-1147.22 204.43,-1157.98 215.39,-1164.75 233.43,-1175.89 256.88,-1181.4 274.85,-1184.12"/>
<polygon fill="black" stroke="black" points="274.61,-1187.62 284.98,-1185.45 275.52,-1180.68 274.61,-1187.62"/>
<text text-anchor="middle" x="238.89" y="-1184.55" font-family="Times,serif" font-size="14.00">0/1 (4)</text>
</g>
<!-- 31 -->
<g id="node27" class="node">
<title>31</title>
<ellipse fill="none" stroke="black" cx="303.14" cy="-1026.75" rx="23" ry="23"/>
<text text-anchor="middle" x="303.14" y="-1023.05" font-family="Times,serif" font-size="14.00">31</text>
</g>
<!-- 28&#45;&gt;31 -->
<g id="edge29" class="edge">
<title>28&#45;&gt;31</title>
<path fill="none" stroke="black" d="M197.17,-1115.41C215.99,-1111.6 243.23,-1103.83 262.39,-1088.75 273.25,-1080.2 282.03,-1067.81 288.54,-1056.36"/>
<polygon fill="black" stroke="black" points="291.67,-1057.93 293.28,-1047.46 285.49,-1054.64 291.67,-1057.93"/>
<text text-anchor="middle" x="238.89" y="-1114.55" font-family="Times,serif" font-size="14.00">0/1 (0)</text>
</g>
<!-- 27&#45;&gt;4 -->
<g id="edge31" class="edge">
<title>27&#45;&gt;4</title>
<path fill="none" stroke="black" d="M195.67,-1199.69C214.49,-1206.61 242.65,-1212.99 262.39,-1199.75 265.54,-1197.64 281.41,-1157.22 292.12,-1129.23"/>
<polygon fill="black" stroke="black" points="295.51,-1130.16 295.8,-1119.57 288.97,-1127.67 295.51,-1130.16"/>
<text text-anchor="middle" x="238.89" y="-1210.55" font-family="Times,serif" font-size="14.00">0/1 (0)</text>
</g>
<!-- 26&#45;&gt;4 -->
<g id="edge32" class="edge">
<title>26&#45;&gt;4</title>
<path fill="none" stroke="black" d="M197.46,-1057.68C215.49,-1059.88 241.44,-1064.46 262.39,-1073.75 268.74,-1076.57 275.07,-1080.52 280.76,-1084.61"/>
<polygon fill="black" stroke="black" points="279,-1087.67 289.06,-1090.99 283.26,-1082.12 279,-1087.67"/>
<text text-anchor="middle" x="238.89" y="-1077.55" font-family="Times,serif" font-size="14.00">0/1 (0)</text>
</g>
<!-- 11 -->
<g id="node28" class="node">
<title>11</title>
<ellipse fill="none" stroke="black" cx="303.14" cy="-711.75" rx="23" ry="23"/>
<text text-anchor="middle" x="303.14" y="-708.05" font-family="Times,serif" font-size="14.00">11</text>
</g>
<!-- 25&#45;&gt;11 -->
<g id="edge33" class="edge">
<title>25&#45;&gt;11</title>
<path fill="none" stroke="black" d="M190.08,-635.44C196.94,-628.54 205.76,-621.39 215.39,-617.75 234.93,-610.37 244.98,-606.21 262.39,-617.75 282.82,-631.29 292.78,-657.65 297.62,-679.02"/>
<polygon fill="black" stroke="black" points="294.22,-679.9 299.6,-689.03 301.09,-678.54 294.22,-679.9"/>
<text text-anchor="middle" x="238.89" y="-621.55" font-family="Times,serif" font-size="14.00">0/1 (2)</text>
</g>
<!-- 24&#45;&gt;11 -->
<g id="edge34" class="edge">
<title>24&#45;&gt;11</title>
<path fill="none" stroke="black" d="M189.18,-760.44C198.04,-748.95 209.09,-735.59 215.39,-731.75 231.89,-721.68 252.97,-716.68 270.22,-714.19"/>
<polygon fill="black" stroke="black" points="270.88,-717.64 280.38,-712.95 270.03,-710.69 270.88,-717.64"/>
<text text-anchor="middle" x="238.89" y="-735.55" font-family="Times,serif" font-size="14.00">0/1 (2)</text>
</g>
<!-- 23&#45;&gt;11 -->
<g id="edge35" class="edge">
<title>23&#45;&gt;11</title>
<path fill="none" stroke="black" d="M193.82,-703.16C200.33,-699.36 207.91,-695.68 215.39,-693.75 235.62,-688.52 241.97,-689.34 262.39,-693.75 266.09,-694.55 269.86,-695.72 273.52,-697.09"/>
<polygon fill="black" stroke="black" points="272.32,-700.38 282.89,-701.05 275.05,-693.93 272.32,-700.38"/>
<text text-anchor="middle" x="238.89" y="-697.55" font-family="Times,serif" font-size="14.00">0/1 (2)</text>
</g>
<!-- 19&#45;&gt;11 -->
<g id="edge36" class="edge">
<title>19&#45;&gt;11</title>
<path fill="none" stroke="black" d="M196.7,-583.65C215.73,-579.49 243.56,-576.95 262.39,-590.75 269.82,-596.2 284.44,-645.89 293.72,-679.87"/>
<polygon fill="black" stroke="black" points="290.43,-681.1 296.42,-689.84 297.19,-679.28 290.43,-681.1"/>
<text text-anchor="middle" x="238.89" y="-594.55" font-family="Times,serif" font-size="14.00">0/1 (2)</text>
</g>
<!-- 6 -->
<g id="node29" class="node">
<title>6</title>
<ellipse fill="none" stroke="black" cx="303.14" cy="-388.75" rx="18" ry="18"/>
<text text-anchor="middle" x="303.14" y="-385.05" font-family="Times,serif" font-size="14.00">6</text>
</g>
<!-- 19&#45;&gt;6 -->
<g id="edge37" class="edge">
<title>19&#45;&gt;6</title>
<path fill="none" stroke="black" d="M189.68,-572.49C192.61,-568.2 195.4,-563.48 197.39,-558.75 214.37,-518.32 187.65,-495.7 215.39,-461.75 229.65,-444.3 244.59,-456.57 262.39,-442.75 272.77,-434.69 281.73,-423.23 288.5,-412.94"/>
<polygon fill="black" stroke="black" points="291.55,-414.66 293.86,-404.32 285.61,-410.96 291.55,-414.66"/>
<text text-anchor="middle" x="238.89" y="-465.55" font-family="Times,serif" font-size="14.00">0/1 (1)</text>
</g>
<!-- 22&#45;&gt;6 -->
<g id="edge38" class="edge">
<title>22&#45;&gt;6</title>
<path fill="none" stroke="black" d="M195.5,-328.44C213.95,-321.26 241.62,-314.29 262.39,-325.75 276.61,-333.59 286.44,-348.89 292.77,-362.45"/>
<polygon fill="black" stroke="black" points="289.64,-364.04 296.77,-371.88 296.08,-361.31 289.64,-364.04"/>
<text text-anchor="middle" x="238.89" y="-329.55" font-family="Times,serif" font-size="14.00">0/1 (1)</text>
</g>
<!-- 21&#45;&gt;6 -->
<g id="edge39" class="edge">
<title>21&#45;&gt;6</title>
<path fill="none" stroke="black" d="M188.09,-382.24C196.91,-369.8 208.37,-355.09 215.39,-351.75 234.25,-342.76 242.95,-344.1 262.39,-351.75 270.66,-355 278.22,-360.87 284.48,-366.99"/>
<polygon fill="black" stroke="black" points="282.29,-369.77 291.67,-374.7 287.41,-365 282.29,-369.77"/>
<text text-anchor="middle" x="238.89" y="-355.55" font-family="Times,serif" font-size="14.00">0/1 (1)</text>
</g>
<!-- 20&#45;&gt;6 -->
<g id="edge40" class="edge">
<title>20&#45;&gt;6</title>
<path fill="none" stroke="black" d="M197.68,-275.99C216.84,-278.16 244.29,-284.01 262.39,-299.75 280.66,-315.63 290.92,-341.56 296.42,-361.34"/>
<polygon fill="black" stroke="black" points="293.03,-362.21 298.88,-371.04 299.82,-360.49 293.03,-362.21"/>
<text text-anchor="middle" x="238.89" y="-303.55" font-family="Times,serif" font-size="14.00">0/1 (1)</text>
</g>
<!-- 16 -->
<g id="node30" class="node">
<title>16</title>
<ellipse fill="none" stroke="black" cx="303.14" cy="-170.75" rx="23" ry="23"/>
<text text-anchor="middle" x="303.14" y="-167.05" font-family="Times,serif" font-size="14.00">16</text>
</g>
<!-- 18&#45;&gt;16 -->
<g id="edge42" class="edge">
<title>18&#45;&gt;16</title>
<path fill="none" stroke="black" d="M196.53,-204.98C216.95,-198.36 248.26,-188.21 271.5,-180.68"/>
<polygon fill="black" stroke="black" points="272.78,-183.94 281.22,-177.53 270.63,-177.28 272.78,-183.94"/>
<text text-anchor="middle" x="238.89" y="-202.55" font-family="Times,serif" font-size="14.00">0/1 (3)</text>
</g>
<!-- 17&#45;&gt;16 -->
<g id="edge43" class="edge">
<title>17&#45;&gt;16</title>
<path fill="none" stroke="black" d="M197.43,-152.03C215,-154.73 240.32,-158.75 262.39,-162.75 265.09,-163.24 267.89,-163.76 270.69,-164.3"/>
<polygon fill="black" stroke="black" points="270.23,-167.78 280.71,-166.28 271.58,-160.91 270.23,-167.78"/>
<text text-anchor="middle" x="238.89" y="-166.55" font-family="Times,serif" font-size="14.00">0/1 (3)</text>
</g>
<!-- 15&#45;&gt;16 -->
<g id="edge44" class="edge">
<title>15&#45;&gt;16</title>
<path fill="none" stroke="black" d="M195.2,-95.96C213.19,-105.64 240.34,-121.02 262.39,-136.75 267.63,-140.49 273.01,-144.76 278.06,-148.99"/>
<polygon fill="black" stroke="black" points="275.78,-151.64 285.65,-155.51 280.35,-146.33 275.78,-151.64"/>
<text text-anchor="middle" x="238.89" y="-140.55" font-family="Times,serif" font-size="14.00">0/1 (3)</text>
</g>
<!-- 5 -->
<g id="node31" class="node">
<title>5</title>
<ellipse fill="none" stroke="black" cx="303.14" cy="-53.75" rx="18" ry="18"/>
<text text-anchor="middle" x="303.14" y="-50.05" font-family="Times,serif" font-size="14.00">5</text>
</g>
<!-- 14&#45;&gt;5 -->
<g id="edge45" class="edge">
<title>14&#45;&gt;5</title>
<path fill="none" stroke="black" d="M196.81,-27.94C218.41,-33.23 251.97,-41.45 275.39,-47.19"/>
<polygon fill="black" stroke="black" points="274.81,-50.65 285.35,-49.63 276.47,-43.85 274.81,-50.65"/>
<text text-anchor="middle" x="238.89" y="-47.55" font-family="Times,serif" font-size="14.00">0/1 (1)</text>
</g>
<!-- 13&#45;&gt;6 -->
<g id="edge46" class="edge">
<title>13&#45;&gt;6</title>
<path fill="none" stroke="black" d="M189.2,-445.81C192.08,-441.63 194.98,-437.12 197.39,-432.75 207.4,-414.61 198.21,-401.33 215.39,-389.75 232.91,-377.94 257.27,-378.77 275.72,-381.94"/>
<polygon fill="black" stroke="black" points="275.04,-385.37 285.54,-383.93 276.43,-378.51 275.04,-385.37"/>
<text text-anchor="middle" x="238.89" y="-393.55" font-family="Times,serif" font-size="14.00">0/1 (0)</text>
</g>
<!-- 10 -->
<g id="node32" class="node">
<title>10</title>
<ellipse fill="none" stroke="black" cx="303.14" cy="-590.75" rx="23" ry="23"/>
<text text-anchor="middle" x="303.14" y="-587.05" font-family="Times,serif" font-size="14.00">10</text>
</g>
<!-- 13&#45;&gt;10 -->
<g id="edge47" class="edge">
<title>13&#45;&gt;10</title>
<path fill="none" stroke="black" d="M195.82,-472.42C218.2,-482.35 252.45,-498.53 262.39,-508.75 276.1,-522.83 285.86,-542.55 292.28,-559.13"/>
<polygon fill="black" stroke="black" points="289.15,-560.76 295.85,-568.96 295.73,-558.37 289.15,-560.76"/>
<text text-anchor="middle" x="238.89" y="-512.55" font-family="Times,serif" font-size="14.00">0/1 (0)</text>
</g>
<!-- 12&#45;&gt;6 -->
<g id="edge48" class="edge">
<title>12&#45;&gt;6</title>
<path fill="none" stroke="black" d="M189.43,-509.37C192.36,-505.09 195.23,-500.4 197.39,-495.75 210.57,-467.4 195.17,-451.59 215.39,-427.75 219.69,-422.68 252.83,-408.59 276.87,-398.81"/>
<polygon fill="black" stroke="black" points="278.23,-402.04 286.19,-395.05 275.61,-395.54 278.23,-402.04"/>
<text text-anchor="middle" x="238.89" y="-431.55" font-family="Times,serif" font-size="14.00">0/1 (0)</text>
</g>
<!-- 12&#45;&gt;10 -->
<g id="edge49" class="edge">
<title>12&#45;&gt;10</title>
<path fill="none" stroke="black" d="M197.4,-526.36C215.88,-526.95 242.48,-530.08 262.39,-541.75 271.23,-546.93 278.91,-554.86 285.11,-562.85"/>
<polygon fill="black" stroke="black" points="282.34,-564.99 291.01,-571.07 288.02,-560.91 282.34,-564.99"/>
<text text-anchor="middle" x="238.89" y="-545.55" font-family="Times,serif" font-size="14.00">0/1 (0)</text>
</g>
<!-- 9&#45;&gt;4 -->
<g id="edge54" class="edge">
<title>9&#45;&gt;4</title>
<path fill="none" stroke="black" d="M187.64,-850.45C191.19,-854.74 194.81,-859.71 197.39,-864.75 211.08,-891.42 196.83,-906.21 215.39,-929.75 230.17,-948.49 248.53,-936.31 262.39,-955.75 289.36,-993.59 265.95,-1014.58 280.39,-1058.75 282.51,-1065.23 285.43,-1071.96 288.45,-1078.15"/>
<polygon fill="black" stroke="black" points="285.47,-1080.03 293.16,-1087.32 291.7,-1076.83 285.47,-1080.03"/>
<text text-anchor="middle" x="238.89" y="-959.55" font-family="Times,serif" font-size="14.00">0/1 (2)</text>
</g>
<!-- 9&#45;&gt;11 -->
<g id="edge52" class="edge">
<title>9&#45;&gt;11</title>
<path fill="none" stroke="black" d="M187.04,-824.26C190.48,-820.02 194.19,-815.27 197.39,-810.75 206.16,-798.37 205.13,-792.92 215.39,-781.75 233.01,-762.57 242.16,-763.15 262.39,-746.75 267.55,-742.57 272.96,-737.96 278.06,-733.51"/>
<polygon fill="black" stroke="black" points="280.59,-735.95 285.77,-726.7 275.96,-730.7 280.59,-735.95"/>
<text text-anchor="middle" x="238.89" y="-785.55" font-family="Times,serif" font-size="14.00">0/1 (2)</text>
</g>
<!-- 9&#45;&gt;10 -->
<g id="edge53" class="edge">
<title>9&#45;&gt;10</title>
<path fill="none" stroke="black" d="M187.85,-825.52C191.5,-821.19 195.12,-816.06 197.39,-810.75 221.99,-753.04 184.8,-725.52 215.39,-670.75 228.49,-647.3 242.67,-650.99 262.39,-632.75 268.4,-627.19 274.62,-620.91 280.3,-614.93"/>
<polygon fill="black" stroke="black" points="282.88,-617.29 287.15,-607.6 277.76,-612.51 282.88,-617.29"/>
<text text-anchor="middle" x="238.89" y="-674.55" font-family="Times,serif" font-size="14.00">0/1 (2)</text>
</g>
<!-- 2 -->
<g id="node33" class="node">
<title>2</title>
<ellipse fill="none" stroke="black" cx="303.14" cy="-866.75" rx="18" ry="18"/>
<text text-anchor="middle" x="303.14" y="-863.05" font-family="Times,serif" font-size="14.00">2</text>
</g>
<!-- 9&#45;&gt;2 -->
<g id="edge55" class="edge">
<title>9&#45;&gt;2</title>
<path fill="none" stroke="black" d="M187.99,-825.07C195.27,-818.53 205.06,-811.21 215.39,-807.75 235.2,-801.11 243.95,-797.94 262.39,-807.75 275.68,-814.82 285.33,-828.54 291.79,-840.97"/>
<polygon fill="black" stroke="black" points="288.67,-842.55 296.11,-850.09 294.99,-839.56 288.67,-842.55"/>
<text text-anchor="middle" x="238.89" y="-811.55" font-family="Times,serif" font-size="14.00">0/1 (0)</text>
</g>
<!-- 1 -->
<g id="node34" class="node">
<title>1</title>
<ellipse fill="none" stroke="black" cx="303.14" cy="-920.75" rx="18" ry="18"/>
<text text-anchor="middle" x="303.14" y="-917.05" font-family="Times,serif" font-size="14.00">1</text>
</g>
<!-- 9&#45;&gt;1 -->
<g id="edge56" class="edge">
<title>9&#45;&gt;1</title>
<path fill="none" stroke="black" d="M192.83,-837C211.8,-837.08 242.32,-839.96 262.39,-855.75 277.08,-867.3 270.46,-877.92 280.39,-893.75 281.61,-895.7 282.95,-897.66 284.35,-899.6"/>
<polygon fill="black" stroke="black" points="281.76,-901.98 290.64,-907.75 287.3,-897.7 281.76,-901.98"/>
<text text-anchor="middle" x="238.89" y="-859.55" font-family="Times,serif" font-size="14.00">0/1 (0)</text>
</g>
<!-- 8&#45;&gt;3 -->
<g id="edge57" class="edge">
<title>8&#45;&gt;3</title>
<path fill="none" stroke="black" d="M187.94,-1009.31C191.5,-1013.59 195.05,-1018.59 197.39,-1023.75 216.57,-1066.07 186.18,-1090.61 215.39,-1126.75 229.55,-1144.27 243.7,-1133.17 262.39,-1145.75 270.31,-1151.08 277.9,-1158.2 284.28,-1165.02"/>
<polygon fill="black" stroke="black" points="281.9,-1167.61 291.17,-1172.74 287.13,-1162.95 281.9,-1167.61"/>
<text text-anchor="middle" x="238.89" y="-1149.55" font-family="Times,serif" font-size="14.00">0/1 (0)</text>
</g>
<!-- 8&#45;&gt;2 -->
<g id="edge58" class="edge">
<title>8&#45;&gt;2</title>
<path fill="none" stroke="black" d="M192.59,-994.57C215.01,-991.35 252.81,-984.61 262.39,-974.75 288.08,-948.29 264.4,-926.98 280.39,-893.75 281.39,-891.68 282.57,-889.62 283.86,-887.63"/>
<polygon fill="black" stroke="black" points="286.83,-889.49 289.98,-879.38 281.21,-885.32 286.83,-889.49"/>
<text text-anchor="middle" x="238.89" y="-993.55" font-family="Times,serif" font-size="14.00">0/1 (0)</text>
</g>
<!-- 8&#45;&gt;1 -->
<g id="edge59" class="edge">
<title>8&#45;&gt;1</title>
<path fill="none" stroke="black" d="M190.42,-1005.46C208.79,-1015.02 240.38,-1027.22 262.39,-1012.75 283.88,-998.62 293.81,-970.14 298.36,-948.58"/>
<polygon fill="black" stroke="black" points="301.82,-949.12 300.19,-938.65 294.93,-947.85 301.82,-949.12"/>
<text text-anchor="middle" x="238.89" y="-1022.55" font-family="Times,serif" font-size="14.00">0/1 (0)</text>
</g>
<!-- 7&#45;&gt;2 -->
<g id="edge60" class="edge">
<title>7&#45;&gt;2</title>
<path fill="none" stroke="black" d="M192.66,-888.3C199.69,-886.88 207.93,-885.23 215.39,-883.75 235.46,-879.76 258.15,-875.32 275.3,-871.97"/>
<polygon fill="black" stroke="black" points="276.03,-875.39 285.18,-870.05 274.69,-868.52 276.03,-875.39"/>
<text text-anchor="middle" x="238.89" y="-887.55" font-family="Times,serif" font-size="14.00">0/1 (0)</text>
</g>
<!-- 7&#45;&gt;1 -->
<g id="edge61" class="edge">
<title>7&#45;&gt;1</title>
<path fill="none" stroke="black" d="M192.44,-895.6C213.61,-900.45 250.25,-908.85 275.32,-914.6"/>
<polygon fill="black" stroke="black" points="274.74,-918.06 285.27,-916.88 276.31,-911.23 274.74,-918.06"/>
<text text-anchor="middle" x="238.89" y="-914.55" font-family="Times,serif" font-size="14.00">0/1 (0)</text>
</g>
<!-- 31&#45;&gt;9999 -->
<g id="edge28" class="edge">
<title>31&#45;&gt;9999</title>
<path fill="none" stroke="black" d="M319.47,-1010.4C338.44,-990.15 371.69,-954.53 399.89,-923.75 406.98,-916.01 414.57,-907.63 421.69,-899.75"/>
<polygon fill="black" stroke="black" points="424.52,-901.84 428.62,-892.07 419.32,-897.16 424.52,-901.84"/>
<text text-anchor="middle" x="371.89" y="-985.55" font-family="Times,serif" font-size="14.00">0/1 (1)</text>
</g>
<!-- 11&#45;&gt;9999 -->
<g id="edge50" class="edge">
<title>11&#45;&gt;9999</title>
<path fill="none" stroke="black" d="M319.34,-727.75C343.2,-752.89 389.94,-802.1 420.91,-834.71"/>
<polygon fill="black" stroke="black" points="418.61,-837.37 428.03,-842.21 423.69,-832.55 418.61,-837.37"/>
<text text-anchor="middle" x="371.89" y="-815.55" font-family="Times,serif" font-size="14.00">0/1 (1)</text>
</g>
<!-- 6&#45;&gt;9999 -->
<g id="edge62" class="edge">
<title>6&#45;&gt;9999</title>
<path fill="none" stroke="black" d="M311.58,-404.78C329.08,-443 373.36,-542.76 399.89,-629.75 420.02,-695.78 435.47,-774.46 443.97,-822.49"/>
<polygon fill="black" stroke="black" points="440.56,-823.3 445.73,-832.55 447.46,-822.09 440.56,-823.3"/>
<text text-anchor="middle" x="371.89" y="-633.55" font-family="Times,serif" font-size="14.00">0/10 (1)</text>
</g>
<!-- 16&#45;&gt;9999 -->
<g id="edge41" class="edge">
<title>16&#45;&gt;9999</title>
<path fill="none" stroke="black" d="M312.67,-191.74C331.45,-238.84 376.58,-356.91 399.89,-459.75 429.31,-589.61 443.2,-746.86 448.55,-822.24"/>
<polygon fill="black" stroke="black" points="445.06,-822.59 449.24,-832.32 452.04,-822.1 445.06,-822.59"/>
<text text-anchor="middle" x="371.89" y="-463.55" font-family="Times,serif" font-size="14.00">0/1 (1)</text>
</g>
<!-- 5&#45;&gt;9999 -->
<g id="edge63" class="edge">
<title>5&#45;&gt;9999</title>
<path fill="none" stroke="black" d="M313.42,-68.81C333.28,-101.91 379.77,-184.09 399.89,-259.75 428.17,-366.14 444.47,-700.91 449.58,-822.26"/>
<polygon fill="black" stroke="black" points="446.08,-822.47 450,-832.32 453.08,-822.18 446.08,-822.47"/>
<text text-anchor="middle" x="371.89" y="-263.55" font-family="Times,serif" font-size="14.00">0/10 (1)</text>
</g>
<!-- 10&#45;&gt;9999 -->
<g id="edge51" class="edge">
<title>10&#45;&gt;9999</title>
<path fill="none" stroke="black" d="M317.44,-608.61C337.15,-635.59 374.51,-688.81 399.89,-737.75 414.45,-765.84 427.6,-799.03 436.96,-824.71"/>
<polygon fill="black" stroke="black" points="433.68,-825.93 440.36,-834.16 440.27,-823.56 433.68,-825.93"/>
<text text-anchor="middle" x="371.89" y="-741.55" font-family="Times,serif" font-size="14.00">0/1 (1)</text>
</g>
<!-- 2&#45;&gt;9999 -->
<g id="edge66" class="edge">
<title>2&#45;&gt;9999</title>
<path fill="none" stroke="black" d="M321.31,-866.75C342.32,-866.75 378.65,-866.75 407.57,-866.75"/>
<polygon fill="black" stroke="black" points="407.86,-870.25 417.86,-866.75 407.85,-863.25 407.86,-870.25"/>
<text text-anchor="middle" x="371.89" y="-870.55" font-family="Times,serif" font-size="14.00">0/3 (1)</text>
</g>
<!-- 1&#45;&gt;9999 -->
<g id="edge67" class="edge">
<title>1&#45;&gt;9999</title>
<path fill="none" stroke="black" d="M320.41,-914.82C339.46,-907.87 371.98,-896 399.89,-885.75 403.2,-884.53 406.64,-883.26 410.09,-881.99"/>
<polygon fill="black" stroke="black" points="411.61,-885.16 419.78,-878.42 409.18,-878.6 411.61,-885.16"/>
<text text-anchor="middle" x="371.89" y="-908.55" font-family="Times,serif" font-size="14.00">0/20 (1)</text>
</g>
</g>
</svg>
