<?xml version="1.0" encoding="UTF-8" standalone="no"?>
<!DOCTYPE svg PUBLIC "-//W3C//DTD SVG 1.1//EN"
 "http://www.w3.org/Graphics/SVG/1.1/DTD/svg11.dtd">
<!-- Generated by graphviz version 2.40.1 (20161225.0304)
 -->
<!-- Title: finite_state_machine Pages: 1 -->
<svg width="369pt" height="1258pt"
 viewBox="0.00 0.00 369.38 1258.50" xmlns="http://www.w3.org/2000/svg" xmlns:xlink="http://www.w3.org/1999/xlink">
<g id="graph0" class="graph" transform="scale(1 1) rotate(0) translate(4 1254.4983)">
<title>finite_state_machine</title>
<polygon fill="#ffffff" stroke="transparent" points="-4,4 -4,-1254.4983 365.3829,-1254.4983 365.3829,4 -4,4"/>
<!-- 1 -->
<g id="node1" class="node">
<title>1</title>
<ellipse fill="none" stroke="#000000" cx="223.6897" cy="-1159.4983" rx="18" ry="18"/>
<text text-anchor="middle" x="223.6897" y="-1155.7983" font-family="Times,serif" font-size="14.00" fill="#000000">1</text>
</g>
<!-- 9999 -->
<g id="node2" class="node">
<title>9999</title>
<ellipse fill="none" stroke="#000000" cx="332.7855" cy="-722.4983" rx="28.6953" ry="28.6953"/>
<text text-anchor="middle" x="332.7855" y="-718.7983" font-family="Times,serif" font-size="14.00" fill="#000000">9999</text>
</g>
<!-- 1&#45;&gt;9999 -->
<g id="edge1" class="edge">
<title>1&#45;&gt;9999</title>
<path fill="none" stroke="#000000" d="M230.5289,-1142.6453C243.1086,-1111.0967 270.0998,-1040.7697 286.188,-979.4983 306.2394,-903.1334 320.5708,-811.7609 327.6874,-761.1206"/>
<polygon fill="#000000" stroke="#000000" points="331.1906,-761.3386 329.096,-750.9529 324.2568,-760.378 331.1906,-761.3386"/>
<text text-anchor="middle" x="273.688" y="-1062.2983" font-family="Times,serif" font-size="14.00" fill="#000000">0/20</text>
</g>
<!-- 2 -->
<g id="node3" class="node">
<title>2</title>
<ellipse fill="none" stroke="#000000" cx="223.6897" cy="-1064.4983" rx="18" ry="18"/>
<text text-anchor="middle" x="223.6897" y="-1060.7983" font-family="Times,serif" font-size="14.00" fill="#000000">2</text>
</g>
<!-- 2&#45;&gt;9999 -->
<g id="edge2" class="edge">
<title>2&#45;&gt;9999</title>
<path fill="none" stroke="#000000" d="M230.1064,-1047.6371C241.8807,-1016.4447 267.4463,-947.5259 286.188,-888.4983 300.0615,-844.8031 314.0132,-793.9754 322.9839,-760.189"/>
<polygon fill="#000000" stroke="#000000" points="326.432,-760.8398 325.6024,-750.2775 319.6642,-759.0518 326.432,-760.8398"/>
<text text-anchor="middle" x="273.688" y="-964.2983" font-family="Times,serif" font-size="14.00" fill="#000000">0/3</text>
</g>
<!-- 3 -->
<g id="node4" class="node">
<title>3</title>
<ellipse fill="none" stroke="#000000" cx="223.6897" cy="-950.4983" rx="18" ry="18"/>
<text text-anchor="middle" x="223.6897" y="-946.7983" font-family="Times,serif" font-size="14.00" fill="#000000">3</text>
</g>
<!-- 3&#45;&gt;9999 -->
<g id="edge3" class="edge">
<title>3&#45;&gt;9999</title>
<path fill="none" stroke="#000000" d="M231.5356,-934.1011C249.1148,-897.3622 291.99,-807.7571 315.9256,-757.7337"/>
<polygon fill="#000000" stroke="#000000" points="319.1466,-759.1111 320.3057,-748.5798 312.8322,-756.0897 319.1466,-759.1111"/>
<text text-anchor="middle" x="273.688" y="-873.2983" font-family="Times,serif" font-size="14.00" fill="#000000">0/5</text>
</g>
<!-- 4 -->
<g id="node5" class="node">
<title>4</title>
<ellipse fill="none" stroke="#000000" cx="223.6897" cy="-787.4983" rx="18" ry="18"/>
<text text-anchor="middle" x="223.6897" y="-783.7983" font-family="Times,serif" font-size="14.00" fill="#000000">4</text>
</g>
<!-- 4&#45;&gt;9999 -->
<g id="edge4" class="edge">
<title>4&#45;&gt;9999</title>
<path fill="none" stroke="#000000" d="M239.3205,-778.1854C254.8527,-768.9311 279.169,-754.4433 299.1058,-742.5648"/>
<polygon fill="#000000" stroke="#000000" points="301.1112,-745.4442 307.9105,-737.3189 297.5283,-739.4307 301.1112,-745.4442"/>
<text text-anchor="middle" x="273.688" y="-768.2983" font-family="Times,serif" font-size="14.00" fill="#000000">0/2</text>
</g>
<!-- 5 -->
<g id="node6" class="node">
<title>5</title>
<ellipse fill="none" stroke="#000000" cx="223.6897" cy="-722.4983" rx="18" ry="18"/>
<text text-anchor="middle" x="223.6897" y="-718.7983" font-family="Times,serif" font-size="14.00" fill="#000000">5</text>
</g>
<!-- 5&#45;&gt;9999 -->
<g id="edge5" class="edge">
<title>5&#45;&gt;9999</title>
<path fill="none" stroke="#000000" d="M241.7047,-722.4983C255.8701,-722.4983 276.1189,-722.4983 293.9286,-722.4983"/>
<polygon fill="#000000" stroke="#000000" points="294.0684,-725.9984 304.0684,-722.4983 294.0683,-718.9984 294.0684,-725.9984"/>
<text text-anchor="middle" x="273.688" y="-726.2983" font-family="Times,serif" font-size="14.00" fill="#000000">0/10</text>
</g>
<!-- 6 -->
<g id="node7" class="node">
<title>6</title>
<ellipse fill="none" stroke="#000000" cx="223.6897" cy="-494.4983" rx="18" ry="18"/>
<text text-anchor="middle" x="223.6897" y="-490.7983" font-family="Times,serif" font-size="14.00" fill="#000000">6</text>
</g>
<!-- 6&#45;&gt;9999 -->
<g id="edge6" class="edge">
<title>6&#45;&gt;9999</title>
<path fill="none" stroke="#000000" d="M231.5356,-510.8955C249.1148,-547.6343 291.99,-637.2395 315.9256,-687.2628"/>
<polygon fill="#000000" stroke="#000000" points="312.8322,-688.9068 320.3057,-696.4167 319.1466,-685.8854 312.8322,-688.9068"/>
<text text-anchor="middle" x="273.688" y="-625.2983" font-family="Times,serif" font-size="14.00" fill="#000000">0/10</text>
</g>
<!-- 7 -->
<g id="node8" class="node">
<title>7</title>
<ellipse fill="none" stroke="#000000" cx="130.6932" cy="-1216.4983" rx="18" ry="18"/>
<text text-anchor="middle" x="130.6932" y="-1212.7983" font-family="Times,serif" font-size="14.00" fill="#000000">7</text>
</g>
<!-- 7&#45;&gt;1 -->
<g id="edge7" class="edge">
<title>7&#45;&gt;1</title>
<path fill="none" stroke="#000000" d="M145.7065,-1227.0475C157.4021,-1233.8503 173.6961,-1240.1272 186.1915,-1232.4983 202.4049,-1222.5993 211.9012,-1203.2104 217.2794,-1186.9016"/>
<polygon fill="#000000" stroke="#000000" points="220.6519,-1187.8388 220.1191,-1177.2574 213.937,-1185.8616 220.6519,-1187.8388"/>
<text text-anchor="middle" x="177.1915" y="-1239.2983" font-family="Times,serif" font-size="14.00" fill="#000000">0/1</text>
</g>
<!-- 7&#45;&gt;2 -->
<g id="edge8" class="edge">
<title>7&#45;&gt;2</title>
<path fill="none" stroke="#000000" d="M147.4891,-1209.3925C159.8279,-1203.3736 176.1302,-1193.6236 186.1915,-1180.4983 191.7104,-1173.2986 206.6555,-1123.7152 215.9259,-1091.7467"/>
<polygon fill="#000000" stroke="#000000" points="219.3107,-1092.6405 218.7172,-1082.0623 212.5845,-1090.7018 219.3107,-1092.6405"/>
<text text-anchor="middle" x="177.1915" y="-1200.2983" font-family="Times,serif" font-size="14.00" fill="#000000">0/1</text>
</g>
<!-- 8 -->
<g id="node9" class="node">
<title>8</title>
<ellipse fill="none" stroke="#000000" cx="130.6932" cy="-1099.4983" rx="18" ry="18"/>
<text text-anchor="middle" x="130.6932" y="-1095.7983" font-family="Times,serif" font-size="14.00" fill="#000000">8</text>
</g>
<!-- 8&#45;&gt;1 -->
<g id="edge9" class="edge">
<title>8&#45;&gt;1</title>
<path fill="none" stroke="#000000" d="M136.8491,-1116.4397C142.6956,-1129.8394 152.8878,-1147.7063 168.1915,-1156.4983 176.3981,-1161.213 186.4633,-1162.7552 195.7581,-1162.8639"/>
<polygon fill="#000000" stroke="#000000" points="195.9298,-1166.36 205.7847,-1162.4702 195.6551,-1159.3654 195.9298,-1166.36"/>
<text text-anchor="middle" x="177.1915" y="-1165.2983" font-family="Times,serif" font-size="14.00" fill="#000000">0/1</text>
</g>
<!-- 8&#45;&gt;2 -->
<g id="edge10" class="edge">
<title>8&#45;&gt;2</title>
<path fill="none" stroke="#000000" d="M148.3087,-1093.8348C159.2785,-1090.2174 173.6416,-1085.3165 186.1915,-1080.4983 189.9496,-1079.0554 193.8887,-1077.464 197.7429,-1075.8611"/>
<polygon fill="#000000" stroke="#000000" points="199.1606,-1079.0617 206.9972,-1071.9315 196.4246,-1072.6185 199.1606,-1079.0617"/>
<text text-anchor="middle" x="177.1915" y="-1090.2983" font-family="Times,serif" font-size="14.00" fill="#000000">0/1</text>
</g>
<!-- 8&#45;&gt;3 -->
<g id="edge11" class="edge">
<title>8&#45;&gt;3</title>
<path fill="none" stroke="#000000" d="M143.6214,-1086.4738C159.4987,-1070.4411 184.5463,-1045.0118 186.1915,-1042.4983 199.4025,-1022.3137 209.3709,-996.7235 215.6965,-977.6592"/>
<polygon fill="#000000" stroke="#000000" points="219.0469,-978.6726 218.7517,-968.0819 212.378,-976.5451 219.0469,-978.6726"/>
<text text-anchor="middle" x="177.1915" y="-1064.2983" font-family="Times,serif" font-size="14.00" fill="#000000">0/1</text>
</g>
<!-- 9 -->
<g id="node10" class="node">
<title>9</title>
<ellipse fill="none" stroke="#000000" cx="130.6932" cy="-872.4983" rx="18" ry="18"/>
<text text-anchor="middle" x="130.6932" y="-868.7983" font-family="Times,serif" font-size="14.00" fill="#000000">9</text>
</g>
<!-- 9&#45;&gt;1 -->
<g id="edge12" class="edge">
<title>9&#45;&gt;1</title>
<path fill="none" stroke="#000000" d="M142.7739,-886.2392C145.6874,-890.2619 148.457,-894.838 150.1915,-899.4983 182.2486,-985.6305 128.7866,-1022.4701 168.1915,-1105.4983 175.3343,-1120.5487 188.5664,-1133.6816 200.3188,-1143.2269"/>
<polygon fill="#000000" stroke="#000000" points="198.4449,-1146.2009 208.5067,-1149.5193 202.7104,-1140.6506 198.4449,-1146.2009"/>
<text text-anchor="middle" x="177.1915" y="-1132.2983" font-family="Times,serif" font-size="14.00" fill="#000000">0/1</text>
</g>
<!-- 9&#45;&gt;2 -->
<g id="edge13" class="edge">
<title>9&#45;&gt;2</title>
<path fill="none" stroke="#000000" d="M142.5213,-886.3392C145.4338,-890.3623 148.266,-894.9137 150.1915,-899.4983 168.5252,-943.1521 146.9988,-962.1586 168.1915,-1004.4983 173.398,-1014.9002 178.2659,-1014.9839 186.1915,-1023.4983 192.199,-1029.9521 198.6971,-1037.0242 204.5696,-1043.4503"/>
<polygon fill="#000000" stroke="#000000" points="202.2654,-1046.118 211.5894,-1051.1494 207.4381,-1041.4017 202.2654,-1046.118"/>
<text text-anchor="middle" x="177.1915" y="-1027.2983" font-family="Times,serif" font-size="14.00" fill="#000000">0/1</text>
</g>
<!-- 9&#45;&gt;4 -->
<g id="edge14" class="edge">
<title>9&#45;&gt;4</title>
<path fill="none" stroke="#000000" d="M148.5446,-869.3878C160.2926,-866.5968 175.4302,-861.502 186.1915,-852.4983 198.2941,-842.3722 207.3387,-827.2771 213.5097,-814.1819"/>
<polygon fill="#000000" stroke="#000000" points="216.8682,-815.2375 217.6716,-804.6732 210.4556,-812.4307 216.8682,-815.2375"/>
<text text-anchor="middle" x="177.1915" y="-866.2983" font-family="Times,serif" font-size="14.00" fill="#000000">0/1</text>
</g>
<!-- 10 -->
<g id="node11" class="node">
<title>10</title>
<ellipse fill="none" stroke="#000000" cx="223.6897" cy="-655.4983" rx="19.4965" ry="19.4965"/>
<text text-anchor="middle" x="223.6897" y="-651.7983" font-family="Times,serif" font-size="14.00" fill="#000000">10</text>
</g>
<!-- 9&#45;&gt;10 -->
<g id="edge15" class="edge">
<title>9&#45;&gt;10</title>
<path fill="none" stroke="#000000" d="M143.1895,-859.5348C159.4511,-842.6517 185.8515,-815.1901 186.1915,-814.4983 209.7821,-766.4908 188.2898,-746.5705 204.1915,-695.4983 205.5989,-690.978 207.4498,-686.3297 209.4512,-681.8738"/>
<polygon fill="#000000" stroke="#000000" points="212.7571,-683.077 213.9593,-672.5506 206.4551,-680.0297 212.7571,-683.077"/>
<text text-anchor="middle" x="177.1915" y="-835.2983" font-family="Times,serif" font-size="14.00" fill="#000000">0/1</text>
</g>
<!-- 11 -->
<g id="node12" class="node">
<title>11</title>
<ellipse fill="none" stroke="#000000" cx="223.6897" cy="-323.4983" rx="19.4965" ry="19.4965"/>
<text text-anchor="middle" x="223.6897" y="-319.7983" font-family="Times,serif" font-size="14.00" fill="#000000">11</text>
</g>
<!-- 9&#45;&gt;11 -->
<g id="edge16" class="edge">
<title>9&#45;&gt;11</title>
<path fill="none" stroke="#000000" d="M142.6842,-858.7232C145.5973,-854.7004 148.3892,-850.1327 150.1915,-845.4983 175.1683,-781.2737 145.4757,-756.557 168.1915,-691.4983 173.1921,-677.1764 181.3653,-676.8799 186.1915,-662.4983 213.8811,-579.9853 194.35,-553.9752 204.1915,-467.4983 208.7138,-427.7603 215.1124,-382.0168 219.3293,-352.9447"/>
<polygon fill="#000000" stroke="#000000" points="222.7953,-353.431 220.7766,-343.0302 215.8687,-352.4198 222.7953,-353.431"/>
<text text-anchor="middle" x="177.1915" y="-695.2983" font-family="Times,serif" font-size="14.00" fill="#000000">0/1</text>
</g>
<!-- 10&#45;&gt;9999 -->
<g id="edge17" class="edge">
<title>10&#45;&gt;9999</title>
<path fill="none" stroke="#000000" d="M240.7359,-665.967C256.4305,-675.6057 280.153,-690.1746 299.5845,-702.1082"/>
<polygon fill="#000000" stroke="#000000" points="297.8132,-705.1278 308.1662,-707.3786 301.4766,-699.1628 297.8132,-705.1278"/>
<text text-anchor="middle" x="273.688" y="-696.2983" font-family="Times,serif" font-size="14.00" fill="#000000">0/1</text>
</g>
<!-- 11&#45;&gt;9999 -->
<g id="edge18" class="edge">
<title>11&#45;&gt;9999</title>
<path fill="none" stroke="#000000" d="M228.8783,-342.4744C245.8292,-404.4699 299.7905,-601.8244 322.5278,-684.9824"/>
<polygon fill="#000000" stroke="#000000" points="319.1913,-686.0508 325.2049,-694.7736 325.9435,-684.2045 319.1913,-686.0508"/>
<text text-anchor="middle" x="273.688" y="-550.2983" font-family="Times,serif" font-size="14.00" fill="#000000">0/1</text>
</g>
<!-- 12 -->
<g id="node13" class="node">
<title>12</title>
<ellipse fill="none" stroke="#000000" cx="130.6932" cy="-589.4983" rx="19.4965" ry="19.4965"/>
<text text-anchor="middle" x="130.6932" y="-585.7983" font-family="Times,serif" font-size="14.00" fill="#000000">12</text>
</g>
<!-- 12&#45;&gt;6 -->
<g id="edge20" class="edge">
<title>12&#45;&gt;6</title>
<path fill="none" stroke="#000000" d="M141.6357,-573.2477C144.4286,-569.0932 147.4238,-564.6322 150.1915,-560.4983 158.215,-548.514 158.1194,-543.8207 168.1915,-533.4983 177.3512,-524.1109 189.0454,-515.5099 199.335,-508.7878"/>
<polygon fill="#000000" stroke="#000000" points="201.3144,-511.6776 207.9169,-503.3916 197.5882,-505.7517 201.3144,-511.6776"/>
<text text-anchor="middle" x="177.1915" y="-537.2983" font-family="Times,serif" font-size="14.00" fill="#000000">0/1</text>
</g>
<!-- 12&#45;&gt;10 -->
<g id="edge19" class="edge">
<title>12&#45;&gt;10</title>
<path fill="none" stroke="#000000" d="M147.4141,-600.2076C158.5389,-607.4393 173.4027,-617.3072 186.1915,-626.4983 190.786,-629.8003 195.6172,-633.4203 200.2266,-636.9493"/>
<polygon fill="#000000" stroke="#000000" points="198.1362,-639.7573 208.1849,-643.115 202.4234,-634.2237 198.1362,-639.7573"/>
<text text-anchor="middle" x="177.1915" y="-630.2983" font-family="Times,serif" font-size="14.00" fill="#000000">0/1</text>
</g>
<!-- 13 -->
<g id="node14" class="node">
<title>13</title>
<ellipse fill="none" stroke="#000000" cx="130.6932" cy="-646.4983" rx="19.4965" ry="19.4965"/>
<text text-anchor="middle" x="130.6932" y="-642.7983" font-family="Times,serif" font-size="14.00" fill="#000000">13</text>
</g>
<!-- 13&#45;&gt;6 -->
<g id="edge22" class="edge">
<title>13&#45;&gt;6</title>
<path fill="none" stroke="#000000" d="M141.7783,-630.3406C144.5685,-626.1844 147.5267,-621.6993 150.1915,-617.4983 171.5772,-583.7837 195.0365,-543.9977 209.5636,-519.0047"/>
<polygon fill="#000000" stroke="#000000" points="212.684,-520.6005 214.671,-510.1937 206.6279,-517.09 212.684,-520.6005"/>
<text text-anchor="middle" x="177.1915" y="-590.2983" font-family="Times,serif" font-size="14.00" fill="#000000">0/1</text>
</g>
<!-- 13&#45;&gt;10 -->
<g id="edge21" class="edge">
<title>13&#45;&gt;10</title>
<path fill="none" stroke="#000000" d="M150.2736,-645.9365C160.9277,-645.8606 174.3197,-646.1377 186.1915,-647.4983 188.9484,-647.8142 191.8018,-648.2394 194.6472,-648.7299"/>
<polygon fill="#000000" stroke="#000000" points="194.2427,-652.2173 204.7303,-650.7137 195.5941,-645.349 194.2427,-652.2173"/>
<text text-anchor="middle" x="177.1915" y="-651.2983" font-family="Times,serif" font-size="14.00" fill="#000000">0/1</text>
</g>
<!-- 14 -->
<g id="node15" class="node">
<title>14</title>
<ellipse fill="none" stroke="#000000" cx="130.6932" cy="-703.4983" rx="19.4965" ry="19.4965"/>
<text text-anchor="middle" x="130.6932" y="-699.7983" font-family="Times,serif" font-size="14.00" fill="#000000">14</text>
</g>
<!-- 14&#45;&gt;5 -->
<g id="edge23" class="edge">
<title>14&#45;&gt;5</title>
<path fill="none" stroke="#000000" d="M149.9621,-707.4351C163.2335,-710.1465 181.0741,-713.7915 195.8812,-716.8168"/>
<polygon fill="#000000" stroke="#000000" points="195.5201,-720.3152 206.0183,-718.8878 196.9213,-713.4569 195.5201,-720.3152"/>
<text text-anchor="middle" x="177.1915" y="-718.2983" font-family="Times,serif" font-size="14.00" fill="#000000">0/1</text>
</g>
<!-- 15 -->
<g id="node16" class="node">
<title>15</title>
<ellipse fill="none" stroke="#000000" cx="130.6932" cy="-76.4983" rx="19.4965" ry="19.4965"/>
<text text-anchor="middle" x="130.6932" y="-72.7983" font-family="Times,serif" font-size="14.00" fill="#000000">15</text>
</g>
<!-- 16 -->
<g id="node17" class="node">
<title>16</title>
<ellipse fill="none" stroke="#000000" cx="223.6897" cy="-100.4983" rx="19.4965" ry="19.4965"/>
<text text-anchor="middle" x="223.6897" y="-96.7983" font-family="Times,serif" font-size="14.00" fill="#000000">16</text>
</g>
<!-- 15&#45;&gt;16 -->
<g id="edge24" class="edge">
<title>15&#45;&gt;16</title>
<path fill="none" stroke="#000000" d="M150.1083,-79.6682C160.8313,-81.5883 174.3409,-84.2861 186.1915,-87.4983 189.2194,-88.319 192.3565,-89.259 195.468,-90.2499"/>
<polygon fill="#000000" stroke="#000000" points="194.5619,-93.6377 205.1559,-93.5049 196.7914,-87.0022 194.5619,-93.6377"/>
<text text-anchor="middle" x="177.1915" y="-91.2983" font-family="Times,serif" font-size="14.00" fill="#000000">0/1</text>
</g>
<!-- 16&#45;&gt;9999 -->
<g id="edge27" class="edge">
<title>16&#45;&gt;9999</title>
<path fill="none" stroke="#000000" d="M227.3065,-119.8784C237.0502,-172.2001 264.5718,-320.7229 286.188,-444.4983 301.1054,-529.916 317.6958,-630.2695 326.497,-683.9636"/>
<polygon fill="#000000" stroke="#000000" points="323.0806,-684.7591 328.1506,-694.062 329.9886,-683.6279 323.0806,-684.7591"/>
<text text-anchor="middle" x="273.688" y="-448.2983" font-family="Times,serif" font-size="14.00" fill="#000000">0/1</text>
</g>
<!-- 17 -->
<g id="node18" class="node">
<title>17</title>
<ellipse fill="none" stroke="#000000" cx="130.6932" cy="-19.4983" rx="19.4965" ry="19.4965"/>
<text text-anchor="middle" x="130.6932" y="-15.7983" font-family="Times,serif" font-size="14.00" fill="#000000">17</text>
</g>
<!-- 17&#45;&gt;16 -->
<g id="edge25" class="edge">
<title>17&#45;&gt;16</title>
<path fill="none" stroke="#000000" d="M146.5318,-31.7646C157.7943,-40.6251 173.1717,-53.006 186.1915,-64.4983 191.5556,-69.2331 197.1937,-74.4879 202.4216,-79.4866"/>
<polygon fill="#000000" stroke="#000000" points="200.0874,-82.0984 209.7079,-86.5366 204.955,-77.0677 200.0874,-82.0984"/>
<text text-anchor="middle" x="177.1915" y="-68.2983" font-family="Times,serif" font-size="14.00" fill="#000000">0/1</text>
</g>
<!-- 18 -->
<g id="node19" class="node">
<title>18</title>
<ellipse fill="none" stroke="#000000" cx="130.6932" cy="-133.4983" rx="19.4965" ry="19.4965"/>
<text text-anchor="middle" x="130.6932" y="-129.7983" font-family="Times,serif" font-size="14.00" fill="#000000">18</text>
</g>
<!-- 18&#45;&gt;16 -->
<g id="edge26" class="edge">
<title>18&#45;&gt;16</title>
<path fill="none" stroke="#000000" d="M149.5124,-126.8202C162.7079,-122.1378 180.5793,-115.7961 195.4739,-110.5107"/>
<polygon fill="#000000" stroke="#000000" points="196.9621,-113.6965 205.2159,-107.0538 194.6211,-107.0995 196.9621,-113.6965"/>
<text text-anchor="middle" x="177.1915" y="-124.2983" font-family="Times,serif" font-size="14.00" fill="#000000">0/1</text>
</g>
<!-- 20 -->
<g id="node20" class="node">
<title>20</title>
<ellipse fill="none" stroke="#000000" cx="130.6932" cy="-475.4983" rx="19.4965" ry="19.4965"/>
<text text-anchor="middle" x="130.6932" y="-471.7983" font-family="Times,serif" font-size="14.00" fill="#000000">20</text>
</g>
<!-- 20&#45;&gt;6 -->
<g id="edge28" class="edge">
<title>20&#45;&gt;6</title>
<path fill="none" stroke="#000000" d="M146.9543,-464.1688C158.1425,-457.8373 173.2594,-452.1922 186.1915,-457.4983 193.9255,-460.6716 200.9172,-466.2959 206.7107,-472.2163"/>
<polygon fill="#000000" stroke="#000000" points="204.114,-474.5633 213.3739,-479.7117 209.3457,-469.9125 204.114,-474.5633"/>
<text text-anchor="middle" x="177.1915" y="-461.2983" font-family="Times,serif" font-size="14.00" fill="#000000">0/1</text>
</g>
<!-- 21 -->
<g id="node21" class="node">
<title>21</title>
<ellipse fill="none" stroke="#000000" cx="130.6932" cy="-418.4983" rx="19.4965" ry="19.4965"/>
<text text-anchor="middle" x="130.6932" y="-414.7983" font-family="Times,serif" font-size="14.00" fill="#000000">21</text>
</g>
<!-- 21&#45;&gt;6 -->
<g id="edge29" class="edge">
<title>21&#45;&gt;6</title>
<path fill="none" stroke="#000000" d="M150.2183,-421.0303C161.6214,-423.3006 175.7701,-427.5605 186.1915,-435.4983 197.3551,-444.0014 206.0839,-456.8593 212.3,-468.4036"/>
<polygon fill="#000000" stroke="#000000" points="209.3281,-470.2864 216.9288,-477.6674 215.5899,-467.1575 209.3281,-470.2864"/>
<text text-anchor="middle" x="177.1915" y="-439.2983" font-family="Times,serif" font-size="14.00" fill="#000000">0/1</text>
</g>
<!-- 22 -->
<g id="node22" class="node">
<title>22</title>
<ellipse fill="none" stroke="#000000" cx="130.6932" cy="-532.4983" rx="19.4965" ry="19.4965"/>
<text text-anchor="middle" x="130.6932" y="-528.7983" font-family="Times,serif" font-size="14.00" fill="#000000">22</text>
</g>
<!-- 22&#45;&gt;6 -->
<g id="edge30" class="edge">
<title>22&#45;&gt;6</title>
<path fill="none" stroke="#000000" d="M142.3065,-516.2561C148.909,-508.4325 157.9074,-499.8265 168.1915,-495.4983 176.6822,-491.9248 186.5704,-490.8807 195.6284,-490.9752"/>
<polygon fill="#000000" stroke="#000000" points="195.5715,-494.4771 205.7469,-491.5258 195.9519,-487.4875 195.5715,-494.4771"/>
<text text-anchor="middle" x="177.1915" y="-499.2983" font-family="Times,serif" font-size="14.00" fill="#000000">0/1</text>
</g>
<!-- 19 -->
<g id="node23" class="node">
<title>19</title>
<ellipse fill="none" stroke="#000000" cx="130.6932" cy="-361.4983" rx="19.4965" ry="19.4965"/>
<text text-anchor="middle" x="130.6932" y="-357.7983" font-family="Times,serif" font-size="14.00" fill="#000000">19</text>
</g>
<!-- 19&#45;&gt;6 -->
<g id="edge31" class="edge">
<title>19&#45;&gt;6</title>
<path fill="none" stroke="#000000" d="M147.3162,-372.1013C159.4038,-380.4998 175.4636,-393.1745 186.1915,-407.4983 199.6887,-425.5198 209.4735,-449.1453 215.6567,-467.2281"/>
<polygon fill="#000000" stroke="#000000" points="212.3787,-468.4654 218.8019,-476.8911 219.0349,-466.2989 212.3787,-468.4654"/>
<text text-anchor="middle" x="177.1915" y="-411.2983" font-family="Times,serif" font-size="14.00" fill="#000000">0/1</text>
</g>
<!-- 19&#45;&gt;11 -->
<g id="edge32" class="edge">
<title>19&#45;&gt;11</title>
<path fill="none" stroke="#000000" d="M148.454,-352.5169C154.6392,-349.5114 161.6642,-346.2327 168.1915,-343.4983 176.9765,-339.818 186.7029,-336.1722 195.5274,-333.0216"/>
<polygon fill="#000000" stroke="#000000" points="196.729,-336.3093 205.009,-329.6993 194.4142,-329.7031 196.729,-336.3093"/>
<text text-anchor="middle" x="177.1915" y="-347.2983" font-family="Times,serif" font-size="14.00" fill="#000000">0/1</text>
</g>
<!-- 23 -->
<g id="node24" class="node">
<title>23</title>
<ellipse fill="none" stroke="#000000" cx="130.6932" cy="-304.4983" rx="19.4965" ry="19.4965"/>
<text text-anchor="middle" x="130.6932" y="-300.7983" font-family="Times,serif" font-size="14.00" fill="#000000">23</text>
</g>
<!-- 23&#45;&gt;11 -->
<g id="edge33" class="edge">
<title>23&#45;&gt;11</title>
<path fill="none" stroke="#000000" d="M150.2101,-302.8329C160.964,-302.416 174.4705,-302.7195 186.1915,-305.4983 189.9243,-306.3832 193.7227,-307.6761 197.3987,-309.1694"/>
<polygon fill="#000000" stroke="#000000" points="196.1662,-312.4547 206.7143,-313.448 199.0878,-306.0936 196.1662,-312.4547"/>
<text text-anchor="middle" x="177.1915" y="-309.2983" font-family="Times,serif" font-size="14.00" fill="#000000">0/1</text>
</g>
<!-- 24 -->
<g id="node25" class="node">
<title>24</title>
<ellipse fill="none" stroke="#000000" cx="130.6932" cy="-247.4983" rx="19.4965" ry="19.4965"/>
<text text-anchor="middle" x="130.6932" y="-243.7983" font-family="Times,serif" font-size="14.00" fill="#000000">24</text>
</g>
<!-- 24&#45;&gt;11 -->
<g id="edge34" class="edge">
<title>24&#45;&gt;11</title>
<path fill="none" stroke="#000000" d="M147.9467,-257.2074C159.2964,-263.9435 174.2107,-273.4774 186.1915,-283.4983 192.3156,-288.6205 198.452,-294.6802 203.9352,-300.513"/>
<polygon fill="#000000" stroke="#000000" points="201.6263,-303.1761 210.9451,-308.2171 206.8039,-298.4651 201.6263,-303.1761"/>
<text text-anchor="middle" x="177.1915" y="-287.2983" font-family="Times,serif" font-size="14.00" fill="#000000">0/1</text>
</g>
<!-- 25 -->
<g id="node26" class="node">
<title>25</title>
<ellipse fill="none" stroke="#000000" cx="130.6932" cy="-190.4983" rx="19.4965" ry="19.4965"/>
<text text-anchor="middle" x="130.6932" y="-186.7983" font-family="Times,serif" font-size="14.00" fill="#000000">25</text>
</g>
<!-- 25&#45;&gt;11 -->
<g id="edge35" class="edge">
<title>25&#45;&gt;11</title>
<path fill="none" stroke="#000000" d="M145.0829,-203.8701C157.0333,-215.4566 173.9899,-233.0586 186.1915,-250.4983 196.146,-264.7263 205.1212,-281.9524 211.7933,-296.0971"/>
<polygon fill="#000000" stroke="#000000" points="208.6755,-297.6947 216.0283,-305.3227 215.0372,-294.7743 208.6755,-297.6947"/>
<text text-anchor="middle" x="177.1915" y="-254.2983" font-family="Times,serif" font-size="14.00" fill="#000000">0/1</text>
</g>
<!-- 26 -->
<g id="node27" class="node">
<title>26</title>
<ellipse fill="none" stroke="#000000" cx="130.6932" cy="-760.4983" rx="19.4965" ry="19.4965"/>
<text text-anchor="middle" x="130.6932" y="-756.7983" font-family="Times,serif" font-size="14.00" fill="#000000">26</text>
</g>
<!-- 26&#45;&gt;4 -->
<g id="edge36" class="edge">
<title>26&#45;&gt;4</title>
<path fill="none" stroke="#000000" d="M150.1531,-758.1253C161.011,-757.469 174.636,-757.7695 186.1915,-761.4983 191.6573,-763.262 197.0348,-766.1121 201.9356,-769.2917"/>
<polygon fill="#000000" stroke="#000000" points="199.9967,-772.2085 210.1582,-775.2075 204.0848,-766.5262 199.9967,-772.2085"/>
<text text-anchor="middle" x="177.1915" y="-765.2983" font-family="Times,serif" font-size="14.00" fill="#000000">0/1</text>
</g>
<!-- 27 -->
<g id="node28" class="node">
<title>27</title>
<ellipse fill="none" stroke="#000000" cx="130.6932" cy="-817.4983" rx="19.4965" ry="19.4965"/>
<text text-anchor="middle" x="130.6932" y="-813.7983" font-family="Times,serif" font-size="14.00" fill="#000000">27</text>
</g>
<!-- 27&#45;&gt;4 -->
<g id="edge37" class="edge">
<title>27&#45;&gt;4</title>
<path fill="none" stroke="#000000" d="M147.8863,-808.2009C154.1443,-805.0988 161.3604,-801.8399 168.1915,-799.4983 176.9716,-796.4885 186.8007,-794.0694 195.7193,-792.2136"/>
<polygon fill="#000000" stroke="#000000" points="196.5001,-795.6275 205.6535,-790.2922 195.1708,-788.7549 196.5001,-795.6275"/>
<text text-anchor="middle" x="177.1915" y="-803.2983" font-family="Times,serif" font-size="14.00" fill="#000000">0/1</text>
</g>
<!-- 28 -->
<g id="node29" class="node">
<title>28</title>
<ellipse fill="none" stroke="#000000" cx="130.6932" cy="-1041.4983" rx="19.4965" ry="19.4965"/>
<text text-anchor="middle" x="130.6932" y="-1037.7983" font-family="Times,serif" font-size="14.00" fill="#000000">28</text>
</g>
<!-- 28&#45;&gt;3 -->
<g id="edge38" class="edge">
<title>28&#45;&gt;3</title>
<path fill="none" stroke="#000000" d="M141.6017,-1025.1528C150.3995,-1012.2093 162.2528,-995.3648 168.1915,-989.4983 177.5222,-980.2808 189.2385,-971.7018 199.4987,-964.9505"/>
<polygon fill="#000000" stroke="#000000" points="201.4827,-967.8366 208.0438,-959.5178 197.7271,-961.9294 201.4827,-967.8366"/>
<text text-anchor="middle" x="177.1915" y="-993.2983" font-family="Times,serif" font-size="14.00" fill="#000000">0/1</text>
</g>
<!-- 29 -->
<g id="node30" class="node">
<title>29</title>
<ellipse fill="none" stroke="#000000" cx="130.6932" cy="-984.4983" rx="19.4965" ry="19.4965"/>
<text text-anchor="middle" x="130.6932" y="-980.7983" font-family="Times,serif" font-size="14.00" fill="#000000">29</text>
</g>
<!-- 29&#45;&gt;3 -->
<g id="edge39" class="edge">
<title>29&#45;&gt;3</title>
<path fill="none" stroke="#000000" d="M143.3174,-969.2932C149.9379,-962.4975 158.6503,-955.1972 168.1915,-951.4983 176.7806,-948.1684 186.6937,-947.1859 195.7443,-947.262"/>
<polygon fill="#000000" stroke="#000000" points="195.6813,-950.7631 205.8418,-947.7605 196.0265,-943.7716 195.6813,-950.7631"/>
<text text-anchor="middle" x="177.1915" y="-955.2983" font-family="Times,serif" font-size="14.00" fill="#000000">0/1</text>
</g>
<!-- 9998 -->
<g id="node31" class="node">
<title>9998</title>
<ellipse fill="none" stroke="#000000" cx="28.5975" cy="-589.4983" rx="28.6953" ry="28.6953"/>
<text text-anchor="middle" x="28.5975" y="-585.7983" font-family="Times,serif" font-size="14.00" fill="#000000">9998</text>
</g>
<!-- 9998&#45;&gt;7 -->
<g id="edge40" class="edge">
<title>9998&#45;&gt;7</title>
<path fill="none" stroke="#000000" d="M29.0219,-618.2859C30.6353,-692.4781 38.3561,-895.9168 75.1949,-1060.4983 85.7441,-1107.6279 106.3502,-1160.0868 119.2693,-1190.5811"/>
<polygon fill="#000000" stroke="#000000" points="116.1693,-1192.2327 123.3302,-1200.0412 122.6017,-1189.4714 116.1693,-1192.2327"/>
<text text-anchor="middle" x="84.1949" y="-1125.2983" font-family="Times,serif" font-size="14.00" fill="#000000">0/1</text>
</g>
<!-- 9998&#45;&gt;8 -->
<g id="edge41" class="edge">
<title>9998&#45;&gt;8</title>
<path fill="none" stroke="#000000" d="M30.3751,-618.0708C35.6643,-699.4377 52.3645,-931.1606 75.1949,-1003.4983 83.7096,-1030.4769 100.7365,-1058.1158 113.6972,-1076.767"/>
<polygon fill="#000000" stroke="#000000" points="111.0239,-1079.0466 119.6779,-1085.1587 116.7243,-1074.9839 111.0239,-1079.0466"/>
<text text-anchor="middle" x="84.1949" y="-1045.2983" font-family="Times,serif" font-size="14.00" fill="#000000">0/1</text>
</g>
<!-- 9998&#45;&gt;9 -->
<g id="edge42" class="edge">
<title>9998&#45;&gt;9</title>
<path fill="none" stroke="#000000" d="M33.3183,-618.034C40.0574,-655.6393 54.0133,-723.4612 75.1949,-778.4983 87.3367,-810.0466 93.2602,-816.8441 111.1949,-845.4983 112.0002,-846.7848 112.8453,-848.0914 113.7137,-849.4004"/>
<polygon fill="#000000" stroke="#000000" points="111.0271,-851.6681 119.6048,-857.8869 116.7774,-847.6763 111.0271,-851.6681"/>
<text text-anchor="middle" x="84.1949" y="-819.2983" font-family="Times,serif" font-size="14.00" fill="#000000">0/1</text>
</g>
<!-- 9998&#45;&gt;12 -->
<g id="edge43" class="edge">
<title>9998&#45;&gt;12</title>
<path fill="none" stroke="#000000" d="M57.3085,-589.4983C70.8046,-589.4983 86.8954,-589.4983 100.5658,-589.4983"/>
<polygon fill="#000000" stroke="#000000" points="100.9145,-592.9984 110.9145,-589.4983 100.9145,-585.9984 100.9145,-592.9984"/>
<text text-anchor="middle" x="84.1949" y="-593.2983" font-family="Times,serif" font-size="14.00" fill="#000000">0/1</text>
</g>
<!-- 9998&#45;&gt;13 -->
<g id="edge44" class="edge">
<title>9998&#45;&gt;13</title>
<path fill="none" stroke="#000000" d="M53.5729,-603.442C69.0213,-612.0669 88.8244,-623.1229 104.4951,-631.8719"/>
<polygon fill="#000000" stroke="#000000" points="103.2048,-635.16 113.6424,-636.9788 106.6172,-629.0481 103.2048,-635.16"/>
<text text-anchor="middle" x="84.1949" y="-628.2983" font-family="Times,serif" font-size="14.00" fill="#000000">0/1</text>
</g>
<!-- 9998&#45;&gt;14 -->
<g id="edge45" class="edge">
<title>9998&#45;&gt;14</title>
<path fill="none" stroke="#000000" d="M47.246,-611.4551C55.7005,-621.3196 65.8721,-633.0638 75.1949,-643.4983 86.5634,-656.2223 99.497,-670.2313 110.017,-681.5106"/>
<polygon fill="#000000" stroke="#000000" points="107.4789,-683.9207 116.8656,-688.8339 112.5916,-679.1394 107.4789,-683.9207"/>
<text text-anchor="middle" x="84.1949" y="-665.2983" font-family="Times,serif" font-size="14.00" fill="#000000">0/1</text>
</g>
<!-- 9998&#45;&gt;15 -->
<g id="edge46" class="edge">
<title>9998&#45;&gt;15</title>
<path fill="none" stroke="#000000" d="M30.2839,-560.7919C35.3558,-478.4733 51.5898,-242.8247 75.1949,-169.4983 83.4142,-143.9661 99.7069,-118.0104 112.5228,-100.0317"/>
<polygon fill="#000000" stroke="#000000" points="115.4044,-102.0207 118.4844,-91.8834 109.7549,-97.8873 115.4044,-102.0207"/>
<text text-anchor="middle" x="84.1949" y="-173.2983" font-family="Times,serif" font-size="14.00" fill="#000000">0/1</text>
</g>
<!-- 9998&#45;&gt;17 -->
<g id="edge47" class="edge">
<title>9998&#45;&gt;17</title>
<path fill="none" stroke="#000000" d="M29.8759,-560.8677C34.1096,-471.3873 48.9192,-197.9355 75.1949,-113.4983 83.228,-87.6838 99.542,-61.4499 112.4133,-43.2802"/>
<polygon fill="#000000" stroke="#000000" points="115.3514,-45.191 118.4041,-35.0455 109.6908,-41.0729 115.3514,-45.191"/>
<text text-anchor="middle" x="84.1949" y="-117.2983" font-family="Times,serif" font-size="14.00" fill="#000000">0/1</text>
</g>
<!-- 9998&#45;&gt;18 -->
<g id="edge48" class="edge">
<title>9998&#45;&gt;18</title>
<path fill="none" stroke="#000000" d="M30.8858,-560.8326C37.034,-486.6039 54.8314,-289.5903 75.1949,-227.4983 83.6199,-201.809 99.889,-175.5608 112.6438,-157.3538"/>
<polygon fill="#000000" stroke="#000000" points="115.5816,-159.2632 118.5731,-149.0995 109.8964,-155.1793 115.5816,-159.2632"/>
<text text-anchor="middle" x="84.1949" y="-231.2983" font-family="Times,serif" font-size="14.00" fill="#000000">0/1</text>
</g>
<!-- 9998&#45;&gt;20 -->
<g id="edge49" class="edge">
<title>9998&#45;&gt;20</title>
<path fill="none" stroke="#000000" d="M46.9327,-567.3277C55.4132,-557.2112 65.6929,-545.1405 75.1949,-534.4983 86.3491,-522.0056 99.1362,-508.3675 109.6228,-497.3535"/>
<polygon fill="#000000" stroke="#000000" points="112.415,-499.4978 116.796,-489.8512 107.3555,-494.6603 112.415,-499.4978"/>
<text text-anchor="middle" x="84.1949" y="-538.2983" font-family="Times,serif" font-size="14.00" fill="#000000">0/1</text>
</g>
<!-- 9998&#45;&gt;21 -->
<g id="edge50" class="edge">
<title>9998&#45;&gt;21</title>
<path fill="none" stroke="#000000" d="M40.4142,-563.2683C49.2687,-544.3157 62.0716,-518.3195 75.1949,-496.4983 86.508,-477.6872 100.9203,-457.5242 112.2225,-442.4114"/>
<polygon fill="#000000" stroke="#000000" points="115.2328,-444.2332 118.4707,-434.1453 109.6486,-440.0122 115.2328,-444.2332"/>
<text text-anchor="middle" x="84.1949" y="-500.2983" font-family="Times,serif" font-size="14.00" fill="#000000">0/1</text>
</g>
<!-- 9998&#45;&gt;22 -->
<g id="edge51" class="edge">
<title>9998&#45;&gt;22</title>
<path fill="none" stroke="#000000" d="M53.5729,-575.5545C69.0213,-566.9297 88.8244,-555.8736 104.4951,-547.1247"/>
<polygon fill="#000000" stroke="#000000" points="106.6172,-549.9485 113.6424,-542.0177 103.2048,-543.8365 106.6172,-549.9485"/>
<text text-anchor="middle" x="84.1949" y="-566.2983" font-family="Times,serif" font-size="14.00" fill="#000000">0/1</text>
</g>
<!-- 9998&#45;&gt;19 -->
<g id="edge52" class="edge">
<title>9998&#45;&gt;19</title>
<path fill="none" stroke="#000000" d="M35.9987,-561.654C44.0327,-533.0957 58.0404,-487.7122 75.1949,-450.4983 88.2137,-422.2561 94.5135,-416.7441 111.1949,-390.4983 112.1122,-389.055 113.0639,-387.578 114.0313,-386.0921"/>
<polygon fill="#000000" stroke="#000000" points="117.0122,-387.9298 119.6133,-377.6593 111.1751,-384.0661 117.0122,-387.9298"/>
<text text-anchor="middle" x="84.1949" y="-454.2983" font-family="Times,serif" font-size="14.00" fill="#000000">0/1</text>
</g>
<!-- 9998&#45;&gt;23 -->
<g id="edge53" class="edge">
<title>9998&#45;&gt;23</title>
<path fill="none" stroke="#000000" d="M33.1107,-560.9431C39.6618,-522.9587 53.4536,-454.1325 75.1949,-398.4983 85.0354,-373.3172 101.1425,-347.0108 113.4762,-328.6527"/>
<polygon fill="#000000" stroke="#000000" points="116.421,-330.547 119.1839,-320.3188 110.6456,-326.5916 116.421,-330.547"/>
<text text-anchor="middle" x="84.1949" y="-402.2983" font-family="Times,serif" font-size="14.00" fill="#000000">0/1</text>
</g>
<!-- 9998&#45;&gt;24 -->
<g id="edge54" class="edge">
<title>9998&#45;&gt;24</title>
<path fill="none" stroke="#000000" d="M31.1715,-560.721C35.9796,-514.0174 48.3678,-419.3068 75.1949,-343.4983 84.412,-317.4524 100.7368,-290.4386 113.3033,-271.7278"/>
<polygon fill="#000000" stroke="#000000" points="116.3489,-273.4754 119.1228,-263.2501 110.5778,-269.5138 116.3489,-273.4754"/>
<text text-anchor="middle" x="84.1949" y="-347.2983" font-family="Times,serif" font-size="14.00" fill="#000000">0/1</text>
</g>
<!-- 9998&#45;&gt;25 -->
<g id="edge55" class="edge">
<title>9998&#45;&gt;25</title>
<path fill="none" stroke="#000000" d="M29.7053,-560.639C32.5306,-505.6994 42.3048,-382.8777 75.1949,-285.4983 83.9144,-259.682 100.1498,-233.1378 112.817,-214.6936"/>
<polygon fill="#000000" stroke="#000000" points="115.8103,-216.5216 118.7002,-206.3286 110.0845,-212.4947 115.8103,-216.5216"/>
<text text-anchor="middle" x="84.1949" y="-289.2983" font-family="Times,serif" font-size="14.00" fill="#000000">0/1</text>
</g>
<!-- 9998&#45;&gt;26 -->
<g id="edge56" class="edge">
<title>9998&#45;&gt;26</title>
<path fill="none" stroke="#000000" d="M40.7615,-615.4893C49.6832,-633.966 62.4217,-659.1833 75.1949,-680.4983 86.8518,-699.9503 101.5324,-720.9849 112.8664,-736.6012"/>
<polygon fill="#000000" stroke="#000000" points="110.0465,-738.6745 118.7782,-744.6751 115.6943,-734.539 110.0465,-738.6745"/>
<text text-anchor="middle" x="84.1949" y="-711.2983" font-family="Times,serif" font-size="14.00" fill="#000000">0/1</text>
</g>
<!-- 9998&#45;&gt;27 -->
<g id="edge57" class="edge">
<title>9998&#45;&gt;27</title>
<path fill="none" stroke="#000000" d="M36.2422,-617.1471C44.4208,-645.2642 58.4973,-689.7958 75.1949,-726.4983 88.3899,-755.5017 94.2963,-761.4845 111.1949,-788.4983 112.1019,-789.9481 113.0455,-791.4302 114.0067,-792.92"/>
<polygon fill="#000000" stroke="#000000" points="111.1461,-794.9399 119.5715,-801.3637 116.991,-791.0879 111.1461,-794.9399"/>
<text text-anchor="middle" x="84.1949" y="-763.2983" font-family="Times,serif" font-size="14.00" fill="#000000">0/1</text>
</g>
<!-- 9998&#45;&gt;28 -->
<g id="edge58" class="edge">
<title>9998&#45;&gt;28</title>
<path fill="none" stroke="#000000" d="M30.9561,-618.0278C37.2409,-691.4185 55.2753,-885.2774 75.1949,-946.4983 83.6768,-972.5663 100.0907,-999.2632 112.8774,-1017.6911"/>
<polygon fill="#000000" stroke="#000000" points="110.1639,-1019.9146 118.8126,-1026.0343 115.8679,-1015.8569 110.1639,-1019.9146"/>
<text text-anchor="middle" x="84.1949" y="-988.2983" font-family="Times,serif" font-size="14.00" fill="#000000">0/1</text>
</g>
<!-- 9998&#45;&gt;29 -->
<g id="edge59" class="edge">
<title>9998&#45;&gt;29</title>
<path fill="none" stroke="#000000" d="M29.6932,-618.0927C32.4982,-672.5237 42.2395,-794.1877 75.1949,-890.4983 83.9477,-916.0777 100.1793,-942.3385 112.8365,-960.5781"/>
<polygon fill="#000000" stroke="#000000" points="110.0689,-962.7257 118.7146,-968.8497 115.7749,-958.6708 110.0689,-962.7257"/>
<text text-anchor="middle" x="84.1949" y="-931.2983" font-family="Times,serif" font-size="14.00" fill="#000000">0/1</text>
</g>
<!-- 30 -->
<g id="node32" class="node">
<title>30</title>
<ellipse fill="none" stroke="#000000" cx="130.6932" cy="-927.4983" rx="19.4965" ry="19.4965"/>
<text text-anchor="middle" x="130.6932" y="-923.7983" font-family="Times,serif" font-size="14.00" fill="#000000">30</text>
</g>
<!-- 9998&#45;&gt;30 -->
<g id="edge60" class="edge">
<title>9998&#45;&gt;30</title>
<path fill="none" stroke="#000000" d="M31.0784,-618.198C35.7559,-664.7673 47.9645,-759.1691 75.1949,-834.4983 84.3134,-859.7233 100.5031,-885.7141 113.0516,-903.7842"/>
<polygon fill="#000000" stroke="#000000" points="110.2286,-905.8539 118.8724,-911.9806 115.9359,-901.8008 110.2286,-905.8539"/>
<text text-anchor="middle" x="84.1949" y="-875.2983" font-family="Times,serif" font-size="14.00" fill="#000000">0/1</text>
</g>
<!-- 30&#45;&gt;3 -->
<g id="edge61" class="edge">
<title>30&#45;&gt;3</title>
<path fill="none" stroke="#000000" d="M147.6027,-917.7721C158.807,-912.6402 173.6887,-908.3684 186.1915,-913.4983 193.9255,-916.6716 200.9172,-922.2959 206.7107,-928.2163"/>
<polygon fill="#000000" stroke="#000000" points="204.114,-930.5633 213.3739,-935.7117 209.3457,-925.9125 204.114,-930.5633"/>
<text text-anchor="middle" x="177.1915" y="-917.2983" font-family="Times,serif" font-size="14.00" fill="#000000">0/1</text>
</g>
</g>
</svg>
