<?xml version="1.0" encoding="UTF-8" standalone="no"?>
<!DOCTYPE svg PUBLIC "-//W3C//DTD SVG 1.1//EN"
 "http://www.w3.org/Graphics/SVG/1.1/DTD/svg11.dtd">
<!-- Generated by graphviz version 2.40.1 (20161225.0304)
 -->
<!-- Title: %3 Pages: 1 -->
<svg width="304pt" height="1894pt"
 viewBox="0.00 0.00 304.48 1893.74" xmlns="http://www.w3.org/2000/svg" xmlns:xlink="http://www.w3.org/1999/xlink">
<g id="graph0" class="graph" transform="scale(1 1) rotate(0) translate(4 1889.7399)">
<title>%3</title>
<polygon fill="#ffffff" stroke="transparent" points="-4,4 -4,-1889.7399 300.4775,-1889.7399 300.4775,4 -4,4"/>
<!-- Bernard -->
<g id="node1" class="node">
<title>Bernard</title>
<ellipse fill="none" stroke="#000000" cx="49.3956" cy="-77.3431" rx="38.9931" ry="38.9931"/>
<text text-anchor="middle" x="49.3956" y="-73.6431" font-family="Times,serif" font-size="14.00" fill="#000000">Bernard</text>
</g>
<!-- LancerDePoids (1) -->
<g id="node2" class="node">
<title>LancerDePoids (1)</title>
<ellipse fill="none" stroke="#000000" cx="219.1344" cy="-77.3431" rx="77.1866" ry="77.1866"/>
<text text-anchor="middle" x="219.1344" y="-73.6431" font-family="Times,serif" font-size="14.00" fill="#000000">LancerDePoids (1)</text>
</g>
<!-- Bernard&#45;&gt;LancerDePoids (1) -->
<g id="edge1" class="edge">
<title>Bernard&#45;&gt;LancerDePoids (1)</title>
<path fill="none" stroke="#ffa500" stroke-width="2" d="M88.7637,-77.3431C101.5748,-77.3431 116.3498,-77.3431 131.2488,-77.3431"/>
<polygon fill="#ffa500" stroke="#ffa500" stroke-width="2" points="131.5608,-80.8432 141.5608,-77.3431 131.5608,-73.8432 131.5608,-80.8432"/>
<text text-anchor="middle" x="120.2912" y="-81.1431" font-family="Times,serif" font-size="14.00" fill="#000000">1</text>
</g>
<!-- Laurent -->
<g id="node3" class="node">
<title>Laurent</title>
<ellipse fill="none" stroke="#000000" cx="49.3956" cy="-219.3431" rx="38.1938" ry="38.1938"/>
<text text-anchor="middle" x="49.3956" y="-215.6431" font-family="Times,serif" font-size="14.00" fill="#000000">Laurent</text>
</g>
<!-- Karate (3) -->
<g id="node4" class="node">
<title>Karate (3)</title>
<ellipse fill="none" stroke="#000000" cx="219.1344" cy="-219.3431" rx="46.5926" ry="46.5926"/>
<text text-anchor="middle" x="219.1344" y="-215.6431" font-family="Times,serif" font-size="14.00" fill="#000000">Karate (3)</text>
</g>
<!-- Laurent&#45;&gt;Karate (3) -->
<g id="edge2" class="edge">
<title>Laurent&#45;&gt;Karate (3)</title>
<path fill="none" stroke="#ffa500" stroke-width="2" d="M87.912,-219.3431C109.822,-219.3431 137.6775,-219.3431 162.0825,-219.3431"/>
<polygon fill="#ffa500" stroke="#ffa500" stroke-width="2" points="162.3032,-222.8432 172.3032,-219.3431 162.3032,-215.8432 162.3032,-222.8432"/>
<text text-anchor="middle" x="120.2912" y="-223.1431" font-family="Times,serif" font-size="14.00" fill="#000000">1</text>
</g>
<!-- Gatwick -->
<g id="node5" class="node">
<title>Gatwick</title>
<ellipse fill="none" stroke="#000000" cx="49.3956" cy="-609.3431" rx="40.0939" ry="40.0939"/>
<text text-anchor="middle" x="49.3956" y="-605.6431" font-family="Times,serif" font-size="14.00" fill="#000000">Gatwick</text>
</g>
<!-- Basketball (10) -->
<g id="node6" class="node">
<title>Basketball (10)</title>
<ellipse fill="none" stroke="#000000" cx="219.1344" cy="-521.3431" rx="64.9885" ry="64.9885"/>
<text text-anchor="middle" x="219.1344" y="-517.6431" font-family="Times,serif" font-size="14.00" fill="#000000">Basketball (10)</text>
</g>
<!-- Gatwick&#45;&gt;Basketball (10) -->
<g id="edge3" class="edge">
<title>Gatwick&#45;&gt;Basketball (10)</title>
<path fill="none" stroke="#ffa500" stroke-width="2" d="M85.3928,-590.6806C104.8087,-580.6146 129.4013,-567.8647 152.1877,-556.0512"/>
<polygon fill="#ffa500" stroke="#ffa500" stroke-width="2" points="153.8833,-559.1146 161.1502,-551.4047 150.6614,-552.9001 153.8833,-559.1146"/>
<text text-anchor="middle" x="120.2912" y="-577.1431" font-family="Times,serif" font-size="14.00" fill="#000000">1</text>
</g>
<!-- Axel -->
<g id="node7" class="node">
<title>Axel</title>
<ellipse fill="none" stroke="#000000" cx="49.3956" cy="-695.3431" rx="27.8951" ry="27.8951"/>
<text text-anchor="middle" x="49.3956" y="-691.6431" font-family="Times,serif" font-size="14.00" fill="#000000">Axel</text>
</g>
<!-- Handball (1) -->
<g id="node8" class="node">
<title>Handball (1)</title>
<ellipse fill="none" stroke="#000000" cx="219.1344" cy="-695.3431" rx="55.7903" ry="55.7903"/>
<text text-anchor="middle" x="219.1344" y="-691.6431" font-family="Times,serif" font-size="14.00" fill="#000000">Handball (1)</text>
</g>
<!-- Axel&#45;&gt;Handball (1) -->
<g id="edge4" class="edge">
<title>Axel&#45;&gt;Handball (1)</title>
<path fill="none" stroke="#ffa500" stroke-width="2" d="M77.4245,-695.3431C97.9568,-695.3431 126.7036,-695.3431 152.9439,-695.3431"/>
<polygon fill="#ffa500" stroke="#ffa500" stroke-width="2" points="153.236,-698.8432 163.2359,-695.3431 153.2359,-691.8432 153.236,-698.8432"/>
<text text-anchor="middle" x="120.2912" y="-699.1431" font-family="Times,serif" font-size="14.00" fill="#000000">1</text>
</g>
<!-- Mael -->
<g id="node9" class="node">
<title>Mael</title>
<ellipse fill="none" stroke="#000000" cx="49.3956" cy="-521.3431" rx="29.4969" ry="29.4969"/>
<text text-anchor="middle" x="49.3956" y="-517.6431" font-family="Times,serif" font-size="14.00" fill="#000000">Mael</text>
</g>
<!-- Mael&#45;&gt;Basketball (10) -->
<g id="edge5" class="edge">
<title>Mael&#45;&gt;Basketball (10)</title>
<path fill="none" stroke="#ffa500" stroke-width="2" d="M78.9619,-521.3431C96.999,-521.3431 120.9389,-521.3431 143.9218,-521.3431"/>
<polygon fill="#ffa500" stroke="#ffa500" stroke-width="2" points="144.0399,-524.8432 154.0399,-521.3431 144.0398,-517.8432 144.0399,-524.8432"/>
<text text-anchor="middle" x="120.2912" y="-525.1431" font-family="Times,serif" font-size="14.00" fill="#000000">1</text>
</g>
<!-- Martin -->
<g id="node10" class="node">
<title>Martin</title>
<ellipse fill="none" stroke="#000000" cx="49.3956" cy="-823.3431" rx="35.194" ry="35.194"/>
<text text-anchor="middle" x="49.3956" y="-819.6431" font-family="Times,serif" font-size="14.00" fill="#000000">Martin</text>
</g>
<!-- Baseball (1) -->
<g id="node11" class="node">
<title>Baseball (1)</title>
<ellipse fill="none" stroke="#000000" cx="219.1344" cy="-823.3431" rx="53.8905" ry="53.8905"/>
<text text-anchor="middle" x="219.1344" y="-819.6431" font-family="Times,serif" font-size="14.00" fill="#000000">Baseball (1)</text>
</g>
<!-- Martin&#45;&gt;Baseball (1) -->
<g id="edge6" class="edge">
<title>Martin&#45;&gt;Baseball (1)</title>
<path fill="none" stroke="#ffa500" stroke-width="2" d="M84.5656,-823.3431C104.8726,-823.3431 131.0409,-823.3431 154.8947,-823.3431"/>
<polygon fill="#ffa500" stroke="#ffa500" stroke-width="2" points="154.9522,-826.8432 164.9522,-823.3431 154.9521,-819.8432 154.9522,-826.8432"/>
<text text-anchor="middle" x="120.2912" y="-827.1431" font-family="Times,serif" font-size="14.00" fill="#000000">1</text>
</g>
<!-- Dupont -->
<g id="node12" class="node">
<title>Dupont</title>
<ellipse fill="none" stroke="#000000" cx="49.3956" cy="-1206.3431" rx="37.0935" ry="37.0935"/>
<text text-anchor="middle" x="49.3956" y="-1202.6431" font-family="Times,serif" font-size="14.00" fill="#000000">Dupont</text>
</g>
<!-- Dance (10) -->
<g id="node13" class="node">
<title>Dance (10)</title>
<ellipse fill="none" stroke="#000000" cx="219.1344" cy="-1281.3431" rx="50.0912" ry="50.0912"/>
<text text-anchor="middle" x="219.1344" y="-1277.6431" font-family="Times,serif" font-size="14.00" fill="#000000">Dance (10)</text>
</g>
<!-- Dupont&#45;&gt;Dance (10) -->
<g id="edge7" class="edge">
<title>Dupont&#45;&gt;Dance (10)</title>
<path fill="none" stroke="#ffa500" stroke-width="2" d="M83.3368,-1221.3402C106.4437,-1231.5501 137.5431,-1245.2916 164.1501,-1257.048"/>
<polygon fill="#ffa500" stroke="#ffa500" stroke-width="2" points="162.792,-1260.2744 173.3535,-1261.1146 165.6212,-1253.8715 162.792,-1260.2744"/>
<text text-anchor="middle" x="120.2912" y="-1241.1431" font-family="Times,serif" font-size="14.00" fill="#000000">2</text>
</g>
<!-- Football (3) -->
<g id="node14" class="node">
<title>Football (3)</title>
<ellipse fill="none" stroke="#000000" cx="219.1344" cy="-1151.3431" rx="52.7911" ry="52.7911"/>
<text text-anchor="middle" x="219.1344" y="-1147.6431" font-family="Times,serif" font-size="14.00" fill="#000000">Football (3)</text>
</g>
<!-- Dupont&#45;&gt;Football (3) -->
<g id="edge8" class="edge">
<title>Dupont&#45;&gt;Football (3)</title>
<path fill="none" stroke="#ffa500" stroke-width="2" d="M84.9784,-1194.8133C106.4335,-1187.8613 134.3197,-1178.8254 159.1059,-1170.794"/>
<polygon fill="#ffa500" stroke="#ffa500" stroke-width="2" points="160.3562,-1174.0681 168.7904,-1167.656 158.1984,-1167.4089 160.3562,-1174.0681"/>
<text text-anchor="middle" x="120.2912" y="-1188.1431" font-family="Times,serif" font-size="14.00" fill="#000000">1</text>
</g>
<!-- Badminton (20) -->
<g id="node15" class="node">
<title>Badminton (20)</title>
<ellipse fill="none" stroke="#000000" cx="219.1344" cy="-1010.3431" rx="67.6881" ry="67.6881"/>
<text text-anchor="middle" x="219.1344" y="-1006.6431" font-family="Times,serif" font-size="14.00" fill="#000000">Badminton (20)</text>
</g>
<!-- Dupont&#45;&gt;Badminton (20) -->
<g id="edge9" class="edge">
<title>Dupont&#45;&gt;Badminton (20)</title>
<path fill="none" stroke="#ffa500" stroke-width="2" d="M77.0831,-1181.5559C84.3011,-1174.8264 91.9657,-1167.4357 98.7912,-1160.3431 110.5911,-1148.0817 114.7783,-1145.7774 123.7912,-1131.3431 134.5475,-1114.1168 130.4948,-1106.2202 141.7912,-1089.3431 147.7583,-1080.4282 154.8064,-1071.6404 162.1792,-1063.3491"/>
<polygon fill="#ffa500" stroke="#ffa500" stroke-width="2" points="164.8436,-1065.6221 169.0196,-1055.8849 159.6829,-1060.8927 164.8436,-1065.6221"/>
<text text-anchor="middle" x="120.2912" y="-1145.1431" font-family="Times,serif" font-size="14.00" fill="#000000">1</text>
</g>
<!-- Bertrand -->
<g id="node16" class="node">
<title>Bertrand</title>
<ellipse fill="none" stroke="#000000" cx="49.3956" cy="-1109.3431" rx="41.6928" ry="41.6928"/>
<text text-anchor="middle" x="49.3956" y="-1105.6431" font-family="Times,serif" font-size="14.00" fill="#000000">Bertrand</text>
</g>
<!-- Bertrand&#45;&gt;Football (3) -->
<g id="edge10" class="edge">
<title>Bertrand&#45;&gt;Football (3)</title>
<path fill="none" stroke="#ffa500" stroke-width="2" d="M91.014,-1111.3529C101.7777,-1112.3914 113.2899,-1113.9637 123.7912,-1116.3431 136.0036,-1119.1102 148.7775,-1123.0355 160.8614,-1127.2634"/>
<polygon fill="#ffa500" stroke="#ffa500" stroke-width="2" points="159.7865,-1130.5964 170.3808,-1130.7027 162.1651,-1124.0129 159.7865,-1130.5964"/>
<text text-anchor="middle" x="120.2912" y="-1120.1431" font-family="Times,serif" font-size="14.00" fill="#000000">1</text>
</g>
<!-- Bertrand&#45;&gt;Badminton (20) -->
<g id="edge11" class="edge">
<title>Bertrand&#45;&gt;Badminton (20)</title>
<path fill="none" stroke="#ffa500" stroke-width="2" d="M85.3928,-1088.3478C104.6369,-1077.1237 128.9664,-1062.9335 151.5824,-1049.7428"/>
<polygon fill="#ffa500" stroke="#ffa500" stroke-width="2" points="153.6075,-1052.6135 160.4822,-1044.5519 150.0807,-1046.5668 153.6075,-1052.6135"/>
<text text-anchor="middle" x="120.2912" y="-1073.1431" font-family="Times,serif" font-size="14.00" fill="#000000">1</text>
</g>
<!-- Aurelien -->
<g id="node17" class="node">
<title>Aurelien</title>
<ellipse fill="none" stroke="#000000" cx="49.3956" cy="-1008.3431" rx="41.6928" ry="41.6928"/>
<text text-anchor="middle" x="49.3956" y="-1004.6431" font-family="Times,serif" font-size="14.00" fill="#000000">Aurelien</text>
</g>
<!-- Aurelien&#45;&gt;Badminton (20) -->
<g id="edge12" class="edge">
<title>Aurelien&#45;&gt;Badminton (20)</title>
<path fill="none" stroke="#ffa500" stroke-width="2" d="M91.3535,-1008.8375C106.4537,-1009.0154 124.0134,-1009.2223 141.192,-1009.4248"/>
<polygon fill="#ffa500" stroke="#ffa500" stroke-width="2" points="141.2005,-1012.925 151.241,-1009.5432 141.283,-1005.9255 141.2005,-1012.925"/>
<text text-anchor="middle" x="120.2912" y="-1013.1431" font-family="Times,serif" font-size="14.00" fill="#000000">1</text>
</g>
<!-- Clotilde -->
<g id="node18" class="node">
<title>Clotilde</title>
<ellipse fill="none" stroke="#000000" cx="49.3956" cy="-1300.3431" rx="38.9931" ry="38.9931"/>
<text text-anchor="middle" x="49.3956" y="-1296.6431" font-family="Times,serif" font-size="14.00" fill="#000000">Clotilde</text>
</g>
<!-- Clotilde&#45;&gt;Dance (10) -->
<g id="edge13" class="edge">
<title>Clotilde&#45;&gt;Dance (10)</title>
<path fill="none" stroke="#ffa500" stroke-width="2" d="M88.3371,-1295.9842C109.2257,-1293.646 135.4261,-1290.7132 158.8807,-1288.0877"/>
<polygon fill="#ffa500" stroke="#ffa500" stroke-width="2" points="159.5382,-1291.5361 169.0867,-1286.9453 158.7594,-1284.5795 159.5382,-1291.5361"/>
<text text-anchor="middle" x="120.2912" y="-1297.1431" font-family="Times,serif" font-size="14.00" fill="#000000">1</text>
</g>
<!-- Basil -->
<g id="node19" class="node">
<title>Basil</title>
<ellipse fill="none" stroke="#000000" cx="49.3956" cy="-1400.3431" rx="28.6953" ry="28.6953"/>
<text text-anchor="middle" x="49.3956" y="-1396.6431" font-family="Times,serif" font-size="14.00" fill="#000000">Basil</text>
</g>
<!-- Kayak (1) -->
<g id="node20" class="node">
<title>Kayak (1)</title>
<ellipse fill="none" stroke="#000000" cx="219.1344" cy="-1400.3431" rx="46.2923" ry="46.2923"/>
<text text-anchor="middle" x="219.1344" y="-1396.6431" font-family="Times,serif" font-size="14.00" fill="#000000">Kayak (1)</text>
</g>
<!-- Basil&#45;&gt;Kayak (1) -->
<g id="edge14" class="edge">
<title>Basil&#45;&gt;Kayak (1)</title>
<path fill="none" stroke="#ffa500" stroke-width="2" d="M78.1895,-1400.3431C101.271,-1400.3431 134.3686,-1400.3431 162.691,-1400.3431"/>
<polygon fill="#ffa500" stroke="#ffa500" stroke-width="2" points="162.8822,-1403.8432 172.8822,-1400.3431 162.8821,-1396.8432 162.8822,-1403.8432"/>
<text text-anchor="middle" x="120.2912" y="-1404.1431" font-family="Times,serif" font-size="14.00" fill="#000000">1</text>
</g>
<!-- Floriane -->
<g id="node21" class="node">
<title>Floriane</title>
<ellipse fill="none" stroke="#000000" cx="49.3956" cy="-1527.3431" rx="40.0939" ry="40.0939"/>
<text text-anchor="middle" x="49.3956" y="-1523.6431" font-family="Times,serif" font-size="14.00" fill="#000000">Floriane</text>
</g>
<!-- Skateboard (1) -->
<g id="node22" class="node">
<title>Skateboard (1)</title>
<ellipse fill="none" stroke="#000000" cx="219.1344" cy="-1527.3431" rx="63.0888" ry="63.0888"/>
<text text-anchor="middle" x="219.1344" y="-1523.6431" font-family="Times,serif" font-size="14.00" fill="#000000">Skateboard (1)</text>
</g>
<!-- Floriane&#45;&gt;Skateboard (1) -->
<g id="edge15" class="edge">
<title>Floriane&#45;&gt;Skateboard (1)</title>
<path fill="none" stroke="#ffa500" stroke-width="2" d="M90.0523,-1527.3431C106.7626,-1527.3431 126.6457,-1527.3431 145.7394,-1527.3431"/>
<polygon fill="#ffa500" stroke="#ffa500" stroke-width="2" points="145.9347,-1530.8432 155.9346,-1527.3431 145.9346,-1523.8432 145.9347,-1530.8432"/>
<text text-anchor="middle" x="120.2912" y="-1531.1431" font-family="Times,serif" font-size="14.00" fill="#000000">1</text>
</g>
<!-- Alexis -->
<g id="node23" class="node">
<title>Alexis</title>
<ellipse fill="none" stroke="#000000" cx="49.3956" cy="-1670.3431" rx="33.5952" ry="33.5952"/>
<text text-anchor="middle" x="49.3956" y="-1666.6431" font-family="Times,serif" font-size="14.00" fill="#000000">Alexis</text>
</g>
<!-- Athletisme (1) -->
<g id="node24" class="node">
<title>Athletisme (1)</title>
<ellipse fill="none" stroke="#000000" cx="219.1344" cy="-1670.3431" rx="62.2891" ry="62.2891"/>
<text text-anchor="middle" x="219.1344" y="-1666.6431" font-family="Times,serif" font-size="14.00" fill="#000000">Athletisme (1)</text>
</g>
<!-- Alexis&#45;&gt;Athletisme (1) -->
<g id="edge16" class="edge">
<title>Alexis&#45;&gt;Athletisme (1)</title>
<path fill="none" stroke="#ffa500" stroke-width="2" d="M83.3368,-1670.3431C101.377,-1670.3431 124.2889,-1670.3431 146.1312,-1670.3431"/>
<polygon fill="#ffa500" stroke="#ffa500" stroke-width="2" points="146.4047,-1673.8432 156.4046,-1670.3431 146.4046,-1666.8432 146.4047,-1673.8432"/>
<text text-anchor="middle" x="120.2912" y="-1674.1431" font-family="Times,serif" font-size="14.00" fill="#000000">1</text>
</g>
<!-- Angele -->
<g id="node25" class="node">
<title>Angele</title>
<ellipse fill="none" stroke="#000000" cx="49.3956" cy="-1849.3431" rx="36.2938" ry="36.2938"/>
<text text-anchor="middle" x="49.3956" y="-1845.6431" font-family="Times,serif" font-size="14.00" fill="#000000">Angele</text>
</g>
<!-- Natation (2) -->
<g id="node26" class="node">
<title>Natation (2)</title>
<ellipse fill="none" stroke="#000000" cx="219.1344" cy="-1827.3431" rx="53.8905" ry="53.8905"/>
<text text-anchor="middle" x="219.1344" y="-1823.6431" font-family="Times,serif" font-size="14.00" fill="#000000">Natation (2)</text>
</g>
<!-- Angele&#45;&gt;Natation (2) -->
<g id="edge17" class="edge">
<title>Angele&#45;&gt;Natation (2)</title>
<path fill="none" stroke="#ffa500" stroke-width="2" d="M85.8088,-1844.6236C106.0043,-1842.006 131.7049,-1838.675 155.1411,-1835.6374"/>
<polygon fill="#ffa500" stroke="#ffa500" stroke-width="2" points="155.9044,-1839.0678 165.3715,-1834.3114 155.0046,-1832.1259 155.9044,-1839.0678"/>
<text text-anchor="middle" x="120.2912" y="-1843.1431" font-family="Times,serif" font-size="14.00" fill="#000000">1</text>
</g>
<!-- Florian -->
<g id="node27" class="node">
<title>Florian</title>
<ellipse fill="none" stroke="#000000" cx="49.3956" cy="-1758.3431" rx="36.2938" ry="36.2938"/>
<text text-anchor="middle" x="49.3956" y="-1754.6431" font-family="Times,serif" font-size="14.00" fill="#000000">Florian</text>
</g>
<!-- Florian&#45;&gt;Natation (2) -->
<g id="edge18" class="edge">
<title>Florian&#45;&gt;Natation (2)</title>
<path fill="none" stroke="#ffa500" stroke-width="2" d="M83.3368,-1772.1405C105.1267,-1780.9982 134.0239,-1792.7451 159.559,-1803.1253"/>
<polygon fill="#ffa500" stroke="#ffa500" stroke-width="2" points="158.5773,-1806.5043 169.1592,-1807.0279 161.2134,-1800.0197 158.5773,-1806.5043"/>
<text text-anchor="middle" x="120.2912" y="-1790.1431" font-family="Times,serif" font-size="14.00" fill="#000000">1</text>
</g>
<!-- Anasthasia -->
<g id="node28" class="node">
<title>Anasthasia</title>
<ellipse fill="none" stroke="#000000" cx="49.3956" cy="-424.3431" rx="49.2915" ry="49.2915"/>
<text text-anchor="middle" x="49.3956" y="-420.6431" font-family="Times,serif" font-size="14.00" fill="#000000">Anasthasia</text>
</g>
<!-- Anasthasia&#45;&gt;Basketball (10) -->
<g id="edge19" class="edge">
<title>Anasthasia&#45;&gt;Basketball (10)</title>
<path fill="none" stroke="#ffa500" stroke-width="2" d="M92.6671,-449.0713C111.148,-459.6326 133.1253,-472.1918 153.5332,-483.8543"/>
<polygon fill="#ffa500" stroke="#ffa500" stroke-width="2" points="152.0548,-487.0406 162.4737,-488.9635 155.528,-480.963 152.0548,-487.0406"/>
<text text-anchor="middle" x="120.2912" y="-468.1431" font-family="Times,serif" font-size="14.00" fill="#000000">1</text>
</g>
<!-- Cricket (1) -->
<g id="node29" class="node">
<title>Cricket (1)</title>
<ellipse fill="none" stroke="#000000" cx="219.1344" cy="-347.3431" rx="49.2915" ry="49.2915"/>
<text text-anchor="middle" x="219.1344" y="-343.6431" font-family="Times,serif" font-size="14.00" fill="#000000">Cricket (1)</text>
</g>
<!-- Anasthasia&#45;&gt;Cricket (1) -->
<g id="edge20" class="edge">
<title>Anasthasia&#45;&gt;Cricket (1)</title>
<path fill="none" stroke="#ffa500" stroke-width="2" d="M92.9098,-400.2058C100.7828,-396.0955 108.9748,-391.9831 116.7912,-388.3431 131.7352,-381.384 148.2075,-374.4669 163.4885,-368.3511"/>
<polygon fill="#ffa500" stroke="#ffa500" stroke-width="2" points="164.8161,-371.5899 172.8247,-364.6535 162.2386,-365.0817 164.8161,-371.5899"/>
<text text-anchor="middle" x="120.2912" y="-392.1431" font-family="Times,serif" font-size="14.00" fill="#000000">1</text>
</g>
<!-- Caroline -->
<g id="node30" class="node">
<title>Caroline</title>
<ellipse fill="none" stroke="#000000" cx="49.3956" cy="-316.3431" rx="40.8928" ry="40.8928"/>
<text text-anchor="middle" x="49.3956" y="-312.6431" font-family="Times,serif" font-size="14.00" fill="#000000">Caroline</text>
</g>
<!-- Caroline&#45;&gt;Cricket (1) -->
<g id="edge21" class="edge">
<title>Caroline&#45;&gt;Cricket (1)</title>
<path fill="none" stroke="#ffa500" stroke-width="2" d="M90.0523,-323.7684C111.0692,-327.6068 137.1049,-332.3618 160.2768,-336.5938"/>
<polygon fill="#ffa500" stroke="#ffa500" stroke-width="2" points="159.884,-340.0799 170.3502,-338.4335 161.1417,-333.1938 159.884,-340.0799"/>
<text text-anchor="middle" x="120.2912" y="-333.1431" font-family="Times,serif" font-size="14.00" fill="#000000">1</text>
</g>
<!-- Charlie -->
<g id="node31" class="node">
<title>Charlie</title>
<ellipse fill="none" stroke="#000000" cx="49.3956" cy="-912.3431" rx="36.2938" ry="36.2938"/>
<text text-anchor="middle" x="49.3956" y="-908.6431" font-family="Times,serif" font-size="14.00" fill="#000000">Charlie</text>
</g>
<!-- Charlie&#45;&gt;Badminton (20) -->
<g id="edge22" class="edge">
<title>Charlie&#45;&gt;Badminton (20)</title>
<path fill="none" stroke="#ffa500" stroke-width="2" d="M80.9244,-930.5465C100.7342,-941.9839 127.0644,-957.1858 151.4259,-971.2511"/>
<polygon fill="#ffa500" stroke="#ffa500" stroke-width="2" points="149.8861,-974.4036 160.2964,-976.3726 153.3862,-968.3414 149.8861,-974.4036"/>
<text text-anchor="middle" x="120.2912" y="-957.1431" font-family="Times,serif" font-size="14.00" fill="#000000">1</text>
</g>
</g>
</svg>
