<?xml version="1.0" encoding="UTF-8" standalone="no"?>
<!DOCTYPE svg PUBLIC "-//W3C//DTD SVG 1.1//EN"
 "http://www.w3.org/Graphics/SVG/1.1/DTD/svg11.dtd">
<!-- Generated by graphviz version 2.40.1 (20161225.0304)
 -->
<!-- Title: finite_state_machine Pages: 1 -->
<svg width="426pt" height="2406pt"
 viewBox="0.00 0.00 426.38 2406.10" xmlns="http://www.w3.org/2000/svg" xmlns:xlink="http://www.w3.org/1999/xlink">
<g id="graph0" class="graph" transform="scale(1 1) rotate(0) translate(4 2402.0951)">
<title>finite_state_machine</title>
<polygon fill="#ffffff" stroke="transparent" points="-4,4 -4,-2402.0951 422.3829,-2402.0951 422.3829,4 -4,4"/>
<!-- 11 -->
<g id="node1" class="node">
<title>11</title>
<ellipse fill="none" stroke="#000000" cx="261.6897" cy="-2009.0951" rx="19.4965" ry="19.4965"/>
<text text-anchor="middle" x="261.6897" y="-2005.3951" font-family="Times,serif" font-size="14.00" fill="#000000">11</text>
</g>
<!-- 9999 -->
<g id="node2" class="node">
<title>9999</title>
<ellipse fill="none" stroke="#000000" cx="389.7855" cy="-1126.0951" rx="28.6953" ry="28.6953"/>
<text text-anchor="middle" x="389.7855" y="-1122.3951" font-family="Times,serif" font-size="14.00" fill="#000000">9999</text>
</g>
<!-- 11&#45;&gt;9999 -->
<g id="edge1" class="edge">
<title>11&#45;&gt;9999</title>
<path fill="none" stroke="#000000" d="M271.1082,-1991.8117C288.8496,-1958.2977 326.8998,-1881.6475 343.188,-1812.0951 372.3137,-1687.7249 385.3077,-1291.8714 388.7867,-1165.3662"/>
<polygon fill="#000000" stroke="#000000" points="392.2951,-1165.0957 389.0668,-1155.0047 385.2977,-1164.9064 392.2951,-1165.0957"/>
<text text-anchor="middle" x="321.188" y="-1934.8951" font-family="Times,serif" font-size="14.00" fill="#000000">1/1 (1)</text>
</g>
<!-- 35 -->
<g id="node3" class="node">
<title>35</title>
<ellipse fill="none" stroke="#000000" cx="149.6932" cy="-2057.0951" rx="19.4965" ry="19.4965"/>
<text text-anchor="middle" x="149.6932" y="-2053.3951" font-family="Times,serif" font-size="14.00" fill="#000000">35</text>
</g>
<!-- 35&#45;&gt;11 -->
<g id="edge2" class="edge">
<title>35&#45;&gt;11</title>
<path fill="none" stroke="#000000" d="M152.4092,-2076.4055C157.4678,-2109.2521 169.4531,-2173.7501 187.1915,-2187.0951 200.3324,-2196.9813 211.7308,-2197.826 224.1915,-2187.0951 244.6239,-2169.4989 235.8709,-2093.3088 242.1915,-2067.0951 244.587,-2057.1599 247.9356,-2046.5011 251.1827,-2037.0656"/>
<polygon fill="#000000" stroke="#000000" points="254.5671,-2037.994 254.6164,-2027.3992 247.9709,-2035.6508 254.5671,-2037.994"/>
<text text-anchor="middle" x="205.6915" y="-2197.8951" font-family="Times,serif" font-size="14.00" fill="#000000">1/1 (1)</text>
</g>
<!-- 33 -->
<g id="node4" class="node">
<title>33</title>
<ellipse fill="none" stroke="#000000" cx="261.6897" cy="-2342.0951" rx="19.4965" ry="19.4965"/>
<text text-anchor="middle" x="261.6897" y="-2338.3951" font-family="Times,serif" font-size="14.00" fill="#000000">33</text>
</g>
<!-- 35&#45;&gt;33 -->
<g id="edge3" class="edge">
<title>35&#45;&gt;33</title>
<path fill="none" stroke="#000000" d="M152.1372,-2076.7489C160.0723,-2140.3907 184.7454,-2336.8642 187.1915,-2339.0951 199.1583,-2350.0092 217.2244,-2350.9711 232.5687,-2349.102"/>
<polygon fill="#000000" stroke="#000000" points="233.3494,-2352.5207 242.6484,-2347.4433 232.2127,-2345.6136 233.3494,-2352.5207"/>
<text text-anchor="middle" x="205.6915" y="-2352.8951" font-family="Times,serif" font-size="14.00" fill="#000000">0/1 (3)</text>
</g>
<!-- 1 -->
<g id="node5" class="node">
<title>1</title>
<ellipse fill="none" stroke="#000000" cx="261.6897" cy="-1050.0951" rx="18" ry="18"/>
<text text-anchor="middle" x="261.6897" y="-1046.3951" font-family="Times,serif" font-size="14.00" fill="#000000">1</text>
</g>
<!-- 35&#45;&gt;1 -->
<g id="edge4" class="edge">
<title>35&#45;&gt;1</title>
<path fill="none" stroke="#000000" d="M152.3934,-2037.7793C156.5593,-2013.2778 166.3607,-1970.5547 187.1915,-1940.0951 199.1423,-1922.6201 214.872,-1929.1041 224.1915,-1910.0951 244.0546,-1869.5801 233.0499,-1142.2815 242.1915,-1098.0951 243.7096,-1090.7568 246.3048,-1083.1112 249.115,-1076.1354"/>
<polygon fill="#000000" stroke="#000000" points="252.5221,-1077.0755 253.286,-1066.5082 246.099,-1074.2926 252.5221,-1077.0755"/>
<text text-anchor="middle" x="205.6915" y="-1943.8951" font-family="Times,serif" font-size="14.00" fill="#000000">0/1 (2)</text>
</g>
<!-- 5 -->
<g id="node6" class="node">
<title>5</title>
<ellipse fill="none" stroke="#000000" cx="261.6897" cy="-1240.0951" rx="18" ry="18"/>
<text text-anchor="middle" x="261.6897" y="-1236.3951" font-family="Times,serif" font-size="14.00" fill="#000000">5</text>
</g>
<!-- 35&#45;&gt;5 -->
<g id="edge5" class="edge">
<title>35&#45;&gt;5</title>
<path fill="none" stroke="#000000" d="M169.2977,-2054.0413C186.9408,-2050.1539 211.9206,-2041.5698 224.1915,-2023.0951 242.673,-1995.2697 239.9106,-1455.421 242.1915,-1422.0951 245.9276,-1367.505 253.4589,-1304.0133 257.9898,-1268.2913"/>
<polygon fill="#000000" stroke="#000000" points="261.4914,-1268.5013 259.2921,-1258.1372 254.5483,-1267.6107 261.4914,-1268.5013"/>
<text text-anchor="middle" x="205.6915" y="-2051.8951" font-family="Times,serif" font-size="14.00" fill="#000000">0/1 (1)</text>
</g>
<!-- 33&#45;&gt;9999 -->
<g id="edge96" class="edge">
<title>33&#45;&gt;9999</title>
<path fill="none" stroke="#000000" d="M268.5261,-2323.7585C284.8682,-2278.9772 326.1043,-2160.1575 343.188,-2057.0951 372.3276,-1881.3023 385.8153,-1319.0377 389.0166,-1165.2795"/>
<polygon fill="#000000" stroke="#000000" points="392.5231,-1164.9957 389.2294,-1154.9258 385.5246,-1164.8518 392.5231,-1164.9957"/>
<text text-anchor="middle" x="321.188" y="-2230.8951" font-family="Times,serif" font-size="14.00" fill="#000000">0/1 (1)</text>
</g>
<!-- 1&#45;&gt;9999 -->
<g id="edge88" class="edge">
<title>1&#45;&gt;9999</title>
<path fill="none" stroke="#000000" d="M277.3968,-1059.4142C296.9984,-1071.0439 331.0423,-1091.2424 356.5389,-1106.3697"/>
<polygon fill="#000000" stroke="#000000" points="354.777,-1109.394 365.1631,-1111.4865 358.3488,-1103.3738 354.777,-1109.394"/>
<text text-anchor="middle" x="321.188" y="-1100.8951" font-family="Times,serif" font-size="14.00" fill="#000000">2/20 (1)</text>
</g>
<!-- 5&#45;&gt;9999 -->
<g id="edge42" class="edge">
<title>5&#45;&gt;9999</title>
<path fill="none" stroke="#000000" d="M275.3982,-1227.8951C295.6057,-1209.9112 333.8737,-1175.8543 360.5572,-1152.1071"/>
<polygon fill="#000000" stroke="#000000" points="362.9487,-1154.664 368.092,-1145.4014 358.295,-1149.4349 362.9487,-1154.664"/>
<text text-anchor="middle" x="321.188" y="-1209.8951" font-family="Times,serif" font-size="14.00" fill="#000000">2/10 (1)</text>
</g>
<!-- 9998 -->
<g id="node7" class="node">
<title>9998</title>
<ellipse fill="none" stroke="#000000" cx="28.5975" cy="-798.0951" rx="28.6953" ry="28.6953"/>
<text text-anchor="middle" x="28.5975" y="-794.3951" font-family="Times,serif" font-size="14.00" fill="#000000">9998</text>
</g>
<!-- 9998&#45;&gt;35 -->
<g id="edge6" class="edge">
<title>9998&#45;&gt;35</title>
<path fill="none" stroke="#000000" d="M29.3655,-826.8937C33.1154,-963.6466 50.3337,-1548.3285 75.1949,-1729.0951 90.6245,-1841.2838 125.4289,-1971.7254 141.3994,-2028.3843"/>
<polygon fill="#000000" stroke="#000000" points="138.0551,-2029.4203 144.1533,-2038.0841 144.789,-2027.5084 138.0551,-2029.4203"/>
<text text-anchor="middle" x="93.6949" y="-1911.8951" font-family="Times,serif" font-size="14.00" fill="#000000">1/1 (1)</text>
</g>
<!-- 34 -->
<g id="node8" class="node">
<title>34</title>
<ellipse fill="none" stroke="#000000" cx="149.6932" cy="-2247.0951" rx="19.4965" ry="19.4965"/>
<text text-anchor="middle" x="149.6932" y="-2243.3951" font-family="Times,serif" font-size="14.00" fill="#000000">34</text>
</g>
<!-- 9998&#45;&gt;34 -->
<g id="edge7" class="edge">
<title>9998&#45;&gt;34</title>
<path fill="none" stroke="#000000" d="M29.0509,-826.6918C31.5905,-979.9111 45.0313,-1705.0055 75.1949,-1927.0951 90.0154,-2036.2157 124.8509,-2162.7422 141.0849,-2218.3636"/>
<polygon fill="#000000" stroke="#000000" points="137.8017,-2219.6049 143.9816,-2228.2106 144.5172,-2217.6293 137.8017,-2219.6049"/>
<text text-anchor="middle" x="93.6949" y="-2113.8951" font-family="Times,serif" font-size="14.00" fill="#000000">1/1 (1)</text>
</g>
<!-- 32 -->
<g id="node9" class="node">
<title>32</title>
<ellipse fill="none" stroke="#000000" cx="149.6932" cy="-1772.0951" rx="19.4965" ry="19.4965"/>
<text text-anchor="middle" x="149.6932" y="-1768.3951" font-family="Times,serif" font-size="14.00" fill="#000000">32</text>
</g>
<!-- 9998&#45;&gt;32 -->
<g id="edge8" class="edge">
<title>9998&#45;&gt;32</title>
<path fill="none" stroke="#000000" d="M28.848,-826.9336C30.1637,-953.9452 37.7238,-1464.019 75.1949,-1619.0951 89.3551,-1677.6976 101.0423,-1690.323 130.1949,-1743.0951 131.0218,-1744.592 131.9031,-1746.1108 132.8166,-1747.6286"/>
<polygon fill="#000000" stroke="#000000" points="129.9221,-1749.5993 138.2489,-1756.1503 135.8248,-1745.8365 129.9221,-1749.5993"/>
<text text-anchor="middle" x="93.6949" y="-1713.8951" font-family="Times,serif" font-size="14.00" fill="#000000">1/1 (1)</text>
</g>
<!-- 30 -->
<g id="node10" class="node">
<title>30</title>
<ellipse fill="none" stroke="#000000" cx="149.6932" cy="-43.0951" rx="19.4965" ry="19.4965"/>
<text text-anchor="middle" x="149.6932" y="-39.3951" font-family="Times,serif" font-size="14.00" fill="#000000">30</text>
</g>
<!-- 9998&#45;&gt;30 -->
<g id="edge9" class="edge">
<title>9998&#45;&gt;30</title>
<path fill="none" stroke="#000000" d="M29.7089,-769.3269C33.8216,-667.732 49.2926,-326.2094 75.1949,-220.0951 88.795,-164.3794 117.7552,-103.6214 135.2924,-69.7541"/>
<polygon fill="#000000" stroke="#000000" points="138.5792,-71.0228 140.1261,-60.5415 132.3806,-67.7705 138.5792,-71.0228"/>
<text text-anchor="middle" x="93.6949" y="-223.8951" font-family="Times,serif" font-size="14.00" fill="#000000">1/1 (1)</text>
</g>
<!-- 29 -->
<g id="node11" class="node">
<title>29</title>
<ellipse fill="none" stroke="#000000" cx="149.6932" cy="-537.0951" rx="19.4965" ry="19.4965"/>
<text text-anchor="middle" x="149.6932" y="-533.3951" font-family="Times,serif" font-size="14.00" fill="#000000">29</text>
</g>
<!-- 9998&#45;&gt;29 -->
<g id="edge10" class="edge">
<title>9998&#45;&gt;29</title>
<path fill="none" stroke="#000000" d="M30.0916,-769.2798C33.3065,-729.336 43.4202,-656.081 75.1949,-603.0951 87.4169,-582.7144 108.0083,-565.1832 124.4491,-553.3221"/>
<polygon fill="#000000" stroke="#000000" points="126.857,-555.9113 133.0763,-547.3338 122.8655,-550.1608 126.857,-555.9113"/>
<text text-anchor="middle" x="93.6949" y="-606.8951" font-family="Times,serif" font-size="14.00" fill="#000000">1/1 (1)</text>
</g>
<!-- 28 -->
<g id="node12" class="node">
<title>28</title>
<ellipse fill="none" stroke="#000000" cx="149.6932" cy="-385.0951" rx="19.4965" ry="19.4965"/>
<text text-anchor="middle" x="149.6932" y="-381.3951" font-family="Times,serif" font-size="14.00" fill="#000000">28</text>
</g>
<!-- 9998&#45;&gt;28 -->
<g id="edge11" class="edge">
<title>9998&#45;&gt;28</title>
<path fill="none" stroke="#000000" d="M31.415,-769.4217C36.6281,-721.8813 49.6529,-624.143 75.1949,-545.0951 86.9923,-508.5845 95.9939,-501.8762 112.1949,-467.0951 120.6792,-448.8807 130.0826,-428.3166 137.3505,-412.3382"/>
<polygon fill="#000000" stroke="#000000" points="140.6232,-413.5963 141.5725,-403.0441 134.2499,-410.7011 140.6232,-413.5963"/>
<text text-anchor="middle" x="93.6949" y="-548.8951" font-family="Times,serif" font-size="14.00" fill="#000000">1/1 (1)</text>
</g>
<!-- 27 -->
<g id="node13" class="node">
<title>27</title>
<ellipse fill="none" stroke="#000000" cx="149.6932" cy="-594.0951" rx="19.4965" ry="19.4965"/>
<text text-anchor="middle" x="149.6932" y="-590.3951" font-family="Times,serif" font-size="14.00" fill="#000000">27</text>
</g>
<!-- 9998&#45;&gt;27 -->
<g id="edge12" class="edge">
<title>9998&#45;&gt;27</title>
<path fill="none" stroke="#000000" d="M34.0751,-769.9328C40.5769,-741.3048 53.3842,-696.5289 75.1949,-663.0951 88.5646,-642.6005 109.3376,-624.0454 125.5551,-611.3517"/>
<polygon fill="#000000" stroke="#000000" points="127.7144,-614.1068 133.5573,-605.2688 123.4782,-608.5341 127.7144,-614.1068"/>
<text text-anchor="middle" x="93.6949" y="-666.8951" font-family="Times,serif" font-size="14.00" fill="#000000">1/1 (1)</text>
</g>
<!-- 26 -->
<g id="node14" class="node">
<title>26</title>
<ellipse fill="none" stroke="#000000" cx="149.6932" cy="-888.0951" rx="19.4965" ry="19.4965"/>
<text text-anchor="middle" x="149.6932" y="-884.3951" font-family="Times,serif" font-size="14.00" fill="#000000">26</text>
</g>
<!-- 9998&#45;&gt;26 -->
<g id="edge13" class="edge">
<title>9998&#45;&gt;26</title>
<path fill="none" stroke="#000000" d="M49.8752,-817.9335C57.6434,-824.8736 66.6277,-832.5594 75.1949,-839.0951 90.9934,-851.1473 109.6784,-863.4324 124.3834,-872.6868"/>
<polygon fill="#000000" stroke="#000000" points="122.6244,-875.7145 132.9636,-878.0281 126.3239,-869.7719 122.6244,-875.7145"/>
<text text-anchor="middle" x="93.6949" y="-867.8951" font-family="Times,serif" font-size="14.00" fill="#000000">1/1 (1)</text>
</g>
<!-- 24 -->
<g id="node15" class="node">
<title>24</title>
<ellipse fill="none" stroke="#000000" cx="149.6932" cy="-1715.0951" rx="19.4965" ry="19.4965"/>
<text text-anchor="middle" x="149.6932" y="-1711.3951" font-family="Times,serif" font-size="14.00" fill="#000000">24</text>
</g>
<!-- 9998&#45;&gt;24 -->
<g id="edge14" class="edge">
<title>9998&#45;&gt;24</title>
<path fill="none" stroke="#000000" d="M29.7875,-826.7054C34.5117,-937.2253 52.7799,-1336.3096 75.1949,-1461.0951 90.2641,-1544.986 122.6024,-1640.6442 139.2769,-1686.9841"/>
<polygon fill="#000000" stroke="#000000" points="136.0747,-1688.4201 142.7772,-1696.6255 142.6545,-1686.0313 136.0747,-1688.4201"/>
<text text-anchor="middle" x="93.6949" y="-1603.8951" font-family="Times,serif" font-size="14.00" fill="#000000">1/1 (1)</text>
</g>
<!-- 21 -->
<g id="node16" class="node">
<title>21</title>
<ellipse fill="none" stroke="#000000" cx="149.6932" cy="-651.0951" rx="19.4965" ry="19.4965"/>
<text text-anchor="middle" x="149.6932" y="-647.3951" font-family="Times,serif" font-size="14.00" fill="#000000">21</text>
</g>
<!-- 9998&#45;&gt;21 -->
<g id="edge15" class="edge">
<title>9998&#45;&gt;21</title>
<path fill="none" stroke="#000000" d="M41.5765,-772.3082C50.1054,-756.5034 62.0845,-736.2711 75.1949,-720.0951 90.3674,-701.3749 110.5761,-682.9744 126.1175,-669.8892"/>
<polygon fill="#000000" stroke="#000000" points="128.7334,-672.2678 134.2099,-663.1981 124.2728,-666.873 128.7334,-672.2678"/>
<text text-anchor="middle" x="93.6949" y="-723.8951" font-family="Times,serif" font-size="14.00" fill="#000000">1/1 (1)</text>
</g>
<!-- 19 -->
<g id="node17" class="node">
<title>19</title>
<ellipse fill="none" stroke="#000000" cx="149.6932" cy="-1591.0951" rx="19.4965" ry="19.4965"/>
<text text-anchor="middle" x="149.6932" y="-1587.3951" font-family="Times,serif" font-size="14.00" fill="#000000">19</text>
</g>
<!-- 9998&#45;&gt;19 -->
<g id="edge16" class="edge">
<title>9998&#45;&gt;19</title>
<path fill="none" stroke="#000000" d="M30.2272,-826.892C34.6473,-900.2168 48.3715,-1099.7957 75.1949,-1264.0951 93.3887,-1375.5362 126.7694,-1505.789 141.8869,-1562.4003"/>
<polygon fill="#000000" stroke="#000000" points="138.5158,-1563.3425 144.4894,-1572.0928 145.2764,-1561.5272 138.5158,-1563.3425"/>
<text text-anchor="middle" x="93.6949" y="-1445.8951" font-family="Times,serif" font-size="14.00" fill="#000000">1/1 (1)</text>
</g>
<!-- 18 -->
<g id="node18" class="node">
<title>18</title>
<ellipse fill="none" stroke="#000000" cx="149.6932" cy="-717.0951" rx="19.4965" ry="19.4965"/>
<text text-anchor="middle" x="149.6932" y="-713.3951" font-family="Times,serif" font-size="14.00" fill="#000000">18</text>
</g>
<!-- 9998&#45;&gt;18 -->
<g id="edge17" class="edge">
<title>9998&#45;&gt;18</title>
<path fill="none" stroke="#000000" d="M50.963,-779.9851C58.5214,-774.0903 67.0983,-767.6412 75.1949,-762.0951 90.8406,-751.3777 109.0516,-740.3529 123.552,-731.8981"/>
<polygon fill="#000000" stroke="#000000" points="125.571,-734.7739 132.4807,-726.7422 122.0705,-728.7119 125.571,-734.7739"/>
<text text-anchor="middle" x="93.6949" y="-765.8951" font-family="Times,serif" font-size="14.00" fill="#000000">1/1 (1)</text>
</g>
<!-- 17 -->
<g id="node19" class="node">
<title>17</title>
<ellipse fill="none" stroke="#000000" cx="149.6932" cy="-774.0951" rx="19.4965" ry="19.4965"/>
<text text-anchor="middle" x="149.6932" y="-770.3951" font-family="Times,serif" font-size="14.00" fill="#000000">17</text>
</g>
<!-- 9998&#45;&gt;17 -->
<g id="edge18" class="edge">
<title>9998&#45;&gt;17</title>
<path fill="none" stroke="#000000" d="M56.6836,-792.5287C75.7841,-788.7431 101.0035,-783.7449 120.3624,-779.9082"/>
<polygon fill="#000000" stroke="#000000" points="121.3096,-783.2886 130.4383,-777.9112 119.9486,-776.4221 121.3096,-783.2886"/>
<text text-anchor="middle" x="93.6949" y="-791.8951" font-family="Times,serif" font-size="14.00" fill="#000000">1/1 (1)</text>
</g>
<!-- 16 -->
<g id="node20" class="node">
<title>16</title>
<ellipse fill="none" stroke="#000000" cx="149.6932" cy="-185.0951" rx="19.4965" ry="19.4965"/>
<text text-anchor="middle" x="149.6932" y="-181.3951" font-family="Times,serif" font-size="14.00" fill="#000000">16</text>
</g>
<!-- 9998&#45;&gt;16 -->
<g id="edge19" class="edge">
<title>9998&#45;&gt;16</title>
<path fill="none" stroke="#000000" d="M29.8782,-769.4348C34.1436,-679.1971 49.0942,-401.8514 75.1949,-316.0951 87.5293,-275.5692 114.0615,-233.9044 131.8986,-208.7521"/>
<polygon fill="#000000" stroke="#000000" points="134.7885,-210.7285 137.8076,-200.5729 129.1143,-206.6292 134.7885,-210.7285"/>
<text text-anchor="middle" x="93.6949" y="-319.8951" font-family="Times,serif" font-size="14.00" fill="#000000">1/1 (1)</text>
</g>
<!-- 15 -->
<g id="node21" class="node">
<title>15</title>
<ellipse fill="none" stroke="#000000" cx="149.6932" cy="-242.0951" rx="19.4965" ry="19.4965"/>
<text text-anchor="middle" x="149.6932" y="-238.3951" font-family="Times,serif" font-size="14.00" fill="#000000">15</text>
</g>
<!-- 9998&#45;&gt;15 -->
<g id="edge20" class="edge">
<title>9998&#45;&gt;15</title>
<path fill="none" stroke="#000000" d="M30.3448,-769.1257C34.4485,-708.6987 46.5997,-565.1063 75.1949,-448.0951 91.2316,-382.4733 120.8801,-308.7399 137.5305,-269.7441"/>
<polygon fill="#000000" stroke="#000000" points="140.9205,-270.7214 141.6639,-260.1527 134.492,-267.9511 140.9205,-270.7214"/>
<text text-anchor="middle" x="93.6949" y="-451.8951" font-family="Times,serif" font-size="14.00" fill="#000000">1/1 (1)</text>
</g>
<!-- 12 -->
<g id="node22" class="node">
<title>12</title>
<ellipse fill="none" stroke="#000000" cx="149.6932" cy="-831.0951" rx="19.4965" ry="19.4965"/>
<text text-anchor="middle" x="149.6932" y="-827.3951" font-family="Times,serif" font-size="14.00" fill="#000000">12</text>
</g>
<!-- 9998&#45;&gt;12 -->
<g id="edge21" class="edge">
<title>9998&#45;&gt;12</title>
<path fill="none" stroke="#000000" d="M56.3793,-805.6659C75.6751,-810.9243 101.3243,-817.914 120.848,-823.2344"/>
<polygon fill="#000000" stroke="#000000" points="120.1401,-826.6691 130.7085,-825.9215 121.9806,-819.9154 120.1401,-826.6691"/>
<text text-anchor="middle" x="93.6949" y="-823.8951" font-family="Times,serif" font-size="14.00" fill="#000000">1/1 (1)</text>
</g>
<!-- 8 -->
<g id="node23" class="node">
<title>8</title>
<ellipse fill="none" stroke="#000000" cx="149.6932" cy="-1459.0951" rx="18" ry="18"/>
<text text-anchor="middle" x="149.6932" y="-1455.3951" font-family="Times,serif" font-size="14.00" fill="#000000">8</text>
</g>
<!-- 9998&#45;&gt;8 -->
<g id="edge22" class="edge">
<title>9998&#45;&gt;8</title>
<path fill="none" stroke="#000000" d="M33.8008,-826.4974C53.6931,-935.0791 124.8012,-1323.2222 144.5646,-1431.1006"/>
<polygon fill="#000000" stroke="#000000" points="141.1702,-1431.9955 146.415,-1441.201 148.0556,-1430.734 141.1702,-1431.9955"/>
<text text-anchor="middle" x="93.6949" y="-1248.8951" font-family="Times,serif" font-size="14.00" fill="#000000">1/1 (1)</text>
</g>
<!-- 7 -->
<g id="node24" class="node">
<title>7</title>
<ellipse fill="none" stroke="#000000" cx="149.6932" cy="-1031.0951" rx="18" ry="18"/>
<text text-anchor="middle" x="149.6932" y="-1027.3951" font-family="Times,serif" font-size="14.00" fill="#000000">7</text>
</g>
<!-- 9998&#45;&gt;7 -->
<g id="edge23" class="edge">
<title>9998&#45;&gt;7</title>
<path fill="none" stroke="#000000" d="M41.7873,-823.4737C65.0879,-868.3062 113.2651,-961.0038 136.5397,-1005.7864"/>
<polygon fill="#000000" stroke="#000000" points="133.5239,-1007.5734 141.2411,-1014.8325 139.7351,-1004.3452 133.5239,-1007.5734"/>
<text text-anchor="middle" x="93.6949" y="-958.8951" font-family="Times,serif" font-size="14.00" fill="#000000">1/1 (1)</text>
</g>
<!-- 34&#45;&gt;33 -->
<g id="edge26" class="edge">
<title>34&#45;&gt;33</title>
<path fill="none" stroke="#000000" d="M152.4092,-2266.4055C157.4678,-2299.2521 169.4531,-2363.7501 187.1915,-2377.0951 200.3324,-2386.9813 208.8927,-2383.1255 224.1915,-2377.0951 230.8712,-2374.4621 237.0628,-2370.016 242.4113,-2365.16"/>
<polygon fill="#000000" stroke="#000000" points="245.0416,-2367.4783 249.6027,-2357.9156 240.0737,-2362.5468 245.0416,-2367.4783"/>
<text text-anchor="middle" x="205.6915" y="-2386.8951" font-family="Times,serif" font-size="14.00" fill="#000000">0/1 (3)</text>
</g>
<!-- 3 -->
<g id="node25" class="node">
<title>3</title>
<ellipse fill="none" stroke="#000000" cx="261.6897" cy="-1639.0951" rx="18" ry="18"/>
<text text-anchor="middle" x="261.6897" y="-1635.3951" font-family="Times,serif" font-size="14.00" fill="#000000">3</text>
</g>
<!-- 34&#45;&gt;3 -->
<g id="edge25" class="edge">
<title>34&#45;&gt;3</title>
<path fill="none" stroke="#000000" d="M151.3824,-2227.486C154.4914,-2202.2812 163.1887,-2158.4034 187.1915,-2130.0951 199.1467,-2115.9954 214.2017,-2126.6493 224.1915,-2111.0951 247.9935,-2074.0348 235.6843,-1758.6572 242.1915,-1715.0951 244.653,-1698.6168 249.2133,-1680.5356 253.3051,-1666.1447"/>
<polygon fill="#000000" stroke="#000000" points="256.709,-1666.9747 256.1649,-1656.3939 249.9919,-1665.0046 256.709,-1666.9747"/>
<text text-anchor="middle" x="205.6915" y="-2133.8951" font-family="Times,serif" font-size="14.00" fill="#000000">1/1 (1)</text>
</g>
<!-- 9 -->
<g id="node26" class="node">
<title>9</title>
<ellipse fill="none" stroke="#000000" cx="261.6897" cy="-1867.0951" rx="18" ry="18"/>
<text text-anchor="middle" x="261.6897" y="-1863.3951" font-family="Times,serif" font-size="14.00" fill="#000000">9</text>
</g>
<!-- 34&#45;&gt;9 -->
<g id="edge27" class="edge">
<title>34&#45;&gt;9</title>
<path fill="none" stroke="#000000" d="M169.0985,-2243.9055C186.6008,-2239.9222 211.4854,-2231.2732 224.1915,-2213.0951 253.8163,-2170.7118 235.8258,-2032.4123 242.1915,-1981.0951 245.8617,-1951.5076 251.8339,-1917.8907 256.203,-1894.8725"/>
<polygon fill="#000000" stroke="#000000" points="259.6901,-1895.2731 258.1427,-1884.7919 252.8162,-1893.9504 259.6901,-1895.2731"/>
<text text-anchor="middle" x="205.6915" y="-2240.8951" font-family="Times,serif" font-size="14.00" fill="#000000">0/1 (2)</text>
</g>
<!-- 25 -->
<g id="node27" class="node">
<title>25</title>
<ellipse fill="none" stroke="#000000" cx="261.6897" cy="-2095.0951" rx="19.4965" ry="19.4965"/>
<text text-anchor="middle" x="261.6897" y="-2091.3951" font-family="Times,serif" font-size="14.00" fill="#000000">25</text>
</g>
<!-- 34&#45;&gt;25 -->
<g id="edge28" class="edge">
<title>34&#45;&gt;25</title>
<path fill="none" stroke="#000000" d="M166.297,-2257.7416C182.7032,-2266.7723 207.675,-2276.3314 224.1915,-2263.0951 245.4118,-2246.089 255.4121,-2168.3555 259.4205,-2124.8335"/>
<polygon fill="#000000" stroke="#000000" points="262.9118,-2125.085 260.2928,-2114.819 255.9382,-2124.4775 262.9118,-2125.085"/>
<text text-anchor="middle" x="205.6915" y="-2272.8951" font-family="Times,serif" font-size="14.00" fill="#000000">0/1 (1)</text>
</g>
<!-- 32&#45;&gt;11 -->
<g id="edge32" class="edge">
<title>32&#45;&gt;11</title>
<path fill="none" stroke="#000000" d="M151.2901,-1791.7425C157.5605,-1868.3405 180.4798,-2143.0178 187.1915,-2149.0951 199.3813,-2160.1326 211.3774,-2159.4014 224.1915,-2149.0951 253.2663,-2125.7102 232.2321,-2103.0535 242.1915,-2067.0951 244.9194,-2057.246 248.3506,-2046.6086 251.5712,-2037.1662"/>
<polygon fill="#000000" stroke="#000000" points="254.9598,-2038.0779 254.9402,-2027.4831 248.3485,-2035.7777 254.9598,-2038.0779"/>
<text text-anchor="middle" x="205.6915" y="-2160.8951" font-family="Times,serif" font-size="14.00" fill="#000000">0/1 (2)</text>
</g>
<!-- 32&#45;&gt;33 -->
<g id="edge31" class="edge">
<title>32&#45;&gt;33</title>
<path fill="none" stroke="#000000" d="M151.2278,-1791.7596C154.5761,-1834.7836 162.7527,-1940.5074 169.1915,-2029.0951 173.3738,-2086.6377 159.2035,-2237.644 187.1915,-2288.0951 192.9112,-2298.4054 216.8065,-2314.781 236.0138,-2326.7984"/>
<polygon fill="#000000" stroke="#000000" points="234.3444,-2329.8807 244.6959,-2332.1387 238.0119,-2323.9183 234.3444,-2329.8807"/>
<text text-anchor="middle" x="205.6915" y="-2321.8951" font-family="Times,serif" font-size="14.00" fill="#000000">0/1 (3)</text>
</g>
<!-- 6 -->
<g id="node28" class="node">
<title>6</title>
<ellipse fill="none" stroke="#000000" cx="261.6897" cy="-271.0951" rx="18" ry="18"/>
<text text-anchor="middle" x="261.6897" y="-267.3951" font-family="Times,serif" font-size="14.00" fill="#000000">6</text>
</g>
<!-- 32&#45;&gt;6 -->
<g id="edge30" class="edge">
<title>32&#45;&gt;6</title>
<path fill="none" stroke="#000000" d="M162.1707,-1756.9871C165.008,-1752.7405 167.6404,-1747.9495 169.1915,-1743.0951 192.0934,-1671.416 147.1254,-1129.7904 187.1915,-1066.0951 197.0342,-1050.4474 214.3633,-1062.7519 224.1915,-1047.0951 245.7007,-1012.8298 233.9445,-358.7024 242.1915,-319.0951 243.719,-311.7588 246.3174,-304.1138 249.1278,-297.138"/>
<polygon fill="#000000" stroke="#000000" points="252.5349,-298.0779 253.2972,-287.5105 246.1114,-295.2961 252.5349,-298.0779"/>
<text text-anchor="middle" x="205.6915" y="-1069.8951" font-family="Times,serif" font-size="14.00" fill="#000000">1/1 (1)</text>
</g>
<!-- 23 -->
<g id="node29" class="node">
<title>23</title>
<ellipse fill="none" stroke="#000000" cx="261.6897" cy="-1126.0951" rx="19.4965" ry="19.4965"/>
<text text-anchor="middle" x="261.6897" y="-1122.3951" font-family="Times,serif" font-size="14.00" fill="#000000">23</text>
</g>
<!-- 32&#45;&gt;23 -->
<g id="edge33" class="edge">
<title>32&#45;&gt;23</title>
<path fill="none" stroke="#000000" d="M166.7135,-1761.8142C187.6654,-1748.9875 220.8983,-1728.0169 224.1915,-1722.0951 251.6953,-1672.6373 234.9725,-1269.2237 242.1915,-1213.0951 244.726,-1193.3888 249.6208,-1171.5719 253.8719,-1154.7151"/>
<polygon fill="#000000" stroke="#000000" points="257.2887,-1155.4818 256.4087,-1144.9235 250.5125,-1153.7261 257.2887,-1155.4818"/>
<text text-anchor="middle" x="205.6915" y="-1751.8951" font-family="Times,serif" font-size="14.00" fill="#000000">0/1 (1)</text>
</g>
<!-- 30&#45;&gt;6 -->
<g id="edge36" class="edge">
<title>30&#45;&gt;6</title>
<path fill="none" stroke="#000000" d="M169.1902,-44.2824C186.2579,-46.4047 210.4197,-52.2288 224.1915,-68.0951 229.9178,-74.6923 248.6775,-189.0228 257.2925,-243.1339"/>
<polygon fill="#000000" stroke="#000000" points="253.8504,-243.775 258.8734,-253.1034 260.764,-242.6786 253.8504,-243.775"/>
<text text-anchor="middle" x="205.6915" y="-71.8951" font-family="Times,serif" font-size="14.00" fill="#000000">0/1 (1)</text>
</g>
<!-- 31 -->
<g id="node30" class="node">
<title>31</title>
<ellipse fill="none" stroke="#000000" cx="261.6897" cy="-111.0951" rx="19.4965" ry="19.4965"/>
<text text-anchor="middle" x="261.6897" y="-107.3951" font-family="Times,serif" font-size="14.00" fill="#000000">31</text>
</g>
<!-- 30&#45;&gt;31 -->
<g id="edge35" class="edge">
<title>30&#45;&gt;31</title>
<path fill="none" stroke="#000000" d="M160.9525,-27.1617C167.5739,-19.2153 176.6996,-10.3999 187.1915,-6.0951 202.4051,.1471 210.7496,3.3778 224.1915,-6.0951 236.8887,-15.0432 248.4039,-54.0418 255.2285,-81.8943"/>
<polygon fill="#000000" stroke="#000000" points="251.8966,-83.0133 257.6072,-91.9374 258.7082,-81.4 251.8966,-83.0133"/>
<text text-anchor="middle" x="205.6915" y="-9.8951" font-family="Times,serif" font-size="14.00" fill="#000000">1/1 (1)</text>
</g>
<!-- 29&#45;&gt;6 -->
<g id="edge37" class="edge">
<title>29&#45;&gt;6</title>
<path fill="none" stroke="#000000" d="M152.9064,-517.7905C156.9213,-493.423 163.9065,-450.2034 169.1915,-413.0951 173.6453,-381.823 163.6242,-293.1275 187.1915,-272.0951 199.6589,-260.9687 218.5149,-260.8172 234.1368,-263.3974"/>
<polygon fill="#000000" stroke="#000000" points="233.8132,-266.9051 244.317,-265.5188 235.2413,-260.0523 233.8132,-266.9051"/>
<text text-anchor="middle" x="205.6915" y="-275.8951" font-family="Times,serif" font-size="14.00" fill="#000000">1/1 (1)</text>
</g>
<!-- 4 -->
<g id="node31" class="node">
<title>4</title>
<ellipse fill="none" stroke="#000000" cx="261.6897" cy="-841.0951" rx="18" ry="18"/>
<text text-anchor="middle" x="261.6897" y="-837.3951" font-family="Times,serif" font-size="14.00" fill="#000000">4</text>
</g>
<!-- 29&#45;&gt;4 -->
<g id="edge38" class="edge">
<title>29&#45;&gt;4</title>
<path fill="none" stroke="#000000" d="M167.6956,-545.1838C185.1896,-554.0532 210.9902,-570.0185 224.1915,-592.0951 252.9977,-640.2679 233.8319,-661.5925 242.1915,-717.0951 247.1614,-750.0924 253.1619,-787.9797 257.1819,-813.1015"/>
<polygon fill="#000000" stroke="#000000" points="253.7356,-813.7153 258.7748,-823.0349 260.6473,-812.6069 253.7356,-813.7153"/>
<text text-anchor="middle" x="205.6915" y="-595.8951" font-family="Times,serif" font-size="14.00" fill="#000000">0/1 (1)</text>
</g>
<!-- 28&#45;&gt;6 -->
<g id="edge41" class="edge">
<title>28&#45;&gt;6</title>
<path fill="none" stroke="#000000" d="M153.0563,-365.5696C156.9837,-342.6979 163.6488,-303.6609 169.1915,-270.0951 173.2985,-245.2236 168.0044,-174.4447 187.1915,-158.0951 199.708,-147.4295 210.8575,-148.4709 224.1915,-158.0951 238.2095,-168.213 249.9186,-213.3556 256.3509,-243.4306"/>
<polygon fill="#000000" stroke="#000000" points="252.9508,-244.2726 258.4011,-253.358 259.8061,-242.8568 252.9508,-244.2726"/>
<text text-anchor="middle" x="205.6915" y="-161.8951" font-family="Times,serif" font-size="14.00" fill="#000000">0/1 (1)</text>
</g>
<!-- 10 -->
<g id="node32" class="node">
<title>10</title>
<ellipse fill="none" stroke="#000000" cx="261.6897" cy="-623.0951" rx="19.4965" ry="19.4965"/>
<text text-anchor="middle" x="261.6897" y="-619.3951" font-family="Times,serif" font-size="14.00" fill="#000000">10</text>
</g>
<!-- 28&#45;&gt;10 -->
<g id="edge40" class="edge">
<title>28&#45;&gt;10</title>
<path fill="none" stroke="#000000" d="M169.323,-383.0876C186.2389,-382.5242 210.0962,-384.7166 224.1915,-399.0951 227.5928,-402.5648 247.9972,-533.5563 257.1968,-593.5861"/>
<polygon fill="#000000" stroke="#000000" points="253.7549,-594.2326 258.7266,-603.5885 260.6745,-593.1743 253.7549,-594.2326"/>
<text text-anchor="middle" x="205.6915" y="-402.8951" font-family="Times,serif" font-size="14.00" fill="#000000">1/1 (1)</text>
</g>
<!-- 27&#45;&gt;1 -->
<g id="edge56" class="edge">
<title>27&#45;&gt;1</title>
<path fill="none" stroke="#000000" d="M162.0381,-609.2469C164.8764,-613.4931 167.5425,-618.273 169.1915,-623.0951 188.5051,-679.5738 156.4595,-839.9247 187.1915,-891.0951 197.1606,-907.6942 212.5997,-898.5856 224.1915,-914.0951 236.9479,-931.1629 249.6868,-987.8578 256.5389,-1022.4268"/>
<polygon fill="#000000" stroke="#000000" points="253.1287,-1023.2264 258.4699,-1032.3763 260.0005,-1021.8927 253.1287,-1023.2264"/>
<text text-anchor="middle" x="205.6915" y="-917.8951" font-family="Times,serif" font-size="14.00" fill="#000000">1/1 (1)</text>
</g>
<!-- 27&#45;&gt;6 -->
<g id="edge58" class="edge">
<title>27&#45;&gt;6</title>
<path fill="none" stroke="#000000" d="M162.0086,-578.9331C164.847,-574.6869 167.5207,-569.9096 169.1915,-565.0951 186.4353,-515.4053 162.3128,-375.4359 187.1915,-329.0951 198.0508,-308.8677 219.3277,-293.4122 236.3722,-283.5618"/>
<polygon fill="#000000" stroke="#000000" points="238.2193,-286.541 245.313,-278.6714 234.86,-280.3997 238.2193,-286.541"/>
<text text-anchor="middle" x="205.6915" y="-332.8951" font-family="Times,serif" font-size="14.00" fill="#000000">0/1 (1)</text>
</g>
<!-- 14 -->
<g id="node34" class="node">
<title>14</title>
<ellipse fill="none" stroke="#000000" cx="261.6897" cy="-689.0951" rx="19.4965" ry="19.4965"/>
<text text-anchor="middle" x="261.6897" y="-685.3951" font-family="Times,serif" font-size="14.00" fill="#000000">14</text>
</g>
<!-- 27&#45;&gt;14 -->
<g id="edge57" class="edge">
<title>27&#45;&gt;14</title>
<path fill="none" stroke="#000000" d="M161.5907,-578.3793C164.3654,-574.2146 167.1129,-569.6149 169.1915,-565.0951 181.716,-537.8608 163.3338,-518.2439 187.1915,-500.0951 200.2794,-490.1389 211.8945,-489.1769 224.1915,-500.0951 249.4615,-522.5317 232.3224,-618.7752 242.1915,-651.0951 243.3994,-655.0509 245.0067,-659.0871 246.7819,-662.9806"/>
<polygon fill="#000000" stroke="#000000" points="243.8075,-664.8583 251.409,-672.2386 250.0691,-661.7289 243.8075,-664.8583"/>
<text text-anchor="middle" x="205.6915" y="-503.8951" font-family="Times,serif" font-size="14.00" fill="#000000">0/1 (2)</text>
</g>
<!-- 26&#45;&gt;5 -->
<g id="edge59" class="edge">
<title>26&#45;&gt;5</title>
<path fill="none" stroke="#000000" d="M153.3767,-907.3229C157.6696,-930.2798 164.7418,-969.8709 169.1915,-1004.0951 174.8022,-1047.2494 162.8276,-1163.0371 187.1915,-1199.0951 197.5411,-1214.4122 207.9907,-1209.1921 224.1915,-1218.0951 228.5118,-1220.4692 233.0684,-1223.064 237.4595,-1225.6122"/>
<polygon fill="#000000" stroke="#000000" points="235.7161,-1228.6472 246.1118,-1230.6918 239.2601,-1222.6106 235.7161,-1228.6472"/>
<text text-anchor="middle" x="205.6915" y="-1221.8951" font-family="Times,serif" font-size="14.00" fill="#000000">1/1 (1)</text>
</g>
<!-- 26&#45;&gt;4 -->
<g id="edge60" class="edge">
<title>26&#45;&gt;4</title>
<path fill="none" stroke="#000000" d="M167.7768,-880.6233C182.8751,-874.3723 204.9564,-865.2006 224.1915,-857.0951 227.9011,-855.5318 231.8133,-853.8735 235.655,-852.2394"/>
<polygon fill="#000000" stroke="#000000" points="237.0778,-855.4377 244.9035,-848.2955 234.332,-848.9987 237.0778,-855.4377"/>
<text text-anchor="middle" x="205.6915" y="-875.8951" font-family="Times,serif" font-size="14.00" fill="#000000">0/1 (1)</text>
</g>
<!-- 24&#45;&gt;3 -->
<g id="edge63" class="edge">
<title>24&#45;&gt;3</title>
<path fill="none" stroke="#000000" d="M162.0403,-1730.623C164.8064,-1734.7913 167.4373,-1739.4397 169.1915,-1744.0951 180.174,-1773.2414 163.7958,-1862.5337 187.1915,-1883.0951 199.5436,-1893.9507 211.9598,-1894.0862 224.1915,-1883.0951 252.1196,-1857.9994 235.5087,-1752.0426 242.1915,-1715.0951 245.1569,-1698.7 249.7396,-1680.6224 253.7173,-1666.2128"/>
<polygon fill="#000000" stroke="#000000" points="257.1262,-1667.0199 256.475,-1656.4451 250.3896,-1665.1179 257.1262,-1667.0199"/>
<text text-anchor="middle" x="205.6915" y="-1894.8951" font-family="Times,serif" font-size="14.00" fill="#000000">0/1 (4)</text>
</g>
<!-- 24&#45;&gt;9 -->
<g id="edge62" class="edge">
<title>24&#45;&gt;9</title>
<path fill="none" stroke="#000000" d="M162.0252,-1730.2513C164.8635,-1734.4975 167.5329,-1739.2763 169.1915,-1744.0951 178.3631,-1770.7431 166.5687,-1977.8874 187.1915,-1997.0951 199.225,-2008.3029 211.0506,-2006.9813 224.1915,-1997.0951 240.4795,-1984.8412 251.9168,-1929.4572 257.5946,-1895.0519"/>
<polygon fill="#000000" stroke="#000000" points="261.0603,-1895.5439 259.1708,-1885.1189 254.1468,-1894.4468 261.0603,-1895.5439"/>
<text text-anchor="middle" x="205.6915" y="-2007.8951" font-family="Times,serif" font-size="14.00" fill="#000000">1/1 (1)</text>
</g>
<!-- 24&#45;&gt;25 -->
<g id="edge65" class="edge">
<title>24&#45;&gt;25</title>
<path fill="none" stroke="#000000" d="M162.0787,-1730.2332C164.9166,-1734.4795 167.5724,-1739.2629 169.1915,-1744.0951 180.8222,-1778.8087 164.4813,-2044.3799 187.1915,-2073.0951 197.8282,-2086.5444 216.2765,-2092.0609 232.1529,-2094.2069"/>
<polygon fill="#000000" stroke="#000000" points="231.8135,-2097.6903 242.1066,-2095.18 232.4946,-2090.7236 231.8135,-2097.6903"/>
<text text-anchor="middle" x="205.6915" y="-2095.8951" font-family="Times,serif" font-size="14.00" fill="#000000">0/1 (2)</text>
</g>
<!-- 24&#45;&gt;4 -->
<g id="edge66" class="edge">
<title>24&#45;&gt;4</title>
<path fill="none" stroke="#000000" d="M154.3572,-1696.1006C158.8988,-1676.8272 165.6233,-1646.0712 169.1915,-1619.0951 173.3813,-1587.4194 169.6942,-1358.8298 187.1915,-1332.0951 197.3147,-1316.6274 214.0732,-1328.566 224.1915,-1313.0951 241.8622,-1286.0762 239.4713,-1055.2645 242.1915,-1023.0951 246.8019,-968.5718 254.0313,-905.0571 258.2709,-869.3128"/>
<polygon fill="#000000" stroke="#000000" points="261.7737,-869.4965 259.4844,-859.1519 254.8231,-868.6663 261.7737,-869.4965"/>
<text text-anchor="middle" x="205.6915" y="-1335.8951" font-family="Times,serif" font-size="14.00" fill="#000000">0/1 (1)</text>
</g>
<!-- 2 -->
<g id="node33" class="node">
<title>2</title>
<ellipse fill="none" stroke="#000000" cx="261.6897" cy="-1449.0951" rx="18" ry="18"/>
<text text-anchor="middle" x="261.6897" y="-1445.3951" font-family="Times,serif" font-size="14.00" fill="#000000">2</text>
</g>
<!-- 24&#45;&gt;2 -->
<g id="edge64" class="edge">
<title>24&#45;&gt;2</title>
<path fill="none" stroke="#000000" d="M168.7889,-1710.8643C186.0724,-1705.9927 210.809,-1696.2175 224.1915,-1678.0951 235.9667,-1662.1491 251.8002,-1535.3671 258.4919,-1477.598"/>
<polygon fill="#000000" stroke="#000000" points="262.0064,-1477.6703 259.6682,-1467.3367 255.052,-1476.8729 262.0064,-1477.6703"/>
<text text-anchor="middle" x="205.6915" y="-1706.8951" font-family="Times,serif" font-size="14.00" fill="#000000">0/1 (3)</text>
</g>
<!-- 21&#45;&gt;3 -->
<g id="edge69" class="edge">
<title>21&#45;&gt;3</title>
<path fill="none" stroke="#000000" d="M160.3596,-667.844C163.8659,-674.2404 167.3378,-681.7624 169.1915,-689.0951 180.7945,-734.9951 162.0928,-1500.9516 187.1915,-1541.0951 196.9915,-1556.7695 211.3256,-1546.8211 224.1915,-1560.0951 238.1918,-1574.5396 247.7449,-1595.1949 253.7039,-1611.7623"/>
<polygon fill="#000000" stroke="#000000" points="250.4577,-1613.0906 256.9573,-1621.4575 257.094,-1610.8636 250.4577,-1613.0906"/>
<text text-anchor="middle" x="205.6915" y="-1563.8951" font-family="Times,serif" font-size="14.00" fill="#000000">0/1 (4)</text>
</g>
<!-- 21&#45;&gt;23 -->
<g id="edge70" class="edge">
<title>21&#45;&gt;23</title>
<path fill="none" stroke="#000000" d="M160.263,-667.869C163.7589,-674.2681 167.2489,-681.7855 169.1915,-689.0951 180.5042,-731.6629 163.9239,-1047.697 187.1915,-1085.0951 190.0865,-1089.7482 214.6859,-1102.7968 234.8379,-1112.9364"/>
<polygon fill="#000000" stroke="#000000" points="233.4626,-1116.1615 243.9738,-1117.49 236.5853,-1109.8966 233.4626,-1116.1615"/>
<text text-anchor="middle" x="205.6915" y="-1110.8951" font-family="Times,serif" font-size="14.00" fill="#000000">0/1 (3)</text>
</g>
<!-- 21&#45;&gt;4 -->
<g id="edge73" class="edge">
<title>21&#45;&gt;4</title>
<path fill="none" stroke="#000000" d="M169.3099,-651.3015C186.2173,-652.5702 210.0693,-657.1529 224.1915,-672.0951 233.8427,-682.3067 249.4037,-767.7825 257.0901,-813.1124"/>
<polygon fill="#000000" stroke="#000000" points="253.6729,-813.8982 258.7798,-823.181 260.5764,-812.7396 253.6729,-813.8982"/>
<text text-anchor="middle" x="205.6915" y="-675.8951" font-family="Times,serif" font-size="14.00" fill="#000000">0/1 (1)</text>
</g>
<!-- 21&#45;&gt;10 -->
<g id="edge72" class="edge">
<title>21&#45;&gt;10</title>
<path fill="none" stroke="#000000" d="M160.9525,-635.1617C167.5739,-627.2153 176.6996,-618.3999 187.1915,-614.0951 201.7394,-608.126 219.1304,-609.7865 233.4493,-613.2089"/>
<polygon fill="#000000" stroke="#000000" points="232.6764,-616.6267 243.2482,-615.9285 234.5484,-609.8816 232.6764,-616.6267"/>
<text text-anchor="middle" x="205.6915" y="-617.8951" font-family="Times,serif" font-size="14.00" fill="#000000">0/1 (1)</text>
</g>
<!-- 22 -->
<g id="node35" class="node">
<title>22</title>
<ellipse fill="none" stroke="#000000" cx="261.6897" cy="-466.0951" rx="19.4965" ry="19.4965"/>
<text text-anchor="middle" x="261.6897" y="-462.3951" font-family="Times,serif" font-size="14.00" fill="#000000">22</text>
</g>
<!-- 21&#45;&gt;22 -->
<g id="edge68" class="edge">
<title>21&#45;&gt;22</title>
<path fill="none" stroke="#000000" d="M161.9612,-635.9165C164.8001,-631.6704 167.4857,-626.8973 169.1915,-622.0951 183.9793,-580.4619 154.5669,-453.8883 187.1915,-424.0951 199.3344,-413.006 209.1828,-417.3749 224.1915,-424.0951 232.3992,-427.7701 239.5506,-434.228 245.3448,-440.994"/>
<polygon fill="#000000" stroke="#000000" points="242.6084,-443.1768 251.5052,-448.9299 248.1379,-438.8844 242.6084,-443.1768"/>
<text text-anchor="middle" x="205.6915" y="-427.8951" font-family="Times,serif" font-size="14.00" fill="#000000">1/1 (1)</text>
</g>
<!-- 13 -->
<g id="node36" class="node">
<title>13</title>
<ellipse fill="none" stroke="#000000" cx="261.6897" cy="-347.0951" rx="19.4965" ry="19.4965"/>
<text text-anchor="middle" x="261.6897" y="-343.3951" font-family="Times,serif" font-size="14.00" fill="#000000">13</text>
</g>
<!-- 21&#45;&gt;13 -->
<g id="edge71" class="edge">
<title>21&#45;&gt;13</title>
<path fill="none" stroke="#000000" d="M162.0288,-635.9401C164.8671,-631.6939 167.5356,-626.9148 169.1915,-622.0951 187.7935,-567.9504 150.2295,-408.8157 187.1915,-365.0951 197.9403,-352.3808 215.979,-347.7951 231.6136,-346.4294"/>
<polygon fill="#000000" stroke="#000000" points="232.1122,-349.9097 241.9344,-345.938 231.7792,-342.9176 232.1122,-349.9097"/>
<text text-anchor="middle" x="205.6915" y="-368.8951" font-family="Times,serif" font-size="14.00" fill="#000000">0/1 (2)</text>
</g>
<!-- 19&#45;&gt;3 -->
<g id="edge76" class="edge">
<title>19&#45;&gt;3</title>
<path fill="none" stroke="#000000" d="M155.036,-1609.9861C160.4384,-1625.1684 170.4319,-1645.4903 187.1915,-1655.0951 202.3498,-1663.7822 221.6956,-1659.2475 236.8739,-1652.8212"/>
<polygon fill="#000000" stroke="#000000" points="238.6066,-1655.8739 246.1605,-1648.4449 235.6226,-1649.5417 238.6066,-1655.8739"/>
<text text-anchor="middle" x="205.6915" y="-1662.8951" font-family="Times,serif" font-size="14.00" fill="#000000">0/1 (4)</text>
</g>
<!-- 19&#45;&gt;9 -->
<g id="edge79" class="edge">
<title>19&#45;&gt;9</title>
<path fill="none" stroke="#000000" d="M154.0687,-1610.1314C158.3858,-1629.4374 164.9393,-1660.2182 169.1915,-1687.0951 174.7136,-1721.9992 164.4654,-1818.0337 187.1915,-1845.0951 193.3383,-1852.4145 215.5189,-1858.3733 234.0924,-1862.2342"/>
<polygon fill="#000000" stroke="#000000" points="233.4289,-1865.6707 243.9153,-1864.1587 234.7748,-1858.8013 233.4289,-1865.6707"/>
<text text-anchor="middle" x="205.6915" y="-1862.8951" font-family="Times,serif" font-size="14.00" fill="#000000">0/1 (1)</text>
</g>
<!-- 19&#45;&gt;4 -->
<g id="edge77" class="edge">
<title>19&#45;&gt;4</title>
<path fill="none" stroke="#000000" d="M154.0516,-1571.8589C158.6177,-1550.8903 165.6135,-1516.2908 169.1915,-1486.0951 173.6952,-1448.0865 166.3977,-1174.2285 187.1915,-1142.0951 197.2345,-1126.5752 213.5365,-1138.2014 224.1915,-1123.0951 231.4704,-1112.7752 251.0588,-938.8962 258.6374,-869.4307"/>
<polygon fill="#000000" stroke="#000000" points="262.1462,-869.539 259.7469,-859.2195 255.1871,-868.7829 262.1462,-869.539"/>
<text text-anchor="middle" x="205.6915" y="-1145.8951" font-family="Times,serif" font-size="14.00" fill="#000000">0/1 (3)</text>
</g>
<!-- 19&#45;&gt;2 -->
<g id="edge78" class="edge">
<title>19&#45;&gt;2</title>
<path fill="none" stroke="#000000" d="M158.3146,-1573.5387C165.2988,-1560.0281 175.8184,-1541.1783 187.1915,-1526.0951 196.0104,-1514.3993 222.1765,-1487.9493 241.0065,-1469.3266"/>
<polygon fill="#000000" stroke="#000000" points="243.8875,-1471.4017 248.5554,-1461.8906 238.9751,-1466.4148 243.8875,-1471.4017"/>
<text text-anchor="middle" x="205.6915" y="-1529.8951" font-family="Times,serif" font-size="14.00" fill="#000000">0/1 (2)</text>
</g>
<!-- 20 -->
<g id="node37" class="node">
<title>20</title>
<ellipse fill="none" stroke="#000000" cx="261.6897" cy="-1743.0951" rx="19.4965" ry="19.4965"/>
<text text-anchor="middle" x="261.6897" y="-1739.3951" font-family="Times,serif" font-size="14.00" fill="#000000">20</text>
</g>
<!-- 19&#45;&gt;20 -->
<g id="edge75" class="edge">
<title>19&#45;&gt;20</title>
<path fill="none" stroke="#000000" d="M153.5808,-1610.3234C162.8566,-1656.0978 185.6318,-1767.8298 187.1915,-1769.0951 202.0017,-1781.1104 222.7361,-1772.368 238.5711,-1761.8914"/>
<polygon fill="#000000" stroke="#000000" points="240.6949,-1764.6756 246.7956,-1756.0135 236.6247,-1758.9806 240.6949,-1764.6756"/>
<text text-anchor="middle" x="205.6915" y="-1777.8951" font-family="Times,serif" font-size="14.00" fill="#000000">1/1 (1)</text>
</g>
<!-- 18&#45;&gt;4 -->
<g id="edge81" class="edge">
<title>18&#45;&gt;4</title>
<path fill="none" stroke="#000000" d="M168.8243,-721.5847C185.4125,-726.3688 209.0693,-735.4595 224.1915,-751.0951 240.8497,-768.3189 250.551,-794.0136 255.8956,-813.5445"/>
<polygon fill="#000000" stroke="#000000" points="252.5386,-814.5472 258.3701,-823.3927 259.3276,-812.8412 252.5386,-814.5472"/>
<text text-anchor="middle" x="205.6915" y="-754.8951" font-family="Times,serif" font-size="14.00" fill="#000000">1/1 (1)</text>
</g>
<!-- 17&#45;&gt;4 -->
<g id="edge82" class="edge">
<title>17&#45;&gt;4</title>
<path fill="none" stroke="#000000" d="M169.2194,-771.0673C185.1761,-769.6151 207.709,-769.9897 224.1915,-780.0951 237.0283,-787.9652 246.1123,-802.0438 252.1211,-814.6939"/>
<polygon fill="#000000" stroke="#000000" points="248.9471,-816.1723 256.1278,-823.9626 255.3725,-813.3947 248.9471,-816.1723"/>
<text text-anchor="middle" x="205.6915" y="-783.8951" font-family="Times,serif" font-size="14.00" fill="#000000">1/1 (1)</text>
</g>
<!-- 16&#45;&gt;6 -->
<g id="edge86" class="edge">
<title>16&#45;&gt;6</title>
<path fill="none" stroke="#000000" d="M151.5406,-165.5028C154.7466,-143.8587 163.4793,-109.9705 187.1915,-94.0951 200.8561,-84.9465 211.4152,-83.742 224.1915,-94.0951 235.7342,-103.4486 250.6963,-195.6481 257.7195,-243.1338"/>
<polygon fill="#000000" stroke="#000000" points="254.2644,-243.6957 259.1719,-253.0854 261.191,-242.6848 254.2644,-243.6957"/>
<text text-anchor="middle" x="205.6915" y="-97.8951" font-family="Times,serif" font-size="14.00" fill="#000000">0/1 (1)</text>
</g>
<!-- 16&#45;&gt;13 -->
<g id="edge85" class="edge">
<title>16&#45;&gt;13</title>
<path fill="none" stroke="#000000" d="M169.4284,-185.8034C186.4135,-187.5098 210.3131,-192.7229 224.1915,-208.0951 251.5271,-238.3731 230.6029,-258.9836 242.1915,-298.0951 244.2885,-305.1727 246.9987,-312.6525 249.7278,-319.5791"/>
<polygon fill="#000000" stroke="#000000" points="246.6457,-321.2892 253.6705,-329.2203 253.1248,-318.6395 246.6457,-321.2892"/>
<text text-anchor="middle" x="205.6915" y="-211.8951" font-family="Times,serif" font-size="14.00" fill="#000000">1/1 (1)</text>
</g>
<!-- 15&#45;&gt;6 -->
<g id="edge83" class="edge">
<title>15&#45;&gt;6</title>
<path fill="none" stroke="#000000" d="M161.8402,-226.4881C164.6101,-222.3214 167.2929,-217.6934 169.1915,-213.0951 185.2582,-174.181 154.7165,-146.8872 187.1915,-120.0951 199.8762,-109.63 211.2378,-109.9648 224.1915,-120.0951 243.341,-135.0708 254.0999,-203.6369 258.8004,-243.0296"/>
<polygon fill="#000000" stroke="#000000" points="255.3341,-243.5251 259.9423,-253.0652 262.2892,-242.7336 255.3341,-243.5251"/>
<text text-anchor="middle" x="205.6915" y="-123.8951" font-family="Times,serif" font-size="14.00" fill="#000000">1/1 (1)</text>
</g>
<!-- 15&#45;&gt;13 -->
<g id="edge84" class="edge">
<title>15&#45;&gt;13</title>
<path fill="none" stroke="#000000" d="M167.5104,-233.7774C183.8905,-227.4927 208.0162,-221.8415 224.1915,-234.0951 247.7443,-251.9375 232.7162,-270.1075 242.1915,-298.0951 244.5586,-305.087 247.3687,-312.5351 250.108,-319.4584"/>
<polygon fill="#000000" stroke="#000000" points="247.0178,-321.1531 254.0108,-329.1123 253.5076,-318.5294 247.0178,-321.1531"/>
<text text-anchor="middle" x="205.6915" y="-237.8951" font-family="Times,serif" font-size="14.00" fill="#000000">1/1 (1)</text>
</g>
<!-- 12&#45;&gt;1 -->
<g id="edge89" class="edge">
<title>12&#45;&gt;1</title>
<path fill="none" stroke="#000000" d="M161.68,-846.7706C164.4529,-850.936 167.1773,-855.5462 169.1915,-860.0951 182.7208,-890.6499 166.4647,-906.8835 187.1915,-933.0951 198.6575,-947.5953 211.8511,-938.3312 224.1915,-952.0951 241.9576,-971.9105 251.6585,-1001.0255 256.7134,-1022.3726"/>
<polygon fill="#000000" stroke="#000000" points="253.2948,-1023.1235 258.8367,-1032.1533 260.1355,-1021.6384 253.2948,-1023.1235"/>
<text text-anchor="middle" x="205.6915" y="-955.8951" font-family="Times,serif" font-size="14.00" fill="#000000">1/1 (1)</text>
</g>
<!-- 12&#45;&gt;5 -->
<g id="edge93" class="edge">
<title>12&#45;&gt;5</title>
<path fill="none" stroke="#000000" d="M162.0621,-846.2387C164.9001,-850.485 167.5602,-855.267 169.1915,-860.0951 190.6405,-923.5778 150.5779,-1104.974 187.1915,-1161.0951 197.2922,-1176.5774 210.5815,-1167.5852 224.1915,-1180.0951 234.5775,-1189.6417 243.1916,-1202.6979 249.5332,-1214.1936"/>
<polygon fill="#000000" stroke="#000000" points="246.5904,-1216.1201 254.3148,-1223.3716 252.7984,-1212.8858 246.5904,-1216.1201"/>
<text text-anchor="middle" x="205.6915" y="-1183.8951" font-family="Times,serif" font-size="14.00" fill="#000000">0/1 (1)</text>
</g>
<!-- 12&#45;&gt;4 -->
<g id="edge92" class="edge">
<title>12&#45;&gt;4</title>
<path fill="none" stroke="#000000" d="M164.1764,-817.4095C170.6889,-812.17 178.7932,-806.804 187.1915,-804.0951 202.8419,-799.0469 208.9778,-797.8529 224.1915,-804.0951 231.9255,-807.2684 238.9172,-812.8927 244.7107,-818.8131"/>
<polygon fill="#000000" stroke="#000000" points="242.114,-821.1601 251.3739,-826.3085 247.3457,-816.5093 242.114,-821.1601"/>
<text text-anchor="middle" x="205.6915" y="-807.8951" font-family="Times,serif" font-size="14.00" fill="#000000">0/1 (2)</text>
</g>
<!-- 12&#45;&gt;2 -->
<g id="edge94" class="edge">
<title>12&#45;&gt;2</title>
<path fill="none" stroke="#000000" d="M162.1377,-846.2137C164.9752,-850.4602 167.616,-855.2485 169.1915,-860.0951 186.068,-912.0132 157.8919,-1305.0316 187.1915,-1351.0951 197.1128,-1366.693 211.3256,-1356.8211 224.1915,-1370.0951 238.1918,-1384.5396 247.7449,-1405.1949 253.7039,-1421.7623"/>
<polygon fill="#000000" stroke="#000000" points="250.4577,-1423.0906 256.9573,-1431.4575 257.094,-1420.8636 250.4577,-1423.0906"/>
<text text-anchor="middle" x="205.6915" y="-1373.8951" font-family="Times,serif" font-size="14.00" fill="#000000">0/1 (1)</text>
</g>
<!-- 12&#45;&gt;14 -->
<g id="edge90" class="edge">
<title>12&#45;&gt;14</title>
<path fill="none" stroke="#000000" d="M161.8402,-815.4881C164.6101,-811.3214 167.2929,-806.6934 169.1915,-802.0951 185.2582,-763.181 158.4988,-739.9037 187.1915,-709.0951 198.5373,-696.9126 216.4311,-691.8455 231.8381,-689.8562"/>
<polygon fill="#000000" stroke="#000000" points="232.3592,-693.3231 241.9962,-688.921 231.7174,-686.3526 232.3592,-693.3231"/>
<text text-anchor="middle" x="205.6915" y="-712.8951" font-family="Times,serif" font-size="14.00" fill="#000000">0/1 (2)</text>
</g>
<!-- 12&#45;&gt;13 -->
<g id="edge91" class="edge">
<title>12&#45;&gt;13</title>
<path fill="none" stroke="#000000" d="M162.034,-815.9418C164.8723,-811.6956 167.5394,-806.9161 169.1915,-802.0951 188.1816,-746.6773 157.4831,-589.5844 187.1915,-539.0951 197.1317,-522.2016 213.0031,-531.1891 224.1915,-515.0951 226.1887,-512.2221 245.3425,-423.593 255.4743,-376.253"/>
<polygon fill="#000000" stroke="#000000" points="258.9393,-376.7862 257.6069,-366.2754 252.0939,-375.3229 258.9393,-376.7862"/>
<text text-anchor="middle" x="205.6915" y="-542.8951" font-family="Times,serif" font-size="14.00" fill="#000000">0/1 (2)</text>
</g>
<!-- 8&#45;&gt;11 -->
<g id="edge51" class="edge">
<title>8&#45;&gt;11</title>
<path fill="none" stroke="#000000" d="M153.7617,-1476.646C158.3517,-1497.2296 165.6386,-1532.4384 169.1915,-1563.0951 174.2621,-1606.8477 163.3894,-1922.0348 187.1915,-1959.0951 197.1812,-1974.6493 208.7552,-1967.9241 224.1915,-1978.0951 229.2522,-1981.4296 234.4217,-1985.3301 239.2416,-1989.2174"/>
<polygon fill="#000000" stroke="#000000" points="237.022,-1991.9238 246.942,-1995.6447 241.5076,-1986.5497 237.022,-1991.9238"/>
<text text-anchor="middle" x="205.6915" y="-1981.8951" font-family="Times,serif" font-size="14.00" fill="#000000">0/1 (4)</text>
</g>
<!-- 8&#45;&gt;1 -->
<g id="edge50" class="edge">
<title>8&#45;&gt;1</title>
<path fill="none" stroke="#000000" d="M152.4217,-1441.2379C158.2498,-1404.5899 172.5778,-1322.2938 187.1915,-1298.0951 198.4307,-1279.484 214.1086,-1285.3571 224.1915,-1266.0951 259.0171,-1199.5648 223.8827,-1170.923 242.1915,-1098.0951 244.0185,-1090.8276 246.7214,-1083.2066 249.5367,-1076.2319"/>
<polygon fill="#000000" stroke="#000000" points="252.9446,-1077.1633 253.6527,-1066.5922 246.5069,-1074.4145 252.9446,-1077.1633"/>
<text text-anchor="middle" x="205.6915" y="-1301.8951" font-family="Times,serif" font-size="14.00" fill="#000000">1/1 (1)</text>
</g>
<!-- 8&#45;&gt;5 -->
<g id="edge53" class="edge">
<title>8&#45;&gt;5</title>
<path fill="none" stroke="#000000" d="M166.8991,-1452.676C187.6827,-1444.7748 220.3563,-1431.8232 224.1915,-1427.0951 243.6952,-1403.0501 254.7142,-1314.3461 259.2369,-1268.281"/>
<polygon fill="#000000" stroke="#000000" points="262.7445,-1268.3642 260.2004,-1258.0794 255.7755,-1267.706 262.7445,-1268.3642"/>
<text text-anchor="middle" x="205.6915" y="-1446.8951" font-family="Times,serif" font-size="14.00" fill="#000000">0/1 (2)</text>
</g>
<!-- 8&#45;&gt;3 -->
<g id="edge55" class="edge">
<title>8&#45;&gt;3</title>
<path fill="none" stroke="#000000" d="M152.8996,-1476.9999C160.0631,-1516.1823 177.4973,-1606.8614 187.1915,-1617.0951 199.0222,-1629.5841 217.5601,-1635.0893 233.1834,-1637.4696"/>
<polygon fill="#000000" stroke="#000000" points="233.0769,-1640.9809 243.4157,-1638.6657 233.8897,-1634.0282 233.0769,-1640.9809"/>
<text text-anchor="middle" x="205.6915" y="-1638.8951" font-family="Times,serif" font-size="14.00" fill="#000000">0/1 (1)</text>
</g>
<!-- 8&#45;&gt;9 -->
<g id="edge54" class="edge">
<title>8&#45;&gt;9</title>
<path fill="none" stroke="#000000" d="M153.6636,-1477.0375C158.0924,-1497.6915 165.1623,-1532.6827 169.1915,-1563.0951 175.9247,-1613.9184 164.4181,-1747.1634 187.1915,-1793.0951 196.9795,-1812.8365 208.5134,-1810.6118 224.1915,-1826.0951 230.465,-1832.2907 237.0392,-1839.289 242.8994,-1845.7269"/>
<polygon fill="#000000" stroke="#000000" points="240.5775,-1848.3795 249.8643,-1853.4792 245.7847,-1843.7013 240.5775,-1848.3795"/>
<text text-anchor="middle" x="205.6915" y="-1829.8951" font-family="Times,serif" font-size="14.00" fill="#000000">0/1 (1)</text>
</g>
<!-- 8&#45;&gt;10 -->
<g id="edge52" class="edge">
<title>8&#45;&gt;10</title>
<path fill="none" stroke="#000000" d="M150.5432,-1440.9268C155.3014,-1339.8688 178.7225,-851.0679 187.1915,-838.0951 197.2967,-822.6156 213.6787,-834.3006 224.1915,-819.0951 244.2881,-790.0276 231.9592,-694.9195 242.1915,-661.0951 243.3891,-657.1361 244.9906,-653.0982 246.763,-649.2038"/>
<polygon fill="#000000" stroke="#000000" points="250.0502,-650.4553 251.3885,-639.9453 243.7882,-647.3268 250.0502,-650.4553"/>
<text text-anchor="middle" x="205.6915" y="-841.8951" font-family="Times,serif" font-size="14.00" fill="#000000">0/1 (3)</text>
</g>
<!-- 8&#45;&gt;2 -->
<g id="edge49" class="edge">
<title>8&#45;&gt;2</title>
<path fill="none" stroke="#000000" d="M167.3226,-1463.2757C182.5255,-1466.2267 204.9953,-1469.0193 224.1915,-1465.0951 228.2113,-1464.2733 232.3334,-1463.0033 236.3053,-1461.5302"/>
<polygon fill="#000000" stroke="#000000" points="237.8507,-1464.6777 245.7253,-1457.5896 235.1493,-1458.2199 237.8507,-1464.6777"/>
<text text-anchor="middle" x="205.6915" y="-1469.8951" font-family="Times,serif" font-size="14.00" fill="#000000">1/1 (1)</text>
</g>
<!-- 7&#45;&gt;1 -->
<g id="edge45" class="edge">
<title>7&#45;&gt;1</title>
<path fill="none" stroke="#000000" d="M167.718,-1029.1877C182.9718,-1028.0812 205.3022,-1027.6627 224.1915,-1032.0951 228.4624,-1033.0972 232.818,-1034.6374 236.9775,-1036.4038"/>
<polygon fill="#000000" stroke="#000000" points="235.6614,-1039.6536 246.1952,-1040.7893 238.6688,-1033.3325 235.6614,-1039.6536"/>
<text text-anchor="middle" x="205.6915" y="-1035.8951" font-family="Times,serif" font-size="14.00" fill="#000000">1/1 (1)</text>
</g>
<!-- 7&#45;&gt;5 -->
<g id="edge43" class="edge">
<title>7&#45;&gt;5</title>
<path fill="none" stroke="#000000" d="M150.204,-1049.1207C151.9058,-1094.6855 158.9999,-1212.5931 187.1915,-1237.0951 199.7336,-1247.9957 218.4307,-1248.7182 233.9558,-1246.7293"/>
<polygon fill="#000000" stroke="#000000" points="234.8091,-1250.1347 244.0826,-1245.011 233.638,-1243.2333 234.8091,-1250.1347"/>
<text text-anchor="middle" x="205.6915" y="-1250.8951" font-family="Times,serif" font-size="14.00" fill="#000000">1/1 (2)</text>
</g>
<!-- 7&#45;&gt;3 -->
<g id="edge46" class="edge">
<title>7&#45;&gt;3</title>
<path fill="none" stroke="#000000" d="M150.4294,-1049.1164C154.2568,-1141.276 172.2765,-1556.4467 187.1915,-1579.0951 197.3586,-1594.5339 209.4997,-1586.8755 224.1915,-1598.0951 231.199,-1603.4465 237.983,-1610.2034 243.8097,-1616.6799"/>
<polygon fill="#000000" stroke="#000000" points="241.4503,-1619.3045 250.6229,-1624.6067 246.7588,-1614.7416 241.4503,-1619.3045"/>
<text text-anchor="middle" x="205.6915" y="-1601.8951" font-family="Times,serif" font-size="14.00" fill="#000000">0/1 (4)</text>
</g>
<!-- 7&#45;&gt;6 -->
<g id="edge47" class="edge">
<title>7&#45;&gt;6</title>
<path fill="none" stroke="#000000" d="M153.4419,-1013.2647C158.0093,-990.7411 165.5643,-950.7361 169.1915,-916.0951 174.31,-867.2105 166.8385,-518.835 187.1915,-474.0951 196.5647,-453.4908 213.7179,-459.1624 224.1915,-439.0951 249.1444,-391.2851 227.9433,-371.1089 242.1915,-319.0951 244.1713,-311.8677 246.9275,-304.2607 249.7452,-297.2867"/>
<polygon fill="#000000" stroke="#000000" points="253.154,-298.2128 253.834,-287.6398 246.7091,-295.481 253.154,-298.2128"/>
<text text-anchor="middle" x="205.6915" y="-477.8951" font-family="Times,serif" font-size="14.00" fill="#000000">0/1 (3)</text>
</g>
<!-- 7&#45;&gt;4 -->
<g id="edge48" class="edge">
<title>7&#45;&gt;4</title>
<path fill="none" stroke="#000000" d="M165.4898,-1022.3901C182.4569,-1012.2421 209.0193,-993.9126 224.1915,-971.0951 244.8592,-940.0128 254.317,-897.4284 258.5182,-869.5974"/>
<polygon fill="#000000" stroke="#000000" points="262.0316,-869.7393 259.9273,-859.3555 255.0969,-868.7851 262.0316,-869.7393"/>
<text text-anchor="middle" x="205.6915" y="-1010.8951" font-family="Times,serif" font-size="14.00" fill="#000000">0/1 (1)</text>
</g>
<!-- 7&#45;&gt;2 -->
<g id="edge44" class="edge">
<title>7&#45;&gt;2</title>
<path fill="none" stroke="#000000" d="M150.5811,-1049.127C154.0992,-1117.8347 167.8175,-1360.7993 187.1915,-1389.0951 197.6352,-1404.3482 209.4997,-1396.8755 224.1915,-1408.0951 231.199,-1413.4465 237.983,-1420.2034 243.8097,-1426.6799"/>
<polygon fill="#000000" stroke="#000000" points="241.4503,-1429.3045 250.6229,-1434.6067 246.7588,-1424.7416 241.4503,-1429.3045"/>
<text text-anchor="middle" x="205.6915" y="-1411.8951" font-family="Times,serif" font-size="14.00" fill="#000000">1/1 (1)</text>
</g>
<!-- 3&#45;&gt;9999 -->
<g id="edge24" class="edge">
<title>3&#45;&gt;9999</title>
<path fill="none" stroke="#000000" d="M267.6945,-1621.7843C282.1901,-1579.5376 319.6365,-1467.6195 343.188,-1372.0951 361.0736,-1299.5516 375.9485,-1213.5214 383.7924,-1164.82"/>
<polygon fill="#000000" stroke="#000000" points="387.284,-1165.1492 385.4039,-1154.7225 380.3715,-1164.0459 387.284,-1165.1492"/>
<text text-anchor="middle" x="321.188" y="-1527.8951" font-family="Times,serif" font-size="14.00" fill="#000000">1/3 (1)</text>
</g>
<!-- 9&#45;&gt;9999 -->
<g id="edge61" class="edge">
<title>9&#45;&gt;9999</title>
<path fill="none" stroke="#000000" d="M270.7593,-1851.4083C288.2488,-1820.2972 326.3903,-1748.0777 343.188,-1682.0951 368.1947,-1583.8669 383.4569,-1274.6607 388.1947,-1165.0744"/>
<polygon fill="#000000" stroke="#000000" points="391.7032,-1164.9462 388.6329,-1154.806 384.7096,-1164.6476 391.7032,-1164.9462"/>
<text text-anchor="middle" x="321.188" y="-1796.8951" font-family="Times,serif" font-size="14.00" fill="#000000">1/1 (1)</text>
</g>
<!-- 25&#45;&gt;9999 -->
<g id="edge97" class="edge">
<title>25&#45;&gt;9999</title>
<path fill="none" stroke="#000000" d="M273.8671,-2079.2406C292.7035,-2053.6909 328.286,-2001.097 343.188,-1950.0951 365.3115,-1874.3777 383.8537,-1319.1926 388.6054,-1165.4582"/>
<polygon fill="#000000" stroke="#000000" points="392.1149,-1165.1979 388.9235,-1155.0952 385.1182,-1164.983 392.1149,-1165.1979"/>
<text text-anchor="middle" x="321.188" y="-2041.8951" font-family="Times,serif" font-size="14.00" fill="#000000">0/1 (1)</text>
</g>
<!-- 6&#45;&gt;9999 -->
<g id="edge29" class="edge">
<title>6&#45;&gt;9999</title>
<path fill="none" stroke="#000000" d="M273.8352,-284.7136C292.6279,-306.7247 328.1515,-352.2959 343.188,-398.0951 364.7012,-463.6215 383.3405,-944.7069 388.4211,-1086.7291"/>
<polygon fill="#000000" stroke="#000000" points="384.9375,-1087.2559 388.7904,-1097.1253 391.9331,-1087.0073 384.9375,-1087.2559"/>
<text text-anchor="middle" x="321.188" y="-401.8951" font-family="Times,serif" font-size="14.00" fill="#000000">3/10 (1)</text>
</g>
<!-- 23&#45;&gt;9999 -->
<g id="edge98" class="edge">
<title>23&#45;&gt;9999</title>
<path fill="none" stroke="#000000" d="M281.424,-1126.0951C299.8033,-1126.0951 327.7318,-1126.0951 350.6319,-1126.0951"/>
<polygon fill="#000000" stroke="#000000" points="350.7474,-1129.5952 360.7473,-1126.0951 350.7473,-1122.5952 350.7474,-1129.5952"/>
<text text-anchor="middle" x="321.188" y="-1129.8951" font-family="Times,serif" font-size="14.00" fill="#000000">0/1 (1)</text>
</g>
<!-- 31&#45;&gt;9999 -->
<g id="edge34" class="edge">
<title>31&#45;&gt;9999</title>
<path fill="none" stroke="#000000" d="M271.4679,-128.2039C289.4626,-160.6769 327.4228,-234.0088 343.188,-301.0951 378.9672,-453.3473 387.6018,-944.7377 389.3758,-1087.1054"/>
<polygon fill="#000000" stroke="#000000" points="385.8762,-1087.17 389.4964,-1097.1272 392.8757,-1087.0857 385.8762,-1087.17"/>
<text text-anchor="middle" x="321.188" y="-304.8951" font-family="Times,serif" font-size="14.00" fill="#000000">1/1 (1)</text>
</g>
<!-- 4&#45;&gt;9999 -->
<g id="edge80" class="edge">
<title>4&#45;&gt;9999</title>
<path fill="none" stroke="#000000" d="M269.1304,-857.6497C289.4042,-902.7569 345.9615,-1028.5911 373.8389,-1090.6156"/>
<polygon fill="#000000" stroke="#000000" points="370.7649,-1092.314 378.0569,-1100.0002 377.1497,-1089.4442 370.7649,-1092.314"/>
<text text-anchor="middle" x="321.188" y="-1020.8951" font-family="Times,serif" font-size="14.00" fill="#000000">2/2 (1)</text>
</g>
<!-- 10&#45;&gt;9999 -->
<g id="edge39" class="edge">
<title>10&#45;&gt;9999</title>
<path fill="none" stroke="#000000" d="M273.7586,-638.738C292.1145,-663.4343 326.6571,-713.6452 343.188,-762.0951 363.517,-821.6766 380.2288,-1006.1937 386.793,-1087.2429"/>
<polygon fill="#000000" stroke="#000000" points="383.3283,-1087.8246 387.6152,-1097.5134 390.306,-1087.266 383.3283,-1087.8246"/>
<text text-anchor="middle" x="321.188" y="-765.8951" font-family="Times,serif" font-size="14.00" fill="#000000">1/1 (1)</text>
</g>
<!-- 2&#45;&gt;9999 -->
<g id="edge95" class="edge">
<title>2&#45;&gt;9999</title>
<path fill="none" stroke="#000000" d="M268.3964,-1432.184C288.3657,-1381.8301 347.7584,-1232.0686 375.372,-1162.4393"/>
<polygon fill="#000000" stroke="#000000" points="378.774,-1163.355 379.2071,-1152.769 372.2671,-1160.7744 378.774,-1163.355"/>
<text text-anchor="middle" x="321.188" y="-1356.8951" font-family="Times,serif" font-size="14.00" fill="#000000">1/3 (1)</text>
</g>
<!-- 14&#45;&gt;9999 -->
<g id="edge99" class="edge">
<title>14&#45;&gt;9999</title>
<path fill="none" stroke="#000000" d="M269.5,-707.0714C285.2393,-743.8451 321.1438,-830.5715 343.188,-906.0951 361.4679,-968.722 375.7377,-1043.3273 383.4439,-1087.5892"/>
<polygon fill="#000000" stroke="#000000" points="380.0258,-1088.3651 385.1694,-1097.6276 386.9247,-1087.1792 380.0258,-1088.3651"/>
<text text-anchor="middle" x="321.188" y="-909.8951" font-family="Times,serif" font-size="14.00" fill="#000000">0/1 (1)</text>
</g>
<!-- 22&#45;&gt;9999 -->
<g id="edge67" class="edge">
<title>22&#45;&gt;9999</title>
<path fill="none" stroke="#000000" d="M271.1982,-483.3673C288.7434,-516.1334 325.9844,-590.0468 343.188,-657.0951 364.0356,-738.3452 381.3789,-990.2821 387.4587,-1087.3846"/>
<polygon fill="#000000" stroke="#000000" points="383.9654,-1087.6025 388.078,-1097.3665 390.9519,-1087.1689 383.9654,-1087.6025"/>
<text text-anchor="middle" x="321.188" y="-660.8951" font-family="Times,serif" font-size="14.00" fill="#000000">1/1 (1)</text>
</g>
<!-- 13&#45;&gt;9999 -->
<g id="edge87" class="edge">
<title>13&#45;&gt;9999</title>
<path fill="none" stroke="#000000" d="M271.9247,-363.8144C289.9616,-394.2283 327.0257,-461.1925 343.188,-523.0951 371.2254,-630.48 384.7328,-971.7078 388.5883,-1087.3439"/>
<polygon fill="#000000" stroke="#000000" points="385.0954,-1087.6205 388.9213,-1097.5004 392.0916,-1087.391 385.0954,-1087.6205"/>
<text text-anchor="middle" x="321.188" y="-526.8951" font-family="Times,serif" font-size="14.00" fill="#000000">1/1 (1)</text>
</g>
<!-- 20&#45;&gt;9999 -->
<g id="edge74" class="edge">
<title>20&#45;&gt;9999</title>
<path fill="none" stroke="#000000" d="M270.6923,-1725.7258C287.8921,-1691.6918 325.3007,-1613.4071 343.188,-1543.0951 377.7667,-1407.1724 386.6902,-1239.8355 388.9894,-1165.2163"/>
<polygon fill="#000000" stroke="#000000" points="392.4972,-1164.9899 389.2828,-1154.8945 385.5,-1164.791 392.4972,-1164.9899"/>
<text text-anchor="middle" x="321.188" y="-1666.8951" font-family="Times,serif" font-size="14.00" fill="#000000">1/1 (1)</text>
</g>
</g>
</svg>
