<?xml version="1.0" encoding="UTF-8" standalone="no"?>
<!DOCTYPE svg PUBLIC "-//W3C//DTD SVG 1.1//EN"
 "http://www.w3.org/Graphics/SVG/1.1/DTD/svg11.dtd">
<!-- Generated by graphviz version 2.43.20190912.0211 (20190912.0211)
 -->
<!-- Title: %3 Pages: 1 -->
<svg width="283pt" height="2378pt"
 viewBox="0.00 0.00 282.78 2378.20" xmlns="http://www.w3.org/2000/svg" xmlns:xlink="http://www.w3.org/1999/xlink">
<g id="graph0" class="graph" transform="scale(1 1) rotate(0) translate(4 2374.2)">
<title>%3</title>
<polygon fill="white" stroke="transparent" points="-4,4 -4,-2374.2 278.78,-2374.2 278.78,4 -4,4"/>
<!-- U -->
<g id="node1" class="node">
<title>U</title>
<ellipse fill="none" stroke="black" cx="20.15" cy="-2336.2" rx="18.7" ry="18.7"/>
<text text-anchor="middle" x="20.15" y="-2332.5" font-family="Times,serif" font-size="14.00">U</text>
</g>
<!-- NoOneWantsIt (7) -->
<g id="node2" class="node">
<title>NoOneWantsIt (7)</title>
<ellipse fill="none" stroke="black" cx="180.54" cy="-398.2" rx="94.48" ry="94.48"/>
<text text-anchor="middle" x="180.54" y="-394.5" font-family="Times,serif" font-size="14.00">NoOneWantsIt (7)</text>
</g>
<!-- U&#45;&gt;NoOneWantsIt (7) -->
<g id="edge1" class="edge">
<title>U&#45;&gt;NoOneWantsIt (7)</title>
<path fill="none" stroke="black" d="M21.53,-2317.37C23.9,-2203.83 37.19,-1612.87 58.3,-1535.2 60.8,-1525.99 65.82,-1525.42 68.3,-1516.2 94.03,-1420.41 77.47,-1169 86.3,-1070.2 104.39,-867.68 140.48,-632.72 162.07,-501.16"/>
<polygon fill="black" stroke="black" points="165.55,-501.53 163.73,-491.09 158.65,-500.39 165.55,-501.53"/>
<text text-anchor="middle" x="63.3" y="-1539" font-family="Times,serif" font-size="14.00">2</text>
</g>
<!-- WhyNot (7) -->
<g id="node3" class="node">
<title>WhyNot (7)</title>
<ellipse fill="none" stroke="black" cx="180.54" cy="-1956.2" rx="63.89" ry="63.89"/>
<text text-anchor="middle" x="180.54" y="-1952.5" font-family="Times,serif" font-size="14.00">WhyNot (7)</text>
</g>
<!-- U&#45;&gt;WhyNot (7) -->
<g id="edge2" class="edge">
<title>U&#45;&gt;WhyNot (7)</title>
<path fill="none" stroke="black" d="M35.48,-2347.58C45.45,-2354.04 58.65,-2359.51 68.3,-2352.2 119.59,-2313.33 153.8,-2132.88 169.56,-2029.49"/>
<polygon fill="black" stroke="black" points="173.04,-2029.84 171.07,-2019.43 166.12,-2028.8 173.04,-2029.84"/>
<text text-anchor="middle" x="63.3" y="-2359" font-family="Times,serif" font-size="14.00">1</text>
</g>
<!-- BestChoice (7) -->
<g id="node4" class="node">
<title>BestChoice (7)</title>
<ellipse fill="none" stroke="black" cx="180.54" cy="-1158.2" rx="78.79" ry="78.79"/>
<text text-anchor="middle" x="180.54" y="-1154.5" font-family="Times,serif" font-size="14.00">BestChoice (7)</text>
</g>
<!-- U&#45;&gt;BestChoice (7) -->
<g id="edge3" class="edge">
<title>U&#45;&gt;BestChoice (7)</title>
<path fill="none" stroke="black" d="M37.77,-2328.34C48.53,-2322.28 61.72,-2312.8 68.3,-2300.2 89.75,-2259.09 82.34,-1929.41 86.3,-1883.2 106.1,-1652.22 145.12,-1381.72 165.85,-1245.71"/>
<polygon fill="black" stroke="black" points="169.32,-1246.17 167.37,-1235.76 162.4,-1245.11 169.32,-1246.17"/>
<text text-anchor="middle" x="63.3" y="-2316" font-family="Times,serif" font-size="14.00">0</text>
</g>
<!-- T -->
<g id="node5" class="node">
<title>T</title>
<ellipse fill="none" stroke="black" cx="20.15" cy="-1004.2" rx="18" ry="18"/>
<text text-anchor="middle" x="20.15" y="-1000.5" font-family="Times,serif" font-size="14.00">T</text>
</g>
<!-- T&#45;&gt;NoOneWantsIt (7) -->
<g id="edge4" class="edge">
<title>T&#45;&gt;NoOneWantsIt (7)</title>
<path fill="none" stroke="black" d="M32.8,-991.06C35.81,-986.9 38.66,-982.11 40.3,-977.2 52.45,-940.71 30.75,-312.04 58.3,-285.2 80.81,-263.27 106.18,-280.62 127.87,-307.73"/>
<polygon fill="black" stroke="black" points="125.34,-310.18 134.18,-316.01 130.9,-305.94 125.34,-310.18"/>
<text text-anchor="middle" x="63.3" y="-289" font-family="Times,serif" font-size="14.00">2</text>
</g>
<!-- T&#45;&gt;WhyNot (7) -->
<g id="edge5" class="edge">
<title>T&#45;&gt;WhyNot (7)</title>
<path fill="none" stroke="black" d="M32.81,-1017.34C35.82,-1021.5 38.67,-1026.29 40.3,-1031.2 67.87,-1114.44 26.14,-1738.62 58.3,-1820.2 65.92,-1839.53 97.64,-1874.84 126.73,-1904.63"/>
<polygon fill="black" stroke="black" points="124.54,-1907.4 134.05,-1912.07 129.53,-1902.49 124.54,-1907.4"/>
<text text-anchor="middle" x="63.3" y="-1839" font-family="Times,serif" font-size="14.00">1</text>
</g>
<!-- T&#45;&gt;BestChoice (7) -->
<g id="edge6" class="edge">
<title>T&#45;&gt;BestChoice (7)</title>
<path fill="none" stroke="black" d="M33.58,-1016.29C51.4,-1033.62 85.47,-1066.74 116.21,-1096.63"/>
<polygon fill="black" stroke="black" points="113.92,-1099.28 123.53,-1103.75 118.8,-1094.26 113.92,-1099.28"/>
<text text-anchor="middle" x="63.3" y="-1054" font-family="Times,serif" font-size="14.00">0</text>
</g>
<!-- S -->
<g id="node6" class="node">
<title>S</title>
<ellipse fill="none" stroke="black" cx="20.15" cy="-1490.2" rx="18" ry="18"/>
<text text-anchor="middle" x="20.15" y="-1486.5" font-family="Times,serif" font-size="14.00">S</text>
</g>
<!-- S&#45;&gt;NoOneWantsIt (7) -->
<g id="edge7" class="edge">
<title>S&#45;&gt;NoOneWantsIt (7)</title>
<path fill="none" stroke="black" d="M32.81,-1477.06C35.82,-1472.91 38.67,-1468.11 40.3,-1463.2 69.45,-1374.99 34.93,-717.13 58.3,-627.2 60.3,-619.49 97.27,-550.08 129.86,-489.68"/>
<polygon fill="black" stroke="black" points="132.96,-491.3 134.64,-480.84 126.81,-487.98 132.96,-491.3"/>
<text text-anchor="middle" x="63.3" y="-631" font-family="Times,serif" font-size="14.00">2</text>
</g>
<!-- S&#45;&gt;WhyNot (7) -->
<g id="edge8" class="edge">
<title>S&#45;&gt;WhyNot (7)</title>
<path fill="none" stroke="black" d="M32.79,-1503.35C35.8,-1507.5 38.66,-1512.3 40.3,-1517.2 51.65,-1551.2 32.6,-2137.21 58.3,-2162.2 108.58,-2211.1 145.32,-2105.63 164.48,-2028.32"/>
<polygon fill="black" stroke="black" points="167.88,-2029.11 166.84,-2018.57 161.08,-2027.46 167.88,-2029.11"/>
<text text-anchor="middle" x="63.3" y="-2173" font-family="Times,serif" font-size="14.00">1</text>
</g>
<!-- S&#45;&gt;BestChoice (7) -->
<g id="edge9" class="edge">
<title>S&#45;&gt;BestChoice (7)</title>
<path fill="none" stroke="black" d="M32.37,-1476.53C35.3,-1472.44 38.21,-1467.81 40.3,-1463.2 54.6,-1431.57 46.08,-1419.69 58.3,-1387.2 64.21,-1371.48 104.48,-1296.18 137.01,-1236.15"/>
<polygon fill="black" stroke="black" points="140.26,-1237.5 141.96,-1227.04 134.11,-1234.16 140.26,-1237.5"/>
<text text-anchor="middle" x="63.3" y="-1391" font-family="Times,serif" font-size="14.00">0</text>
</g>
<!-- R -->
<g id="node7" class="node">
<title>R</title>
<ellipse fill="none" stroke="black" cx="20.15" cy="-1058.2" rx="18" ry="18"/>
<text text-anchor="middle" x="20.15" y="-1054.5" font-family="Times,serif" font-size="14.00">R</text>
</g>
<!-- R&#45;&gt;NoOneWantsIt (7) -->
<g id="edge10" class="edge">
<title>R&#45;&gt;NoOneWantsIt (7)</title>
<path fill="none" stroke="black" d="M32.8,-1045.06C35.81,-1040.9 38.66,-1036.11 40.3,-1031.2 52.72,-993.87 30.12,-350.67 58.3,-323.2 73.07,-308.8 91.08,-311.73 108.65,-322.23"/>
<polygon fill="black" stroke="black" points="106.96,-325.31 117.22,-327.95 110.84,-319.49 106.96,-325.31"/>
<text text-anchor="middle" x="63.3" y="-327" font-family="Times,serif" font-size="14.00">2</text>
</g>
<!-- R&#45;&gt;WhyNot (7) -->
<g id="edge11" class="edge">
<title>R&#45;&gt;WhyNot (7)</title>
<path fill="none" stroke="black" d="M32.81,-1071.34C35.82,-1075.5 38.67,-1080.29 40.3,-1085.2 67.33,-1166.75 20.38,-1781.11 58.3,-1858.2 70.8,-1883.61 93.33,-1904.62 115.61,-1920.59"/>
<polygon fill="black" stroke="black" points="113.9,-1923.66 124.12,-1926.45 117.87,-1917.89 113.9,-1923.66"/>
<text text-anchor="middle" x="63.3" y="-1876" font-family="Times,serif" font-size="14.00">1</text>
</g>
<!-- R&#45;&gt;BestChoice (7) -->
<g id="edge12" class="edge">
<title>R&#45;&gt;BestChoice (7)</title>
<path fill="none" stroke="black" d="M35.77,-1067.43C51.8,-1077.55 78.76,-1094.57 105.02,-1111.16"/>
<polygon fill="black" stroke="black" points="103.19,-1114.14 113.51,-1116.52 106.93,-1108.22 103.19,-1114.14"/>
<text text-anchor="middle" x="63.3" y="-1092" font-family="Times,serif" font-size="14.00">0</text>
</g>
<!-- Q -->
<g id="node8" class="node">
<title>Q</title>
<ellipse fill="none" stroke="black" cx="20.15" cy="-840.2" rx="18.4" ry="18.4"/>
<text text-anchor="middle" x="20.15" y="-836.5" font-family="Times,serif" font-size="14.00">Q</text>
</g>
<!-- Q&#45;&gt;NoOneWantsIt (7) -->
<g id="edge13" class="edge">
<title>Q&#45;&gt;NoOneWantsIt (7)</title>
<path fill="none" stroke="black" d="M32.79,-827.05C35.8,-822.9 38.66,-818.11 40.3,-813.2 51.6,-779.36 32.72,-196.08 58.3,-171.2 107.55,-123.31 141.37,-214.83 160.53,-295.57"/>
<polygon fill="black" stroke="black" points="157.13,-296.4 162.8,-305.35 163.95,-294.82 157.13,-296.4"/>
<text text-anchor="middle" x="63.3" y="-175" font-family="Times,serif" font-size="14.00">2</text>
</g>
<!-- Q&#45;&gt;WhyNot (7) -->
<g id="edge14" class="edge">
<title>Q&#45;&gt;WhyNot (7)</title>
<path fill="none" stroke="black" d="M32.81,-853.34C35.83,-857.5 38.67,-862.29 40.3,-867.2 69.55,-955.74 34.96,-1615.93 58.3,-1706.2 60.68,-1715.44 64,-1716.68 68.3,-1725.2 95.93,-1780.06 126.09,-1842.9 148.03,-1889.17"/>
<polygon fill="black" stroke="black" points="145,-1890.95 152.45,-1898.49 151.33,-1887.95 145,-1890.95"/>
<text text-anchor="middle" x="63.3" y="-1729" font-family="Times,serif" font-size="14.00">1</text>
</g>
<!-- Q&#45;&gt;BestChoice (7) -->
<g id="edge15" class="edge">
<title>Q&#45;&gt;BestChoice (7)</title>
<path fill="none" stroke="black" d="M32.04,-854.42C34.9,-858.44 37.86,-862.9 40.3,-867.2 50.1,-884.52 49.95,-890.13 58.3,-908.2 84.8,-965.6 115.94,-1029.74 140.03,-1078.69"/>
<polygon fill="black" stroke="black" points="137.03,-1080.53 144.59,-1087.96 143.31,-1077.44 137.03,-1080.53"/>
<text text-anchor="middle" x="63.3" y="-933" font-family="Times,serif" font-size="14.00">0</text>
</g>
<!-- P -->
<g id="node9" class="node">
<title>P</title>
<ellipse fill="none" stroke="black" cx="20.15" cy="-1220.2" rx="18" ry="18"/>
<text text-anchor="middle" x="20.15" y="-1216.5" font-family="Times,serif" font-size="14.00">P</text>
</g>
<!-- P&#45;&gt;NoOneWantsIt (7) -->
<g id="edge16" class="edge">
<title>P&#45;&gt;NoOneWantsIt (7)</title>
<path fill="none" stroke="black" d="M32.81,-1207.06C35.82,-1202.91 38.67,-1198.11 40.3,-1193.2 53.53,-1153.33 33.15,-470.86 58.3,-437.2 63.84,-429.79 70.81,-423.76 78.59,-418.85"/>
<polygon fill="black" stroke="black" points="80.31,-421.9 87.33,-413.96 76.89,-415.79 80.31,-421.9"/>
<text text-anchor="middle" x="63.3" y="-441" font-family="Times,serif" font-size="14.00">2</text>
</g>
<!-- P&#45;&gt;WhyNot (7) -->
<g id="edge17" class="edge">
<title>P&#45;&gt;WhyNot (7)</title>
<path fill="none" stroke="black" d="M32.8,-1233.35C35.81,-1237.5 38.67,-1242.29 40.3,-1247.2 53,-1285.44 29.46,-1944.07 58.3,-1972.2 72.53,-1986.09 92.58,-1987.67 112.29,-1984.09"/>
<polygon fill="black" stroke="black" points="113.22,-1987.47 122.22,-1981.87 111.69,-1980.64 113.22,-1987.47"/>
<text text-anchor="middle" x="63.3" y="-1981" font-family="Times,serif" font-size="14.00">1</text>
</g>
<!-- P&#45;&gt;BestChoice (7) -->
<g id="edge18" class="edge">
<title>P&#45;&gt;BestChoice (7)</title>
<path fill="none" stroke="black" d="M35.51,-1210.17C42.22,-1205.79 50.45,-1200.83 58.3,-1197.2 69.97,-1191.81 82.6,-1186.85 95.15,-1182.41"/>
<polygon fill="black" stroke="black" points="96.4,-1185.68 104.71,-1179.12 94.12,-1179.07 96.4,-1185.68"/>
<text text-anchor="middle" x="63.3" y="-1201" font-family="Times,serif" font-size="14.00">0</text>
</g>
<!-- O -->
<g id="node10" class="node">
<title>O</title>
<ellipse fill="none" stroke="black" cx="20.15" cy="-1328.2" rx="18.4" ry="18.4"/>
<text text-anchor="middle" x="20.15" y="-1324.5" font-family="Times,serif" font-size="14.00">O</text>
</g>
<!-- O&#45;&gt;NoOneWantsIt (7) -->
<g id="edge19" class="edge">
<title>O&#45;&gt;NoOneWantsIt (7)</title>
<path fill="none" stroke="black" d="M32.81,-1315.06C35.82,-1310.91 38.67,-1306.11 40.3,-1301.2 67.83,-1218.07 22.8,-593.26 58.3,-513.2 67.07,-493.42 81.02,-475.41 96.38,-459.81"/>
<polygon fill="black" stroke="black" points="98.83,-462.31 103.53,-452.81 93.93,-457.31 98.83,-462.31"/>
<text text-anchor="middle" x="63.3" y="-517" font-family="Times,serif" font-size="14.00">2</text>
</g>
<!-- O&#45;&gt;WhyNot (7) -->
<g id="edge20" class="edge">
<title>O&#45;&gt;WhyNot (7)</title>
<path fill="none" stroke="black" d="M32.8,-1341.35C35.81,-1345.5 38.66,-1350.3 40.3,-1355.2 52.46,-1391.74 30.71,-2021.33 58.3,-2048.2 83.14,-2072.41 114.38,-2047.6 138.93,-2017.68"/>
<polygon fill="black" stroke="black" points="141.89,-2019.58 145.34,-2009.57 136.4,-2015.24 141.89,-2019.58"/>
<text text-anchor="middle" x="63.3" y="-2058" font-family="Times,serif" font-size="14.00">1</text>
</g>
<!-- O&#45;&gt;BestChoice (7) -->
<g id="edge21" class="edge">
<title>O&#45;&gt;BestChoice (7)</title>
<path fill="none" stroke="black" d="M31.61,-1313.71C34.46,-1309.69 37.53,-1305.3 40.3,-1301.2 48.58,-1288.94 48.86,-1284.6 58.3,-1273.2 74.71,-1253.38 94.31,-1233.48 112.92,-1215.94"/>
<polygon fill="black" stroke="black" points="115.34,-1218.47 120.26,-1209.09 110.56,-1213.35 115.34,-1218.47"/>
<text text-anchor="middle" x="63.3" y="-1277" font-family="Times,serif" font-size="14.00">0</text>
</g>
<!-- N -->
<g id="node11" class="node">
<title>N</title>
<ellipse fill="none" stroke="black" cx="20.15" cy="-1599.2" rx="18.7" ry="18.7"/>
<text text-anchor="middle" x="20.15" y="-1595.5" font-family="Times,serif" font-size="14.00">N</text>
</g>
<!-- N&#45;&gt;NoOneWantsIt (7) -->
<g id="edge22" class="edge">
<title>N&#45;&gt;NoOneWantsIt (7)</title>
<path fill="none" stroke="black" d="M33.02,-1585.23C35.96,-1580.99 38.71,-1576.14 40.3,-1571.2 69.75,-1479.34 37.68,-797.44 58.3,-703.2 60.68,-692.31 64.03,-690.5 68.3,-680.2 93.63,-619.09 120.9,-550 142.11,-495.5"/>
<polygon fill="black" stroke="black" points="145.5,-496.44 145.86,-485.85 138.97,-493.9 145.5,-496.44"/>
<text text-anchor="middle" x="63.3" y="-707" font-family="Times,serif" font-size="14.00">2</text>
</g>
<!-- N&#45;&gt;WhyNot (7) -->
<g id="edge23" class="edge">
<title>N&#45;&gt;WhyNot (7)</title>
<path fill="none" stroke="black" d="M32.99,-1613.18C35.93,-1617.43 38.69,-1622.27 40.3,-1627.2 50.81,-1659.49 33.93,-2214.55 58.3,-2238.2 127.95,-2305.84 159.87,-2134.39 172.48,-2029.89"/>
<polygon fill="black" stroke="black" points="175.99,-2030.02 173.68,-2019.69 169.04,-2029.21 175.99,-2030.02"/>
<text text-anchor="middle" x="63.3" y="-2247" font-family="Times,serif" font-size="14.00">1</text>
</g>
<!-- N&#45;&gt;BestChoice (7) -->
<g id="edge24" class="edge">
<title>N&#45;&gt;BestChoice (7)</title>
<path fill="none" stroke="black" d="M32.76,-1584.78C35.62,-1580.6 38.41,-1575.9 40.3,-1571.2 58.46,-1526.06 44.49,-1509.87 58.3,-1463.2 61.46,-1452.51 64.03,-1450.5 68.3,-1440.2 95.92,-1373.56 125.85,-1297.44 147.7,-1241.09"/>
<polygon fill="black" stroke="black" points="151.06,-1242.11 151.41,-1231.52 144.54,-1239.58 151.06,-1242.11"/>
<text text-anchor="middle" x="63.3" y="-1467" font-family="Times,serif" font-size="14.00">0</text>
</g>
<!-- M -->
<g id="node12" class="node">
<title>M</title>
<ellipse fill="none" stroke="black" cx="20.15" cy="-622.2" rx="20.3" ry="20.3"/>
<text text-anchor="middle" x="20.15" y="-618.5" font-family="Times,serif" font-size="14.00">M</text>
</g>
<!-- M&#45;&gt;NoOneWantsIt (7) -->
<g id="edge25" class="edge">
<title>M&#45;&gt;NoOneWantsIt (7)</title>
<path fill="none" stroke="black" d="M21.63,-601.87C24.15,-498.95 36.59,-39.61 58.3,-19.2 148.52,65.63 171.83,-154.19 177.71,-293.59"/>
<polygon fill="black" stroke="black" points="174.22,-294.05 178.12,-303.9 181.22,-293.77 174.22,-294.05"/>
<text text-anchor="middle" x="63.3" y="-23" font-family="Times,serif" font-size="14.00">2</text>
</g>
<!-- M&#45;&gt;WhyNot (7) -->
<g id="edge26" class="edge">
<title>M&#45;&gt;WhyNot (7)</title>
<path fill="none" stroke="black" d="M33.62,-637.64C36.33,-641.81 38.83,-646.48 40.3,-651.2 70.12,-747.02 33.25,-1457.02 58.3,-1554.2 60.68,-1563.44 64.73,-1564.35 68.3,-1573.2 110.85,-1678.65 144.59,-1806.42 163.31,-1884.48"/>
<polygon fill="black" stroke="black" points="159.9,-1885.3 165.63,-1894.22 166.71,-1883.68 159.9,-1885.3"/>
<text text-anchor="middle" x="63.3" y="-1577" font-family="Times,serif" font-size="14.00">1</text>
</g>
<!-- M&#45;&gt;BestChoice (7) -->
<g id="edge27" class="edge">
<title>M&#45;&gt;BestChoice (7)</title>
<path fill="none" stroke="black" d="M33.14,-637.81C35.86,-641.97 38.48,-646.6 40.3,-651.2 57.71,-695.23 43.08,-711.37 58.3,-756.2 61.36,-765.24 64.73,-766.35 68.3,-775.2 108.24,-874.19 140.42,-992.84 159.7,-1071.58"/>
<polygon fill="black" stroke="black" points="156.33,-1072.57 162.1,-1081.46 163.14,-1070.92 156.33,-1072.57"/>
<text text-anchor="middle" x="63.3" y="-779" font-family="Times,serif" font-size="14.00">0</text>
</g>
<!-- L -->
<g id="node13" class="node">
<title>L</title>
<ellipse fill="none" stroke="black" cx="20.15" cy="-1274.2" rx="18" ry="18"/>
<text text-anchor="middle" x="20.15" y="-1270.5" font-family="Times,serif" font-size="14.00">L</text>
</g>
<!-- L&#45;&gt;NoOneWantsIt (7) -->
<g id="edge28" class="edge">
<title>L&#45;&gt;NoOneWantsIt (7)</title>
<path fill="none" stroke="black" d="M32.81,-1261.06C35.82,-1256.91 38.67,-1252.11 40.3,-1247.2 67.29,-1165.76 16.1,-549.91 58.3,-475.2 65.32,-462.77 75.27,-452.04 86.49,-442.88"/>
<polygon fill="black" stroke="black" points="88.63,-445.65 94.43,-436.79 84.37,-440.1 88.63,-445.65"/>
<text text-anchor="middle" x="63.3" y="-479" font-family="Times,serif" font-size="14.00">2</text>
</g>
<!-- L&#45;&gt;WhyNot (7) -->
<g id="edge29" class="edge">
<title>L&#45;&gt;WhyNot (7)</title>
<path fill="none" stroke="black" d="M32.8,-1287.35C35.81,-1291.5 38.66,-1296.29 40.3,-1301.2 52.73,-1338.59 30.08,-1982.7 58.3,-2010.2 76.81,-2028.25 102.39,-2020.1 125.28,-2005.25"/>
<polygon fill="black" stroke="black" points="127.35,-2008.08 133.58,-1999.51 123.36,-2002.33 127.35,-2008.08"/>
<text text-anchor="middle" x="63.3" y="-2019" font-family="Times,serif" font-size="14.00">1</text>
</g>
<!-- L&#45;&gt;BestChoice (7) -->
<g id="edge30" class="edge">
<title>L&#45;&gt;BestChoice (7)</title>
<path fill="none" stroke="black" d="M32.46,-1260.77C39.47,-1252.86 48.9,-1242.92 58.3,-1235.2 72.28,-1223.72 88.07,-1212.56 103.53,-1202.46"/>
<polygon fill="black" stroke="black" points="105.56,-1205.32 112.07,-1196.96 101.77,-1199.43 105.56,-1205.32"/>
<text text-anchor="middle" x="63.3" y="-1239" font-family="Times,serif" font-size="14.00">0</text>
</g>
<!-- K -->
<g id="node14" class="node">
<title>K</title>
<ellipse fill="none" stroke="black" cx="20.15" cy="-1382.2" rx="18" ry="18"/>
<text text-anchor="middle" x="20.15" y="-1378.5" font-family="Times,serif" font-size="14.00">K</text>
</g>
<!-- K&#45;&gt;NoOneWantsIt (7) -->
<g id="edge31" class="edge">
<title>K&#45;&gt;NoOneWantsIt (7)</title>
<path fill="none" stroke="black" d="M32.81,-1369.06C35.82,-1364.91 38.67,-1360.11 40.3,-1355.2 68.37,-1270.37 27.97,-635.26 58.3,-551.2 64.45,-534.16 86.62,-504.65 110.35,-476.07"/>
<polygon fill="black" stroke="black" points="113.33,-477.96 117.07,-468.04 107.97,-473.46 113.33,-477.96"/>
<text text-anchor="middle" x="63.3" y="-555" font-family="Times,serif" font-size="14.00">2</text>
</g>
<!-- K&#45;&gt;WhyNot (7) -->
<g id="edge32" class="edge">
<title>K&#45;&gt;WhyNot (7)</title>
<path fill="none" stroke="black" d="M32.8,-1395.35C35.81,-1399.5 38.66,-1404.3 40.3,-1409.2 52.19,-1444.9 31.34,-2059.95 58.3,-2086.2 90.84,-2117.89 126.04,-2070.17 150.08,-2023.87"/>
<polygon fill="black" stroke="black" points="153.36,-2025.16 154.74,-2014.66 147.11,-2022 153.36,-2025.16"/>
<text text-anchor="middle" x="63.3" y="-2095" font-family="Times,serif" font-size="14.00">1</text>
</g>
<!-- K&#45;&gt;BestChoice (7) -->
<g id="edge33" class="edge">
<title>K&#45;&gt;BestChoice (7)</title>
<path fill="none" stroke="black" d="M31.92,-1368.31C34.84,-1364.21 37.86,-1359.63 40.3,-1355.2 50.47,-1336.69 47.63,-1329.44 58.3,-1311.2 75.97,-1280.98 99.13,-1250.23 120.46,-1224.3"/>
<polygon fill="black" stroke="black" points="123.32,-1226.35 127.02,-1216.42 117.93,-1221.87 123.32,-1226.35"/>
<text text-anchor="middle" x="63.3" y="-1315" font-family="Times,serif" font-size="14.00">0</text>
</g>
<!-- J -->
<g id="node15" class="node">
<title>J</title>
<ellipse fill="none" stroke="black" cx="20.15" cy="-786.2" rx="18" ry="18"/>
<text text-anchor="middle" x="20.15" y="-782.5" font-family="Times,serif" font-size="14.00">J</text>
</g>
<!-- J&#45;&gt;NoOneWantsIt (7) -->
<g id="edge34" class="edge">
<title>J&#45;&gt;NoOneWantsIt (7)</title>
<path fill="none" stroke="black" d="M32.79,-773.05C35.8,-768.9 38.66,-764.11 40.3,-759.2 51.33,-726.21 33.34,-157.45 58.3,-133.2 117.23,-75.94 150.19,-198.01 166.41,-294.91"/>
<polygon fill="black" stroke="black" points="162.95,-295.49 168.02,-304.79 169.86,-294.36 162.95,-295.49"/>
<text text-anchor="middle" x="63.3" y="-137" font-family="Times,serif" font-size="14.00">2</text>
</g>
<!-- J&#45;&gt;WhyNot (7) -->
<g id="edge35" class="edge">
<title>J&#45;&gt;WhyNot (7)</title>
<path fill="none" stroke="black" d="M32.81,-799.34C35.83,-803.5 38.67,-808.29 40.3,-813.2 70.09,-903.43 34.53,-1576.2 58.3,-1668.2 60.68,-1677.44 64.25,-1678.56 68.3,-1687.2 99.71,-1754.22 131.59,-1832.6 153.12,-1887.41"/>
<polygon fill="black" stroke="black" points="149.98,-1888.98 156.88,-1897.01 156.49,-1886.43 149.98,-1888.98"/>
<text text-anchor="middle" x="63.3" y="-1691" font-family="Times,serif" font-size="14.00">1</text>
</g>
<!-- J&#45;&gt;BestChoice (7) -->
<g id="edge36" class="edge">
<title>J&#45;&gt;BestChoice (7)</title>
<path fill="none" stroke="black" d="M32.16,-799.97C35.08,-804.07 38.05,-808.67 40.3,-813.2 52.12,-836.99 48.07,-845.68 58.3,-870.2 61.97,-879.01 64.25,-880.56 68.3,-889.2 97.13,-950.72 126.35,-1021.8 147.61,-1075.44"/>
<polygon fill="black" stroke="black" points="144.42,-1076.9 151.35,-1084.91 150.93,-1074.33 144.42,-1076.9"/>
<text text-anchor="middle" x="63.3" y="-893" font-family="Times,serif" font-size="14.00">0</text>
</g>
<!-- I -->
<g id="node16" class="node">
<title>I</title>
<ellipse fill="none" stroke="black" cx="20.15" cy="-732.2" rx="18" ry="18"/>
<text text-anchor="middle" x="20.15" y="-728.5" font-family="Times,serif" font-size="14.00">I</text>
</g>
<!-- I&#45;&gt;NoOneWantsIt (7) -->
<g id="edge37" class="edge">
<title>I&#45;&gt;NoOneWantsIt (7)</title>
<path fill="none" stroke="black" d="M32.79,-719.05C35.8,-714.9 38.65,-710.11 40.3,-705.2 51.06,-673.05 33.97,-118.82 58.3,-95.2 127.05,-28.44 157.88,-182.18 170.88,-294.18"/>
<polygon fill="black" stroke="black" points="167.42,-294.66 172.01,-304.2 174.37,-293.87 167.42,-294.66"/>
<text text-anchor="middle" x="63.3" y="-99" font-family="Times,serif" font-size="14.00">2</text>
</g>
<!-- I&#45;&gt;WhyNot (7) -->
<g id="edge38" class="edge">
<title>I&#45;&gt;WhyNot (7)</title>
<path fill="none" stroke="black" d="M32.82,-745.34C35.83,-749.5 38.68,-754.29 40.3,-759.2 70.63,-851.12 34.11,-1536.47 58.3,-1630.2 60.68,-1639.44 64.44,-1640.47 68.3,-1649.2 103.37,-1728.57 136.27,-1822.78 157.05,-1885.71"/>
<polygon fill="black" stroke="black" points="153.84,-1887.12 160.29,-1895.53 160.49,-1884.94 153.84,-1887.12"/>
<text text-anchor="middle" x="63.3" y="-1653" font-family="Times,serif" font-size="14.00">1</text>
</g>
<!-- I&#45;&gt;BestChoice (7) -->
<g id="edge39" class="edge">
<title>I&#45;&gt;BestChoice (7)</title>
<path fill="none" stroke="black" d="M32.34,-745.88C35.27,-749.98 38.19,-754.6 40.3,-759.2 54.21,-789.59 46.43,-800.97 58.3,-832.2 61.69,-841.12 64.44,-842.47 68.3,-851.2 100.86,-924.91 131.56,-1011.42 152.43,-1073.78"/>
<polygon fill="black" stroke="black" points="149.21,-1075.2 155.69,-1083.58 155.85,-1072.98 149.21,-1075.2"/>
<text text-anchor="middle" x="63.3" y="-855" font-family="Times,serif" font-size="14.00">0</text>
</g>
<!-- H -->
<g id="node17" class="node">
<title>H</title>
<ellipse fill="none" stroke="black" cx="20.15" cy="-949.2" rx="18.7" ry="18.7"/>
<text text-anchor="middle" x="20.15" y="-945.5" font-family="Times,serif" font-size="14.00">H</text>
</g>
<!-- H&#45;&gt;NoOneWantsIt (7) -->
<g id="edge40" class="edge">
<title>H&#45;&gt;NoOneWantsIt (7)</title>
<path fill="none" stroke="black" d="M33,-935.22C35.94,-930.98 38.7,-926.13 40.3,-921.2 51.84,-885.57 31.46,-273.33 58.3,-247.2 89.29,-217.02 119.76,-255.33 142.4,-300.9"/>
<polygon fill="black" stroke="black" points="139.33,-302.6 146.82,-310.09 145.64,-299.56 139.33,-302.6"/>
<text text-anchor="middle" x="63.3" y="-251" font-family="Times,serif" font-size="14.00">2</text>
</g>
<!-- H&#45;&gt;WhyNot (7) -->
<g id="edge41" class="edge">
<title>H&#45;&gt;WhyNot (7)</title>
<path fill="none" stroke="black" d="M33.01,-963.18C35.95,-967.42 38.71,-972.27 40.3,-977.2 67.68,-1062.37 30.54,-1697.15 58.3,-1782.2 62.54,-1795.22 102.79,-1851.85 135.76,-1897.02"/>
<polygon fill="black" stroke="black" points="133.09,-1899.3 141.82,-1905.31 138.74,-1895.17 133.09,-1899.3"/>
<text text-anchor="middle" x="63.3" y="-1802" font-family="Times,serif" font-size="14.00">1</text>
</g>
<!-- H&#45;&gt;BestChoice (7) -->
<g id="edge42" class="edge">
<title>H&#45;&gt;BestChoice (7)</title>
<path fill="none" stroke="black" d="M32.29,-963.9C51.58,-989.35 92.38,-1043.19 126.15,-1087.76"/>
<polygon fill="black" stroke="black" points="123.54,-1090.11 132.37,-1095.96 129.12,-1085.88 123.54,-1090.11"/>
<text text-anchor="middle" x="63.3" y="-1015" font-family="Times,serif" font-size="14.00">0</text>
</g>
<!-- G -->
<g id="node18" class="node">
<title>G</title>
<ellipse fill="none" stroke="black" cx="20.15" cy="-1436.2" rx="18.4" ry="18.4"/>
<text text-anchor="middle" x="20.15" y="-1432.5" font-family="Times,serif" font-size="14.00">G</text>
</g>
<!-- G&#45;&gt;NoOneWantsIt (7) -->
<g id="edge43" class="edge">
<title>G&#45;&gt;NoOneWantsIt (7)</title>
<path fill="none" stroke="black" d="M32.81,-1423.06C35.82,-1418.91 38.67,-1414.11 40.3,-1409.2 68.91,-1322.68 31.91,-676.43 58.3,-589.2 61.94,-577.17 92.25,-529.42 121.65,-484.68"/>
<polygon fill="black" stroke="black" points="124.74,-486.35 127.31,-476.08 118.89,-482.5 124.74,-486.35"/>
<text text-anchor="middle" x="63.3" y="-593" font-family="Times,serif" font-size="14.00">2</text>
</g>
<!-- G&#45;&gt;WhyNot (7) -->
<g id="edge44" class="edge">
<title>G&#45;&gt;WhyNot (7)</title>
<path fill="none" stroke="black" d="M32.8,-1449.35C35.81,-1453.5 38.66,-1458.3 40.3,-1463.2 51.92,-1498.05 31.97,-2098.58 58.3,-2124.2 99.43,-2164.23 136.39,-2089.1 158.39,-2026.81"/>
<polygon fill="black" stroke="black" points="161.71,-2027.93 161.66,-2017.33 155.09,-2025.64 161.71,-2027.93"/>
<text text-anchor="middle" x="63.3" y="-2134" font-family="Times,serif" font-size="14.00">1</text>
</g>
<!-- G&#45;&gt;BestChoice (7) -->
<g id="edge45" class="edge">
<title>G&#45;&gt;BestChoice (7)</title>
<path fill="none" stroke="black" d="M32.2,-1422.45C35.12,-1418.36 38.08,-1413.75 40.3,-1409.2 52.51,-1384.18 46.73,-1374.53 58.3,-1349.2 77.18,-1307.87 103.76,-1264.89 127.22,-1230.19"/>
<polygon fill="black" stroke="black" points="130.37,-1231.78 133.11,-1221.55 124.58,-1227.84 130.37,-1231.78"/>
<text text-anchor="middle" x="63.3" y="-1353" font-family="Times,serif" font-size="14.00">0</text>
</g>
<!-- F -->
<g id="node19" class="node">
<title>F</title>
<ellipse fill="none" stroke="black" cx="20.15" cy="-1166.2" rx="18" ry="18"/>
<text text-anchor="middle" x="20.15" y="-1162.5" font-family="Times,serif" font-size="14.00">F</text>
</g>
<!-- F&#45;&gt;NoOneWantsIt (7) -->
<g id="edge46" class="edge">
<title>F&#45;&gt;NoOneWantsIt (7)</title>
<path fill="none" stroke="black" d="M32.8,-1153.06C35.82,-1148.91 38.67,-1144.11 40.3,-1139.2 53.26,-1100.17 28.99,-428.05 58.3,-399.2 63.87,-393.72 70.37,-389.81 77.42,-387.13"/>
<polygon fill="black" stroke="black" points="78.74,-390.39 87.34,-384.2 76.76,-383.67 78.74,-390.39"/>
<text text-anchor="middle" x="63.3" y="-403" font-family="Times,serif" font-size="14.00">2</text>
</g>
<!-- F&#45;&gt;WhyNot (7) -->
<g id="edge47" class="edge">
<title>F&#45;&gt;WhyNot (7)</title>
<path fill="none" stroke="black" d="M32.8,-1179.35C35.82,-1183.5 38.67,-1188.29 40.3,-1193.2 53.27,-1232.28 31.52,-1902.91 58.3,-1934.2 70.44,-1948.39 88.4,-1955.46 106.8,-1958.62"/>
<polygon fill="black" stroke="black" points="106.36,-1962.09 116.73,-1959.96 107.29,-1955.15 106.36,-1962.09"/>
<text text-anchor="middle" x="63.3" y="-1946" font-family="Times,serif" font-size="14.00">1</text>
</g>
<!-- F&#45;&gt;BestChoice (7) -->
<g id="edge48" class="edge">
<title>F&#45;&gt;BestChoice (7)</title>
<path fill="none" stroke="black" d="M38.07,-1162.36C44.38,-1161.1 51.63,-1159.85 58.3,-1159.2 69.04,-1158.15 80.35,-1157.49 91.56,-1157.09"/>
<polygon fill="black" stroke="black" points="91.92,-1160.58 101.82,-1156.79 91.72,-1153.58 91.92,-1160.58"/>
<text text-anchor="middle" x="63.3" y="-1163" font-family="Times,serif" font-size="14.00">0</text>
</g>
<!-- E -->
<g id="node20" class="node">
<title>E</title>
<ellipse fill="none" stroke="black" cx="20.15" cy="-678.2" rx="18" ry="18"/>
<text text-anchor="middle" x="20.15" y="-674.5" font-family="Times,serif" font-size="14.00">E</text>
</g>
<!-- E&#45;&gt;NoOneWantsIt (7) -->
<g id="edge49" class="edge">
<title>E&#45;&gt;NoOneWantsIt (7)</title>
<path fill="none" stroke="black" d="M32.79,-665.05C35.8,-660.9 38.65,-656.11 40.3,-651.2 50.79,-619.9 34.6,-80.19 58.3,-57.2 137.11,19.26 164.82,-167.6 174.47,-293.89"/>
<polygon fill="black" stroke="black" points="170.99,-294.29 175.21,-304.01 177.97,-293.78 170.99,-294.29"/>
<text text-anchor="middle" x="63.3" y="-61" font-family="Times,serif" font-size="14.00">2</text>
</g>
<!-- E&#45;&gt;WhyNot (7) -->
<g id="edge50" class="edge">
<title>E&#45;&gt;WhyNot (7)</title>
<path fill="none" stroke="black" d="M32.82,-691.34C35.83,-695.5 38.68,-700.29 40.3,-705.2 71.17,-798.82 33.68,-1496.75 58.3,-1592.2 60.68,-1601.44 64.6,-1602.41 68.3,-1611.2 107.1,-1703.45 140.62,-1814.21 160.45,-1884.9"/>
<polygon fill="black" stroke="black" points="157.1,-1885.91 163.15,-1894.6 163.84,-1884.03 157.1,-1885.91"/>
<text text-anchor="middle" x="63.3" y="-1615" font-family="Times,serif" font-size="14.00">1</text>
</g>
<!-- E&#45;&gt;BestChoice (7) -->
<g id="edge51" class="edge">
<title>E&#45;&gt;BestChoice (7)</title>
<path fill="none" stroke="black" d="M32.27,-691.55C35.27,-695.71 38.24,-700.46 40.3,-705.2 56.32,-742.24 44.76,-756.18 58.3,-794.2 61.5,-803.19 64.6,-804.41 68.3,-813.2 104.6,-899.49 136.27,-1001.99 156.44,-1072.72"/>
<polygon fill="black" stroke="black" points="153.11,-1073.82 159.21,-1082.49 159.85,-1071.91 153.11,-1073.82"/>
<text text-anchor="middle" x="63.3" y="-817" font-family="Times,serif" font-size="14.00">0</text>
</g>
<!-- D -->
<g id="node21" class="node">
<title>D</title>
<ellipse fill="none" stroke="black" cx="20.15" cy="-894.2" rx="18.4" ry="18.4"/>
<text text-anchor="middle" x="20.15" y="-890.5" font-family="Times,serif" font-size="14.00">D</text>
</g>
<!-- D&#45;&gt;NoOneWantsIt (7) -->
<g id="edge52" class="edge">
<title>D&#45;&gt;NoOneWantsIt (7)</title>
<path fill="none" stroke="black" d="M32.8,-881.06C35.81,-876.9 38.66,-872.11 40.3,-867.2 51.87,-832.51 32.09,-234.7 58.3,-209.2 98.23,-170.35 131.36,-233.78 152.84,-297.4"/>
<polygon fill="black" stroke="black" points="149.61,-298.78 156.05,-307.18 156.26,-296.59 149.61,-298.78"/>
<text text-anchor="middle" x="63.3" y="-213" font-family="Times,serif" font-size="14.00">2</text>
</g>
<!-- D&#45;&gt;WhyNot (7) -->
<g id="edge53" class="edge">
<title>D&#45;&gt;WhyNot (7)</title>
<path fill="none" stroke="black" d="M32.81,-907.34C35.82,-911.5 38.67,-916.29 40.3,-921.2 69.01,-1008.04 33.84,-1656.07 58.3,-1744.2 59.44,-1748.33 107.43,-1831.68 142.68,-1892.61"/>
<polygon fill="black" stroke="black" points="139.74,-1894.53 147.78,-1901.43 145.8,-1891.02 139.74,-1894.53"/>
<text text-anchor="middle" x="63.3" y="-1764" font-family="Times,serif" font-size="14.00">1</text>
</g>
<!-- D&#45;&gt;BestChoice (7) -->
<g id="edge54" class="edge">
<title>D&#45;&gt;BestChoice (7)</title>
<path fill="none" stroke="black" d="M31.72,-908.62C34.57,-912.64 37.61,-917.05 40.3,-921.2 74.14,-973.53 109.68,-1034.14 136.39,-1080.97"/>
<polygon fill="black" stroke="black" points="133.45,-1082.88 141.44,-1089.84 139.54,-1079.42 133.45,-1082.88"/>
<text text-anchor="middle" x="63.3" y="-964" font-family="Times,serif" font-size="14.00">0</text>
</g>
<!-- C -->
<g id="node22" class="node">
<title>C</title>
<ellipse fill="none" stroke="black" cx="20.15" cy="-1112.2" rx="18" ry="18"/>
<text text-anchor="middle" x="20.15" y="-1108.5" font-family="Times,serif" font-size="14.00">C</text>
</g>
<!-- C&#45;&gt;NoOneWantsIt (7) -->
<g id="edge55" class="edge">
<title>C&#45;&gt;NoOneWantsIt (7)</title>
<path fill="none" stroke="black" d="M32.8,-1099.06C35.81,-1094.9 38.67,-1090.11 40.3,-1085.2 52.99,-1047.02 29.49,-389.3 58.3,-361.2 66.95,-352.76 77.47,-349.65 88.65,-349.96"/>
<polygon fill="black" stroke="black" points="88.3,-353.44 98.62,-351.07 89.07,-346.48 88.3,-353.44"/>
<text text-anchor="middle" x="63.3" y="-365" font-family="Times,serif" font-size="14.00">2</text>
</g>
<!-- C&#45;&gt;WhyNot (7) -->
<g id="edge56" class="edge">
<title>C&#45;&gt;WhyNot (7)</title>
<path fill="none" stroke="black" d="M32.81,-1125.35C35.82,-1129.5 38.67,-1134.29 40.3,-1139.2 53.54,-1179.13 35.68,-1860.73 58.3,-1896.2 70.07,-1914.67 89.34,-1927.64 109.1,-1936.67"/>
<polygon fill="black" stroke="black" points="107.92,-1939.98 118.5,-1940.67 110.67,-1933.54 107.92,-1939.98"/>
<text text-anchor="middle" x="63.3" y="-1911" font-family="Times,serif" font-size="14.00">1</text>
</g>
<!-- C&#45;&gt;BestChoice (7) -->
<g id="edge57" class="edge">
<title>C&#45;&gt;BestChoice (7)</title>
<path fill="none" stroke="black" d="M37.8,-1117.04C51.84,-1121.12 73.09,-1127.29 94.9,-1133.62"/>
<polygon fill="black" stroke="black" points="94.01,-1137.01 104.59,-1136.44 95.97,-1130.29 94.01,-1137.01"/>
<text text-anchor="middle" x="63.3" y="-1130" font-family="Times,serif" font-size="14.00">0</text>
</g>
<!-- B -->
<g id="node23" class="node">
<title>B</title>
<ellipse fill="none" stroke="black" cx="20.15" cy="-1654.2" rx="18" ry="18"/>
<text text-anchor="middle" x="20.15" y="-1650.5" font-family="Times,serif" font-size="14.00">B</text>
</g>
<!-- B&#45;&gt;NoOneWantsIt (7) -->
<g id="edge58" class="edge">
<title>B&#45;&gt;NoOneWantsIt (7)</title>
<path fill="none" stroke="black" d="M32.82,-1641.06C35.83,-1636.91 38.68,-1632.11 40.3,-1627.2 71.27,-1533.27 33.6,-832.98 58.3,-737.2 60.68,-727.96 64.5,-726.96 68.3,-718.2 99.65,-645.97 128.63,-561.77 149.15,-497.88"/>
<polygon fill="black" stroke="black" points="152.53,-498.79 152.24,-488.2 145.86,-496.66 152.53,-498.79"/>
<text text-anchor="middle" x="63.3" y="-741" font-family="Times,serif" font-size="14.00">2</text>
</g>
<!-- B&#45;&gt;WhyNot (7) -->
<g id="edge59" class="edge">
<title>B&#45;&gt;WhyNot (7)</title>
<path fill="none" stroke="black" d="M21.54,-1672.46C23.79,-1772.96 35.73,-2254.95 58.3,-2276.2 139.1,-2352.32 166.54,-2146.83 175.47,-2030.28"/>
<polygon fill="black" stroke="black" points="178.98,-2030.21 176.22,-2019.98 172,-2029.69 178.98,-2030.21"/>
<text text-anchor="middle" x="63.3" y="-2285" font-family="Times,serif" font-size="14.00">1</text>
</g>
<!-- B&#45;&gt;BestChoice (7) -->
<g id="edge60" class="edge">
<title>B&#45;&gt;BestChoice (7)</title>
<path fill="none" stroke="black" d="M32.44,-1640.93C35.45,-1636.77 38.38,-1632.01 40.3,-1627.2 61.25,-1574.66 42.88,-1555.63 58.3,-1501.2 61.33,-1490.48 64.24,-1488.59 68.3,-1478.2 99.18,-1399.12 130.6,-1307.49 152.14,-1242.6"/>
<polygon fill="black" stroke="black" points="155.55,-1243.41 155.37,-1232.82 148.91,-1241.21 155.55,-1243.41"/>
<text text-anchor="middle" x="63.3" y="-1505" font-family="Times,serif" font-size="14.00">0</text>
</g>
<!-- A -->
<g id="node24" class="node">
<title>A</title>
<ellipse fill="none" stroke="black" cx="20.15" cy="-1544.2" rx="18" ry="18"/>
<text text-anchor="middle" x="20.15" y="-1540.5" font-family="Times,serif" font-size="14.00">A</text>
</g>
<!-- A&#45;&gt;NoOneWantsIt (7) -->
<g id="edge61" class="edge">
<title>A&#45;&gt;NoOneWantsIt (7)</title>
<path fill="none" stroke="black" d="M32.81,-1531.06C35.83,-1526.91 38.67,-1522.11 40.3,-1517.2 69.99,-1427.29 37.29,-757.53 58.3,-665.2 58.83,-662.84 101.65,-568.78 136.24,-492.97"/>
<polygon fill="black" stroke="black" points="139.45,-494.37 140.42,-483.82 133.08,-491.46 139.45,-494.37"/>
<text text-anchor="middle" x="63.3" y="-669" font-family="Times,serif" font-size="14.00">2</text>
</g>
<!-- A&#45;&gt;WhyNot (7) -->
<g id="edge62" class="edge">
<title>A&#45;&gt;WhyNot (7)</title>
<path fill="none" stroke="black" d="M32.79,-1557.35C35.8,-1561.5 38.66,-1566.3 40.3,-1571.2 51.38,-1604.36 33.23,-2175.84 58.3,-2200.2 118.05,-2258.27 152.98,-2120.91 168.95,-2029.56"/>
<polygon fill="black" stroke="black" points="172.44,-2029.94 170.67,-2019.5 165.53,-2028.77 172.44,-2029.94"/>
<text text-anchor="middle" x="63.3" y="-2208" font-family="Times,serif" font-size="14.00">1</text>
</g>
<!-- A&#45;&gt;BestChoice (7) -->
<g id="edge63" class="edge">
<title>A&#45;&gt;BestChoice (7)</title>
<path fill="none" stroke="black" d="M32.29,-1530.86C35.29,-1526.7 38.26,-1521.96 40.3,-1517.2 56.71,-1478.91 45.6,-1464.88 58.3,-1425.2 59.86,-1420.31 107.67,-1315.41 142.77,-1238.58"/>
<polygon fill="black" stroke="black" points="146.01,-1239.91 146.99,-1229.36 139.65,-1237 146.01,-1239.91"/>
<text text-anchor="middle" x="63.3" y="-1429" font-family="Times,serif" font-size="14.00">0</text>
</g>
</g>
</svg>
