<?xml version="1.0" encoding="UTF-8" standalone="no"?>
<!DOCTYPE svg PUBLIC "-//W3C//DTD SVG 1.1//EN"
 "http://www.w3.org/Graphics/SVG/1.1/DTD/svg11.dtd">
<!-- Generated by graphviz version 2.40.1 (20161225.0304)
 -->
<!-- Title: %3 Pages: 1 -->
<svg width="236pt" height="399pt"
 viewBox="0.00 0.00 235.58 399.19" xmlns="http://www.w3.org/2000/svg" xmlns:xlink="http://www.w3.org/1999/xlink">
<g id="graph0" class="graph" transform="scale(1 1) rotate(0) translate(4 395.1926)">
<title>%3</title>
<polygon fill="#ffffff" stroke="transparent" points="-4,4 -4,-395.1926 231.5836,-395.1926 231.5836,4 -4,4"/>
<!-- Basil -->
<g id="node1" class="node">
<title>Basil</title>
<ellipse fill="none" stroke="#000000" cx="38.3466" cy="-180.7958" rx="28.6953" ry="28.6953"/>
<text text-anchor="middle" x="38.3466" y="-177.0958" font-family="Times,serif" font-size="14.00" fill="#000000">Basil</text>
</g>
<!-- Natation (2) -->
<g id="node2" class="node">
<title>Natation (2)</title>
<ellipse fill="none" stroke="#000000" cx="173.6384" cy="-263.7958" rx="53.8905" ry="53.8905"/>
<text text-anchor="middle" x="173.6384" y="-260.0958" font-family="Times,serif" font-size="14.00" fill="#000000">Natation (2)</text>
</g>
<!-- Basil&#45;&gt;Natation (2) -->
<g id="edge1" class="edge">
<title>Basil&#45;&gt;Natation (2)</title>
<path fill="none" stroke="#000000" d="M62.8469,-195.8265C78.4309,-205.3871 99.2582,-218.1645 118.6472,-230.0594"/>
<polygon fill="#000000" stroke="#000000" points="117.0764,-233.2018 127.4305,-235.4478 120.7369,-227.2352 117.0764,-233.2018"/>
<text text-anchor="middle" x="98.1932" y="-220.5958" font-family="Times,serif" font-size="14.00" fill="#000000">1</text>
</g>
<!-- Judo (1) -->
<g id="node3" class="node">
<title>Judo (1)</title>
<ellipse fill="none" stroke="#000000" cx="173.6384" cy="-151.7958" rx="40.0939" ry="40.0939"/>
<text text-anchor="middle" x="173.6384" y="-148.0958" font-family="Times,serif" font-size="14.00" fill="#000000">Judo (1)</text>
</g>
<!-- Basil&#45;&gt;Judo (1) -->
<g id="edge2" class="edge">
<title>Basil&#45;&gt;Judo (1)</title>
<path fill="none" stroke="#000000" d="M66.3791,-174.787C83.0542,-171.2127 104.6877,-166.5755 124.1542,-162.4029"/>
<polygon fill="#000000" stroke="#000000" points="125.0543,-165.7895 134.0986,-160.2713 123.5871,-158.945 125.0543,-165.7895"/>
<text text-anchor="middle" x="98.1932" y="-171.5958" font-family="Times,serif" font-size="14.00" fill="#000000">1</text>
</g>
<!-- Florian -->
<g id="node4" class="node">
<title>Florian</title>
<ellipse fill="none" stroke="#000000" cx="38.3466" cy="-354.7958" rx="36.2938" ry="36.2938"/>
<text text-anchor="middle" x="38.3466" y="-351.0958" font-family="Times,serif" font-size="14.00" fill="#000000">Florian</text>
</g>
<!-- Florian&#45;&gt;Natation (2) -->
<g id="edge3" class="edge">
<title>Florian&#45;&gt;Natation (2)</title>
<path fill="none" stroke="#000000" d="M68.7087,-334.3737C83.9067,-324.1512 102.7561,-311.4727 120.2682,-299.6937"/>
<polygon fill="#000000" stroke="#000000" points="122.3915,-302.4837 128.7358,-293.9983 118.4847,-296.6753 122.3915,-302.4837"/>
<text text-anchor="middle" x="98.1932" y="-317.5958" font-family="Times,serif" font-size="14.00" fill="#000000">1</text>
</g>
<!-- Angele -->
<g id="node5" class="node">
<title>Angele</title>
<ellipse fill="none" stroke="#000000" cx="38.3466" cy="-263.7958" rx="36.2938" ry="36.2938"/>
<text text-anchor="middle" x="38.3466" y="-260.0958" font-family="Times,serif" font-size="14.00" fill="#000000">Angele</text>
</g>
<!-- Angele&#45;&gt;Natation (2) -->
<g id="edge4" class="edge">
<title>Angele&#45;&gt;Natation (2)</title>
<path fill="none" stroke="#000000" d="M74.9585,-263.7958C85.5506,-263.7958 97.4388,-263.7958 109.1975,-263.7958"/>
<polygon fill="#000000" stroke="#000000" points="109.4619,-267.2959 119.4618,-263.7958 109.4618,-260.2959 109.4619,-267.2959"/>
<text text-anchor="middle" x="98.1932" y="-267.5958" font-family="Times,serif" font-size="14.00" fill="#000000">4</text>
</g>
<!-- Laurent -->
<g id="node6" class="node">
<title>Laurent</title>
<ellipse fill="none" stroke="#000000" cx="38.3466" cy="-95.7958" rx="38.1938" ry="38.1938"/>
<text text-anchor="middle" x="38.3466" y="-92.0958" font-family="Times,serif" font-size="14.00" fill="#000000">Laurent</text>
</g>
<!-- Laurent&#45;&gt;Natation (2) -->
<g id="edge5" class="edge">
<title>Laurent&#45;&gt;Natation (2)</title>
<path fill="none" stroke="#000000" d="M70.5239,-117.1869C81.6476,-125.8951 93.3905,-136.7548 101.6932,-148.7958 115.5764,-168.9299 107.5267,-179.5803 119.6932,-200.7958 122.676,-205.9972 126.1158,-211.1734 129.7849,-216.1948"/>
<polygon fill="#000000" stroke="#000000" points="127.2733,-218.6713 136.136,-224.4767 132.828,-214.4116 127.2733,-218.6713"/>
<text text-anchor="middle" x="98.1932" y="-152.5958" font-family="Times,serif" font-size="14.00" fill="#000000">1</text>
</g>
<!-- Laurent&#45;&gt;Judo (1) -->
<g id="edge6" class="edge">
<title>Laurent&#45;&gt;Judo (1)</title>
<path fill="none" stroke="#000000" d="M76.8943,-97.0315C85.2491,-98.1274 93.9092,-99.9193 101.6932,-102.7958 112.9891,-106.9703 124.2238,-113.2937 134.3408,-120.0238"/>
<polygon fill="#000000" stroke="#000000" points="132.3448,-122.8988 142.5531,-125.7345 136.3412,-117.1517 132.3448,-122.8988"/>
<text text-anchor="middle" x="98.1932" y="-106.5958" font-family="Times,serif" font-size="14.00" fill="#000000">1</text>
</g>
<!-- Karate (3) -->
<g id="node7" class="node">
<title>Karate (3)</title>
<ellipse fill="none" stroke="#000000" cx="173.6384" cy="-46.7958" rx="46.5926" ry="46.5926"/>
<text text-anchor="middle" x="173.6384" y="-43.0958" font-family="Times,serif" font-size="14.00" fill="#000000">Karate (3)</text>
</g>
<!-- Laurent&#45;&gt;Karate (3) -->
<g id="edge7" class="edge">
<title>Laurent&#45;&gt;Karate (3)</title>
<path fill="none" stroke="#000000" d="M69.7228,-73.4032C77.5788,-68.6273 86.1971,-64.0489 94.6932,-60.7958 101.7433,-58.0964 109.3494,-55.9124 116.9595,-54.1466"/>
<polygon fill="#000000" stroke="#000000" points="117.851,-57.5359 126.9197,-52.058 116.4143,-50.6849 117.851,-57.5359"/>
<text text-anchor="middle" x="98.1932" y="-64.5958" font-family="Times,serif" font-size="14.00" fill="#000000">1</text>
</g>
</g>
</svg>
