<?xml version="1.0" encoding="UTF-8" standalone="no"?>
<!DOCTYPE svg PUBLIC "-//W3C//DTD SVG 1.1//EN"
 "http://www.w3.org/Graphics/SVG/1.1/DTD/svg11.dtd">
<!-- Generated by graphviz version 2.43.20190912.0211 (20190912.0211)
 -->
<!-- Title: %3 Pages: 1 -->
<svg width="369pt" height="2328pt"
 viewBox="0.00 0.00 368.57 2327.74" xmlns="http://www.w3.org/2000/svg" xmlns:xlink="http://www.w3.org/1999/xlink">
<g id="graph0" class="graph" transform="scale(1 1) rotate(0) translate(4 2323.74)">
<title>%3</title>
<polygon fill="white" stroke="transparent" points="-4,4 -4,-2323.74 364.57,-2323.74 364.57,4 -4,4"/>
<!-- Mael -->
<g id="node1" class="node">
<title>Mael</title>
<ellipse fill="none" stroke="black" cx="61.74" cy="-354.2" rx="33.6" ry="33.6"/>
<text text-anchor="middle" x="61.74" y="-350.5" font-family="Times,serif" font-size="14.00">Mael</text>
</g>
<!-- Basketball (10) -->
<g id="node2" class="node">
<title>Basketball (10)</title>
<ellipse fill="none" stroke="black" cx="265.03" cy="-532.2" rx="81.49" ry="81.49"/>
<text text-anchor="middle" x="265.03" y="-528.5" font-family="Times,serif" font-size="14.00">Basketball (10)</text>
</g>
<!-- Mael&#45;&gt;Basketball (10) -->
<g id="edge1" class="edge">
<title>Mael&#45;&gt;Basketball (10)</title>
<path fill="none" stroke="orange" stroke-width="2" d="M90.3,-372.41C100.93,-379.77 113.03,-388.55 123.49,-397.2 149.72,-418.88 177.04,-444.36 200.54,-467.32"/>
<polygon fill="orange" stroke="orange" stroke-width="2" points="198.12,-469.84 207.7,-474.35 203.02,-464.85 198.12,-469.84"/>
<text text-anchor="middle" x="146.49" y="-422" font-family="Times,serif" font-size="14.00">1</text>
</g>
<!-- Natation (2) -->
<g id="node3" class="node">
<title>Natation (2)</title>
<ellipse fill="none" stroke="black" cx="265.03" cy="-148.2" rx="66.89" ry="66.89"/>
<text text-anchor="middle" x="265.03" y="-144.5" font-family="Times,serif" font-size="14.00">Natation (2)</text>
</g>
<!-- Mael&#45;&gt;Natation (2) -->
<g id="edge2" class="edge">
<title>Mael&#45;&gt;Natation (2)</title>
<path fill="none" stroke="green" d="M92.88,-340.14C112.36,-329.57 136.74,-313.3 151.49,-292.2 169.4,-266.57 152.45,-250.41 169.49,-224.2 177.6,-211.71 188.44,-200.33 199.88,-190.39"/>
<polygon fill="green" stroke="green" points="202.43,-192.83 207.88,-183.74 197.95,-187.45 202.43,-192.83"/>
<text text-anchor="middle" x="146.49" y="-308" font-family="Times,serif" font-size="14.00">0</text>
</g>
<!-- Florian -->
<g id="node4" class="node">
<title>Florian</title>
<ellipse fill="none" stroke="black" cx="61.74" cy="-44.2" rx="44.39" ry="44.39"/>
<text text-anchor="middle" x="61.74" y="-40.5" font-family="Times,serif" font-size="14.00">Florian</text>
</g>
<!-- Florian&#45;&gt;Natation (2) -->
<g id="edge3" class="edge">
<title>Florian&#45;&gt;Natation (2)</title>
<path fill="none" stroke="green" d="M101.55,-64.25C128.28,-78.06 164.49,-96.77 195.95,-113.02"/>
<polygon fill="green" stroke="green" points="194.63,-116.28 205.12,-117.76 197.84,-110.06 194.63,-116.28"/>
<text text-anchor="middle" x="146.49" y="-94" font-family="Times,serif" font-size="14.00">0</text>
</g>
<!-- Clotilde -->
<g id="node5" class="node">
<title>Clotilde</title>
<ellipse fill="none" stroke="black" cx="61.74" cy="-255.2" rx="46.59" ry="46.59"/>
<text text-anchor="middle" x="61.74" y="-251.5" font-family="Times,serif" font-size="14.00">Clotilde</text>
</g>
<!-- Clotilde&#45;&gt;Natation (2) -->
<g id="edge5" class="edge">
<title>Clotilde&#45;&gt;Natation (2)</title>
<path fill="none" stroke="green" d="M103.48,-233.54C130.14,-219.37 165.62,-200.51 196.45,-184.12"/>
<polygon fill="green" stroke="green" points="198.24,-187.13 205.43,-179.35 194.95,-180.95 198.24,-187.13"/>
<text text-anchor="middle" x="146.49" y="-216" font-family="Times,serif" font-size="14.00">0</text>
</g>
<!-- Dance (10) -->
<g id="node6" class="node">
<title>Dance (10)</title>
<ellipse fill="none" stroke="black" cx="265.03" cy="-294.2" rx="61.19" ry="61.19"/>
<text text-anchor="middle" x="265.03" y="-290.5" font-family="Times,serif" font-size="14.00">Dance (10)</text>
</g>
<!-- Clotilde&#45;&gt;Dance (10) -->
<g id="edge4" class="edge">
<title>Clotilde&#45;&gt;Dance (10)</title>
<path fill="none" stroke="orange" stroke-width="2" d="M107.92,-263.95C133.53,-268.91 166.11,-275.22 194.87,-280.8"/>
<polygon fill="orange" stroke="orange" stroke-width="2" points="194.38,-284.27 204.87,-282.73 195.72,-277.39 194.38,-284.27"/>
<text text-anchor="middle" x="146.49" y="-277" font-family="Times,serif" font-size="14.00">1</text>
</g>
<!-- Angele -->
<g id="node7" class="node">
<title>Angele</title>
<ellipse fill="none" stroke="black" cx="61.74" cy="-148.2" rx="42.49" ry="42.49"/>
<text text-anchor="middle" x="61.74" y="-144.5" font-family="Times,serif" font-size="14.00">Angele</text>
</g>
<!-- Angele&#45;&gt;Natation (2) -->
<g id="edge6" class="edge">
<title>Angele&#45;&gt;Natation (2)</title>
<path fill="none" stroke="green" d="M104.45,-148.2C128.45,-148.2 159.35,-148.2 187.56,-148.2"/>
<polygon fill="green" stroke="green" points="187.81,-151.7 197.81,-148.2 187.81,-144.7 187.81,-151.7"/>
<text text-anchor="middle" x="146.49" y="-152" font-family="Times,serif" font-size="14.00">0</text>
</g>
<!-- Basil -->
<g id="node8" class="node">
<title>Basil</title>
<ellipse fill="none" stroke="black" cx="61.74" cy="-814.2" rx="33.6" ry="33.6"/>
<text text-anchor="middle" x="61.74" y="-810.5" font-family="Times,serif" font-size="14.00">Basil</text>
</g>
<!-- Kayak (1) -->
<g id="node9" class="node">
<title>Kayak (1)</title>
<ellipse fill="none" stroke="black" cx="265.03" cy="-814.2" rx="54.69" ry="54.69"/>
<text text-anchor="middle" x="265.03" y="-810.5" font-family="Times,serif" font-size="14.00">Kayak (1)</text>
</g>
<!-- Basil&#45;&gt;Kayak (1) -->
<g id="edge7" class="edge">
<title>Basil&#45;&gt;Kayak (1)</title>
<path fill="none" stroke="orange" stroke-width="2" d="M95.98,-814.2C124.24,-814.2 165.61,-814.2 200.23,-814.2"/>
<polygon fill="orange" stroke="orange" stroke-width="2" points="200.26,-817.7 210.26,-814.2 200.26,-810.7 200.26,-817.7"/>
<text text-anchor="middle" x="146.49" y="-818" font-family="Times,serif" font-size="14.00">1</text>
</g>
<!-- Dupont -->
<g id="node10" class="node">
<title>Dupont</title>
<ellipse fill="none" stroke="black" cx="61.74" cy="-1017.2" rx="44.69" ry="44.69"/>
<text text-anchor="middle" x="61.74" y="-1013.5" font-family="Times,serif" font-size="14.00">Dupont</text>
</g>
<!-- Football (3) -->
<g id="node11" class="node">
<title>Football (3)</title>
<ellipse fill="none" stroke="black" cx="265.03" cy="-996.2" rx="63.89" ry="63.89"/>
<text text-anchor="middle" x="265.03" y="-992.5" font-family="Times,serif" font-size="14.00">Football (3)</text>
</g>
<!-- Dupont&#45;&gt;Football (3) -->
<g id="edge8" class="edge">
<title>Dupont&#45;&gt;Football (3)</title>
<path fill="none" stroke="green" d="M106.42,-1012.64C131.14,-1010.06 162.68,-1006.77 191.05,-1003.81"/>
<polygon fill="green" stroke="green" points="191.76,-1007.26 201.34,-1002.74 191.03,-1000.29 191.76,-1007.26"/>
<text text-anchor="middle" x="146.49" y="-1013" font-family="Times,serif" font-size="14.00">0</text>
</g>
<!-- Bertrand -->
<g id="node12" class="node">
<title>Bertrand</title>
<ellipse fill="none" stroke="black" cx="61.74" cy="-1260.2" rx="52.79" ry="52.79"/>
<text text-anchor="middle" x="61.74" y="-1256.5" font-family="Times,serif" font-size="14.00">Bertrand</text>
</g>
<!-- Karate (3) -->
<g id="node13" class="node">
<title>Karate (3)</title>
<ellipse fill="none" stroke="black" cx="265.03" cy="-1162.2" rx="57.69" ry="57.69"/>
<text text-anchor="middle" x="265.03" y="-1158.5" font-family="Times,serif" font-size="14.00">Karate (3)</text>
</g>
<!-- Bertrand&#45;&gt;Karate (3) -->
<g id="edge9" class="edge">
<title>Bertrand&#45;&gt;Karate (3)</title>
<path fill="none" stroke="green" d="M109.43,-1237.47C137.43,-1223.84 173.33,-1206.36 203.49,-1191.67"/>
<polygon fill="green" stroke="green" points="205.19,-1194.74 212.65,-1187.21 202.13,-1188.44 205.19,-1194.74"/>
<text text-anchor="middle" x="146.49" y="-1224" font-family="Times,serif" font-size="14.00">0</text>
</g>
<!-- Charlie -->
<g id="node14" class="node">
<title>Charlie</title>
<ellipse fill="none" stroke="black" cx="61.74" cy="-910.2" rx="44.39" ry="44.39"/>
<text text-anchor="middle" x="61.74" y="-906.5" font-family="Times,serif" font-size="14.00">Charlie</text>
</g>
<!-- Charlie&#45;&gt;Football (3) -->
<g id="edge10" class="edge">
<title>Charlie&#45;&gt;Football (3)</title>
<path fill="none" stroke="green" d="M102.99,-927.39C129.71,-938.81 165.45,-954.08 196.47,-967.33"/>
<polygon fill="green" stroke="green" points="195.35,-970.66 205.93,-971.37 198.1,-964.22 195.35,-970.66"/>
<text text-anchor="middle" x="146.49" y="-952" font-family="Times,serif" font-size="14.00">0</text>
</g>
<!-- Anasthasia -->
<g id="node15" class="node">
<title>Anasthasia</title>
<ellipse fill="none" stroke="black" cx="61.74" cy="-468.2" rx="61.99" ry="61.99"/>
<text text-anchor="middle" x="61.74" y="-464.5" font-family="Times,serif" font-size="14.00">Anasthasia</text>
</g>
<!-- Anasthasia&#45;&gt;Basketball (10) -->
<g id="edge11" class="edge">
<title>Anasthasia&#45;&gt;Basketball (10)</title>
<path fill="none" stroke="green" d="M120.69,-486.62C138.48,-492.28 158.45,-498.63 177.7,-504.75"/>
<polygon fill="green" stroke="green" points="176.79,-508.13 187.39,-507.83 178.92,-501.46 176.79,-508.13"/>
<text text-anchor="middle" x="146.49" y="-501" font-family="Times,serif" font-size="14.00">0</text>
</g>
<!-- Caroline -->
<g id="node16" class="node">
<title>Caroline</title>
<ellipse fill="none" stroke="black" cx="61.74" cy="-712.2" rx="50.09" ry="50.09"/>
<text text-anchor="middle" x="61.74" y="-708.5" font-family="Times,serif" font-size="14.00">Caroline</text>
</g>
<!-- Caroline&#45;&gt;Basketball (10) -->
<g id="edge12" class="edge">
<title>Caroline&#45;&gt;Basketball (10)</title>
<path fill="none" stroke="green" d="M99.66,-679.18C126.56,-655.13 163.78,-621.85 195.99,-593.04"/>
<polygon fill="green" stroke="green" points="198.52,-595.48 203.64,-586.2 193.85,-590.26 198.52,-595.48"/>
<text text-anchor="middle" x="146.49" y="-643" font-family="Times,serif" font-size="14.00">0</text>
</g>
<!-- Alexis -->
<g id="node17" class="node">
<title>Alexis</title>
<ellipse fill="none" stroke="black" cx="61.74" cy="-1369.2" rx="38.19" ry="38.19"/>
<text text-anchor="middle" x="61.74" y="-1365.5" font-family="Times,serif" font-size="14.00">Alexis</text>
</g>
<!-- Athletisme (1) -->
<g id="node18" class="node">
<title>Athletisme (1)</title>
<ellipse fill="none" stroke="black" cx="265.03" cy="-1369.2" rx="76.89" ry="76.89"/>
<text text-anchor="middle" x="265.03" y="-1365.5" font-family="Times,serif" font-size="14.00">Athletisme (1)</text>
</g>
<!-- Alexis&#45;&gt;Athletisme (1) -->
<g id="edge13" class="edge">
<title>Alexis&#45;&gt;Athletisme (1)</title>
<path fill="none" stroke="green" d="M100.13,-1369.2C122.01,-1369.2 150.59,-1369.2 177.75,-1369.2"/>
<polygon fill="green" stroke="green" points="178.07,-1372.7 188.07,-1369.2 178.07,-1365.7 178.07,-1372.7"/>
<text text-anchor="middle" x="146.49" y="-1373" font-family="Times,serif" font-size="14.00">0</text>
</g>
<!-- Floriane -->
<g id="node19" class="node">
<title>Floriane</title>
<ellipse fill="none" stroke="black" cx="61.74" cy="-1543.2" rx="49.29" ry="49.29"/>
<text text-anchor="middle" x="61.74" y="-1539.5" font-family="Times,serif" font-size="14.00">Floriane</text>
</g>
<!-- Skateboard (1) -->
<g id="node20" class="node">
<title>Skateboard (1)</title>
<ellipse fill="none" stroke="black" cx="265.03" cy="-1543.2" rx="79.09" ry="79.09"/>
<text text-anchor="middle" x="265.03" y="-1539.5" font-family="Times,serif" font-size="14.00">Skateboard (1)</text>
</g>
<!-- Floriane&#45;&gt;Skateboard (1) -->
<g id="edge14" class="edge">
<title>Floriane&#45;&gt;Skateboard (1)</title>
<path fill="none" stroke="green" d="M111.21,-1543.2C130.48,-1543.2 153.28,-1543.2 175.3,-1543.2"/>
<polygon fill="green" stroke="green" points="175.35,-1546.7 185.35,-1543.2 175.35,-1539.7 175.35,-1546.7"/>
<text text-anchor="middle" x="146.49" y="-1547" font-family="Times,serif" font-size="14.00">0</text>
</g>
<!-- Aurelien -->
<g id="node21" class="node">
<title>Aurelien</title>
<ellipse fill="none" stroke="black" cx="61.74" cy="-1723.2" rx="50.09" ry="50.09"/>
<text text-anchor="middle" x="61.74" y="-1719.5" font-family="Times,serif" font-size="14.00">Aurelien</text>
</g>
<!-- Badminton (20) -->
<g id="node22" class="node">
<title>Badminton (20)</title>
<ellipse fill="none" stroke="black" cx="265.03" cy="-1723.2" rx="83.39" ry="83.39"/>
<text text-anchor="middle" x="265.03" y="-1719.5" font-family="Times,serif" font-size="14.00">Badminton (20)</text>
</g>
<!-- Aurelien&#45;&gt;Badminton (20) -->
<g id="edge15" class="edge">
<title>Aurelien&#45;&gt;Badminton (20)</title>
<path fill="none" stroke="green" d="M111.98,-1723.2C129.99,-1723.2 150.99,-1723.2 171.54,-1723.2"/>
<polygon fill="green" stroke="green" points="171.57,-1726.7 181.57,-1723.2 171.57,-1719.7 171.57,-1726.7"/>
<text text-anchor="middle" x="146.49" y="-1727" font-family="Times,serif" font-size="14.00">0</text>
</g>
<!-- Martin -->
<g id="node23" class="node">
<title>Martin</title>
<ellipse fill="none" stroke="black" cx="61.74" cy="-1890.2" rx="42.49" ry="42.49"/>
<text text-anchor="middle" x="61.74" y="-1886.5" font-family="Times,serif" font-size="14.00">Martin</text>
</g>
<!-- Baseball (1) -->
<g id="node24" class="node">
<title>Baseball (1)</title>
<ellipse fill="none" stroke="black" cx="265.03" cy="-1890.2" rx="65.79" ry="65.79"/>
<text text-anchor="middle" x="265.03" y="-1886.5" font-family="Times,serif" font-size="14.00">Baseball (1)</text>
</g>
<!-- Martin&#45;&gt;Baseball (1) -->
<g id="edge16" class="edge">
<title>Martin&#45;&gt;Baseball (1)</title>
<path fill="none" stroke="green" d="M104.45,-1890.2C128.97,-1890.2 160.69,-1890.2 189.38,-1890.2"/>
<polygon fill="green" stroke="green" points="189.39,-1893.7 199.39,-1890.2 189.39,-1886.7 189.39,-1893.7"/>
<text text-anchor="middle" x="146.49" y="-1894" font-family="Times,serif" font-size="14.00">0</text>
</g>
<!-- Axel -->
<g id="node25" class="node">
<title>Axel</title>
<ellipse fill="none" stroke="black" cx="61.74" cy="-2042.2" rx="30.59" ry="30.59"/>
<text text-anchor="middle" x="61.74" y="-2038.5" font-family="Times,serif" font-size="14.00">Axel</text>
</g>
<!-- Handball (1) -->
<g id="node26" class="node">
<title>Handball (1)</title>
<ellipse fill="none" stroke="black" cx="265.03" cy="-2042.2" rx="68.49" ry="68.49"/>
<text text-anchor="middle" x="265.03" y="-2038.5" font-family="Times,serif" font-size="14.00">Handball (1)</text>
</g>
<!-- Axel&#45;&gt;Handball (1) -->
<g id="edge17" class="edge">
<title>Axel&#45;&gt;Handball (1)</title>
<path fill="none" stroke="green" d="M92.44,-2042.2C117.22,-2042.2 153.67,-2042.2 186.61,-2042.2"/>
<polygon fill="green" stroke="green" points="186.7,-2045.7 196.7,-2042.2 186.7,-2038.7 186.7,-2045.7"/>
<text text-anchor="middle" x="146.49" y="-2046" font-family="Times,serif" font-size="14.00">0</text>
</g>
<!-- Gatwick -->
<g id="node27" class="node">
<title>Gatwick</title>
<ellipse fill="none" stroke="black" cx="61.74" cy="-596.2" rx="48.19" ry="48.19"/>
<text text-anchor="middle" x="61.74" y="-592.5" font-family="Times,serif" font-size="14.00">Gatwick</text>
</g>
<!-- Gatwick&#45;&gt;Basketball (10) -->
<g id="edge18" class="edge">
<title>Gatwick&#45;&gt;Basketball (10)</title>
<path fill="none" stroke="green" d="M107.92,-581.83C128.5,-575.29 153.57,-567.32 177.56,-559.69"/>
<polygon fill="green" stroke="green" points="178.92,-562.93 187.39,-556.56 176.8,-556.26 178.92,-562.93"/>
<text text-anchor="middle" x="146.49" y="-574" font-family="Times,serif" font-size="14.00">0</text>
</g>
<!-- Laurent -->
<g id="node28" class="node">
<title>Laurent</title>
<ellipse fill="none" stroke="black" cx="61.74" cy="-1142.2" rx="47.39" ry="47.39"/>
<text text-anchor="middle" x="61.74" y="-1138.5" font-family="Times,serif" font-size="14.00">Laurent</text>
</g>
<!-- Laurent&#45;&gt;Karate (3) -->
<g id="edge19" class="edge">
<title>Laurent&#45;&gt;Karate (3)</title>
<path fill="none" stroke="green" d="M109.18,-1146.81C135.35,-1149.41 168.49,-1152.7 197.4,-1155.58"/>
<polygon fill="green" stroke="green" points="197.13,-1159.07 207.42,-1156.57 197.82,-1152.1 197.13,-1159.07"/>
<text text-anchor="middle" x="146.49" y="-1155" font-family="Times,serif" font-size="14.00">0</text>
</g>
<!-- Bernard -->
<g id="node29" class="node">
<title>Bernard</title>
<ellipse fill="none" stroke="black" cx="61.74" cy="-2224.2" rx="48.99" ry="48.99"/>
<text text-anchor="middle" x="61.74" y="-2220.5" font-family="Times,serif" font-size="14.00">Bernard</text>
</g>
<!-- LancerDePoids (1) -->
<g id="node30" class="node">
<title>LancerDePoids (1)</title>
<ellipse fill="none" stroke="black" cx="265.03" cy="-2224.2" rx="95.58" ry="95.58"/>
<text text-anchor="middle" x="265.03" y="-2220.5" font-family="Times,serif" font-size="14.00">LancerDePoids (1)</text>
</g>
<!-- Bernard&#45;&gt;LancerDePoids (1) -->
<g id="edge20" class="edge">
<title>Bernard&#45;&gt;LancerDePoids (1)</title>
<path fill="none" stroke="green" d="M110.7,-2224.2C125.48,-2224.2 142.36,-2224.2 159.4,-2224.2"/>
<polygon fill="green" stroke="green" points="159.43,-2227.7 169.43,-2224.2 159.43,-2220.7 159.43,-2227.7"/>
<text text-anchor="middle" x="146.49" y="-2228" font-family="Times,serif" font-size="14.00">0</text>
</g>
</g>
</svg>
