<?xml version="1.0" encoding="UTF-8" standalone="no"?>
<!DOCTYPE svg PUBLIC "-//W3C//DTD SVG 1.1//EN"
 "http://www.w3.org/Graphics/SVG/1.1/DTD/svg11.dtd">
<!-- Generated by graphviz version 2.43.20190912.0211 (20190912.0211)
 -->
<!-- Title: finite_state_machine Pages: 1 -->
<svg width="495pt" height="1452pt"
 viewBox="0.00 0.00 494.78 1451.75" xmlns="http://www.w3.org/2000/svg" xmlns:xlink="http://www.w3.org/1999/xlink">
<g id="graph0" class="graph" transform="scale(1 1) rotate(0) translate(4 1447.75)">
<title>finite_state_machine</title>
<polygon fill="white" stroke="transparent" points="-4,4 -4,-1447.75 490.78,-1447.75 490.78,4 -4,4"/>
<!-- 8 -->
<g id="node1" class="node">
<title>8</title>
<ellipse fill="none" stroke="black" cx="174.64" cy="-1386.75" rx="18" ry="18"/>
<text text-anchor="middle" x="174.64" y="-1383.05" font-family="Times,serif" font-size="14.00">8</text>
</g>
<!-- 3 -->
<g id="node2" class="node">
<title>3</title>
<ellipse fill="none" stroke="black" cx="303.14" cy="-1146.75" rx="18" ry="18"/>
<text text-anchor="middle" x="303.14" y="-1143.05" font-family="Times,serif" font-size="14.00">3</text>
</g>
<!-- 8&#45;&gt;3 -->
<g id="edge1" class="edge">
<title>8&#45;&gt;3</title>
<path fill="none" stroke="black" d="M190.6,-1378.35C212.97,-1365.49 253.45,-1340.92 262.39,-1326.75 289.28,-1284.1 268.68,-1263.79 280.39,-1214.75 283.72,-1200.81 288.48,-1185.59 292.69,-1173.09"/>
<polygon fill="black" stroke="black" points="296.11,-1173.91 296.07,-1163.32 289.5,-1171.63 296.11,-1173.91"/>
<text text-anchor="middle" x="238.89" y="-1365.55" font-family="Times,serif" font-size="14.00">0/1 (4)</text>
</g>
<!-- 2 -->
<g id="node3" class="node">
<title>2</title>
<ellipse fill="none" stroke="black" cx="303.14" cy="-1315.75" rx="18" ry="18"/>
<text text-anchor="middle" x="303.14" y="-1312.05" font-family="Times,serif" font-size="14.00">2</text>
</g>
<!-- 8&#45;&gt;2 -->
<g id="edge2" class="edge">
<title>8&#45;&gt;2</title>
<path fill="none" stroke="black" d="M186.59,-1400.41C193.82,-1408.29 204.04,-1417.46 215.39,-1421.75 234.93,-1429.13 245.22,-1433.65 262.39,-1421.75 287.55,-1404.31 296.81,-1368.86 300.2,-1343.76"/>
<polygon fill="black" stroke="black" points="303.69,-1344.05 301.32,-1333.72 296.73,-1343.27 303.69,-1344.05"/>
<text text-anchor="middle" x="238.89" y="-1432.55" font-family="Times,serif" font-size="14.00">0/1 (0)</text>
</g>
<!-- 1 -->
<g id="node4" class="node">
<title>1</title>
<ellipse fill="none" stroke="black" cx="303.14" cy="-1241.75" rx="18" ry="18"/>
<text text-anchor="middle" x="303.14" y="-1238.05" font-family="Times,serif" font-size="14.00">1</text>
</g>
<!-- 8&#45;&gt;1 -->
<g id="edge3" class="edge">
<title>8&#45;&gt;1</title>
<path fill="none" stroke="black" d="M192.19,-1391.69C211.45,-1396.33 243.06,-1400.33 262.39,-1383.75 295.01,-1355.77 267.27,-1329.67 280.39,-1288.75 282.77,-1281.33 286.03,-1273.55 289.3,-1266.51"/>
<polygon fill="black" stroke="black" points="292.47,-1267.98 293.69,-1257.45 286.17,-1264.93 292.47,-1267.98"/>
<text text-anchor="middle" x="238.89" y="-1398.55" font-family="Times,serif" font-size="14.00">0/1 (0)</text>
</g>
<!-- 9999 -->
<g id="node28" class="node">
<title>9999</title>
<ellipse fill="none" stroke="black" cx="452.33" cy="-949.75" rx="34.39" ry="34.39"/>
<text text-anchor="middle" x="452.33" y="-946.05" font-family="Times,serif" font-size="14.00">9999</text>
</g>
<!-- 3&#45;&gt;9999 -->
<g id="edge66" class="edge">
<title>3&#45;&gt;9999</title>
<path fill="none" stroke="black" d="M319.85,-1139.24C340.77,-1128.52 377.7,-1106.96 399.89,-1078.75 419.71,-1053.54 432.82,-1019.7 440.85,-993.01"/>
<polygon fill="black" stroke="black" points="444.28,-993.74 443.67,-983.16 437.55,-991.8 444.28,-993.74"/>
<text text-anchor="middle" x="371.89" y="-1128.55" font-family="Times,serif" font-size="14.00">0/3 (1)</text>
</g>
<!-- 2&#45;&gt;9999 -->
<g id="edge67" class="edge">
<title>2&#45;&gt;9999</title>
<path fill="none" stroke="black" d="M318.88,-1306.58C340.42,-1292.33 380.09,-1262.74 399.89,-1226.75 440.71,-1152.51 449.84,-1051.91 451.48,-994.62"/>
<polygon fill="black" stroke="black" points="454.98,-994.52 451.7,-984.44 447.98,-994.36 454.98,-994.52"/>
<text text-anchor="middle" x="371.89" y="-1291.55" font-family="Times,serif" font-size="14.00">0/3 (1)</text>
</g>
<!-- 1&#45;&gt;9999 -->
<g id="edge68" class="edge">
<title>1&#45;&gt;9999</title>
<path fill="none" stroke="black" d="M318.15,-1231.35C339.13,-1215.04 378.51,-1181.39 399.89,-1143.75 426.69,-1096.54 439.93,-1034.94 446.18,-993.95"/>
<polygon fill="black" stroke="black" points="449.65,-994.39 447.62,-983.99 442.72,-993.39 449.65,-994.39"/>
<text text-anchor="middle" x="371.89" y="-1211.55" font-family="Times,serif" font-size="14.00">0/20 (1)</text>
</g>
<!-- 9998 -->
<g id="node5" class="node">
<title>9998</title>
<ellipse fill="none" stroke="black" cx="34.45" cy="-652.75" rx="34.39" ry="34.39"/>
<text text-anchor="middle" x="34.45" y="-649.05" font-family="Times,serif" font-size="14.00">9998</text>
</g>
<!-- 9998&#45;&gt;8 -->
<g id="edge4" class="edge">
<title>9998&#45;&gt;8</title>
<path fill="none" stroke="black" d="M36.24,-687.29C39.12,-798.48 50.87,-1146.03 86.89,-1251.75 102.07,-1296.29 134.98,-1340.82 155.62,-1365.97"/>
<polygon fill="black" stroke="black" points="153.01,-1368.3 162.11,-1373.73 158.38,-1363.81 153.01,-1368.3"/>
<text text-anchor="middle" x="110.39" y="-1338.55" font-family="Times,serif" font-size="14.00">0/1 (1)</text>
</g>
<!-- 7 -->
<g id="node6" class="node">
<title>7</title>
<ellipse fill="none" stroke="black" cx="174.64" cy="-1272.75" rx="18" ry="18"/>
<text text-anchor="middle" x="174.64" y="-1269.05" font-family="Times,serif" font-size="14.00">7</text>
</g>
<!-- 9998&#45;&gt;7 -->
<g id="edge5" class="edge">
<title>9998&#45;&gt;7</title>
<path fill="none" stroke="black" d="M36.35,-687.35C39.36,-787.93 51.02,-1078.64 86.89,-1165.75 101.67,-1201.63 132.57,-1235.01 153.21,-1254.65"/>
<polygon fill="black" stroke="black" points="150.86,-1257.24 160.57,-1261.48 155.62,-1252.11 150.86,-1257.24"/>
<text text-anchor="middle" x="110.39" y="-1236.55" font-family="Times,serif" font-size="14.00">0/1 (1)</text>
</g>
<!-- 29 -->
<g id="node7" class="node">
<title>29</title>
<ellipse fill="none" stroke="black" cx="174.64" cy="-1024.75" rx="23" ry="23"/>
<text text-anchor="middle" x="174.64" y="-1021.05" font-family="Times,serif" font-size="14.00">29</text>
</g>
<!-- 9998&#45;&gt;29 -->
<g id="edge6" class="edge">
<title>9998&#45;&gt;29</title>
<path fill="none" stroke="black" d="M38.19,-687.19C44.23,-756.64 60.27,-910.67 86.89,-955.75 100.67,-979.06 125.51,-997.59 145.09,-1009.56"/>
<polygon fill="black" stroke="black" points="143.53,-1012.7 153.93,-1014.74 147.07,-1006.66 143.53,-1012.7"/>
<text text-anchor="middle" x="110.39" y="-1004.55" font-family="Times,serif" font-size="14.00">0/1 (1)</text>
</g>
<!-- 30 -->
<g id="node8" class="node">
<title>30</title>
<ellipse fill="none" stroke="black" cx="174.64" cy="-1101.75" rx="23" ry="23"/>
<text text-anchor="middle" x="174.64" y="-1098.05" font-family="Times,serif" font-size="14.00">30</text>
</g>
<!-- 9998&#45;&gt;30 -->
<g id="edge7" class="edge">
<title>9998&#45;&gt;30</title>
<path fill="none" stroke="black" d="M37.37,-687.14C42.29,-766.88 57.09,-962 86.89,-1019.75 100.64,-1046.38 126.53,-1069.09 146.47,-1083.81"/>
<polygon fill="black" stroke="black" points="144.69,-1086.84 154.87,-1089.8 148.76,-1081.15 144.69,-1086.84"/>
<text text-anchor="middle" x="110.39" y="-1076.55" font-family="Times,serif" font-size="14.00">0/1 (1)</text>
</g>
<!-- 28 -->
<g id="node9" class="node">
<title>28</title>
<ellipse fill="none" stroke="black" cx="174.64" cy="-1177.75" rx="23" ry="23"/>
<text text-anchor="middle" x="174.64" y="-1174.05" font-family="Times,serif" font-size="14.00">28</text>
</g>
<!-- 9998&#45;&gt;28 -->
<g id="edge8" class="edge">
<title>9998&#45;&gt;28</title>
<path fill="none" stroke="black" d="M36.57,-687.32C39.97,-777.97 52.16,-1020.43 86.89,-1091.75 100.46,-1119.61 126.8,-1143.68 146.92,-1159.22"/>
<polygon fill="black" stroke="black" points="145,-1162.15 155.1,-1165.34 149.19,-1156.55 145,-1162.15"/>
<text text-anchor="middle" x="110.39" y="-1150.55" font-family="Times,serif" font-size="14.00">0/1 (1)</text>
</g>
<!-- 27 -->
<g id="node10" class="node">
<title>27</title>
<ellipse fill="none" stroke="black" cx="174.64" cy="-959.75" rx="23" ry="23"/>
<text text-anchor="middle" x="174.64" y="-956.05" font-family="Times,serif" font-size="14.00">27</text>
</g>
<!-- 9998&#45;&gt;27 -->
<g id="edge9" class="edge">
<title>9998&#45;&gt;27</title>
<path fill="none" stroke="black" d="M35.58,-687.31C37.28,-736.59 46.24,-828.21 86.89,-892.75 101.08,-915.27 125.65,-933.18 145.03,-944.79"/>
<polygon fill="black" stroke="black" points="143.38,-947.88 153.79,-949.83 146.87,-941.81 143.38,-947.88"/>
<text text-anchor="middle" x="110.39" y="-940.55" font-family="Times,serif" font-size="14.00">0/1 (1)</text>
</g>
<!-- 26 -->
<g id="node11" class="node">
<title>26</title>
<ellipse fill="none" stroke="black" cx="174.64" cy="-896.75" rx="23" ry="23"/>
<text text-anchor="middle" x="174.64" y="-893.05" font-family="Times,serif" font-size="14.00">26</text>
</g>
<!-- 9998&#45;&gt;26 -->
<g id="edge10" class="edge">
<title>9998&#45;&gt;26</title>
<path fill="none" stroke="black" d="M38.86,-686.95C44.03,-724.94 56.7,-786.7 86.89,-830.75 101.79,-852.48 126.14,-870.09 145.25,-881.64"/>
<polygon fill="black" stroke="black" points="143.75,-884.82 154.15,-886.82 147.27,-878.76 143.75,-884.82"/>
<text text-anchor="middle" x="110.39" y="-877.55" font-family="Times,serif" font-size="14.00">0/1 (1)</text>
</g>
<!-- 25 -->
<g id="node12" class="node">
<title>25</title>
<ellipse fill="none" stroke="black" cx="174.64" cy="-652.75" rx="23" ry="23"/>
<text text-anchor="middle" x="174.64" y="-649.05" font-family="Times,serif" font-size="14.00">25</text>
</g>
<!-- 9998&#45;&gt;25 -->
<g id="edge11" class="edge">
<title>9998&#45;&gt;25</title>
<path fill="none" stroke="black" d="M68.9,-652.75C91,-652.75 119.81,-652.75 141.62,-652.75"/>
<polygon fill="black" stroke="black" points="141.7,-656.25 151.7,-652.75 141.7,-649.25 141.7,-656.25"/>
<text text-anchor="middle" x="110.39" y="-656.55" font-family="Times,serif" font-size="14.00">0/1 (1)</text>
</g>
<!-- 24 -->
<g id="node13" class="node">
<title>24</title>
<ellipse fill="none" stroke="black" cx="174.64" cy="-778.75" rx="23" ry="23"/>
<text text-anchor="middle" x="174.64" y="-775.05" font-family="Times,serif" font-size="14.00">24</text>
</g>
<!-- 9998&#45;&gt;24 -->
<g id="edge12" class="edge">
<title>9998&#45;&gt;24</title>
<path fill="none" stroke="black" d="M55.54,-680.44C64.52,-691.95 75.6,-705.08 86.89,-715.75 105.21,-733.06 128.42,-749.68 146.22,-761.5"/>
<polygon fill="black" stroke="black" points="144.7,-764.68 154.98,-767.22 148.52,-758.82 144.7,-764.68"/>
<text text-anchor="middle" x="110.39" y="-755.55" font-family="Times,serif" font-size="14.00">0/1 (1)</text>
</g>
<!-- 23 -->
<g id="node14" class="node">
<title>23</title>
<ellipse fill="none" stroke="black" cx="174.64" cy="-715.75" rx="23" ry="23"/>
<text text-anchor="middle" x="174.64" y="-712.05" font-family="Times,serif" font-size="14.00">23</text>
</g>
<!-- 9998&#45;&gt;23 -->
<g id="edge13" class="edge">
<title>9998&#45;&gt;23</title>
<path fill="none" stroke="black" d="M66.12,-666.73C89.5,-677.39 121.48,-691.97 144.48,-702.45"/>
<polygon fill="black" stroke="black" points="143.18,-705.71 153.73,-706.67 146.08,-699.34 143.18,-705.71"/>
<text text-anchor="middle" x="110.39" y="-700.55" font-family="Times,serif" font-size="14.00">0/1 (1)</text>
</g>
<!-- 19 -->
<g id="node15" class="node">
<title>19</title>
<ellipse fill="none" stroke="black" cx="174.64" cy="-589.75" rx="23" ry="23"/>
<text text-anchor="middle" x="174.64" y="-586.05" font-family="Times,serif" font-size="14.00">19</text>
</g>
<!-- 9998&#45;&gt;19 -->
<g id="edge14" class="edge">
<title>9998&#45;&gt;19</title>
<path fill="none" stroke="black" d="M66.12,-638.77C89.5,-628.11 121.48,-613.53 144.48,-603.04"/>
<polygon fill="black" stroke="black" points="146.08,-606.16 153.73,-598.82 143.18,-599.79 146.08,-606.16"/>
<text text-anchor="middle" x="110.39" y="-631.55" font-family="Times,serif" font-size="14.00">0/1 (1)</text>
</g>
<!-- 22 -->
<g id="node16" class="node">
<title>22</title>
<ellipse fill="none" stroke="black" cx="174.64" cy="-526.75" rx="23" ry="23"/>
<text text-anchor="middle" x="174.64" y="-523.05" font-family="Times,serif" font-size="14.00">22</text>
</g>
<!-- 9998&#45;&gt;22 -->
<g id="edge15" class="edge">
<title>9998&#45;&gt;22</title>
<path fill="none" stroke="black" d="M55.2,-624.87C64.19,-613.09 75.39,-599.62 86.89,-588.75 105,-571.64 128.03,-555.39 145.82,-543.82"/>
<polygon fill="black" stroke="black" points="148.04,-546.55 154.58,-538.22 144.27,-540.65 148.04,-546.55"/>
<text text-anchor="middle" x="110.39" y="-592.55" font-family="Times,serif" font-size="14.00">0/1 (1)</text>
</g>
<!-- 21 -->
<g id="node17" class="node">
<title>21</title>
<ellipse fill="none" stroke="black" cx="174.64" cy="-463.75" rx="23" ry="23"/>
<text text-anchor="middle" x="174.64" y="-460.05" font-family="Times,serif" font-size="14.00">21</text>
</g>
<!-- 9998&#45;&gt;21 -->
<g id="edge16" class="edge">
<title>9998&#45;&gt;21</title>
<path fill="none" stroke="black" d="M44.94,-619.69C53.26,-594.46 67.14,-559.73 86.89,-533.75 103.27,-512.2 127.64,-493.31 146.39,-480.6"/>
<polygon fill="black" stroke="black" points="148.4,-483.46 154.82,-475.04 144.54,-477.62 148.4,-483.46"/>
<text text-anchor="middle" x="110.39" y="-537.55" font-family="Times,serif" font-size="14.00">0/1 (1)</text>
</g>
<!-- 20 -->
<g id="node18" class="node">
<title>20</title>
<ellipse fill="none" stroke="black" cx="174.64" cy="-400.75" rx="23" ry="23"/>
<text text-anchor="middle" x="174.64" y="-397.05" font-family="Times,serif" font-size="14.00">20</text>
</g>
<!-- 9998&#45;&gt;20 -->
<g id="edge17" class="edge">
<title>9998&#45;&gt;20</title>
<path fill="none" stroke="black" d="M38.87,-618.29C44.07,-579.63 56.77,-516.37 86.89,-470.75 101.9,-448.02 126.62,-429.13 145.84,-416.73"/>
<polygon fill="black" stroke="black" points="147.86,-419.59 154.5,-411.33 144.16,-413.65 147.86,-419.59"/>
<text text-anchor="middle" x="110.39" y="-474.55" font-family="Times,serif" font-size="14.00">0/1 (1)</text>
</g>
<!-- 18 -->
<g id="node19" class="node">
<title>18</title>
<ellipse fill="none" stroke="black" cx="174.64" cy="-211.75" rx="23" ry="23"/>
<text text-anchor="middle" x="174.64" y="-208.05" font-family="Times,serif" font-size="14.00">18</text>
</g>
<!-- 9998&#45;&gt;18 -->
<g id="edge18" class="edge">
<title>9998&#45;&gt;18</title>
<path fill="none" stroke="black" d="M36.84,-618.29C40.65,-536.9 53.31,-335.28 86.89,-277.75 100.32,-254.75 125.19,-237.09 144.88,-225.86"/>
<polygon fill="black" stroke="black" points="146.67,-228.86 153.77,-221 143.32,-222.72 146.67,-228.86"/>
<text text-anchor="middle" x="110.39" y="-281.55" font-family="Times,serif" font-size="14.00">0/1 (1)</text>
</g>
<!-- 17 -->
<g id="node20" class="node">
<title>17</title>
<ellipse fill="none" stroke="black" cx="174.64" cy="-148.75" rx="23" ry="23"/>
<text text-anchor="middle" x="174.64" y="-145.05" font-family="Times,serif" font-size="14.00">17</text>
</g>
<!-- 9998&#45;&gt;17 -->
<g id="edge19" class="edge">
<title>9998&#45;&gt;17</title>
<path fill="none" stroke="black" d="M36.06,-618.31C38.22,-527.47 47.61,-283.57 86.89,-214.75 100.09,-191.62 124.99,-173.98 144.74,-162.78"/>
<polygon fill="black" stroke="black" points="146.54,-165.78 153.67,-157.94 143.21,-159.63 146.54,-165.78"/>
<text text-anchor="middle" x="110.39" y="-218.55" font-family="Times,serif" font-size="14.00">0/1 (1)</text>
</g>
<!-- 15 -->
<g id="node21" class="node">
<title>15</title>
<ellipse fill="none" stroke="black" cx="174.64" cy="-85.75" rx="23" ry="23"/>
<text text-anchor="middle" x="174.64" y="-82.05" font-family="Times,serif" font-size="14.00">15</text>
</g>
<!-- 9998&#45;&gt;15 -->
<g id="edge20" class="edge">
<title>9998&#45;&gt;15</title>
<path fill="none" stroke="black" d="M35.48,-618.15C36.11,-518.33 41.91,-231.91 86.89,-151.75 99.93,-128.53 124.84,-110.89 144.64,-99.72"/>
<polygon fill="black" stroke="black" points="146.44,-102.72 153.59,-94.9 143.13,-96.56 146.44,-102.72"/>
<text text-anchor="middle" x="110.39" y="-155.55" font-family="Times,serif" font-size="14.00">0/1 (1)</text>
</g>
<!-- 14 -->
<g id="node22" class="node">
<title>14</title>
<ellipse fill="none" stroke="black" cx="174.64" cy="-22.75" rx="23" ry="23"/>
<text text-anchor="middle" x="174.64" y="-19.05" font-family="Times,serif" font-size="14.00">14</text>
</g>
<!-- 9998&#45;&gt;14 -->
<g id="edge21" class="edge">
<title>9998&#45;&gt;14</title>
<path fill="none" stroke="black" d="M35.02,-618.11C34.24,-509.97 36.17,-180.36 86.89,-88.75 99.79,-65.45 124.72,-47.83 144.56,-36.67"/>
<polygon fill="black" stroke="black" points="146.37,-39.67 153.53,-31.87 143.06,-33.5 146.37,-39.67"/>
<text text-anchor="middle" x="110.39" y="-92.55" font-family="Times,serif" font-size="14.00">0/1 (1)</text>
</g>
<!-- 13 -->
<g id="node23" class="node">
<title>13</title>
<ellipse fill="none" stroke="black" cx="174.64" cy="-274.75" rx="23" ry="23"/>
<text text-anchor="middle" x="174.64" y="-271.05" font-family="Times,serif" font-size="14.00">13</text>
</g>
<!-- 9998&#45;&gt;13 -->
<g id="edge22" class="edge">
<title>9998&#45;&gt;13</title>
<path fill="none" stroke="black" d="M37.92,-618.32C43.53,-547.27 58.97,-387.13 86.89,-340.75 100.54,-318.07 125.17,-300.48 144.7,-289.18"/>
<polygon fill="black" stroke="black" points="146.49,-292.19 153.54,-284.29 143.09,-286.07 146.49,-292.19"/>
<text text-anchor="middle" x="110.39" y="-344.55" font-family="Times,serif" font-size="14.00">0/1 (1)</text>
</g>
<!-- 12 -->
<g id="node24" class="node">
<title>12</title>
<ellipse fill="none" stroke="black" cx="174.64" cy="-337.75" rx="23" ry="23"/>
<text text-anchor="middle" x="174.64" y="-334.05" font-family="Times,serif" font-size="14.00">12</text>
</g>
<!-- 9998&#45;&gt;12 -->
<g id="edge23" class="edge">
<title>9998&#45;&gt;12</title>
<path fill="none" stroke="black" d="M35.36,-618.08C36.77,-567.63 45.3,-472.73 86.89,-405.75 101.1,-382.87 125.9,-364.6 145.35,-352.78"/>
<polygon fill="black" stroke="black" points="147.26,-355.72 154.13,-347.66 143.73,-349.68 147.26,-355.72"/>
<text text-anchor="middle" x="110.39" y="-409.55" font-family="Times,serif" font-size="14.00">0/1 (1)</text>
</g>
<!-- 9 -->
<g id="node25" class="node">
<title>9</title>
<ellipse fill="none" stroke="black" cx="174.64" cy="-837.75" rx="18" ry="18"/>
<text text-anchor="middle" x="174.64" y="-834.05" font-family="Times,serif" font-size="14.00">9</text>
</g>
<!-- 9998&#45;&gt;9 -->
<g id="edge24" class="edge">
<title>9998&#45;&gt;9</title>
<path fill="none" stroke="black" d="M44.84,-685.65C53.11,-710.73 66.97,-745.19 86.89,-770.75 104.29,-793.06 130.74,-812.05 149.86,-824.06"/>
<polygon fill="black" stroke="black" points="148.22,-827.16 158.58,-829.37 151.86,-821.18 148.22,-827.16"/>
<text text-anchor="middle" x="110.39" y="-815.55" font-family="Times,serif" font-size="14.00">0/1 (1)</text>
</g>
<!-- 7&#45;&gt;3 -->
<g id="edge25" class="edge">
<title>7&#45;&gt;3</title>
<path fill="none" stroke="black" d="M190.75,-1264.18C212.5,-1251.65 251.25,-1228.54 262.39,-1216.75 274.55,-1203.87 284.42,-1186.59 291.28,-1172.41"/>
<polygon fill="black" stroke="black" points="294.52,-1173.74 295.53,-1163.19 288.16,-1170.8 294.52,-1173.74"/>
<text text-anchor="middle" x="238.89" y="-1252.55" font-family="Times,serif" font-size="14.00">0/1 (4)</text>
</g>
<!-- 7&#45;&gt;2 -->
<g id="edge26" class="edge">
<title>7&#45;&gt;2</title>
<path fill="none" stroke="black" d="M190.28,-1282.09C197.6,-1286.43 206.72,-1291.37 215.39,-1294.75 234.76,-1302.29 257.65,-1307.7 275.05,-1311.13"/>
<polygon fill="black" stroke="black" points="274.63,-1314.61 285.1,-1313.02 275.92,-1307.73 274.63,-1314.61"/>
<text text-anchor="middle" x="238.89" y="-1311.55" font-family="Times,serif" font-size="14.00">0/1 (0)</text>
</g>
<!-- 7&#45;&gt;1 -->
<g id="edge27" class="edge">
<title>7&#45;&gt;1</title>
<path fill="none" stroke="black" d="M192.78,-1274.98C210.66,-1276.66 239.25,-1277.52 262.39,-1269.75 268.9,-1267.56 275.29,-1263.93 280.97,-1260.01"/>
<polygon fill="black" stroke="black" points="283.38,-1262.57 289.25,-1253.75 279.16,-1256.99 283.38,-1262.57"/>
<text text-anchor="middle" x="238.89" y="-1279.55" font-family="Times,serif" font-size="14.00">0/1 (0)</text>
</g>
<!-- 29&#45;&gt;3 -->
<g id="edge30" class="edge">
<title>29&#45;&gt;3</title>
<path fill="none" stroke="black" d="M195.9,-1033.61C220.77,-1044.55 259.98,-1062.07 262.39,-1064.75 279.04,-1083.23 268.78,-1095.74 280.39,-1117.75 281.69,-1120.22 283.2,-1122.71 284.8,-1125.13"/>
<polygon fill="black" stroke="black" points="282.12,-1127.4 290.8,-1133.48 287.8,-1123.31 282.12,-1127.4"/>
<text text-anchor="middle" x="238.89" y="-1068.55" font-family="Times,serif" font-size="14.00">0/1 (4)</text>
</g>
<!-- 4 -->
<g id="node26" class="node">
<title>4</title>
<ellipse fill="none" stroke="black" cx="303.14" cy="-949.75" rx="18" ry="18"/>
<text text-anchor="middle" x="303.14" y="-946.05" font-family="Times,serif" font-size="14.00">4</text>
</g>
<!-- 29&#45;&gt;4 -->
<g id="edge28" class="edge">
<title>29&#45;&gt;4</title>
<path fill="none" stroke="black" d="M194.62,-1013.23C201.19,-1009.26 208.6,-1004.79 215.39,-1000.75 236.54,-988.15 260.69,-973.97 278.13,-963.76"/>
<polygon fill="black" stroke="black" points="280.2,-966.61 287.06,-958.54 276.66,-960.56 280.2,-966.61"/>
<text text-anchor="middle" x="238.89" y="-1004.55" font-family="Times,serif" font-size="14.00">0/1 (0)</text>
</g>
<!-- 32 -->
<g id="node27" class="node">
<title>32</title>
<ellipse fill="none" stroke="black" cx="303.14" cy="-1018.75" rx="23" ry="23"/>
<text text-anchor="middle" x="303.14" y="-1015.05" font-family="Times,serif" font-size="14.00">32</text>
</g>
<!-- 29&#45;&gt;32 -->
<g id="edge29" class="edge">
<title>29&#45;&gt;32</title>
<path fill="none" stroke="black" d="M197.39,-1023.72C217.39,-1022.77 247.31,-1021.35 270.05,-1020.27"/>
<polygon fill="black" stroke="black" points="270.43,-1023.76 280.25,-1019.79 270.1,-1016.76 270.43,-1023.76"/>
<text text-anchor="middle" x="238.89" y="-1026.55" font-family="Times,serif" font-size="14.00">0/1 (0)</text>
</g>
<!-- 30&#45;&gt;3 -->
<g id="edge32" class="edge">
<title>30&#45;&gt;3</title>
<path fill="none" stroke="black" d="M196.18,-1110.29C202.33,-1112.77 209.11,-1115.44 215.39,-1117.75 235.51,-1125.15 258.53,-1132.81 275.8,-1138.4"/>
<polygon fill="black" stroke="black" points="275.14,-1141.86 285.73,-1141.59 277.28,-1135.2 275.14,-1141.86"/>
<text text-anchor="middle" x="238.89" y="-1136.55" font-family="Times,serif" font-size="14.00">0/1 (4)</text>
</g>
<!-- 30&#45;&gt;4 -->
<g id="edge31" class="edge">
<title>30&#45;&gt;4</title>
<path fill="none" stroke="black" d="M197.4,-1098.92C220.1,-1095.51 253.59,-1089.07 262.39,-1079.75 291.3,-1049.14 265.51,-1026.13 280.39,-986.75 282.14,-982.11 284.45,-977.39 286.91,-972.94"/>
<polygon fill="black" stroke="black" points="289.95,-974.68 292.04,-964.29 283.93,-971.11 289.95,-974.68"/>
<text text-anchor="middle" x="238.89" y="-1098.55" font-family="Times,serif" font-size="14.00">0/1 (0)</text>
</g>
<!-- 28&#45;&gt;3 -->
<g id="edge36" class="edge">
<title>28&#45;&gt;3</title>
<path fill="none" stroke="black" d="M195.09,-1187.77C213.25,-1195.66 240.72,-1203.8 262.39,-1193.75 272.82,-1188.91 281.51,-1179.83 288.07,-1170.94"/>
<polygon fill="black" stroke="black" points="291,-1172.85 293.7,-1162.61 285.2,-1168.93 291,-1172.85"/>
<text text-anchor="middle" x="238.89" y="-1201.55" font-family="Times,serif" font-size="14.00">0/1 (4)</text>
</g>
<!-- 31 -->
<g id="node29" class="node">
<title>31</title>
<ellipse fill="none" stroke="black" cx="303.14" cy="-1085.75" rx="23" ry="23"/>
<text text-anchor="middle" x="303.14" y="-1082.05" font-family="Times,serif" font-size="14.00">31</text>
</g>
<!-- 28&#45;&gt;31 -->
<g id="edge35" class="edge">
<title>28&#45;&gt;31</title>
<path fill="none" stroke="black" d="M197.35,-1175.81C216.29,-1173.13 243.61,-1166.78 262.39,-1151.75 275.13,-1141.55 271.99,-1133.74 280.39,-1119.75 281.72,-1117.54 283.11,-1115.27 284.52,-1112.99"/>
<polygon fill="black" stroke="black" points="287.61,-1114.66 289.98,-1104.33 281.69,-1110.93 287.61,-1114.66"/>
<text text-anchor="middle" x="238.89" y="-1175.55" font-family="Times,serif" font-size="14.00">0/1 (0)</text>
</g>
<!-- 27&#45;&gt;4 -->
<g id="edge37" class="edge">
<title>27&#45;&gt;4</title>
<path fill="none" stroke="black" d="M196.95,-954.05C202.88,-952.71 209.35,-951.46 215.39,-950.75 235.15,-948.42 257.61,-948.23 274.72,-948.59"/>
<polygon fill="black" stroke="black" points="275.02,-952.1 285.12,-948.89 275.22,-945.1 275.02,-952.1"/>
<text text-anchor="middle" x="238.89" y="-954.55" font-family="Times,serif" font-size="14.00">0/1 (0)</text>
</g>
<!-- 26&#45;&gt;4 -->
<g id="edge38" class="edge">
<title>26&#45;&gt;4</title>
<path fill="none" stroke="black" d="M196.63,-903.62C214.4,-909.64 240.4,-918.94 262.39,-928.75 267.43,-931 272.71,-933.6 277.73,-936.2"/>
<polygon fill="black" stroke="black" points="276.42,-939.47 286.89,-941.09 279.72,-933.29 276.42,-939.47"/>
<text text-anchor="middle" x="238.89" y="-932.55" font-family="Times,serif" font-size="14.00">0/1 (0)</text>
</g>
<!-- 11 -->
<g id="node30" class="node">
<title>11</title>
<ellipse fill="none" stroke="black" cx="303.14" cy="-664.75" rx="23" ry="23"/>
<text text-anchor="middle" x="303.14" y="-661.05" font-family="Times,serif" font-size="14.00">11</text>
</g>
<!-- 25&#45;&gt;11 -->
<g id="edge39" class="edge">
<title>25&#45;&gt;11</title>
<path fill="none" stroke="black" d="M187.48,-633.39C194.35,-624.08 203.91,-613.85 215.39,-608.75 234.48,-600.27 243.83,-599.16 262.39,-608.75 273.45,-614.46 282.1,-624.83 288.47,-635.11"/>
<polygon fill="black" stroke="black" points="285.52,-637 293.48,-643.99 291.62,-633.56 285.52,-637"/>
<text text-anchor="middle" x="238.89" y="-612.55" font-family="Times,serif" font-size="14.00">0/1 (2)</text>
</g>
<!-- 24&#45;&gt;11 -->
<g id="edge40" class="edge">
<title>24&#45;&gt;11</title>
<path fill="none" stroke="black" d="M189.36,-761.34C192.3,-757.06 195.18,-752.38 197.39,-747.75 209.93,-721.46 194.27,-704.8 215.39,-684.75 229.91,-670.96 251.96,-666 270.19,-664.47"/>
<polygon fill="black" stroke="black" points="270.6,-667.96 280.4,-663.93 270.22,-660.97 270.6,-667.96"/>
<text text-anchor="middle" x="238.89" y="-688.55" font-family="Times,serif" font-size="14.00">0/1 (2)</text>
</g>
<!-- 23&#45;&gt;11 -->
<g id="edge41" class="edge">
<title>23&#45;&gt;11</title>
<path fill="none" stroke="black" d="M189.05,-697.73C191.94,-693.55 194.88,-689.07 197.39,-684.75 206.79,-668.6 199.6,-656.74 215.39,-646.75 232.83,-635.71 255.81,-641.19 273.74,-648.9"/>
<polygon fill="black" stroke="black" points="272.58,-652.22 283.11,-653.32 275.56,-645.89 272.58,-652.22"/>
<text text-anchor="middle" x="238.89" y="-650.55" font-family="Times,serif" font-size="14.00">0/1 (2)</text>
</g>
<!-- 19&#45;&gt;11 -->
<g id="edge42" class="edge">
<title>19&#45;&gt;11</title>
<path fill="none" stroke="black" d="M196.23,-581.53C214.93,-575.5 242.54,-570.31 262.39,-582.75 279.73,-593.61 289.69,-614.43 295.31,-632.37"/>
<polygon fill="black" stroke="black" points="292,-633.54 298.07,-642.23 298.74,-631.66 292,-633.54"/>
<text text-anchor="middle" x="238.89" y="-586.55" font-family="Times,serif" font-size="14.00">0/1 (2)</text>
</g>
<!-- 6 -->
<g id="node31" class="node">
<title>6</title>
<ellipse fill="none" stroke="black" cx="303.14" cy="-455.75" rx="18" ry="18"/>
<text text-anchor="middle" x="303.14" y="-452.05" font-family="Times,serif" font-size="14.00">6</text>
</g>
<!-- 19&#45;&gt;6 -->
<g id="edge43" class="edge">
<title>19&#45;&gt;6</title>
<path fill="none" stroke="black" d="M192.24,-575.13C213.87,-555.96 250.36,-523.18 262.39,-509.75 270.95,-500.19 279.51,-488.84 286.48,-479.03"/>
<polygon fill="black" stroke="black" points="289.55,-480.75 292.39,-470.54 283.81,-476.75 289.55,-480.75"/>
<text text-anchor="middle" x="238.89" y="-556.55" font-family="Times,serif" font-size="14.00">0/1 (1)</text>
</g>
<!-- 22&#45;&gt;6 -->
<g id="edge44" class="edge">
<title>22&#45;&gt;6</title>
<path fill="none" stroke="black" d="M192.34,-511.72C199.19,-505.99 207.38,-499.66 215.39,-494.75 226.19,-488.12 255.23,-475.42 276.75,-466.31"/>
<polygon fill="black" stroke="black" points="278.15,-469.52 286.01,-462.41 275.44,-463.07 278.15,-469.52"/>
<text text-anchor="middle" x="238.89" y="-498.55" font-family="Times,serif" font-size="14.00">0/1 (1)</text>
</g>
<!-- 21&#45;&gt;6 -->
<g id="edge45" class="edge">
<title>21&#45;&gt;6</title>
<path fill="none" stroke="black" d="M197.01,-459.33C202.94,-458.28 209.39,-457.31 215.39,-456.75 235.2,-454.9 257.65,-454.69 274.76,-454.93"/>
<polygon fill="black" stroke="black" points="275.07,-458.43 285.14,-455.13 275.21,-451.43 275.07,-458.43"/>
<text text-anchor="middle" x="238.89" y="-460.55" font-family="Times,serif" font-size="14.00">0/1 (1)</text>
</g>
<!-- 20&#45;&gt;6 -->
<g id="edge46" class="edge">
<title>20&#45;&gt;6</title>
<path fill="none" stroke="black" d="M196.18,-408.48C213.88,-415.28 240.05,-425.64 262.39,-435.75 267.37,-438 272.62,-440.53 277.63,-443.02"/>
<polygon fill="black" stroke="black" points="276.3,-446.27 286.8,-447.66 279.46,-440.02 276.3,-446.27"/>
<text text-anchor="middle" x="238.89" y="-439.55" font-family="Times,serif" font-size="14.00">0/1 (1)</text>
</g>
<!-- 16 -->
<g id="node32" class="node">
<title>16</title>
<ellipse fill="none" stroke="black" cx="303.14" cy="-174.75" rx="23" ry="23"/>
<text text-anchor="middle" x="303.14" y="-171.05" font-family="Times,serif" font-size="14.00">16</text>
</g>
<!-- 18&#45;&gt;16 -->
<g id="edge48" class="edge">
<title>18&#45;&gt;16</title>
<path fill="none" stroke="black" d="M196.81,-205.56C217.15,-199.61 248.12,-190.55 271.22,-183.79"/>
<polygon fill="black" stroke="black" points="272.28,-187.13 280.9,-180.96 270.32,-180.41 272.28,-187.13"/>
<text text-anchor="middle" x="238.89" y="-204.55" font-family="Times,serif" font-size="14.00">0/1 (3)</text>
</g>
<!-- 17&#45;&gt;16 -->
<g id="edge49" class="edge">
<title>17&#45;&gt;16</title>
<path fill="none" stroke="black" d="M197.54,-151.46C215.18,-153.84 240.54,-157.71 262.39,-162.75 265.38,-163.44 268.48,-164.23 271.57,-165.07"/>
<polygon fill="black" stroke="black" points="270.66,-168.45 281.24,-167.87 272.6,-161.73 270.66,-168.45"/>
<text text-anchor="middle" x="238.89" y="-166.55" font-family="Times,serif" font-size="14.00">0/1 (3)</text>
</g>
<!-- 15&#45;&gt;16 -->
<g id="edge50" class="edge">
<title>15&#45;&gt;16</title>
<path fill="none" stroke="black" d="M195.47,-95.35C213.66,-104.56 240.93,-119.46 262.39,-135.75 268.42,-140.33 274.49,-145.76 280,-151.09"/>
<polygon fill="black" stroke="black" points="277.57,-153.62 287.12,-158.21 282.52,-148.67 277.57,-153.62"/>
<text text-anchor="middle" x="238.89" y="-139.55" font-family="Times,serif" font-size="14.00">0/1 (3)</text>
</g>
<!-- 5 -->
<g id="node33" class="node">
<title>5</title>
<ellipse fill="none" stroke="black" cx="303.14" cy="-63.75" rx="18" ry="18"/>
<text text-anchor="middle" x="303.14" y="-60.05" font-family="Times,serif" font-size="14.00">5</text>
</g>
<!-- 14&#45;&gt;5 -->
<g id="edge51" class="edge">
<title>14&#45;&gt;5</title>
<path fill="none" stroke="black" d="M196.53,-29.52C218.29,-36.57 252.43,-47.64 275.98,-55.27"/>
<polygon fill="black" stroke="black" points="275.07,-58.65 285.66,-58.41 277.22,-51.99 275.07,-58.65"/>
<text text-anchor="middle" x="238.89" y="-54.55" font-family="Times,serif" font-size="14.00">0/1 (1)</text>
</g>
<!-- 13&#45;&gt;6 -->
<g id="edge52" class="edge">
<title>13&#45;&gt;6</title>
<path fill="none" stroke="black" d="M197.26,-279.19C217.24,-284.44 246.19,-295.21 262.39,-315.75 286.57,-346.41 269.05,-364.38 280.39,-401.75 283.25,-411.16 287.08,-421.23 290.73,-430.09"/>
<polygon fill="black" stroke="black" points="287.58,-431.64 294.71,-439.47 294.02,-428.9 287.58,-431.64"/>
<text text-anchor="middle" x="238.89" y="-319.55" font-family="Times,serif" font-size="14.00">0/1 (0)</text>
</g>
<!-- 10 -->
<g id="node34" class="node">
<title>10</title>
<ellipse fill="none" stroke="black" cx="303.14" cy="-369.75" rx="23" ry="23"/>
<text text-anchor="middle" x="303.14" y="-366.05" font-family="Times,serif" font-size="14.00">10</text>
</g>
<!-- 13&#45;&gt;10 -->
<g id="edge53" class="edge">
<title>13&#45;&gt;10</title>
<path fill="none" stroke="black" d="M195.74,-266.06C214.62,-259.37 242.81,-253.32 262.39,-266.75 285.11,-282.33 294.85,-312.88 299.02,-336.69"/>
<polygon fill="black" stroke="black" points="295.58,-337.37 300.53,-346.74 302.5,-336.33 295.58,-337.37"/>
<text text-anchor="middle" x="238.89" y="-270.55" font-family="Times,serif" font-size="14.00">0/1 (0)</text>
</g>
<!-- 12&#45;&gt;6 -->
<g id="edge54" class="edge">
<title>12&#45;&gt;6</title>
<path fill="none" stroke="black" d="M195.12,-348.1C213.8,-358.66 242.09,-376.35 262.39,-396.75 272.53,-406.94 281.67,-420.06 288.62,-431.34"/>
<polygon fill="black" stroke="black" points="285.81,-433.46 293.92,-440.28 291.83,-429.89 285.81,-433.46"/>
<text text-anchor="middle" x="238.89" y="-400.55" font-family="Times,serif" font-size="14.00">0/1 (0)</text>
</g>
<!-- 12&#45;&gt;10 -->
<g id="edge55" class="edge">
<title>12&#45;&gt;10</title>
<path fill="none" stroke="black" d="M197.64,-335.84C215.56,-335.02 241.25,-335.57 262.39,-342.75 267.4,-344.45 272.36,-346.96 277,-349.78"/>
<polygon fill="black" stroke="black" points="275.18,-352.77 285.43,-355.44 279.08,-346.96 275.18,-352.77"/>
<text text-anchor="middle" x="238.89" y="-346.55" font-family="Times,serif" font-size="14.00">0/1 (0)</text>
</g>
<!-- 9&#45;&gt;2 -->
<g id="edge61" class="edge">
<title>9&#45;&gt;2</title>
<path fill="none" stroke="black" d="M192.18,-842.57C212.68,-849.51 246.82,-864.48 262.39,-890.75 283.83,-926.92 270.38,-1227.91 280.39,-1268.75 282.27,-1276.43 285.43,-1284.39 288.77,-1291.52"/>
<polygon fill="black" stroke="black" points="285.72,-1293.25 293.32,-1300.63 291.98,-1290.12 285.72,-1293.25"/>
<text text-anchor="middle" x="238.89" y="-894.55" font-family="Times,serif" font-size="14.00">0/1 (0)</text>
</g>
<!-- 9&#45;&gt;1 -->
<g id="edge62" class="edge">
<title>9&#45;&gt;1</title>
<path fill="none" stroke="black" d="M191.8,-831.63C211.27,-825.43 243.7,-819.03 262.39,-836.75 289.6,-862.55 273.62,-1136.87 280.39,-1173.75 282.98,-1187.84 287.66,-1203.08 292.02,-1215.55"/>
<polygon fill="black" stroke="black" points="288.86,-1217.08 295.56,-1225.29 295.44,-1214.69 288.86,-1217.08"/>
<text text-anchor="middle" x="238.89" y="-840.55" font-family="Times,serif" font-size="14.00">0/1 (0)</text>
</g>
<!-- 9&#45;&gt;4 -->
<g id="edge60" class="edge">
<title>9&#45;&gt;4</title>
<path fill="none" stroke="black" d="M186.99,-824.64C196.19,-814.41 208.68,-801.49 215.39,-798.75 234.73,-790.85 245.85,-786 262.39,-798.75 281.76,-813.68 293.57,-882.59 298.86,-921.96"/>
<polygon fill="black" stroke="black" points="295.4,-922.51 300.15,-931.98 302.34,-921.62 295.4,-922.51"/>
<text text-anchor="middle" x="238.89" y="-802.55" font-family="Times,serif" font-size="14.00">0/1 (2)</text>
</g>
<!-- 9&#45;&gt;11 -->
<g id="edge58" class="edge">
<title>9&#45;&gt;11</title>
<path fill="none" stroke="black" d="M187.16,-824.77C190.68,-820.47 194.41,-815.56 197.39,-810.75 207.45,-794.53 203.26,-786.49 215.39,-771.75 231.77,-751.84 245.36,-757.1 262.39,-737.75 273.47,-725.16 282.67,-708.96 289.43,-695.02"/>
<polygon fill="black" stroke="black" points="292.67,-696.35 293.71,-685.81 286.32,-693.4 292.67,-696.35"/>
<text text-anchor="middle" x="238.89" y="-775.55" font-family="Times,serif" font-size="14.00">0/1 (2)</text>
</g>
<!-- 9&#45;&gt;10 -->
<g id="edge59" class="edge">
<title>9&#45;&gt;10</title>
<path fill="none" stroke="black" d="M187.88,-825.16C191.44,-820.88 195,-815.88 197.39,-810.75 214.97,-772.98 188.87,-750.88 215.39,-718.75 229.73,-701.37 249.18,-718 262.39,-699.75 280.08,-675.3 274.11,-458.26 280.39,-428.75 282.44,-419.1 285.75,-408.92 289.18,-399.78"/>
<polygon fill="black" stroke="black" points="292.49,-400.93 292.89,-390.34 285.97,-398.37 292.49,-400.93"/>
<text text-anchor="middle" x="238.89" y="-722.55" font-family="Times,serif" font-size="14.00">0/1 (2)</text>
</g>
<!-- 4&#45;&gt;9999 -->
<g id="edge65" class="edge">
<title>4&#45;&gt;9999</title>
<path fill="none" stroke="black" d="M321.31,-949.75C342.32,-949.75 378.65,-949.75 407.57,-949.75"/>
<polygon fill="black" stroke="black" points="407.86,-953.25 417.86,-949.75 407.85,-946.25 407.86,-953.25"/>
<text text-anchor="middle" x="371.89" y="-953.55" font-family="Times,serif" font-size="14.00">0/2 (1)</text>
</g>
<!-- 32&#45;&gt;9999 -->
<g id="edge33" class="edge">
<title>32&#45;&gt;9999</title>
<path fill="none" stroke="black" d="M323.99,-1009.44C346.34,-998.97 383.23,-981.67 411.56,-968.39"/>
<polygon fill="black" stroke="black" points="413.24,-971.47 420.81,-964.05 410.27,-965.13 413.24,-971.47"/>
<text text-anchor="middle" x="371.89" y="-1001.55" font-family="Times,serif" font-size="14.00">0/1 (1)</text>
</g>
<!-- 31&#45;&gt;9999 -->
<g id="edge34" class="edge">
<title>31&#45;&gt;9999</title>
<path fill="none" stroke="black" d="M323,-1074.48C343.26,-1061.88 375.77,-1040.15 399.89,-1016.75 409.35,-1007.56 418.52,-996.56 426.43,-986.15"/>
<polygon fill="black" stroke="black" points="429.34,-988.1 432.48,-977.98 423.72,-983.93 429.34,-988.1"/>
<text text-anchor="middle" x="371.89" y="-1063.55" font-family="Times,serif" font-size="14.00">0/1 (1)</text>
</g>
<!-- 11&#45;&gt;9999 -->
<g id="edge56" class="edge">
<title>11&#45;&gt;9999</title>
<path fill="none" stroke="black" d="M314.49,-684.79C338.64,-731.55 399.07,-848.56 430.94,-910.26"/>
<polygon fill="black" stroke="black" points="427.91,-912.02 435.61,-919.3 434.13,-908.81 427.91,-912.02"/>
<text text-anchor="middle" x="371.89" y="-852.55" font-family="Times,serif" font-size="14.00">0/1 (1)</text>
</g>
<!-- 6&#45;&gt;9999 -->
<g id="edge63" class="edge">
<title>6&#45;&gt;9999</title>
<path fill="none" stroke="black" d="M310.59,-472.23C327,-514.52 371.05,-630.56 399.89,-729.75 417.46,-790.2 433.22,-861.32 442.53,-905.98"/>
<polygon fill="black" stroke="black" points="439.14,-906.83 444.59,-915.91 445.99,-905.41 439.14,-906.83"/>
<text text-anchor="middle" x="371.89" y="-733.55" font-family="Times,serif" font-size="14.00">0/10 (1)</text>
</g>
<!-- 16&#45;&gt;9999 -->
<g id="edge47" class="edge">
<title>16&#45;&gt;9999</title>
<path fill="none" stroke="black" d="M314.52,-194.6C334.78,-234.39 379.42,-327.22 399.89,-410.75 443.83,-590.09 450.63,-811.55 451.41,-904.91"/>
<polygon fill="black" stroke="black" points="447.91,-905.14 451.48,-915.12 454.91,-905.1 447.91,-905.14"/>
<text text-anchor="middle" x="371.89" y="-414.55" font-family="Times,serif" font-size="14.00">0/1 (1)</text>
</g>
<!-- 5&#45;&gt;9999 -->
<g id="edge64" class="edge">
<title>5&#45;&gt;9999</title>
<path fill="none" stroke="black" d="M314.61,-77.79C335.24,-106.34 380.81,-173.97 399.89,-238.75 436.95,-364.58 447.91,-769.52 450.58,-905.07"/>
<polygon fill="black" stroke="black" points="447.08,-905.17 450.77,-915.1 454.08,-905.04 447.08,-905.17"/>
<text text-anchor="middle" x="371.89" y="-242.55" font-family="Times,serif" font-size="14.00">0/10 (1)</text>
</g>
<!-- 10&#45;&gt;9999 -->
<g id="edge57" class="edge">
<title>10&#45;&gt;9999</title>
<path fill="none" stroke="black" d="M317.23,-388.34C338.45,-419.48 379.97,-484.89 399.89,-546.75 440.29,-672.27 449.12,-829.39 450.94,-905.01"/>
<polygon fill="black" stroke="black" points="447.45,-905.2 451.16,-915.13 454.44,-905.06 447.45,-905.2"/>
<text text-anchor="middle" x="371.89" y="-550.55" font-family="Times,serif" font-size="14.00">0/1 (1)</text>
</g>
</g>
</svg>
