<?xml version="1.0" encoding="UTF-8" standalone="no"?>
<!DOCTYPE svg PUBLIC "-//W3C//DTD SVG 1.1//EN"
 "http://www.w3.org/Graphics/SVG/1.1/DTD/svg11.dtd">
<!-- Generated by graphviz version 2.43.20190912.0211 (20190912.0211)
 -->
<!-- Title: finite_state_machine Pages: 1 -->
<svg width="287pt" height="1303pt"
 viewBox="0.00 0.00 287.08 1303.04" xmlns="http://www.w3.org/2000/svg" xmlns:xlink="http://www.w3.org/1999/xlink">
<g id="graph0" class="graph" transform="scale(1 1) rotate(0) translate(4 1299.04)">
<title>finite_state_machine</title>
<polygon fill="white" stroke="transparent" points="-4,4 -4,-1299.04 283.08,-1299.04 283.08,4 -4,4"/>
<!-- Dupont -->
<g id="node1" class="node">
<title>Dupont</title>
<ellipse fill="none" stroke="black" cx="61.74" cy="-48.1" rx="44.69" ry="44.69"/>
<text text-anchor="middle" x="61.74" y="-44.4" font-family="Times,serif" font-size="14.00">Dupont</text>
</g>
<!-- Football -->
<g id="node2" class="node">
<title>Football</title>
<ellipse fill="none" stroke="black" cx="219.28" cy="-48.1" rx="48.19" ry="48.19"/>
<text text-anchor="middle" x="219.28" y="-44.4" font-family="Times,serif" font-size="14.00">Football</text>
</g>
<!-- Dupont&#45;&gt;Football -->
<g id="edge1" class="edge">
<title>Dupont&#45;&gt;Football</title>
<path fill="none" stroke="black" d="M106.9,-48.1C123.64,-48.1 142.96,-48.1 160.75,-48.1"/>
<polygon fill="black" stroke="black" points="161.03,-51.6 171.03,-48.1 161.03,-44.6 161.03,-51.6"/>
</g>
<!-- Bertrand -->
<g id="node3" class="node">
<title>Bertrand</title>
<ellipse fill="none" stroke="black" cx="61.74" cy="-163.1" rx="52.79" ry="52.79"/>
<text text-anchor="middle" x="61.74" y="-159.4" font-family="Times,serif" font-size="14.00">Bertrand</text>
</g>
<!-- Karate -->
<g id="node4" class="node">
<title>Karate</title>
<ellipse fill="none" stroke="black" cx="219.28" cy="-163.1" rx="42.49" ry="42.49"/>
<text text-anchor="middle" x="219.28" y="-159.4" font-family="Times,serif" font-size="14.00">Karate</text>
</g>
<!-- Bertrand&#45;&gt;Karate -->
<g id="edge2" class="edge">
<title>Bertrand&#45;&gt;Karate</title>
<path fill="none" stroke="black" d="M114.54,-163.1C131.37,-163.1 150.04,-163.1 166.84,-163.1"/>
<polygon fill="black" stroke="black" points="167.03,-166.6 177.03,-163.1 167.03,-159.6 167.03,-166.6"/>
</g>
<!-- Charlie -->
<g id="node5" class="node">
<title>Charlie</title>
<ellipse fill="none" stroke="black" cx="61.74" cy="-278.1" rx="44.39" ry="44.39"/>
<text text-anchor="middle" x="61.74" y="-274.4" font-family="Times,serif" font-size="14.00">Charlie</text>
</g>
<!-- Cricket -->
<g id="node6" class="node">
<title>Cricket</title>
<ellipse fill="none" stroke="black" cx="219.28" cy="-278.1" rx="44.39" ry="44.39"/>
<text text-anchor="middle" x="219.28" y="-274.4" font-family="Times,serif" font-size="14.00">Cricket</text>
</g>
<!-- Charlie&#45;&gt;Cricket -->
<g id="edge3" class="edge">
<title>Charlie&#45;&gt;Cricket</title>
<path fill="none" stroke="black" d="M106.07,-278.1C124.28,-278.1 145.65,-278.1 164.82,-278.1"/>
<polygon fill="black" stroke="black" points="164.92,-281.6 174.92,-278.1 164.92,-274.6 164.92,-281.6"/>
</g>
<!-- Anasthasia -->
<g id="node7" class="node">
<title>Anasthasia</title>
<ellipse fill="none" stroke="black" cx="61.74" cy="-905.1" rx="61.99" ry="61.99"/>
<text text-anchor="middle" x="61.74" y="-901.4" font-family="Times,serif" font-size="14.00">Anasthasia</text>
</g>
<!-- Basketball -->
<g id="node8" class="node">
<title>Basketball</title>
<ellipse fill="none" stroke="black" cx="219.28" cy="-618.1" rx="59.59" ry="59.59"/>
<text text-anchor="middle" x="219.28" y="-614.4" font-family="Times,serif" font-size="14.00">Basketball</text>
</g>
<!-- Anasthasia&#45;&gt;Basketball -->
<g id="edge4" class="edge">
<title>Anasthasia&#45;&gt;Basketball</title>
<path fill="none" stroke="black" d="M104.37,-860.42C111.21,-852 117.88,-843.03 123.49,-834.1 153.31,-786.6 178.35,-728.1 195.2,-683.97"/>
<polygon fill="black" stroke="black" points="198.52,-685.09 198.77,-674.5 191.97,-682.62 198.52,-685.09"/>
</g>
<!-- Caroline -->
<g id="node9" class="node">
<title>Caroline</title>
<ellipse fill="none" stroke="black" cx="61.74" cy="-775.1" rx="50.09" ry="50.09"/>
<text text-anchor="middle" x="61.74" y="-771.4" font-family="Times,serif" font-size="14.00">Caroline</text>
</g>
<!-- Caroline&#45;&gt;Basketball -->
<g id="edge5" class="edge">
<title>Caroline&#45;&gt;Basketball</title>
<path fill="none" stroke="black" d="M98.58,-740.65C106.81,-732.64 115.49,-724.11 123.49,-716.1 138.72,-700.83 155.12,-684.02 169.92,-668.7"/>
<polygon fill="black" stroke="black" points="172.62,-670.94 177.04,-661.31 167.58,-666.08 172.62,-670.94"/>
</g>
<!-- Clotilde -->
<g id="node10" class="node">
<title>Clotilde</title>
<ellipse fill="none" stroke="black" cx="61.74" cy="-1032.1" rx="46.59" ry="46.59"/>
<text text-anchor="middle" x="61.74" y="-1028.4" font-family="Times,serif" font-size="14.00">Clotilde</text>
</g>
<!-- Dance -->
<g id="node11" class="node">
<title>Dance</title>
<ellipse fill="none" stroke="black" cx="219.28" cy="-1032.1" rx="39.79" ry="39.79"/>
<text text-anchor="middle" x="219.28" y="-1028.4" font-family="Times,serif" font-size="14.00">Dance</text>
</g>
<!-- Clotilde&#45;&gt;Dance -->
<g id="edge6" class="edge">
<title>Clotilde&#45;&gt;Dance</title>
<path fill="none" stroke="black" d="M108.57,-1032.1C127.71,-1032.1 149.98,-1032.1 169.43,-1032.1"/>
<polygon fill="black" stroke="black" points="169.61,-1035.6 179.61,-1032.1 169.61,-1028.6 169.61,-1035.6"/>
</g>
<!-- Bernard -->
<g id="node12" class="node">
<title>Bernard</title>
<ellipse fill="none" stroke="black" cx="61.74" cy="-1146.1" rx="48.99" ry="48.99"/>
<text text-anchor="middle" x="61.74" y="-1142.4" font-family="Times,serif" font-size="14.00">Bernard</text>
</g>
<!-- Gym -->
<g id="node13" class="node">
<title>Gym</title>
<ellipse fill="none" stroke="black" cx="219.28" cy="-1146.1" rx="32.49" ry="32.49"/>
<text text-anchor="middle" x="219.28" y="-1142.4" font-family="Times,serif" font-size="14.00">Gym</text>
</g>
<!-- Bernard&#45;&gt;Gym -->
<g id="edge7" class="edge">
<title>Bernard&#45;&gt;Gym</title>
<path fill="none" stroke="black" d="M110.68,-1146.1C131.66,-1146.1 156.05,-1146.1 176.3,-1146.1"/>
<polygon fill="black" stroke="black" points="176.48,-1149.6 186.48,-1146.1 176.48,-1142.6 176.48,-1149.6"/>
</g>
<!-- Martin -->
<g id="node14" class="node">
<title>Martin</title>
<ellipse fill="none" stroke="black" cx="61.74" cy="-665.1" rx="42.49" ry="42.49"/>
<text text-anchor="middle" x="61.74" y="-661.4" font-family="Times,serif" font-size="14.00">Martin</text>
</g>
<!-- Martin&#45;&gt;Basketball -->
<g id="edge8" class="edge">
<title>Martin&#45;&gt;Basketball</title>
<path fill="none" stroke="black" d="M102.4,-653.11C117.44,-648.57 135.02,-643.26 151.87,-638.16"/>
<polygon fill="black" stroke="black" points="153.12,-641.44 161.68,-635.2 151.1,-634.74 153.12,-641.44"/>
</g>
<!-- Mael -->
<g id="node15" class="node">
<title>Mael</title>
<ellipse fill="none" stroke="black" cx="61.74" cy="-571.1" rx="33.6" ry="33.6"/>
<text text-anchor="middle" x="61.74" y="-567.4" font-family="Times,serif" font-size="14.00">Mael</text>
</g>
<!-- Mael&#45;&gt;Basketball -->
<g id="edge9" class="edge">
<title>Mael&#45;&gt;Basketball</title>
<path fill="none" stroke="black" d="M94.22,-580.61C110.85,-585.63 131.92,-592 151.96,-598.05"/>
<polygon fill="black" stroke="black" points="151.1,-601.45 161.68,-600.99 153.12,-594.75 151.1,-601.45"/>
</g>
<!-- Axel -->
<g id="node16" class="node">
<title>Axel</title>
<ellipse fill="none" stroke="black" cx="61.74" cy="-489.1" rx="30.59" ry="30.59"/>
<text text-anchor="middle" x="61.74" y="-485.4" font-family="Times,serif" font-size="14.00">Axel</text>
</g>
<!-- Axel&#45;&gt;Basketball -->
<g id="edge10" class="edge">
<title>Axel&#45;&gt;Basketball</title>
<path fill="none" stroke="black" d="M88.6,-504.2C99.67,-511.04 112.54,-519.51 123.49,-528.1 139.15,-540.38 155.21,-554.81 169.55,-568.48"/>
<polygon fill="black" stroke="black" points="167.25,-571.12 176.89,-575.54 172.11,-566.08 167.25,-571.12"/>
</g>
<!-- Aurelien -->
<g id="node17" class="node">
<title>Aurelien</title>
<ellipse fill="none" stroke="black" cx="61.74" cy="-390.1" rx="50.09" ry="50.09"/>
<text text-anchor="middle" x="61.74" y="-386.4" font-family="Times,serif" font-size="14.00">Aurelien</text>
</g>
<!-- Aurelien&#45;&gt;Basketball -->
<g id="edge11" class="edge">
<title>Aurelien&#45;&gt;Basketball</title>
<path fill="none" stroke="black" d="M99.87,-422.82C108.13,-430.98 116.5,-440.01 123.49,-449.1 148.7,-481.88 171.56,-522.15 188.51,-555.16"/>
<polygon fill="black" stroke="black" points="185.49,-556.93 193.13,-564.26 191.73,-553.76 185.49,-556.93"/>
</g>
<!-- Carole -->
<g id="node18" class="node">
<title>Carole</title>
<ellipse fill="none" stroke="black" cx="61.74" cy="-1254.1" rx="40.89" ry="40.89"/>
<text text-anchor="middle" x="61.74" y="-1250.4" font-family="Times,serif" font-size="14.00">Carole</text>
</g>
<!-- Volley -->
<g id="node19" class="node">
<title>Volley</title>
<ellipse fill="none" stroke="black" cx="219.28" cy="-1254.1" rx="38.19" ry="38.19"/>
<text text-anchor="middle" x="219.28" y="-1250.4" font-family="Times,serif" font-size="14.00">Volley</text>
</g>
<!-- Carole&#45;&gt;Volley -->
<g id="edge12" class="edge">
<title>Carole&#45;&gt;Volley</title>
<path fill="none" stroke="black" d="M102.8,-1254.1C123.55,-1254.1 149.02,-1254.1 170.76,-1254.1"/>
<polygon fill="black" stroke="black" points="170.77,-1257.6 180.77,-1254.1 170.77,-1250.6 170.77,-1257.6"/>
</g>
</g>
</svg>
