<?xml version="1.0" encoding="UTF-8" standalone="no"?>
<!DOCTYPE svg PUBLIC "-//W3C//DTD SVG 1.1//EN"
 "http://www.w3.org/Graphics/SVG/1.1/DTD/svg11.dtd">
<!-- Generated by graphviz version 2.43.20190912.0211 (20190912.0211)
 -->
<!-- Title: finite_state_machine Pages: 1 -->
<svg width="344pt" height="2351pt"
 viewBox="0.00 0.00 343.87 2350.64" xmlns="http://www.w3.org/2000/svg" xmlns:xlink="http://www.w3.org/1999/xlink">
<g id="graph0" class="graph" transform="scale(1 1) rotate(0) translate(4 2346.64)">
<title>finite_state_machine</title>
<polygon fill="white" stroke="transparent" points="-4,4 -4,-2346.64 339.87,-2346.64 339.87,4 -4,4"/>
<!-- Bertrand -->
<g id="node1" class="node">
<title>Bertrand</title>
<ellipse fill="none" stroke="black" cx="61.74" cy="-1804.55" rx="52.79" ry="52.79"/>
<text text-anchor="middle" x="61.74" y="-1800.85" font-family="Times,serif" font-size="14.00">Bertrand</text>
</g>
<!-- Karate (3) -->
<g id="node2" class="node">
<title>Karate (3)</title>
<ellipse fill="none" stroke="black" cx="252.68" cy="-1598.55" rx="57.69" ry="57.69"/>
<text text-anchor="middle" x="252.68" y="-1594.85" font-family="Times,serif" font-size="14.00">Karate (3)</text>
</g>
<!-- Bertrand&#45;&gt;Karate (3) -->
<g id="edge1" class="edge">
<title>Bertrand&#45;&gt;Karate (3)</title>
<path fill="none" stroke="black" d="M102.85,-1770.94C110.68,-1762.7 118.12,-1753.39 123.49,-1743.55 141.37,-1710.8 119.39,-1691.61 141.49,-1661.55 153.55,-1645.14 171.25,-1632.37 188.96,-1622.75"/>
<polygon fill="black" stroke="black" points="190.9,-1625.69 198.19,-1618 187.7,-1619.46 190.9,-1625.69"/>
<text text-anchor="middle" x="146.49" y="-1665.35" font-family="Times,serif" font-size="14.00">4</text>
</g>
<!-- Football (3) -->
<g id="node3" class="node">
<title>Football (3)</title>
<ellipse fill="none" stroke="black" cx="252.68" cy="-1738.55" rx="63.89" ry="63.89"/>
<text text-anchor="middle" x="252.68" y="-1734.85" font-family="Times,serif" font-size="14.00">Football (3)</text>
</g>
<!-- Bertrand&#45;&gt;Football (3) -->
<g id="edge2" class="edge">
<title>Bertrand&#45;&gt;Football (3)</title>
<path fill="none" stroke="black" d="M111.89,-1787.38C133.51,-1779.83 159.29,-1770.82 182.78,-1762.62"/>
<polygon fill="black" stroke="black" points="184.06,-1765.88 192.34,-1759.28 181.75,-1759.27 184.06,-1765.88"/>
<text text-anchor="middle" x="146.49" y="-1779.35" font-family="Times,serif" font-size="14.00">0</text>
</g>
<!-- Badminton (20) -->
<g id="node4" class="node">
<title>Badminton (20)</title>
<ellipse fill="none" stroke="black" cx="252.68" cy="-1903.55" rx="83.39" ry="83.39"/>
<text text-anchor="middle" x="252.68" y="-1899.85" font-family="Times,serif" font-size="14.00">Badminton (20)</text>
</g>
<!-- Bertrand&#45;&gt;Badminton (20) -->
<g id="edge3" class="edge">
<title>Bertrand&#45;&gt;Badminton (20)</title>
<path fill="none" stroke="black" d="M96.77,-1844.07C109.6,-1856.79 125.09,-1869.83 141.49,-1878.55 147.54,-1881.77 153.99,-1884.57 160.62,-1887.02"/>
<polygon fill="black" stroke="black" points="159.85,-1890.45 170.44,-1890.35 162.09,-1883.82 159.85,-1890.45"/>
<text text-anchor="middle" x="146.49" y="-1887.35" font-family="Times,serif" font-size="14.00">0</text>
</g>
<!-- Dupont -->
<g id="node5" class="node">
<title>Dupont</title>
<ellipse fill="none" stroke="black" cx="61.74" cy="-1689.55" rx="44.69" ry="44.69"/>
<text text-anchor="middle" x="61.74" y="-1685.85" font-family="Times,serif" font-size="14.00">Dupont</text>
</g>
<!-- Dupont&#45;&gt;Karate (3) -->
<g id="edge4" class="edge">
<title>Dupont&#45;&gt;Karate (3)</title>
<path fill="none" stroke="black" d="M92.5,-1656.81C106.19,-1643.63 123.39,-1629.47 141.49,-1620.55 154.85,-1613.96 170.05,-1609.34 184.8,-1606.11"/>
<polygon fill="black" stroke="black" points="185.79,-1609.48 194.91,-1604.08 184.41,-1602.61 185.79,-1609.48"/>
<text text-anchor="middle" x="146.49" y="-1624.35" font-family="Times,serif" font-size="14.00">4</text>
</g>
<!-- Dupont&#45;&gt;Football (3) -->
<g id="edge5" class="edge">
<title>Dupont&#45;&gt;Football (3)</title>
<path fill="none" stroke="black" d="M104.11,-1704.89C116.07,-1709.01 129.21,-1713.23 141.49,-1716.55 153.75,-1719.86 166.9,-1722.91 179.69,-1725.61"/>
<polygon fill="black" stroke="black" points="179.36,-1729.12 189.86,-1727.71 180.77,-1722.26 179.36,-1729.12"/>
<text text-anchor="middle" x="146.49" y="-1723.35" font-family="Times,serif" font-size="14.00">0</text>
</g>
<!-- Dupont&#45;&gt;Badminton (20) -->
<g id="edge6" class="edge">
<title>Dupont&#45;&gt;Badminton (20)</title>
<path fill="none" stroke="black" d="M99.32,-1714.52C108.51,-1722.46 117.46,-1731.97 123.49,-1742.55 145.22,-1780.63 116.23,-1803.71 141.49,-1839.55 148.46,-1849.44 157.48,-1858.02 167.36,-1865.41"/>
<polygon fill="black" stroke="black" points="165.63,-1868.47 175.83,-1871.33 169.64,-1862.73 165.63,-1868.47"/>
<text text-anchor="middle" x="146.49" y="-1854.35" font-family="Times,serif" font-size="14.00">0</text>
</g>
<!-- Floriane -->
<g id="node6" class="node">
<title>Floriane</title>
<ellipse fill="none" stroke="black" cx="61.74" cy="-1409.55" rx="49.29" ry="49.29"/>
<text text-anchor="middle" x="61.74" y="-1405.85" font-family="Times,serif" font-size="14.00">Floriane</text>
</g>
<!-- Floriane&#45;&gt;Karate (3) -->
<g id="edge9" class="edge">
<title>Floriane&#45;&gt;Karate (3)</title>
<path fill="none" stroke="black" d="M93.29,-1448C113.77,-1472.88 141.95,-1505.37 169.49,-1531.55 178.54,-1540.15 188.57,-1548.91 198.42,-1557.12"/>
<polygon fill="black" stroke="black" points="196.32,-1559.92 206.27,-1563.58 200.77,-1554.52 196.32,-1559.92"/>
<text text-anchor="middle" x="146.49" y="-1517.35" font-family="Times,serif" font-size="14.00">4</text>
</g>
<!-- Natation (2) -->
<g id="node7" class="node">
<title>Natation (2)</title>
<ellipse fill="none" stroke="black" cx="252.68" cy="-1107.55" rx="66.89" ry="66.89"/>
<text text-anchor="middle" x="252.68" y="-1103.85" font-family="Times,serif" font-size="14.00">Natation (2)</text>
</g>
<!-- Floriane&#45;&gt;Natation (2) -->
<g id="edge7" class="edge">
<title>Floriane&#45;&gt;Natation (2)</title>
<path fill="none" stroke="black" d="M100.93,-1379.2C109.34,-1370.99 117.51,-1361.57 123.49,-1351.55 163.15,-1285.06 129.3,-1249.71 169.49,-1183.55 175.64,-1173.43 183.52,-1163.82 191.95,-1155.05"/>
<polygon fill="black" stroke="black" points="194.53,-1157.42 199.15,-1147.89 189.59,-1152.46 194.53,-1157.42"/>
<text text-anchor="middle" x="146.49" y="-1309.35" font-family="Times,serif" font-size="14.00">0</text>
</g>
<!-- Skateboard (1) -->
<g id="node8" class="node">
<title>Skateboard (1)</title>
<ellipse fill="none" stroke="black" cx="252.68" cy="-1271.55" rx="79.09" ry="79.09"/>
<text text-anchor="middle" x="252.68" y="-1267.85" font-family="Times,serif" font-size="14.00">Skateboard (1)</text>
</g>
<!-- Floriane&#45;&gt;Skateboard (1) -->
<g id="edge8" class="edge">
<title>Floriane&#45;&gt;Skateboard (1)</title>
<path fill="none" stroke="black" d="M102.35,-1380.62C124.71,-1364.29 153.35,-1343.37 179.55,-1324.23"/>
<polygon fill="black" stroke="black" points="181.95,-1326.81 187.96,-1318.09 177.82,-1321.16 181.95,-1326.81"/>
<text text-anchor="middle" x="146.49" y="-1353.35" font-family="Times,serif" font-size="14.00">0</text>
</g>
<!-- Basil -->
<g id="node9" class="node">
<title>Basil</title>
<ellipse fill="none" stroke="black" cx="61.74" cy="-1308.55" rx="33.6" ry="33.6"/>
<text text-anchor="middle" x="61.74" y="-1304.85" font-family="Times,serif" font-size="14.00">Basil</text>
</g>
<!-- Basil&#45;&gt;Karate (3) -->
<g id="edge11" class="edge">
<title>Basil&#45;&gt;Karate (3)</title>
<path fill="none" stroke="black" d="M92.45,-1322.98C103.91,-1330.04 116.03,-1339.6 123.49,-1351.55 149.74,-1393.56 128.21,-1413.82 141.49,-1461.55 142.05,-1463.56 168.25,-1529.86 169.49,-1531.55 177.06,-1541.85 186.57,-1551.49 196.41,-1560.07"/>
<polygon fill="black" stroke="black" points="194.43,-1562.98 204.34,-1566.72 198.93,-1557.62 194.43,-1562.98"/>
<text text-anchor="middle" x="146.49" y="-1491.35" font-family="Times,serif" font-size="14.00">4</text>
</g>
<!-- Basil&#45;&gt;Natation (2) -->
<g id="edge10" class="edge">
<title>Basil&#45;&gt;Natation (2)</title>
<path fill="none" stroke="black" d="M92.24,-1293.57C103.52,-1286.49 115.57,-1277.04 123.49,-1265.55 141.71,-1239.09 124.04,-1222.52 141.49,-1195.55 153.2,-1177.44 169.9,-1161.38 186.77,-1148.09"/>
<polygon fill="black" stroke="black" points="189.2,-1150.64 195.04,-1141.8 184.97,-1145.07 189.2,-1150.64"/>
<text text-anchor="middle" x="146.49" y="-1199.35" font-family="Times,serif" font-size="14.00">0</text>
</g>
<!-- Alexis -->
<g id="node10" class="node">
<title>Alexis</title>
<ellipse fill="none" stroke="black" cx="61.74" cy="-1545.55" rx="38.19" ry="38.19"/>
<text text-anchor="middle" x="61.74" y="-1541.85" font-family="Times,serif" font-size="14.00">Alexis</text>
</g>
<!-- Alexis&#45;&gt;Karate (3) -->
<g id="edge13" class="edge">
<title>Alexis&#45;&gt;Karate (3)</title>
<path fill="none" stroke="black" d="M99.17,-1555.77C124.03,-1562.74 157.64,-1572.17 186.98,-1580.4"/>
<polygon fill="black" stroke="black" points="186.17,-1583.81 196.75,-1583.14 188.06,-1577.07 186.17,-1583.81"/>
<text text-anchor="middle" x="146.49" y="-1573.35" font-family="Times,serif" font-size="14.00">4</text>
</g>
<!-- Athletisme (1) -->
<g id="node11" class="node">
<title>Athletisme (1)</title>
<ellipse fill="none" stroke="black" cx="252.68" cy="-1445.55" rx="76.89" ry="76.89"/>
<text text-anchor="middle" x="252.68" y="-1441.85" font-family="Times,serif" font-size="14.00">Athletisme (1)</text>
</g>
<!-- Alexis&#45;&gt;Athletisme (1) -->
<g id="edge12" class="edge">
<title>Alexis&#45;&gt;Athletisme (1)</title>
<path fill="none" stroke="black" d="M85.99,-1515.7C108.49,-1486.91 139.49,-1447.52 141.49,-1446.55 149.21,-1442.78 157.62,-1440.3 166.23,-1438.78"/>
<polygon fill="black" stroke="black" points="166.96,-1442.21 176.4,-1437.41 166.03,-1435.27 166.96,-1442.21"/>
<text text-anchor="middle" x="146.49" y="-1450.35" font-family="Times,serif" font-size="14.00">0</text>
</g>
<!-- Angele -->
<g id="node12" class="node">
<title>Angele</title>
<ellipse fill="none" stroke="black" cx="61.74" cy="-1108.55" rx="42.49" ry="42.49"/>
<text text-anchor="middle" x="61.74" y="-1104.85" font-family="Times,serif" font-size="14.00">Angele</text>
</g>
<!-- Angele&#45;&gt;Natation (2) -->
<g id="edge14" class="edge">
<title>Angele&#45;&gt;Natation (2)</title>
<path fill="none" stroke="black" d="M104.21,-1108.33C125.02,-1108.22 150.92,-1108.08 175.17,-1107.95"/>
<polygon fill="black" stroke="black" points="175.46,-1111.45 185.44,-1107.9 175.42,-1104.45 175.46,-1111.45"/>
<text text-anchor="middle" x="146.49" y="-1112.35" font-family="Times,serif" font-size="14.00">0</text>
</g>
<!-- Florian -->
<g id="node13" class="node">
<title>Florian</title>
<ellipse fill="none" stroke="black" cx="61.74" cy="-1004.55" rx="44.39" ry="44.39"/>
<text text-anchor="middle" x="61.74" y="-1000.85" font-family="Times,serif" font-size="14.00">Florian</text>
</g>
<!-- Florian&#45;&gt;Natation (2) -->
<g id="edge15" class="edge">
<title>Florian&#45;&gt;Natation (2)</title>
<path fill="none" stroke="black" d="M100.98,-1025.39C124.91,-1038.44 156.42,-1055.62 184.44,-1070.89"/>
<polygon fill="black" stroke="black" points="182.94,-1074.06 193.4,-1075.77 186.29,-1067.91 182.94,-1074.06"/>
<text text-anchor="middle" x="146.49" y="-1054.35" font-family="Times,serif" font-size="14.00">0</text>
</g>
<!-- Carole -->
<g id="node14" class="node">
<title>Carole</title>
<ellipse fill="none" stroke="black" cx="61.74" cy="-685.55" rx="40.89" ry="40.89"/>
<text text-anchor="middle" x="61.74" y="-681.85" font-family="Times,serif" font-size="14.00">Carole</text>
</g>
<!-- Volley (1) -->
<g id="node15" class="node">
<title>Volley (1)</title>
<ellipse fill="none" stroke="black" cx="252.68" cy="-782.55" rx="53.89" ry="53.89"/>
<text text-anchor="middle" x="252.68" y="-778.85" font-family="Times,serif" font-size="14.00">Volley (1)</text>
</g>
<!-- Carole&#45;&gt;Volley (1) -->
<g id="edge16" class="edge">
<title>Carole&#45;&gt;Volley (1)</title>
<path fill="none" stroke="black" d="M98.73,-704.02C126.01,-718.03 164.03,-737.55 195.34,-753.62"/>
<polygon fill="black" stroke="black" points="193.9,-756.82 204.39,-758.27 197.1,-750.59 193.9,-756.82"/>
<text text-anchor="middle" x="146.49" y="-732.35" font-family="Times,serif" font-size="14.00">2</text>
</g>
<!-- Maxence -->
<g id="node16" class="node">
<title>Maxence</title>
<ellipse fill="none" stroke="black" cx="61.74" cy="-890.55" rx="51.99" ry="51.99"/>
<text text-anchor="middle" x="61.74" y="-886.85" font-family="Times,serif" font-size="14.00">Maxence</text>
</g>
<!-- Maxence&#45;&gt;Volley (1) -->
<g id="edge17" class="edge">
<title>Maxence&#45;&gt;Volley (1)</title>
<path fill="none" stroke="black" d="M107.52,-864.95C134.2,-849.7 168.28,-830.22 196.61,-814.03"/>
<polygon fill="black" stroke="black" points="198.64,-816.9 205.59,-808.9 195.17,-810.82 198.64,-816.9"/>
<text text-anchor="middle" x="146.49" y="-847.35" font-family="Times,serif" font-size="14.00">2</text>
</g>
<!-- Kilian -->
<g id="node17" class="node">
<title>Kilian</title>
<ellipse fill="none" stroke="black" cx="61.74" cy="-782.55" rx="37.89" ry="37.89"/>
<text text-anchor="middle" x="61.74" y="-778.85" font-family="Times,serif" font-size="14.00">Kilian</text>
</g>
<!-- Kilian&#45;&gt;Volley (1) -->
<g id="edge18" class="edge">
<title>Kilian&#45;&gt;Volley (1)</title>
<path fill="none" stroke="black" d="M99.62,-782.55C124.79,-782.55 158.78,-782.55 188.24,-782.55"/>
<polygon fill="black" stroke="black" points="188.45,-786.05 198.45,-782.55 188.45,-779.05 188.45,-786.05"/>
<text text-anchor="middle" x="146.49" y="-786.35" font-family="Times,serif" font-size="14.00">2</text>
</g>
<!-- Aurelien -->
<g id="node18" class="node">
<title>Aurelien</title>
<ellipse fill="none" stroke="black" cx="61.74" cy="-576.55" rx="50.09" ry="50.09"/>
<text text-anchor="middle" x="61.74" y="-572.85" font-family="Times,serif" font-size="14.00">Aurelien</text>
</g>
<!-- Aurelien&#45;&gt;Volley (1) -->
<g id="edge19" class="edge">
<title>Aurelien&#45;&gt;Volley (1)</title>
<path fill="none" stroke="black" d="M98.89,-610.69C107.1,-618.72 115.7,-627.33 123.49,-635.55 153.62,-667.34 186.02,-704.53 210.72,-733.55"/>
<polygon fill="black" stroke="black" points="208.33,-736.14 217.47,-741.5 213.67,-731.61 208.33,-736.14"/>
<text text-anchor="middle" x="146.49" y="-667.35" font-family="Times,serif" font-size="14.00">2</text>
</g>
<!-- Basketball (10) -->
<g id="node19" class="node">
<title>Basketball (10)</title>
<ellipse fill="none" stroke="black" cx="252.68" cy="-251.55" rx="81.49" ry="81.49"/>
<text text-anchor="middle" x="252.68" y="-247.85" font-family="Times,serif" font-size="14.00">Basketball (10)</text>
</g>
<!-- Aurelien&#45;&gt;Basketball (10) -->
<g id="edge20" class="edge">
<title>Aurelien&#45;&gt;Basketball (10)</title>
<path fill="none" stroke="black" d="M101.9,-546.13C110.29,-537.75 118.2,-528.05 123.49,-517.55 150.7,-463.48 117.03,-437.92 141.49,-382.55 147.94,-367.95 168.37,-342.55 189.91,-317.97"/>
<polygon fill="black" stroke="black" points="192.62,-320.2 196.62,-310.39 187.37,-315.56 192.62,-320.2"/>
<text text-anchor="middle" x="146.49" y="-386.35" font-family="Times,serif" font-size="14.00">1</text>
</g>
<!-- Axel -->
<g id="node20" class="node">
<title>Axel</title>
<ellipse fill="none" stroke="black" cx="61.74" cy="-30.55" rx="30.59" ry="30.59"/>
<text text-anchor="middle" x="61.74" y="-26.85" font-family="Times,serif" font-size="14.00">Axel</text>
</g>
<!-- Axel&#45;&gt;Basketball (10) -->
<g id="edge21" class="edge">
<title>Axel&#45;&gt;Basketball (10)</title>
<path fill="none" stroke="black" d="M89.16,-44.47C100.46,-51.16 113.35,-59.84 123.49,-69.55 155.01,-99.74 183.66,-138.71 205.85,-172.84"/>
<polygon fill="black" stroke="black" points="203,-174.88 211.35,-181.41 208.89,-171.1 203,-174.88"/>
<text text-anchor="middle" x="146.49" y="-100.35" font-family="Times,serif" font-size="14.00">1</text>
</g>
<!-- Mael -->
<g id="node21" class="node">
<title>Mael</title>
<ellipse fill="none" stroke="black" cx="61.74" cy="-112.55" rx="33.6" ry="33.6"/>
<text text-anchor="middle" x="61.74" y="-108.85" font-family="Times,serif" font-size="14.00">Mael</text>
</g>
<!-- Mael&#45;&gt;Basketball (10) -->
<g id="edge22" class="edge">
<title>Mael&#45;&gt;Basketball (10)</title>
<path fill="none" stroke="black" d="M89.77,-131.44C100.33,-138.89 112.52,-147.56 123.49,-155.55 141.62,-168.75 161.04,-183.16 179.16,-196.71"/>
<polygon fill="black" stroke="black" points="177.27,-199.67 187.37,-202.86 181.47,-194.07 177.27,-199.67"/>
<text text-anchor="middle" x="146.49" y="-178.35" font-family="Times,serif" font-size="14.00">1</text>
</g>
<!-- Martin -->
<g id="node22" class="node">
<title>Martin</title>
<ellipse fill="none" stroke="black" cx="61.74" cy="-324.55" rx="42.49" ry="42.49"/>
<text text-anchor="middle" x="61.74" y="-320.85" font-family="Times,serif" font-size="14.00">Martin</text>
</g>
<!-- Martin&#45;&gt;Basketball (10) -->
<g id="edge23" class="edge">
<title>Martin&#45;&gt;Basketball (10)</title>
<path fill="none" stroke="black" d="M101.43,-309.6C120.51,-302.23 144.31,-293.03 167.3,-284.15"/>
<polygon fill="black" stroke="black" points="168.67,-287.37 176.74,-280.5 166.15,-280.84 168.67,-287.37"/>
<text text-anchor="middle" x="146.49" y="-296.35" font-family="Times,serif" font-size="14.00">1</text>
</g>
<!-- Bernard -->
<g id="node23" class="node">
<title>Bernard</title>
<ellipse fill="none" stroke="black" cx="61.74" cy="-2167.55" rx="48.99" ry="48.99"/>
<text text-anchor="middle" x="61.74" y="-2163.85" font-family="Times,serif" font-size="14.00">Bernard</text>
</g>
<!-- Gym (1) -->
<g id="node24" class="node">
<title>Gym (1)</title>
<ellipse fill="none" stroke="black" cx="252.68" cy="-2053.55" rx="48.19" ry="48.19"/>
<text text-anchor="middle" x="252.68" y="-2049.85" font-family="Times,serif" font-size="14.00">Gym (1)</text>
</g>
<!-- Bernard&#45;&gt;Gym (1) -->
<g id="edge24" class="edge">
<title>Bernard&#45;&gt;Gym (1)</title>
<path fill="none" stroke="black" d="M104.21,-2142.53C133.08,-2125.11 171.71,-2101.8 202.19,-2083.41"/>
<polygon fill="black" stroke="black" points="204.21,-2086.28 210.96,-2078.11 200.59,-2080.28 204.21,-2086.28"/>
<text text-anchor="middle" x="146.49" y="-2121.35" font-family="Times,serif" font-size="14.00">3</text>
</g>
<!-- Laurent -->
<g id="node25" class="node">
<title>Laurent</title>
<ellipse fill="none" stroke="black" cx="61.74" cy="-2053.55" rx="47.39" ry="47.39"/>
<text text-anchor="middle" x="61.74" y="-2049.85" font-family="Times,serif" font-size="14.00">Laurent</text>
</g>
<!-- Laurent&#45;&gt;Gym (1) -->
<g id="edge25" class="edge">
<title>Laurent&#45;&gt;Gym (1)</title>
<path fill="none" stroke="black" d="M109.45,-2053.55C135.13,-2053.55 167.19,-2053.55 194.38,-2053.55"/>
<polygon fill="black" stroke="black" points="194.53,-2057.05 204.53,-2053.55 194.53,-2050.05 194.53,-2057.05"/>
<text text-anchor="middle" x="146.49" y="-2057.35" font-family="Times,serif" font-size="14.00">3</text>
</g>
<!-- Gatwick -->
<g id="node26" class="node">
<title>Gatwick</title>
<ellipse fill="none" stroke="black" cx="61.74" cy="-1939.55" rx="48.19" ry="48.19"/>
<text text-anchor="middle" x="61.74" y="-1935.85" font-family="Times,serif" font-size="14.00">Gatwick</text>
</g>
<!-- Gatwick&#45;&gt;Gym (1) -->
<g id="edge26" class="edge">
<title>Gatwick&#45;&gt;Gym (1)</title>
<path fill="none" stroke="black" d="M103.28,-1964C132.29,-1981.51 171.51,-2005.18 202.35,-2023.78"/>
<polygon fill="black" stroke="black" points="200.85,-2026.96 211.22,-2029.13 204.46,-2020.97 200.85,-2026.96"/>
<text text-anchor="middle" x="146.49" y="-1994.35" font-family="Times,serif" font-size="14.00">3</text>
</g>
<!-- Clotilde -->
<g id="node27" class="node">
<title>Clotilde</title>
<ellipse fill="none" stroke="black" cx="61.74" cy="-2281.55" rx="46.59" ry="46.59"/>
<text text-anchor="middle" x="61.74" y="-2277.85" font-family="Times,serif" font-size="14.00">Clotilde</text>
</g>
<!-- Dance (10) -->
<g id="node28" class="node">
<title>Dance (10)</title>
<ellipse fill="none" stroke="black" cx="252.68" cy="-2281.55" rx="61.19" ry="61.19"/>
<text text-anchor="middle" x="252.68" y="-2277.85" font-family="Times,serif" font-size="14.00">Dance (10)</text>
</g>
<!-- Clotilde&#45;&gt;Dance (10) -->
<g id="edge27" class="edge">
<title>Clotilde&#45;&gt;Dance (10)</title>
<path fill="none" stroke="black" d="M108.96,-2281.55C130.66,-2281.55 157,-2281.55 181.12,-2281.55"/>
<polygon fill="black" stroke="black" points="181.3,-2285.05 191.3,-2281.55 181.3,-2278.05 181.3,-2285.05"/>
<text text-anchor="middle" x="146.49" y="-2285.35" font-family="Times,serif" font-size="14.00">1</text>
</g>
<!-- Caroline -->
<g id="node29" class="node">
<title>Caroline</title>
<ellipse fill="none" stroke="black" cx="61.74" cy="-214.55" rx="50.09" ry="50.09"/>
<text text-anchor="middle" x="61.74" y="-210.85" font-family="Times,serif" font-size="14.00">Caroline</text>
</g>
<!-- Caroline&#45;&gt;Basketball (10) -->
<g id="edge28" class="edge">
<title>Caroline&#45;&gt;Basketball (10)</title>
<path fill="none" stroke="black" d="M110.91,-223.98C126.78,-227.09 144.96,-230.65 162.87,-234.15"/>
<polygon fill="black" stroke="black" points="162.29,-237.61 172.77,-236.09 163.63,-230.74 162.29,-237.61"/>
<text text-anchor="middle" x="146.49" y="-235.35" font-family="Times,serif" font-size="14.00">0</text>
</g>
<!-- Cricket (1) -->
<g id="node30" class="node">
<title>Cricket (1)</title>
<ellipse fill="none" stroke="black" cx="252.68" cy="-461.55" rx="59.59" ry="59.59"/>
<text text-anchor="middle" x="252.68" y="-457.85" font-family="Times,serif" font-size="14.00">Cricket (1)</text>
</g>
<!-- Caroline&#45;&gt;Cricket (1) -->
<g id="edge29" class="edge">
<title>Caroline&#45;&gt;Cricket (1)</title>
<path fill="none" stroke="black" d="M101.85,-244.99C110.24,-253.37 118.16,-263.06 123.49,-273.55 149.5,-324.77 108.77,-354.33 141.49,-401.55 152.58,-417.56 169.37,-429.7 186.52,-438.73"/>
<polygon fill="black" stroke="black" points="184.98,-441.87 195.49,-443.17 188.08,-435.6 184.98,-441.87"/>
<text text-anchor="middle" x="146.49" y="-416.35" font-family="Times,serif" font-size="14.00">0</text>
</g>
<!-- Anasthasia -->
<g id="node31" class="node">
<title>Anasthasia</title>
<ellipse fill="none" stroke="black" cx="61.74" cy="-446.55" rx="61.99" ry="61.99"/>
<text text-anchor="middle" x="61.74" y="-442.85" font-family="Times,serif" font-size="14.00">Anasthasia</text>
</g>
<!-- Anasthasia&#45;&gt;Basketball (10) -->
<g id="edge30" class="edge">
<title>Anasthasia&#45;&gt;Basketball (10)</title>
<path fill="none" stroke="black" d="M103.42,-400.61C110.29,-392.4 117.22,-383.83 123.49,-375.55 132.19,-364.05 132,-359.4 141.49,-348.55 153.45,-334.87 167.3,-321.28 181.05,-308.8"/>
<polygon fill="black" stroke="black" points="183.55,-311.27 188.67,-301.99 178.88,-306.05 183.55,-311.27"/>
<text text-anchor="middle" x="146.49" y="-352.35" font-family="Times,serif" font-size="14.00">0</text>
</g>
<!-- Anasthasia&#45;&gt;Cricket (1) -->
<g id="edge31" class="edge">
<title>Anasthasia&#45;&gt;Cricket (1)</title>
<path fill="none" stroke="black" d="M123.31,-451.36C142.24,-452.86 163.27,-454.53 182.74,-456.07"/>
<polygon fill="black" stroke="black" points="182.51,-459.57 192.75,-456.87 183.06,-452.59 182.51,-459.57"/>
<text text-anchor="middle" x="146.49" y="-457.35" font-family="Times,serif" font-size="14.00">0</text>
</g>
<!-- Charlie -->
<g id="node32" class="node">
<title>Charlie</title>
<ellipse fill="none" stroke="black" cx="61.74" cy="-1212.55" rx="44.39" ry="44.39"/>
<text text-anchor="middle" x="61.74" y="-1208.85" font-family="Times,serif" font-size="14.00">Charlie</text>
</g>
<!-- Charlie&#45;&gt;Football (3) -->
<g id="edge35" class="edge">
<title>Charlie&#45;&gt;Football (3)</title>
<path fill="none" stroke="black" d="M99.35,-1236.18C108.9,-1244.28 118.03,-1254.2 123.49,-1265.55 163.14,-1347.92 93.62,-1598.66 141.49,-1676.55 151.23,-1692.41 166.61,-1704.56 182.83,-1713.73"/>
<polygon fill="black" stroke="black" points="181.41,-1716.94 191.89,-1718.52 184.68,-1710.75 181.41,-1716.94"/>
<text text-anchor="middle" x="146.49" y="-1691.35" font-family="Times,serif" font-size="14.00">0</text>
</g>
<!-- Charlie&#45;&gt;Badminton (20) -->
<g id="edge36" class="edge">
<title>Charlie&#45;&gt;Badminton (20)</title>
<path fill="none" stroke="black" d="M99.42,-1236.15C108.97,-1244.24 118.08,-1254.17 123.49,-1265.55 173.98,-1371.78 94.34,-1686.79 141.49,-1794.55 149.92,-1813.83 163.49,-1831.5 178.26,-1846.75"/>
<polygon fill="black" stroke="black" points="176.03,-1849.47 185.59,-1854.03 180.97,-1844.5 176.03,-1849.47"/>
<text text-anchor="middle" x="146.49" y="-1817.35" font-family="Times,serif" font-size="14.00">0</text>
</g>
<!-- Charlie&#45;&gt;Natation (2) -->
<g id="edge34" class="edge">
<title>Charlie&#45;&gt;Natation (2)</title>
<path fill="none" stroke="black" d="M97.03,-1185.91C110.5,-1176.05 126.33,-1165.19 141.49,-1156.55 153.98,-1149.43 167.69,-1142.6 181.08,-1136.42"/>
<polygon fill="black" stroke="black" points="182.61,-1139.57 190.27,-1132.26 179.72,-1133.2 182.61,-1139.57"/>
<text text-anchor="middle" x="146.49" y="-1160.35" font-family="Times,serif" font-size="14.00">2</text>
</g>
<!-- Charlie&#45;&gt;Volley (1) -->
<g id="edge32" class="edge">
<title>Charlie&#45;&gt;Volley (1)</title>
<path fill="none" stroke="black" d="M98.99,-1188.29C108.41,-1180.24 117.56,-1170.5 123.49,-1159.55 150.86,-1109.04 125.71,-1086.79 141.49,-1031.55 161.16,-962.65 196.17,-888.05 221.45,-838.66"/>
<polygon fill="black" stroke="black" points="224.58,-840.22 226.05,-829.73 218.36,-837.02 224.58,-840.22"/>
<text text-anchor="middle" x="146.49" y="-1035.35" font-family="Times,serif" font-size="14.00">2</text>
</g>
<!-- Charlie&#45;&gt;Cricket (1) -->
<g id="edge33" class="edge">
<title>Charlie&#45;&gt;Cricket (1)</title>
<path fill="none" stroke="black" d="M99.42,-1188.94C108.97,-1180.85 118.08,-1170.92 123.49,-1159.55 148.46,-1107.04 124.41,-692.13 141.49,-636.55 155.1,-592.25 183,-548.14 207.31,-515.29"/>
<polygon fill="black" stroke="black" points="210.19,-517.28 213.41,-507.18 204.6,-513.07 210.19,-517.28"/>
<text text-anchor="middle" x="146.49" y="-640.35" font-family="Times,serif" font-size="14.00">2</text>
</g>
</g>
</svg>
