<?xml version="1.0" encoding="UTF-8" standalone="no"?>
<!DOCTYPE svg PUBLIC "-//W3C//DTD SVG 1.1//EN"
 "http://www.w3.org/Graphics/SVG/1.1/DTD/svg11.dtd">
<!-- Generated by graphviz version 2.40.1 (20161225.0304)
 -->
<!-- Title: %3 Pages: 1 -->
<svg width="243pt" height="1126pt"
 viewBox="0.00 0.00 243.38 1126.00" xmlns="http://www.w3.org/2000/svg" xmlns:xlink="http://www.w3.org/1999/xlink">
<g id="graph0" class="graph" transform="scale(1 1) rotate(0) translate(4 1122)">
<title>%3</title>
<polygon fill="#ffffff" stroke="transparent" points="-4,4 -4,-1122 239.3829,-1122 239.3829,4 -4,4"/>
<!-- A -->
<g id="node1" class="node">
<title>A</title>
<ellipse fill="none" stroke="#000000" cx="18.8483" cy="-342" rx="18" ry="18"/>
<text text-anchor="middle" x="18.8483" y="-338.3" font-family="Times,serif" font-size="14.00" fill="#000000">A</text>
</g>
<!-- NoOneWantsIt (7) -->
<g id="node2" class="node">
<title>NoOneWantsIt (7)</title>
<ellipse fill="none" stroke="#000000" cx="158.0398" cy="-180" rx="77.1866" ry="77.1866"/>
<text text-anchor="middle" x="158.0398" y="-176.3" font-family="Times,serif" font-size="14.00" fill="#000000">NoOneWantsIt (7)</text>
</g>
<!-- A&#45;&gt;NoOneWantsIt (7) -->
<g id="edge1" class="edge">
<title>A&#45;&gt;NoOneWantsIt (7)</title>
<path fill="none" stroke="#ffa500" stroke-width="2" d="M30.7157,-328.188C46.2917,-310.0597 74.7159,-276.9777 100.7624,-246.6631"/>
<polygon fill="#ffa500" stroke="#ffa500" stroke-width="2" points="103.4616,-248.8922 107.3239,-239.0264 98.1523,-244.3303 103.4616,-248.8922"/>
<text text-anchor="middle" x="59.1967" y="-302.8" font-family="Times,serif" font-size="14.00" fill="#000000">2</text>
</g>
<!-- B -->
<g id="node3" class="node">
<title>B</title>
<ellipse fill="none" stroke="#000000" cx="18.8483" cy="-288" rx="18" ry="18"/>
<text text-anchor="middle" x="18.8483" y="-284.3" font-family="Times,serif" font-size="14.00" fill="#000000">B</text>
</g>
<!-- B&#45;&gt;NoOneWantsIt (7) -->
<g id="edge2" class="edge">
<title>B&#45;&gt;NoOneWantsIt (7)</title>
<path fill="none" stroke="#ffa500" stroke-width="2" d="M33.22,-276.8489C46.6468,-266.4309 67.7272,-250.0744 88.7682,-233.7485"/>
<polygon fill="#ffa500" stroke="#ffa500" stroke-width="2" points="91.0592,-236.4009 96.8143,-227.5054 86.768,-230.8704 91.0592,-236.4009"/>
<text text-anchor="middle" x="59.1967" y="-263.8" font-family="Times,serif" font-size="14.00" fill="#000000">2</text>
</g>
<!-- C -->
<g id="node4" class="node">
<title>C</title>
<ellipse fill="none" stroke="#000000" cx="18.8483" cy="-234" rx="18" ry="18"/>
<text text-anchor="middle" x="18.8483" y="-230.3" font-family="Times,serif" font-size="14.00" fill="#000000">C</text>
</g>
<!-- C&#45;&gt;NoOneWantsIt (7) -->
<g id="edge3" class="edge">
<title>C&#45;&gt;NoOneWantsIt (7)</title>
<path fill="none" stroke="#ffa500" stroke-width="2" d="M35.6381,-227.4863C46.2366,-223.3746 60.7986,-217.7252 76.1862,-211.7555"/>
<polygon fill="#ffa500" stroke="#ffa500" stroke-width="2" points="77.7887,-214.888 85.8457,-208.008 75.2568,-208.3619 77.7887,-214.888"/>
<text text-anchor="middle" x="59.1967" y="-223.8" font-family="Times,serif" font-size="14.00" fill="#000000">2</text>
</g>
<!-- D -->
<g id="node5" class="node">
<title>D</title>
<ellipse fill="none" stroke="#000000" cx="18.8483" cy="-180" rx="18" ry="18"/>
<text text-anchor="middle" x="18.8483" y="-176.3" font-family="Times,serif" font-size="14.00" fill="#000000">D</text>
</g>
<!-- D&#45;&gt;NoOneWantsIt (7) -->
<g id="edge4" class="edge">
<title>D&#45;&gt;NoOneWantsIt (7)</title>
<path fill="none" stroke="#ffa500" stroke-width="2" d="M37.0452,-180C46.116,-180 57.8188,-180 70.3638,-180"/>
<polygon fill="#ffa500" stroke="#ffa500" stroke-width="2" points="70.571,-183.5001 80.5709,-180 70.5709,-176.5001 70.571,-183.5001"/>
<text text-anchor="middle" x="59.1967" y="-183.8" font-family="Times,serif" font-size="14.00" fill="#000000">2</text>
</g>
<!-- E -->
<g id="node6" class="node">
<title>E</title>
<ellipse fill="none" stroke="#000000" cx="18.8483" cy="-126" rx="18" ry="18"/>
<text text-anchor="middle" x="18.8483" y="-122.3" font-family="Times,serif" font-size="14.00" fill="#000000">E</text>
</g>
<!-- E&#45;&gt;NoOneWantsIt (7) -->
<g id="edge5" class="edge">
<title>E&#45;&gt;NoOneWantsIt (7)</title>
<path fill="none" stroke="#ffa500" stroke-width="2" d="M35.6381,-132.5137C46.2366,-136.6254 60.7986,-142.2748 76.1862,-148.2445"/>
<polygon fill="#ffa500" stroke="#ffa500" stroke-width="2" points="75.2568,-151.6381 85.8457,-151.992 77.7887,-145.112 75.2568,-151.6381"/>
<text text-anchor="middle" x="59.1967" y="-145.8" font-family="Times,serif" font-size="14.00" fill="#000000">2</text>
</g>
<!-- F -->
<g id="node7" class="node">
<title>F</title>
<ellipse fill="none" stroke="#000000" cx="18.8483" cy="-72" rx="18" ry="18"/>
<text text-anchor="middle" x="18.8483" y="-68.3" font-family="Times,serif" font-size="14.00" fill="#000000">F</text>
</g>
<!-- F&#45;&gt;NoOneWantsIt (7) -->
<g id="edge6" class="edge">
<title>F&#45;&gt;NoOneWantsIt (7)</title>
<path fill="none" stroke="#ffa500" stroke-width="2" d="M33.22,-83.1511C46.6468,-93.5691 67.7272,-109.9256 88.7682,-126.2515"/>
<polygon fill="#ffa500" stroke="#ffa500" stroke-width="2" points="86.768,-129.1296 96.8143,-132.4946 91.0592,-123.5991 86.768,-129.1296"/>
<text text-anchor="middle" x="59.1967" y="-107.8" font-family="Times,serif" font-size="14.00" fill="#000000">2</text>
</g>
<!-- G -->
<g id="node8" class="node">
<title>G</title>
<ellipse fill="none" stroke="#000000" cx="18.8483" cy="-18" rx="18" ry="18"/>
<text text-anchor="middle" x="18.8483" y="-14.3" font-family="Times,serif" font-size="14.00" fill="#000000">G</text>
</g>
<!-- G&#45;&gt;NoOneWantsIt (7) -->
<g id="edge7" class="edge">
<title>G&#45;&gt;NoOneWantsIt (7)</title>
<path fill="none" stroke="#ffa500" stroke-width="2" d="M30.7157,-31.812C46.2917,-49.9403 74.7159,-83.0223 100.7624,-113.3369"/>
<polygon fill="#ffa500" stroke="#ffa500" stroke-width="2" points="98.1523,-115.6697 107.3239,-120.9736 103.4616,-111.1078 98.1523,-115.6697"/>
<text text-anchor="middle" x="59.1967" y="-69.8" font-family="Times,serif" font-size="14.00" fill="#000000">2</text>
</g>
<!-- H -->
<g id="node9" class="node">
<title>H</title>
<ellipse fill="none" stroke="#000000" cx="18.8483" cy="-722" rx="18" ry="18"/>
<text text-anchor="middle" x="18.8483" y="-718.3" font-family="Times,serif" font-size="14.00" fill="#000000">H</text>
</g>
<!-- WhyNot (7) -->
<g id="node10" class="node">
<title>WhyNot (7)</title>
<ellipse fill="none" stroke="#000000" cx="158.0398" cy="-560" rx="53.8905" ry="53.8905"/>
<text text-anchor="middle" x="158.0398" y="-556.3" font-family="Times,serif" font-size="14.00" fill="#000000">WhyNot (7)</text>
</g>
<!-- H&#45;&gt;WhyNot (7) -->
<g id="edge8" class="edge">
<title>H&#45;&gt;WhyNot (7)</title>
<path fill="none" stroke="#ffa500" stroke-width="2" d="M30.7157,-708.188C49.4797,-686.3493 86.8896,-642.8091 116.3263,-608.5488"/>
<polygon fill="#ffa500" stroke="#ffa500" stroke-width="2" points="118.9946,-610.8139 122.8569,-600.9481 113.6852,-606.252 118.9946,-610.8139"/>
<text text-anchor="middle" x="59.1967" y="-681.8" font-family="Times,serif" font-size="14.00" fill="#000000">1</text>
</g>
<!-- I -->
<g id="node11" class="node">
<title>I</title>
<ellipse fill="none" stroke="#000000" cx="18.8483" cy="-668" rx="18" ry="18"/>
<text text-anchor="middle" x="18.8483" y="-664.3" font-family="Times,serif" font-size="14.00" fill="#000000">I</text>
</g>
<!-- I&#45;&gt;WhyNot (7) -->
<g id="edge9" class="edge">
<title>I&#45;&gt;WhyNot (7)</title>
<path fill="none" stroke="#ffa500" stroke-width="2" d="M33.22,-656.8489C50.5935,-643.3686 80.7813,-619.9456 107.1169,-599.5115"/>
<polygon fill="#ffa500" stroke="#ffa500" stroke-width="2" points="109.3928,-602.1757 115.1479,-593.2802 105.1017,-596.6452 109.3928,-602.1757"/>
<text text-anchor="middle" x="59.1967" y="-642.8" font-family="Times,serif" font-size="14.00" fill="#000000">1</text>
</g>
<!-- J -->
<g id="node12" class="node">
<title>J</title>
<ellipse fill="none" stroke="#000000" cx="18.8483" cy="-614" rx="18" ry="18"/>
<text text-anchor="middle" x="18.8483" y="-610.3" font-family="Times,serif" font-size="14.00" fill="#000000">J</text>
</g>
<!-- J&#45;&gt;WhyNot (7) -->
<g id="edge10" class="edge">
<title>J&#45;&gt;WhyNot (7)</title>
<path fill="none" stroke="#ffa500" stroke-width="2" d="M35.6381,-607.4863C51.2019,-601.4483 75.3132,-592.0942 98.0343,-583.2794"/>
<polygon fill="#ffa500" stroke="#ffa500" stroke-width="2" points="99.6008,-586.4259 107.6578,-579.5459 97.0689,-579.8998 99.6008,-586.4259"/>
<text text-anchor="middle" x="59.1967" y="-602.8" font-family="Times,serif" font-size="14.00" fill="#000000">1</text>
</g>
<!-- K -->
<g id="node13" class="node">
<title>K</title>
<ellipse fill="none" stroke="#000000" cx="18.8483" cy="-560" rx="18" ry="18"/>
<text text-anchor="middle" x="18.8483" y="-556.3" font-family="Times,serif" font-size="14.00" fill="#000000">K</text>
</g>
<!-- K&#45;&gt;WhyNot (7) -->
<g id="edge11" class="edge">
<title>K&#45;&gt;WhyNot (7)</title>
<path fill="none" stroke="#ffa500" stroke-width="2" d="M37.0452,-560C51.6739,-560 73.148,-560 93.9601,-560"/>
<polygon fill="#ffa500" stroke="#ffa500" stroke-width="2" points="94.0909,-563.5001 104.0909,-560 94.0909,-556.5001 94.0909,-563.5001"/>
<text text-anchor="middle" x="59.1967" y="-563.8" font-family="Times,serif" font-size="14.00" fill="#000000">1</text>
</g>
<!-- L -->
<g id="node14" class="node">
<title>L</title>
<ellipse fill="none" stroke="#000000" cx="18.8483" cy="-506" rx="18" ry="18"/>
<text text-anchor="middle" x="18.8483" y="-502.3" font-family="Times,serif" font-size="14.00" fill="#000000">L</text>
</g>
<!-- L&#45;&gt;WhyNot (7) -->
<g id="edge12" class="edge">
<title>L&#45;&gt;WhyNot (7)</title>
<path fill="none" stroke="#ffa500" stroke-width="2" d="M35.6381,-512.5137C51.2019,-518.5517 75.3132,-527.9058 98.0343,-536.7206"/>
<polygon fill="#ffa500" stroke="#ffa500" stroke-width="2" points="97.0689,-540.1002 107.6578,-540.4541 99.6008,-533.5741 97.0689,-540.1002"/>
<text text-anchor="middle" x="59.1967" y="-525.8" font-family="Times,serif" font-size="14.00" fill="#000000">1</text>
</g>
<!-- M -->
<g id="node15" class="node">
<title>M</title>
<ellipse fill="none" stroke="#000000" cx="18.8483" cy="-451" rx="18.6979" ry="18.6979"/>
<text text-anchor="middle" x="18.8483" y="-447.3" font-family="Times,serif" font-size="14.00" fill="#000000">M</text>
</g>
<!-- M&#45;&gt;WhyNot (7) -->
<g id="edge13" class="edge">
<title>M&#45;&gt;WhyNot (7)</title>
<path fill="none" stroke="#ffa500" stroke-width="2" d="M33.7443,-462.6649C51.286,-476.4018 81.3526,-499.9467 107.5201,-520.4384"/>
<polygon fill="#ffa500" stroke="#ffa500" stroke-width="2" points="105.4666,-523.2757 115.4978,-526.6856 109.7825,-517.7645 105.4666,-523.2757"/>
<text text-anchor="middle" x="59.1967" y="-487.8" font-family="Times,serif" font-size="14.00" fill="#000000">1</text>
</g>
<!-- N -->
<g id="node16" class="node">
<title>N</title>
<ellipse fill="none" stroke="#000000" cx="18.8483" cy="-396" rx="18" ry="18"/>
<text text-anchor="middle" x="18.8483" y="-392.3" font-family="Times,serif" font-size="14.00" fill="#000000">N</text>
</g>
<!-- N&#45;&gt;WhyNot (7) -->
<g id="edge14" class="edge">
<title>N&#45;&gt;WhyNot (7)</title>
<path fill="none" stroke="#ffa500" stroke-width="2" d="M30.7157,-409.9825C49.4797,-432.0909 86.8896,-476.1685 116.3263,-510.8518"/>
<polygon fill="#ffa500" stroke="#ffa500" stroke-width="2" points="113.7175,-513.187 122.8569,-518.5463 119.0545,-508.6573 113.7175,-513.187"/>
<text text-anchor="middle" x="59.1967" y="-448.8" font-family="Times,serif" font-size="14.00" fill="#000000">1</text>
</g>
<!-- O -->
<g id="node17" class="node">
<title>O</title>
<ellipse fill="none" stroke="#000000" cx="18.8483" cy="-1100" rx="18" ry="18"/>
<text text-anchor="middle" x="18.8483" y="-1096.3" font-family="Times,serif" font-size="14.00" fill="#000000">O</text>
</g>
<!-- BestChoice (7) -->
<g id="node18" class="node">
<title>BestChoice (7)</title>
<ellipse fill="none" stroke="#000000" cx="158.0398" cy="-938" rx="63.8893" ry="63.8893"/>
<text text-anchor="middle" x="158.0398" y="-934.3" font-family="Times,serif" font-size="14.00" fill="#000000">BestChoice (7)</text>
</g>
<!-- O&#45;&gt;BestChoice (7) -->
<g id="edge15" class="edge">
<title>O&#45;&gt;BestChoice (7)</title>
<path fill="none" stroke="#00ff00" d="M30.7157,-1086.188C48.1227,-1065.9286 81.5763,-1026.9931 109.8249,-994.1156"/>
<polygon fill="#00ff00" stroke="#00ff00" points="112.6452,-996.2037 116.5075,-986.3379 107.3359,-991.6419 112.6452,-996.2037"/>
<text text-anchor="middle" x="59.1967" y="-1059.8" font-family="Times,serif" font-size="14.00" fill="#000000">0</text>
</g>
<!-- P -->
<g id="node19" class="node">
<title>P</title>
<ellipse fill="none" stroke="#000000" cx="18.8483" cy="-1046" rx="18" ry="18"/>
<text text-anchor="middle" x="18.8483" y="-1042.3" font-family="Times,serif" font-size="14.00" fill="#000000">P</text>
</g>
<!-- P&#45;&gt;BestChoice (7) -->
<g id="edge16" class="edge">
<title>P&#45;&gt;BestChoice (7)</title>
<path fill="none" stroke="#00ff00" d="M33.22,-1034.8489C48.946,-1022.6469 75.1713,-1002.2985 99.5352,-983.3943"/>
<polygon fill="#00ff00" stroke="#00ff00" points="101.9534,-985.948 107.7085,-977.0525 97.6623,-980.4175 101.9534,-985.948"/>
<text text-anchor="middle" x="59.1967" y="-1020.8" font-family="Times,serif" font-size="14.00" fill="#000000">0</text>
</g>
<!-- Q -->
<g id="node20" class="node">
<title>Q</title>
<ellipse fill="none" stroke="#000000" cx="18.8483" cy="-992" rx="18" ry="18"/>
<text text-anchor="middle" x="18.8483" y="-988.3" font-family="Times,serif" font-size="14.00" fill="#000000">Q</text>
</g>
<!-- Q&#45;&gt;BestChoice (7) -->
<g id="edge17" class="edge">
<title>Q&#45;&gt;BestChoice (7)</title>
<path fill="none" stroke="#00ff00" d="M35.6381,-985.4863C49.1833,-980.2314 69.2026,-972.4648 89.145,-964.728"/>
<polygon fill="#00ff00" stroke="#00ff00" points="90.5311,-967.9445 98.5882,-961.0645 87.9993,-961.4184 90.5311,-967.9445"/>
<text text-anchor="middle" x="59.1967" y="-980.8" font-family="Times,serif" font-size="14.00" fill="#000000">0</text>
</g>
<!-- R -->
<g id="node21" class="node">
<title>R</title>
<ellipse fill="none" stroke="#000000" cx="18.8483" cy="-938" rx="18" ry="18"/>
<text text-anchor="middle" x="18.8483" y="-934.3" font-family="Times,serif" font-size="14.00" fill="#000000">R</text>
</g>
<!-- R&#45;&gt;BestChoice (7) -->
<g id="edge18" class="edge">
<title>R&#45;&gt;BestChoice (7)</title>
<path fill="none" stroke="#00ff00" d="M37.0452,-938C49.3037,-938 66.3691,-938 83.8238,-938"/>
<polygon fill="#00ff00" stroke="#00ff00" points="84.1125,-941.5001 94.1125,-938 84.1124,-934.5001 84.1125,-941.5001"/>
<text text-anchor="middle" x="59.1967" y="-941.8" font-family="Times,serif" font-size="14.00" fill="#000000">0</text>
</g>
<!-- S -->
<g id="node22" class="node">
<title>S</title>
<ellipse fill="none" stroke="#000000" cx="18.8483" cy="-884" rx="18" ry="18"/>
<text text-anchor="middle" x="18.8483" y="-880.3" font-family="Times,serif" font-size="14.00" fill="#000000">S</text>
</g>
<!-- S&#45;&gt;BestChoice (7) -->
<g id="edge19" class="edge">
<title>S&#45;&gt;BestChoice (7)</title>
<path fill="none" stroke="#00ff00" d="M35.6381,-890.5137C49.1833,-895.7686 69.2026,-903.5352 89.145,-911.272"/>
<polygon fill="#00ff00" stroke="#00ff00" points="87.9993,-914.5816 98.5882,-914.9355 90.5311,-908.0555 87.9993,-914.5816"/>
<text text-anchor="middle" x="59.1967" y="-902.8" font-family="Times,serif" font-size="14.00" fill="#000000">0</text>
</g>
<!-- T -->
<g id="node23" class="node">
<title>T</title>
<ellipse fill="none" stroke="#000000" cx="18.8483" cy="-830" rx="18" ry="18"/>
<text text-anchor="middle" x="18.8483" y="-826.3" font-family="Times,serif" font-size="14.00" fill="#000000">T</text>
</g>
<!-- T&#45;&gt;BestChoice (7) -->
<g id="edge20" class="edge">
<title>T&#45;&gt;BestChoice (7)</title>
<path fill="none" stroke="#00ff00" d="M33.22,-841.1511C48.946,-853.3531 75.1713,-873.7015 99.5352,-892.6057"/>
<polygon fill="#00ff00" stroke="#00ff00" points="97.6623,-895.5825 107.7085,-898.9475 101.9534,-890.052 97.6623,-895.5825"/>
<text text-anchor="middle" x="59.1967" y="-864.8" font-family="Times,serif" font-size="14.00" fill="#000000">0</text>
</g>
<!-- U -->
<g id="node24" class="node">
<title>U</title>
<ellipse fill="none" stroke="#000000" cx="18.8483" cy="-776" rx="18" ry="18"/>
<text text-anchor="middle" x="18.8483" y="-772.3" font-family="Times,serif" font-size="14.00" fill="#000000">U</text>
</g>
<!-- U&#45;&gt;BestChoice (7) -->
<g id="edge21" class="edge">
<title>U&#45;&gt;BestChoice (7)</title>
<path fill="none" stroke="#00ff00" d="M30.7157,-789.812C48.1227,-810.0714 81.5763,-849.0069 109.8249,-881.8844"/>
<polygon fill="#00ff00" stroke="#00ff00" points="107.3359,-884.3581 116.5075,-889.6621 112.6452,-879.7963 107.3359,-884.3581"/>
<text text-anchor="middle" x="59.1967" y="-826.8" font-family="Times,serif" font-size="14.00" fill="#000000">0</text>
</g>
</g>
</svg>
