<?xml version="1.0" encoding="UTF-8" standalone="no"?>
<!DOCTYPE svg PUBLIC "-//W3C//DTD SVG 1.1//EN"
 "http://www.w3.org/Graphics/SVG/1.1/DTD/svg11.dtd">
<!-- Generated by graphviz version 2.43.20190912.0211 (20190912.0211)
 -->
<!-- Title: finite_state_machine Pages: 1 -->
<svg width="404pt" height="266pt"
 viewBox="0.00 0.00 403.79 266.00" xmlns="http://www.w3.org/2000/svg" xmlns:xlink="http://www.w3.org/1999/xlink">
<g id="graph0" class="graph" transform="scale(1 1) rotate(0) translate(4 262)">
<title>finite_state_machine</title>
<polygon fill="white" stroke="transparent" points="-4,4 -4,-262 399.79,-262 399.79,4 -4,4"/>
<!-- 1 -->
<g id="node1" class="node">
<title>1</title>
<ellipse fill="none" stroke="black" cx="240.89" cy="-83" rx="18" ry="18"/>
<text text-anchor="middle" x="240.89" y="-79.3" font-family="Times,serif" font-size="14.00">1</text>
</g>
<!-- 9999 -->
<g id="node2" class="node">
<title>9999</title>
<ellipse fill="none" stroke="black" cx="361.34" cy="-114" rx="34.39" ry="34.39"/>
<text text-anchor="middle" x="361.34" y="-110.3" font-family="Times,serif" font-size="14.00">9999</text>
</g>
<!-- 1&#45;&gt;9999 -->
<g id="edge1" class="edge">
<title>1&#45;&gt;9999</title>
<path fill="none" stroke="black" d="M258.61,-87.38C273.96,-91.39 297.35,-97.51 317.83,-102.87"/>
<polygon fill="black" stroke="black" points="317.05,-106.29 327.61,-105.43 318.82,-99.51 317.05,-106.29"/>
<text text-anchor="middle" x="292.89" y="-103.8" font-family="Times,serif" font-size="14.00">0/20</text>
</g>
<!-- 2 -->
<g id="node3" class="node">
<title>2</title>
<ellipse fill="none" stroke="black" cx="240.89" cy="-142" rx="18" ry="18"/>
<text text-anchor="middle" x="240.89" y="-138.3" font-family="Times,serif" font-size="14.00">2</text>
</g>
<!-- 2&#45;&gt;9999 -->
<g id="edge2" class="edge">
<title>2&#45;&gt;9999</title>
<path fill="none" stroke="black" d="M258.61,-138.05C273.96,-134.42 297.35,-128.89 317.83,-124.05"/>
<polygon fill="black" stroke="black" points="318.68,-127.44 327.61,-121.74 317.07,-120.63 318.68,-127.44"/>
<text text-anchor="middle" x="292.89" y="-135.8" font-family="Times,serif" font-size="14.00">1/3</text>
</g>
<!-- 3 -->
<g id="node4" class="node">
<title>3</title>
<ellipse fill="none" stroke="black" cx="240.89" cy="-229" rx="18" ry="18"/>
<text text-anchor="middle" x="240.89" y="-225.3" font-family="Times,serif" font-size="14.00">3</text>
</g>
<!-- 3&#45;&gt;9999 -->
<g id="edge3" class="edge">
<title>3&#45;&gt;9999</title>
<path fill="none" stroke="black" d="M254.57,-216.69C272.09,-199.68 304.3,-168.41 328.59,-144.82"/>
<polygon fill="black" stroke="black" points="331.12,-147.25 335.85,-137.78 326.24,-142.23 331.12,-147.25"/>
<text text-anchor="middle" x="292.89" y="-194.8" font-family="Times,serif" font-size="14.00">1/5</text>
</g>
<!-- 4 -->
<g id="node5" class="node">
<title>4</title>
<ellipse fill="none" stroke="black" cx="240.89" cy="-18" rx="18" ry="18"/>
<text text-anchor="middle" x="240.89" y="-14.3" font-family="Times,serif" font-size="14.00">4</text>
</g>
<!-- 4&#45;&gt;9999 -->
<g id="edge4" class="edge">
<title>4&#45;&gt;9999</title>
<path fill="none" stroke="black" d="M255.48,-29.01C272.55,-42.85 302.45,-67.08 325.96,-86.14"/>
<polygon fill="black" stroke="black" points="324.01,-89.06 333.98,-92.64 328.42,-83.62 324.01,-89.06"/>
<text text-anchor="middle" x="292.89" y="-74.8" font-family="Times,serif" font-size="14.00">1/2</text>
</g>
<!-- 5 -->
<g id="node6" class="node">
<title>5</title>
<ellipse fill="none" stroke="black" cx="145.89" cy="-134" rx="18" ry="18"/>
<text text-anchor="middle" x="145.89" y="-130.3" font-family="Times,serif" font-size="14.00">5</text>
</g>
<!-- 5&#45;&gt;1 -->
<g id="edge5" class="edge">
<title>5&#45;&gt;1</title>
<path fill="none" stroke="black" d="M151.48,-116.87C156.38,-102.32 165.73,-82.36 181.89,-73 191.81,-67.26 204.17,-68.47 214.93,-71.64"/>
<polygon fill="black" stroke="black" points="214.03,-75.03 224.62,-75.12 216.39,-68.44 214.03,-75.03"/>
<text text-anchor="middle" x="193.39" y="-76.8" font-family="Times,serif" font-size="14.00">0/1</text>
</g>
<!-- 5&#45;&gt;2 -->
<g id="edge6" class="edge">
<title>5&#45;&gt;2</title>
<path fill="none" stroke="black" d="M163.95,-135.47C177.59,-136.64 196.96,-138.31 212.72,-139.66"/>
<polygon fill="black" stroke="black" points="212.68,-143.17 222.94,-140.54 213.28,-136.2 212.68,-143.17"/>
<text text-anchor="middle" x="193.39" y="-141.8" font-family="Times,serif" font-size="14.00">1/1</text>
</g>
<!-- 6 -->
<g id="node7" class="node">
<title>6</title>
<ellipse fill="none" stroke="black" cx="145.89" cy="-199" rx="18" ry="18"/>
<text text-anchor="middle" x="145.89" y="-195.3" font-family="Times,serif" font-size="14.00">6</text>
</g>
<!-- 6&#45;&gt;1 -->
<g id="edge7" class="edge">
<title>6&#45;&gt;1</title>
<path fill="none" stroke="black" d="M162.25,-191C175.1,-183.64 193.17,-171.66 204.89,-157 217.58,-141.14 214.12,-133.32 222.89,-115 224.08,-112.53 225.35,-109.98 226.64,-107.44"/>
<polygon fill="black" stroke="black" points="229.79,-108.97 231.33,-98.49 223.59,-105.73 229.79,-108.97"/>
<text text-anchor="middle" x="193.39" y="-181.8" font-family="Times,serif" font-size="14.00">0/1</text>
</g>
<!-- 6&#45;&gt;2 -->
<g id="edge8" class="edge">
<title>6&#45;&gt;2</title>
<path fill="none" stroke="black" d="M163.26,-204.37C175.53,-207.38 192.3,-209.23 204.89,-202 217.44,-194.8 225.91,-181.17 231.37,-168.73"/>
<polygon fill="black" stroke="black" points="234.74,-169.73 235.13,-159.14 228.22,-167.17 234.74,-169.73"/>
<text text-anchor="middle" x="193.39" y="-210.8" font-family="Times,serif" font-size="14.00">0/1</text>
</g>
<!-- 6&#45;&gt;3 -->
<g id="edge9" class="edge">
<title>6&#45;&gt;3</title>
<path fill="none" stroke="black" d="M155.41,-214.48C161.45,-223.76 170.51,-234.75 181.89,-240 192.19,-244.75 204.42,-243.34 214.99,-240.21"/>
<polygon fill="black" stroke="black" points="216.25,-243.47 224.5,-236.82 213.9,-236.88 216.25,-243.47"/>
<text text-anchor="middle" x="193.39" y="-246.8" font-family="Times,serif" font-size="14.00">1/1</text>
</g>
<!-- 9998 -->
<g id="node8" class="node">
<title>9998</title>
<ellipse fill="none" stroke="black" cx="34.45" cy="-134" rx="34.39" ry="34.39"/>
<text text-anchor="middle" x="34.45" y="-130.3" font-family="Times,serif" font-size="14.00">9998</text>
</g>
<!-- 9998&#45;&gt;5 -->
<g id="edge10" class="edge">
<title>9998&#45;&gt;5</title>
<path fill="none" stroke="black" d="M69.18,-134C84.59,-134 102.63,-134 117.23,-134"/>
<polygon fill="black" stroke="black" points="117.63,-137.5 127.63,-134 117.63,-130.5 117.63,-137.5"/>
<text text-anchor="middle" x="98.39" y="-137.8" font-family="Times,serif" font-size="14.00">1/1</text>
</g>
<!-- 9998&#45;&gt;6 -->
<g id="edge11" class="edge">
<title>9998&#45;&gt;6</title>
<path fill="none" stroke="black" d="M64.49,-151.25C82.07,-161.69 104.21,-174.84 120.81,-184.7"/>
<polygon fill="black" stroke="black" points="119.48,-187.98 129.86,-190.07 123.05,-181.96 119.48,-187.98"/>
<text text-anchor="middle" x="98.39" y="-180.8" font-family="Times,serif" font-size="14.00">1/1</text>
</g>
<!-- 7 -->
<g id="node9" class="node">
<title>7</title>
<ellipse fill="none" stroke="black" cx="145.89" cy="-58" rx="18" ry="18"/>
<text text-anchor="middle" x="145.89" y="-54.3" font-family="Times,serif" font-size="14.00">7</text>
</g>
<!-- 9998&#45;&gt;7 -->
<g id="edge12" class="edge">
<title>9998&#45;&gt;7</title>
<path fill="none" stroke="black" d="M63.07,-114.82C81.4,-102.09 105.17,-85.59 122.36,-73.65"/>
<polygon fill="black" stroke="black" points="124.47,-76.45 130.68,-67.87 120.47,-70.7 124.47,-76.45"/>
<text text-anchor="middle" x="98.39" y="-99.8" font-family="Times,serif" font-size="14.00">1/1</text>
</g>
<!-- 7&#45;&gt;1 -->
<g id="edge13" class="edge">
<title>7&#45;&gt;1</title>
<path fill="none" stroke="black" d="M160.1,-46.35C172.06,-37.3 190.02,-27.44 204.89,-35 214.45,-39.86 222.01,-48.68 227.63,-57.45"/>
<polygon fill="black" stroke="black" points="224.75,-59.47 232.78,-66.4 230.82,-55.98 224.75,-59.47"/>
<text text-anchor="middle" x="193.39" y="-38.8" font-family="Times,serif" font-size="14.00">0/1</text>
</g>
<!-- 7&#45;&gt;2 -->
<g id="edge14" class="edge">
<title>7&#45;&gt;2</title>
<path fill="none" stroke="black" d="M159.83,-69.68C175.23,-83.6 201.17,-107.02 219.34,-123.43"/>
<polygon fill="black" stroke="black" points="217.31,-126.31 227.07,-130.42 222,-121.12 217.31,-126.31"/>
<text text-anchor="middle" x="193.39" y="-112.8" font-family="Times,serif" font-size="14.00">0/1</text>
</g>
<!-- 7&#45;&gt;4 -->
<g id="edge15" class="edge">
<title>7&#45;&gt;4</title>
<path fill="none" stroke="black" d="M154.87,-41.86C160.81,-31.82 169.94,-19.77 181.89,-14 191.54,-9.35 203.16,-9.24 213.45,-10.71"/>
<polygon fill="black" stroke="black" points="213.08,-14.2 223.57,-12.68 214.42,-7.33 213.08,-14.2"/>
<text text-anchor="middle" x="193.39" y="-17.8" font-family="Times,serif" font-size="14.00">1/1</text>
</g>
</g>
</svg>
