<?xml version="1.0" encoding="UTF-8" standalone="no"?>
<!DOCTYPE svg PUBLIC "-//W3C//DTD SVG 1.1//EN"
 "http://www.w3.org/Graphics/SVG/1.1/DTD/svg11.dtd">
<!-- Generated by graphviz version 2.43.20190912.0211 (20190912.0211)
 -->
<!-- Title: finite_state_machine Pages: 1 -->
<svg width="565pt" height="330pt"
 viewBox="0.00 0.00 565.00 330.00" xmlns="http://www.w3.org/2000/svg" xmlns:xlink="http://www.w3.org/1999/xlink">
<g id="graph0" class="graph" transform="scale(1 1) rotate(0) translate(4 326)">
<title>finite_state_machine</title>
<polygon fill="white" stroke="transparent" points="-4,4 -4,-326 561,-326 561,4 -4,4"/>
<!-- 3 -->
<g id="node1" class="node">
<title>3</title>
<ellipse fill="none" stroke="black" cx="228.5" cy="-115" rx="18" ry="18"/>
<text text-anchor="middle" x="228.5" y="-111.3" font-family="Times,serif" font-size="14.00">3</text>
</g>
<!-- 6 -->
<g id="node2" class="node">
<title>6</title>
<ellipse fill="none" stroke="black" cx="346.5" cy="-18" rx="18" ry="18"/>
<text text-anchor="middle" x="346.5" y="-14.3" font-family="Times,serif" font-size="14.00">6</text>
</g>
<!-- 3&#45;&gt;6 -->
<g id="edge1" class="edge">
<title>3&#45;&gt;6</title>
<path fill="none" stroke="black" d="M232.93,-97.5C237.47,-79.1 247.33,-50.68 267,-35 281.4,-23.52 301.84,-19.36 318.25,-18.03"/>
<polygon fill="black" stroke="black" points="318.54,-21.51 328.35,-17.51 318.18,-14.52 318.54,-21.51"/>
<text text-anchor="middle" x="287.5" y="-38.8" font-family="Times,serif" font-size="14.00">2/6</text>
</g>
<!-- 7 -->
<g id="node3" class="node">
<title>7</title>
<ellipse fill="none" stroke="black" cx="539" cy="-87" rx="18" ry="18"/>
<text text-anchor="middle" x="539" y="-83.3" font-family="Times,serif" font-size="14.00">7</text>
</g>
<!-- 3&#45;&gt;7 -->
<g id="edge2" class="edge">
<title>3&#45;&gt;7</title>
<path fill="none" stroke="black" d="M246.21,-111.34C279.97,-104.16 358.82,-88.43 426,-83 441.95,-81.71 446.01,-82.58 462,-83 478.1,-83.42 496.11,-84.35 510.55,-85.21"/>
<polygon fill="black" stroke="black" points="510.61,-88.72 520.81,-85.84 511.04,-81.73 510.61,-88.72"/>
<text text-anchor="middle" x="396.5" y="-90.8" font-family="Times,serif" font-size="14.00">1/2</text>
</g>
<!-- 4 -->
<g id="node4" class="node">
<title>4</title>
<ellipse fill="none" stroke="black" cx="346.5" cy="-164" rx="18" ry="18"/>
<text text-anchor="middle" x="346.5" y="-160.3" font-family="Times,serif" font-size="14.00">4</text>
</g>
<!-- 3&#45;&gt;4 -->
<g id="edge3" class="edge">
<title>3&#45;&gt;4</title>
<path fill="none" stroke="black" d="M246,-120.36C262.06,-125.76 287.06,-134.6 308,-144 312.36,-145.96 316.91,-148.2 321.28,-150.47"/>
<polygon fill="black" stroke="black" points="319.94,-153.72 330.41,-155.35 323.24,-147.55 319.94,-153.72"/>
<text text-anchor="middle" x="287.5" y="-147.8" font-family="Times,serif" font-size="14.00">20/20</text>
</g>
<!-- 5 -->
<g id="node5" class="node">
<title>5</title>
<ellipse fill="none" stroke="black" cx="444" cy="-110" rx="18" ry="18"/>
<text text-anchor="middle" x="444" y="-106.3" font-family="Times,serif" font-size="14.00">5</text>
</g>
<!-- 3&#45;&gt;5 -->
<g id="edge4" class="edge">
<title>3&#45;&gt;5</title>
<path fill="none" stroke="black" d="M246.61,-114.6C283.54,-113.73 370.99,-111.69 415.68,-110.64"/>
<polygon fill="black" stroke="black" points="415.89,-114.14 425.81,-110.4 415.73,-107.14 415.89,-114.14"/>
<text text-anchor="middle" x="346.5" y="-115.8" font-family="Times,serif" font-size="14.00">8/10</text>
</g>
<!-- 6&#45;&gt;7 -->
<g id="edge5" class="edge">
<title>6&#45;&gt;7</title>
<path fill="none" stroke="black" d="M364.94,-17.54C395.46,-17.57 459.48,-21.37 503,-50 509.25,-54.11 515.2,-59.55 520.35,-64.99"/>
<polygon fill="black" stroke="black" points="518.03,-67.65 527.29,-72.8 523.27,-63 518.03,-67.65"/>
<text text-anchor="middle" x="444" y="-34.8" font-family="Times,serif" font-size="14.00">2/7</text>
</g>
<!-- 4&#45;&gt;7 -->
<g id="edge16" class="edge">
<title>4&#45;&gt;7</title>
<path fill="none" stroke="black" d="M364.73,-162.46C394.94,-159.07 458.49,-148.82 503,-120 508.61,-116.37 514.14,-111.78 519.08,-107.19"/>
<polygon fill="black" stroke="black" points="521.61,-109.61 526.3,-100.11 516.71,-104.61 521.61,-109.61"/>
<text text-anchor="middle" x="444" y="-154.8" font-family="Times,serif" font-size="14.00">8/8</text>
</g>
<!-- 4&#45;&gt;5 -->
<g id="edge15" class="edge">
<title>4&#45;&gt;5</title>
<path fill="none" stroke="black" d="M361.4,-153.59C368.33,-148.6 376.92,-142.71 385,-138 395.47,-131.9 407.47,-125.94 417.82,-121.11"/>
<polygon fill="black" stroke="black" points="419.51,-124.18 427.15,-116.84 416.6,-117.82 419.51,-124.18"/>
<text text-anchor="middle" x="396.5" y="-141.8" font-family="Times,serif" font-size="14.00">1/5</text>
</g>
<!-- 2 -->
<g id="node6" class="node">
<title>2</title>
<ellipse fill="none" stroke="black" cx="444" cy="-244" rx="18" ry="18"/>
<text text-anchor="middle" x="444" y="-240.3" font-family="Times,serif" font-size="14.00">2</text>
</g>
<!-- 4&#45;&gt;2 -->
<g id="edge14" class="edge">
<title>4&#45;&gt;2</title>
<path fill="none" stroke="black" d="M362.88,-171.53C375.71,-178.23 394.09,-188.85 408,-201 414.73,-206.88 421.18,-214.15 426.67,-221.02"/>
<polygon fill="black" stroke="black" points="424.2,-223.57 433.05,-229.39 429.77,-219.32 424.2,-223.57"/>
<text text-anchor="middle" x="396.5" y="-204.8" font-family="Times,serif" font-size="14.00">2/2</text>
</g>
<!-- 5&#45;&gt;7 -->
<g id="edge6" class="edge">
<title>5&#45;&gt;7</title>
<path fill="none" stroke="black" d="M461.63,-105.89C475.43,-102.48 495.32,-97.56 511.34,-93.59"/>
<polygon fill="black" stroke="black" points="512.34,-96.95 521.2,-91.15 510.66,-90.16 512.34,-96.95"/>
<text text-anchor="middle" x="491.5" y="-104.8" font-family="Times,serif" font-size="14.00">7/8</text>
</g>
<!-- 2&#45;&gt;3 -->
<g id="edge7" class="edge">
<title>2&#45;&gt;3</title>
<path fill="none" stroke="black" d="M426.5,-239.38C393.51,-229.54 318.19,-204.01 267,-163 258.55,-156.23 250.85,-147.19 244.67,-138.79"/>
<polygon fill="black" stroke="black" points="247.39,-136.57 238.8,-130.38 241.65,-140.58 247.39,-136.57"/>
<text text-anchor="middle" x="346.5" y="-220.8" font-family="Times,serif" font-size="14.00">26/26</text>
</g>
<!-- 0 -->
<g id="node7" class="node">
<title>0</title>
<ellipse fill="none" stroke="black" cx="18" cy="-173" rx="18" ry="18"/>
<text text-anchor="middle" x="18" y="-169.3" font-family="Times,serif" font-size="14.00">0</text>
</g>
<!-- 0&#45;&gt;6 -->
<g id="edge8" class="edge">
<title>0&#45;&gt;6</title>
<path fill="none" stroke="black" d="M31.64,-161.17C66.07,-129.89 165.69,-45.37 267,-16 283.7,-11.16 303.25,-11.64 318.66,-13.34"/>
<polygon fill="black" stroke="black" points="318.21,-16.81 328.58,-14.66 319.13,-9.87 318.21,-16.81"/>
<text text-anchor="middle" x="169.5" y="-73.8" font-family="Times,serif" font-size="14.00">2/2</text>
</g>
<!-- 0&#45;&gt;2 -->
<g id="edge9" class="edge">
<title>0&#45;&gt;2</title>
<path fill="none" stroke="black" d="M22.52,-190.52C30.96,-226.84 55.93,-307 112,-307 112,-307 112,-307 347.5,-307 378.61,-307 407.4,-283.42 425.06,-265.11"/>
<polygon fill="black" stroke="black" points="427.72,-267.39 431.93,-257.67 422.57,-262.65 427.72,-267.39"/>
<text text-anchor="middle" x="228.5" y="-310.8" font-family="Times,serif" font-size="14.00">1/3</text>
</g>
<!-- 1 -->
<g id="node8" class="node">
<title>1</title>
<ellipse fill="none" stroke="black" cx="113" cy="-173" rx="18" ry="18"/>
<text text-anchor="middle" x="113" y="-169.3" font-family="Times,serif" font-size="14.00">1</text>
</g>
<!-- 0&#45;&gt;1 -->
<g id="edge10" class="edge">
<title>0&#45;&gt;1</title>
<path fill="none" stroke="black" d="M36.06,-173C49.61,-173 68.82,-173 84.53,-173"/>
<polygon fill="black" stroke="black" points="84.74,-176.5 94.74,-173 84.74,-169.5 84.74,-176.5"/>
<text text-anchor="middle" x="65.5" y="-176.8" font-family="Times,serif" font-size="14.00">4/5</text>
</g>
<!-- 1&#45;&gt;3 -->
<g id="edge12" class="edge">
<title>1&#45;&gt;3</title>
<path fill="none" stroke="black" d="M126.51,-160.86C132.87,-155.17 140.93,-148.65 149,-144 165.42,-134.54 185.48,-127.19 201.22,-122.26"/>
<polygon fill="black" stroke="black" points="202.28,-125.59 210.85,-119.37 200.27,-118.89 202.28,-125.59"/>
<text text-anchor="middle" x="169.5" y="-147.8" font-family="Times,serif" font-size="14.00">10/10</text>
</g>
<!-- 1&#45;&gt;4 -->
<g id="edge13" class="edge">
<title>1&#45;&gt;4</title>
<path fill="none" stroke="black" d="M131.02,-172.34C170.82,-170.79 270.24,-166.93 318.44,-165.05"/>
<polygon fill="black" stroke="black" points="318.6,-168.55 328.45,-164.66 318.32,-161.55 318.6,-168.55"/>
<text text-anchor="middle" x="228.5" y="-172.8" font-family="Times,serif" font-size="14.00">14/14</text>
</g>
<!-- 1&#45;&gt;2 -->
<g id="edge11" class="edge">
<title>1&#45;&gt;2</title>
<path fill="none" stroke="black" d="M130.36,-178.21C136.23,-180.06 142.91,-182.15 149,-184 252.44,-215.45 277.13,-235.69 385,-243 395,-243.68 405.99,-243.98 415.69,-244.1"/>
<polygon fill="black" stroke="black" points="415.96,-247.6 425.98,-244.16 416,-240.6 415.96,-247.6"/>
<text text-anchor="middle" x="287.5" y="-236.8" font-family="Times,serif" font-size="14.00">8/8</text>
</g>
</g>
</svg>
