<?xml version="1.0" encoding="UTF-8" standalone="no"?>
<!DOCTYPE svg PUBLIC "-//W3C//DTD SVG 1.1//EN"
 "http://www.w3.org/Graphics/SVG/1.1/DTD/svg11.dtd">
<!-- Generated by graphviz version 2.43.20190912.0211 (20190912.0211)
 -->
<!-- Title: finite_state_machine Pages: 1 -->
<svg width="682pt" height="289pt"
 viewBox="0.00 0.00 682.00 289.00" xmlns="http://www.w3.org/2000/svg" xmlns:xlink="http://www.w3.org/1999/xlink">
<g id="graph0" class="graph" transform="scale(1 1) rotate(0) translate(4 285)">
<title>finite_state_machine</title>
<polygon fill="white" stroke="transparent" points="-4,4 -4,-285 678,-285 678,4 -4,4"/>
<!-- 4 -->
<g id="node1" class="node">
<title>4</title>
<ellipse fill="none" stroke="black" cx="226" cy="-68" rx="18" ry="18"/>
<text text-anchor="middle" x="226" y="-64.3" font-family="Times,serif" font-size="14.00">4</text>
</g>
<!-- 2 -->
<g id="node2" class="node">
<title>2</title>
<ellipse fill="none" stroke="black" cx="341.5" cy="-185" rx="18" ry="18"/>
<text text-anchor="middle" x="341.5" y="-181.3" font-family="Times,serif" font-size="14.00">2</text>
</g>
<!-- 4&#45;&gt;2 -->
<g id="edge1" class="edge">
<title>4&#45;&gt;2</title>
<path fill="none" stroke="black" d="M243.33,-73.75C262.91,-80.89 294.19,-93.23 303,-102 318.36,-117.3 328.02,-140.02 333.68,-157.82"/>
<polygon fill="black" stroke="black" points="330.39,-159.03 336.57,-167.64 337.11,-157.06 330.39,-159.03"/>
<text text-anchor="middle" x="282.5" y="-105.8" font-family="Times,serif" font-size="14.00">2/2</text>
</g>
<!-- 7 -->
<g id="node3" class="node">
<title>7</title>
<ellipse fill="none" stroke="black" cx="656" cy="-94" rx="18" ry="18"/>
<text text-anchor="middle" x="656" y="-90.3" font-family="Times,serif" font-size="14.00">7</text>
</g>
<!-- 4&#45;&gt;7 -->
<g id="edge2" class="edge">
<title>4&#45;&gt;7</title>
<path fill="none" stroke="black" d="M238.85,-54.89C258.09,-35.13 298.23,0 340.5,0 340.5,0 340.5,0 562,0 600.61,0 628.62,-40.57 643.3,-68.4"/>
<polygon fill="black" stroke="black" points="640.32,-70.26 647.94,-77.63 646.58,-67.12 640.32,-70.26"/>
<text text-anchor="middle" x="457" y="-3.8" font-family="Times,serif" font-size="14.00">7/8</text>
</g>
<!-- 5 -->
<g id="node4" class="node">
<title>5</title>
<ellipse fill="none" stroke="black" cx="561" cy="-129" rx="18" ry="18"/>
<text text-anchor="middle" x="561" y="-125.3" font-family="Times,serif" font-size="14.00">5</text>
</g>
<!-- 4&#45;&gt;5 -->
<g id="edge3" class="edge">
<title>4&#45;&gt;5</title>
<path fill="none" stroke="black" d="M244.24,-67.55C259.66,-67.31 282.88,-67.34 303,-69 355.87,-73.36 369.26,-75.3 421,-87 460.9,-96.02 506.07,-110.48 533.79,-119.86"/>
<polygon fill="black" stroke="black" points="532.92,-123.26 543.51,-123.18 535.18,-116.64 532.92,-123.26"/>
<text text-anchor="middle" x="400.5" y="-90.8" font-family="Times,serif" font-size="14.00">1/5</text>
</g>
<!-- 3 -->
<g id="node8" class="node">
<title>3</title>
<ellipse fill="none" stroke="black" cx="457" cy="-136" rx="18" ry="18"/>
<text text-anchor="middle" x="457" y="-132.3" font-family="Times,serif" font-size="14.00">3</text>
</g>
<!-- 2&#45;&gt;3 -->
<g id="edge16" class="edge">
<title>2&#45;&gt;3</title>
<path fill="none" stroke="black" d="M358.57,-178.81C374.52,-172.57 399.63,-162.53 421,-153 424.31,-151.52 427.77,-149.92 431.17,-148.31"/>
<polygon fill="black" stroke="black" points="432.94,-151.34 440.42,-143.84 429.89,-145.03 432.94,-151.34"/>
<text text-anchor="middle" x="400.5" y="-173.8" font-family="Times,serif" font-size="14.00">26/26</text>
</g>
<!-- 5&#45;&gt;7 -->
<g id="edge12" class="edge">
<title>5&#45;&gt;7</title>
<path fill="none" stroke="black" d="M578.2,-122.9C592.34,-117.58 613.09,-109.77 629.46,-103.61"/>
<polygon fill="black" stroke="black" points="630.86,-106.82 638.99,-100.03 628.39,-100.27 630.86,-106.82"/>
<text text-anchor="middle" x="608.5" y="-118.8" font-family="Times,serif" font-size="14.00">7/8</text>
</g>
<!-- 0 -->
<g id="node5" class="node">
<title>0</title>
<ellipse fill="none" stroke="black" cx="18" cy="-228" rx="18" ry="18"/>
<text text-anchor="middle" x="18" y="-224.3" font-family="Times,serif" font-size="14.00">0</text>
</g>
<!-- 0&#45;&gt;2 -->
<g id="edge6" class="edge">
<title>0&#45;&gt;2</title>
<path fill="none" stroke="black" d="M36.01,-226.19C80.19,-221.43 202.1,-207.8 303,-192 306.51,-191.45 310.19,-190.82 313.83,-190.18"/>
<polygon fill="black" stroke="black" points="314.54,-193.6 323.74,-188.35 313.27,-186.72 314.54,-193.6"/>
<text text-anchor="middle" x="169.5" y="-215.8" font-family="Times,serif" font-size="14.00">1/3</text>
</g>
<!-- 6 -->
<g id="node6" class="node">
<title>6</title>
<ellipse fill="none" stroke="black" cx="561" cy="-183" rx="18" ry="18"/>
<text text-anchor="middle" x="561" y="-179.3" font-family="Times,serif" font-size="14.00">6</text>
</g>
<!-- 0&#45;&gt;6 -->
<g id="edge4" class="edge">
<title>0&#45;&gt;6</title>
<path fill="none" stroke="black" d="M33.4,-237.98C51.07,-249.24 82.35,-266 112,-266 112,-266 112,-266 458,-266 495.82,-266 527.4,-231.25 544.99,-206.72"/>
<polygon fill="black" stroke="black" points="548.04,-208.45 550.82,-198.22 542.27,-204.49 548.04,-208.45"/>
<text text-anchor="middle" x="282.5" y="-269.8" font-family="Times,serif" font-size="14.00">2/2</text>
</g>
<!-- 1 -->
<g id="node7" class="node">
<title>1</title>
<ellipse fill="none" stroke="black" cx="113" cy="-161" rx="18" ry="18"/>
<text text-anchor="middle" x="113" y="-157.3" font-family="Times,serif" font-size="14.00">1</text>
</g>
<!-- 0&#45;&gt;1 -->
<g id="edge5" class="edge">
<title>0&#45;&gt;1</title>
<path fill="none" stroke="black" d="M32.02,-216.63C38.49,-211.12 46.51,-204.53 54,-199 64.94,-190.93 77.51,-182.58 88.15,-175.78"/>
<polygon fill="black" stroke="black" points="90.33,-178.54 96.91,-170.24 86.59,-172.62 90.33,-178.54"/>
<text text-anchor="middle" x="65.5" y="-202.8" font-family="Times,serif" font-size="14.00">3/5</text>
</g>
<!-- 6&#45;&gt;7 -->
<g id="edge11" class="edge">
<title>6&#45;&gt;7</title>
<path fill="none" stroke="black" d="M575.86,-172.26C587.94,-162.69 605.71,-148.04 620,-134 625.79,-128.31 631.74,-121.8 637.05,-115.72"/>
<polygon fill="black" stroke="black" points="639.98,-117.67 643.82,-107.79 634.66,-113.12 639.98,-117.67"/>
<text text-anchor="middle" x="608.5" y="-156.8" font-family="Times,serif" font-size="14.00">2/7</text>
</g>
<!-- 1&#45;&gt;4 -->
<g id="edge15" class="edge">
<title>1&#45;&gt;4</title>
<path fill="none" stroke="black" d="M122.19,-145.3C128.44,-134.41 137.87,-120.11 149,-110 163.88,-96.49 183.88,-85.66 199.62,-78.38"/>
<polygon fill="black" stroke="black" points="201.07,-81.57 208.79,-74.32 198.23,-75.17 201.07,-81.57"/>
<text text-anchor="middle" x="169.5" y="-113.8" font-family="Times,serif" font-size="14.00">13/14</text>
</g>
<!-- 1&#45;&gt;2 -->
<g id="edge13" class="edge">
<title>1&#45;&gt;2</title>
<path fill="none" stroke="black" d="M131.02,-162.8C170.06,-166.94 266.29,-177.14 313.5,-182.14"/>
<polygon fill="black" stroke="black" points="313.27,-185.63 323.59,-183.21 314.01,-178.67 313.27,-185.63"/>
<text text-anchor="middle" x="226" y="-177.8" font-family="Times,serif" font-size="14.00">8/8</text>
</g>
<!-- 1&#45;&gt;3 -->
<g id="edge14" class="edge">
<title>1&#45;&gt;3</title>
<path fill="none" stroke="black" d="M130.96,-159.76C186.12,-155.73 360.74,-142.96 428.63,-138"/>
<polygon fill="black" stroke="black" points="429.22,-141.47 438.94,-137.25 428.71,-134.49 429.22,-141.47"/>
<text text-anchor="middle" x="282.5" y="-152.8" font-family="Times,serif" font-size="14.00">10/10</text>
</g>
<!-- 3&#45;&gt;4 -->
<g id="edge9" class="edge">
<title>3&#45;&gt;4</title>
<path fill="none" stroke="black" d="M440.18,-129.48C412.7,-118.37 354.17,-95.65 303,-82 286.94,-77.71 268.62,-74.3 253.99,-71.91"/>
<polygon fill="black" stroke="black" points="254.49,-68.45 244.07,-70.36 253.41,-75.36 254.49,-68.45"/>
<text text-anchor="middle" x="341.5" y="-102.8" font-family="Times,serif" font-size="14.00">20/20</text>
</g>
<!-- 3&#45;&gt;7 -->
<g id="edge8" class="edge">
<title>3&#45;&gt;7</title>
<path fill="none" stroke="black" d="M471.43,-125.23C487.39,-113.19 515.36,-94.4 543,-87 571.43,-79.39 605.31,-83.2 628.31,-87.6"/>
<polygon fill="black" stroke="black" points="627.85,-91.08 638.35,-89.69 629.27,-84.23 627.85,-91.08"/>
<text text-anchor="middle" x="561" y="-90.8" font-family="Times,serif" font-size="14.00">1/2</text>
</g>
<!-- 3&#45;&gt;5 -->
<g id="edge10" class="edge">
<title>3&#45;&gt;5</title>
<path fill="none" stroke="black" d="M475.3,-134.81C491.08,-133.73 514.64,-132.11 532.91,-130.86"/>
<polygon fill="black" stroke="black" points="533.22,-134.35 542.95,-130.17 532.74,-127.36 533.22,-134.35"/>
<text text-anchor="middle" x="509" y="-136.8" font-family="Times,serif" font-size="14.00">8/10</text>
</g>
<!-- 3&#45;&gt;6 -->
<g id="edge7" class="edge">
<title>3&#45;&gt;6</title>
<path fill="none" stroke="black" d="M473.94,-143.34C490.26,-150.86 515.86,-162.66 534.9,-171.43"/>
<polygon fill="black" stroke="black" points="533.63,-174.7 544.17,-175.71 536.56,-168.34 533.63,-174.7"/>
<text text-anchor="middle" x="509" y="-169.8" font-family="Times,serif" font-size="14.00">2/6</text>
</g>
</g>
</svg>
