<?xml version="1.0" encoding="UTF-8" standalone="no"?>
<!DOCTYPE svg PUBLIC "-//W3C//DTD SVG 1.1//EN"
 "http://www.w3.org/Graphics/SVG/1.1/DTD/svg11.dtd">
<!-- Generated by graphviz version 2.43.20190912.0211 (20190912.0211)
 -->
<!-- Title: finite_state_machine Pages: 1 -->
<svg width="357pt" height="223pt"
 viewBox="0.00 0.00 357.00 223.00" xmlns="http://www.w3.org/2000/svg" xmlns:xlink="http://www.w3.org/1999/xlink">
<g id="graph0" class="graph" transform="scale(1 1) rotate(0) translate(4 219)">
<title>finite_state_machine</title>
<polygon fill="white" stroke="transparent" points="-4,4 -4,-219 353,-219 353,4 -4,4"/>
<!-- 4 -->
<g id="node1" class="node">
<title>4</title>
<ellipse fill="none" stroke="black" cx="18" cy="-140" rx="18" ry="18"/>
<text text-anchor="middle" x="18" y="-136.3" font-family="Times,serif" font-size="14.00">4</text>
</g>
<!-- 5 -->
<g id="node2" class="node">
<title>5</title>
<ellipse fill="none" stroke="black" cx="233.5" cy="-197" rx="18" ry="18"/>
<text text-anchor="middle" x="233.5" y="-193.3" font-family="Times,serif" font-size="14.00">5</text>
</g>
<!-- 4&#45;&gt;5 -->
<g id="edge1" class="edge">
<title>4&#45;&gt;5</title>
<path fill="none" stroke="black" d="M34,-149.02C40.07,-152.44 47.23,-156.18 54,-159 96.84,-176.83 108.49,-179.94 154,-189 170.76,-192.34 189.82,-194.32 204.96,-195.48"/>
<polygon fill="black" stroke="black" points="204.99,-198.99 215.21,-196.18 205.47,-192 204.99,-198.99"/>
<text text-anchor="middle" x="115.5" y="-188.8" font-family="Times,serif" font-size="14.00">4/4</text>
</g>
<!-- 3 -->
<g id="node3" class="node">
<title>3</title>
<ellipse fill="none" stroke="black" cx="115.5" cy="-140" rx="18" ry="18"/>
<text text-anchor="middle" x="115.5" y="-136.3" font-family="Times,serif" font-size="14.00">3</text>
</g>
<!-- 4&#45;&gt;3 -->
<g id="edge2" class="edge">
<title>4&#45;&gt;3</title>
<path fill="none" stroke="black" d="M36.07,-140C50.24,-140 70.67,-140 87.12,-140"/>
<polygon fill="black" stroke="black" points="87.25,-143.5 97.25,-140 87.25,-136.5 87.25,-143.5"/>
<text text-anchor="middle" x="65.5" y="-143.8" font-family="Times,serif" font-size="14.00">7/7</text>
</g>
<!-- 3&#45;&gt;5 -->
<g id="edge3" class="edge">
<title>3&#45;&gt;5</title>
<path fill="none" stroke="black" d="M132.44,-146.13C148.52,-152.5 173.92,-163.04 195,-174 199.79,-176.49 204.79,-179.36 209.53,-182.21"/>
<polygon fill="black" stroke="black" points="207.83,-185.27 218.17,-187.55 211.51,-179.32 207.83,-185.27"/>
<text text-anchor="middle" x="174.5" y="-177.8" font-family="Times,serif" font-size="14.00">19/20</text>
</g>
<!-- 2 -->
<g id="node4" class="node">
<title>2</title>
<ellipse fill="none" stroke="black" cx="233.5" cy="-77" rx="18" ry="18"/>
<text text-anchor="middle" x="233.5" y="-73.3" font-family="Times,serif" font-size="14.00">2</text>
</g>
<!-- 3&#45;&gt;2 -->
<g id="edge4" class="edge">
<title>3&#45;&gt;2</title>
<path fill="none" stroke="black" d="M129.81,-128.39C136.73,-122.71 145.5,-116.02 154,-111 170.78,-101.09 190.99,-92.4 206.7,-86.29"/>
<polygon fill="black" stroke="black" points="208.18,-89.47 216.29,-82.66 205.7,-82.93 208.18,-89.47"/>
<text text-anchor="middle" x="174.5" y="-114.8" font-family="Times,serif" font-size="14.00">0/9</text>
</g>
<!-- 2&#45;&gt;4 -->
<g id="edge5" class="edge">
<title>2&#45;&gt;4</title>
<path fill="none" stroke="black" d="M215.1,-77.7C188.55,-79.2 136.6,-83.83 95,-98 76.15,-104.42 56.52,-115.39 41.94,-124.51"/>
<polygon fill="black" stroke="black" points="39.66,-121.82 33.14,-130.17 43.44,-127.71 39.66,-121.82"/>
<text text-anchor="middle" x="115.5" y="-101.8" font-family="Times,serif" font-size="14.00">11/14</text>
</g>
<!-- 1 -->
<g id="node5" class="node">
<title>1</title>
<ellipse fill="none" stroke="black" cx="331" cy="-77" rx="18" ry="18"/>
<text text-anchor="middle" x="331" y="-73.3" font-family="Times,serif" font-size="14.00">1</text>
</g>
<!-- 2&#45;&gt;1 -->
<g id="edge6" class="edge">
<title>2&#45;&gt;1</title>
<path fill="none" stroke="black" d="M251.57,-77C265.74,-77 286.17,-77 302.62,-77"/>
<polygon fill="black" stroke="black" points="302.75,-80.5 312.75,-77 302.75,-73.5 302.75,-80.5"/>
<text text-anchor="middle" x="283.5" y="-80.8" font-family="Times,serif" font-size="14.00">0/4</text>
</g>
<!-- 1&#45;&gt;3 -->
<g id="edge7" class="edge">
<title>1&#45;&gt;3</title>
<path fill="none" stroke="black" d="M315,-86.02C308.93,-89.44 301.77,-93.18 295,-96 243.73,-117.34 179.69,-130 143.93,-135.92"/>
<polygon fill="black" stroke="black" points="143.1,-132.5 133.78,-137.54 144.21,-139.42 143.1,-132.5"/>
<text text-anchor="middle" x="233.5" y="-124.8" font-family="Times,serif" font-size="14.00">12/12</text>
</g>
<!-- 0 -->
<g id="node6" class="node">
<title>0</title>
<ellipse fill="none" stroke="black" cx="115.5" cy="-18" rx="18" ry="18"/>
<text text-anchor="middle" x="115.5" y="-14.3" font-family="Times,serif" font-size="14.00">0</text>
</g>
<!-- 0&#45;&gt;2 -->
<g id="edge8" class="edge">
<title>0&#45;&gt;2</title>
<path fill="none" stroke="black" d="M133.06,-22.77C149.39,-27.82 174.77,-36.64 195,-48 200.61,-51.15 206.29,-55.08 211.47,-59.02"/>
<polygon fill="black" stroke="black" points="209.63,-62.02 219.63,-65.52 213.99,-56.55 209.63,-62.02"/>
<text text-anchor="middle" x="174.5" y="-51.8" font-family="Times,serif" font-size="14.00">11/13</text>
</g>
<!-- 0&#45;&gt;1 -->
<g id="edge9" class="edge">
<title>0&#45;&gt;1</title>
<path fill="none" stroke="black" d="M133.89,-18.05C160.43,-18.59 212.36,-21.48 254,-35 272.94,-41.15 292.56,-52.13 307.13,-61.32"/>
<polygon fill="black" stroke="black" points="305.62,-64.52 315.91,-67.04 309.43,-58.65 305.62,-64.52"/>
<text text-anchor="middle" x="233.5" y="-38.8" font-family="Times,serif" font-size="14.00">12/16</text>
</g>
</g>
</svg>
