<?xml version="1.0" encoding="UTF-8" standalone="no"?>
<!DOCTYPE svg PUBLIC "-//W3C//DTD SVG 1.1//EN"
 "http://www.w3.org/Graphics/SVG/1.1/DTD/svg11.dtd">
<!-- Generated by graphviz version 2.43.20190912.0211 (20190912.0211)
 -->
<!-- Title: finite_state_machine Pages: 1 -->
<svg width="460pt" height="154pt"
 viewBox="0.00 0.00 460.00 154.00" xmlns="http://www.w3.org/2000/svg" xmlns:xlink="http://www.w3.org/1999/xlink">
<g id="graph0" class="graph" transform="scale(1 1) rotate(0) translate(4 150)">
<title>finite_state_machine</title>
<polygon fill="white" stroke="transparent" points="-4,4 -4,-150 456,-150 456,4 -4,4"/>
<!-- 0 -->
<g id="node1" class="node">
<title>0</title>
<ellipse fill="none" stroke="black" cx="18" cy="-77" rx="18" ry="18"/>
<text text-anchor="middle" x="18" y="-73.3" font-family="Times,serif" font-size="14.00">0</text>
</g>
<!-- 2 -->
<g id="node2" class="node">
<title>2</title>
<ellipse fill="none" stroke="black" cx="226" cy="-128" rx="18" ry="18"/>
<text text-anchor="middle" x="226" y="-124.3" font-family="Times,serif" font-size="14.00">2</text>
</g>
<!-- 0&#45;&gt;2 -->
<g id="edge1" class="edge">
<title>0&#45;&gt;2</title>
<path fill="none" stroke="black" d="M33.98,-86.06C40.05,-89.48 47.22,-93.22 54,-96 98.51,-114.25 110.47,-118.56 158,-126 170.98,-128.03 185.55,-128.66 197.77,-128.73"/>
<polygon fill="black" stroke="black" points="197.84,-132.23 207.82,-128.67 197.8,-125.23 197.84,-132.23"/>
<text text-anchor="middle" x="122" y="-125.8" font-family="Times,serif" font-size="14.00">0/8</text>
</g>
<!-- 5 -->
<g id="node3" class="node">
<title>5</title>
<ellipse fill="none" stroke="black" cx="122" cy="-77" rx="18" ry="18"/>
<text text-anchor="middle" x="122" y="-73.3" font-family="Times,serif" font-size="14.00">5</text>
</g>
<!-- 0&#45;&gt;5 -->
<g id="edge2" class="edge">
<title>0&#45;&gt;5</title>
<path fill="none" stroke="black" d="M36.3,-77C52.08,-77 75.64,-77 93.91,-77"/>
<polygon fill="black" stroke="black" points="93.95,-80.5 103.95,-77 93.95,-73.5 93.95,-80.5"/>
<text text-anchor="middle" x="70" y="-80.8" font-family="Times,serif" font-size="14.00">0/10</text>
</g>
<!-- 1 -->
<g id="node4" class="node">
<title>1</title>
<ellipse fill="none" stroke="black" cx="226" cy="-18" rx="18" ry="18"/>
<text text-anchor="middle" x="226" y="-14.3" font-family="Times,serif" font-size="14.00">1</text>
</g>
<!-- 0&#45;&gt;1 -->
<g id="edge3" class="edge">
<title>0&#45;&gt;1</title>
<path fill="none" stroke="black" d="M33.75,-67.89C50.24,-58.14 78.05,-43.01 104,-35 135.25,-25.36 172.75,-21.16 197.64,-19.35"/>
<polygon fill="black" stroke="black" points="198.04,-22.83 207.79,-18.7 197.59,-15.85 198.04,-22.83"/>
<text text-anchor="middle" x="122" y="-38.8" font-family="Times,serif" font-size="14.00">0/7</text>
</g>
<!-- 4 -->
<g id="node5" class="node">
<title>4</title>
<ellipse fill="none" stroke="black" cx="330" cy="-71" rx="18" ry="18"/>
<text text-anchor="middle" x="330" y="-67.3" font-family="Times,serif" font-size="14.00">4</text>
</g>
<!-- 2&#45;&gt;4 -->
<g id="edge4" class="edge">
<title>2&#45;&gt;4</title>
<path fill="none" stroke="black" d="M242.2,-119.69C255.81,-112.23 276.28,-100.96 294,-91 297.6,-88.98 301.41,-86.82 305.13,-84.7"/>
<polygon fill="black" stroke="black" points="307.09,-87.61 314.04,-79.61 303.62,-81.53 307.09,-87.61"/>
<text text-anchor="middle" x="278" y="-111.8" font-family="Times,serif" font-size="14.00">0/12</text>
</g>
<!-- 5&#45;&gt;2 -->
<g id="edge6" class="edge">
<title>5&#45;&gt;2</title>
<path fill="none" stroke="black" d="M138.49,-84.75C154.99,-92.99 181.32,-106.16 200.61,-115.8"/>
<polygon fill="black" stroke="black" points="199.19,-119.01 209.7,-120.35 202.32,-112.75 199.19,-119.01"/>
<text text-anchor="middle" x="174" y="-113.8" font-family="Times,serif" font-size="14.00">0/2</text>
</g>
<!-- 5&#45;&gt;1 -->
<g id="edge7" class="edge">
<title>5&#45;&gt;1</title>
<path fill="none" stroke="black" d="M135.65,-65.09C142.04,-59.46 150.09,-52.92 158,-48 170.89,-39.98 186.3,-32.93 199.09,-27.68"/>
<polygon fill="black" stroke="black" points="200.68,-30.81 208.68,-23.87 198.09,-24.31 200.68,-30.81"/>
<text text-anchor="middle" x="174" y="-51.8" font-family="Times,serif" font-size="14.00">0/11</text>
</g>
<!-- 5&#45;&gt;4 -->
<g id="edge5" class="edge">
<title>5&#45;&gt;4</title>
<path fill="none" stroke="black" d="M140.21,-76.5C176.05,-75.45 258.91,-73.04 301.95,-71.79"/>
<polygon fill="black" stroke="black" points="302.09,-75.29 311.98,-71.5 301.89,-68.29 302.09,-75.29"/>
<text text-anchor="middle" x="226" y="-77.8" font-family="Times,serif" font-size="14.00">0/5</text>
</g>
<!-- 1&#45;&gt;4 -->
<g id="edge8" class="edge">
<title>1&#45;&gt;4</title>
<path fill="none" stroke="black" d="M243.05,-24.33C256.84,-29.98 277.12,-38.75 294,-48 298.06,-50.22 302.26,-52.76 306.28,-55.32"/>
<polygon fill="black" stroke="black" points="304.4,-58.27 314.68,-60.84 308.24,-52.42 304.4,-58.27"/>
<text text-anchor="middle" x="278" y="-51.8" font-family="Times,serif" font-size="14.00">0/1</text>
</g>
<!-- 3 -->
<g id="node6" class="node">
<title>3</title>
<ellipse fill="none" stroke="black" cx="434" cy="-30" rx="18" ry="18"/>
<text text-anchor="middle" x="434" y="-26.3" font-family="Times,serif" font-size="14.00">3</text>
</g>
<!-- 1&#45;&gt;3 -->
<g id="edge9" class="edge">
<title>1&#45;&gt;3</title>
<path fill="none" stroke="black" d="M244.21,-19C280.05,-21.09 362.91,-25.92 405.95,-28.42"/>
<polygon fill="black" stroke="black" points="405.8,-31.92 415.98,-29.01 406.21,-24.93 405.8,-31.92"/>
<text text-anchor="middle" x="330" y="-28.8" font-family="Times,serif" font-size="14.00">0/21</text>
</g>
<!-- 4&#45;&gt;3 -->
<g id="edge10" class="edge">
<title>4&#45;&gt;3</title>
<path fill="none" stroke="black" d="M346.94,-64.59C363.09,-58.1 388.32,-47.96 407.3,-40.33"/>
<polygon fill="black" stroke="black" points="408.86,-43.47 416.84,-36.5 406.25,-36.98 408.86,-43.47"/>
<text text-anchor="middle" x="382" y="-59.8" font-family="Times,serif" font-size="14.00">0/14</text>
</g>
</g>
</svg>
