<?xml version="1.0" encoding="UTF-8" standalone="no"?>
<!DOCTYPE svg PUBLIC "-//W3C//DTD SVG 1.1//EN"
 "http://www.w3.org/Graphics/SVG/1.1/DTD/svg11.dtd">
<!-- Generated by graphviz version 2.43.20190912.0211 (20190912.0211)
 -->
<!-- Title: finite_state_machine Pages: 1 -->
<svg width="490pt" height="195pt"
 viewBox="0.00 0.00 490.00 195.00" xmlns="http://www.w3.org/2000/svg" xmlns:xlink="http://www.w3.org/1999/xlink">
<g id="graph0" class="graph" transform="scale(1 1) rotate(0) translate(4 191)">
<title>finite_state_machine</title>
<polygon fill="white" stroke="transparent" points="-4,4 -4,-191 486,-191 486,4 -4,4"/>
<!-- 4 -->
<g id="node1" class="node">
<title>4</title>
<ellipse fill="none" stroke="black" cx="200" cy="-143" rx="18" ry="18"/>
<text text-anchor="middle" x="200" y="-139.3" font-family="Times,serif" font-size="14.00">4</text>
</g>
<!-- 2 -->
<g id="node2" class="node">
<title>2</title>
<ellipse fill="none" stroke="black" cx="291" cy="-90" rx="18" ry="18"/>
<text text-anchor="middle" x="291" y="-86.3" font-family="Times,serif" font-size="14.00">2</text>
</g>
<!-- 4&#45;&gt;2 -->
<g id="edge1" class="edge">
<title>4&#45;&gt;2</title>
<path fill="none" stroke="black" d="M215.49,-133.13C221.73,-128.97 229.16,-124.14 236,-120 245.63,-114.17 256.45,-108.07 265.86,-102.91"/>
<polygon fill="black" stroke="black" points="267.58,-105.96 274.7,-98.11 264.24,-99.81 267.58,-105.96"/>
<text text-anchor="middle" x="245.5" y="-123.8" font-family="Times,serif" font-size="14.00">2</text>
</g>
<!-- 5 -->
<g id="node3" class="node">
<title>5</title>
<ellipse fill="none" stroke="black" cx="464" cy="-169" rx="18" ry="18"/>
<text text-anchor="middle" x="464" y="-165.3" font-family="Times,serif" font-size="14.00">5</text>
</g>
<!-- 4&#45;&gt;5 -->
<g id="edge2" class="edge">
<title>4&#45;&gt;5</title>
<path fill="none" stroke="black" d="M217.61,-147.91C223.38,-149.45 229.93,-151 236,-152 307.39,-163.76 392.76,-167.39 435.61,-168.51"/>
<polygon fill="black" stroke="black" points="435.71,-172.01 445.79,-168.75 435.88,-165.01 435.71,-172.01"/>
<text text-anchor="middle" x="336.5" y="-167.8" font-family="Times,serif" font-size="14.00">1</text>
</g>
<!-- 3 -->
<g id="node5" class="node">
<title>3</title>
<ellipse fill="none" stroke="black" cx="382" cy="-118" rx="18" ry="18"/>
<text text-anchor="middle" x="382" y="-114.3" font-family="Times,serif" font-size="14.00">3</text>
</g>
<!-- 2&#45;&gt;3 -->
<g id="edge8" class="edge">
<title>2&#45;&gt;3</title>
<path fill="none" stroke="black" d="M308.32,-95.14C321.29,-99.21 339.68,-105 354.71,-109.73"/>
<polygon fill="black" stroke="black" points="353.89,-113.14 364.48,-112.8 355.99,-106.46 353.89,-113.14"/>
<text text-anchor="middle" x="336.5" y="-109.8" font-family="Times,serif" font-size="14.00">26</text>
</g>
<!-- 1 -->
<g id="node4" class="node">
<title>1</title>
<ellipse fill="none" stroke="black" cx="109" cy="-67" rx="18" ry="18"/>
<text text-anchor="middle" x="109" y="-63.3" font-family="Times,serif" font-size="14.00">1</text>
</g>
<!-- 1&#45;&gt;4 -->
<g id="edge5" class="edge">
<title>1&#45;&gt;4</title>
<path fill="none" stroke="black" d="M122.4,-79.17C128.99,-85.52 137.3,-93.33 145,-100 155.23,-108.86 166.94,-118.28 176.83,-126.03"/>
<polygon fill="black" stroke="black" points="174.94,-128.98 184.98,-132.35 179.23,-123.46 174.94,-128.98"/>
<text text-anchor="middle" x="154.5" y="-118.8" font-family="Times,serif" font-size="14.00">13</text>
</g>
<!-- 1&#45;&gt;2 -->
<g id="edge3" class="edge">
<title>1&#45;&gt;2</title>
<path fill="none" stroke="black" d="M126.93,-69.16C158.16,-73.15 225.05,-81.7 262.74,-86.52"/>
<polygon fill="black" stroke="black" points="262.62,-90.03 272.98,-87.83 263.5,-83.09 262.62,-90.03"/>
<text text-anchor="middle" x="200" y="-83.8" font-family="Times,serif" font-size="14.00">8</text>
</g>
<!-- 1&#45;&gt;3 -->
<g id="edge4" class="edge">
<title>1&#45;&gt;3</title>
<path fill="none" stroke="black" d="M126.56,-62.98C161.43,-55.31 244.51,-41.19 309,-63 329.43,-69.91 348.62,-85.19 362.05,-97.9"/>
<polygon fill="black" stroke="black" points="359.68,-100.47 369.26,-105 364.59,-95.49 359.68,-100.47"/>
<text text-anchor="middle" x="245.5" y="-55.8" font-family="Times,serif" font-size="14.00">10</text>
</g>
<!-- 3&#45;&gt;4 -->
<g id="edge9" class="edge">
<title>3&#45;&gt;4</title>
<path fill="none" stroke="black" d="M364.31,-121.6C358.53,-122.78 351.99,-124.03 346,-125 305.14,-131.61 257.47,-137.11 228.26,-140.22"/>
<polygon fill="black" stroke="black" points="227.6,-136.77 218.02,-141.3 228.33,-143.74 227.6,-136.77"/>
<text text-anchor="middle" x="291" y="-138.8" font-family="Times,serif" font-size="14.00">20</text>
</g>
<!-- 3&#45;&gt;5 -->
<g id="edge10" class="edge">
<title>3&#45;&gt;5</title>
<path fill="none" stroke="black" d="M397.67,-127.35C409.4,-134.83 426.06,-145.45 439.63,-154.1"/>
<polygon fill="black" stroke="black" points="438.11,-157.28 448.42,-159.71 441.87,-151.38 438.11,-157.28"/>
<text text-anchor="middle" x="423" y="-149.8" font-family="Times,serif" font-size="14.00">8</text>
</g>
<!-- 0 -->
<g id="node6" class="node">
<title>0</title>
<ellipse fill="none" stroke="black" cx="18" cy="-18" rx="18" ry="18"/>
<text text-anchor="middle" x="18" y="-14.3" font-family="Times,serif" font-size="14.00">0</text>
</g>
<!-- 0&#45;&gt;2 -->
<g id="edge7" class="edge">
<title>0&#45;&gt;2</title>
<path fill="none" stroke="black" d="M36.03,-15.97C76.75,-11.95 181.84,-6.56 255,-47 263.11,-51.48 270.08,-58.68 275.61,-65.91"/>
<polygon fill="black" stroke="black" points="272.83,-68.06 281.42,-74.26 278.58,-64.06 272.83,-68.06"/>
<text text-anchor="middle" x="154.5" y="-22.8" font-family="Times,serif" font-size="14.00">1</text>
</g>
<!-- 0&#45;&gt;1 -->
<g id="edge6" class="edge">
<title>0&#45;&gt;1</title>
<path fill="none" stroke="black" d="M34.1,-26.31C47.65,-33.77 67.79,-44.86 83.62,-53.58"/>
<polygon fill="black" stroke="black" points="82.38,-56.89 92.83,-58.65 85.76,-50.76 82.38,-56.89"/>
<text text-anchor="middle" x="63.5" y="-49.8" font-family="Times,serif" font-size="14.00">38</text>
</g>
</g>
</svg>
