<?xml version="1.0" encoding="UTF-8" standalone="no"?>
<!DOCTYPE svg PUBLIC "-//W3C//DTD SVG 1.1//EN"
 "http://www.w3.org/Graphics/SVG/1.1/DTD/svg11.dtd">
<!-- Generated by graphviz version 2.43.20190912.0211 (20190912.0211)
 -->
<!-- Title: finite_state_machine Pages: 1 -->
<svg width="437pt" height="134pt"
 viewBox="0.00 0.00 437.00 134.00" xmlns="http://www.w3.org/2000/svg" xmlns:xlink="http://www.w3.org/1999/xlink">
<g id="graph0" class="graph" transform="scale(1 1) rotate(0) translate(4 130)">
<title>finite_state_machine</title>
<polygon fill="white" stroke="transparent" points="-4,4 -4,-130 433,-130 433,4 -4,4"/>
<!-- 4 -->
<g id="node1" class="node">
<title>4</title>
<ellipse fill="none" stroke="black" cx="316" cy="-69" rx="18" ry="18"/>
<text text-anchor="middle" x="316" y="-65.3" font-family="Times,serif" font-size="14.00">4</text>
</g>
<!-- 5 -->
<g id="node2" class="node">
<title>5</title>
<ellipse fill="none" stroke="black" cx="411" cy="-69" rx="18" ry="18"/>
<text text-anchor="middle" x="411" y="-65.3" font-family="Times,serif" font-size="14.00">5</text>
</g>
<!-- 4&#45;&gt;5 -->
<g id="edge1" class="edge">
<title>4&#45;&gt;5</title>
<path fill="none" stroke="black" d="M334.06,-69C347.61,-69 366.82,-69 382.53,-69"/>
<polygon fill="black" stroke="black" points="382.74,-72.5 392.74,-69 382.74,-65.5 382.74,-72.5"/>
<text text-anchor="middle" x="363.5" y="-72.8" font-family="Times,serif" font-size="14.00">0/0</text>
</g>
<!-- 2 -->
<g id="node3" class="node">
<title>2</title>
<ellipse fill="none" stroke="black" cx="113" cy="-108" rx="18" ry="18"/>
<text text-anchor="middle" x="113" y="-104.3" font-family="Times,serif" font-size="14.00">2</text>
</g>
<!-- 2&#45;&gt;5 -->
<g id="edge3" class="edge">
<title>2&#45;&gt;5</title>
<path fill="none" stroke="black" d="M131.2,-107.94C168.37,-107.62 258.9,-105.81 334,-96 352.41,-93.6 357.53,-94.28 375,-88 378.84,-86.62 382.78,-84.86 386.55,-82.98"/>
<polygon fill="black" stroke="black" points="388.33,-86 395.48,-78.18 385.01,-79.83 388.33,-86"/>
<text text-anchor="middle" x="268.5" y="-106.8" font-family="Times,serif" font-size="14.00">0/0</text>
</g>
<!-- 3 -->
<g id="node4" class="node">
<title>3</title>
<ellipse fill="none" stroke="black" cx="221" cy="-69" rx="18" ry="18"/>
<text text-anchor="middle" x="221" y="-65.3" font-family="Times,serif" font-size="14.00">3</text>
</g>
<!-- 2&#45;&gt;3 -->
<g id="edge2" class="edge">
<title>2&#45;&gt;3</title>
<path fill="none" stroke="black" d="M129.45,-99.87C135.46,-96.87 142.47,-93.58 149,-91 163.54,-85.26 180.21,-80.02 193.75,-76.1"/>
<polygon fill="black" stroke="black" points="194.73,-79.46 203.4,-73.37 192.82,-72.73 194.73,-79.46"/>
<text text-anchor="middle" x="167" y="-94.8" font-family="Times,serif" font-size="14.00">0/0</text>
</g>
<!-- 3&#45;&gt;4 -->
<g id="edge4" class="edge">
<title>3&#45;&gt;4</title>
<path fill="none" stroke="black" d="M239.06,-69C252.61,-69 271.82,-69 287.53,-69"/>
<polygon fill="black" stroke="black" points="287.74,-72.5 297.74,-69 287.74,-65.5 287.74,-72.5"/>
<text text-anchor="middle" x="268.5" y="-72.8" font-family="Times,serif" font-size="14.00">0/0</text>
</g>
<!-- 1 -->
<g id="node5" class="node">
<title>1</title>
<ellipse fill="none" stroke="black" cx="167" cy="-18" rx="18" ry="18"/>
<text text-anchor="middle" x="167" y="-14.3" font-family="Times,serif" font-size="14.00">1</text>
</g>
<!-- 1&#45;&gt;5 -->
<g id="edge5" class="edge">
<title>1&#45;&gt;5</title>
<path fill="none" stroke="black" d="M185.18,-19.36C215.56,-22 280.57,-28.79 334,-42 351.23,-46.26 370.03,-52.92 384.62,-58.56"/>
<polygon fill="black" stroke="black" points="383.39,-61.84 393.98,-62.26 385.96,-55.33 383.39,-61.84"/>
<text text-anchor="middle" x="268.5" y="-33.8" font-family="Times,serif" font-size="14.00">0/0</text>
</g>
<!-- 0 -->
<g id="node6" class="node">
<title>0</title>
<ellipse fill="none" stroke="black" cx="18" cy="-57" rx="18" ry="18"/>
<text text-anchor="middle" x="18" y="-53.3" font-family="Times,serif" font-size="14.00">0</text>
</g>
<!-- 0&#45;&gt;2 -->
<g id="edge7" class="edge">
<title>0&#45;&gt;2</title>
<path fill="none" stroke="black" d="M34.36,-65.42C48.98,-73.44 71.22,-85.64 88.15,-94.92"/>
<polygon fill="black" stroke="black" points="86.48,-98 96.93,-99.74 89.84,-91.86 86.48,-98"/>
<text text-anchor="middle" x="65.5" y="-91.8" font-family="Times,serif" font-size="14.00">0/0</text>
</g>
<!-- 0&#45;&gt;3 -->
<g id="edge6" class="edge">
<title>0&#45;&gt;3</title>
<path fill="none" stroke="black" d="M36.14,-58.02C71.07,-60.11 150.76,-64.87 192.83,-67.38"/>
<polygon fill="black" stroke="black" points="192.72,-70.88 202.91,-67.98 193.13,-63.89 192.72,-70.88"/>
<text text-anchor="middle" x="113" y="-66.8" font-family="Times,serif" font-size="14.00">0/0</text>
</g>
<!-- 0&#45;&gt;1 -->
<g id="edge8" class="edge">
<title>0&#45;&gt;1</title>
<path fill="none" stroke="black" d="M30.72,-44.19C37.01,-38.2 45.24,-31.6 54,-28 81.27,-16.77 115.36,-15.32 138.72,-16.01"/>
<polygon fill="black" stroke="black" points="138.8,-19.51 148.95,-16.46 139.11,-12.52 138.8,-19.51"/>
<text text-anchor="middle" x="65.5" y="-31.8" font-family="Times,serif" font-size="14.00">0/0</text>
</g>
</g>
</svg>
