<?xml version="1.0" encoding="UTF-8" standalone="no"?>
<!DOCTYPE svg PUBLIC "-//W3C//DTD SVG 1.1//EN"
 "http://www.w3.org/Graphics/SVG/1.1/DTD/svg11.dtd">
<!-- Generated by graphviz version 2.43.20190912.0211 (20190912.0211)
 -->
<!-- Title: finite_state_machine Pages: 1 -->
<svg width="398pt" height="134pt"
 viewBox="0.00 0.00 398.00 134.00" xmlns="http://www.w3.org/2000/svg" xmlns:xlink="http://www.w3.org/1999/xlink">
<g id="graph0" class="graph" transform="scale(1 1) rotate(0) translate(4 130)">
<title>finite_state_machine</title>
<polygon fill="white" stroke="transparent" points="-4,4 -4,-130 394,-130 394,4 -4,4"/>
<!-- 4 -->
<g id="node1" class="node">
<title>4</title>
<ellipse fill="none" stroke="black" cx="290" cy="-69" rx="18" ry="18"/>
<text text-anchor="middle" x="290" y="-65.3" font-family="Times,serif" font-size="14.00">4</text>
</g>
<!-- 5 -->
<g id="node2" class="node">
<title>5</title>
<ellipse fill="none" stroke="black" cx="372" cy="-69" rx="18" ry="18"/>
<text text-anchor="middle" x="372" y="-65.3" font-family="Times,serif" font-size="14.00">5</text>
</g>
<!-- 4&#45;&gt;5 -->
<g id="edge1" class="edge">
<title>4&#45;&gt;5</title>
<path fill="none" stroke="black" d="M308.36,-69C318.7,-69 332.06,-69 343.78,-69"/>
<polygon fill="black" stroke="black" points="343.95,-72.5 353.95,-69 343.95,-65.5 343.95,-72.5"/>
<text text-anchor="middle" x="331" y="-72.8" font-family="Times,serif" font-size="14.00">4</text>
</g>
<!-- 2 -->
<g id="node3" class="node">
<title>2</title>
<ellipse fill="none" stroke="black" cx="100" cy="-108" rx="18" ry="18"/>
<text text-anchor="middle" x="100" y="-104.3" font-family="Times,serif" font-size="14.00">2</text>
</g>
<!-- 2&#45;&gt;5 -->
<g id="edge3" class="edge">
<title>2&#45;&gt;5</title>
<path fill="none" stroke="black" d="M118.06,-108.36C153.67,-108.82 238.36,-108.37 308,-96 320.74,-93.74 324.02,-92.89 336,-88 339.6,-86.53 343.32,-84.78 346.91,-82.96"/>
<polygon fill="black" stroke="black" points="348.87,-85.88 356.02,-78.07 345.55,-79.72 348.87,-85.88"/>
<text text-anchor="middle" x="249" y="-107.8" font-family="Times,serif" font-size="14.00">5</text>
</g>
<!-- 3 -->
<g id="node4" class="node">
<title>3</title>
<ellipse fill="none" stroke="black" cx="208" cy="-69" rx="18" ry="18"/>
<text text-anchor="middle" x="208" y="-65.3" font-family="Times,serif" font-size="14.00">3</text>
</g>
<!-- 2&#45;&gt;3 -->
<g id="edge2" class="edge">
<title>2&#45;&gt;3</title>
<path fill="none" stroke="black" d="M116.45,-99.87C122.46,-96.87 129.47,-93.58 136,-91 150.54,-85.26 167.21,-80.02 180.75,-76.1"/>
<polygon fill="black" stroke="black" points="181.73,-79.46 190.4,-73.37 179.82,-72.73 181.73,-79.46"/>
<text text-anchor="middle" x="154" y="-94.8" font-family="Times,serif" font-size="14.00">6</text>
</g>
<!-- 3&#45;&gt;4 -->
<g id="edge4" class="edge">
<title>3&#45;&gt;4</title>
<path fill="none" stroke="black" d="M226.36,-69C236.7,-69 250.06,-69 261.78,-69"/>
<polygon fill="black" stroke="black" points="261.95,-72.5 271.95,-69 261.95,-65.5 261.95,-72.5"/>
<text text-anchor="middle" x="249" y="-72.8" font-family="Times,serif" font-size="14.00">8</text>
</g>
<!-- 1 -->
<g id="node5" class="node">
<title>1</title>
<ellipse fill="none" stroke="black" cx="154" cy="-18" rx="18" ry="18"/>
<text text-anchor="middle" x="154" y="-14.3" font-family="Times,serif" font-size="14.00">1</text>
</g>
<!-- 1&#45;&gt;5 -->
<g id="edge5" class="edge">
<title>1&#45;&gt;5</title>
<path fill="none" stroke="black" d="M172.28,-19.3C200.95,-21.77 259.94,-28.17 308,-42 321,-45.74 334.88,-51.49 346.29,-56.72"/>
<polygon fill="black" stroke="black" points="345.07,-60.01 355.6,-61.12 348.06,-53.68 345.07,-60.01"/>
<text text-anchor="middle" x="249" y="-32.8" font-family="Times,serif" font-size="14.00">4</text>
</g>
<!-- 0 -->
<g id="node6" class="node">
<title>0</title>
<ellipse fill="none" stroke="black" cx="18" cy="-57" rx="18" ry="18"/>
<text text-anchor="middle" x="18" y="-53.3" font-family="Times,serif" font-size="14.00">0</text>
</g>
<!-- 0&#45;&gt;2 -->
<g id="edge7" class="edge">
<title>0&#45;&gt;2</title>
<path fill="none" stroke="black" d="M33.67,-66.35C45.4,-73.83 62.06,-84.45 75.63,-93.1"/>
<polygon fill="black" stroke="black" points="74.11,-96.28 84.42,-98.71 77.87,-90.38 74.11,-96.28"/>
<text text-anchor="middle" x="59" y="-88.8" font-family="Times,serif" font-size="14.00">1</text>
</g>
<!-- 0&#45;&gt;3 -->
<g id="edge6" class="edge">
<title>0&#45;&gt;3</title>
<path fill="none" stroke="black" d="M36.02,-58.09C68.65,-60.17 140.29,-64.74 179.69,-67.26"/>
<polygon fill="black" stroke="black" points="179.68,-70.76 189.89,-67.91 180.13,-63.78 179.68,-70.76"/>
<text text-anchor="middle" x="100" y="-66.8" font-family="Times,serif" font-size="14.00">3</text>
</g>
<!-- 0&#45;&gt;1 -->
<g id="edge8" class="edge">
<title>0&#45;&gt;1</title>
<path fill="none" stroke="black" d="M30.74,-44.24C37.03,-38.26 45.26,-31.66 54,-28 76.83,-18.45 105.11,-16.45 125.59,-16.55"/>
<polygon fill="black" stroke="black" points="125.73,-20.06 135.8,-16.78 125.88,-13.06 125.73,-20.06"/>
<text text-anchor="middle" x="59" y="-31.8" font-family="Times,serif" font-size="14.00">2</text>
</g>
</g>
</svg>
