<?xml version="1.0" encoding="UTF-8" standalone="no"?>
<!DOCTYPE svg PUBLIC "-//W3C//DTD SVG 1.1//EN"
 "http://www.w3.org/Graphics/SVG/1.1/DTD/svg11.dtd">
<!-- Generated by graphviz version 2.43.20190912.0211 (20190912.0211)
 -->
<!-- Title: finite_state_machine Pages: 1 -->
<svg width="424pt" height="141pt"
 viewBox="0.00 0.00 424.00 141.00" xmlns="http://www.w3.org/2000/svg" xmlns:xlink="http://www.w3.org/1999/xlink">
<g id="graph0" class="graph" transform="scale(1 1) rotate(0) translate(4 137)">
<title>finite_state_machine</title>
<polygon fill="white" stroke="transparent" points="-4,4 -4,-137 420,-137 420,4 -4,4"/>
<!-- 0 -->
<g id="node1" class="node">
<title>0</title>
<ellipse fill="none" stroke="black" cx="18" cy="-88" rx="18" ry="18"/>
<text text-anchor="middle" x="18" y="-84.3" font-family="Times,serif" font-size="14.00">0</text>
</g>
<!-- 1 -->
<g id="node2" class="node">
<title>1</title>
<ellipse fill="none" stroke="black" cx="113" cy="-61" rx="18" ry="18"/>
<text text-anchor="middle" x="113" y="-57.3" font-family="Times,serif" font-size="14.00">1</text>
</g>
<!-- 0&#45;&gt;1 -->
<g id="edge1" class="edge">
<title>0&#45;&gt;1</title>
<path fill="none" stroke="black" d="M34.84,-81.04C40.77,-78.6 47.62,-75.98 54,-74 63.99,-70.9 75.16,-68.22 85.01,-66.11"/>
<polygon fill="black" stroke="black" points="85.97,-69.49 95.06,-64.05 84.56,-62.63 85.97,-69.49"/>
<text text-anchor="middle" x="65.5" y="-77.8" font-family="Times,serif" font-size="14.00">0/0</text>
</g>
<!-- 2 -->
<g id="node3" class="node">
<title>2</title>
<ellipse fill="none" stroke="black" cx="113" cy="-115" rx="18" ry="18"/>
<text text-anchor="middle" x="113" y="-111.3" font-family="Times,serif" font-size="14.00">2</text>
</g>
<!-- 0&#45;&gt;2 -->
<g id="edge2" class="edge">
<title>0&#45;&gt;2</title>
<path fill="none" stroke="black" d="M35.63,-92.83C49.51,-96.86 69.56,-102.68 85.63,-107.35"/>
<polygon fill="black" stroke="black" points="84.94,-110.79 95.52,-110.21 86.89,-104.07 84.94,-110.79"/>
<text text-anchor="middle" x="65.5" y="-107.8" font-family="Times,serif" font-size="14.00">0/0</text>
</g>
<!-- 3 -->
<g id="node4" class="node">
<title>3</title>
<ellipse fill="none" stroke="black" cx="208" cy="-18" rx="18" ry="18"/>
<text text-anchor="middle" x="208" y="-14.3" font-family="Times,serif" font-size="14.00">3</text>
</g>
<!-- 1&#45;&gt;3 -->
<g id="edge3" class="edge">
<title>1&#45;&gt;3</title>
<path fill="none" stroke="black" d="M129.22,-52.89C135.32,-49.71 142.45,-46.09 149,-43 159.67,-37.96 171.62,-32.74 181.88,-28.39"/>
<polygon fill="black" stroke="black" points="183.25,-31.61 191.12,-24.5 180.54,-25.15 183.25,-31.61"/>
<text text-anchor="middle" x="160.5" y="-46.8" font-family="Times,serif" font-size="14.00">0/0</text>
</g>
<!-- 4 -->
<g id="node5" class="node">
<title>4</title>
<ellipse fill="none" stroke="black" cx="303" cy="-66" rx="18" ry="18"/>
<text text-anchor="middle" x="303" y="-62.3" font-family="Times,serif" font-size="14.00">4</text>
</g>
<!-- 1&#45;&gt;4 -->
<g id="edge4" class="edge">
<title>1&#45;&gt;4</title>
<path fill="none" stroke="black" d="M131.02,-61.45C163.65,-62.32 235.29,-64.23 274.69,-65.27"/>
<polygon fill="black" stroke="black" points="274.8,-68.78 284.89,-65.54 274.98,-61.78 274.8,-68.78"/>
<text text-anchor="middle" x="208" y="-67.8" font-family="Times,serif" font-size="14.00">0/0</text>
</g>
<!-- 2&#45;&gt;3 -->
<g id="edge5" class="edge">
<title>2&#45;&gt;3</title>
<path fill="none" stroke="black" d="M127.46,-103.78C139.59,-93.41 157.66,-77.35 172,-62 178.32,-55.23 184.76,-47.44 190.37,-40.31"/>
<polygon fill="black" stroke="black" points="193.18,-42.4 196.51,-32.34 187.63,-38.12 193.18,-42.4"/>
<text text-anchor="middle" x="160.5" y="-86.8" font-family="Times,serif" font-size="14.00">0/0</text>
</g>
<!-- 2&#45;&gt;4 -->
<g id="edge6" class="edge">
<title>2&#45;&gt;4</title>
<path fill="none" stroke="black" d="M130.72,-111.81C159.06,-106.25 218.2,-93.91 267,-79 270.16,-78.03 273.45,-76.94 276.7,-75.8"/>
<polygon fill="black" stroke="black" points="277.92,-79.08 286.11,-72.36 275.51,-72.51 277.92,-79.08"/>
<text text-anchor="middle" x="208" y="-101.8" font-family="Times,serif" font-size="14.00">0/0</text>
</g>
<!-- 3&#45;&gt;4 -->
<g id="edge8" class="edge">
<title>3&#45;&gt;4</title>
<path fill="none" stroke="black" d="M225.11,-24.06C236.95,-28.73 253.29,-35.61 267,-43 271.07,-45.19 275.28,-47.72 279.3,-50.27"/>
<polygon fill="black" stroke="black" points="277.42,-53.22 287.7,-55.79 281.27,-47.37 277.42,-53.22"/>
<text text-anchor="middle" x="255.5" y="-46.8" font-family="Times,serif" font-size="14.00">0/0</text>
</g>
<!-- 5 -->
<g id="node6" class="node">
<title>5</title>
<ellipse fill="none" stroke="black" cx="398" cy="-25" rx="18" ry="18"/>
<text text-anchor="middle" x="398" y="-21.3" font-family="Times,serif" font-size="14.00">5</text>
</g>
<!-- 3&#45;&gt;5 -->
<g id="edge9" class="edge">
<title>3&#45;&gt;5</title>
<path fill="none" stroke="black" d="M226.02,-18.63C258.65,-19.85 330.29,-22.52 369.69,-23.98"/>
<polygon fill="black" stroke="black" points="369.76,-27.49 379.89,-24.36 370.02,-20.49 369.76,-27.49"/>
<text text-anchor="middle" x="303" y="-26.8" font-family="Times,serif" font-size="14.00">0/0</text>
</g>
<!-- 4&#45;&gt;5 -->
<g id="edge7" class="edge">
<title>4&#45;&gt;5</title>
<path fill="none" stroke="black" d="M319.78,-59.04C334.07,-52.74 355.38,-43.35 371.99,-36.02"/>
<polygon fill="black" stroke="black" points="373.41,-39.23 381.15,-31.99 370.58,-32.82 373.41,-39.23"/>
<text text-anchor="middle" x="350.5" y="-54.8" font-family="Times,serif" font-size="14.00">0/0</text>
</g>
</g>
</svg>
