<?xml version="1.0" encoding="UTF-8" standalone="no"?>
<!DOCTYPE svg PUBLIC "-//W3C//DTD SVG 1.1//EN"
 "http://www.w3.org/Graphics/SVG/1.1/DTD/svg11.dtd">
<!-- Generated by graphviz version 2.43.20190912.0211 (20190912.0211)
 -->
<!-- Title: finite_state_machine Pages: 1 -->
<svg width="590pt" height="289pt"
 viewBox="0.00 0.00 590.00 289.00" xmlns="http://www.w3.org/2000/svg" xmlns:xlink="http://www.w3.org/1999/xlink">
<g id="graph0" class="graph" transform="scale(1 1) rotate(0) translate(4 285)">
<title>finite_state_machine</title>
<polygon fill="white" stroke="transparent" points="-4,4 -4,-285 586,-285 586,4 -4,4"/>
<!-- 4 -->
<g id="node1" class="node">
<title>4</title>
<ellipse fill="none" stroke="black" cx="200" cy="-68" rx="18" ry="18"/>
<text text-anchor="middle" x="200" y="-64.3" font-family="Times,serif" font-size="14.00">4</text>
</g>
<!-- 2 -->
<g id="node2" class="node">
<title>2</title>
<ellipse fill="none" stroke="black" cx="291" cy="-185" rx="18" ry="18"/>
<text text-anchor="middle" x="291" y="-181.3" font-family="Times,serif" font-size="14.00">2</text>
</g>
<!-- 4&#45;&gt;2 -->
<g id="edge1" class="edge">
<title>4&#45;&gt;2</title>
<path fill="none" stroke="black" d="M217.03,-74.85C228.88,-80.6 244.67,-89.84 255,-102 268.71,-118.14 277.71,-140.43 283.14,-157.85"/>
<polygon fill="black" stroke="black" points="279.78,-158.83 285.94,-167.46 286.51,-156.88 279.78,-158.83"/>
<text text-anchor="middle" x="245.5" y="-105.8" font-family="Times,serif" font-size="14.00">2</text>
</g>
<!-- 7 -->
<g id="node3" class="node">
<title>7</title>
<ellipse fill="none" stroke="black" cx="564" cy="-94" rx="18" ry="18"/>
<text text-anchor="middle" x="564" y="-90.3" font-family="Times,serif" font-size="14.00">7</text>
</g>
<!-- 4&#45;&gt;7 -->
<g id="edge2" class="edge">
<title>4&#45;&gt;7</title>
<path fill="none" stroke="black" d="M210.86,-53.25C225.55,-33.25 255.19,0 290,0 290,0 290,0 474,0 511.79,0 538.34,-40.57 552.11,-68.4"/>
<polygon fill="black" stroke="black" points="549.02,-70.06 556.44,-77.63 555.36,-67.09 549.02,-70.06"/>
<text text-anchor="middle" x="382" y="-3.8" font-family="Times,serif" font-size="14.00">7</text>
</g>
<!-- 5 -->
<g id="node4" class="node">
<title>5</title>
<ellipse fill="none" stroke="black" cx="473" cy="-129" rx="18" ry="18"/>
<text text-anchor="middle" x="473" y="-125.3" font-family="Times,serif" font-size="14.00">5</text>
</g>
<!-- 4&#45;&gt;5 -->
<g id="edge3" class="edge">
<title>4&#45;&gt;5</title>
<path fill="none" stroke="black" d="M218.09,-68.64C228.75,-69.2 242.72,-70.21 255,-72 325.38,-82.29 405.76,-106.9 446.07,-120.17"/>
<polygon fill="black" stroke="black" points="445.06,-123.52 455.65,-123.36 447.27,-116.88 445.06,-123.52"/>
<text text-anchor="middle" x="336.5" y="-93.8" font-family="Times,serif" font-size="14.00">1</text>
</g>
<!-- 3 -->
<g id="node8" class="node">
<title>3</title>
<ellipse fill="none" stroke="black" cx="382" cy="-136" rx="18" ry="18"/>
<text text-anchor="middle" x="382" y="-132.3" font-family="Times,serif" font-size="14.00">3</text>
</g>
<!-- 2&#45;&gt;3 -->
<g id="edge16" class="edge">
<title>2&#45;&gt;3</title>
<path fill="none" stroke="black" d="M307.1,-176.69C320.65,-169.23 340.79,-158.14 356.62,-149.42"/>
<polygon fill="black" stroke="black" points="358.76,-152.24 365.83,-144.35 355.38,-146.11 358.76,-152.24"/>
<text text-anchor="middle" x="336.5" y="-167.8" font-family="Times,serif" font-size="14.00">26</text>
</g>
<!-- 5&#45;&gt;7 -->
<g id="edge12" class="edge">
<title>5&#45;&gt;7</title>
<path fill="none" stroke="black" d="M489.91,-122.74C503.12,-117.55 522.15,-110.06 537.48,-104.03"/>
<polygon fill="black" stroke="black" points="538.9,-107.24 546.93,-100.32 536.34,-100.72 538.9,-107.24"/>
<text text-anchor="middle" x="518.5" y="-117.8" font-family="Times,serif" font-size="14.00">7</text>
</g>
<!-- 0 -->
<g id="node5" class="node">
<title>0</title>
<ellipse fill="none" stroke="black" cx="18" cy="-228" rx="18" ry="18"/>
<text text-anchor="middle" x="18" y="-224.3" font-family="Times,serif" font-size="14.00">0</text>
</g>
<!-- 0&#45;&gt;2 -->
<g id="edge6" class="edge">
<title>0&#45;&gt;2</title>
<path fill="none" stroke="black" d="M35.96,-225.94C74.85,-221.13 173.38,-208.36 255,-193 257.72,-192.49 260.55,-191.91 263.37,-191.31"/>
<polygon fill="black" stroke="black" points="264.32,-194.69 273.32,-189.09 262.8,-187.85 264.32,-194.69"/>
<text text-anchor="middle" x="154.5" y="-214.8" font-family="Times,serif" font-size="14.00">1</text>
</g>
<!-- 6 -->
<g id="node6" class="node">
<title>6</title>
<ellipse fill="none" stroke="black" cx="473" cy="-183" rx="18" ry="18"/>
<text text-anchor="middle" x="473" y="-179.3" font-family="Times,serif" font-size="14.00">6</text>
</g>
<!-- 0&#45;&gt;6 -->
<g id="edge4" class="edge">
<title>0&#45;&gt;6</title>
<path fill="none" stroke="black" d="M33.01,-238.18C49.91,-249.44 79.61,-266 108,-266 108,-266 108,-266 383,-266 417.47,-266 444.15,-232.29 458.97,-207.83"/>
<polygon fill="black" stroke="black" points="462.1,-209.41 464.07,-199 456.04,-205.92 462.1,-209.41"/>
<text text-anchor="middle" x="245.5" y="-269.8" font-family="Times,serif" font-size="14.00">2</text>
</g>
<!-- 1 -->
<g id="node7" class="node">
<title>1</title>
<ellipse fill="none" stroke="black" cx="109" cy="-161" rx="18" ry="18"/>
<text text-anchor="middle" x="109" y="-157.3" font-family="Times,serif" font-size="14.00">1</text>
</g>
<!-- 0&#45;&gt;1 -->
<g id="edge5" class="edge">
<title>0&#45;&gt;1</title>
<path fill="none" stroke="black" d="M32.1,-216.73C38.59,-211.26 46.6,-204.65 54,-199 64.04,-191.33 75.45,-183.21 85.18,-176.46"/>
<polygon fill="black" stroke="black" points="87.31,-179.25 93.57,-170.7 83.34,-173.48 87.31,-179.25"/>
<text text-anchor="middle" x="63.5" y="-202.8" font-family="Times,serif" font-size="14.00">38</text>
</g>
<!-- 6&#45;&gt;7 -->
<g id="edge11" class="edge">
<title>6&#45;&gt;7</title>
<path fill="none" stroke="black" d="M487.19,-171.41C498.33,-161.48 514.55,-146.66 528,-133 533.62,-127.3 539.51,-120.9 544.82,-114.97"/>
<polygon fill="black" stroke="black" points="547.62,-117.09 551.63,-107.28 542.38,-112.45 547.62,-117.09"/>
<text text-anchor="middle" x="518.5" y="-154.8" font-family="Times,serif" font-size="14.00">27</text>
</g>
<!-- 1&#45;&gt;4 -->
<g id="edge15" class="edge">
<title>1&#45;&gt;4</title>
<path fill="none" stroke="black" d="M118.7,-145.82C125.19,-135.17 134.69,-120.94 145,-110 154.2,-100.24 165.79,-90.92 175.87,-83.55"/>
<polygon fill="black" stroke="black" points="178.11,-86.25 184.24,-77.61 174.06,-80.54 178.11,-86.25"/>
<text text-anchor="middle" x="154.5" y="-113.8" font-family="Times,serif" font-size="14.00">13</text>
</g>
<!-- 1&#45;&gt;2 -->
<g id="edge13" class="edge">
<title>1&#45;&gt;2</title>
<path fill="none" stroke="black" d="M126.93,-163.26C158.16,-167.42 225.05,-176.34 262.74,-181.36"/>
<polygon fill="black" stroke="black" points="262.61,-184.88 272.98,-182.73 263.53,-177.94 262.61,-184.88"/>
<text text-anchor="middle" x="200" y="-178.8" font-family="Times,serif" font-size="14.00">8</text>
</g>
<!-- 1&#45;&gt;3 -->
<g id="edge14" class="edge">
<title>1&#45;&gt;3</title>
<path fill="none" stroke="black" d="M126.95,-159.44C172.58,-155.23 298.28,-143.63 353.91,-138.5"/>
<polygon fill="black" stroke="black" points="354.42,-141.97 364.05,-137.56 353.77,-135 354.42,-141.97"/>
<text text-anchor="middle" x="245.5" y="-152.8" font-family="Times,serif" font-size="14.00">10</text>
</g>
<!-- 3&#45;&gt;4 -->
<g id="edge9" class="edge">
<title>3&#45;&gt;4</title>
<path fill="none" stroke="black" d="M365.39,-128.4C341.87,-117.16 295.76,-95.93 255,-82 246.17,-78.98 236.34,-76.26 227.52,-74.03"/>
<polygon fill="black" stroke="black" points="228.28,-70.61 217.74,-71.65 226.63,-77.41 228.28,-70.61"/>
<text text-anchor="middle" x="291" y="-105.8" font-family="Times,serif" font-size="14.00">20</text>
</g>
<!-- 3&#45;&gt;7 -->
<g id="edge8" class="edge">
<title>3&#45;&gt;7</title>
<path fill="none" stroke="black" d="M395.52,-123.95C408.98,-111.92 431.59,-94.21 455,-87 481.85,-78.73 514.18,-82.51 536.43,-87.08"/>
<polygon fill="black" stroke="black" points="535.95,-90.56 546.47,-89.34 537.49,-83.73 535.95,-90.56"/>
<text text-anchor="middle" x="473" y="-90.8" font-family="Times,serif" font-size="14.00">1</text>
</g>
<!-- 3&#45;&gt;5 -->
<g id="edge10" class="edge">
<title>3&#45;&gt;5</title>
<path fill="none" stroke="black" d="M400.16,-134.65C412.84,-133.65 430.36,-132.28 444.92,-131.13"/>
<polygon fill="black" stroke="black" points="445.2,-134.62 454.89,-130.35 444.65,-127.64 445.2,-134.62"/>
<text text-anchor="middle" x="427.5" y="-136.8" font-family="Times,serif" font-size="14.00">8</text>
</g>
<!-- 3&#45;&gt;6 -->
<g id="edge7" class="edge">
<title>3&#45;&gt;6</title>
<path fill="none" stroke="black" d="M398.5,-144.19C412.03,-151.33 431.89,-161.82 447.56,-170.09"/>
<polygon fill="black" stroke="black" points="446.2,-173.33 456.68,-174.91 449.47,-167.14 446.2,-173.33"/>
<text text-anchor="middle" x="427.5" y="-166.8" font-family="Times,serif" font-size="14.00">24</text>
</g>
</g>
</svg>
