<?xml version="1.0" encoding="UTF-8" standalone="no"?>
<!DOCTYPE svg PUBLIC "-//W3C//DTD SVG 1.1//EN"
 "http://www.w3.org/Graphics/SVG/1.1/DTD/svg11.dtd">
<!-- Generated by graphviz version 2.43.20190912.0211 (20190912.0211)
 -->
<!-- Title: finite_state_machine Pages: 1 -->
<svg width="668pt" height="289pt"
 viewBox="0.00 0.00 668.00 289.00" xmlns="http://www.w3.org/2000/svg" xmlns:xlink="http://www.w3.org/1999/xlink">
<g id="graph0" class="graph" transform="scale(1 1) rotate(0) translate(4 285)">
<title>finite_state_machine</title>
<polygon fill="white" stroke="transparent" points="-4,4 -4,-285 664,-285 664,4 -4,4"/>
<!-- 4 -->
<g id="node1" class="node">
<title>4</title>
<ellipse fill="none" stroke="black" cx="226" cy="-68" rx="18" ry="18"/>
<text text-anchor="middle" x="226" y="-64.3" font-family="Times,serif" font-size="14.00">4</text>
</g>
<!-- 2 -->
<g id="node2" class="node">
<title>2</title>
<ellipse fill="none" stroke="black" cx="330" cy="-185" rx="18" ry="18"/>
<text text-anchor="middle" x="330" y="-181.3" font-family="Times,serif" font-size="14.00">2</text>
</g>
<!-- 4&#45;&gt;2 -->
<g id="edge1" class="edge">
<title>4&#45;&gt;2</title>
<path fill="none" stroke="black" d="M243.62,-72.79C258.56,-77.86 280.22,-87.21 294,-102 308.53,-117.59 317.51,-140.1 322.73,-157.74"/>
<polygon fill="black" stroke="black" points="319.37,-158.75 325.38,-167.48 326.13,-156.91 319.37,-158.75"/>
<text text-anchor="middle" x="278" y="-105.8" font-family="Times,serif" font-size="14.00">0/2</text>
</g>
<!-- 7 -->
<g id="node3" class="node">
<title>7</title>
<ellipse fill="none" stroke="black" cx="642" cy="-94" rx="18" ry="18"/>
<text text-anchor="middle" x="642" y="-90.3" font-family="Times,serif" font-size="14.00">7</text>
</g>
<!-- 4&#45;&gt;7 -->
<g id="edge2" class="edge">
<title>4&#45;&gt;7</title>
<path fill="none" stroke="black" d="M237.93,-54.24C255.05,-34.37 290.27,0 329,0 329,0 329,0 539,0 579.89,0 611.41,-41.36 628,-69.21"/>
<polygon fill="black" stroke="black" points="625.06,-71.1 633.05,-78.05 631.14,-67.63 625.06,-71.1"/>
<text text-anchor="middle" x="434" y="-3.8" font-family="Times,serif" font-size="14.00">0/7</text>
</g>
<!-- 5 -->
<g id="node4" class="node">
<title>5</title>
<ellipse fill="none" stroke="black" cx="538" cy="-129" rx="18" ry="18"/>
<text text-anchor="middle" x="538" y="-125.3" font-family="Times,serif" font-size="14.00">5</text>
</g>
<!-- 4&#45;&gt;5 -->
<g id="edge3" class="edge">
<title>4&#45;&gt;5</title>
<path fill="none" stroke="black" d="M244.12,-67.85C257.68,-67.88 277.1,-68.29 294,-70 340.67,-74.71 352.32,-77.35 398,-88 437.76,-97.27 482.96,-111.26 510.73,-120.26"/>
<polygon fill="black" stroke="black" points="509.88,-123.67 520.48,-123.45 512.06,-117.02 509.88,-123.67"/>
<text text-anchor="middle" x="382" y="-91.8" font-family="Times,serif" font-size="14.00">0/1</text>
</g>
<!-- 3 -->
<g id="node8" class="node">
<title>3</title>
<ellipse fill="none" stroke="black" cx="434" cy="-136" rx="18" ry="18"/>
<text text-anchor="middle" x="434" y="-132.3" font-family="Times,serif" font-size="14.00">3</text>
</g>
<!-- 2&#45;&gt;3 -->
<g id="edge16" class="edge">
<title>2&#45;&gt;3</title>
<path fill="none" stroke="black" d="M346.45,-177.66C360.04,-171.19 380.35,-161.5 398,-153 401.26,-151.43 404.7,-149.77 408.08,-148.13"/>
<polygon fill="black" stroke="black" points="409.86,-151.15 417.33,-143.64 406.81,-144.86 409.86,-151.15"/>
<text text-anchor="middle" x="382" y="-170.8" font-family="Times,serif" font-size="14.00">0/26</text>
</g>
<!-- 5&#45;&gt;7 -->
<g id="edge12" class="edge">
<title>5&#45;&gt;7</title>
<path fill="none" stroke="black" d="M555.39,-123.38C571.45,-117.87 596.18,-109.38 614.94,-102.94"/>
<polygon fill="black" stroke="black" points="616.33,-106.17 624.65,-99.61 614.06,-99.54 616.33,-106.17"/>
<text text-anchor="middle" x="590" y="-119.8" font-family="Times,serif" font-size="14.00">0/7</text>
</g>
<!-- 0 -->
<g id="node5" class="node">
<title>0</title>
<ellipse fill="none" stroke="black" cx="18" cy="-228" rx="18" ry="18"/>
<text text-anchor="middle" x="18" y="-224.3" font-family="Times,serif" font-size="14.00">0</text>
</g>
<!-- 0&#45;&gt;2 -->
<g id="edge6" class="edge">
<title>0&#45;&gt;2</title>
<path fill="none" stroke="black" d="M36.14,-226.41C79.53,-222.25 197.09,-210.2 294,-193 296.73,-192.52 299.56,-191.96 302.38,-191.37"/>
<polygon fill="black" stroke="black" points="303.33,-194.74 312.33,-189.16 301.81,-187.91 303.33,-194.74"/>
<text text-anchor="middle" x="174" y="-215.8" font-family="Times,serif" font-size="14.00">0/1</text>
</g>
<!-- 6 -->
<g id="node6" class="node">
<title>6</title>
<ellipse fill="none" stroke="black" cx="538" cy="-183" rx="18" ry="18"/>
<text text-anchor="middle" x="538" y="-179.3" font-family="Times,serif" font-size="14.00">6</text>
</g>
<!-- 0&#45;&gt;6 -->
<g id="edge4" class="edge">
<title>0&#45;&gt;6</title>
<path fill="none" stroke="black" d="M33.57,-237.2C52.81,-248.44 88.12,-266 121,-266 121,-266 121,-266 435,-266 472.82,-266 504.4,-231.25 521.99,-206.72"/>
<polygon fill="black" stroke="black" points="525.04,-208.45 527.82,-198.22 519.27,-204.49 525.04,-208.45"/>
<text text-anchor="middle" x="278" y="-269.8" font-family="Times,serif" font-size="14.00">0/2</text>
</g>
<!-- 1 -->
<g id="node7" class="node">
<title>1</title>
<ellipse fill="none" stroke="black" cx="122" cy="-161" rx="18" ry="18"/>
<text text-anchor="middle" x="122" y="-157.3" font-family="Times,serif" font-size="14.00">1</text>
</g>
<!-- 0&#45;&gt;1 -->
<g id="edge5" class="edge">
<title>0&#45;&gt;1</title>
<path fill="none" stroke="black" d="M31.86,-216.41C38.3,-210.86 46.34,-204.29 54,-199 67.64,-189.59 83.77,-180.39 96.79,-173.39"/>
<polygon fill="black" stroke="black" points="98.43,-176.49 105.64,-168.72 95.16,-170.3 98.43,-176.49"/>
<text text-anchor="middle" x="70" y="-202.8" font-family="Times,serif" font-size="14.00">0/38</text>
</g>
<!-- 6&#45;&gt;7 -->
<g id="edge11" class="edge">
<title>6&#45;&gt;7</title>
<path fill="none" stroke="black" d="M553.62,-174.01C567.73,-164.99 589.35,-150.29 606,-135 612.3,-129.21 618.56,-122.33 624.01,-115.88"/>
<polygon fill="black" stroke="black" points="626.8,-118 630.42,-108.04 621.38,-113.56 626.8,-118"/>
<text text-anchor="middle" x="590" y="-163.8" font-family="Times,serif" font-size="14.00">0/27</text>
</g>
<!-- 1&#45;&gt;4 -->
<g id="edge15" class="edge">
<title>1&#45;&gt;4</title>
<path fill="none" stroke="black" d="M131.36,-145.49C137.7,-134.68 147.15,-120.41 158,-110 170.44,-98.07 186.79,-87.74 200.22,-80.31"/>
<polygon fill="black" stroke="black" points="202.21,-83.22 209.39,-75.43 198.92,-77.04 202.21,-83.22"/>
<text text-anchor="middle" x="174" y="-113.8" font-family="Times,serif" font-size="14.00">0/13</text>
</g>
<!-- 1&#45;&gt;2 -->
<g id="edge13" class="edge">
<title>1&#45;&gt;2</title>
<path fill="none" stroke="black" d="M140.21,-163C176.05,-167.18 258.91,-176.83 301.95,-181.85"/>
<polygon fill="black" stroke="black" points="301.65,-185.34 311.98,-183.02 302.46,-178.38 301.65,-185.34"/>
<text text-anchor="middle" x="226" y="-177.8" font-family="Times,serif" font-size="14.00">0/8</text>
</g>
<!-- 1&#45;&gt;3 -->
<g id="edge14" class="edge">
<title>1&#45;&gt;3</title>
<path fill="none" stroke="black" d="M140.11,-159.62C191.24,-155.5 343.21,-143.24 405.7,-138.2"/>
<polygon fill="black" stroke="black" points="406.26,-141.67 415.94,-137.38 405.7,-134.69 406.26,-141.67"/>
<text text-anchor="middle" x="278" y="-152.8" font-family="Times,serif" font-size="14.00">0/10</text>
</g>
<!-- 3&#45;&gt;4 -->
<g id="edge9" class="edge">
<title>3&#45;&gt;4</title>
<path fill="none" stroke="black" d="M417.04,-128.8C391.5,-117.51 339.67,-95.54 294,-82 281.05,-78.16 266.38,-74.97 254.08,-72.61"/>
<polygon fill="black" stroke="black" points="254.46,-69.12 243.99,-70.75 253.19,-76 254.46,-69.12"/>
<text text-anchor="middle" x="330" y="-103.8" font-family="Times,serif" font-size="14.00">0/20</text>
</g>
<!-- 3&#45;&gt;7 -->
<g id="edge8" class="edge">
<title>3&#45;&gt;7</title>
<path fill="none" stroke="black" d="M448.43,-125.23C464.39,-113.19 492.36,-94.4 520,-87 551.52,-78.57 589.25,-82.92 614.1,-87.66"/>
<polygon fill="black" stroke="black" points="613.72,-91.16 624.22,-89.75 615.14,-84.3 613.72,-91.16"/>
<text text-anchor="middle" x="538" y="-90.8" font-family="Times,serif" font-size="14.00">0/1</text>
</g>
<!-- 3&#45;&gt;5 -->
<g id="edge10" class="edge">
<title>3&#45;&gt;5</title>
<path fill="none" stroke="black" d="M452.3,-134.81C468.08,-133.73 491.64,-132.11 509.91,-130.86"/>
<polygon fill="black" stroke="black" points="510.22,-134.35 519.95,-130.17 509.74,-127.36 510.22,-134.35"/>
<text text-anchor="middle" x="486" y="-136.8" font-family="Times,serif" font-size="14.00">0/8</text>
</g>
<!-- 3&#45;&gt;6 -->
<g id="edge7" class="edge">
<title>3&#45;&gt;6</title>
<path fill="none" stroke="black" d="M450.94,-143.34C467.26,-150.86 492.86,-162.66 511.9,-171.43"/>
<polygon fill="black" stroke="black" points="510.63,-174.7 521.17,-175.71 513.56,-168.34 510.63,-174.7"/>
<text text-anchor="middle" x="486" y="-169.8" font-family="Times,serif" font-size="14.00">0/24</text>
</g>
</g>
</svg>
