<?xml version="1.0" encoding="UTF-8" standalone="no"?>
<!DOCTYPE svg PUBLIC "-//W3C//DTD SVG 1.1//EN"
 "http://www.w3.org/Graphics/SVG/1.1/DTD/svg11.dtd">
<!-- Generated by graphviz version 2.40.1 (20161225.0304)
 -->
<!-- Title: finite_state_machine Pages: 1 -->
<svg width="560pt" height="339pt"
 viewBox="0.00 0.00 560.00 339.00" xmlns="http://www.w3.org/2000/svg" xmlns:xlink="http://www.w3.org/1999/xlink">
<g id="graph0" class="graph" transform="scale(1 1) rotate(0) translate(4 335)">
<title>finite_state_machine</title>
<polygon fill="#ffffff" stroke="transparent" points="-4,4 -4,-335 556,-335 556,4 -4,4"/>
<!-- 4 -->
<g id="node1" class="node">
<title>4</title>
<ellipse fill="none" stroke="#000000" cx="190" cy="-236" rx="18" ry="18"/>
<text text-anchor="middle" x="190" y="-232.3" font-family="Times,serif" font-size="14.00" fill="#000000">4</text>
</g>
<!-- 2 -->
<g id="node2" class="node">
<title>2</title>
<ellipse fill="none" stroke="#000000" cx="276" cy="-173" rx="18" ry="18"/>
<text text-anchor="middle" x="276" y="-169.3" font-family="Times,serif" font-size="14.00" fill="#000000">2</text>
</g>
<!-- 4&#45;&gt;2 -->
<g id="edge1" class="edge">
<title>4&#45;&gt;2</title>
<path fill="none" stroke="#000000" d="M203.8123,-224.4394C210.4268,-219.0161 218.5196,-212.5422 226,-207 234.5137,-200.6923 244.0868,-194.0729 252.5604,-188.3683"/>
<polygon fill="#000000" stroke="#000000" points="254.5239,-191.2658 260.9022,-182.806 250.6404,-185.4418 254.5239,-191.2658"/>
<text text-anchor="middle" x="233" y="-210.8" font-family="Times,serif" font-size="14.00" fill="#000000">2</text>
</g>
<!-- 7 -->
<g id="node3" class="node">
<title>7</title>
<ellipse fill="none" stroke="#000000" cx="534" cy="-214" rx="18" ry="18"/>
<text text-anchor="middle" x="534" y="-210.3" font-family="Times,serif" font-size="14.00" fill="#000000">7</text>
</g>
<!-- 4&#45;&gt;7 -->
<g id="edge2" class="edge">
<title>4&#45;&gt;7</title>
<path fill="none" stroke="#000000" d="M198.1002,-252.1892C211.0769,-275.5654 238.887,-316 276,-316 276,-316 276,-316 448,-316 487.3312,-316 512.3228,-271.1234 524.6932,-240.9035"/>
<polygon fill="#000000" stroke="#000000" points="528.0635,-241.8922 528.4071,-231.3029 521.5349,-239.3667 528.0635,-241.8922"/>
<text text-anchor="middle" x="362" y="-319.8" font-family="Times,serif" font-size="14.00" fill="#000000">7</text>
</g>
<!-- 5 -->
<g id="node4" class="node">
<title>5</title>
<ellipse fill="none" stroke="#000000" cx="448" cy="-240" rx="18" ry="18"/>
<text text-anchor="middle" x="448" y="-236.3" font-family="Times,serif" font-size="14.00" fill="#000000">5</text>
</g>
<!-- 4&#45;&gt;5 -->
<g id="edge3" class="edge">
<title>4&#45;&gt;5</title>
<path fill="none" stroke="#000000" d="M208.3069,-237.1821C213.9759,-237.5038 220.2441,-237.8143 226,-238 295.6363,-240.2468 377.6184,-240.3178 419.7911,-240.1655"/>
<polygon fill="#000000" stroke="#000000" points="419.8802,-243.6652 429.8649,-240.1219 419.8499,-236.6653 419.8802,-243.6652"/>
<text text-anchor="middle" x="319" y="-242.8" font-family="Times,serif" font-size="14.00" fill="#000000">1</text>
</g>
<!-- 3 -->
<g id="node5" class="node">
<title>3</title>
<ellipse fill="none" stroke="#000000" cx="362" cy="-173" rx="18" ry="18"/>
<text text-anchor="middle" x="362" y="-169.3" font-family="Times,serif" font-size="14.00" fill="#000000">3</text>
</g>
<!-- 2&#45;&gt;3 -->
<g id="edge13" class="edge">
<title>2&#45;&gt;3</title>
<path fill="none" stroke="#000000" d="M294.2384,-173C305.6403,-173 320.5658,-173 333.506,-173"/>
<polygon fill="#000000" stroke="#000000" points="333.7879,-176.5001 343.7879,-173 333.7879,-169.5001 333.7879,-176.5001"/>
<text text-anchor="middle" x="319" y="-176.8" font-family="Times,serif" font-size="14.00" fill="#000000">26</text>
</g>
<!-- 5&#45;&gt;7 -->
<g id="edge9" class="edge">
<title>5&#45;&gt;7</title>
<path fill="none" stroke="#000000" d="M465.4034,-234.7385C477.2932,-231.1439 493.2883,-226.3082 506.8421,-222.2105"/>
<polygon fill="#000000" stroke="#000000" points="508.0633,-225.4979 516.6225,-219.2537 506.0375,-218.7974 508.0633,-225.4979"/>
<text text-anchor="middle" x="491" y="-231.8" font-family="Times,serif" font-size="14.00" fill="#000000">7</text>
</g>
<!-- 3&#45;&gt;4 -->
<g id="edge6" class="edge">
<title>3&#45;&gt;4</title>
<path fill="none" stroke="#000000" d="M346.1238,-182.0376C339.9437,-185.3802 332.7388,-189.0661 326,-192 289.4822,-207.8992 245.2982,-221.157 217.4139,-228.8362"/>
<polygon fill="#000000" stroke="#000000" points="216.3127,-225.5083 207.575,-231.5001 218.1422,-232.265 216.3127,-225.5083"/>
<text text-anchor="middle" x="276" y="-219.8" font-family="Times,serif" font-size="14.00" fill="#000000">20</text>
</g>
<!-- 3&#45;&gt;7 -->
<g id="edge5" class="edge">
<title>3&#45;&gt;7</title>
<path fill="none" stroke="#000000" d="M379.7592,-177.2333C409.8354,-184.4026 470.9894,-198.98 506.5947,-207.4673"/>
<polygon fill="#000000" stroke="#000000" points="505.7984,-210.8755 516.3374,-209.7897 507.4216,-204.0663 505.7984,-210.8755"/>
<text text-anchor="middle" x="448" y="-200.8" font-family="Times,serif" font-size="14.00" fill="#000000">1</text>
</g>
<!-- 3&#45;&gt;5 -->
<g id="edge7" class="edge">
<title>3&#45;&gt;5</title>
<path fill="none" stroke="#000000" d="M375.9457,-184.3855C382.5893,-189.7705 390.6682,-196.2627 398,-202 406.887,-208.9543 416.7609,-216.4968 425.3709,-223.015"/>
<polygon fill="#000000" stroke="#000000" points="423.386,-225.9019 433.4764,-229.1322 427.6028,-220.3145 423.386,-225.9019"/>
<text text-anchor="middle" x="405" y="-215.8" font-family="Times,serif" font-size="14.00" fill="#000000">8</text>
</g>
<!-- 6 -->
<g id="node6" class="node">
<title>6</title>
<ellipse fill="none" stroke="#000000" cx="448" cy="-135" rx="18" ry="18"/>
<text text-anchor="middle" x="448" y="-131.3" font-family="Times,serif" font-size="14.00" fill="#000000">6</text>
</g>
<!-- 3&#45;&gt;6 -->
<g id="edge4" class="edge">
<title>3&#45;&gt;6</title>
<path fill="none" stroke="#000000" d="M378.5817,-165.6732C390.9549,-160.206 408.0931,-152.6333 422.2445,-146.3803"/>
<polygon fill="#000000" stroke="#000000" points="423.737,-149.5474 431.4692,-142.3043 420.9078,-143.1446 423.737,-149.5474"/>
<text text-anchor="middle" x="405" y="-159.8" font-family="Times,serif" font-size="14.00" fill="#000000">24</text>
</g>
<!-- 6&#45;&gt;7 -->
<g id="edge8" class="edge">
<title>6&#45;&gt;7</title>
<path fill="none" stroke="#000000" d="M465.0687,-140.9468C475.4027,-145.14 488.396,-151.5218 498,-160 507.1833,-168.1069 515.0595,-179.0673 521.0824,-188.9953"/>
<polygon fill="#000000" stroke="#000000" points="518.0683,-190.7751 526.077,-197.7113 524.1418,-187.2947 518.0683,-190.7751"/>
<text text-anchor="middle" x="491" y="-163.8" font-family="Times,serif" font-size="14.00" fill="#000000">27</text>
</g>
<!-- 1 -->
<g id="node7" class="node">
<title>1</title>
<ellipse fill="none" stroke="#000000" cx="104" cy="-154" rx="18" ry="18"/>
<text text-anchor="middle" x="104" y="-150.3" font-family="Times,serif" font-size="14.00" fill="#000000">1</text>
</g>
<!-- 1&#45;&gt;4 -->
<g id="edge12" class="edge">
<title>1&#45;&gt;4</title>
<path fill="none" stroke="#000000" d="M117.0615,-166.454C130.9526,-179.699 153.1188,-200.8342 169.3732,-216.3326"/>
<polygon fill="#000000" stroke="#000000" points="167.1629,-219.0611 176.8155,-223.4288 171.9934,-213.9949 167.1629,-219.0611"/>
<text text-anchor="middle" x="147" y="-202.8" font-family="Times,serif" font-size="14.00" fill="#000000">13</text>
</g>
<!-- 1&#45;&gt;2 -->
<g id="edge10" class="edge">
<title>1&#45;&gt;2</title>
<path fill="none" stroke="#000000" d="M122.0819,-155.9974C152.019,-159.3044 212.1028,-165.9416 247.7011,-169.874"/>
<polygon fill="#000000" stroke="#000000" points="247.5784,-173.3816 257.9023,-171.0008 248.347,-166.4239 247.5784,-173.3816"/>
<text text-anchor="middle" x="190" y="-168.8" font-family="Times,serif" font-size="14.00" fill="#000000">8</text>
</g>
<!-- 1&#45;&gt;3 -->
<g id="edge11" class="edge">
<title>1&#45;&gt;3</title>
<path fill="none" stroke="#000000" d="M121.749,-150.5637C155.6,-144.6004 231.577,-134.0606 294,-146 308.668,-148.8055 324.2057,-154.7289 336.7204,-160.3146"/>
<polygon fill="#000000" stroke="#000000" points="335.4921,-163.6036 346.0346,-164.6559 338.4494,-157.2589 335.4921,-163.6036"/>
<text text-anchor="middle" x="233" y="-143.8" font-family="Times,serif" font-size="14.00" fill="#000000">10</text>
</g>
<!-- 0 -->
<g id="node8" class="node">
<title>0</title>
<ellipse fill="none" stroke="#000000" cx="18" cy="-67" rx="18" ry="18"/>
<text text-anchor="middle" x="18" y="-63.3" font-family="Times,serif" font-size="14.00" fill="#000000">0</text>
</g>
<!-- 0&#45;&gt;2 -->
<g id="edge16" class="edge">
<title>0&#45;&gt;2</title>
<path fill="none" stroke="#000000" d="M35.9341,-69.493C75.3661,-75.6046 171.5369,-94.0041 240,-136 246.6179,-140.0595 252.879,-145.6081 258.2672,-151.1734"/>
<polygon fill="#000000" stroke="#000000" points="255.7177,-153.5723 265.025,-158.6344 260.9059,-148.8731 255.7177,-153.5723"/>
<text text-anchor="middle" x="147" y="-100.8" font-family="Times,serif" font-size="14.00" fill="#000000">1</text>
</g>
<!-- 0&#45;&gt;3 -->
<g id="edge17" class="edge">
<title>0&#45;&gt;3</title>
<path fill="none" stroke="#000000" d="M34.8367,-60.3555C51.9632,-54.2031 79.4092,-46 104,-46 104,-46 104,-46 276,-46 323.5844,-46 346.6416,-107.8827 356.2275,-145.2544"/>
<polygon fill="#000000" stroke="#000000" points="352.8468,-146.1658 358.5832,-155.0734 359.6536,-144.5327 352.8468,-146.1658"/>
<text text-anchor="middle" x="190" y="-49.8" font-family="Times,serif" font-size="14.00" fill="#000000">50</text>
</g>
<!-- 0&#45;&gt;6 -->
<g id="edge14" class="edge">
<title>0&#45;&gt;6</title>
<path fill="none" stroke="#000000" d="M27.944,-51.7967C42.2123,-32.0289 70.4996,0 104,0 104,0 104,0 362,0 412.3814,0 434.5356,-67.7086 443.175,-107.2235"/>
<polygon fill="#000000" stroke="#000000" points="439.7553,-107.971 445.1778,-117.073 446.6149,-106.5761 439.7553,-107.971"/>
<text text-anchor="middle" x="233" y="-3.8" font-family="Times,serif" font-size="14.00" fill="#000000">2</text>
</g>
<!-- 0&#45;&gt;1 -->
<g id="edge15" class="edge">
<title>0&#45;&gt;1</title>
<path fill="none" stroke="#000000" d="M30.6896,-79.8371C44.7898,-94.1013 67.7371,-117.3155 84.2037,-133.9735"/>
<polygon fill="#000000" stroke="#000000" points="81.7391,-136.4589 91.2583,-141.1102 86.7174,-131.5378 81.7391,-136.4589"/>
<text text-anchor="middle" x="61" y="-118.8" font-family="Times,serif" font-size="14.00" fill="#000000">38</text>
</g>
</g>
</svg>
