<?xml version="1.0" encoding="UTF-8" standalone="no"?>
<!DOCTYPE svg PUBLIC "-//W3C//DTD SVG 1.1//EN"
 "http://www.w3.org/Graphics/SVG/1.1/DTD/svg11.dtd">
<!-- Generated by graphviz version 2.43.20190912.0211 (20190912.0211)
 -->
<!-- Title: finite_state_machine Pages: 1 -->
<svg width="399pt" height="141pt"
 viewBox="0.00 0.00 399.00 141.00" xmlns="http://www.w3.org/2000/svg" xmlns:xlink="http://www.w3.org/1999/xlink">
<g id="graph0" class="graph" transform="scale(1 1) rotate(0) translate(4 137)">
<title>finite_state_machine</title>
<polygon fill="white" stroke="transparent" points="-4,4 -4,-137 395,-137 395,4 -4,4"/>
<!-- 0 -->
<g id="node1" class="node">
<title>0</title>
<ellipse fill="none" stroke="black" cx="18" cy="-88" rx="18" ry="18"/>
<text text-anchor="middle" x="18" y="-84.3" font-family="Times,serif" font-size="14.00">0</text>
</g>
<!-- 1 -->
<g id="node2" class="node">
<title>1</title>
<ellipse fill="none" stroke="black" cx="109" cy="-61" rx="18" ry="18"/>
<text text-anchor="middle" x="109" y="-57.3" font-family="Times,serif" font-size="14.00">1</text>
</g>
<!-- 0&#45;&gt;1 -->
<g id="edge1" class="edge">
<title>0&#45;&gt;1</title>
<path fill="none" stroke="black" d="M34.85,-81.1C40.79,-78.66 47.64,-76.03 54,-74 62.85,-71.18 72.68,-68.64 81.51,-66.57"/>
<polygon fill="black" stroke="black" points="82.3,-69.98 91.29,-64.37 80.76,-63.15 82.3,-69.98"/>
<text text-anchor="middle" x="63.5" y="-77.8" font-family="Times,serif" font-size="14.00">10</text>
</g>
<!-- 2 -->
<g id="node3" class="node">
<title>2</title>
<ellipse fill="none" stroke="black" cx="109" cy="-115" rx="18" ry="18"/>
<text text-anchor="middle" x="109" y="-111.3" font-family="Times,serif" font-size="14.00">2</text>
</g>
<!-- 0&#45;&gt;2 -->
<g id="edge2" class="edge">
<title>0&#45;&gt;2</title>
<path fill="none" stroke="black" d="M35.32,-92.95C48.29,-96.89 66.68,-102.46 81.71,-107.03"/>
<polygon fill="black" stroke="black" points="80.89,-110.43 91.48,-109.99 82.92,-103.74 80.89,-110.43"/>
<text text-anchor="middle" x="63.5" y="-106.8" font-family="Times,serif" font-size="14.00">20</text>
</g>
<!-- 3 -->
<g id="node4" class="node">
<title>3</title>
<ellipse fill="none" stroke="black" cx="200" cy="-18" rx="18" ry="18"/>
<text text-anchor="middle" x="200" y="-14.3" font-family="Times,serif" font-size="14.00">3</text>
</g>
<!-- 1&#45;&gt;3 -->
<g id="edge3" class="edge">
<title>1&#45;&gt;3</title>
<path fill="none" stroke="black" d="M125.26,-52.98C131.37,-49.81 138.49,-46.18 145,-43 154.41,-38.41 164.83,-33.53 173.99,-29.32"/>
<polygon fill="black" stroke="black" points="175.68,-32.39 183.32,-25.05 172.77,-26.03 175.68,-32.39"/>
<text text-anchor="middle" x="154.5" y="-46.8" font-family="Times,serif" font-size="14.00">50</text>
</g>
<!-- 4 -->
<g id="node5" class="node">
<title>4</title>
<ellipse fill="none" stroke="black" cx="291" cy="-66" rx="18" ry="18"/>
<text text-anchor="middle" x="291" y="-62.3" font-family="Times,serif" font-size="14.00">4</text>
</g>
<!-- 1&#45;&gt;4 -->
<g id="edge4" class="edge">
<title>1&#45;&gt;4</title>
<path fill="none" stroke="black" d="M127.26,-61.48C158.57,-62.35 224.98,-64.19 262.57,-65.24"/>
<polygon fill="black" stroke="black" points="262.7,-68.74 272.79,-65.52 262.89,-61.75 262.7,-68.74"/>
<text text-anchor="middle" x="200" y="-67.8" font-family="Times,serif" font-size="14.00">10</text>
</g>
<!-- 2&#45;&gt;3 -->
<g id="edge5" class="edge">
<title>2&#45;&gt;3</title>
<path fill="none" stroke="black" d="M122.88,-103.21C134.1,-92.74 150.63,-76.83 164,-62 170.2,-55.12 176.61,-47.3 182.23,-40.17"/>
<polygon fill="black" stroke="black" points="185.02,-42.28 188.39,-32.23 179.49,-37.98 185.02,-42.28"/>
<text text-anchor="middle" x="154.5" y="-84.8" font-family="Times,serif" font-size="14.00">20</text>
</g>
<!-- 2&#45;&gt;4 -->
<g id="edge6" class="edge">
<title>2&#45;&gt;4</title>
<path fill="none" stroke="black" d="M126.69,-111.5C153.84,-105.65 209.15,-93.16 255,-79 258.16,-78.02 261.45,-76.92 264.69,-75.78"/>
<polygon fill="black" stroke="black" points="265.91,-79.06 274.1,-72.34 263.51,-72.49 265.91,-79.06"/>
<text text-anchor="middle" x="200" y="-101.8" font-family="Times,serif" font-size="14.00">33</text>
</g>
<!-- 3&#45;&gt;4 -->
<g id="edge8" class="edge">
<title>3&#45;&gt;4</title>
<path fill="none" stroke="black" d="M216.9,-24.62C227.82,-29.35 242.54,-36.07 255,-43 259.04,-45.25 263.23,-47.8 267.25,-50.36"/>
<polygon fill="black" stroke="black" points="265.38,-53.31 275.65,-55.88 269.22,-47.46 265.38,-53.31"/>
<text text-anchor="middle" x="245.5" y="-46.8" font-family="Times,serif" font-size="14.00">20</text>
</g>
<!-- 5 -->
<g id="node6" class="node">
<title>5</title>
<ellipse fill="none" stroke="black" cx="373" cy="-25" rx="18" ry="18"/>
<text text-anchor="middle" x="373" y="-21.3" font-family="Times,serif" font-size="14.00">5</text>
</g>
<!-- 3&#45;&gt;5 -->
<g id="edge9" class="edge">
<title>3&#45;&gt;5</title>
<path fill="none" stroke="black" d="M218.02,-18.7C247.65,-19.91 308.94,-22.42 344.61,-23.88"/>
<polygon fill="black" stroke="black" points="344.66,-27.38 354.79,-24.3 344.95,-20.39 344.66,-27.38"/>
<text text-anchor="middle" x="291" y="-26.8" font-family="Times,serif" font-size="14.00">2</text>
</g>
<!-- 4&#45;&gt;5 -->
<g id="edge7" class="edge">
<title>4&#45;&gt;5</title>
<path fill="none" stroke="black" d="M307.42,-58.09C318.82,-52.25 334.57,-44.18 347.66,-37.47"/>
<polygon fill="black" stroke="black" points="349.32,-40.56 356.62,-32.88 346.13,-34.33 349.32,-40.56"/>
<text text-anchor="middle" x="332" y="-51.8" font-family="Times,serif" font-size="14.00">1</text>
</g>
</g>
</svg>
