<?xml version="1.0" encoding="UTF-8" standalone="no"?>
<!DOCTYPE svg PUBLIC "-//W3C//DTD SVG 1.1//EN"
 "http://www.w3.org/Graphics/SVG/1.1/DTD/svg11.dtd">
<!-- Generated by graphviz version 2.43.20190912.0211 (20190912.0211)
 -->
<!-- Title: finite_state_machine Pages: 1 -->
<svg width="614pt" height="289pt"
 viewBox="0.00 0.00 614.00 289.00" xmlns="http://www.w3.org/2000/svg" xmlns:xlink="http://www.w3.org/1999/xlink">
<g id="graph0" class="graph" transform="scale(1 1) rotate(0) translate(4 285)">
<title>finite_state_machine</title>
<polygon fill="white" stroke="transparent" points="-4,4 -4,-285 610,-285 610,4 -4,4"/>
<!-- 4 -->
<g id="node1" class="node">
<title>4</title>
<ellipse fill="none" stroke="black" cx="208" cy="-68" rx="18" ry="18"/>
<text text-anchor="middle" x="208" y="-64.3" font-family="Times,serif" font-size="14.00">4</text>
</g>
<!-- 2 -->
<g id="node2" class="node">
<title>2</title>
<ellipse fill="none" stroke="black" cx="303" cy="-185" rx="18" ry="18"/>
<text text-anchor="middle" x="303" y="-181.3" font-family="Times,serif" font-size="14.00">2</text>
</g>
<!-- 4&#45;&gt;2 -->
<g id="edge1" class="edge">
<title>4&#45;&gt;2</title>
<path fill="none" stroke="black" d="M225.18,-74.11C238.01,-79.68 255.61,-89.01 267,-102 280.96,-117.92 289.95,-140.23 295.31,-157.7"/>
<polygon fill="black" stroke="black" points="291.96,-158.69 298.06,-167.35 298.69,-156.77 291.96,-158.69"/>
<text text-anchor="middle" x="255.5" y="-105.8" font-family="Times,serif" font-size="14.00">0/0</text>
</g>
<!-- 7 -->
<g id="node3" class="node">
<title>7</title>
<ellipse fill="none" stroke="black" cx="588" cy="-94" rx="18" ry="18"/>
<text text-anchor="middle" x="588" y="-90.3" font-family="Times,serif" font-size="14.00">7</text>
</g>
<!-- 4&#45;&gt;7 -->
<g id="edge2" class="edge">
<title>4&#45;&gt;7</title>
<path fill="none" stroke="black" d="M219.2,-53.58C234.65,-33.62 266,0 302,0 302,0 302,0 494,0 532.61,0 560.62,-40.57 575.3,-68.4"/>
<polygon fill="black" stroke="black" points="572.32,-70.26 579.94,-77.63 578.58,-67.12 572.32,-70.26"/>
<text text-anchor="middle" x="398" y="-3.8" font-family="Times,serif" font-size="14.00">0/0</text>
</g>
<!-- 5 -->
<g id="node4" class="node">
<title>5</title>
<ellipse fill="none" stroke="black" cx="493" cy="-129" rx="18" ry="18"/>
<text text-anchor="middle" x="493" y="-125.3" font-family="Times,serif" font-size="14.00">5</text>
</g>
<!-- 4&#45;&gt;5 -->
<g id="edge3" class="edge">
<title>4&#45;&gt;5</title>
<path fill="none" stroke="black" d="M226.07,-68.18C237.65,-68.48 253.3,-69.21 267,-71 340.75,-80.61 424.98,-106.46 466.34,-120.18"/>
<polygon fill="black" stroke="black" points="465.3,-123.52 475.9,-123.38 467.53,-116.88 465.3,-123.52"/>
<text text-anchor="middle" x="350.5" y="-92.8" font-family="Times,serif" font-size="14.00">0/0</text>
</g>
<!-- 3 -->
<g id="node8" class="node">
<title>3</title>
<ellipse fill="none" stroke="black" cx="398" cy="-136" rx="18" ry="18"/>
<text text-anchor="middle" x="398" y="-132.3" font-family="Times,serif" font-size="14.00">3</text>
</g>
<!-- 2&#45;&gt;3 -->
<g id="edge16" class="edge">
<title>2&#45;&gt;3</title>
<path fill="none" stroke="black" d="M319.36,-176.91C333.76,-169.32 355.54,-157.84 372.38,-148.97"/>
<polygon fill="black" stroke="black" points="374.4,-151.86 381.62,-144.1 371.14,-145.67 374.4,-151.86"/>
<text text-anchor="middle" x="350.5" y="-169.8" font-family="Times,serif" font-size="14.00">0/0</text>
</g>
<!-- 5&#45;&gt;7 -->
<g id="edge12" class="edge">
<title>5&#45;&gt;7</title>
<path fill="none" stroke="black" d="M510.2,-122.9C524.34,-117.58 545.09,-109.77 561.46,-103.61"/>
<polygon fill="black" stroke="black" points="562.86,-106.82 570.99,-100.03 560.39,-100.27 562.86,-106.82"/>
<text text-anchor="middle" x="540.5" y="-118.8" font-family="Times,serif" font-size="14.00">0/0</text>
</g>
<!-- 0 -->
<g id="node5" class="node">
<title>0</title>
<ellipse fill="none" stroke="black" cx="18" cy="-228" rx="18" ry="18"/>
<text text-anchor="middle" x="18" y="-224.3" font-family="Times,serif" font-size="14.00">0</text>
</g>
<!-- 0&#45;&gt;2 -->
<g id="edge6" class="edge">
<title>0&#45;&gt;2</title>
<path fill="none" stroke="black" d="M35.92,-226.11C76.15,-221.52 180.62,-208.94 267,-193 269.72,-192.5 272.55,-191.93 275.37,-191.33"/>
<polygon fill="black" stroke="black" points="276.33,-194.71 285.32,-189.11 274.8,-187.87 276.33,-194.71"/>
<text text-anchor="middle" x="160.5" y="-214.8" font-family="Times,serif" font-size="14.00">0/0</text>
</g>
<!-- 6 -->
<g id="node6" class="node">
<title>6</title>
<ellipse fill="none" stroke="black" cx="493" cy="-183" rx="18" ry="18"/>
<text text-anchor="middle" x="493" y="-179.3" font-family="Times,serif" font-size="14.00">6</text>
</g>
<!-- 0&#45;&gt;6 -->
<g id="edge4" class="edge">
<title>0&#45;&gt;6</title>
<path fill="none" stroke="black" d="M33.4,-237.98C51.07,-249.24 82.35,-266 112,-266 112,-266 112,-266 399,-266 434.5,-266 462.69,-231.92 478.36,-207.43"/>
<polygon fill="black" stroke="black" points="481.53,-208.97 483.75,-198.61 475.55,-205.33 481.53,-208.97"/>
<text text-anchor="middle" x="255.5" y="-269.8" font-family="Times,serif" font-size="14.00">0/0</text>
</g>
<!-- 1 -->
<g id="node7" class="node">
<title>1</title>
<ellipse fill="none" stroke="black" cx="113" cy="-161" rx="18" ry="18"/>
<text text-anchor="middle" x="113" y="-157.3" font-family="Times,serif" font-size="14.00">1</text>
</g>
<!-- 0&#45;&gt;1 -->
<g id="edge5" class="edge">
<title>0&#45;&gt;1</title>
<path fill="none" stroke="black" d="M32.02,-216.63C38.49,-211.12 46.51,-204.53 54,-199 64.94,-190.93 77.51,-182.58 88.15,-175.78"/>
<polygon fill="black" stroke="black" points="90.33,-178.54 96.91,-170.24 86.59,-172.62 90.33,-178.54"/>
<text text-anchor="middle" x="65.5" y="-202.8" font-family="Times,serif" font-size="14.00">0/0</text>
</g>
<!-- 6&#45;&gt;7 -->
<g id="edge11" class="edge">
<title>6&#45;&gt;7</title>
<path fill="none" stroke="black" d="M507.86,-172.26C519.94,-162.69 537.71,-148.04 552,-134 557.79,-128.31 563.74,-121.8 569.05,-115.72"/>
<polygon fill="black" stroke="black" points="571.98,-117.67 575.82,-107.79 566.66,-113.12 571.98,-117.67"/>
<text text-anchor="middle" x="540.5" y="-156.8" font-family="Times,serif" font-size="14.00">0/0</text>
</g>
<!-- 1&#45;&gt;4 -->
<g id="edge15" class="edge">
<title>1&#45;&gt;4</title>
<path fill="none" stroke="black" d="M122.58,-145.71C129.02,-135.01 138.5,-120.76 149,-110 159.27,-99.46 172.44,-89.69 183.64,-82.23"/>
<polygon fill="black" stroke="black" points="185.59,-85.13 192.1,-76.77 181.8,-79.25 185.59,-85.13"/>
<text text-anchor="middle" x="160.5" y="-113.8" font-family="Times,serif" font-size="14.00">0/0</text>
</g>
<!-- 1&#45;&gt;2 -->
<g id="edge13" class="edge">
<title>1&#45;&gt;2</title>
<path fill="none" stroke="black" d="M131.02,-163.17C163.72,-167.35 235.59,-176.52 274.94,-181.55"/>
<polygon fill="black" stroke="black" points="274.52,-185.02 284.89,-182.82 275.41,-178.08 274.52,-185.02"/>
<text text-anchor="middle" x="208" y="-177.8" font-family="Times,serif" font-size="14.00">0/0</text>
</g>
<!-- 1&#45;&gt;3 -->
<g id="edge14" class="edge">
<title>1&#45;&gt;3</title>
<path fill="none" stroke="black" d="M131.28,-159.47C178.85,-155.27 312.07,-143.5 369.78,-138.4"/>
<polygon fill="black" stroke="black" points="370.3,-141.87 379.95,-137.51 369.68,-134.9 370.3,-141.87"/>
<text text-anchor="middle" x="255.5" y="-152.8" font-family="Times,serif" font-size="14.00">0/0</text>
</g>
<!-- 3&#45;&gt;4 -->
<g id="edge9" class="edge">
<title>3&#45;&gt;4</title>
<path fill="none" stroke="black" d="M381.29,-128.53C357.15,-117.27 309.29,-95.79 267,-82 257.02,-78.74 245.85,-75.87 236,-73.59"/>
<polygon fill="black" stroke="black" points="236.47,-70.11 225.95,-71.36 234.95,-76.94 236.47,-70.11"/>
<text text-anchor="middle" x="303" y="-104.8" font-family="Times,serif" font-size="14.00">0/0</text>
</g>
<!-- 3&#45;&gt;7 -->
<g id="edge8" class="edge">
<title>3&#45;&gt;7</title>
<path fill="none" stroke="black" d="M411.82,-124.38C426.06,-112.34 450.3,-94.27 475,-87 503.23,-78.69 537.15,-82.62 560.21,-87.25"/>
<polygon fill="black" stroke="black" points="559.76,-90.73 570.28,-89.45 561.26,-83.89 559.76,-90.73"/>
<text text-anchor="middle" x="493" y="-90.8" font-family="Times,serif" font-size="14.00">0/0</text>
</g>
<!-- 3&#45;&gt;5 -->
<g id="edge10" class="edge">
<title>3&#45;&gt;5</title>
<path fill="none" stroke="black" d="M416.06,-134.72C429.61,-133.7 448.82,-132.25 464.53,-131.07"/>
<polygon fill="black" stroke="black" points="465.03,-134.54 474.74,-130.3 464.5,-127.56 465.03,-134.54"/>
<text text-anchor="middle" x="445.5" y="-136.8" font-family="Times,serif" font-size="14.00">0/0</text>
</g>
<!-- 3&#45;&gt;6 -->
<g id="edge7" class="edge">
<title>3&#45;&gt;6</title>
<path fill="none" stroke="black" d="M414.36,-143.76C428.76,-151.04 450.54,-162.05 467.38,-170.56"/>
<polygon fill="black" stroke="black" points="466.12,-173.84 476.62,-175.23 469.27,-167.59 466.12,-173.84"/>
<text text-anchor="middle" x="445.5" y="-168.8" font-family="Times,serif" font-size="14.00">0/0</text>
</g>
</g>
</svg>
