<?xml version="1.0" encoding="UTF-8" standalone="no"?>
<!DOCTYPE svg PUBLIC "-//W3C//DTD SVG 1.1//EN"
 "http://www.w3.org/Graphics/SVG/1.1/DTD/svg11.dtd">
<!-- Generated by graphviz version 2.43.20190912.0211 (20190912.0211)
 -->
<!-- Title: finite_state_machine Pages: 1 -->
<svg width="483pt" height="154pt"
 viewBox="0.00 0.00 483.00 154.00" xmlns="http://www.w3.org/2000/svg" xmlns:xlink="http://www.w3.org/1999/xlink">
<g id="graph0" class="graph" transform="scale(1 1) rotate(0) translate(4 150)">
<title>finite_state_machine</title>
<polygon fill="white" stroke="transparent" points="-4,4 -4,-150 479,-150 479,4 -4,4"/>
<!-- 0 -->
<g id="node1" class="node">
<title>0</title>
<ellipse fill="none" stroke="black" cx="18" cy="-77" rx="18" ry="18"/>
<text text-anchor="middle" x="18" y="-73.3" font-family="Times,serif" font-size="14.00">0</text>
</g>
<!-- 2 -->
<g id="node2" class="node">
<title>2</title>
<ellipse fill="none" stroke="black" cx="235" cy="-128" rx="18" ry="18"/>
<text text-anchor="middle" x="235" y="-124.3" font-family="Times,serif" font-size="14.00">2</text>
</g>
<!-- 0&#45;&gt;2 -->
<g id="edge1" class="edge">
<title>0&#45;&gt;2</title>
<path fill="none" stroke="black" d="M33.95,-86.14C40.02,-89.57 47.19,-93.29 54,-96 102.29,-115.2 115.58,-118.51 167,-126 180,-127.89 194.57,-128.51 206.79,-128.6"/>
<polygon fill="black" stroke="black" points="206.84,-132.1 216.83,-128.57 206.82,-125.1 206.84,-132.1"/>
<text text-anchor="middle" x="131" y="-126.8" font-family="Times,serif" font-size="14.00">8/8</text>
</g>
<!-- 5 -->
<g id="node3" class="node">
<title>5</title>
<ellipse fill="none" stroke="black" cx="131" cy="-77" rx="18" ry="18"/>
<text text-anchor="middle" x="131" y="-73.3" font-family="Times,serif" font-size="14.00">5</text>
</g>
<!-- 0&#45;&gt;5 -->
<g id="edge2" class="edge">
<title>0&#45;&gt;5</title>
<path fill="none" stroke="black" d="M36.34,-77C54.1,-77 81.96,-77 102.68,-77"/>
<polygon fill="black" stroke="black" points="102.78,-80.5 112.78,-77 102.78,-73.5 102.78,-80.5"/>
<text text-anchor="middle" x="74.5" y="-80.8" font-family="Times,serif" font-size="14.00">10/10</text>
</g>
<!-- 1 -->
<g id="node4" class="node">
<title>1</title>
<ellipse fill="none" stroke="black" cx="235" cy="-18" rx="18" ry="18"/>
<text text-anchor="middle" x="235" y="-14.3" font-family="Times,serif" font-size="14.00">1</text>
</g>
<!-- 0&#45;&gt;1 -->
<g id="edge3" class="edge">
<title>0&#45;&gt;1</title>
<path fill="none" stroke="black" d="M34.13,-68.64C52.3,-58.98 83.97,-43.34 113,-35 144.43,-25.96 181.9,-21.65 206.72,-19.64"/>
<polygon fill="black" stroke="black" points="207.14,-23.12 216.85,-18.89 206.62,-16.14 207.14,-23.12"/>
<text text-anchor="middle" x="131" y="-38.8" font-family="Times,serif" font-size="14.00">7/7</text>
</g>
<!-- 4 -->
<g id="node5" class="node">
<title>4</title>
<ellipse fill="none" stroke="black" cx="341.5" cy="-71" rx="18" ry="18"/>
<text text-anchor="middle" x="341.5" y="-67.3" font-family="Times,serif" font-size="14.00">4</text>
</g>
<!-- 2&#45;&gt;4 -->
<g id="edge4" class="edge">
<title>2&#45;&gt;4</title>
<path fill="none" stroke="black" d="M251.42,-119.59C268.57,-110.23 296.5,-95 316.52,-84.08"/>
<polygon fill="black" stroke="black" points="318.25,-87.12 325.36,-79.26 314.9,-80.98 318.25,-87.12"/>
<text text-anchor="middle" x="287" y="-110.8" font-family="Times,serif" font-size="14.00">9/12</text>
</g>
<!-- 5&#45;&gt;2 -->
<g id="edge6" class="edge">
<title>5&#45;&gt;2</title>
<path fill="none" stroke="black" d="M147.49,-84.75C163.99,-92.99 190.32,-106.16 209.61,-115.8"/>
<polygon fill="black" stroke="black" points="208.19,-119.01 218.7,-120.35 211.32,-112.75 208.19,-119.01"/>
<text text-anchor="middle" x="183" y="-113.8" font-family="Times,serif" font-size="14.00">1/2</text>
</g>
<!-- 5&#45;&gt;1 -->
<g id="edge7" class="edge">
<title>5&#45;&gt;1</title>
<path fill="none" stroke="black" d="M144.65,-65.09C151.04,-59.46 159.09,-52.92 167,-48 179.89,-39.98 195.3,-32.93 208.09,-27.68"/>
<polygon fill="black" stroke="black" points="209.68,-30.81 217.68,-23.87 207.09,-24.31 209.68,-30.81"/>
<text text-anchor="middle" x="183" y="-51.8" font-family="Times,serif" font-size="14.00">4/11</text>
</g>
<!-- 5&#45;&gt;4 -->
<g id="edge5" class="edge">
<title>5&#45;&gt;4</title>
<path fill="none" stroke="black" d="M149.06,-76.51C185.2,-75.47 269.69,-73.04 313.33,-71.78"/>
<polygon fill="black" stroke="black" points="313.6,-75.28 323.49,-71.49 313.4,-68.28 313.6,-75.28"/>
<text text-anchor="middle" x="235" y="-77.8" font-family="Times,serif" font-size="14.00">5/5</text>
</g>
<!-- 1&#45;&gt;4 -->
<g id="edge8" class="edge">
<title>1&#45;&gt;4</title>
<path fill="none" stroke="black" d="M251.98,-24.47C265.73,-30.19 285.98,-39.02 303,-48 307.77,-50.52 312.77,-53.4 317.5,-56.25"/>
<polygon fill="black" stroke="black" points="315.8,-59.32 326.15,-61.6 319.48,-53.36 315.8,-59.32"/>
<text text-anchor="middle" x="287" y="-51.8" font-family="Times,serif" font-size="14.00">1/1</text>
</g>
<!-- 3 -->
<g id="node6" class="node">
<title>3</title>
<ellipse fill="none" stroke="black" cx="457" cy="-30" rx="18" ry="18"/>
<text text-anchor="middle" x="457" y="-26.3" font-family="Times,serif" font-size="14.00">3</text>
</g>
<!-- 1&#45;&gt;3 -->
<g id="edge9" class="edge">
<title>1&#45;&gt;3</title>
<path fill="none" stroke="black" d="M253.26,-18.94C291.34,-21.02 382.77,-26.01 428.7,-28.51"/>
<polygon fill="black" stroke="black" points="428.64,-32.01 438.82,-29.06 429.02,-25.02 428.64,-32.01"/>
<text text-anchor="middle" x="341.5" y="-28.8" font-family="Times,serif" font-size="14.00">11/21</text>
</g>
<!-- 4&#45;&gt;3 -->
<g id="edge10" class="edge">
<title>4&#45;&gt;3</title>
<path fill="none" stroke="black" d="M358.76,-65.13C377.39,-58.4 408.16,-47.28 430.09,-39.36"/>
<polygon fill="black" stroke="black" points="431.55,-42.55 439.77,-35.86 429.17,-35.97 431.55,-42.55"/>
<text text-anchor="middle" x="400.5" y="-59.8" font-family="Times,serif" font-size="14.00">14/14</text>
</g>
</g>
</svg>
