<?xml version="1.0" encoding="UTF-8" standalone="no"?>
<!DOCTYPE svg PUBLIC "-//W3C//DTD SVG 1.1//EN"
 "http://www.w3.org/Graphics/SVG/1.1/DTD/svg11.dtd">
<!-- Generated by graphviz version 2.43.20190912.0211 (20190912.0211)
 -->
<!-- Title: finite_state_machine Pages: 1 -->
<svg width="329pt" height="148pt"
 viewBox="0.00 0.00 329.00 148.00" xmlns="http://www.w3.org/2000/svg" xmlns:xlink="http://www.w3.org/1999/xlink">
<g id="graph0" class="graph" transform="scale(1 1) rotate(0) translate(4 144)">
<title>finite_state_machine</title>
<polygon fill="white" stroke="transparent" points="-4,4 -4,-144 325,-144 325,4 -4,4"/>
<!-- 4 -->
<g id="node1" class="node">
<title>4</title>
<ellipse fill="none" stroke="black" cx="18" cy="-102" rx="18" ry="18"/>
<text text-anchor="middle" x="18" y="-98.3" font-family="Times,serif" font-size="14.00">4</text>
</g>
<!-- 1 -->
<g id="node2" class="node">
<title>1</title>
<ellipse fill="none" stroke="black" cx="113" cy="-52" rx="18" ry="18"/>
<text text-anchor="middle" x="113" y="-48.3" font-family="Times,serif" font-size="14.00">1</text>
</g>
<!-- 4&#45;&gt;1 -->
<g id="edge1" class="edge">
<title>4&#45;&gt;1</title>
<path fill="none" stroke="black" d="M31.5,-89.84C37.85,-84.15 45.92,-77.62 54,-73 63.83,-67.38 75.44,-62.82 85.67,-59.4"/>
<polygon fill="black" stroke="black" points="86.84,-62.7 95.34,-56.37 84.75,-56.02 86.84,-62.7"/>
<text text-anchor="middle" x="65.5" y="-76.8" font-family="Times,serif" font-size="14.00">0/0</text>
</g>
<!-- 5 -->
<g id="node3" class="node">
<title>5</title>
<ellipse fill="none" stroke="black" cx="303" cy="-114" rx="18" ry="18"/>
<text text-anchor="middle" x="303" y="-110.3" font-family="Times,serif" font-size="14.00">5</text>
</g>
<!-- 4&#45;&gt;5 -->
<g id="edge2" class="edge">
<title>4&#45;&gt;5</title>
<path fill="none" stroke="black" d="M34.66,-109.66C40.57,-112.18 47.46,-114.67 54,-116 132.9,-132.06 228.87,-123.59 274.86,-117.86"/>
<polygon fill="black" stroke="black" points="275.46,-121.31 284.93,-116.54 274.56,-114.37 275.46,-121.31"/>
<text text-anchor="middle" x="160.5" y="-128.8" font-family="Times,serif" font-size="14.00">0/0</text>
</g>
<!-- 2 -->
<g id="node4" class="node">
<title>2</title>
<ellipse fill="none" stroke="black" cx="208" cy="-52" rx="18" ry="18"/>
<text text-anchor="middle" x="208" y="-48.3" font-family="Times,serif" font-size="14.00">2</text>
</g>
<!-- 1&#45;&gt;2 -->
<g id="edge8" class="edge">
<title>1&#45;&gt;2</title>
<path fill="none" stroke="black" d="M131.06,-52C144.61,-52 163.82,-52 179.53,-52"/>
<polygon fill="black" stroke="black" points="179.74,-55.5 189.74,-52 179.74,-48.5 179.74,-55.5"/>
<text text-anchor="middle" x="160.5" y="-55.8" font-family="Times,serif" font-size="14.00">0/0</text>
</g>
<!-- 2&#45;&gt;5 -->
<g id="edge4" class="edge">
<title>2&#45;&gt;5</title>
<path fill="none" stroke="black" d="M223.53,-61.69C238.41,-71.61 261.75,-87.17 279.11,-98.74"/>
<polygon fill="black" stroke="black" points="277.31,-101.75 287.57,-104.38 281.19,-95.92 277.31,-101.75"/>
<text text-anchor="middle" x="255.5" y="-93.8" font-family="Times,serif" font-size="14.00">0/0</text>
</g>
<!-- 3 -->
<g id="node5" class="node">
<title>3</title>
<ellipse fill="none" stroke="black" cx="303" cy="-34" rx="18" ry="18"/>
<text text-anchor="middle" x="303" y="-30.3" font-family="Times,serif" font-size="14.00">3</text>
</g>
<!-- 2&#45;&gt;3 -->
<g id="edge3" class="edge">
<title>2&#45;&gt;3</title>
<path fill="none" stroke="black" d="M223.79,-43.05C229.84,-39.87 237.04,-36.67 244,-35 253.93,-32.63 265.08,-31.98 274.94,-32.06"/>
<polygon fill="black" stroke="black" points="274.9,-35.56 285.01,-32.38 275.13,-28.56 274.9,-35.56"/>
<text text-anchor="middle" x="255.5" y="-38.8" font-family="Times,serif" font-size="14.00">0/0</text>
</g>
<!-- 3&#45;&gt;4 -->
<g id="edge5" class="edge">
<title>3&#45;&gt;4</title>
<path fill="none" stroke="black" d="M295.98,-50.81C290.51,-63.4 281.11,-79.81 267,-88 230.2,-109.37 102.76,-106.11 46.3,-103.5"/>
<polygon fill="black" stroke="black" points="46.16,-99.99 36,-102.99 45.81,-106.98 46.16,-99.99"/>
<text text-anchor="middle" x="160.5" y="-108.8" font-family="Times,serif" font-size="14.00">0/0</text>
</g>
<!-- 0 -->
<g id="node6" class="node">
<title>0</title>
<ellipse fill="none" stroke="black" cx="18" cy="-18" rx="18" ry="18"/>
<text text-anchor="middle" x="18" y="-14.3" font-family="Times,serif" font-size="14.00">0</text>
</g>
<!-- 0&#45;&gt;1 -->
<g id="edge7" class="edge">
<title>0&#45;&gt;1</title>
<path fill="none" stroke="black" d="M35.75,-22.11C47.46,-25.18 63.39,-29.74 77,-35 80.38,-36.31 83.88,-37.81 87.3,-39.37"/>
<polygon fill="black" stroke="black" points="86.04,-42.65 96.57,-43.81 89.06,-36.34 86.04,-42.65"/>
<text text-anchor="middle" x="65.5" y="-38.8" font-family="Times,serif" font-size="14.00">0/0</text>
</g>
<!-- 0&#45;&gt;3 -->
<g id="edge6" class="edge">
<title>0&#45;&gt;3</title>
<path fill="none" stroke="black" d="M36.18,-18.35C71.67,-19.13 155.62,-21.24 226,-25 244.24,-25.98 248.86,-25.79 267,-28 269.57,-28.31 272.24,-28.69 274.91,-29.09"/>
<polygon fill="black" stroke="black" points="274.52,-32.57 284.96,-30.74 275.66,-25.67 274.52,-32.57"/>
<text text-anchor="middle" x="160.5" y="-25.8" font-family="Times,serif" font-size="14.00">0/0</text>
</g>
</g>
</svg>
