<?xml version="1.0" encoding="UTF-8" standalone="no"?>
<!DOCTYPE svg PUBLIC "-//W3C//DTD SVG 1.1//EN"
 "http://www.w3.org/Graphics/SVG/1.1/DTD/svg11.dtd">
<!-- Generated by graphviz version 2.43.20190912.0211 (20190912.0211)
 -->
<!-- Title: finite_state_machine Pages: 1 -->
<svg width="519pt" height="195pt"
 viewBox="0.00 0.00 519.00 195.00" xmlns="http://www.w3.org/2000/svg" xmlns:xlink="http://www.w3.org/1999/xlink">
<g id="graph0" class="graph" transform="scale(1 1) rotate(0) translate(4 191)">
<title>finite_state_machine</title>
<polygon fill="white" stroke="transparent" points="-4,4 -4,-191 515,-191 515,4 -4,4"/>
<!-- 4 -->
<g id="node1" class="node">
<title>4</title>
<ellipse fill="none" stroke="black" cx="208" cy="-143" rx="18" ry="18"/>
<text text-anchor="middle" x="208" y="-139.3" font-family="Times,serif" font-size="14.00">4</text>
</g>
<!-- 2 -->
<g id="node2" class="node">
<title>2</title>
<ellipse fill="none" stroke="black" cx="303" cy="-90" rx="18" ry="18"/>
<text text-anchor="middle" x="303" y="-86.3" font-family="Times,serif" font-size="14.00">2</text>
</g>
<!-- 4&#45;&gt;2 -->
<g id="edge1" class="edge">
<title>4&#45;&gt;2</title>
<path fill="none" stroke="black" d="M223.43,-133.03C229.66,-128.85 237.1,-124.04 244,-120 254.79,-113.69 267.04,-107.25 277.5,-101.96"/>
<polygon fill="black" stroke="black" points="279.12,-105.07 286.5,-97.47 275.99,-98.8 279.12,-105.07"/>
<text text-anchor="middle" x="255.5" y="-123.8" font-family="Times,serif" font-size="14.00">0/0</text>
</g>
<!-- 5 -->
<g id="node3" class="node">
<title>5</title>
<ellipse fill="none" stroke="black" cx="493" cy="-169" rx="18" ry="18"/>
<text text-anchor="middle" x="493" y="-165.3" font-family="Times,serif" font-size="14.00">5</text>
</g>
<!-- 4&#45;&gt;5 -->
<g id="edge2" class="edge">
<title>4&#45;&gt;5</title>
<path fill="none" stroke="black" d="M225.22,-148.36C231.08,-150.11 237.78,-151.88 244,-153 327.36,-168.04 349.39,-163.93 434,-168 444.01,-168.48 455.01,-168.74 464.71,-168.88"/>
<polygon fill="black" stroke="black" points="464.95,-172.38 474.99,-168.98 465.02,-165.38 464.95,-172.38"/>
<text text-anchor="middle" x="350.5" y="-168.8" font-family="Times,serif" font-size="14.00">0/0</text>
</g>
<!-- 3 -->
<g id="node5" class="node">
<title>3</title>
<ellipse fill="none" stroke="black" cx="398" cy="-118" rx="18" ry="18"/>
<text text-anchor="middle" x="398" y="-114.3" font-family="Times,serif" font-size="14.00">3</text>
</g>
<!-- 2&#45;&gt;3 -->
<g id="edge8" class="edge">
<title>2&#45;&gt;3</title>
<path fill="none" stroke="black" d="M320.63,-95.01C334.51,-99.19 354.56,-105.22 370.63,-110.06"/>
<polygon fill="black" stroke="black" points="369.93,-113.51 380.52,-113.04 371.95,-106.8 369.93,-113.51"/>
<text text-anchor="middle" x="350.5" y="-110.8" font-family="Times,serif" font-size="14.00">0/0</text>
</g>
<!-- 1 -->
<g id="node4" class="node">
<title>1</title>
<ellipse fill="none" stroke="black" cx="113" cy="-67" rx="18" ry="18"/>
<text text-anchor="middle" x="113" y="-63.3" font-family="Times,serif" font-size="14.00">1</text>
</g>
<!-- 1&#45;&gt;4 -->
<g id="edge5" class="edge">
<title>1&#45;&gt;4</title>
<path fill="none" stroke="black" d="M126.31,-79.28C132.87,-85.66 141.19,-93.46 149,-100 160.38,-109.52 173.63,-119.43 184.6,-127.33"/>
<polygon fill="black" stroke="black" points="182.64,-130.24 192.82,-133.2 186.71,-124.54 182.64,-130.24"/>
<text text-anchor="middle" x="160.5" y="-120.8" font-family="Times,serif" font-size="14.00">0/0</text>
</g>
<!-- 1&#45;&gt;2 -->
<g id="edge3" class="edge">
<title>1&#45;&gt;2</title>
<path fill="none" stroke="black" d="M131.02,-69.08C163.72,-73.08 235.59,-81.88 274.94,-86.69"/>
<polygon fill="black" stroke="black" points="274.54,-90.17 284.89,-87.91 275.39,-83.22 274.54,-90.17"/>
<text text-anchor="middle" x="208" y="-83.8" font-family="Times,serif" font-size="14.00">0/0</text>
</g>
<!-- 1&#45;&gt;3 -->
<g id="edge4" class="edge">
<title>1&#45;&gt;3</title>
<path fill="none" stroke="black" d="M130.64,-63.1C166.49,-55.46 253.29,-41.07 321,-63 342.5,-69.96 363.02,-85.54 377.31,-98.34"/>
<polygon fill="black" stroke="black" points="375.26,-101.22 384.96,-105.48 380.03,-96.1 375.26,-101.22"/>
<text text-anchor="middle" x="255.5" y="-55.8" font-family="Times,serif" font-size="14.00">0/0</text>
</g>
<!-- 3&#45;&gt;4 -->
<g id="edge9" class="edge">
<title>3&#45;&gt;4</title>
<path fill="none" stroke="black" d="M380.34,-122.22C374.56,-123.57 368.02,-124.98 362,-126 318.35,-133.39 267.12,-138.33 236.41,-140.9"/>
<polygon fill="black" stroke="black" points="235.75,-137.44 226.07,-141.74 236.32,-144.42 235.75,-137.44"/>
<text text-anchor="middle" x="303" y="-139.8" font-family="Times,serif" font-size="14.00">0/0</text>
</g>
<!-- 3&#45;&gt;5 -->
<g id="edge10" class="edge">
<title>3&#45;&gt;5</title>
<path fill="none" stroke="black" d="M414.36,-126.42C428.98,-134.44 451.22,-146.64 468.15,-155.92"/>
<polygon fill="black" stroke="black" points="466.48,-159 476.93,-160.74 469.84,-152.86 466.48,-159"/>
<text text-anchor="middle" x="445.5" y="-152.8" font-family="Times,serif" font-size="14.00">0/0</text>
</g>
<!-- 0 -->
<g id="node6" class="node">
<title>0</title>
<ellipse fill="none" stroke="black" cx="18" cy="-18" rx="18" ry="18"/>
<text text-anchor="middle" x="18" y="-14.3" font-family="Times,serif" font-size="14.00">0</text>
</g>
<!-- 0&#45;&gt;2 -->
<g id="edge7" class="edge">
<title>0&#45;&gt;2</title>
<path fill="none" stroke="black" d="M35.94,-15.84C78.02,-11.3 189.48,-4.45 267,-47 275.13,-51.46 282.09,-58.65 287.62,-65.89"/>
<polygon fill="black" stroke="black" points="284.85,-68.03 293.43,-74.24 290.59,-64.03 284.85,-68.03"/>
<text text-anchor="middle" x="160.5" y="-21.8" font-family="Times,serif" font-size="14.00">0/0</text>
</g>
<!-- 0&#45;&gt;1 -->
<g id="edge6" class="edge">
<title>0&#45;&gt;1</title>
<path fill="none" stroke="black" d="M34.36,-26.09C48.76,-33.68 70.54,-45.16 87.38,-54.03"/>
<polygon fill="black" stroke="black" points="86.14,-57.33 96.62,-58.9 89.4,-51.14 86.14,-57.33"/>
<text text-anchor="middle" x="65.5" y="-51.8" font-family="Times,serif" font-size="14.00">0/0</text>
</g>
</g>
</svg>
