<?xml version="1.0" encoding="UTF-8" standalone="no"?>
<!DOCTYPE svg PUBLIC "-//W3C//DTD SVG 1.1//EN"
 "http://www.w3.org/Graphics/SVG/1.1/DTD/svg11.dtd">
<!-- Generated by graphviz version 2.40.1 (20161225.0304)
 -->
<!-- Title: finite_state_machine Pages: 1 -->
<svg width="314pt" height="86pt"
 viewBox="0.00 0.00 314.00 86.00" xmlns="http://www.w3.org/2000/svg" xmlns:xlink="http://www.w3.org/1999/xlink">
<g id="graph0" class="graph" transform="scale(1 1) rotate(0) translate(4 82)">
<title>finite_state_machine</title>
<polygon fill="#ffffff" stroke="transparent" points="-4,4 -4,-82 310,-82 310,4 -4,4"/>
<!-- 1 -->
<g id="node1" class="node">
<title>1</title>
<ellipse fill="none" stroke="#000000" cx="108" cy="-60" rx="18" ry="18"/>
<text text-anchor="middle" x="108" y="-56.3" font-family="Times,serif" font-size="14.00" fill="#000000">1</text>
</g>
<!-- 3 -->
<g id="node2" class="node">
<title>3</title>
<ellipse fill="none" stroke="#000000" cx="288" cy="-45" rx="18" ry="18"/>
<text text-anchor="middle" x="288" y="-41.3" font-family="Times,serif" font-size="14.00" fill="#000000">3</text>
</g>
<!-- 1&#45;&gt;3 -->
<g id="edge1" class="edge">
<title>1&#45;&gt;3</title>
<path fill="none" stroke="#000000" d="M126.2648,-59.8472C153.6825,-59.4233 207.0586,-57.8439 252,-52 254.6893,-51.6503 257.4803,-51.2232 260.2647,-50.7541"/>
<polygon fill="#000000" stroke="#000000" points="260.9279,-54.1909 270.1269,-48.9346 259.6578,-47.3071 260.9279,-54.1909"/>
<text text-anchor="middle" x="198" y="-61.8" font-family="Times,serif" font-size="14.00" fill="#000000">0/1</text>
</g>
<!-- 2 -->
<g id="node3" class="node">
<title>2</title>
<ellipse fill="none" stroke="#000000" cx="198" cy="-18" rx="18" ry="18"/>
<text text-anchor="middle" x="198" y="-14.3" font-family="Times,serif" font-size="14.00" fill="#000000">2</text>
</g>
<!-- 1&#45;&gt;2 -->
<g id="edge2" class="edge">
<title>1&#45;&gt;2</title>
<path fill="none" stroke="#000000" d="M124.4757,-52.1877C130.6013,-49.2915 137.6136,-45.9862 144,-43 153.2093,-38.6939 163.3177,-34.0042 172.2732,-29.8622"/>
<polygon fill="#000000" stroke="#000000" points="173.8311,-32.998 181.4412,-25.6266 170.8953,-26.6433 173.8311,-32.998"/>
<text text-anchor="middle" x="153" y="-46.8" font-family="Times,serif" font-size="14.00" fill="#000000">0/3</text>
</g>
<!-- 2&#45;&gt;3 -->
<g id="edge3" class="edge">
<title>2&#45;&gt;3</title>
<path fill="none" stroke="#000000" d="M215.3529,-23.2059C228.3017,-27.0905 246.2369,-32.4711 261.0466,-36.914"/>
<polygon fill="#000000" stroke="#000000" points="260.1164,-40.289 270.7004,-39.8101 262.1278,-33.5842 260.1164,-40.289"/>
<text text-anchor="middle" x="243" y="-36.8" font-family="Times,serif" font-size="14.00" fill="#000000">0/5</text>
</g>
<!-- 0 -->
<g id="node4" class="node">
<title>0</title>
<ellipse fill="none" stroke="#000000" cx="18" cy="-30" rx="18" ry="18"/>
<text text-anchor="middle" x="18" y="-26.3" font-family="Times,serif" font-size="14.00" fill="#000000">0</text>
</g>
<!-- 0&#45;&gt;1 -->
<g id="edge5" class="edge">
<title>0&#45;&gt;1</title>
<path fill="none" stroke="#000000" d="M35.3529,-35.7843C48.3017,-40.1006 66.2369,-46.079 81.0466,-51.0155"/>
<polygon fill="#000000" stroke="#000000" points="80.1067,-54.3915 90.7004,-54.2335 82.3204,-47.7507 80.1067,-54.3915"/>
<text text-anchor="middle" x="63" y="-50.8" font-family="Times,serif" font-size="14.00" fill="#000000">0/2</text>
</g>
<!-- 0&#45;&gt;2 -->
<g id="edge4" class="edge">
<title>0&#45;&gt;2</title>
<path fill="none" stroke="#000000" d="M35.6512,-26.2208C50.1648,-23.316 71.3087,-19.5469 90,-18 117.0153,-15.7641 147.9621,-16.0537 169.7838,-16.7293"/>
<polygon fill="#000000" stroke="#000000" points="169.881,-20.2349 179.9997,-17.0944 170.1311,-13.2393 169.881,-20.2349"/>
<text text-anchor="middle" x="108" y="-21.8" font-family="Times,serif" font-size="14.00" fill="#000000">0/4</text>
</g>
</g>
</svg>
