<?xml version="1.0" encoding="UTF-8" standalone="no"?>
<!DOCTYPE svg PUBLIC "-//W3C//DTD SVG 1.1//EN"
 "http://www.w3.org/Graphics/SVG/1.1/DTD/svg11.dtd">
<!-- Generated by graphviz version 2.40.1 (20161225.0304)
 -->
<!-- Title: finite_state_machine Pages: 1 -->
<svg width="584pt" height="289pt"
 viewBox="0.00 0.00 584.00 289.00" xmlns="http://www.w3.org/2000/svg" xmlns:xlink="http://www.w3.org/1999/xlink">
<g id="graph0" class="graph" transform="scale(1 1) rotate(0) translate(4 285)">
<title>finite_state_machine</title>
<polygon fill="#ffffff" stroke="transparent" points="-4,4 -4,-285 580,-285 580,4 -4,4"/>
<!-- 4 -->
<g id="node1" class="node">
<title>4</title>
<ellipse fill="none" stroke="#000000" cx="198" cy="-68" rx="18" ry="18"/>
<text text-anchor="middle" x="198" y="-64.3" font-family="Times,serif" font-size="14.00" fill="#000000">4</text>
</g>
<!-- 2 -->
<g id="node2" class="node">
<title>2</title>
<ellipse fill="none" stroke="#000000" cx="288" cy="-185" rx="18" ry="18"/>
<text text-anchor="middle" x="288" y="-181.3" font-family="Times,serif" font-size="14.00" fill="#000000">2</text>
</g>
<!-- 4&#45;&gt;2 -->
<g id="edge1" class="edge">
<title>4&#45;&gt;2</title>
<path fill="none" stroke="#000000" d="M214.9937,-75.3654C226.698,-81.1635 241.9012,-90.2284 252,-102 265.8496,-118.1437 275.1205,-140.4337 280.7814,-157.8498"/>
<polygon fill="#000000" stroke="#000000" points="277.4452,-158.9094 283.7045,-167.4576 284.1422,-156.8718 277.4452,-158.9094"/>
<text text-anchor="middle" x="243" y="-105.8" font-family="Times,serif" font-size="14.00" fill="#000000">0/1</text>
</g>
<!-- 7 -->
<g id="node3" class="node">
<title>7</title>
<ellipse fill="none" stroke="#000000" cx="558" cy="-94" rx="18" ry="18"/>
<text text-anchor="middle" x="558" y="-90.3" font-family="Times,serif" font-size="14.00" fill="#000000">7</text>
</g>
<!-- 4&#45;&gt;7 -->
<g id="edge2" class="edge">
<title>4&#45;&gt;7</title>
<path fill="none" stroke="#000000" d="M208.2657,-52.9086C223.2467,-32.8752 253.1414,0 288,0 288,0 288,0 468,0 505.7938,0 532.6236,-40.1349 546.6811,-67.9542"/>
<polygon fill="#000000" stroke="#000000" points="543.6342,-69.6949 551.1178,-77.1947 549.9446,-66.665 543.6342,-69.6949"/>
<text text-anchor="middle" x="378" y="-3.8" font-family="Times,serif" font-size="14.00" fill="#000000">0/1</text>
</g>
<!-- 5 -->
<g id="node4" class="node">
<title>5</title>
<ellipse fill="none" stroke="#000000" cx="468" cy="-129" rx="18" ry="18"/>
<text text-anchor="middle" x="468" y="-125.3" font-family="Times,serif" font-size="14.00" fill="#000000">5</text>
</g>
<!-- 4&#45;&gt;5 -->
<g id="edge3" class="edge">
<title>4&#45;&gt;5</title>
<path fill="none" stroke="#000000" d="M216.0633,-69.1476C226.5843,-69.9468 240.0843,-71.1968 252,-73 321.4157,-83.5048 400.7965,-107.2003 441.2471,-120.1465"/>
<polygon fill="#000000" stroke="#000000" points="440.3015,-123.5192 450.8934,-123.2672 442.4562,-116.859 440.3015,-123.5192"/>
<text text-anchor="middle" x="333" y="-94.8" font-family="Times,serif" font-size="14.00" fill="#000000">0/1</text>
</g>
<!-- 3 -->
<g id="node8" class="node">
<title>3</title>
<ellipse fill="none" stroke="#000000" cx="378" cy="-136" rx="18" ry="18"/>
<text text-anchor="middle" x="378" y="-132.3" font-family="Times,serif" font-size="14.00" fill="#000000">3</text>
</g>
<!-- 2&#45;&gt;3 -->
<g id="edge16" class="edge">
<title>2&#45;&gt;3</title>
<path fill="none" stroke="#000000" d="M304.0902,-176.2398C317.6563,-168.8538 337.3014,-158.1581 352.9285,-149.65"/>
<polygon fill="#000000" stroke="#000000" points="354.94,-152.5401 362.0491,-144.6844 351.5928,-146.3922 354.94,-152.5401"/>
<text text-anchor="middle" x="333" y="-167.8" font-family="Times,serif" font-size="14.00" fill="#000000">0/1</text>
</g>
<!-- 5&#45;&gt;7 -->
<g id="edge12" class="edge">
<title>5&#45;&gt;7</title>
<path fill="none" stroke="#000000" d="M484.9283,-122.4168C498.1276,-117.2837 516.6918,-110.0643 531.8053,-104.1868"/>
<polygon fill="#000000" stroke="#000000" points="533.0961,-107.4403 541.1476,-100.5537 530.559,-100.9162 533.0961,-107.4403"/>
<text text-anchor="middle" x="513" y="-117.8" font-family="Times,serif" font-size="14.00" fill="#000000">0/1</text>
</g>
<!-- 0 -->
<g id="node5" class="node">
<title>0</title>
<ellipse fill="none" stroke="#000000" cx="18" cy="-228" rx="18" ry="18"/>
<text text-anchor="middle" x="18" y="-224.3" font-family="Times,serif" font-size="14.00" fill="#000000">0</text>
</g>
<!-- 0&#45;&gt;2 -->
<g id="edge6" class="edge">
<title>0&#45;&gt;2</title>
<path fill="none" stroke="#000000" d="M35.9791,-225.7487C75.2992,-220.7292 171.8323,-207.884 252,-193 254.7383,-192.4916 257.5854,-191.925 260.4253,-191.3346"/>
<polygon fill="#000000" stroke="#000000" points="261.4423,-194.6955 270.4724,-189.1539 259.9575,-187.8548 261.4423,-194.6955"/>
<text text-anchor="middle" x="153" y="-213.8" font-family="Times,serif" font-size="14.00" fill="#000000">0/1</text>
</g>
<!-- 6 -->
<g id="node6" class="node">
<title>6</title>
<ellipse fill="none" stroke="#000000" cx="468" cy="-183" rx="18" ry="18"/>
<text text-anchor="middle" x="468" y="-179.3" font-family="Times,serif" font-size="14.00" fill="#000000">6</text>
</g>
<!-- 0&#45;&gt;6 -->
<g id="edge4" class="edge">
<title>0&#45;&gt;6</title>
<path fill="none" stroke="#000000" d="M32.7998,-238.5851C50.006,-249.829 79.6757,-266 108,-266 108,-266 108,-266 378,-266 412.4906,-266 439.4171,-232.6518 454.5109,-208.232"/>
<polygon fill="#000000" stroke="#000000" points="457.6538,-209.792 459.7075,-199.3981 451.6203,-206.2428 457.6538,-209.792"/>
<text text-anchor="middle" x="243" y="-269.8" font-family="Times,serif" font-size="14.00" fill="#000000">0/1</text>
</g>
<!-- 1 -->
<g id="node7" class="node">
<title>1</title>
<ellipse fill="none" stroke="#000000" cx="108" cy="-161" rx="18" ry="18"/>
<text text-anchor="middle" x="108" y="-157.3" font-family="Times,serif" font-size="14.00" fill="#000000">1</text>
</g>
<!-- 0&#45;&gt;1 -->
<g id="edge5" class="edge">
<title>0&#45;&gt;1</title>
<path fill="none" stroke="#000000" d="M31.8524,-216.4931C38.4756,-211.0815 46.5643,-204.6019 54,-199 63.8141,-191.6062 74.8766,-183.7422 84.4216,-177.098"/>
<polygon fill="#000000" stroke="#000000" points="86.4462,-179.9533 92.6814,-171.3875 82.4654,-174.1953 86.4462,-179.9533"/>
<text text-anchor="middle" x="63" y="-202.8" font-family="Times,serif" font-size="14.00" fill="#000000">0/1</text>
</g>
<!-- 6&#45;&gt;7 -->
<g id="edge11" class="edge">
<title>6&#45;&gt;7</title>
<path fill="none" stroke="#000000" d="M481.5896,-170.9564C492.6786,-161.0019 508.6393,-146.3813 522,-133 527.6398,-127.3515 533.5849,-121.0602 538.9828,-115.2078"/>
<polygon fill="#000000" stroke="#000000" points="541.769,-117.3469 545.9245,-107.6009 536.5984,-112.6283 541.769,-117.3469"/>
<text text-anchor="middle" x="513" y="-152.8" font-family="Times,serif" font-size="14.00" fill="#000000">0/1</text>
</g>
<!-- 1&#45;&gt;4 -->
<g id="edge15" class="edge">
<title>1&#45;&gt;4</title>
<path fill="none" stroke="#000000" d="M117.3122,-145.3775C124.0181,-134.7929 133.6724,-120.818 144,-110 153.1341,-100.4321 164.5413,-91.2399 174.515,-83.9073"/>
<polygon fill="#000000" stroke="#000000" points="176.7127,-86.6388 182.8175,-77.9796 172.6452,-80.9418 176.7127,-86.6388"/>
<text text-anchor="middle" x="153" y="-113.8" font-family="Times,serif" font-size="14.00" fill="#000000">0/1</text>
</g>
<!-- 1&#45;&gt;2 -->
<g id="edge13" class="edge">
<title>1&#45;&gt;2</title>
<path fill="none" stroke="#000000" d="M125.9172,-163.389C157.3197,-167.576 222.5106,-176.2681 259.9414,-181.2588"/>
<polygon fill="#000000" stroke="#000000" points="259.7804,-184.7683 270.1553,-182.6207 260.7056,-177.8297 259.7804,-184.7683"/>
<text text-anchor="middle" x="198" y="-178.8" font-family="Times,serif" font-size="14.00" fill="#000000">0/1</text>
</g>
<!-- 1&#45;&gt;3 -->
<g id="edge14" class="edge">
<title>1&#45;&gt;3</title>
<path fill="none" stroke="#000000" d="M126.1347,-159.3209C172.2471,-155.0512 294.2463,-143.755 349.7684,-138.614"/>
<polygon fill="#000000" stroke="#000000" points="350.3095,-142.079 359.9442,-137.6718 349.6641,-135.1088 350.3095,-142.079"/>
<text text-anchor="middle" x="243" y="-152.8" font-family="Times,serif" font-size="14.00" fill="#000000">0/1</text>
</g>
<!-- 3&#45;&gt;4 -->
<g id="edge9" class="edge">
<title>3&#45;&gt;4</title>
<path fill="none" stroke="#000000" d="M361.5499,-128.2854C337.7394,-117.3027 292.124,-96.9481 252,-83 243.506,-80.0473 234.1068,-77.2715 225.5631,-74.9297"/>
<polygon fill="#000000" stroke="#000000" points="226.2477,-71.4903 215.6843,-72.3058 224.4507,-78.2557 226.2477,-71.4903"/>
<text text-anchor="middle" x="288" y="-106.8" font-family="Times,serif" font-size="14.00" fill="#000000">0/1</text>
</g>
<!-- 3&#45;&gt;7 -->
<g id="edge8" class="edge">
<title>3&#45;&gt;7</title>
<path fill="none" stroke="#000000" d="M391.0273,-123.5003C404.5347,-111.4814 426.8796,-94.121 450,-87 476.5082,-78.8355 508.3568,-82.4147 530.5724,-86.9085"/>
<polygon fill="#000000" stroke="#000000" points="529.8231,-90.3273 540.3429,-89.0694 531.3347,-83.4925 529.8231,-90.3273"/>
<text text-anchor="middle" x="468" y="-90.8" font-family="Times,serif" font-size="14.00" fill="#000000">0/1</text>
</g>
<!-- 3&#45;&gt;5 -->
<g id="edge10" class="edge">
<title>3&#45;&gt;5</title>
<path fill="none" stroke="#000000" d="M396.2128,-134.5834C408.6557,-133.6157 425.3947,-132.3137 439.5789,-131.2105"/>
<polygon fill="#000000" stroke="#000000" points="440.1158,-134.6794 449.8142,-130.4144 439.5729,-127.7005 440.1158,-134.6794"/>
<text text-anchor="middle" x="423" y="-136.8" font-family="Times,serif" font-size="14.00" fill="#000000">0/1</text>
</g>
<!-- 3&#45;&gt;6 -->
<g id="edge7" class="edge">
<title>3&#45;&gt;6</title>
<path fill="none" stroke="#000000" d="M394.0902,-144.4027C407.5726,-151.4435 427.0591,-161.6198 442.6387,-169.7558"/>
<polygon fill="#000000" stroke="#000000" points="441.2614,-172.985 451.7457,-174.5116 444.5017,-166.7801 441.2614,-172.985"/>
<text text-anchor="middle" x="423" y="-166.8" font-family="Times,serif" font-size="14.00" fill="#000000">0/1</text>
</g>
</g>
</svg>
