<?xml version="1.0" encoding="UTF-8" standalone="no"?>
<!DOCTYPE svg PUBLIC "-//W3C//DTD SVG 1.1//EN"
 "http://www.w3.org/Graphics/SVG/1.1/DTD/svg11.dtd">
<!-- Generated by graphviz version 2.43.20190912.0211 (20190912.0211)
 -->
<!-- Title: finite_state_machine Pages: 1 -->
<svg width="722pt" height="289pt"
 viewBox="0.00 0.00 722.00 289.00" xmlns="http://www.w3.org/2000/svg" xmlns:xlink="http://www.w3.org/1999/xlink">
<g id="graph0" class="graph" transform="scale(1 1) rotate(0) translate(4 285)">
<title>finite_state_machine</title>
<polygon fill="white" stroke="transparent" points="-4,4 -4,-285 718,-285 718,4 -4,4"/>
<!-- 4 -->
<g id="node1" class="node">
<title>4</title>
<ellipse fill="none" stroke="black" cx="244" cy="-68" rx="18" ry="18"/>
<text text-anchor="middle" x="244" y="-64.3" font-family="Times,serif" font-size="14.00">4</text>
</g>
<!-- 2 -->
<g id="node2" class="node">
<title>2</title>
<ellipse fill="none" stroke="black" cx="357" cy="-185" rx="18" ry="18"/>
<text text-anchor="middle" x="357" y="-181.3" font-family="Times,serif" font-size="14.00">2</text>
</g>
<!-- 4&#45;&gt;2 -->
<g id="edge1" class="edge">
<title>4&#45;&gt;2</title>
<path fill="none" stroke="black" d="M261.37,-73.71C280.99,-80.82 312.31,-93.12 321,-102 335.9,-117.23 344.86,-139.76 349.97,-157.51"/>
<polygon fill="black" stroke="black" points="346.62,-158.53 352.56,-167.31 353.39,-156.75 346.62,-158.53"/>
<text text-anchor="middle" x="300.5" y="-105.8" font-family="Times,serif" font-size="14.00">2/2</text>
</g>
<!-- 7 -->
<g id="node3" class="node">
<title>7</title>
<ellipse fill="none" stroke="black" cx="696" cy="-94" rx="18" ry="18"/>
<text text-anchor="middle" x="696" y="-90.3" font-family="Times,serif" font-size="14.00">7</text>
</g>
<!-- 4&#45;&gt;7 -->
<g id="edge2" class="edge">
<title>4&#45;&gt;7</title>
<path fill="none" stroke="black" d="M256.53,-54.89C275.27,-35.13 314.42,0 356,0 356,0 356,0 584,0 627.29,0 662.38,-42.16 680.84,-70.01"/>
<polygon fill="black" stroke="black" points="677.91,-71.93 686.24,-78.48 683.81,-68.16 677.91,-71.93"/>
<text text-anchor="middle" x="470" y="-3.8" font-family="Times,serif" font-size="14.00">7/7</text>
</g>
<!-- 5 -->
<g id="node4" class="node">
<title>5</title>
<ellipse fill="none" stroke="black" cx="583" cy="-129" rx="18" ry="18"/>
<text text-anchor="middle" x="583" y="-125.3" font-family="Times,serif" font-size="14.00">5</text>
</g>
<!-- 4&#45;&gt;5 -->
<g id="edge3" class="edge">
<title>4&#45;&gt;5</title>
<path fill="none" stroke="black" d="M262.24,-67.56C277.66,-67.32 300.88,-67.36 321,-69 371.62,-73.12 384.39,-75.11 434,-86 477.29,-95.5 526.53,-110.71 555.89,-120.26"/>
<polygon fill="black" stroke="black" points="555.17,-123.71 565.76,-123.51 557.35,-117.06 555.17,-123.71"/>
<text text-anchor="middle" x="413.5" y="-89.8" font-family="Times,serif" font-size="14.00">1/1</text>
</g>
<!-- 3 -->
<g id="node8" class="node">
<title>3</title>
<ellipse fill="none" stroke="black" cx="470" cy="-136" rx="18" ry="18"/>
<text text-anchor="middle" x="470" y="-132.3" font-family="Times,serif" font-size="14.00">3</text>
</g>
<!-- 2&#45;&gt;3 -->
<g id="edge16" class="edge">
<title>2&#45;&gt;3</title>
<path fill="none" stroke="black" d="M374.12,-178.51C389.58,-172.21 413.53,-162.27 434,-153 437.3,-151.51 440.75,-149.89 444.15,-148.27"/>
<polygon fill="black" stroke="black" points="445.93,-151.3 453.4,-143.8 442.88,-145 445.93,-151.3"/>
<text text-anchor="middle" x="413.5" y="-172.8" font-family="Times,serif" font-size="14.00">11/26</text>
</g>
<!-- 5&#45;&gt;7 -->
<g id="edge12" class="edge">
<title>5&#45;&gt;7</title>
<path fill="none" stroke="black" d="M600.38,-123.84C618.41,-118.15 647.66,-108.93 668.87,-102.24"/>
<polygon fill="black" stroke="black" points="670.07,-105.53 678.55,-99.19 667.96,-98.85 670.07,-105.53"/>
<text text-anchor="middle" x="639.5" y="-120.8" font-family="Times,serif" font-size="14.00">7/7</text>
</g>
<!-- 0 -->
<g id="node5" class="node">
<title>0</title>
<ellipse fill="none" stroke="black" cx="18" cy="-228" rx="18" ry="18"/>
<text text-anchor="middle" x="18" y="-224.3" font-family="Times,serif" font-size="14.00">0</text>
</g>
<!-- 0&#45;&gt;2 -->
<g id="edge6" class="edge">
<title>0&#45;&gt;2</title>
<path fill="none" stroke="black" d="M36.12,-226.68C82.32,-222.96 213.32,-211.49 321,-193 323.73,-192.53 326.56,-191.98 329.38,-191.4"/>
<polygon fill="black" stroke="black" points="330.33,-194.78 339.34,-189.2 328.82,-187.94 330.33,-194.78"/>
<text text-anchor="middle" x="187.5" y="-216.8" font-family="Times,serif" font-size="14.00">1/1</text>
</g>
<!-- 6 -->
<g id="node6" class="node">
<title>6</title>
<ellipse fill="none" stroke="black" cx="583" cy="-183" rx="18" ry="18"/>
<text text-anchor="middle" x="583" y="-179.3" font-family="Times,serif" font-size="14.00">6</text>
</g>
<!-- 0&#45;&gt;6 -->
<g id="edge4" class="edge">
<title>0&#45;&gt;6</title>
<path fill="none" stroke="black" d="M33.89,-236.62C54.69,-247.83 93.95,-266 130,-266 130,-266 130,-266 471,-266 511.47,-266 546.67,-230.18 566.06,-205.6"/>
<polygon fill="black" stroke="black" points="568.98,-207.54 572.24,-197.46 563.41,-203.31 568.98,-207.54"/>
<text text-anchor="middle" x="300.5" y="-269.8" font-family="Times,serif" font-size="14.00">2/2</text>
</g>
<!-- 1 -->
<g id="node7" class="node">
<title>1</title>
<ellipse fill="none" stroke="black" cx="131" cy="-161" rx="18" ry="18"/>
<text text-anchor="middle" x="131" y="-157.3" font-family="Times,serif" font-size="14.00">1</text>
</g>
<!-- 0&#45;&gt;1 -->
<g id="edge5" class="edge">
<title>0&#45;&gt;1</title>
<path fill="none" stroke="black" d="M31.75,-216.24C38.15,-210.64 46.2,-204.09 54,-199 70.12,-188.49 89.54,-178.83 104.72,-171.87"/>
<polygon fill="black" stroke="black" points="106.3,-175 114,-167.71 103.44,-168.61 106.3,-175"/>
<text text-anchor="middle" x="74.5" y="-202.8" font-family="Times,serif" font-size="14.00">28/38</text>
</g>
<!-- 6&#45;&gt;7 -->
<g id="edge11" class="edge">
<title>6&#45;&gt;7</title>
<path fill="none" stroke="black" d="M599.54,-175.31C615.63,-166.92 641.02,-152.48 660,-136 666.65,-130.22 673.08,-123.12 678.57,-116.4"/>
<polygon fill="black" stroke="black" points="681.56,-118.26 684.98,-108.23 676.05,-113.94 681.56,-118.26"/>
<text text-anchor="middle" x="639.5" y="-166.8" font-family="Times,serif" font-size="14.00">16/27</text>
</g>
<!-- 1&#45;&gt;4 -->
<g id="edge15" class="edge">
<title>1&#45;&gt;4</title>
<path fill="none" stroke="black" d="M140.19,-145.3C146.44,-134.41 155.87,-120.11 167,-110 181.88,-96.49 201.88,-85.66 217.62,-78.38"/>
<polygon fill="black" stroke="black" points="219.07,-81.57 226.79,-74.32 216.23,-75.17 219.07,-81.57"/>
<text text-anchor="middle" x="187.5" y="-113.8" font-family="Times,serif" font-size="14.00">10/13</text>
</g>
<!-- 1&#45;&gt;2 -->
<g id="edge13" class="edge">
<title>1&#45;&gt;2</title>
<path fill="none" stroke="black" d="M149.2,-162.84C187.98,-167 282.45,-177.12 329.07,-182.11"/>
<polygon fill="black" stroke="black" points="328.73,-185.6 339.04,-183.18 329.47,-178.64 328.73,-185.6"/>
<text text-anchor="middle" x="244" y="-177.8" font-family="Times,serif" font-size="14.00">8/8</text>
</g>
<!-- 1&#45;&gt;3 -->
<g id="edge14" class="edge">
<title>1&#45;&gt;3</title>
<path fill="none" stroke="black" d="M149.18,-159.73C203.94,-155.66 374.73,-142.99 441.68,-138.03"/>
<polygon fill="black" stroke="black" points="442.15,-141.5 451.86,-137.27 441.63,-134.52 442.15,-141.5"/>
<text text-anchor="middle" x="300.5" y="-152.8" font-family="Times,serif" font-size="14.00">10/10</text>
</g>
<!-- 3&#45;&gt;4 -->
<g id="edge9" class="edge">
<title>3&#45;&gt;4</title>
<path fill="none" stroke="black" d="M453.3,-129.28C426.57,-118.06 370.35,-95.45 321,-82 304.96,-77.63 286.64,-74.21 272.01,-71.84"/>
<polygon fill="black" stroke="black" points="272.5,-68.38 262.09,-70.31 271.43,-75.3 272.5,-68.38"/>
<text text-anchor="middle" x="357" y="-101.8" font-family="Times,serif" font-size="14.00">0/20</text>
</g>
<!-- 3&#45;&gt;7 -->
<g id="edge8" class="edge">
<title>3&#45;&gt;7</title>
<path fill="none" stroke="black" d="M485.1,-125.86C502.76,-113.84 534.43,-94.49 565,-87 599.92,-78.44 641.64,-83.22 668.23,-88.07"/>
<polygon fill="black" stroke="black" points="667.81,-91.56 678.3,-90.04 669.15,-84.69 667.81,-91.56"/>
<text text-anchor="middle" x="583" y="-90.8" font-family="Times,serif" font-size="14.00">1/1</text>
</g>
<!-- 3&#45;&gt;5 -->
<g id="edge10" class="edge">
<title>3&#45;&gt;5</title>
<path fill="none" stroke="black" d="M488.34,-134.91C506.1,-133.79 533.96,-132.03 554.68,-130.72"/>
<polygon fill="black" stroke="black" points="555.02,-134.21 564.78,-130.09 554.58,-127.22 555.02,-134.21"/>
<text text-anchor="middle" x="526.5" y="-136.8" font-family="Times,serif" font-size="14.00">6/8</text>
</g>
<!-- 3&#45;&gt;6 -->
<g id="edge7" class="edge">
<title>3&#45;&gt;6</title>
<path fill="none" stroke="black" d="M486.62,-143.31C492.65,-146.09 499.62,-149.24 506,-152 522.69,-159.21 541.61,-166.93 556.4,-172.87"/>
<polygon fill="black" stroke="black" points="555.32,-176.2 565.91,-176.66 557.92,-169.7 555.32,-176.2"/>
<text text-anchor="middle" x="526.5" y="-171.8" font-family="Times,serif" font-size="14.00">14/24</text>
</g>
</g>
</svg>
