<?xml version="1.0" encoding="UTF-8" standalone="no"?>
<!DOCTYPE svg PUBLIC "-//W3C//DTD SVG 1.1//EN"
 "http://www.w3.org/Graphics/SVG/1.1/DTD/svg11.dtd">
<!-- Generated by graphviz version 2.40.1 (20161225.0304)
 -->
<!-- Title: finite_state_machine Pages: 1 -->
<svg width="626pt" height="289pt"
 viewBox="0.00 0.00 626.00 289.00" xmlns="http://www.w3.org/2000/svg" xmlns:xlink="http://www.w3.org/1999/xlink">
<g id="graph0" class="graph" transform="scale(1 1) rotate(0) translate(4 285)">
<title>finite_state_machine</title>
<polygon fill="#ffffff" stroke="transparent" points="-4,4 -4,-285 622,-285 622,4 -4,4"/>
<!-- 4 -->
<g id="node1" class="node">
<title>4</title>
<ellipse fill="none" stroke="#000000" cx="212" cy="-68" rx="18" ry="18"/>
<text text-anchor="middle" x="212" y="-64.3" font-family="Times,serif" font-size="14.00" fill="#000000">4</text>
</g>
<!-- 2 -->
<g id="node2" class="node">
<title>2</title>
<ellipse fill="none" stroke="#000000" cx="309" cy="-185" rx="18" ry="18"/>
<text text-anchor="middle" x="309" y="-181.3" font-family="Times,serif" font-size="14.00" fill="#000000">2</text>
</g>
<!-- 4&#45;&gt;2 -->
<g id="edge1" class="edge">
<title>4&#45;&gt;2</title>
<path fill="none" stroke="#000000" d="M229.2532,-74.057C242.7004,-79.5384 261.0381,-88.7879 273,-102 287.2759,-117.768 296.5221,-140.0798 302.0651,-157.5997"/>
<polygon fill="#000000" stroke="#000000" points="298.7314,-158.6697 304.9108,-167.2758 305.447,-156.6946 298.7314,-158.6697"/>
<text text-anchor="middle" x="260.5" y="-105.8" font-family="Times,serif" font-size="14.00" fill="#000000">0/2</text>
</g>
<!-- 7 -->
<g id="node3" class="node">
<title>7</title>
<ellipse fill="none" stroke="#000000" cx="600" cy="-94" rx="18" ry="18"/>
<text text-anchor="middle" x="600" y="-90.3" font-family="Times,serif" font-size="14.00" fill="#000000">7</text>
</g>
<!-- 4&#45;&gt;7 -->
<g id="edge2" class="edge">
<title>4&#45;&gt;7</title>
<path fill="none" stroke="#000000" d="M222.7832,-53.5789C239.0646,-33.6182 271.9809,0 309,0 309,0 309,0 503,0 542.6091,0 572.1772,-40.9204 587.7114,-68.7634"/>
<polygon fill="#000000" stroke="#000000" points="584.6432,-70.4482 592.4357,-77.6264 590.8204,-67.1555 584.6432,-70.4482"/>
<text text-anchor="middle" x="406" y="-3.8" font-family="Times,serif" font-size="14.00" fill="#000000">0/7</text>
</g>
<!-- 5 -->
<g id="node4" class="node">
<title>5</title>
<ellipse fill="none" stroke="#000000" cx="503" cy="-129" rx="18" ry="18"/>
<text text-anchor="middle" x="503" y="-125.3" font-family="Times,serif" font-size="14.00" fill="#000000">5</text>
</g>
<!-- 4&#45;&gt;5 -->
<g id="edge3" class="edge">
<title>4&#45;&gt;5</title>
<path fill="none" stroke="#000000" d="M230.2087,-68.2095C242.3646,-68.5177 258.6857,-69.2553 273,-71 348.151,-80.1596 433.9795,-106.075 476.3933,-119.9567"/>
<polygon fill="#000000" stroke="#000000" points="475.3756,-123.3065 485.9689,-123.1289 477.5769,-116.6617 475.3756,-123.3065"/>
<text text-anchor="middle" x="357.5" y="-92.8" font-family="Times,serif" font-size="14.00" fill="#000000">0/1</text>
</g>
<!-- 3 -->
<g id="node8" class="node">
<title>3</title>
<ellipse fill="none" stroke="#000000" cx="406" cy="-136" rx="18" ry="18"/>
<text text-anchor="middle" x="406" y="-132.3" font-family="Times,serif" font-size="14.00" fill="#000000">3</text>
</g>
<!-- 2&#45;&gt;3 -->
<g id="edge16" class="edge">
<title>2&#45;&gt;3</title>
<path fill="none" stroke="#000000" d="M325.4547,-176.6878C340.596,-169.0391 363.2795,-157.5805 380.7198,-148.7704"/>
<polygon fill="#000000" stroke="#000000" points="382.4406,-151.8224 389.7883,-144.1894 379.2843,-145.5744 382.4406,-151.8224"/>
<text text-anchor="middle" x="357.5" y="-169.8" font-family="Times,serif" font-size="14.00" fill="#000000">0/26</text>
</g>
<!-- 5&#45;&gt;7 -->
<g id="edge12" class="edge">
<title>5&#45;&gt;7</title>
<path fill="none" stroke="#000000" d="M520.3417,-122.7427C534.9629,-117.467 556.136,-109.8272 572.9785,-103.75"/>
<polygon fill="#000000" stroke="#000000" points="574.59,-106.8895 582.8085,-100.2031 572.2141,-100.305 574.59,-106.8895"/>
<text text-anchor="middle" x="551.5" y="-118.8" font-family="Times,serif" font-size="14.00" fill="#000000">0/7</text>
</g>
<!-- 0 -->
<g id="node5" class="node">
<title>0</title>
<ellipse fill="none" stroke="#000000" cx="18" cy="-228" rx="18" ry="18"/>
<text text-anchor="middle" x="18" y="-224.3" font-family="Times,serif" font-size="14.00" fill="#000000">0</text>
</g>
<!-- 0&#45;&gt;2 -->
<g id="edge6" class="edge">
<title>0&#45;&gt;2</title>
<path fill="none" stroke="#000000" d="M36.0112,-226.0441C77.8127,-221.3923 184.5931,-208.8624 273,-193 275.7413,-192.5081 278.5904,-191.9525 281.4316,-191.3688"/>
<polygon fill="#000000" stroke="#000000" points="282.4454,-194.7306 291.4802,-189.1967 280.9664,-187.8886 282.4454,-194.7306"/>
<text text-anchor="middle" x="163.5" y="-214.8" font-family="Times,serif" font-size="14.00" fill="#000000">0/1</text>
</g>
<!-- 6 -->
<g id="node6" class="node">
<title>6</title>
<ellipse fill="none" stroke="#000000" cx="503" cy="-183" rx="18" ry="18"/>
<text text-anchor="middle" x="503" y="-179.3" font-family="Times,serif" font-size="14.00" fill="#000000">6</text>
</g>
<!-- 0&#45;&gt;6 -->
<g id="edge4" class="edge">
<title>0&#45;&gt;6</title>
<path fill="none" stroke="#000000" d="M33.0759,-237.9841C51.567,-249.2428 84.2531,-266 115,-266 115,-266 115,-266 406,-266 442.321,-266 471.8893,-231.9887 488.4669,-207.5098"/>
<polygon fill="#000000" stroke="#000000" points="491.4776,-209.2995 493.975,-199.0032 485.6019,-205.4948 491.4776,-209.2995"/>
<text text-anchor="middle" x="260.5" y="-269.8" font-family="Times,serif" font-size="14.00" fill="#000000">0/2</text>
</g>
<!-- 1 -->
<g id="node7" class="node">
<title>1</title>
<ellipse fill="none" stroke="#000000" cx="115" cy="-161" rx="18" ry="18"/>
<text text-anchor="middle" x="115" y="-157.3" font-family="Times,serif" font-size="14.00" fill="#000000">1</text>
</g>
<!-- 0&#45;&gt;1 -->
<g id="edge5" class="edge">
<title>0&#45;&gt;1</title>
<path fill="none" stroke="#000000" d="M31.7141,-216.304C38.307,-210.851 46.4102,-204.3913 54,-199 65.6819,-190.702 79.1589,-182.2017 90.4693,-175.3504"/>
<polygon fill="#000000" stroke="#000000" points="92.5886,-178.1612 99.3736,-170.0239 88.995,-172.154 92.5886,-178.1612"/>
<text text-anchor="middle" x="66.5" y="-202.8" font-family="Times,serif" font-size="14.00" fill="#000000">0/38</text>
</g>
<!-- 6&#45;&gt;7 -->
<g id="edge11" class="edge">
<title>6&#45;&gt;7</title>
<path fill="none" stroke="#000000" d="M517.5939,-172.3331C530.3047,-162.7997 548.9964,-148.1849 564,-134 569.8809,-128.4399 575.9039,-122.0627 581.2994,-116.0579"/>
<polygon fill="#000000" stroke="#000000" points="584.2226,-118.0338 588.1958,-108.2122 578.9649,-113.4124 584.2226,-118.0338"/>
<text text-anchor="middle" x="551.5" y="-158.8" font-family="Times,serif" font-size="14.00" fill="#000000">0/27</text>
</g>
<!-- 1&#45;&gt;4 -->
<g id="edge15" class="edge">
<title>1&#45;&gt;4</title>
<path fill="none" stroke="#000000" d="M124.1149,-145.1835C130.7326,-134.5123 140.3628,-120.5137 151,-110 161.7515,-99.3733 175.4936,-89.6489 187.2117,-82.2393"/>
<polygon fill="#000000" stroke="#000000" points="189.3718,-85.0211 196.0797,-76.8202 185.7217,-79.048 189.3718,-85.0211"/>
<text text-anchor="middle" x="163.5" y="-113.8" font-family="Times,serif" font-size="14.00" fill="#000000">0/13</text>
</g>
<!-- 1&#45;&gt;2 -->
<g id="edge13" class="edge">
<title>1&#45;&gt;2</title>
<path fill="none" stroke="#000000" d="M132.9033,-163.2148C166.7433,-167.4012 240.3234,-176.5039 280.8401,-181.5163"/>
<polygon fill="#000000" stroke="#000000" points="280.5038,-185.0013 290.8579,-182.7556 281.3633,-178.0543 280.5038,-185.0013"/>
<text text-anchor="middle" x="212" y="-177.8" font-family="Times,serif" font-size="14.00" fill="#000000">0/8</text>
</g>
<!-- 1&#45;&gt;3 -->
<g id="edge14" class="edge">
<title>1&#45;&gt;3</title>
<path fill="none" stroke="#000000" d="M133.2034,-159.4361C182.4009,-155.2095 318.2997,-143.5344 377.6504,-138.4355"/>
<polygon fill="#000000" stroke="#000000" points="378.1398,-141.9065 387.8035,-137.5633 377.5406,-134.9322 378.1398,-141.9065"/>
<text text-anchor="middle" x="260.5" y="-152.8" font-family="Times,serif" font-size="14.00" fill="#000000">0/10</text>
</g>
<!-- 3&#45;&gt;4 -->
<g id="edge9" class="edge">
<title>3&#45;&gt;4</title>
<path fill="none" stroke="#000000" d="M389.5187,-128.3061C364.6907,-116.9471 316.0163,-95.5729 273,-82 262.2753,-78.6161 250.2517,-75.68 239.7325,-73.3827"/>
<polygon fill="#000000" stroke="#000000" points="240.3239,-69.9307 229.8186,-71.3055 238.8883,-76.7819 240.3239,-69.9307"/>
<text text-anchor="middle" x="309" y="-104.8" font-family="Times,serif" font-size="14.00" fill="#000000">0/20</text>
</g>
<!-- 3&#45;&gt;7 -->
<g id="edge8" class="edge">
<title>3&#45;&gt;7</title>
<path fill="none" stroke="#000000" d="M419.6858,-124.1526C434.5905,-112.103 459.7,-94.2091 485,-87 514.0261,-78.7291 548.7876,-82.6401 572.4395,-87.246"/>
<polygon fill="#000000" stroke="#000000" points="571.956,-90.7212 582.4643,-89.3698 573.4068,-83.8732 571.956,-90.7212"/>
<text text-anchor="middle" x="503" y="-90.8" font-family="Times,serif" font-size="14.00" fill="#000000">0/1</text>
</g>
<!-- 3&#45;&gt;5 -->
<g id="edge10" class="edge">
<title>3&#45;&gt;5</title>
<path fill="none" stroke="#000000" d="M424.245,-134.6834C438.4709,-133.6567 458.479,-132.2129 474.7679,-131.0374"/>
<polygon fill="#000000" stroke="#000000" points="475.1147,-134.5215 484.8369,-130.3107 474.6108,-127.5397 475.1147,-134.5215"/>
<text text-anchor="middle" x="454.5" y="-136.8" font-family="Times,serif" font-size="14.00" fill="#000000">0/8</text>
</g>
<!-- 3&#45;&gt;6 -->
<g id="edge7" class="edge">
<title>3&#45;&gt;6</title>
<path fill="none" stroke="#000000" d="M422.4547,-143.9729C437.596,-151.3094 460.2795,-162.3004 477.7198,-170.7508"/>
<polygon fill="#000000" stroke="#000000" points="476.2628,-173.9341 486.7883,-175.1448 479.3152,-167.6346 476.2628,-173.9341"/>
<text text-anchor="middle" x="454.5" y="-168.8" font-family="Times,serif" font-size="14.00" fill="#000000">0/24</text>
</g>
</g>
</svg>
