<?xml version="1.0" encoding="UTF-8" standalone="no"?>
<!DOCTYPE svg PUBLIC "-//W3C//DTD SVG 1.1//EN"
 "http://www.w3.org/Graphics/SVG/1.1/DTD/svg11.dtd">
<!-- Generated by graphviz version 2.40.1 (20161225.0304)
 -->
<!-- Title: finite_state_machine Pages: 1 -->
<svg width="560pt" height="289pt"
 viewBox="0.00 0.00 560.00 289.00" xmlns="http://www.w3.org/2000/svg" xmlns:xlink="http://www.w3.org/1999/xlink">
<g id="graph0" class="graph" transform="scale(1 1) rotate(0) translate(4 285)">
<title>finite_state_machine</title>
<polygon fill="#ffffff" stroke="transparent" points="-4,4 -4,-285 556,-285 556,4 -4,4"/>
<!-- 4 -->
<g id="node1" class="node">
<title>4</title>
<ellipse fill="none" stroke="#000000" cx="190" cy="-68" rx="18" ry="18"/>
<text text-anchor="middle" x="190" y="-64.3" font-family="Times,serif" font-size="14.00" fill="#000000">4</text>
</g>
<!-- 2 -->
<g id="node2" class="node">
<title>2</title>
<ellipse fill="none" stroke="#000000" cx="276" cy="-185" rx="18" ry="18"/>
<text text-anchor="middle" x="276" y="-181.3" font-family="Times,serif" font-size="14.00" fill="#000000">2</text>
</g>
<!-- 4&#45;&gt;2 -->
<g id="edge1" class="edge">
<title>4&#45;&gt;2</title>
<path fill="none" stroke="#000000" d="M206.1886,-75.899C216.9551,-81.8325 230.7629,-90.8407 240,-102 253.4792,-118.2842 262.7356,-140.3865 268.4838,-157.6888"/>
<polygon fill="#000000" stroke="#000000" points="265.1453,-158.7399 271.4683,-167.2411 271.8268,-156.6523 265.1453,-158.7399"/>
<text text-anchor="middle" x="233" y="-105.8" font-family="Times,serif" font-size="14.00" fill="#000000">2</text>
</g>
<!-- 7 -->
<g id="node3" class="node">
<title>7</title>
<ellipse fill="none" stroke="#000000" cx="534" cy="-94" rx="18" ry="18"/>
<text text-anchor="middle" x="534" y="-90.3" font-family="Times,serif" font-size="14.00" fill="#000000">7</text>
</g>
<!-- 4&#45;&gt;7 -->
<g id="edge2" class="edge">
<title>4&#45;&gt;7</title>
<path fill="none" stroke="#000000" d="M199.8898,-52.5697C214.0952,-32.5069 242.3098,0 276,0 276,0 276,0 448,0 484.802,0 510.0939,-39.7068 523.2916,-67.5069"/>
<polygon fill="#000000" stroke="#000000" points="520.1594,-69.0756 527.4544,-76.759 526.543,-66.2034 520.1594,-69.0756"/>
<text text-anchor="middle" x="362" y="-3.8" font-family="Times,serif" font-size="14.00" fill="#000000">7</text>
</g>
<!-- 5 -->
<g id="node4" class="node">
<title>5</title>
<ellipse fill="none" stroke="#000000" cx="448" cy="-129" rx="18" ry="18"/>
<text text-anchor="middle" x="448" y="-125.3" font-family="Times,serif" font-size="14.00" fill="#000000">5</text>
</g>
<!-- 4&#45;&gt;5 -->
<g id="edge3" class="edge">
<title>4&#45;&gt;5</title>
<path fill="none" stroke="#000000" d="M208.0964,-70.6331C217.6146,-72.0842 229.4641,-73.9951 240,-76 302.8005,-87.9506 318.3863,-91.957 380,-109 393.5281,-112.742 408.5005,-117.1199 420.9446,-120.8241"/>
<polygon fill="#000000" stroke="#000000" points="420.1321,-124.2343 430.7158,-123.7485 422.1392,-117.5282 420.1321,-124.2343"/>
<text text-anchor="middle" x="319" y="-97.8" font-family="Times,serif" font-size="14.00" fill="#000000">1</text>
</g>
<!-- 3 -->
<g id="node8" class="node">
<title>3</title>
<ellipse fill="none" stroke="#000000" cx="362" cy="-136" rx="18" ry="18"/>
<text text-anchor="middle" x="362" y="-132.3" font-family="Times,serif" font-size="14.00" fill="#000000">3</text>
</g>
<!-- 2&#45;&gt;3 -->
<g id="edge16" class="edge">
<title>2&#45;&gt;3</title>
<path fill="none" stroke="#000000" d="M291.7737,-176.0126C304.5027,-168.7601 322.6389,-158.4267 337.2919,-150.0778"/>
<polygon fill="#000000" stroke="#000000" points="339.3703,-152.922 346.3263,-144.9304 335.9049,-146.8399 339.3703,-152.922"/>
<text text-anchor="middle" x="319" y="-166.8" font-family="Times,serif" font-size="14.00" fill="#000000">26</text>
</g>
<!-- 5&#45;&gt;7 -->
<g id="edge12" class="edge">
<title>5&#45;&gt;7</title>
<path fill="none" stroke="#000000" d="M464.9908,-122.0851C477.1231,-117.1476 493.6801,-110.4093 507.5352,-104.7706"/>
<polygon fill="#000000" stroke="#000000" points="509.1015,-107.9119 517.0445,-100.9005 506.4628,-101.4283 509.1015,-107.9119"/>
<text text-anchor="middle" x="491" y="-116.8" font-family="Times,serif" font-size="14.00" fill="#000000">7</text>
</g>
<!-- 0 -->
<g id="node5" class="node">
<title>0</title>
<ellipse fill="none" stroke="#000000" cx="18" cy="-228" rx="18" ry="18"/>
<text text-anchor="middle" x="18" y="-224.3" font-family="Times,serif" font-size="14.00" fill="#000000">0</text>
</g>
<!-- 0&#45;&gt;2 -->
<g id="edge6" class="edge">
<title>0&#45;&gt;2</title>
<path fill="none" stroke="#000000" d="M35.8733,-225.2959C73.6318,-219.5405 164.2748,-205.4986 240,-192 242.6699,-191.5241 245.4479,-191.0127 248.2242,-190.4909"/>
<polygon fill="#000000" stroke="#000000" points="248.9145,-193.9224 258.0754,-188.5999 247.5948,-187.0479 248.9145,-193.9224"/>
<text text-anchor="middle" x="147" y="-211.8" font-family="Times,serif" font-size="14.00" fill="#000000">1</text>
</g>
<!-- 6 -->
<g id="node6" class="node">
<title>6</title>
<ellipse fill="none" stroke="#000000" cx="448" cy="-183" rx="18" ry="18"/>
<text text-anchor="middle" x="448" y="-179.3" font-family="Times,serif" font-size="14.00" fill="#000000">6</text>
</g>
<!-- 0&#45;&gt;6 -->
<g id="edge4" class="edge">
<title>0&#45;&gt;6</title>
<path fill="none" stroke="#000000" d="M32.6651,-238.9912C49.126,-250.214 77.0668,-266 104,-266 104,-266 104,-266 362,-266 395.6709,-266 421.2097,-232.6518 435.3972,-208.232"/>
<polygon fill="#000000" stroke="#000000" points="438.5049,-209.8445 440.2723,-199.3981 432.3762,-206.4623 438.5049,-209.8445"/>
<text text-anchor="middle" x="233" y="-269.8" font-family="Times,serif" font-size="14.00" fill="#000000">2</text>
</g>
<!-- 1 -->
<g id="node7" class="node">
<title>1</title>
<ellipse fill="none" stroke="#000000" cx="104" cy="-161" rx="18" ry="18"/>
<text text-anchor="middle" x="104" y="-157.3" font-family="Times,serif" font-size="14.00" fill="#000000">1</text>
</g>
<!-- 0&#45;&gt;1 -->
<g id="edge5" class="edge">
<title>0&#45;&gt;1</title>
<path fill="none" stroke="#000000" d="M31.9457,-216.6145C38.5893,-211.2295 46.6682,-204.7373 54,-199 62.887,-192.0457 72.7609,-184.5032 81.3709,-177.985"/>
<polygon fill="#000000" stroke="#000000" points="83.6028,-180.6855 89.4764,-171.8678 79.386,-175.0981 83.6028,-180.6855"/>
<text text-anchor="middle" x="61" y="-202.8" font-family="Times,serif" font-size="14.00" fill="#000000">38</text>
</g>
<!-- 6&#45;&gt;7 -->
<g id="edge11" class="edge">
<title>6&#45;&gt;7</title>
<path fill="none" stroke="#000000" d="M460.803,-170.0635C470.9413,-159.7901 485.4375,-145.0351 498,-132 503.3761,-126.4217 509.1638,-120.3446 514.4928,-114.7196"/>
<polygon fill="#000000" stroke="#000000" points="517.0681,-117.0903 521.3936,-107.4186 511.9809,-112.2819 517.0681,-117.0903"/>
<text text-anchor="middle" x="491" y="-149.8" font-family="Times,serif" font-size="14.00" fill="#000000">27</text>
</g>
<!-- 1&#45;&gt;4 -->
<g id="edge15" class="edge">
<title>1&#45;&gt;4</title>
<path fill="none" stroke="#000000" d="M113.4431,-145.5001C120.2073,-134.9702 129.8777,-121.0103 140,-110 148.1402,-101.1457 158.1208,-92.4168 167.0184,-85.2301"/>
<polygon fill="#000000" stroke="#000000" points="169.4241,-87.7909 175.1218,-78.8585 165.0974,-82.2882 169.4241,-87.7909"/>
<text text-anchor="middle" x="147" y="-113.8" font-family="Times,serif" font-size="14.00" fill="#000000">13</text>
</g>
<!-- 1&#45;&gt;2 -->
<g id="edge13" class="edge">
<title>1&#45;&gt;2</title>
<path fill="none" stroke="#000000" d="M122.0819,-163.5231C152.0972,-167.7112 212.4167,-176.1279 247.9794,-181.0902"/>
<polygon fill="#000000" stroke="#000000" points="247.7726,-184.5951 258.1603,-182.5107 248.74,-177.6623 247.7726,-184.5951"/>
<text text-anchor="middle" x="190" y="-178.8" font-family="Times,serif" font-size="14.00" fill="#000000">8</text>
</g>
<!-- 1&#45;&gt;3 -->
<g id="edge14" class="edge">
<title>1&#45;&gt;3</title>
<path fill="none" stroke="#000000" d="M122.1421,-159.242C166.4599,-154.9477 280.4871,-143.8985 333.7725,-138.7352"/>
<polygon fill="#000000" stroke="#000000" points="334.2622,-142.2043 343.878,-137.756 333.587,-135.2369 334.2622,-142.2043"/>
<text text-anchor="middle" x="233" y="-152.8" font-family="Times,serif" font-size="14.00" fill="#000000">10</text>
</g>
<!-- 3&#45;&gt;4 -->
<g id="edge9" class="edge">
<title>3&#45;&gt;4</title>
<path fill="none" stroke="#000000" d="M345.1732,-128.5368C321.7757,-118.258 278.0022,-99.3843 240,-85 232.572,-82.1884 224.446,-79.3331 216.9448,-76.7856"/>
<polygon fill="#000000" stroke="#000000" points="217.8213,-73.3882 207.2274,-73.5354 215.6008,-80.0267 217.8213,-73.3882"/>
<text text-anchor="middle" x="276" y="-108.8" font-family="Times,serif" font-size="14.00" fill="#000000">20</text>
</g>
<!-- 3&#45;&gt;7 -->
<g id="edge8" class="edge">
<title>3&#45;&gt;7</title>
<path fill="none" stroke="#000000" d="M374.6467,-123.0602C387.3459,-111.0718 408.1204,-94.0619 430,-87 455.0453,-78.9164 485.1978,-82.2761 506.5722,-86.6864"/>
<polygon fill="#000000" stroke="#000000" points="506.0603,-90.1592 516.5872,-88.9616 507.6111,-83.3332 506.0603,-90.1592"/>
<text text-anchor="middle" x="448" y="-90.8" font-family="Times,serif" font-size="14.00" fill="#000000">1</text>
</g>
<!-- 3&#45;&gt;5 -->
<g id="edge10" class="edge">
<title>3&#45;&gt;5</title>
<path fill="none" stroke="#000000" d="M380.2384,-134.5155C391.6403,-133.5874 406.5658,-132.3725 419.506,-131.3193"/>
<polygon fill="#000000" stroke="#000000" points="420.1048,-134.7822 429.7879,-130.4824 419.5369,-127.8053 420.1048,-134.7822"/>
<text text-anchor="middle" x="405" y="-135.8" font-family="Times,serif" font-size="14.00" fill="#000000">8</text>
</g>
<!-- 3&#45;&gt;6 -->
<g id="edge7" class="edge">
<title>3&#45;&gt;6</title>
<path fill="none" stroke="#000000" d="M378.1759,-144.8403C390.8684,-151.7769 408.7525,-161.5508 423.2433,-169.4702"/>
<polygon fill="#000000" stroke="#000000" points="421.7336,-172.6336 432.1872,-174.3581 425.0906,-166.4911 421.7336,-172.6336"/>
<text text-anchor="middle" x="405" y="-165.8" font-family="Times,serif" font-size="14.00" fill="#000000">24</text>
</g>
</g>
</svg>
