<?xml version="1.0" encoding="UTF-8" standalone="no"?>
<!DOCTYPE svg PUBLIC "-//W3C//DTD SVG 1.1//EN"
 "http://www.w3.org/Graphics/SVG/1.1/DTD/svg11.dtd">
<!-- Generated by graphviz version 2.43.20190912.0211 (20190912.0211)
 -->
<!-- Title: finite_state_machine Pages: 1 -->
<svg width="424pt" height="106pt"
 viewBox="0.00 0.00 424.00 106.00" xmlns="http://www.w3.org/2000/svg" xmlns:xlink="http://www.w3.org/1999/xlink">
<g id="graph0" class="graph" transform="scale(1 1) rotate(0) translate(4 102)">
<title>finite_state_machine</title>
<polygon fill="white" stroke="transparent" points="-4,4 -4,-102 420,-102 420,4 -4,4"/>
<!-- 0 -->
<g id="node1" class="node">
<title>0</title>
<ellipse fill="none" stroke="black" cx="18" cy="-25" rx="18" ry="18"/>
<text text-anchor="middle" x="18" y="-21.3" font-family="Times,serif" font-size="14.00">0</text>
</g>
<!-- 1 -->
<g id="node2" class="node">
<title>1</title>
<ellipse fill="none" stroke="black" cx="113" cy="-25" rx="18" ry="18"/>
<text text-anchor="middle" x="113" y="-21.3" font-family="Times,serif" font-size="14.00">1</text>
</g>
<!-- 0&#45;&gt;1 -->
<g id="edge1" class="edge">
<title>0&#45;&gt;1</title>
<path fill="none" stroke="black" d="M36.06,-25C49.61,-25 68.82,-25 84.53,-25"/>
<polygon fill="black" stroke="black" points="84.74,-28.5 94.74,-25 84.74,-21.5 84.74,-28.5"/>
<text text-anchor="middle" x="65.5" y="-28.8" font-family="Times,serif" font-size="14.00">0/0</text>
</g>
<!-- 2 -->
<g id="node6" class="node">
<title>2</title>
<ellipse fill="none" stroke="black" cx="208" cy="-55" rx="18" ry="18"/>
<text text-anchor="middle" x="208" y="-51.3" font-family="Times,serif" font-size="14.00">2</text>
</g>
<!-- 1&#45;&gt;2 -->
<g id="edge5" class="edge">
<title>1&#45;&gt;2</title>
<path fill="none" stroke="black" d="M130.63,-30.36C144.51,-34.84 164.56,-41.31 180.63,-46.5"/>
<polygon fill="black" stroke="black" points="179.93,-49.94 190.52,-49.68 182.07,-43.28 179.93,-49.94"/>
<text text-anchor="middle" x="160.5" y="-46.8" font-family="Times,serif" font-size="14.00">0/0</text>
</g>
<!-- 4 -->
<g id="node3" class="node">
<title>4</title>
<ellipse fill="none" stroke="black" cx="303" cy="-55" rx="18" ry="18"/>
<text text-anchor="middle" x="303" y="-51.3" font-family="Times,serif" font-size="14.00">4</text>
</g>
<!-- 5 -->
<g id="node4" class="node">
<title>5</title>
<ellipse fill="none" stroke="black" cx="398" cy="-80" rx="18" ry="18"/>
<text text-anchor="middle" x="398" y="-76.3" font-family="Times,serif" font-size="14.00">5</text>
</g>
<!-- 4&#45;&gt;5 -->
<g id="edge2" class="edge">
<title>4&#45;&gt;5</title>
<path fill="none" stroke="black" d="M320.63,-59.47C334.51,-63.2 354.56,-68.59 370.63,-72.91"/>
<polygon fill="black" stroke="black" points="369.95,-76.35 380.52,-75.57 371.77,-69.59 369.95,-76.35"/>
<text text-anchor="middle" x="350.5" y="-73.8" font-family="Times,serif" font-size="14.00">0/0</text>
</g>
<!-- 3 -->
<g id="node5" class="node">
<title>3</title>
<ellipse fill="none" stroke="black" cx="398" cy="-18" rx="18" ry="18"/>
<text text-anchor="middle" x="398" y="-14.3" font-family="Times,serif" font-size="14.00">3</text>
</g>
<!-- 4&#45;&gt;3 -->
<g id="edge3" class="edge">
<title>4&#45;&gt;3</title>
<path fill="none" stroke="black" d="M320.2,-48.56C334.34,-42.93 355.09,-34.67 371.46,-28.16"/>
<polygon fill="black" stroke="black" points="372.99,-31.32 380.99,-24.37 370.4,-24.82 372.99,-31.32"/>
<text text-anchor="middle" x="350.5" y="-43.8" font-family="Times,serif" font-size="14.00">0/0</text>
</g>
<!-- 3&#45;&gt;1 -->
<g id="edge6" class="edge">
<title>3&#45;&gt;1</title>
<path fill="none" stroke="black" d="M379.95,-18.42C332.65,-19.59 199.45,-22.89 141.5,-24.32"/>
<polygon fill="black" stroke="black" points="141.19,-20.83 131.28,-24.57 141.36,-27.82 141.19,-20.83"/>
<text text-anchor="middle" x="255.5" y="-24.8" font-family="Times,serif" font-size="14.00">0/0</text>
</g>
<!-- 2&#45;&gt;4 -->
<g id="edge4" class="edge">
<title>2&#45;&gt;4</title>
<path fill="none" stroke="black" d="M226.06,-55C239.61,-55 258.82,-55 274.53,-55"/>
<polygon fill="black" stroke="black" points="274.74,-58.5 284.74,-55 274.74,-51.5 274.74,-58.5"/>
<text text-anchor="middle" x="255.5" y="-58.8" font-family="Times,serif" font-size="14.00">0/0</text>
</g>
</g>
</svg>
