<?xml version="1.0" encoding="UTF-8" standalone="no"?>
<!DOCTYPE svg PUBLIC "-//W3C//DTD SVG 1.1//EN"
 "http://www.w3.org/Graphics/SVG/1.1/DTD/svg11.dtd">
<!-- Generated by graphviz version 2.43.20190912.0211 (20190912.0211)
 -->
<!-- Title: finite_state_machine Pages: 1 -->
<svg width="555pt" height="195pt"
 viewBox="0.00 0.00 555.00 195.00" xmlns="http://www.w3.org/2000/svg" xmlns:xlink="http://www.w3.org/1999/xlink">
<g id="graph0" class="graph" transform="scale(1 1) rotate(0) translate(4 191)">
<title>finite_state_machine</title>
<polygon fill="white" stroke="transparent" points="-4,4 -4,-191 551,-191 551,4 -4,4"/>
<!-- 4 -->
<g id="node1" class="node">
<title>4</title>
<ellipse fill="none" stroke="black" cx="226" cy="-143" rx="18" ry="18"/>
<text text-anchor="middle" x="226" y="-139.3" font-family="Times,serif" font-size="14.00">4</text>
</g>
<!-- 2 -->
<g id="node2" class="node">
<title>2</title>
<ellipse fill="none" stroke="black" cx="330" cy="-90" rx="18" ry="18"/>
<text text-anchor="middle" x="330" y="-86.3" font-family="Times,serif" font-size="14.00">2</text>
</g>
<!-- 4&#45;&gt;2 -->
<g id="edge1" class="edge">
<title>4&#45;&gt;2</title>
<path fill="none" stroke="black" d="M241.32,-132.84C247.54,-128.63 254.99,-123.84 262,-120 275.32,-112.7 290.75,-105.7 303.45,-100.3"/>
<polygon fill="black" stroke="black" points="305.07,-103.41 312.95,-96.33 302.37,-96.95 305.07,-103.41"/>
<text text-anchor="middle" x="278" y="-123.8" font-family="Times,serif" font-size="14.00">0/2</text>
</g>
<!-- 5 -->
<g id="node3" class="node">
<title>5</title>
<ellipse fill="none" stroke="black" cx="529" cy="-169" rx="18" ry="18"/>
<text text-anchor="middle" x="529" y="-165.3" font-family="Times,serif" font-size="14.00">5</text>
</g>
<!-- 4&#45;&gt;5 -->
<g id="edge2" class="edge">
<title>4&#45;&gt;5</title>
<path fill="none" stroke="black" d="M243.18,-148.96C249.03,-150.89 255.74,-152.82 262,-154 353.06,-171.12 377.43,-164.09 470,-168 480.02,-168.42 491.01,-168.67 500.71,-168.81"/>
<polygon fill="black" stroke="black" points="500.95,-172.31 510.99,-168.93 501.03,-165.31 500.95,-172.31"/>
<text text-anchor="middle" x="382" y="-169.8" font-family="Times,serif" font-size="14.00">1/1</text>
</g>
<!-- 3 -->
<g id="node5" class="node">
<title>3</title>
<ellipse fill="none" stroke="black" cx="434" cy="-118" rx="18" ry="18"/>
<text text-anchor="middle" x="434" y="-114.3" font-family="Times,serif" font-size="14.00">3</text>
</g>
<!-- 2&#45;&gt;3 -->
<g id="edge8" class="edge">
<title>2&#45;&gt;3</title>
<path fill="none" stroke="black" d="M347.84,-94.62C363.81,-99.01 388.04,-105.66 406.58,-110.75"/>
<polygon fill="black" stroke="black" points="405.9,-114.19 416.47,-113.46 407.75,-107.44 405.9,-114.19"/>
<text text-anchor="middle" x="382" y="-111.8" font-family="Times,serif" font-size="14.00">1/26</text>
</g>
<!-- 1 -->
<g id="node4" class="node">
<title>1</title>
<ellipse fill="none" stroke="black" cx="122" cy="-67" rx="18" ry="18"/>
<text text-anchor="middle" x="122" y="-63.3" font-family="Times,serif" font-size="14.00">1</text>
</g>
<!-- 1&#45;&gt;4 -->
<g id="edge5" class="edge">
<title>1&#45;&gt;4</title>
<path fill="none" stroke="black" d="M135.13,-79.5C141.65,-85.94 149.97,-93.73 158,-100 171.67,-110.68 188.05,-121.23 201.18,-129.2"/>
<polygon fill="black" stroke="black" points="199.71,-132.4 210.09,-134.52 203.3,-126.39 199.71,-132.4"/>
<text text-anchor="middle" x="174" y="-124.8" font-family="Times,serif" font-size="14.00">1/13</text>
</g>
<!-- 1&#45;&gt;2 -->
<g id="edge3" class="edge">
<title>1&#45;&gt;2</title>
<path fill="none" stroke="black" d="M140.21,-68.92C176.05,-72.92 258.91,-82.17 301.95,-86.98"/>
<polygon fill="black" stroke="black" points="301.66,-90.47 311.98,-88.1 302.43,-83.51 301.66,-90.47"/>
<text text-anchor="middle" x="226" y="-83.8" font-family="Times,serif" font-size="14.00">0/8</text>
</g>
<!-- 1&#45;&gt;3 -->
<g id="edge4" class="edge">
<title>1&#45;&gt;3</title>
<path fill="none" stroke="black" d="M139.82,-63.36C177.86,-55.84 273.01,-41.06 348,-63 372.28,-70.1 396.12,-86.6 412.35,-99.69"/>
<polygon fill="black" stroke="black" points="410.18,-102.44 420.1,-106.15 414.66,-97.06 410.18,-102.44"/>
<text text-anchor="middle" x="278" y="-56.8" font-family="Times,serif" font-size="14.00">7/10</text>
</g>
<!-- 3&#45;&gt;4 -->
<g id="edge9" class="edge">
<title>3&#45;&gt;4</title>
<path fill="none" stroke="black" d="M416.38,-122.85C410.61,-124.38 404.06,-125.94 398,-127 347.64,-135.77 288.04,-139.97 254.16,-141.79"/>
<polygon fill="black" stroke="black" points="253.92,-138.3 244.11,-142.3 254.27,-145.29 253.92,-138.3"/>
<text text-anchor="middle" x="330" y="-140.8" font-family="Times,serif" font-size="14.00">0/20</text>
</g>
<!-- 3&#45;&gt;5 -->
<g id="edge10" class="edge">
<title>3&#45;&gt;5</title>
<path fill="none" stroke="black" d="M450.36,-126.42C464.98,-134.44 487.22,-146.64 504.15,-155.92"/>
<polygon fill="black" stroke="black" points="502.48,-159 512.93,-160.74 505.84,-152.86 502.48,-159"/>
<text text-anchor="middle" x="481.5" y="-152.8" font-family="Times,serif" font-size="14.00">8/8</text>
</g>
<!-- 0 -->
<g id="node6" class="node">
<title>0</title>
<ellipse fill="none" stroke="black" cx="18" cy="-18" rx="18" ry="18"/>
<text text-anchor="middle" x="18" y="-14.3" font-family="Times,serif" font-size="14.00">0</text>
</g>
<!-- 0&#45;&gt;2 -->
<g id="edge7" class="edge">
<title>0&#45;&gt;2</title>
<path fill="none" stroke="black" d="M36.09,-15.54C81.36,-9.87 206.83,0.22 294,-47 302.15,-51.42 309.12,-58.6 314.65,-65.83"/>
<polygon fill="black" stroke="black" points="311.88,-67.98 320.46,-74.2 317.63,-63.99 311.88,-67.98"/>
<text text-anchor="middle" x="174" y="-19.8" font-family="Times,serif" font-size="14.00">1/1</text>
</g>
<!-- 0&#45;&gt;1 -->
<g id="edge6" class="edge">
<title>0&#45;&gt;1</title>
<path fill="none" stroke="black" d="M34.49,-25.44C50.89,-33.32 77.02,-45.87 96.27,-55.12"/>
<polygon fill="black" stroke="black" points="94.83,-58.31 105.36,-59.49 97.86,-52 94.83,-58.31"/>
<text text-anchor="middle" x="70" y="-52.8" font-family="Times,serif" font-size="14.00">8/38</text>
</g>
</g>
</svg>
