<?xml version="1.0" encoding="UTF-8" standalone="no"?>
<!DOCTYPE svg PUBLIC "-//W3C//DTD SVG 1.1//EN"
 "http://www.w3.org/Graphics/SVG/1.1/DTD/svg11.dtd">
<!-- Generated by graphviz version 2.43.20190912.0211 (20190912.0211)
 -->
<!-- Title: finite_state_machine Pages: 1 -->
<svg width="399pt" height="106pt"
 viewBox="0.00 0.00 399.00 106.00" xmlns="http://www.w3.org/2000/svg" xmlns:xlink="http://www.w3.org/1999/xlink">
<g id="graph0" class="graph" transform="scale(1 1) rotate(0) translate(4 102)">
<title>finite_state_machine</title>
<polygon fill="white" stroke="transparent" points="-4,4 -4,-102 395,-102 395,4 -4,4"/>
<!-- 0 -->
<g id="node1" class="node">
<title>0</title>
<ellipse fill="none" stroke="black" cx="18" cy="-25" rx="18" ry="18"/>
<text text-anchor="middle" x="18" y="-21.3" font-family="Times,serif" font-size="14.00">0</text>
</g>
<!-- 1 -->
<g id="node2" class="node">
<title>1</title>
<ellipse fill="none" stroke="black" cx="109" cy="-25" rx="18" ry="18"/>
<text text-anchor="middle" x="109" y="-21.3" font-family="Times,serif" font-size="14.00">1</text>
</g>
<!-- 0&#45;&gt;1 -->
<g id="edge1" class="edge">
<title>0&#45;&gt;1</title>
<path fill="none" stroke="black" d="M36.16,-25C48.72,-25 66.02,-25 80.5,-25"/>
<polygon fill="black" stroke="black" points="80.89,-28.5 90.89,-25 80.89,-21.5 80.89,-28.5"/>
<text text-anchor="middle" x="63.5" y="-28.8" font-family="Times,serif" font-size="14.00">10</text>
</g>
<!-- 2 -->
<g id="node6" class="node">
<title>2</title>
<ellipse fill="none" stroke="black" cx="200" cy="-55" rx="18" ry="18"/>
<text text-anchor="middle" x="200" y="-51.3" font-family="Times,serif" font-size="14.00">2</text>
</g>
<!-- 1&#45;&gt;2 -->
<g id="edge5" class="edge">
<title>1&#45;&gt;2</title>
<path fill="none" stroke="black" d="M126.32,-30.5C139.37,-34.9 157.91,-41.15 173,-46.23"/>
<polygon fill="black" stroke="black" points="172.19,-49.65 182.78,-49.53 174.42,-43.02 172.19,-49.65"/>
<text text-anchor="middle" x="154.5" y="-45.8" font-family="Times,serif" font-size="14.00">10</text>
</g>
<!-- 4 -->
<g id="node3" class="node">
<title>4</title>
<ellipse fill="none" stroke="black" cx="282" cy="-55" rx="18" ry="18"/>
<text text-anchor="middle" x="282" y="-51.3" font-family="Times,serif" font-size="14.00">4</text>
</g>
<!-- 5 -->
<g id="node4" class="node">
<title>5</title>
<ellipse fill="none" stroke="black" cx="373" cy="-80" rx="18" ry="18"/>
<text text-anchor="middle" x="373" y="-76.3" font-family="Times,serif" font-size="14.00">5</text>
</g>
<!-- 4&#45;&gt;5 -->
<g id="edge2" class="edge">
<title>4&#45;&gt;5</title>
<path fill="none" stroke="black" d="M299.74,-59.7C312.67,-63.33 330.8,-68.43 345.67,-72.6"/>
<polygon fill="black" stroke="black" points="344.76,-75.98 355.33,-75.32 346.65,-69.24 344.76,-75.98"/>
<text text-anchor="middle" x="327.5" y="-72.8" font-family="Times,serif" font-size="14.00">15</text>
</g>
<!-- 3 -->
<g id="node5" class="node">
<title>3</title>
<ellipse fill="none" stroke="black" cx="373" cy="-18" rx="18" ry="18"/>
<text text-anchor="middle" x="373" y="-14.3" font-family="Times,serif" font-size="14.00">3</text>
</g>
<!-- 4&#45;&gt;3 -->
<g id="edge3" class="edge">
<title>4&#45;&gt;3</title>
<path fill="none" stroke="black" d="M298.91,-48.39C312.2,-42.86 331.39,-34.88 346.77,-28.49"/>
<polygon fill="black" stroke="black" points="348.34,-31.63 356.23,-24.56 345.65,-25.16 348.34,-31.63"/>
<text text-anchor="middle" x="327.5" y="-42.8" font-family="Times,serif" font-size="14.00">5</text>
</g>
<!-- 3&#45;&gt;1 -->
<g id="edge6" class="edge">
<title>3&#45;&gt;1</title>
<path fill="none" stroke="black" d="M354.75,-18.46C310.26,-19.65 191.39,-22.83 137.38,-24.27"/>
<polygon fill="black" stroke="black" points="137.09,-20.77 127.19,-24.54 137.28,-27.77 137.09,-20.77"/>
<text text-anchor="middle" x="241" y="-24.8" font-family="Times,serif" font-size="14.00">5</text>
</g>
<!-- 2&#45;&gt;4 -->
<g id="edge4" class="edge">
<title>2&#45;&gt;4</title>
<path fill="none" stroke="black" d="M218.36,-55C228.7,-55 242.06,-55 253.78,-55"/>
<polygon fill="black" stroke="black" points="253.95,-58.5 263.95,-55 253.95,-51.5 253.95,-58.5"/>
<text text-anchor="middle" x="241" y="-58.8" font-family="Times,serif" font-size="14.00">7</text>
</g>
</g>
</svg>
