<?xml version="1.0" encoding="UTF-8" standalone="no"?>
<!DOCTYPE svg PUBLIC "-//W3C//DTD SVG 1.1//EN"
 "http://www.w3.org/Graphics/SVG/1.1/DTD/svg11.dtd">
<!-- Generated by graphviz version 2.40.1 (20161225.0304)
 -->
<!-- Title: finite_state_machine Pages: 1 -->
<svg width="662pt" height="289pt"
 viewBox="0.00 0.00 662.00 289.00" xmlns="http://www.w3.org/2000/svg" xmlns:xlink="http://www.w3.org/1999/xlink">
<g id="graph0" class="graph" transform="scale(1 1) rotate(0) translate(4 285)">
<title>finite_state_machine</title>
<polygon fill="#ffffff" stroke="transparent" points="-4,4 -4,-285 658,-285 658,4 -4,4"/>
<!-- 4 -->
<g id="node1" class="node">
<title>4</title>
<ellipse fill="none" stroke="#000000" cx="224" cy="-68" rx="18" ry="18"/>
<text text-anchor="middle" x="224" y="-64.3" font-family="Times,serif" font-size="14.00" fill="#000000">4</text>
</g>
<!-- 2 -->
<g id="node2" class="node">
<title>2</title>
<ellipse fill="none" stroke="#000000" cx="327" cy="-185" rx="18" ry="18"/>
<text text-anchor="middle" x="327" y="-181.3" font-family="Times,serif" font-size="14.00" fill="#000000">2</text>
</g>
<!-- 4&#45;&gt;2 -->
<g id="edge1" class="edge">
<title>4&#45;&gt;2</title>
<path fill="none" stroke="#000000" d="M241.4598,-73.1271C256.3378,-78.2842 277.4097,-87.5637 291,-102 305.5798,-117.4874 314.8084,-139.8155 320.2673,-157.413"/>
<polygon fill="#000000" stroke="#000000" points="316.9359,-158.493 323.0578,-167.1401 323.6645,-156.5626 316.9359,-158.493"/>
<text text-anchor="middle" x="275.5" y="-105.8" font-family="Times,serif" font-size="14.00" fill="#000000">2/2</text>
</g>
<!-- 7 -->
<g id="node3" class="node">
<title>7</title>
<ellipse fill="none" stroke="#000000" cx="636" cy="-94" rx="18" ry="18"/>
<text text-anchor="middle" x="636" y="-90.3" font-family="Times,serif" font-size="14.00" fill="#000000">7</text>
</g>
<!-- 4&#45;&gt;7 -->
<g id="edge2" class="edge">
<title>4&#45;&gt;7</title>
<path fill="none" stroke="#000000" d="M235.3552,-53.9104C252.7862,-33.9927 288.2163,0 327,0 327,0 327,0 533,0 573.891,0 605.6613,-40.9204 622.5456,-68.7634"/>
<polygon fill="#000000" stroke="#000000" points="619.644,-70.7365 627.6926,-77.6264 625.6974,-67.2212 619.644,-70.7365"/>
<text text-anchor="middle" x="430" y="-3.8" font-family="Times,serif" font-size="14.00" fill="#000000">7/7</text>
</g>
<!-- 5 -->
<g id="node4" class="node">
<title>5</title>
<ellipse fill="none" stroke="#000000" cx="533" cy="-129" rx="18" ry="18"/>
<text text-anchor="middle" x="533" y="-125.3" font-family="Times,serif" font-size="14.00" fill="#000000">5</text>
</g>
<!-- 4&#45;&gt;5 -->
<g id="edge3" class="edge">
<title>4&#45;&gt;5</title>
<path fill="none" stroke="#000000" d="M242.2456,-67.8412C255.7439,-67.8945 274.5602,-68.3268 291,-70 337.2327,-74.7053 348.7514,-77.4091 394,-88 433.3179,-97.2027 477.9702,-110.9815 505.8142,-119.9813"/>
<polygon fill="#000000" stroke="#000000" points="505.0242,-123.405 515.6165,-123.1771 507.194,-116.7498 505.0242,-123.405"/>
<text text-anchor="middle" x="378.5" y="-91.8" font-family="Times,serif" font-size="14.00" fill="#000000">1/1</text>
</g>
<!-- 3 -->
<g id="node8" class="node">
<title>3</title>
<ellipse fill="none" stroke="#000000" cx="430" cy="-136" rx="18" ry="18"/>
<text text-anchor="middle" x="430" y="-132.3" font-family="Times,serif" font-size="14.00" fill="#000000">3</text>
</g>
<!-- 2&#45;&gt;3 -->
<g id="edge16" class="edge">
<title>2&#45;&gt;3</title>
<path fill="none" stroke="#000000" d="M343.5487,-177.1273C359.9165,-169.3407 385.2026,-157.3114 404.2072,-148.2703"/>
<polygon fill="#000000" stroke="#000000" points="405.9657,-151.3097 413.4923,-143.8532 402.9585,-144.9886 405.9657,-151.3097"/>
<text text-anchor="middle" x="378.5" y="-170.8" font-family="Times,serif" font-size="14.00" fill="#000000">11/26</text>
</g>
<!-- 5&#45;&gt;7 -->
<g id="edge12" class="edge">
<title>5&#45;&gt;7</title>
<path fill="none" stroke="#000000" d="M550.4725,-123.0627C566.5504,-117.5994 590.637,-109.4146 609.1561,-103.1217"/>
<polygon fill="#000000" stroke="#000000" points="610.4433,-106.3809 618.7855,-99.8496 608.1911,-99.7531 610.4433,-106.3809"/>
<text text-anchor="middle" x="584.5" y="-119.8" font-family="Times,serif" font-size="14.00" fill="#000000">7/7</text>
</g>
<!-- 0 -->
<g id="node5" class="node">
<title>0</title>
<ellipse fill="none" stroke="#000000" cx="18" cy="-228" rx="18" ry="18"/>
<text text-anchor="middle" x="18" y="-224.3" font-family="Times,serif" font-size="14.00" fill="#000000">0</text>
</g>
<!-- 0&#45;&gt;2 -->
<g id="edge6" class="edge">
<title>0&#45;&gt;2</title>
<path fill="none" stroke="#000000" d="M35.9723,-226.2688C79.7734,-221.9254 195.4484,-209.7061 291,-193 293.7435,-192.5203 296.594,-191.9727 299.436,-191.394"/>
<polygon fill="#000000" stroke="#000000" points="300.4476,-194.7565 309.4858,-189.2282 298.9728,-187.9136 300.4476,-194.7565"/>
<text text-anchor="middle" x="172.5" y="-215.8" font-family="Times,serif" font-size="14.00" fill="#000000">1/1</text>
</g>
<!-- 6 -->
<g id="node6" class="node">
<title>6</title>
<ellipse fill="none" stroke="#000000" cx="533" cy="-183" rx="18" ry="18"/>
<text text-anchor="middle" x="533" y="-179.3" font-family="Times,serif" font-size="14.00" fill="#000000">6</text>
</g>
<!-- 0&#45;&gt;6 -->
<g id="edge4" class="edge">
<title>0&#45;&gt;6</title>
<path fill="none" stroke="#000000" d="M33.4023,-237.589C52.9901,-248.8462 88.2166,-266 121,-266 121,-266 121,-266 430,-266 467.8389,-266 499.6372,-231.618 517.4962,-207.1116"/>
<polygon fill="#000000" stroke="#000000" points="520.5757,-208.8147 523.4304,-198.6117 514.8361,-204.8075 520.5757,-208.8147"/>
<text text-anchor="middle" x="275.5" y="-269.8" font-family="Times,serif" font-size="14.00" fill="#000000">2/2</text>
</g>
<!-- 1 -->
<g id="node7" class="node">
<title>1</title>
<ellipse fill="none" stroke="#000000" cx="121" cy="-161" rx="18" ry="18"/>
<text text-anchor="middle" x="121" y="-157.3" font-family="Times,serif" font-size="14.00" fill="#000000">1</text>
</g>
<!-- 0&#45;&gt;1 -->
<g id="edge5" class="edge">
<title>0&#45;&gt;1</title>
<path fill="none" stroke="#000000" d="M31.6159,-216.1627C38.1873,-210.6788 46.3007,-204.2338 54,-199 67.3074,-189.9539 82.9073,-181.0164 95.7046,-174.0839"/>
<polygon fill="#000000" stroke="#000000" points="97.6811,-176.9967 104.8601,-169.2049 94.389,-170.8191 97.6811,-176.9967"/>
<text text-anchor="middle" x="69.5" y="-202.8" font-family="Times,serif" font-size="14.00" fill="#000000">28/38</text>
</g>
<!-- 6&#45;&gt;7 -->
<g id="edge11" class="edge">
<title>6&#45;&gt;7</title>
<path fill="none" stroke="#000000" d="M548.3812,-173.4335C562.467,-164.3444 583.5612,-149.8885 600,-135 606.3189,-129.277 612.6443,-122.5106 618.1906,-116.1417"/>
<polygon fill="#000000" stroke="#000000" points="620.9562,-118.2916 624.7401,-108.3955 615.6108,-113.772 620.9562,-118.2916"/>
<text text-anchor="middle" x="584.5" y="-161.8" font-family="Times,serif" font-size="14.00" fill="#000000">16/27</text>
</g>
<!-- 1&#45;&gt;4 -->
<g id="edge15" class="edge">
<title>1&#45;&gt;4</title>
<path fill="none" stroke="#000000" d="M129.9722,-145.0361C136.5263,-134.2991 146.139,-120.2824 157,-110 169.2741,-98.3799 185.2388,-88.2224 198.5053,-80.8084"/>
<polygon fill="#000000" stroke="#000000" points="200.4517,-83.7355 207.5973,-75.913 197.1331,-77.5721 200.4517,-83.7355"/>
<text text-anchor="middle" x="172.5" y="-113.8" font-family="Times,serif" font-size="14.00" fill="#000000">10/13</text>
</g>
<!-- 1&#45;&gt;2 -->
<g id="edge13" class="edge">
<title>1&#45;&gt;2</title>
<path fill="none" stroke="#000000" d="M138.9208,-163.0879C174.8364,-167.2722 255.8621,-176.7121 298.9009,-181.7263"/>
<polygon fill="#000000" stroke="#000000" points="298.6361,-185.2191 308.974,-182.8999 299.4462,-178.2661 298.6361,-185.2191"/>
<text text-anchor="middle" x="224" y="-177.8" font-family="Times,serif" font-size="14.00" fill="#000000">8/8</text>
</g>
<!-- 1&#45;&gt;3 -->
<g id="edge14" class="edge">
<title>1&#45;&gt;3</title>
<path fill="none" stroke="#000000" d="M138.9488,-159.5478C190.4687,-155.3796 339.1216,-143.3526 401.7003,-138.2896"/>
<polygon fill="#000000" stroke="#000000" points="402.3165,-141.7513 412.0017,-137.4562 401.752,-134.7741 402.3165,-141.7513"/>
<text text-anchor="middle" x="275.5" y="-152.8" font-family="Times,serif" font-size="14.00" fill="#000000">10/10</text>
</g>
<!-- 3&#45;&gt;4 -->
<g id="edge9" class="edge">
<title>3&#45;&gt;4</title>
<path fill="none" stroke="#000000" d="M413.1951,-128.4301C387.3712,-117.0375 336.1738,-95.3953 291,-82 278.3112,-78.2374 263.9817,-75.0989 251.8407,-72.7535"/>
<polygon fill="#000000" stroke="#000000" points="252.301,-69.2794 241.831,-70.9009 251.027,-76.1625 252.301,-69.2794"/>
<text text-anchor="middle" x="327" y="-103.8" font-family="Times,serif" font-size="14.00" fill="#000000">0/20</text>
</g>
<!-- 3&#45;&gt;7 -->
<g id="edge8" class="edge">
<title>3&#45;&gt;7</title>
<path fill="none" stroke="#000000" d="M444.2937,-124.5812C460.3874,-112.5207 487.8502,-94.2652 515,-87 546.3034,-78.6234 583.7321,-82.858 608.5885,-87.5623"/>
<polygon fill="#000000" stroke="#000000" points="607.9186,-90.9977 618.4171,-89.5718 609.3209,-84.1395 607.9186,-90.9977"/>
<text text-anchor="middle" x="533" y="-90.8" font-family="Times,serif" font-size="14.00" fill="#000000">1/1</text>
</g>
<!-- 3&#45;&gt;5 -->
<g id="edge10" class="edge">
<title>3&#45;&gt;5</title>
<path fill="none" stroke="#000000" d="M448.4143,-134.7485C464.0132,-133.6884 486.635,-132.151 504.5599,-130.9328"/>
<polygon fill="#000000" stroke="#000000" points="505.0054,-134.4107 514.7451,-130.2406 504.5308,-127.4268 505.0054,-134.4107"/>
<text text-anchor="middle" x="481.5" y="-136.8" font-family="Times,serif" font-size="14.00" fill="#000000">6/8</text>
</g>
<!-- 3&#45;&gt;6 -->
<g id="edge7" class="edge">
<title>3&#45;&gt;6</title>
<path fill="none" stroke="#000000" d="M446.5487,-143.5514C462.9165,-151.0202 488.2026,-162.5585 507.2072,-171.2305"/>
<polygon fill="#000000" stroke="#000000" points="505.9417,-174.5001 516.4923,-175.4674 508.8477,-168.1318 505.9417,-174.5001"/>
<text text-anchor="middle" x="481.5" y="-169.8" font-family="Times,serif" font-size="14.00" fill="#000000">14/24</text>
</g>
</g>
</svg>
