<?xml version="1.0" encoding="UTF-8" standalone="no"?>
<!DOCTYPE svg PUBLIC "-//W3C//DTD SVG 1.1//EN"
 "http://www.w3.org/Graphics/SVG/1.1/DTD/svg11.dtd">
<!-- Generated by graphviz version 2.43.20190912.0211 (20190912.0211)
 -->
<!-- Title: finite_state_machine Pages: 1 -->
<svg width="338pt" height="223pt"
 viewBox="0.00 0.00 338.00 223.00" xmlns="http://www.w3.org/2000/svg" xmlns:xlink="http://www.w3.org/1999/xlink">
<g id="graph0" class="graph" transform="scale(1 1) rotate(0) translate(4 219)">
<title>finite_state_machine</title>
<polygon fill="white" stroke="transparent" points="-4,4 -4,-219 334,-219 334,4 -4,4"/>
<!-- 4 -->
<g id="node1" class="node">
<title>4</title>
<ellipse fill="none" stroke="black" cx="18" cy="-140" rx="18" ry="18"/>
<text text-anchor="middle" x="18" y="-136.3" font-family="Times,serif" font-size="14.00">4</text>
</g>
<!-- 5 -->
<g id="node2" class="node">
<title>5</title>
<ellipse fill="none" stroke="black" cx="217" cy="-197" rx="18" ry="18"/>
<text text-anchor="middle" x="217" y="-193.3" font-family="Times,serif" font-size="14.00">5</text>
</g>
<!-- 4&#45;&gt;5 -->
<g id="edge1" class="edge">
<title>4&#45;&gt;5</title>
<path fill="none" stroke="black" d="M34.02,-148.97C40.09,-152.39 47.25,-156.14 54,-159 94.75,-176.31 105.72,-179.67 149,-189 161.93,-191.79 176.49,-193.67 188.73,-194.91"/>
<polygon fill="black" stroke="black" points="188.5,-198.4 198.78,-195.83 189.14,-191.43 188.5,-198.4"/>
<text text-anchor="middle" x="113" y="-188.8" font-family="Times,serif" font-size="14.00">0/4</text>
</g>
<!-- 3 -->
<g id="node3" class="node">
<title>3</title>
<ellipse fill="none" stroke="black" cx="113" cy="-140" rx="18" ry="18"/>
<text text-anchor="middle" x="113" y="-136.3" font-family="Times,serif" font-size="14.00">3</text>
</g>
<!-- 4&#45;&gt;3 -->
<g id="edge2" class="edge">
<title>4&#45;&gt;3</title>
<path fill="none" stroke="black" d="M36.06,-140C49.61,-140 68.82,-140 84.53,-140"/>
<polygon fill="black" stroke="black" points="84.74,-143.5 94.74,-140 84.74,-136.5 84.74,-143.5"/>
<text text-anchor="middle" x="65.5" y="-143.8" font-family="Times,serif" font-size="14.00">0/7</text>
</g>
<!-- 3&#45;&gt;5 -->
<g id="edge3" class="edge">
<title>3&#45;&gt;5</title>
<path fill="none" stroke="black" d="M129.7,-147.35C143.44,-153.93 163.85,-164.05 181,-174 185,-176.32 189.17,-178.91 193.19,-181.48"/>
<polygon fill="black" stroke="black" points="191.31,-184.44 201.58,-187.01 195.15,-178.59 191.31,-184.44"/>
<text text-anchor="middle" x="165" y="-177.8" font-family="Times,serif" font-size="14.00">0/20</text>
</g>
<!-- 2 -->
<g id="node4" class="node">
<title>2</title>
<ellipse fill="none" stroke="black" cx="217" cy="-77" rx="18" ry="18"/>
<text text-anchor="middle" x="217" y="-73.3" font-family="Times,serif" font-size="14.00">2</text>
</g>
<!-- 3&#45;&gt;2 -->
<g id="edge4" class="edge">
<title>3&#45;&gt;2</title>
<path fill="none" stroke="black" d="M126.76,-128.26C133.17,-122.67 141.22,-116.11 149,-111 162.3,-102.27 178.12,-94.15 191.06,-88.03"/>
<polygon fill="black" stroke="black" points="192.68,-91.13 200.29,-83.77 189.75,-84.78 192.68,-91.13"/>
<text text-anchor="middle" x="165" y="-114.8" font-family="Times,serif" font-size="14.00">0/9</text>
</g>
<!-- 2&#45;&gt;4 -->
<g id="edge5" class="edge">
<title>2&#45;&gt;4</title>
<path fill="none" stroke="black" d="M198.71,-78.19C174.81,-80.23 130.6,-85.47 95,-98 76.22,-104.61 56.59,-115.58 41.98,-124.65"/>
<polygon fill="black" stroke="black" points="39.72,-121.94 33.17,-130.27 43.48,-127.84 39.72,-121.94"/>
<text text-anchor="middle" x="113" y="-101.8" font-family="Times,serif" font-size="14.00">0/14</text>
</g>
<!-- 1 -->
<g id="node5" class="node">
<title>1</title>
<ellipse fill="none" stroke="black" cx="312" cy="-77" rx="18" ry="18"/>
<text text-anchor="middle" x="312" y="-73.3" font-family="Times,serif" font-size="14.00">1</text>
</g>
<!-- 2&#45;&gt;1 -->
<g id="edge6" class="edge">
<title>2&#45;&gt;1</title>
<path fill="none" stroke="black" d="M235.06,-77C248.61,-77 267.82,-77 283.53,-77"/>
<polygon fill="black" stroke="black" points="283.74,-80.5 293.74,-77 283.74,-73.5 283.74,-80.5"/>
<text text-anchor="middle" x="264.5" y="-80.8" font-family="Times,serif" font-size="14.00">0/4</text>
</g>
<!-- 1&#45;&gt;3 -->
<g id="edge7" class="edge">
<title>1&#45;&gt;3</title>
<path fill="none" stroke="black" d="M295.98,-85.97C289.91,-89.39 282.75,-93.14 276,-96 230.45,-115.34 174.05,-128.39 141.24,-134.97"/>
<polygon fill="black" stroke="black" points="140.21,-131.61 131.06,-136.96 141.55,-138.48 140.21,-131.61"/>
<text text-anchor="middle" x="217" y="-124.8" font-family="Times,serif" font-size="14.00">0/12</text>
</g>
<!-- 0 -->
<g id="node6" class="node">
<title>0</title>
<ellipse fill="none" stroke="black" cx="113" cy="-18" rx="18" ry="18"/>
<text text-anchor="middle" x="113" y="-14.3" font-family="Times,serif" font-size="14.00">0</text>
</g>
<!-- 0&#45;&gt;2 -->
<g id="edge8" class="edge">
<title>0&#45;&gt;2</title>
<path fill="none" stroke="black" d="M130.32,-23.87C144.28,-29.22 164.66,-37.84 181,-48 185.94,-51.07 190.94,-54.78 195.55,-58.51"/>
<polygon fill="black" stroke="black" points="193.45,-61.31 203.35,-65.09 197.97,-55.96 193.45,-61.31"/>
<text text-anchor="middle" x="165" y="-51.8" font-family="Times,serif" font-size="14.00">0/13</text>
</g>
<!-- 0&#45;&gt;1 -->
<g id="edge9" class="edge">
<title>0&#45;&gt;1</title>
<path fill="none" stroke="black" d="M131.28,-18.46C155.18,-19.53 199.38,-23.11 235,-35 253.89,-41.3 273.51,-52.28 288.09,-61.43"/>
<polygon fill="black" stroke="black" points="286.58,-64.63 296.88,-67.12 290.38,-58.75 286.58,-64.63"/>
<text text-anchor="middle" x="217" y="-38.8" font-family="Times,serif" font-size="14.00">0/16</text>
</g>
</g>
</svg>
