<?xml version="1.0" encoding="UTF-8" standalone="no"?>
<!DOCTYPE svg PUBLIC "-//W3C//DTD SVG 1.1//EN"
 "http://www.w3.org/Graphics/SVG/1.1/DTD/svg11.dtd">
<!-- Generated by graphviz version 2.43.20190912.0211 (20190912.0211)
 -->
<!-- Title: finite_state_machine Pages: 1 -->
<svg width="424pt" height="154pt"
 viewBox="0.00 0.00 424.00 154.00" xmlns="http://www.w3.org/2000/svg" xmlns:xlink="http://www.w3.org/1999/xlink">
<g id="graph0" class="graph" transform="scale(1 1) rotate(0) translate(4 150)">
<title>finite_state_machine</title>
<polygon fill="white" stroke="transparent" points="-4,4 -4,-150 420,-150 420,4 -4,4"/>
<!-- 0 -->
<g id="node1" class="node">
<title>0</title>
<ellipse fill="none" stroke="black" cx="18" cy="-77" rx="18" ry="18"/>
<text text-anchor="middle" x="18" y="-73.3" font-family="Times,serif" font-size="14.00">0</text>
</g>
<!-- 2 -->
<g id="node2" class="node">
<title>2</title>
<ellipse fill="none" stroke="black" cx="208" cy="-128" rx="18" ry="18"/>
<text text-anchor="middle" x="208" y="-124.3" font-family="Times,serif" font-size="14.00">2</text>
</g>
<!-- 0&#45;&gt;2 -->
<g id="edge1" class="edge">
<title>0&#45;&gt;2</title>
<path fill="none" stroke="black" d="M34.02,-85.97C40.09,-89.39 47.25,-93.14 54,-96 94.75,-113.31 105.36,-118.5 149,-126 158.88,-127.7 169.85,-128.38 179.56,-128.58"/>
<polygon fill="black" stroke="black" points="179.86,-132.08 189.87,-128.62 179.89,-125.08 179.86,-132.08"/>
<text text-anchor="middle" x="113" y="-125.8" font-family="Times,serif" font-size="14.00">0/0</text>
</g>
<!-- 5 -->
<g id="node3" class="node">
<title>5</title>
<ellipse fill="none" stroke="black" cx="113" cy="-77" rx="18" ry="18"/>
<text text-anchor="middle" x="113" y="-73.3" font-family="Times,serif" font-size="14.00">5</text>
</g>
<!-- 0&#45;&gt;5 -->
<g id="edge2" class="edge">
<title>0&#45;&gt;5</title>
<path fill="none" stroke="black" d="M36.06,-77C49.61,-77 68.82,-77 84.53,-77"/>
<polygon fill="black" stroke="black" points="84.74,-80.5 94.74,-77 84.74,-73.5 84.74,-80.5"/>
<text text-anchor="middle" x="65.5" y="-80.8" font-family="Times,serif" font-size="14.00">0/0</text>
</g>
<!-- 1 -->
<g id="node4" class="node">
<title>1</title>
<ellipse fill="none" stroke="black" cx="208" cy="-18" rx="18" ry="18"/>
<text text-anchor="middle" x="208" y="-14.3" font-family="Times,serif" font-size="14.00">1</text>
</g>
<!-- 0&#45;&gt;1 -->
<g id="edge3" class="edge">
<title>0&#45;&gt;1</title>
<path fill="none" stroke="black" d="M33.14,-67.17C47.89,-57.41 72.02,-42.81 95,-35 122.97,-25.49 156.68,-21.29 179.76,-19.44"/>
<polygon fill="black" stroke="black" points="180.13,-22.92 189.86,-18.72 179.64,-15.94 180.13,-22.92"/>
<text text-anchor="middle" x="113" y="-38.8" font-family="Times,serif" font-size="14.00">0/0</text>
</g>
<!-- 4 -->
<g id="node5" class="node">
<title>4</title>
<ellipse fill="none" stroke="black" cx="303" cy="-71" rx="18" ry="18"/>
<text text-anchor="middle" x="303" y="-67.3" font-family="Times,serif" font-size="14.00">4</text>
</g>
<!-- 2&#45;&gt;4 -->
<g id="edge4" class="edge">
<title>2&#45;&gt;4</title>
<path fill="none" stroke="black" d="M223.94,-118.84C238.59,-109.87 261.13,-96.05 278.24,-85.56"/>
<polygon fill="black" stroke="black" points="280.4,-88.35 287.1,-80.14 276.74,-82.38 280.4,-88.35"/>
<text text-anchor="middle" x="255.5" y="-109.8" font-family="Times,serif" font-size="14.00">0/0</text>
</g>
<!-- 5&#45;&gt;2 -->
<g id="edge6" class="edge">
<title>5&#45;&gt;2</title>
<path fill="none" stroke="black" d="M129.36,-85.42C143.98,-93.44 166.22,-105.64 183.15,-114.92"/>
<polygon fill="black" stroke="black" points="181.48,-118 191.93,-119.74 184.84,-111.86 181.48,-118"/>
<text text-anchor="middle" x="160.5" y="-111.8" font-family="Times,serif" font-size="14.00">0/0</text>
</g>
<!-- 5&#45;&gt;1 -->
<g id="edge7" class="edge">
<title>5&#45;&gt;1</title>
<path fill="none" stroke="black" d="M126.78,-65.28C133.19,-59.7 141.23,-53.14 149,-48 159.42,-41.1 171.63,-34.58 182.14,-29.39"/>
<polygon fill="black" stroke="black" points="183.73,-32.51 191.23,-25.03 180.7,-26.2 183.73,-32.51"/>
<text text-anchor="middle" x="160.5" y="-51.8" font-family="Times,serif" font-size="14.00">0/0</text>
</g>
<!-- 5&#45;&gt;4 -->
<g id="edge5" class="edge">
<title>5&#45;&gt;4</title>
<path fill="none" stroke="black" d="M131.02,-76.46C163.65,-75.42 235.29,-73.13 274.69,-71.87"/>
<polygon fill="black" stroke="black" points="275,-75.36 284.89,-71.55 274.78,-68.37 275,-75.36"/>
<text text-anchor="middle" x="208" y="-77.8" font-family="Times,serif" font-size="14.00">0/0</text>
</g>
<!-- 1&#45;&gt;4 -->
<g id="edge8" class="edge">
<title>1&#45;&gt;4</title>
<path fill="none" stroke="black" d="M224.5,-25.47C236.32,-31.29 252.91,-39.76 267,-48 270.99,-50.33 275.16,-52.93 279.17,-55.51"/>
<polygon fill="black" stroke="black" points="277.29,-58.46 287.57,-61.03 281.14,-52.61 277.29,-58.46"/>
<text text-anchor="middle" x="255.5" y="-51.8" font-family="Times,serif" font-size="14.00">0/0</text>
</g>
<!-- 3 -->
<g id="node6" class="node">
<title>3</title>
<ellipse fill="none" stroke="black" cx="398" cy="-30" rx="18" ry="18"/>
<text text-anchor="middle" x="398" y="-26.3" font-family="Times,serif" font-size="14.00">3</text>
</g>
<!-- 1&#45;&gt;3 -->
<g id="edge9" class="edge">
<title>1&#45;&gt;3</title>
<path fill="none" stroke="black" d="M226.02,-19.09C258.65,-21.17 330.29,-25.74 369.69,-28.26"/>
<polygon fill="black" stroke="black" points="369.68,-31.76 379.89,-28.91 370.13,-24.78 369.68,-31.76"/>
<text text-anchor="middle" x="303" y="-28.8" font-family="Times,serif" font-size="14.00">0/0</text>
</g>
<!-- 4&#45;&gt;3 -->
<g id="edge10" class="edge">
<title>4&#45;&gt;3</title>
<path fill="none" stroke="black" d="M319.78,-64.04C334.07,-57.74 355.38,-48.35 371.99,-41.02"/>
<polygon fill="black" stroke="black" points="373.41,-44.23 381.15,-36.99 370.58,-37.82 373.41,-44.23"/>
<text text-anchor="middle" x="350.5" y="-58.8" font-family="Times,serif" font-size="14.00">0/0</text>
</g>
</g>
</svg>
