<?xml version="1.0" encoding="UTF-8" standalone="no"?>
<!DOCTYPE svg PUBLIC "-//W3C//DTD SVG 1.1//EN"
 "http://www.w3.org/Graphics/SVG/1.1/DTD/svg11.dtd">
<!-- Generated by graphviz version 2.43.20190912.0211 (20190912.0211)
 -->
<!-- Title: finite_state_machine Pages: 1 -->
<svg width="329pt" height="86pt"
 viewBox="0.00 0.00 329.00 86.00" xmlns="http://www.w3.org/2000/svg" xmlns:xlink="http://www.w3.org/1999/xlink">
<g id="graph0" class="graph" transform="scale(1 1) rotate(0) translate(4 82)">
<title>finite_state_machine</title>
<polygon fill="white" stroke="transparent" points="-4,4 -4,-82 325,-82 325,4 -4,4"/>
<!-- 1 -->
<g id="node1" class="node">
<title>1</title>
<ellipse fill="none" stroke="black" cx="113" cy="-60" rx="18" ry="18"/>
<text text-anchor="middle" x="113" y="-56.3" font-family="Times,serif" font-size="14.00">1</text>
</g>
<!-- 3 -->
<g id="node2" class="node">
<title>3</title>
<ellipse fill="none" stroke="black" cx="303" cy="-45" rx="18" ry="18"/>
<text text-anchor="middle" x="303" y="-41.3" font-family="Times,serif" font-size="14.00">3</text>
</g>
<!-- 1&#45;&gt;3 -->
<g id="edge1" class="edge">
<title>1&#45;&gt;3</title>
<path fill="none" stroke="black" d="M131.08,-60.25C159.44,-60.43 218.02,-59.84 267,-53 269.74,-52.62 272.58,-52.13 275.41,-51.58"/>
<polygon fill="black" stroke="black" points="276.34,-54.96 285.37,-49.42 274.86,-48.12 276.34,-54.96"/>
<text text-anchor="middle" x="208" y="-62.8" font-family="Times,serif" font-size="14.00">1/1</text>
</g>
<!-- 2 -->
<g id="node3" class="node">
<title>2</title>
<ellipse fill="none" stroke="black" cx="208" cy="-18" rx="18" ry="18"/>
<text text-anchor="middle" x="208" y="-14.3" font-family="Times,serif" font-size="14.00">2</text>
</g>
<!-- 1&#45;&gt;2 -->
<g id="edge2" class="edge">
<title>1&#45;&gt;2</title>
<path fill="none" stroke="black" d="M129.61,-52.23C135.64,-49.28 142.61,-45.93 149,-43 159.73,-38.09 171.68,-32.89 181.94,-28.51"/>
<polygon fill="black" stroke="black" points="183.32,-31.73 191.16,-24.6 180.59,-25.28 183.32,-31.73"/>
<text text-anchor="middle" x="160.5" y="-46.8" font-family="Times,serif" font-size="14.00">1/3</text>
</g>
<!-- 2&#45;&gt;3 -->
<g id="edge3" class="edge">
<title>2&#45;&gt;3</title>
<path fill="none" stroke="black" d="M225.63,-22.83C239.51,-26.86 259.56,-32.68 275.63,-37.35"/>
<polygon fill="black" stroke="black" points="274.94,-40.79 285.52,-40.21 276.89,-34.07 274.94,-40.79"/>
<text text-anchor="middle" x="255.5" y="-37.8" font-family="Times,serif" font-size="14.00">5/5</text>
</g>
<!-- 0 -->
<g id="node4" class="node">
<title>0</title>
<ellipse fill="none" stroke="black" cx="18" cy="-30" rx="18" ry="18"/>
<text text-anchor="middle" x="18" y="-26.3" font-family="Times,serif" font-size="14.00">0</text>
</g>
<!-- 0&#45;&gt;1 -->
<g id="edge5" class="edge">
<title>0&#45;&gt;1</title>
<path fill="none" stroke="black" d="M35.63,-35.36C49.51,-39.84 69.56,-46.31 85.63,-51.5"/>
<polygon fill="black" stroke="black" points="84.93,-54.94 95.52,-54.68 87.07,-48.28 84.93,-54.94"/>
<text text-anchor="middle" x="65.5" y="-51.8" font-family="Times,serif" font-size="14.00">2/2</text>
</g>
<!-- 0&#45;&gt;2 -->
<g id="edge4" class="edge">
<title>0&#45;&gt;2</title>
<path fill="none" stroke="black" d="M35.81,-26.57C51.15,-23.62 74.49,-19.61 95,-18 123.82,-15.74 156.94,-16.1 179.65,-16.81"/>
<polygon fill="black" stroke="black" points="179.77,-20.31 189.89,-17.17 180.02,-13.32 179.77,-20.31"/>
<text text-anchor="middle" x="113" y="-21.8" font-family="Times,serif" font-size="14.00">4/4</text>
</g>
</g>
</svg>
