<?xml version="1.0" encoding="UTF-8" standalone="no"?>
<!DOCTYPE svg PUBLIC "-//W3C//DTD SVG 1.1//EN"
 "http://www.w3.org/Graphics/SVG/1.1/DTD/svg11.dtd">
<!-- Generated by graphviz version 2.43.20190912.0211 (20190912.0211)
 -->
<!-- Title: finite_state_machine Pages: 1 -->
<svg width="329pt" height="223pt"
 viewBox="0.00 0.00 329.00 223.00" xmlns="http://www.w3.org/2000/svg" xmlns:xlink="http://www.w3.org/1999/xlink">
<g id="graph0" class="graph" transform="scale(1 1) rotate(0) translate(4 219)">
<title>finite_state_machine</title>
<polygon fill="white" stroke="transparent" points="-4,4 -4,-219 325,-219 325,4 -4,4"/>
<!-- 4 -->
<g id="node1" class="node">
<title>4</title>
<ellipse fill="none" stroke="black" cx="18" cy="-140" rx="18" ry="18"/>
<text text-anchor="middle" x="18" y="-136.3" font-family="Times,serif" font-size="14.00">4</text>
</g>
<!-- 5 -->
<g id="node2" class="node">
<title>5</title>
<ellipse fill="none" stroke="black" cx="208" cy="-197" rx="18" ry="18"/>
<text text-anchor="middle" x="208" y="-193.3" font-family="Times,serif" font-size="14.00">5</text>
</g>
<!-- 4&#45;&gt;5 -->
<g id="edge1" class="edge">
<title>4&#45;&gt;5</title>
<path fill="none" stroke="black" d="M34.02,-148.97C40.09,-152.39 47.25,-156.14 54,-159 94.75,-176.31 105.8,-179.27 149,-189 158.98,-191.25 170.07,-192.96 179.86,-194.22"/>
<polygon fill="black" stroke="black" points="179.52,-197.7 189.86,-195.4 180.34,-190.75 179.52,-197.7"/>
<text text-anchor="middle" x="113" y="-187.8" font-family="Times,serif" font-size="14.00">0/0</text>
</g>
<!-- 3 -->
<g id="node3" class="node">
<title>3</title>
<ellipse fill="none" stroke="black" cx="113" cy="-140" rx="18" ry="18"/>
<text text-anchor="middle" x="113" y="-136.3" font-family="Times,serif" font-size="14.00">3</text>
</g>
<!-- 4&#45;&gt;3 -->
<g id="edge2" class="edge">
<title>4&#45;&gt;3</title>
<path fill="none" stroke="black" d="M36.06,-140C49.61,-140 68.82,-140 84.53,-140"/>
<polygon fill="black" stroke="black" points="84.74,-143.5 94.74,-140 84.74,-136.5 84.74,-143.5"/>
<text text-anchor="middle" x="65.5" y="-143.8" font-family="Times,serif" font-size="14.00">0/0</text>
</g>
<!-- 3&#45;&gt;5 -->
<g id="edge3" class="edge">
<title>3&#45;&gt;5</title>
<path fill="none" stroke="black" d="M128.9,-148.46C140.69,-155.21 157.52,-165.01 172,-174 175.93,-176.44 180.06,-179.09 184.06,-181.69"/>
<polygon fill="black" stroke="black" points="182.18,-184.64 192.46,-187.21 186.03,-178.79 182.18,-184.64"/>
<text text-anchor="middle" x="160.5" y="-177.8" font-family="Times,serif" font-size="14.00">0/0</text>
</g>
<!-- 2 -->
<g id="node4" class="node">
<title>2</title>
<ellipse fill="none" stroke="black" cx="208" cy="-77" rx="18" ry="18"/>
<text text-anchor="middle" x="208" y="-73.3" font-family="Times,serif" font-size="14.00">2</text>
</g>
<!-- 3&#45;&gt;2 -->
<g id="edge4" class="edge">
<title>3&#45;&gt;2</title>
<path fill="none" stroke="black" d="M126.9,-128.46C133.34,-122.92 141.37,-116.34 149,-111 159.8,-103.44 172.35,-95.93 183.02,-89.9"/>
<polygon fill="black" stroke="black" points="184.76,-92.94 191.81,-85.02 181.37,-86.82 184.76,-92.94"/>
<text text-anchor="middle" x="160.5" y="-114.8" font-family="Times,serif" font-size="14.00">0/0</text>
</g>
<!-- 2&#45;&gt;4 -->
<g id="edge5" class="edge">
<title>2&#45;&gt;4</title>
<path fill="none" stroke="black" d="M189.86,-78.5C167.49,-80.84 127.39,-86.35 95,-98 76.26,-104.74 56.63,-115.7 42.02,-124.74"/>
<polygon fill="black" stroke="black" points="39.76,-122.02 33.19,-130.33 43.51,-127.93 39.76,-122.02"/>
<text text-anchor="middle" x="113" y="-101.8" font-family="Times,serif" font-size="14.00">0/0</text>
</g>
<!-- 1 -->
<g id="node5" class="node">
<title>1</title>
<ellipse fill="none" stroke="black" cx="303" cy="-77" rx="18" ry="18"/>
<text text-anchor="middle" x="303" y="-73.3" font-family="Times,serif" font-size="14.00">1</text>
</g>
<!-- 2&#45;&gt;1 -->
<g id="edge6" class="edge">
<title>2&#45;&gt;1</title>
<path fill="none" stroke="black" d="M226.06,-77C239.61,-77 258.82,-77 274.53,-77"/>
<polygon fill="black" stroke="black" points="274.74,-80.5 284.74,-77 274.74,-73.5 274.74,-80.5"/>
<text text-anchor="middle" x="255.5" y="-80.8" font-family="Times,serif" font-size="14.00">0/0</text>
</g>
<!-- 1&#45;&gt;3 -->
<g id="edge7" class="edge">
<title>1&#45;&gt;3</title>
<path fill="none" stroke="black" d="M286.98,-85.97C280.91,-89.39 273.75,-93.14 267,-96 224.44,-114.07 172.18,-127.31 141.06,-134.32"/>
<polygon fill="black" stroke="black" points="140,-130.97 130.99,-136.54 141.5,-137.81 140,-130.97"/>
<text text-anchor="middle" x="208" y="-124.8" font-family="Times,serif" font-size="14.00">0/0</text>
</g>
<!-- 0 -->
<g id="node6" class="node">
<title>0</title>
<ellipse fill="none" stroke="black" cx="113" cy="-18" rx="18" ry="18"/>
<text text-anchor="middle" x="113" y="-14.3" font-family="Times,serif" font-size="14.00">0</text>
</g>
<!-- 0&#45;&gt;2 -->
<g id="edge8" class="edge">
<title>0&#45;&gt;2</title>
<path fill="none" stroke="black" d="M129.77,-25.03C141.74,-30.62 158.39,-38.99 172,-48 176.85,-51.21 181.81,-54.98 186.42,-58.72"/>
<polygon fill="black" stroke="black" points="184.32,-61.52 194.22,-65.28 188.83,-56.17 184.32,-61.52"/>
<text text-anchor="middle" x="160.5" y="-51.8" font-family="Times,serif" font-size="14.00">0/0</text>
</g>
<!-- 0&#45;&gt;1 -->
<g id="edge9" class="edge">
<title>0&#45;&gt;1</title>
<path fill="none" stroke="black" d="M131.14,-18.72C153.5,-20.09 193.6,-23.98 226,-35 244.85,-41.41 264.48,-52.38 279.06,-61.51"/>
<polygon fill="black" stroke="black" points="277.56,-64.7 287.86,-67.17 281.35,-58.81 277.56,-64.7"/>
<text text-anchor="middle" x="208" y="-38.8" font-family="Times,serif" font-size="14.00">0/0</text>
</g>
</g>
</svg>
