<?xml version="1.0" encoding="UTF-8" standalone="no"?>
<!DOCTYPE svg PUBLIC "-//W3C//DTD SVG 1.1//EN"
 "http://www.w3.org/Graphics/SVG/1.1/DTD/svg11.dtd">
<!-- Generated by graphviz version 2.43.20190912.0211 (20190912.0211)
 -->
<!-- Title: finite_state_machine Pages: 1 -->
<svg width="308pt" height="147pt"
 viewBox="0.00 0.00 308.00 147.00" xmlns="http://www.w3.org/2000/svg" xmlns:xlink="http://www.w3.org/1999/xlink">
<g id="graph0" class="graph" transform="scale(1 1) rotate(0) translate(4 143)">
<title>finite_state_machine</title>
<polygon fill="white" stroke="transparent" points="-4,4 -4,-143 304,-143 304,4 -4,4"/>
<!-- 4 -->
<g id="node1" class="node">
<title>4</title>
<ellipse fill="none" stroke="black" cx="18" cy="-102" rx="18" ry="18"/>
<text text-anchor="middle" x="18" y="-98.3" font-family="Times,serif" font-size="14.00">4</text>
</g>
<!-- 1 -->
<g id="node2" class="node">
<title>1</title>
<ellipse fill="none" stroke="black" cx="109" cy="-52" rx="18" ry="18"/>
<text text-anchor="middle" x="109" y="-48.3" font-family="Times,serif" font-size="14.00">1</text>
</g>
<!-- 4&#45;&gt;1 -->
<g id="edge1" class="edge">
<title>4&#45;&gt;1</title>
<path fill="none" stroke="black" d="M31.55,-89.92C37.91,-84.25 45.97,-77.72 54,-73 62.57,-67.96 72.57,-63.69 81.62,-60.33"/>
<polygon fill="black" stroke="black" points="83.02,-63.55 91.3,-56.95 80.71,-56.94 83.02,-63.55"/>
<text text-anchor="middle" x="63.5" y="-76.8" font-family="Times,serif" font-size="14.00">5</text>
</g>
<!-- 5 -->
<g id="node3" class="node">
<title>5</title>
<ellipse fill="none" stroke="black" cx="282" cy="-114" rx="18" ry="18"/>
<text text-anchor="middle" x="282" y="-110.3" font-family="Times,serif" font-size="14.00">5</text>
</g>
<!-- 4&#45;&gt;5 -->
<g id="edge2" class="edge">
<title>4&#45;&gt;5</title>
<path fill="none" stroke="black" d="M34.66,-109.65C40.57,-112.17 47.46,-114.67 54,-116 125.02,-130.49 211.16,-123.13 254.03,-117.83"/>
<polygon fill="black" stroke="black" points="254.5,-121.3 263.97,-116.55 253.6,-114.36 254.5,-121.3"/>
<text text-anchor="middle" x="154.5" y="-127.8" font-family="Times,serif" font-size="14.00">10</text>
</g>
<!-- 2 -->
<g id="node4" class="node">
<title>2</title>
<ellipse fill="none" stroke="black" cx="200" cy="-52" rx="18" ry="18"/>
<text text-anchor="middle" x="200" y="-48.3" font-family="Times,serif" font-size="14.00">2</text>
</g>
<!-- 1&#45;&gt;2 -->
<g id="edge8" class="edge">
<title>1&#45;&gt;2</title>
<path fill="none" stroke="black" d="M127.16,-52C139.72,-52 157.02,-52 171.5,-52"/>
<polygon fill="black" stroke="black" points="171.89,-55.5 181.89,-52 171.89,-48.5 171.89,-55.5"/>
<text text-anchor="middle" x="154.5" y="-55.8" font-family="Times,serif" font-size="14.00">12</text>
</g>
<!-- 2&#45;&gt;5 -->
<g id="edge4" class="edge">
<title>2&#45;&gt;5</title>
<path fill="none" stroke="black" d="M214.93,-62.8C227.09,-72.22 244.95,-86.06 259.03,-96.97"/>
<polygon fill="black" stroke="black" points="257.18,-99.96 267.22,-103.32 261.46,-94.43 257.18,-99.96"/>
<text text-anchor="middle" x="241" y="-89.8" font-family="Times,serif" font-size="14.00">7</text>
</g>
<!-- 3 -->
<g id="node5" class="node">
<title>3</title>
<ellipse fill="none" stroke="black" cx="282" cy="-34" rx="18" ry="18"/>
<text text-anchor="middle" x="282" y="-30.3" font-family="Times,serif" font-size="14.00">3</text>
</g>
<!-- 2&#45;&gt;3 -->
<g id="edge3" class="edge">
<title>2&#45;&gt;3</title>
<path fill="none" stroke="black" d="M215.8,-43.06C221.84,-39.89 229.04,-36.68 236,-35 241.6,-33.65 247.71,-32.99 253.57,-32.74"/>
<polygon fill="black" stroke="black" points="253.71,-36.24 263.68,-32.67 253.66,-29.24 253.71,-36.24"/>
<text text-anchor="middle" x="241" y="-38.8" font-family="Times,serif" font-size="14.00">3</text>
</g>
<!-- 3&#45;&gt;4 -->
<g id="edge5" class="edge">
<title>3&#45;&gt;4</title>
<path fill="none" stroke="black" d="M274.97,-50.79C269.49,-63.37 260.08,-79.77 246,-88 212.9,-107.34 99.4,-105.39 46.52,-103.33"/>
<polygon fill="black" stroke="black" points="46.35,-99.82 36.21,-102.89 46.05,-106.81 46.35,-99.82"/>
<text text-anchor="middle" x="154.5" y="-106.8" font-family="Times,serif" font-size="14.00">10</text>
</g>
<!-- 0 -->
<g id="node6" class="node">
<title>0</title>
<ellipse fill="none" stroke="black" cx="18" cy="-18" rx="18" ry="18"/>
<text text-anchor="middle" x="18" y="-14.3" font-family="Times,serif" font-size="14.00">0</text>
</g>
<!-- 0&#45;&gt;1 -->
<g id="edge7" class="edge">
<title>0&#45;&gt;1</title>
<path fill="none" stroke="black" d="M35.76,-22.59C46.54,-25.7 60.76,-30.13 73,-35 76.37,-36.34 79.86,-37.86 83.27,-39.44"/>
<polygon fill="black" stroke="black" points="82.01,-42.71 92.54,-43.88 85.04,-36.4 82.01,-42.71"/>
<text text-anchor="middle" x="63.5" y="-38.8" font-family="Times,serif" font-size="14.00">15</text>
</g>
<!-- 0&#45;&gt;3 -->
<g id="edge6" class="edge">
<title>0&#45;&gt;3</title>
<path fill="none" stroke="black" d="M36.07,-17.99C70.54,-18.1 150.85,-19.04 218,-25 229.93,-26.06 243.04,-27.83 254.21,-29.53"/>
<polygon fill="black" stroke="black" points="253.79,-33.01 264.21,-31.1 254.88,-26.09 253.79,-33.01"/>
<text text-anchor="middle" x="154.5" y="-24.8" font-family="Times,serif" font-size="14.00">4</text>
</g>
</g>
</svg>
