<?xml version="1.0" encoding="UTF-8" standalone="no"?>
<!DOCTYPE svg PUBLIC "-//W3C//DTD SVG 1.1//EN"
 "http://www.w3.org/Graphics/SVG/1.1/DTD/svg11.dtd">
<!-- Generated by graphviz version 2.43.20190912.0211 (20190912.0211)
 -->
<!-- Title: finite_state_machine Pages: 1 -->
<svg width="365pt" height="149pt"
 viewBox="0.00 0.00 365.00 149.00" xmlns="http://www.w3.org/2000/svg" xmlns:xlink="http://www.w3.org/1999/xlink">
<g id="graph0" class="graph" transform="scale(1 1) rotate(0) translate(4 145)">
<title>finite_state_machine</title>
<polygon fill="white" stroke="transparent" points="-4,4 -4,-145 361,-145 361,4 -4,4"/>
<!-- 4 -->
<g id="node1" class="node">
<title>4</title>
<ellipse fill="none" stroke="black" cx="18" cy="-102" rx="18" ry="18"/>
<text text-anchor="middle" x="18" y="-98.3" font-family="Times,serif" font-size="14.00">4</text>
</g>
<!-- 1 -->
<g id="node2" class="node">
<title>1</title>
<ellipse fill="none" stroke="black" cx="131" cy="-52" rx="18" ry="18"/>
<text text-anchor="middle" x="131" y="-48.3" font-family="Times,serif" font-size="14.00">1</text>
</g>
<!-- 4&#45;&gt;1 -->
<g id="edge1" class="edge">
<title>4&#45;&gt;1</title>
<path fill="none" stroke="black" d="M31.35,-89.56C37.66,-83.8 45.74,-77.31 54,-73 69.24,-65.05 87.8,-59.85 102.77,-56.61"/>
<polygon fill="black" stroke="black" points="103.81,-59.97 112.94,-54.59 102.45,-53.11 103.81,-59.97"/>
<text text-anchor="middle" x="74.5" y="-76.8" font-family="Times,serif" font-size="14.00">0/5</text>
</g>
<!-- 5 -->
<g id="node3" class="node">
<title>5</title>
<ellipse fill="none" stroke="black" cx="339" cy="-114" rx="18" ry="18"/>
<text text-anchor="middle" x="339" y="-110.3" font-family="Times,serif" font-size="14.00">5</text>
</g>
<!-- 4&#45;&gt;5 -->
<g id="edge2" class="edge">
<title>4&#45;&gt;5</title>
<path fill="none" stroke="black" d="M34.65,-109.67C40.57,-112.19 47.46,-114.68 54,-116 146.76,-134.72 260.05,-124.25 310.96,-117.83"/>
<polygon fill="black" stroke="black" points="311.67,-121.27 321.13,-116.5 310.75,-114.33 311.67,-121.27"/>
<text text-anchor="middle" x="187.5" y="-129.8" font-family="Times,serif" font-size="14.00">7/10</text>
</g>
<!-- 2 -->
<g id="node4" class="node">
<title>2</title>
<ellipse fill="none" stroke="black" cx="244" cy="-52" rx="18" ry="18"/>
<text text-anchor="middle" x="244" y="-48.3" font-family="Times,serif" font-size="14.00">2</text>
</g>
<!-- 1&#45;&gt;2 -->
<g id="edge8" class="edge">
<title>1&#45;&gt;2</title>
<path fill="none" stroke="black" d="M149.34,-52C167.1,-52 194.96,-52 215.68,-52"/>
<polygon fill="black" stroke="black" points="215.78,-55.5 225.78,-52 215.78,-48.5 215.78,-55.5"/>
<text text-anchor="middle" x="187.5" y="-55.8" font-family="Times,serif" font-size="14.00">10/12</text>
</g>
<!-- 2&#45;&gt;5 -->
<g id="edge4" class="edge">
<title>2&#45;&gt;5</title>
<path fill="none" stroke="black" d="M259.53,-61.69C274.41,-71.61 297.75,-87.17 315.11,-98.74"/>
<polygon fill="black" stroke="black" points="313.31,-101.75 323.57,-104.38 317.19,-95.92 313.31,-101.75"/>
<text text-anchor="middle" x="291.5" y="-93.8" font-family="Times,serif" font-size="14.00">7/7</text>
</g>
<!-- 3 -->
<g id="node5" class="node">
<title>3</title>
<ellipse fill="none" stroke="black" cx="339" cy="-34" rx="18" ry="18"/>
<text text-anchor="middle" x="339" y="-30.3" font-family="Times,serif" font-size="14.00">3</text>
</g>
<!-- 2&#45;&gt;3 -->
<g id="edge3" class="edge">
<title>2&#45;&gt;3</title>
<path fill="none" stroke="black" d="M259.79,-43.05C265.84,-39.87 273.04,-36.67 280,-35 289.93,-32.63 301.08,-31.98 310.94,-32.06"/>
<polygon fill="black" stroke="black" points="310.9,-35.56 321.01,-32.38 311.13,-28.56 310.9,-35.56"/>
<text text-anchor="middle" x="291.5" y="-38.8" font-family="Times,serif" font-size="14.00">3/3</text>
</g>
<!-- 3&#45;&gt;4 -->
<g id="edge5" class="edge">
<title>3&#45;&gt;4</title>
<path fill="none" stroke="black" d="M332,-50.83C326.53,-63.44 317.13,-79.86 303,-88 259.92,-112.81 108.84,-107.25 46.36,-103.75"/>
<polygon fill="black" stroke="black" points="46.3,-100.24 36.11,-103.14 45.89,-107.22 46.3,-100.24"/>
<text text-anchor="middle" x="187.5" y="-109.8" font-family="Times,serif" font-size="14.00">7/10</text>
</g>
<!-- 0 -->
<g id="node6" class="node">
<title>0</title>
<ellipse fill="none" stroke="black" cx="18" cy="-18" rx="18" ry="18"/>
<text text-anchor="middle" x="18" y="-14.3" font-family="Times,serif" font-size="14.00">0</text>
</g>
<!-- 0&#45;&gt;1 -->
<g id="edge7" class="edge">
<title>0&#45;&gt;1</title>
<path fill="none" stroke="black" d="M35.92,-20.62C51.53,-23.31 75.22,-28.09 95,-35 98.59,-36.25 102.3,-37.78 105.89,-39.4"/>
<polygon fill="black" stroke="black" points="104.46,-42.59 115,-43.76 107.49,-36.28 104.46,-42.59"/>
<text text-anchor="middle" x="74.5" y="-38.8" font-family="Times,serif" font-size="14.00">10/15</text>
</g>
<!-- 0&#45;&gt;3 -->
<g id="edge6" class="edge">
<title>0&#45;&gt;3</title>
<path fill="none" stroke="black" d="M36.1,-18.23C75.79,-18.81 177.28,-20.63 262,-25 280.25,-25.94 284.86,-25.79 303,-28 305.57,-28.31 308.24,-28.69 310.91,-29.09"/>
<polygon fill="black" stroke="black" points="310.52,-32.57 320.96,-30.74 311.66,-25.67 310.52,-32.57"/>
<text text-anchor="middle" x="187.5" y="-25.8" font-family="Times,serif" font-size="14.00">4/4</text>
</g>
</g>
</svg>
