<?xml version="1.0" encoding="UTF-8" standalone="no"?>
<!DOCTYPE svg PUBLIC "-//W3C//DTD SVG 1.1//EN"
 "http://www.w3.org/Graphics/SVG/1.1/DTD/svg11.dtd">
<!-- Generated by graphviz version 2.43.20190912.0211 (20190912.0211)
 -->
<!-- Title: finite_state_machine Pages: 1 -->
<svg width="347pt" height="148pt"
 viewBox="0.00 0.00 347.00 148.00" xmlns="http://www.w3.org/2000/svg" xmlns:xlink="http://www.w3.org/1999/xlink">
<g id="graph0" class="graph" transform="scale(1 1) rotate(0) translate(4 144)">
<title>finite_state_machine</title>
<polygon fill="white" stroke="transparent" points="-4,4 -4,-144 343,-144 343,4 -4,4"/>
<!-- 4 -->
<g id="node1" class="node">
<title>4</title>
<ellipse fill="none" stroke="black" cx="18" cy="-102" rx="18" ry="18"/>
<text text-anchor="middle" x="18" y="-98.3" font-family="Times,serif" font-size="14.00">4</text>
</g>
<!-- 1 -->
<g id="node2" class="node">
<title>1</title>
<ellipse fill="none" stroke="black" cx="122" cy="-52" rx="18" ry="18"/>
<text text-anchor="middle" x="122" y="-48.3" font-family="Times,serif" font-size="14.00">1</text>
</g>
<!-- 4&#45;&gt;1 -->
<g id="edge1" class="edge">
<title>4&#45;&gt;1</title>
<path fill="none" stroke="black" d="M31.41,-89.68C37.74,-83.96 45.82,-77.45 54,-73 66.47,-66.22 81.45,-61.27 94.08,-57.88"/>
<polygon fill="black" stroke="black" points="95.18,-61.21 104.03,-55.39 93.48,-54.42 95.18,-61.21"/>
<text text-anchor="middle" x="70" y="-76.8" font-family="Times,serif" font-size="14.00">0/5</text>
</g>
<!-- 5 -->
<g id="node3" class="node">
<title>5</title>
<ellipse fill="none" stroke="black" cx="321" cy="-114" rx="18" ry="18"/>
<text text-anchor="middle" x="321" y="-110.3" font-family="Times,serif" font-size="14.00">5</text>
</g>
<!-- 4&#45;&gt;5 -->
<g id="edge2" class="edge">
<title>4&#45;&gt;5</title>
<path fill="none" stroke="black" d="M34.66,-109.66C40.57,-112.18 47.46,-114.67 54,-116 139.84,-133.39 244.49,-123.92 292.96,-117.84"/>
<polygon fill="black" stroke="black" points="293.5,-121.3 302.96,-116.53 292.59,-114.36 293.5,-121.3"/>
<text text-anchor="middle" x="174" y="-128.8" font-family="Times,serif" font-size="14.00">0/10</text>
</g>
<!-- 2 -->
<g id="node4" class="node">
<title>2</title>
<ellipse fill="none" stroke="black" cx="226" cy="-52" rx="18" ry="18"/>
<text text-anchor="middle" x="226" y="-48.3" font-family="Times,serif" font-size="14.00">2</text>
</g>
<!-- 1&#45;&gt;2 -->
<g id="edge8" class="edge">
<title>1&#45;&gt;2</title>
<path fill="none" stroke="black" d="M140.3,-52C156.08,-52 179.64,-52 197.91,-52"/>
<polygon fill="black" stroke="black" points="197.95,-55.5 207.95,-52 197.95,-48.5 197.95,-55.5"/>
<text text-anchor="middle" x="174" y="-55.8" font-family="Times,serif" font-size="14.00">0/12</text>
</g>
<!-- 2&#45;&gt;5 -->
<g id="edge4" class="edge">
<title>2&#45;&gt;5</title>
<path fill="none" stroke="black" d="M241.53,-61.69C256.41,-71.61 279.75,-87.17 297.11,-98.74"/>
<polygon fill="black" stroke="black" points="295.31,-101.75 305.57,-104.38 299.19,-95.92 295.31,-101.75"/>
<text text-anchor="middle" x="273.5" y="-93.8" font-family="Times,serif" font-size="14.00">0/7</text>
</g>
<!-- 3 -->
<g id="node5" class="node">
<title>3</title>
<ellipse fill="none" stroke="black" cx="321" cy="-34" rx="18" ry="18"/>
<text text-anchor="middle" x="321" y="-30.3" font-family="Times,serif" font-size="14.00">3</text>
</g>
<!-- 2&#45;&gt;3 -->
<g id="edge3" class="edge">
<title>2&#45;&gt;3</title>
<path fill="none" stroke="black" d="M241.79,-43.05C247.84,-39.87 255.04,-36.67 262,-35 271.93,-32.63 283.08,-31.98 292.94,-32.06"/>
<polygon fill="black" stroke="black" points="292.9,-35.56 303.01,-32.38 293.13,-28.56 292.9,-35.56"/>
<text text-anchor="middle" x="273.5" y="-38.8" font-family="Times,serif" font-size="14.00">0/3</text>
</g>
<!-- 3&#45;&gt;4 -->
<g id="edge5" class="edge">
<title>3&#45;&gt;4</title>
<path fill="none" stroke="black" d="M313.99,-50.82C308.52,-63.42 299.12,-79.84 285,-88 245.05,-111.1 105.72,-106.69 46.25,-103.63"/>
<polygon fill="black" stroke="black" points="46.29,-100.12 36.11,-103.08 45.91,-107.11 46.29,-100.12"/>
<text text-anchor="middle" x="174" y="-108.8" font-family="Times,serif" font-size="14.00">0/10</text>
</g>
<!-- 0 -->
<g id="node6" class="node">
<title>0</title>
<ellipse fill="none" stroke="black" cx="18" cy="-18" rx="18" ry="18"/>
<text text-anchor="middle" x="18" y="-14.3" font-family="Times,serif" font-size="14.00">0</text>
</g>
<!-- 0&#45;&gt;1 -->
<g id="edge7" class="edge">
<title>0&#45;&gt;1</title>
<path fill="none" stroke="black" d="M35.81,-21.27C49.53,-24.18 69.32,-28.9 86,-35 89.4,-36.24 92.92,-37.71 96.34,-39.26"/>
<polygon fill="black" stroke="black" points="95.08,-42.53 105.61,-43.69 98.1,-36.22 95.08,-42.53"/>
<text text-anchor="middle" x="70" y="-38.8" font-family="Times,serif" font-size="14.00">0/15</text>
</g>
<!-- 0&#45;&gt;3 -->
<g id="edge6" class="edge">
<title>0&#45;&gt;3</title>
<path fill="none" stroke="black" d="M36.23,-18.29C73.92,-18.98 166.53,-20.96 244,-25 262.25,-25.95 266.86,-25.79 285,-28 287.57,-28.31 290.24,-28.69 292.91,-29.09"/>
<polygon fill="black" stroke="black" points="292.52,-32.57 302.96,-30.74 293.66,-25.67 292.52,-32.57"/>
<text text-anchor="middle" x="174" y="-25.8" font-family="Times,serif" font-size="14.00">0/4</text>
</g>
</g>
</svg>
