<?xml version="1.0" encoding="UTF-8" standalone="no"?>
<!DOCTYPE svg PUBLIC "-//W3C//DTD SVG 1.1//EN"
 "http://www.w3.org/Graphics/SVG/1.1/DTD/svg11.dtd">
<!-- Generated by graphviz version 2.43.20190912.0211 (20190912.0211)
 -->
<!-- Title: finite_state_machine Pages: 1 -->
<svg width="451pt" height="141pt"
 viewBox="0.00 0.00 451.00 141.00" xmlns="http://www.w3.org/2000/svg" xmlns:xlink="http://www.w3.org/1999/xlink">
<g id="graph0" class="graph" transform="scale(1 1) rotate(0) translate(4 137)">
<title>finite_state_machine</title>
<polygon fill="white" stroke="transparent" points="-4,4 -4,-137 447,-137 447,4 -4,4"/>
<!-- 0 -->
<g id="node1" class="node">
<title>0</title>
<ellipse fill="none" stroke="black" cx="18" cy="-88" rx="18" ry="18"/>
<text text-anchor="middle" x="18" y="-84.3" font-family="Times,serif" font-size="14.00">0</text>
</g>
<!-- 1 -->
<g id="node2" class="node">
<title>1</title>
<ellipse fill="none" stroke="black" cx="122" cy="-61" rx="18" ry="18"/>
<text text-anchor="middle" x="122" y="-57.3" font-family="Times,serif" font-size="14.00">1</text>
</g>
<!-- 0&#45;&gt;1 -->
<g id="edge1" class="edge">
<title>0&#45;&gt;1</title>
<path fill="none" stroke="black" d="M34.81,-80.94C40.74,-78.49 47.6,-75.88 54,-74 66.92,-70.2 81.58,-67.21 93.89,-65.06"/>
<polygon fill="black" stroke="black" points="94.7,-68.47 103.99,-63.39 93.56,-61.57 94.7,-68.47"/>
<text text-anchor="middle" x="70" y="-77.8" font-family="Times,serif" font-size="14.00">0/10</text>
</g>
<!-- 2 -->
<g id="node3" class="node">
<title>2</title>
<ellipse fill="none" stroke="black" cx="122" cy="-115" rx="18" ry="18"/>
<text text-anchor="middle" x="122" y="-111.3" font-family="Times,serif" font-size="14.00">2</text>
</g>
<!-- 0&#45;&gt;2 -->
<g id="edge2" class="edge">
<title>0&#45;&gt;2</title>
<path fill="none" stroke="black" d="M35.84,-92.46C51.81,-96.69 76.04,-103.1 94.58,-108.01"/>
<polygon fill="black" stroke="black" points="93.91,-111.45 104.47,-110.62 95.7,-104.68 93.91,-111.45"/>
<text text-anchor="middle" x="70" y="-108.8" font-family="Times,serif" font-size="14.00">3/20</text>
</g>
<!-- 3 -->
<g id="node4" class="node">
<title>3</title>
<ellipse fill="none" stroke="black" cx="226" cy="-18" rx="18" ry="18"/>
<text text-anchor="middle" x="226" y="-14.3" font-family="Times,serif" font-size="14.00">3</text>
</g>
<!-- 1&#45;&gt;3 -->
<g id="edge3" class="edge">
<title>1&#45;&gt;3</title>
<path fill="none" stroke="black" d="M138.14,-52.72C144.24,-49.52 151.38,-45.93 158,-43 171.44,-37.06 186.78,-31.27 199.38,-26.76"/>
<polygon fill="black" stroke="black" points="200.54,-30.06 208.81,-23.44 198.22,-23.46 200.54,-30.06"/>
<text text-anchor="middle" x="174" y="-46.8" font-family="Times,serif" font-size="14.00">0/50</text>
</g>
<!-- 4 -->
<g id="node5" class="node">
<title>4</title>
<ellipse fill="none" stroke="black" cx="330" cy="-66" rx="18" ry="18"/>
<text text-anchor="middle" x="330" y="-62.3" font-family="Times,serif" font-size="14.00">4</text>
</g>
<!-- 1&#45;&gt;4 -->
<g id="edge4" class="edge">
<title>1&#45;&gt;4</title>
<path fill="none" stroke="black" d="M140.21,-61.42C176.05,-62.29 258.91,-64.3 301.95,-65.34"/>
<polygon fill="black" stroke="black" points="301.9,-68.84 311.98,-65.59 302.07,-61.85 301.9,-68.84"/>
<text text-anchor="middle" x="226" y="-67.8" font-family="Times,serif" font-size="14.00">0/10</text>
</g>
<!-- 2&#45;&gt;3 -->
<g id="edge5" class="edge">
<title>2&#45;&gt;3</title>
<path fill="none" stroke="black" d="M137.38,-105.11C151.5,-95.06 173.3,-78.65 190,-62 196.56,-55.46 203.06,-47.72 208.65,-40.58"/>
<polygon fill="black" stroke="black" points="211.48,-42.64 214.74,-32.57 205.9,-38.41 211.48,-42.64"/>
<text text-anchor="middle" x="174" y="-92.8" font-family="Times,serif" font-size="14.00">2/20</text>
</g>
<!-- 2&#45;&gt;4 -->
<g id="edge6" class="edge">
<title>2&#45;&gt;4</title>
<path fill="none" stroke="black" d="M140.19,-114C153.79,-113.02 173.23,-111.19 190,-108 237.14,-99.03 248.36,-93.81 294,-79 297.14,-77.98 300.43,-76.85 303.66,-75.69"/>
<polygon fill="black" stroke="black" points="304.89,-78.97 313.07,-72.24 302.48,-72.4 304.89,-78.97"/>
<text text-anchor="middle" x="226" y="-107.8" font-family="Times,serif" font-size="14.00">1/33</text>
</g>
<!-- 3&#45;&gt;4 -->
<g id="edge8" class="edge">
<title>3&#45;&gt;4</title>
<path fill="none" stroke="black" d="M243.41,-22.98C257.24,-27.44 277.39,-34.58 294,-43 298.2,-45.13 302.51,-47.65 306.62,-50.23"/>
<polygon fill="black" stroke="black" points="304.86,-53.27 315.13,-55.85 308.71,-47.42 304.86,-53.27"/>
<text text-anchor="middle" x="278" y="-46.8" font-family="Times,serif" font-size="14.00">0/20</text>
</g>
<!-- 5 -->
<g id="node6" class="node">
<title>5</title>
<ellipse fill="none" stroke="black" cx="425" cy="-25" rx="18" ry="18"/>
<text text-anchor="middle" x="425" y="-21.3" font-family="Times,serif" font-size="14.00">5</text>
</g>
<!-- 3&#45;&gt;5 -->
<g id="edge9" class="edge">
<title>3&#45;&gt;5</title>
<path fill="none" stroke="black" d="M244.14,-18.61C278.34,-19.82 355.31,-22.56 396.6,-24.03"/>
<polygon fill="black" stroke="black" points="396.64,-27.53 406.76,-24.39 396.89,-20.53 396.64,-27.53"/>
<text text-anchor="middle" x="330" y="-26.8" font-family="Times,serif" font-size="14.00">2/2</text>
</g>
<!-- 4&#45;&gt;5 -->
<g id="edge7" class="edge">
<title>4&#45;&gt;5</title>
<path fill="none" stroke="black" d="M346.78,-59.04C361.07,-52.74 382.38,-43.35 398.99,-36.02"/>
<polygon fill="black" stroke="black" points="400.41,-39.23 408.15,-31.99 397.58,-32.82 400.41,-39.23"/>
<text text-anchor="middle" x="377.5" y="-54.8" font-family="Times,serif" font-size="14.00">1/1</text>
</g>
</g>
</svg>
